<?xml version="1.0" encoding="utf-8" standalone="no"?>
<!DOCTYPE svg PUBLIC "-//W3C//DTD SVG 1.1//EN"
  "http://www.w3.org/Graphics/SVG/1.1/DTD/svg11.dtd">
<svg xmlns:xlink="http://www.w3.org/1999/xlink" width="453.087692pt" height="338.4pt" viewBox="0 0 453.087692 338.4" xmlns="http://www.w3.org/2000/svg" version="1.1">
 <metadata>
  <rdf:RDF xmlns:dc="http://purl.org/dc/elements/1.1/" xmlns:cc="http://creativecommons.org/ns#" xmlns:rdf="http://www.w3.org/1999/02/22-rdf-syntax-ns#">
   <cc:Work>
    <dc:type rdf:resource="http://purl.org/dc/dcmitype/StillImage"/>
    <dc:date>2023-05-19T04:05:53.770691</dc:date>
    <dc:format>image/svg+xml</dc:format>
    <dc:creator>
     <cc:Agent>
      <dc:title>Matplotlib v3.7.1, https://matplotlib.org/</dc:title>
     </cc:Agent>
    </dc:creator>
   </cc:Work>
  </rdf:RDF>
 </metadata>
 <defs>
  <style type="text/css">*{stroke-linejoin: round; stroke-linecap: butt}</style>
 </defs>
 <g id="figure_1">
  <g id="patch_1">
   <path d="M 0 338.4 
L 453.087692 338.4 
L 453.087692 0 
L 0 0 
L 0 338.4 
z
" style="fill: none"/>
  </g>
  <g id="axes_1">
   <g id="patch_2">
    <path d="M 7.2 331.2 
L 445.887692 331.2 
L 445.887692 7.2 
L 7.2 7.2 
L 7.2 331.2 
z
" style="fill: none"/>
   </g>
   <g id="patch_3">
    <path d="M 437.451391 83.415084 
L 435.707505 84.379525 
L 432.637686 86.07726 
L 431.885656 86.493164 
L 429.474685 87.826529 
L 426.247665 89.611204 
L 424.109881 90.793486 
L 422.134652 91.885869 
L 420.807883 92.619627 
L 417.991552 94.177173 
L 415.97247 95.293808 
L 415.099482 95.776607 
L 411.716795 97.647371 
L 409.698353 98.763652 
L 407.99186 99.707413 
L 405.022036 101.349847 
L 402.639326 102.667584 
L 400.509429 103.845504 
L 399.061793 104.646106 
L 396.983709 105.795372 
L 395.205676 106.778698 
L 393.569057 107.683815 
L 389.991233 109.662498 
L 387.964004 110.783639 
L 385.847302 111.954262 
L 384.11248 112.91369 
L 382.597313 113.75164 
L 379.324752 115.5615 
L 377.975173 116.307872 
L 375.358481 117.755011 
L 374.741901 118.096004 
L 370.963329 120.18571 
L 368.672653 121.452548 
L 368.349651 121.631181 
L 364.4909 123.765229 
L 362.334896 124.957587 
L 360.534537 125.95326 
L 359.580089 126.481109 
L 356.835559 127.998946 
L 354.691725 129.184574 
L 353.189645 130.015286 
L 349.812146 131.883182 
L 347.559713 133.128869 
L 345.510844 134.261978 
L 344.331629 134.914133 
L 341.835906 136.29437 
L 340.586636 136.985268 
L 337.862227 138.491978 
L 336.766456 139.097984 
L 334.344378 140.437492 
L 330.866708 142.360786 
L 328.422507 143.712529 
L 326.735654 144.645429 
L 325.505686 145.325651 
L 323.191791 146.60533 
L 320.509288 148.088864 
L 319.341181 148.734875 
L 316.734863 150.176277 
L 313.828319 151.783714 
L 311.720284 152.949544 
L 309.604009 154.119931 
L 307.911984 155.05569 
L 305.083479 156.61997 
L 304.246775 157.082701 
L 302.690086 157.943614 
L 300.00953 159.426072 
L 298.005899 160.534162 
L 296.25033 161.505063 
L 293.258961 163.159413 
L 290.313949 164.788126 
L 289.647617 165.156635 
L 286.274445 167.022137 
L 284.968819 167.744202 
L 283.240961 168.699779 
L 279.935288 170.527951 
L 279.165188 170.953848 
L 276.661866 172.338288 
L 274.278984 173.656119 
L 272.570416 174.601027 
L 269.269289 176.426686 
L 268.896759 176.63271 
L 265.625586 178.441803 
L 262.867829 179.966956 
L 260.936304 181.035169 
L 260.441684 181.308714 
L 257.158457 183.124473 
L 256.212717 183.647506 
L 252.11048 185.916211 
L 249.993155 187.087179 
L 247.947578 188.218467 
L 246.621614 188.951779 
L 243.632716 190.604763 
L 241.682552 191.683283 
L 240.128627 192.542668 
L 237.166474 194.18086 
L 235.450668 195.129771 
L 234.24023 195.799193 
L 232.201897 196.926475 
L 229.754037 198.280242 
L 226.934634 199.839487 
L 225.71564 200.513641 
L 223.978576 201.474308 
L 221.586362 202.797301 
L 218.295867 204.61708 
L 216.457977 205.633508 
L 215.781808 206.007457 
L 213.102547 207.489199 
L 211.341638 208.463054 
L 208.416167 210.080959 
L 206.258837 211.274051 
L 204.725212 212.122209 
L 201.574207 213.864844 
L 201.039034 214.160817 
L 196.877434 216.462352 
L 195.308144 217.330234 
L 193.754872 218.189257 
L 191.956302 219.18394 
L 188.761574 220.950756 
L 187.173728 221.8289 
L 185.263249 222.885473 
L 182.355229 224.493727 
L 181.119194 225.177305 
L 178.731608 226.497738 
L 177.165868 227.363657 
L 174.473263 228.852778 
L 173.267613 229.519552 
L 171.042986 230.749862 
L 168.510673 232.150334 
L 167.00988 232.980335 
L 163.801487 234.754708 
L 161.221642 236.181468 
L 160.511543 236.574181 
L 158.305987 237.793945 
L 154.83489 239.713604 
L 154.471513 239.914566 
L 151.234943 241.704522 
L 149.371523 242.73507 
L 147.624491 243.70125 
L 144.772097 245.278741 
L 142.291976 246.65035 
L 140.673921 247.545201 
L 139.203937 248.358162 
L 135.841265 250.217857 
L 134.886433 250.745919 
L 133.148098 251.70729 
L 129.801116 253.558308 
L 128.183101 254.453136 
L 126.50005 255.383933 
L 124.487541 256.496933 
L 121.143366 258.346398 
L 119.602971 259.1983 
L 117.86297 260.160592 
L 116.314798 261.016795 
L 113.777099 262.420246 
L 111.865636 263.477364 
L 109.562968 264.750834 
L 107.392852 265.950997 
L 104.290609 267.666665 
L 102.528948 268.640936 
L 99.654243 270.230765 
L 98.727654 270.743207 
L 95.469504 272.545098 
L 94.150958 273.274308 
L 92.450997 274.214456 
L 88.820143 276.222467 
L 87.959319 276.698538 
L 86.354704 277.585956 
L 84.158638 278.80047 
L 81.907603 280.045385 
L 78.843238 281.740105 
L 76.768391 282.88758 
L 74.139569 284.341427 
L 71.996851 285.526438 
L 70.083866 286.584397 
L 69.475321 286.920947 
L 67.476866 288.026175 
L 63.742981 290.091166 
L 61.787452 291.172654 
L 59.908386 292.211855 
L 58.442463 293.02257 
L 55.493172 294.65365 
L 53.06751 295.99514 
L 52.480743 296.319646 
L 49.800995 297.801656 
L 46.937736 299.385157 
L 44.659568 300.645077 
L 44.16491 300.918643 
L 41.201635 302.557456 
L 38.298202 304.163173 
L 37.527489 304.589409 
L 34.881642 306.052671 
L 32.724161 307.245846 
L 29.993083 308.756245 
L 29.226906 309.179972 
L 26.507466 310.683934 
L 23.642635 312.268303 
L 21.035847 313.709964 
L 19.194348 314.728388 
L 18.786076 314.954179 
L 15.636302 316.696134 
L 15.636302 316.696134 
L 18.448033 318.173828 
L 19.429424 318.653468 
L 21.478902 319.595539 
L 23.217965 320.33234 
L 24.957028 321.012336 
L 25.301505 321.140344 
L 27.237928 321.819113 
L 29.174351 322.429208 
L 31.248052 323.007367 
L 32.863435 323.404514 
L 35.491886 323.952459 
L 36.088823 324.06012 
L 38.514074 324.434451 
L 40.24548 324.64042 
L 41.976886 324.796032 
L 43.23559 324.877893 
L 45.748944 324.963608 
L 46.44893 324.969231 
L 48.465662 324.941533 
L 50.482395 324.849412 
L 50.949233 324.819006 
L 52.701296 324.674762 
L 54.453359 324.483408 
L 56.206945 324.245347 
L 58.840096 323.801803 
L 59.614712 323.651917 
L 61.444456 323.263318 
L 63.2742 322.826752 
L 64.945987 322.386546 
L 66.850037 321.837829 
L 68.507556 321.3197 
L 71.487253 320.295327 
L 73.728261 319.447773 
L 74.989808 318.942079 
L 76.712776 318.218692 
L 79.674979 316.888277 
L 81.486327 316.0218 
L 83.603765 314.959073 
L 85.687468 313.861868 
L 87.212911 313.026903 
L 89.107229 311.953398 
L 91.211907 310.713995 
L 93.38828 309.381803 
L 95.628506 307.958081 
L 97.673124 306.613334 
L 99.794677 305.173345 
L 103.244164 302.737813 
L 105.452242 301.119426 
L 107.294005 299.735171 
L 108.769636 298.604076 
L 111.523189 296.44242 
L 112.874267 295.358074 
L 116.050405 292.749576 
L 117.68609 291.374651 
L 119.196594 290.086472 
L 122.182936 287.489063 
L 123.451863 286.36565 
L 125.179876 284.817459 
L 127.216469 282.966402 
L 129.486684 280.870488 
L 132.590318 277.952072 
L 134.113714 276.498105 
L 135.86639 274.808519 
L 138.06909 272.660558 
L 141.20989 269.552837 
L 142.212483 268.550185 
L 144.657176 266.084879 
L 146.136205 264.579842 
L 148.90451 261.736957 
L 151.340885 259.208659 
L 153.475865 256.974288 
L 155.775074 254.549725 
L 157.590489 252.622816 
L 160.477178 249.537946 
L 162.304305 247.573213 
L 163.048583 246.770382 
L 165.251664 244.386099 
L 168.723252 240.607518 
L 171.204639 237.892956 
L 173.228786 235.671526 
L 173.72802 235.122779 
L 177.652716 230.799238 
L 179.097497 229.204225 
L 180.142243 228.050024 
L 183.35057 224.502791 
L 185.021874 222.654217 
L 186.584915 220.925574 
L 188.808182 218.467951 
L 190.682504 216.397996 
L 193.626346 213.152405 
L 194.974656 211.668836 
L 198.089967 208.250084 
L 199.625274 206.570727 
L 201.491531 204.535055 
L 204.858419 200.880631 
L 206.663152 198.932637 
L 208.617903 196.83229 
L 210.832763 194.465561 
L 212.87602 192.295594 
L 215.600313 189.424113 
L 217.635681 187.296286 
L 219.318948 185.548648 
L 222.288572 182.493959 
L 222.440675 182.338521 
L 224.855776 179.884522 
L 227.332233 177.396779 
L 229.461919 175.281888 
L 232.631831 172.178491 
L 233.791314 171.057264 
L 235.378918 169.53464 
L 239.074571 166.0491 
L 241.096781 164.178355 
L 242.308124 163.070631 
L 245.428067 160.263708 
L 246.426319 159.380069 
L 248.172296 157.851957 
L 251.326662 155.149101 
L 252.398769 154.247954 
L 254.389193 152.599206 
L 258.19126 149.540454 
L 259.858058 148.238364 
L 261.477406 146.996749 
L 263.230218 145.679383 
L 265.274451 144.178713 
L 268.772934 141.702466 
L 269.742887 141.037037 
L 271.581933 139.801163 
L 273.292211 138.682665 
L 276.867173 136.443301 
L 279.009689 135.166923 
L 281.342398 133.834862 
L 282.644716 133.117852 
L 285.046711 131.846556 
L 286.512361 131.103995 
L 290.080651 129.403815 
L 291.529453 128.757991 
L 292.869241 128.184088 
L 296.492053 126.746732 
L 297.83571 126.256947 
L 299.928498 125.541756 
L 301.29411 125.106813 
L 303.124121 124.563866 
L 305.667067 123.886518 
L 307.806607 123.38737 
L 310.977225 122.769138 
L 312.987382 122.453793 
L 315.188118 122.178053 
L 315.981142 122.096728 
L 318.774212 121.887516 
L 320.900443 121.810053 
L 322.62113 121.799984 
L 324.369078 121.838613 
L 326.107262 121.926467 
L 327.845447 122.064238 
L 328.534178 122.132771 
L 331.04247 122.450023 
L 333.68942 122.901498 
L 335.103332 123.192491 
L 338.335754 123.99022 
L 340.471331 124.619885 
L 342.001199 125.121911 
L 345.112752 126.27609 
L 347.081799 127.099975 
L 347.549647 127.306509 
L 349.384207 128.156671 
L 351.218768 129.07157 
L 352.247793 129.613355 
L 353.811791 130.476527 
L 355.375788 131.388011 
L 357.81198 132.905094 
L 358.806837 133.559027 
L 360.416668 134.659871 
L 362.0265 135.813895 
L 363.13678 136.641052 
L 365.95326 138.85492 
L 366.915028 139.649235 
L 368.514529 141.013883 
L 370.11403 142.433446 
L 372.674576 144.821451 
L 373.65532 145.774118 
L 375.218455 147.336416 
L 377.275156 149.474896 
L 378.910148 151.24271 
L 380.545141 153.071143 
L 381.797766 154.513298 
L 383.99334 157.128327 
L 385.65408 159.180789 
L 387.31482 161.297961 
L 388.840307 163.300184 
L 390.434425 165.451756 
L 392.911598 168.916478 
L 394.495754 171.210257 
L 396.079909 173.565502 
L 397.936745 176.405025 
L 400.16748 179.929887 
L 401.949939 182.836317 
L 403.846201 186.016785 
L 405.276285 188.476172 
L 406.70637 190.98822 
L 408.61735 194.427791 
L 410.390145 197.703974 
L 411.954307 200.663331 
L 413.434121 203.522844 
L 415.138524 206.888819 
L 416.842927 210.332936 
L 419.272111 215.377815 
L 420.361868 217.693402 
L 421.683966 220.546552 
L 423.006064 223.448053 
L 424.226426 226.169428 
L 425.53017 229.122754 
L 426.833915 232.123859 
L 429.314072 237.965792 
L 430.481649 240.776676 
L 432.289731 245.206781 
L 434.097813 249.731359 
L 435.947897 254.459553 
L 437.451391 258.375871 
z
" clip-path="url(#p1669237730)" style="fill: #b2b3ff; opacity: 0.5"/>
   </g>
   <g id="patch_4">
    <path d="M 437.451391 13.430769 
L 434.953361 17.554854 
L 434.252052 18.705316 
L 430.641192 24.577709 
L 428.36229 28.239925 
L 427.551491 29.534675 
L 425.75747 32.384199 
L 422.765699 37.089229 
L 420.409637 40.753209 
L 419.165272 42.673671 
L 416.330696 47.010452 
L 413.379672 51.469431 
L 412.590142 52.652726 
L 410.023215 56.471625 
L 407.316299 60.451996 
L 404.778273 64.140392 
L 404.486157 64.562201 
L 400.604375 70.114299 
L 399.724934 71.358436 
L 396.959415 75.237748 
L 394.795147 78.238688 
L 392.289369 81.674804 
L 389.776102 85.079844 
L 389.277269 85.750752 
L 386.266597 89.765331 
L 384.92008 91.541613 
L 381.622682 95.841244 
L 381.049725 96.58108 
L 378.357985 100.028014 
L 375.803058 103.255812 
L 373.132516 106.583934 
L 371.020869 109.182443 
L 369.526251 111.003992 
L 367.53691 113.405763 
L 365.247634 116.137547 
L 363.165691 118.592091 
L 360.083658 122.173542 
L 359.20526 123.182874 
L 357.84799 124.732513 
L 354.368243 128.650283 
L 351.809423 131.480556 
L 351.138678 132.215357 
L 347.824992 135.802221 
L 347.02428 136.658145 
L 344.776014 139.038968 
L 341.440408 142.510191 
L 339.594094 144.400211 
L 338.790713 145.215633 
L 335.281485 148.727848 
L 333.126246 150.844907 
L 331.591428 152.333972 
L 328.954083 154.85663 
L 327.439518 156.284722 
L 326.115913 157.520444 
L 321.958144 161.327447 
L 320.328867 162.788367 
L 318.624009 164.298427 
L 315.78901 166.767311 
L 313.946499 168.343629 
L 312.436427 169.618943 
L 309.59391 171.979003 
L 307.557709 173.637042 
L 306.424817 174.547765 
L 303.398345 176.939464 
L 301.40199 178.484236 
L 299.713943 179.770053 
L 297.546489 181.393654 
L 294.762023 183.434253 
L 292.498881 185.055356 
L 291.850872 185.513346 
L 288.1351 188.086372 
L 287.576319 188.465477 
L 284.6575 190.412478 
L 282.149149 192.041056 
L 281.647388 192.36188 
L 277.821096 194.754115 
L 276.318099 195.667549 
L 273.835003 197.144187 
L 271.567503 198.457308 
L 270.384088 199.129243 
L 267.145471 200.921168 
L 266.088337 201.491195 
L 263.329414 202.94435 
L 261.491911 203.8845 
L 260.341587 204.461792 
L 257.173678 206.006774 
L 254.927299 207.062462 
L 252.838716 208.014317 
L 249.943455 209.286513 
L 247.753551 210.21227 
L 246.390723 210.77252 
L 244.500971 211.529238 
L 241.795045 212.572018 
L 240.777942 212.951566 
L 238.915664 213.628928 
L 235.513113 214.807814 
L 234.310842 215.20622 
L 232.166007 215.89344 
L 228.912757 216.878241 
L 227.563874 217.266219 
L 224.957194 217.982178 
L 224.38561 218.133217 
L 221.542446 218.852688 
L 219.75655 219.277517 
L 217.032021 219.885349 
L 215.146632 220.277483 
L 212.897022 220.714881 
L 209.892289 221.24735 
L 208.496436 221.474575 
L 206.548098 221.770381 
L 203.837332 222.140545 
L 201.335447 222.43944 
L 200.176723 222.563967 
L 198.440901 222.734045 
L 195.885429 222.948489 
L 194.478805 223.04826 
L 191.50488 223.216497 
L 189.48106 223.297833 
L 187.674404 223.347758 
L 185.657747 223.378214 
L 183.688785 223.382227 
L 181.565238 223.35807 
L 179.545577 223.307666 
L 176.570283 223.184702 
L 174.729072 223.07954 
L 171.866499 222.871907 
L 169.969613 222.704727 
L 168.048601 222.511381 
L 165.474119 222.21433 
L 165.007709 222.155865 
L 160.889132 221.577704 
L 160.158038 221.463453 
L 158.337637 221.163746 
L 154.597944 220.479896 
L 152.80559 220.119642 
L 151.43728 219.830443 
L 148.38267 219.140553 
L 147.790624 218.999761 
L 144.912506 218.282594 
L 142.024019 217.508246 
L 141.47997 217.356276 
L 137.973244 216.330176 
L 136.95388 216.016778 
L 134.187054 215.131796 
L 131.165797 214.108114 
L 129.887392 213.656939 
L 128.99129 213.3343 
L 125.871169 212.169835 
L 123.568602 211.269565 
L 122.307755 210.761865 
L 118.607805 209.211861 
L 116.889107 208.461329 
L 115.04708 207.635441 
L 112.920155 206.654148 
L 111.573996 206.01775 
L 108.911967 204.7243 
L 107.036098 203.784934 
L 105.209967 202.848317 
L 101.970303 201.13291 
L 99.508539 199.783398 
L 98.326796 199.121466 
L 97.197871 198.480569 
L 94.697692 197.031463 
L 91.716164 195.249796 
L 90.576118 194.553139 
L 87.035834 192.335438 
L 85.982211 191.659564 
L 83.158708 189.812471 
L 82.133075 189.128577 
L 79.690864 187.472348 
L 77.537921 185.979864 
L 74.906701 184.114563 
L 72.9276 182.68165 
L 70.135862 180.616712 
L 67.878334 178.909547 
L 66.447848 177.810507 
L 65.165992 176.814262 
L 63.19979 175.265218 
L 61.179827 173.647428 
L 58.493554 171.454552 
L 56.222442 169.563679 
L 53.546892 167.292699 
L 51.828962 165.809799 
L 48.991525 163.318183 
L 47.723164 162.187338 
L 45.980914 160.616792 
L 42.183253 157.12444 
L 40.360522 155.414666 
L 38.243806 153.401795 
L 35.997659 151.233722 
L 35.144563 150.401613 
L 32.894828 148.184341 
L 31.365077 146.657714 
L 27.613809 142.849172 
L 25.490119 140.652162 
L 24.787775 139.919065 
L 22.810302 137.837634 
L 19.186665 133.956971 
L 18.110397 132.787783 
L 15.636302 130.071294 
L 15.636302 316.696134 
L 16.912297 315.990456 
L 20.434099 314.042755 
L 21.580753 313.408608 
L 24.770851 311.644353 
L 26.551323 310.659679 
L 27.798975 309.969676 
L 30.044207 308.727971 
L 32.717528 307.249515 
L 34.054546 306.510089 
L 37.750509 304.46607 
L 39.332539 303.591142 
L 41.718281 302.271729 
L 42.30365 301.947996 
L 45.311363 300.284607 
L 48.160188 298.70909 
L 50.199842 297.581078 
L 50.814233 297.241295 
L 54.633091 295.129309 
L 55.376242 294.718316 
L 57.09187 293.769504 
L 59.329385 292.532066 
L 61.602941 291.274696 
L 65.430925 289.157664 
L 66.540028 288.544285 
L 69.476326 286.920392 
L 70.269827 286.481553 
L 73.510948 284.68908 
L 74.194046 284.311299 
L 77.974949 282.220304 
L 78.899005 281.709263 
L 81.277092 280.394084 
L 83.481632 279.174883 
L 84.942847 278.366771 
L 88.228942 276.549426 
L 89.437344 275.881129 
L 92.163994 274.37318 
L 93.323944 273.73168 
L 96.521715 271.963182 
L 98.76208 270.724168 
L 99.784549 270.1587 
L 101.766954 269.062349 
L 103.88157 267.89288 
L 106.886779 266.230876 
L 109.948396 264.537676 
L 111.917948 263.448433 
L 113.842945 262.383831 
L 116.199209 261.08072 
L 118.284845 259.927278 
L 120.502192 258.700994 
L 121.511871 258.1426 
L 123.69388 256.93586 
L 126.055654 255.629702 
L 128.422927 254.320503 
L 129.048123 253.974744 
L 132.740598 251.932653 
L 133.850666 251.31874 
L 136.404792 249.906204 
L 137.907769 249.074996 
L 141.59995 247.033068 
L 143.529225 245.9661 
L 145.731569 244.748114 
L 147.399503 243.825678 
L 149.008982 242.93557 
L 151.023204 241.821622 
L 154.079082 240.131596 
L 155.392436 239.405258 
L 157.48424 238.248404 
L 160.715607 236.461326 
L 161.839297 235.839879 
L 163.27965 235.043305 
L 165.087065 234.04373 
L 167.963319 232.453044 
L 169.880363 231.39284 
L 171.733055 230.368225 
L 173.844363 229.200585 
L 175.707487 228.170201 
L 178.809938 226.454418 
L 180.955382 225.2679 
L 182.925468 224.178361 
L 184.949995 223.058715 
L 186.369984 222.273403 
L 188.484568 221.103951 
L 192.439795 218.916548 
L 192.986016 218.614465 
L 196.360579 216.748194 
L 198.065491 215.805308 
L 200.561649 214.42483 
L 201.875031 213.698476 
L 203.293113 212.914218 
L 205.384362 211.757672 
L 209.347381 209.565959 
L 210.985204 208.660177 
L 213.42363 207.311627 
L 215.830171 205.980711 
L 217.938274 204.814844 
L 219.756745 203.809154 
L 220.783947 203.241069 
L 222.8842 202.079543 
L 225.798221 200.46797 
L 227.871872 199.321156 
L 230.23169 198.01608 
L 232.117729 196.973023 
L 233.415727 196.255177 
L 235.359397 195.180247 
L 237.912986 193.768008 
L 240.385851 192.400412 
L 243.20511 190.841246 
L 245.160423 189.759878 
L 246.395795 189.076666 
L 248.770846 187.763166 
L 251.476407 186.26688 
L 252.567816 185.663286 
L 255.459688 184.063962 
L 257.67107 182.840977 
L 260.363331 181.352046 
L 261.080629 180.955351 
L 263.898168 179.397137 
L 266.634455 177.883858 
L 268.590501 176.802084 
L 270.976206 175.482691 
L 272.556839 174.608536 
L 273.580719 174.042288 
L 277.069071 172.113087 
L 279.352542 170.850233 
L 280.5828 170.169851 
L 282.531239 169.092284 
L 285.813658 167.276971 
L 286.274111 167.022322 
L 288.308506 165.897218 
L 291.254613 164.2679 
L 294.030438 162.732755 
L 295.643657 161.840578 
L 297.243051 160.956048 
L 300.297264 159.266943 
L 302.620578 157.982055 
L 304.430616 156.98103 
L 305.237693 156.534683 
L 308.318886 154.830657 
L 310.6412 153.546322 
L 312.469762 152.535052 
L 314.569222 151.373965 
L 317.550156 149.725386 
L 318.899062 148.979385 
L 321.067565 147.780114 
L 323.485975 146.442634 
L 325.405269 145.381186 
L 327.737052 144.091614 
L 329.729226 142.98986 
L 332.431456 141.495416 
L 334.146497 140.546928 
L 335.75628 139.656653 
L 338.744815 138.00387 
L 339.76353 137.440479 
L 341.470402 136.496508 
L 343.358552 135.452284 
L 346.242155 133.857533 
L 348.842064 132.419677 
L 351.449084 130.977888 
L 353.558604 129.811237 
L 355.142322 128.935376 
L 357.437104 127.666267 
L 359.035479 126.782301 
L 362.167729 125.050037 
L 364.208936 123.921166 
L 365.829385 123.024992 
L 367.682032 122.000402 
L 370.461656 120.463155 
L 371.075377 120.123743 
L 373.038405 119.038108 
L 375.155893 117.86705 
L 377.099541 116.792133 
L 380.128333 115.117087 
L 382.828963 113.623528 
L 384.991696 112.427447 
L 385.570349 112.107428 
L 388.5052 110.484336 
L 391.167703 109.011862 
L 393.90064 107.500436 
L 395.894197 106.397917 
L 397.57814 105.466628 
L 399.33841 104.493126 
L 402.039647 102.999231 
L 404.296548 101.751072 
L 404.731866 101.510324 
L 407.712311 99.862015 
L 410.170979 98.502271 
L 411.468128 97.784895 
L 413.602708 96.604384 
L 416.463316 95.022351 
L 417.984564 94.181038 
L 420.00166 93.065501 
L 422.343107 91.770585 
L 425.730519 89.897207 
L 426.988357 89.201571 
L 428.104062 88.58454 
L 430.980735 86.993622 
L 433.316164 85.702034 
L 435.787232 84.335432 
L 437.451391 83.415084 
z
" clip-path="url(#p1669237730)" style="fill: #c9ffb2; opacity: 0.5"/>
   </g>
   <g id="patch_5">
    <path d="M 15.636302 223.383714 
L 15.636302 130.071294 
L 16.888601 131.451299 
L 19.719765 134.533284 
L 22.854967 137.88493 
L 24.313263 139.421945 
L 25.229884 140.38091 
L 29.112962 144.38228 
L 30.675666 145.964696 
L 31.715916 147.009192 
L 34.768355 150.033144 
L 36.562235 151.781786 
L 39.732595 154.820609 
L 40.518471 155.563689 
L 42.186247 157.12723 
L 44.403412 159.177591 
L 46.413169 161.008303 
L 50.094417 164.292927 
L 52.090512 166.036815 
L 54.246307 167.890886 
L 56.286877 169.617792 
L 58.972925 171.849342 
L 60.432768 173.042332 
L 61.422955 173.843566 
L 63.793792 175.735866 
L 65.510625 177.083166 
L 69.206866 179.918242 
L 71.720866 181.795346 
L 72.262646 182.194445 
L 74.766539 184.013928 
L 76.559852 185.2918 
L 79.90999 187.622549 
L 81.906367 188.976478 
L 84.211792 190.507494 
L 86.142868 191.763092 
L 88.406158 193.203581 
L 89.91052 194.142467 
L 91.825724 195.316297 
L 93.853767 196.533073 
L 96.68217 198.185023 
L 98.934773 199.463157 
L 99.974784 200.042038 
L 102.88771 201.625662 
L 103.804804 202.112731 
L 106.540095 203.532698 
L 108.06411 204.302581 
L 110.749431 205.622069 
L 112.700101 206.550929 
L 115.704354 207.932688 
L 117.303737 208.644164 
L 119.8428 209.73921 
L 120.912225 210.187783 
L 123.335701 211.176569 
L 125.904398 212.182573 
L 127.791225 212.893975 
L 131.028172 214.060057 
L 132.741689 214.649533 
L 133.308323 214.840229 
L 136.266105 215.801477 
L 138.463229 216.478395 
L 140.607044 217.108386 
L 142.862809 217.738745 
L 145.727445 218.491171 
L 147.923806 219.031633 
L 149.692567 219.443887 
L 152.304112 220.015077 
L 153.86496 220.335115 
L 156.528338 220.844341 
L 158.447389 221.18243 
L 159.778207 221.402712 
L 161.314689 221.642595 
L 165.04774 222.160939 
L 166.443231 222.331248 
L 168.999538 222.610115 
L 169.98639 222.706309 
L 172.949676 222.956791 
L 174.274779 223.050174 
L 176.899757 223.201176 
L 178.615119 223.275448 
L 181.337736 223.353728 
L 182.558834 223.373053 
L 186.219322 223.372411 
L 186.278754 223.371676 
L 188.679421 223.322626 
L 192.349769 223.174597 
L 193.358969 223.118415 
L 196.684314 222.88605 
L 198.931137 222.688013 
L 200.20883 222.560635 
L 202.02949 222.360637 
L 203.838676 222.140374 
L 206.140229 221.829156 
L 209.264503 221.351125 
L 210.701046 221.109851 
L 212.034844 220.873722 
L 214.329054 220.440285 
L 217.462462 219.792556 
L 218.937553 219.465347 
L 220.860731 219.017322 
L 223.546294 218.351121 
L 226.18156 217.651437 
L 227.917841 217.165562 
L 229.173906 216.801749 
L 232.889946 215.664856 
L 234.685174 215.08319 
L 235.160403 214.925677 
L 237.563879 214.106369 
L 240.75269 212.960903 
L 242.671831 212.239388 
L 244.191657 211.650867 
L 247.383906 210.365432 
L 248.638057 209.84214 
L 251.243759 208.721949 
L 253.037112 207.925129 
L 256.202931 206.467036 
L 258.06372 205.579348 
L 260.026285 204.618512 
L 262.478965 203.38223 
L 263.873311 202.661823 
L 265.25182 201.937069 
L 268.832335 199.996407 
L 270.483055 199.073402 
L 273.072215 197.589684 
L 274.128847 196.971553 
L 276.870449 195.333584 
L 277.558907 194.914524 
L 281.073805 192.726605 
L 282.195674 192.011224 
L 285.822439 189.642101 
L 286.840647 188.961472 
L 289.9229 186.859688 
L 291.901115 185.477934 
L 293.281994 184.498206 
L 296.418927 182.226113 
L 298.446185 180.723447 
L 300.154746 179.436087 
L 302.455996 177.671905 
L 304.28437 176.24549 
L 305.90979 174.95901 
L 307.592833 173.608671 
L 311.243671 170.615704 
L 313.334232 168.862513 
L 313.890897 168.390852 
L 316.526834 166.129842 
L 318.677936 164.250953 
L 320.975443 162.210686 
L 322.380481 160.945911 
L 324.506086 159.007903 
L 326.836685 156.848953 
L 330.053232 153.81082 
L 332.523598 151.431431 
L 333.09375 150.876594 
L 334.738703 149.263884 
L 337.103833 146.914025 
L 340.317593 143.662248 
L 342.655245 141.254406 
L 344.837643 138.974148 
L 345.753471 138.007951 
L 347.569466 136.075823 
L 351.593947 131.716931 
L 352.131143 131.127066 
L 354.509297 128.493018 
L 357.498374 125.129724 
L 359.976582 122.296849 
L 361.922337 120.044413 
L 362.894658 118.90954 
L 364.895463 116.554742 
L 366.60212 114.525394 
L 369.880368 110.573739 
L 371.415766 108.69872 
L 373.335023 106.333202 
L 375.125523 104.104607 
L 377.145487 101.565173 
L 379.674829 98.347651 
L 383.205973 93.785613 
L 385.13402 91.260185 
L 386.674974 89.224264 
L 388.893096 86.266333 
L 390.944508 83.502008 
L 393.194103 80.438911 
L 394.956084 78.016593 
L 397.137321 74.9897 
L 398.52731 73.04455 
L 402.464841 67.465608 
L 404.499117 64.543499 
L 405.110743 63.659632 
L 407.394544 60.337615 
L 409.402144 57.389121 
L 411.370901 54.472015 
L 414.645356 49.563982 
L 415.802125 47.813316 
L 417.746814 44.850436 
L 421.313467 39.351938 
L 422.700809 37.190628 
L 425.114981 33.39956 
L 427.847296 29.06281 
L 429.309981 26.721113 
L 431.74049 22.798955 
L 433.878428 19.31691 
L 436.079509 15.700721 
L 437.451391 13.430769 
L 437.451391 223.383714 
z
" clip-path="url(#p1669237730)" style="fill: #ffb2df; opacity: 0.5"/>
   </g>
   <g id="matplotlib.axis_1">
    <g id="xtick_1">
     <g id="line2d_1">
      <defs>
       <path id="m2ca2e94a31" d="M 0 0 
L 0 3.5 
" style="stroke: #000000; stroke-width: 0.8"/>
      </defs>
      <g>
       <use xlink:href="#m2ca2e94a31" x="15.636302" y="223.383714" style="stroke: #000000; stroke-width: 0.8"/>
      </g>
     </g>
     <g id="text_1">
      <!-- −2 -->
      <g transform="translate(8.265208 237.982151) scale(0.1 -0.1)">
       <defs>
        <path id="DejaVuSans-2212" d="M 678 2272 
L 4684 2272 
L 4684 1741 
L 678 1741 
L 678 2272 
z
" transform="scale(0.015625)"/>
        <path id="DejaVuSans-32" d="M 1228 531 
L 3431 531 
L 3431 0 
L 469 0 
L 469 531 
Q 828 903 1448 1529 
Q 2069 2156 2228 2338 
Q 2531 2678 2651 2914 
Q 2772 3150 2772 3378 
Q 2772 3750 2511 3984 
Q 2250 4219 1831 4219 
Q 1534 4219 1204 4116 
Q 875 4013 500 3803 
L 500 4441 
Q 881 4594 1212 4672 
Q 1544 4750 1819 4750 
Q 2544 4750 2975 4387 
Q 3406 4025 3406 3419 
Q 3406 3131 3298 2873 
Q 3191 2616 2906 2266 
Q 2828 2175 2409 1742 
Q 1991 1309 1228 531 
z
" transform="scale(0.015625)"/>
       </defs>
       <use xlink:href="#DejaVuSans-2212"/>
       <use xlink:href="#DejaVuSans-32" x="83.789062"/>
      </g>
     </g>
    </g>
    <g id="xtick_2">
     <g id="line2d_2">
      <g>
       <use xlink:href="#m2ca2e94a31" x="99.99932" y="223.383714" style="stroke: #000000; stroke-width: 0.8"/>
      </g>
     </g>
     <g id="text_2">
      <!-- −1 -->
      <g transform="translate(92.628226 237.982151) scale(0.1 -0.1)">
       <defs>
        <path id="DejaVuSans-31" d="M 794 531 
L 1825 531 
L 1825 4091 
L 703 3866 
L 703 4441 
L 1819 4666 
L 2450 4666 
L 2450 531 
L 3481 531 
L 3481 0 
L 794 0 
L 794 531 
z
" transform="scale(0.015625)"/>
       </defs>
       <use xlink:href="#DejaVuSans-2212"/>
       <use xlink:href="#DejaVuSans-31" x="83.789062"/>
      </g>
     </g>
    </g>
    <g id="xtick_3">
     <g id="line2d_3">
      <g>
       <use xlink:href="#m2ca2e94a31" x="184.362337" y="223.383714" style="stroke: #000000; stroke-width: 0.8"/>
      </g>
     </g>
    </g>
    <g id="xtick_4">
     <g id="line2d_4">
      <g>
       <use xlink:href="#m2ca2e94a31" x="268.725355" y="223.383714" style="stroke: #000000; stroke-width: 0.8"/>
      </g>
     </g>
     <g id="text_3">
      <!-- 1 -->
      <g transform="translate(265.544105 237.982151) scale(0.1 -0.1)">
       <use xlink:href="#DejaVuSans-31"/>
      </g>
     </g>
    </g>
    <g id="xtick_5">
     <g id="line2d_5">
      <g>
       <use xlink:href="#m2ca2e94a31" x="353.088373" y="223.383714" style="stroke: #000000; stroke-width: 0.8"/>
      </g>
     </g>
     <g id="text_4">
      <!-- 2 -->
      <g transform="translate(349.907123 237.982151) scale(0.1 -0.1)">
       <use xlink:href="#DejaVuSans-32"/>
      </g>
     </g>
    </g>
    <g id="xtick_6">
     <g id="line2d_6">
      <g>
       <use xlink:href="#m2ca2e94a31" x="437.451391" y="223.383714" style="stroke: #000000; stroke-width: 0.8"/>
      </g>
     </g>
     <g id="text_5">
      <!-- 3 -->
      <g transform="translate(434.270141 237.982151) scale(0.1 -0.1)">
       <defs>
        <path id="DejaVuSans-33" d="M 2597 2516 
Q 3050 2419 3304 2112 
Q 3559 1806 3559 1356 
Q 3559 666 3084 287 
Q 2609 -91 1734 -91 
Q 1441 -91 1130 -33 
Q 819 25 488 141 
L 488 750 
Q 750 597 1062 519 
Q 1375 441 1716 441 
Q 2309 441 2620 675 
Q 2931 909 2931 1356 
Q 2931 1769 2642 2001 
Q 2353 2234 1838 2234 
L 1294 2234 
L 1294 2753 
L 1863 2753 
Q 2328 2753 2575 2939 
Q 2822 3125 2822 3475 
Q 2822 3834 2567 4026 
Q 2313 4219 1838 4219 
Q 1578 4219 1281 4162 
Q 984 4106 628 3988 
L 628 4550 
Q 988 4650 1302 4700 
Q 1616 4750 1894 4750 
Q 2613 4750 3031 4423 
Q 3450 4097 3450 3541 
Q 3450 3153 3228 2886 
Q 3006 2619 2597 2516 
z
" transform="scale(0.015625)"/>
       </defs>
       <use xlink:href="#DejaVuSans-33"/>
      </g>
     </g>
    </g>
    <g id="xtick_7">
     <g id="line2d_7">
      <defs>
       <path id="ma6fc0c709d" d="M 0 0 
L 0 2 
" style="stroke: #000000; stroke-width: 0.6"/>
      </defs>
      <g>
       <use xlink:href="#ma6fc0c709d" x="32.508905" y="223.383714" style="stroke: #000000; stroke-width: 0.6"/>
      </g>
     </g>
    </g>
    <g id="xtick_8">
     <g id="line2d_8">
      <g>
       <use xlink:href="#ma6fc0c709d" x="49.381509" y="223.383714" style="stroke: #000000; stroke-width: 0.6"/>
      </g>
     </g>
    </g>
    <g id="xtick_9">
     <g id="line2d_9">
      <g>
       <use xlink:href="#ma6fc0c709d" x="66.254112" y="223.383714" style="stroke: #000000; stroke-width: 0.6"/>
      </g>
     </g>
    </g>
    <g id="xtick_10">
     <g id="line2d_10">
      <g>
       <use xlink:href="#ma6fc0c709d" x="83.126716" y="223.383714" style="stroke: #000000; stroke-width: 0.6"/>
      </g>
     </g>
    </g>
    <g id="xtick_11">
     <g id="line2d_11">
      <g>
       <use xlink:href="#ma6fc0c709d" x="116.871923" y="223.383714" style="stroke: #000000; stroke-width: 0.6"/>
      </g>
     </g>
    </g>
    <g id="xtick_12">
     <g id="line2d_12">
      <g>
       <use xlink:href="#ma6fc0c709d" x="133.744527" y="223.383714" style="stroke: #000000; stroke-width: 0.6"/>
      </g>
     </g>
    </g>
    <g id="xtick_13">
     <g id="line2d_13">
      <g>
       <use xlink:href="#ma6fc0c709d" x="150.61713" y="223.383714" style="stroke: #000000; stroke-width: 0.6"/>
      </g>
     </g>
    </g>
    <g id="xtick_14">
     <g id="line2d_14">
      <g>
       <use xlink:href="#ma6fc0c709d" x="167.489734" y="223.383714" style="stroke: #000000; stroke-width: 0.6"/>
      </g>
     </g>
    </g>
    <g id="xtick_15">
     <g id="line2d_15">
      <g>
       <use xlink:href="#ma6fc0c709d" x="201.234941" y="223.383714" style="stroke: #000000; stroke-width: 0.6"/>
      </g>
     </g>
    </g>
    <g id="xtick_16">
     <g id="line2d_16">
      <g>
       <use xlink:href="#ma6fc0c709d" x="218.107544" y="223.383714" style="stroke: #000000; stroke-width: 0.6"/>
      </g>
     </g>
    </g>
    <g id="xtick_17">
     <g id="line2d_17">
      <g>
       <use xlink:href="#ma6fc0c709d" x="234.980148" y="223.383714" style="stroke: #000000; stroke-width: 0.6"/>
      </g>
     </g>
    </g>
    <g id="xtick_18">
     <g id="line2d_18">
      <g>
       <use xlink:href="#ma6fc0c709d" x="251.852751" y="223.383714" style="stroke: #000000; stroke-width: 0.6"/>
      </g>
     </g>
    </g>
    <g id="xtick_19">
     <g id="line2d_19">
      <g>
       <use xlink:href="#ma6fc0c709d" x="285.597959" y="223.383714" style="stroke: #000000; stroke-width: 0.6"/>
      </g>
     </g>
    </g>
    <g id="xtick_20">
     <g id="line2d_20">
      <g>
       <use xlink:href="#ma6fc0c709d" x="302.470562" y="223.383714" style="stroke: #000000; stroke-width: 0.6"/>
      </g>
     </g>
    </g>
    <g id="xtick_21">
     <g id="line2d_21">
      <g>
       <use xlink:href="#ma6fc0c709d" x="319.343166" y="223.383714" style="stroke: #000000; stroke-width: 0.6"/>
      </g>
     </g>
    </g>
    <g id="xtick_22">
     <g id="line2d_22">
      <g>
       <use xlink:href="#ma6fc0c709d" x="336.215769" y="223.383714" style="stroke: #000000; stroke-width: 0.6"/>
      </g>
     </g>
    </g>
    <g id="xtick_23">
     <g id="line2d_23">
      <g>
       <use xlink:href="#ma6fc0c709d" x="369.960976" y="223.383714" style="stroke: #000000; stroke-width: 0.6"/>
      </g>
     </g>
    </g>
    <g id="xtick_24">
     <g id="line2d_24">
      <g>
       <use xlink:href="#ma6fc0c709d" x="386.83358" y="223.383714" style="stroke: #000000; stroke-width: 0.6"/>
      </g>
     </g>
    </g>
    <g id="xtick_25">
     <g id="line2d_25">
      <g>
       <use xlink:href="#ma6fc0c709d" x="403.706183" y="223.383714" style="stroke: #000000; stroke-width: 0.6"/>
      </g>
     </g>
    </g>
    <g id="xtick_26">
     <g id="line2d_26">
      <g>
       <use xlink:href="#ma6fc0c709d" x="420.578787" y="223.383714" style="stroke: #000000; stroke-width: 0.6"/>
      </g>
     </g>
    </g>
   </g>
   <g id="matplotlib.axis_2">
    <g id="ytick_1">
     <g id="line2d_27">
      <defs>
       <path id="m4f6684a2dd" d="M 0 0 
L -3.5 0 
" style="stroke: #000000; stroke-width: 0.8"/>
      </defs>
      <g>
       <use xlink:href="#m4f6684a2dd" x="184.362337" y="316.696134" style="stroke: #000000; stroke-width: 0.8"/>
      </g>
     </g>
     <g id="text_6">
      <!-- −1.0 -->
      <g transform="translate(153.079525 320.495352) scale(0.1 -0.1)">
       <defs>
        <path id="DejaVuSans-2e" d="M 684 794 
L 1344 794 
L 1344 0 
L 684 0 
L 684 794 
z
" transform="scale(0.015625)"/>
        <path id="DejaVuSans-30" d="M 2034 4250 
Q 1547 4250 1301 3770 
Q 1056 3291 1056 2328 
Q 1056 1369 1301 889 
Q 1547 409 2034 409 
Q 2525 409 2770 889 
Q 3016 1369 3016 2328 
Q 3016 3291 2770 3770 
Q 2525 4250 2034 4250 
z
M 2034 4750 
Q 2819 4750 3233 4129 
Q 3647 3509 3647 2328 
Q 3647 1150 3233 529 
Q 2819 -91 2034 -91 
Q 1250 -91 836 529 
Q 422 1150 422 2328 
Q 422 3509 836 4129 
Q 1250 4750 2034 4750 
z
" transform="scale(0.015625)"/>
       </defs>
       <use xlink:href="#DejaVuSans-2212"/>
       <use xlink:href="#DejaVuSans-31" x="83.789062"/>
       <use xlink:href="#DejaVuSans-2e" x="147.412109"/>
       <use xlink:href="#DejaVuSans-30" x="179.199219"/>
      </g>
     </g>
    </g>
    <g id="ytick_2">
     <g id="line2d_28">
      <g>
       <use xlink:href="#m4f6684a2dd" x="184.362337" y="270.039924" style="stroke: #000000; stroke-width: 0.8"/>
      </g>
     </g>
     <g id="text_7">
      <!-- −0.5 -->
      <g transform="translate(153.079525 273.839143) scale(0.1 -0.1)">
       <defs>
        <path id="DejaVuSans-35" d="M 691 4666 
L 3169 4666 
L 3169 4134 
L 1269 4134 
L 1269 2991 
Q 1406 3038 1543 3061 
Q 1681 3084 1819 3084 
Q 2600 3084 3056 2656 
Q 3513 2228 3513 1497 
Q 3513 744 3044 326 
Q 2575 -91 1722 -91 
Q 1428 -91 1123 -41 
Q 819 9 494 109 
L 494 744 
Q 775 591 1075 516 
Q 1375 441 1709 441 
Q 2250 441 2565 725 
Q 2881 1009 2881 1497 
Q 2881 1984 2565 2268 
Q 2250 2553 1709 2553 
Q 1456 2553 1204 2497 
Q 953 2441 691 2322 
L 691 4666 
z
" transform="scale(0.015625)"/>
       </defs>
       <use xlink:href="#DejaVuSans-2212"/>
       <use xlink:href="#DejaVuSans-30" x="83.789062"/>
       <use xlink:href="#DejaVuSans-2e" x="147.412109"/>
       <use xlink:href="#DejaVuSans-35" x="179.199219"/>
      </g>
     </g>
    </g>
    <g id="ytick_3">
     <g id="line2d_29">
      <g>
       <use xlink:href="#m4f6684a2dd" x="184.362337" y="223.383714" style="stroke: #000000; stroke-width: 0.8"/>
      </g>
     </g>
    </g>
    <g id="ytick_4">
     <g id="line2d_30">
      <g>
       <use xlink:href="#m4f6684a2dd" x="184.362337" y="176.727504" style="stroke: #000000; stroke-width: 0.8"/>
      </g>
     </g>
     <g id="text_8">
      <!-- 0.5 -->
      <g transform="translate(161.459212 180.526723) scale(0.1 -0.1)">
       <use xlink:href="#DejaVuSans-30"/>
       <use xlink:href="#DejaVuSans-2e" x="63.623047"/>
       <use xlink:href="#DejaVuSans-35" x="95.410156"/>
      </g>
     </g>
    </g>
    <g id="ytick_5">
     <g id="line2d_31">
      <g>
       <use xlink:href="#m4f6684a2dd" x="184.362337" y="130.071294" style="stroke: #000000; stroke-width: 0.8"/>
      </g>
     </g>
     <g id="text_9">
      <!-- 1.0 -->
      <g transform="translate(161.459212 133.870513) scale(0.1 -0.1)">
       <use xlink:href="#DejaVuSans-31"/>
       <use xlink:href="#DejaVuSans-2e" x="63.623047"/>
       <use xlink:href="#DejaVuSans-30" x="95.410156"/>
      </g>
     </g>
    </g>
    <g id="ytick_6">
     <g id="line2d_32">
      <g>
       <use xlink:href="#m4f6684a2dd" x="184.362337" y="83.415084" style="stroke: #000000; stroke-width: 0.8"/>
      </g>
     </g>
     <g id="text_10">
      <!-- 1.5 -->
      <g transform="translate(161.459212 87.214303) scale(0.1 -0.1)">
       <use xlink:href="#DejaVuSans-31"/>
       <use xlink:href="#DejaVuSans-2e" x="63.623047"/>
       <use xlink:href="#DejaVuSans-35" x="95.410156"/>
      </g>
     </g>
    </g>
    <g id="ytick_7">
     <g id="line2d_33">
      <g>
       <use xlink:href="#m4f6684a2dd" x="184.362337" y="36.758874" style="stroke: #000000; stroke-width: 0.8"/>
      </g>
     </g>
     <g id="text_11">
      <!-- 2.0 -->
      <g transform="translate(161.459212 40.558093) scale(0.1 -0.1)">
       <use xlink:href="#DejaVuSans-32"/>
       <use xlink:href="#DejaVuSans-2e" x="63.623047"/>
       <use xlink:href="#DejaVuSans-30" x="95.410156"/>
      </g>
     </g>
    </g>
    <g id="ytick_8">
     <g id="line2d_34">
      <defs>
       <path id="m8a2b95129e" d="M 0 0 
L -2 0 
" style="stroke: #000000; stroke-width: 0.6"/>
      </defs>
      <g>
       <use xlink:href="#m8a2b95129e" x="184.362337" y="326.027376" style="stroke: #000000; stroke-width: 0.6"/>
      </g>
     </g>
    </g>
    <g id="ytick_9">
     <g id="line2d_35">
      <g>
       <use xlink:href="#m8a2b95129e" x="184.362337" y="307.364892" style="stroke: #000000; stroke-width: 0.6"/>
      </g>
     </g>
    </g>
    <g id="ytick_10">
     <g id="line2d_36">
      <g>
       <use xlink:href="#m8a2b95129e" x="184.362337" y="298.03365" style="stroke: #000000; stroke-width: 0.6"/>
      </g>
     </g>
    </g>
    <g id="ytick_11">
     <g id="line2d_37">
      <g>
       <use xlink:href="#m8a2b95129e" x="184.362337" y="288.702408" style="stroke: #000000; stroke-width: 0.6"/>
      </g>
     </g>
    </g>
    <g id="ytick_12">
     <g id="line2d_38">
      <g>
       <use xlink:href="#m8a2b95129e" x="184.362337" y="279.371166" style="stroke: #000000; stroke-width: 0.6"/>
      </g>
     </g>
    </g>
    <g id="ytick_13">
     <g id="line2d_39">
      <g>
       <use xlink:href="#m8a2b95129e" x="184.362337" y="260.708682" style="stroke: #000000; stroke-width: 0.6"/>
      </g>
     </g>
    </g>
    <g id="ytick_14">
     <g id="line2d_40">
      <g>
       <use xlink:href="#m8a2b95129e" x="184.362337" y="251.37744" style="stroke: #000000; stroke-width: 0.6"/>
      </g>
     </g>
    </g>
    <g id="ytick_15">
     <g id="line2d_41">
      <g>
       <use xlink:href="#m8a2b95129e" x="184.362337" y="242.046198" style="stroke: #000000; stroke-width: 0.6"/>
      </g>
     </g>
    </g>
    <g id="ytick_16">
     <g id="line2d_42">
      <g>
       <use xlink:href="#m8a2b95129e" x="184.362337" y="232.714956" style="stroke: #000000; stroke-width: 0.6"/>
      </g>
     </g>
    </g>
    <g id="ytick_17">
     <g id="line2d_43">
      <g>
       <use xlink:href="#m8a2b95129e" x="184.362337" y="214.052472" style="stroke: #000000; stroke-width: 0.6"/>
      </g>
     </g>
    </g>
    <g id="ytick_18">
     <g id="line2d_44">
      <g>
       <use xlink:href="#m8a2b95129e" x="184.362337" y="204.72123" style="stroke: #000000; stroke-width: 0.6"/>
      </g>
     </g>
    </g>
    <g id="ytick_19">
     <g id="line2d_45">
      <g>
       <use xlink:href="#m8a2b95129e" x="184.362337" y="195.389988" style="stroke: #000000; stroke-width: 0.6"/>
      </g>
     </g>
    </g>
    <g id="ytick_20">
     <g id="line2d_46">
      <g>
       <use xlink:href="#m8a2b95129e" x="184.362337" y="186.058746" style="stroke: #000000; stroke-width: 0.6"/>
      </g>
     </g>
    </g>
    <g id="ytick_21">
     <g id="line2d_47">
      <g>
       <use xlink:href="#m8a2b95129e" x="184.362337" y="167.396262" style="stroke: #000000; stroke-width: 0.6"/>
      </g>
     </g>
    </g>
    <g id="ytick_22">
     <g id="line2d_48">
      <g>
       <use xlink:href="#m8a2b95129e" x="184.362337" y="158.06502" style="stroke: #000000; stroke-width: 0.6"/>
      </g>
     </g>
    </g>
    <g id="ytick_23">
     <g id="line2d_49">
      <g>
       <use xlink:href="#m8a2b95129e" x="184.362337" y="148.733778" style="stroke: #000000; stroke-width: 0.6"/>
      </g>
     </g>
    </g>
    <g id="ytick_24">
     <g id="line2d_50">
      <g>
       <use xlink:href="#m8a2b95129e" x="184.362337" y="139.402536" style="stroke: #000000; stroke-width: 0.6"/>
      </g>
     </g>
    </g>
    <g id="ytick_25">
     <g id="line2d_51">
      <g>
       <use xlink:href="#m8a2b95129e" x="184.362337" y="120.740052" style="stroke: #000000; stroke-width: 0.6"/>
      </g>
     </g>
    </g>
    <g id="ytick_26">
     <g id="line2d_52">
      <g>
       <use xlink:href="#m8a2b95129e" x="184.362337" y="111.40881" style="stroke: #000000; stroke-width: 0.6"/>
      </g>
     </g>
    </g>
    <g id="ytick_27">
     <g id="line2d_53">
      <g>
       <use xlink:href="#m8a2b95129e" x="184.362337" y="102.077568" style="stroke: #000000; stroke-width: 0.6"/>
      </g>
     </g>
    </g>
    <g id="ytick_28">
     <g id="line2d_54">
      <g>
       <use xlink:href="#m8a2b95129e" x="184.362337" y="92.746326" style="stroke: #000000; stroke-width: 0.6"/>
      </g>
     </g>
    </g>
    <g id="ytick_29">
     <g id="line2d_55">
      <g>
       <use xlink:href="#m8a2b95129e" x="184.362337" y="74.083842" style="stroke: #000000; stroke-width: 0.6"/>
      </g>
     </g>
    </g>
    <g id="ytick_30">
     <g id="line2d_56">
      <g>
       <use xlink:href="#m8a2b95129e" x="184.362337" y="64.7526" style="stroke: #000000; stroke-width: 0.6"/>
      </g>
     </g>
    </g>
    <g id="ytick_31">
     <g id="line2d_57">
      <g>
       <use xlink:href="#m8a2b95129e" x="184.362337" y="55.421358" style="stroke: #000000; stroke-width: 0.6"/>
      </g>
     </g>
    </g>
    <g id="ytick_32">
     <g id="line2d_58">
      <g>
       <use xlink:href="#m8a2b95129e" x="184.362337" y="46.090116" style="stroke: #000000; stroke-width: 0.6"/>
      </g>
     </g>
    </g>
    <g id="ytick_33">
     <g id="line2d_59">
      <g>
       <use xlink:href="#m8a2b95129e" x="184.362337" y="27.427632" style="stroke: #000000; stroke-width: 0.6"/>
      </g>
     </g>
    </g>
    <g id="ytick_34">
     <g id="line2d_60">
      <g>
       <use xlink:href="#m8a2b95129e" x="184.362337" y="18.09639" style="stroke: #000000; stroke-width: 0.6"/>
      </g>
     </g>
    </g>
    <g id="ytick_35">
     <g id="line2d_61">
      <g>
       <use xlink:href="#m8a2b95129e" x="184.362337" y="8.765148" style="stroke: #000000; stroke-width: 0.6"/>
      </g>
     </g>
    </g>
   </g>
   <g id="line2d_62">
    <path d="M 15.636302 316.696134 
L 19.429424 318.653468 
L 23.217965 320.33234 
L 27.237928 321.819113 
L 31.248052 323.007367 
L 35.491886 323.952459 
L 38.514074 324.434451 
L 41.976886 324.796032 
L 45.748944 324.963608 
L 48.465662 324.941533 
L 52.701296 324.674762 
L 56.206945 324.245347 
L 61.444456 323.263318 
L 64.945987 322.386546 
L 68.507556 321.3197 
L 73.728261 319.447773 
L 76.712776 318.218692 
L 81.486327 316.0218 
L 87.212911 313.026903 
L 91.211907 310.713995 
L 95.628506 307.958081 
L 99.794677 305.173345 
L 105.452242 301.119426 
L 111.523189 296.44242 
L 117.68609 291.374651 
L 123.451863 286.36565 
L 129.486684 280.870488 
L 138.06909 272.660558 
L 146.136205 264.579842 
L 155.775074 254.549725 
L 165.251664 244.386099 
L 180.142243 228.050024 
L 204.858419 200.880631 
L 215.600313 189.424113 
L 224.855776 179.884522 
L 233.791314 171.057264 
L 241.096781 164.178355 
L 248.172296 157.851957 
L 254.389193 152.599206 
L 261.477406 146.996749 
L 265.274451 144.178713 
L 271.581933 139.801163 
L 276.867173 136.443301 
L 282.644716 133.117852 
L 286.512361 131.103995 
L 292.869241 128.184088 
L 297.83571 126.256947 
L 303.124121 124.563866 
L 307.806607 123.38737 
L 312.987382 122.453793 
L 315.981142 122.096728 
L 320.900443 121.810053 
L 324.369078 121.838613 
L 328.534178 122.132771 
L 331.04247 122.450023 
L 335.103332 123.192491 
L 340.471331 124.619885 
L 342.001199 125.121911 
L 347.081799 127.099975 
L 349.384207 128.156671 
L 353.811791 130.476527 
L 357.81198 132.905094 
L 360.416668 134.659871 
L 363.13678 136.641052 
L 366.915028 139.649235 
L 370.11403 142.433446 
L 375.218455 147.336416 
L 378.910148 151.24271 
L 381.797766 154.513298 
L 385.65408 159.180789 
L 390.434425 165.451756 
L 394.495754 171.210257 
L 397.936745 176.405025 
L 401.949939 182.836317 
L 406.70637 190.98822 
L 410.390145 197.703974 
L 415.138524 206.888819 
L 420.361868 217.693402 
L 424.226426 226.169428 
L 429.314072 237.965792 
L 434.097813 249.731359 
L 437.451391 258.375871 
L 437.451391 258.375871 
" clip-path="url(#p1669237730)" style="fill: none; stroke: #0000cc; stroke-linecap: square"/>
   </g>
   <g id="line2d_63">
    <path d="M 15.636302 316.696134 
L 437.451391 83.415084 
L 437.451391 83.415084 
" clip-path="url(#p1669237730)" style="fill: none; stroke: #3ccc00; stroke-linecap: square"/>
   </g>
   <g id="line2d_64">
    <path d="M 15.636302 130.071294 
L 22.854967 137.88493 
L 29.112962 144.38228 
L 36.562235 151.781786 
L 44.403412 159.177591 
L 52.090512 166.036815 
L 58.972925 171.849342 
L 65.510625 177.083166 
L 72.262646 182.194445 
L 79.90999 187.622549 
L 86.142868 191.763092 
L 91.825724 195.316297 
L 98.934773 199.463157 
L 103.804804 202.112731 
L 110.749431 205.622069 
L 117.303737 208.644164 
L 123.335701 211.176569 
L 127.791225 212.893975 
L 133.308323 214.840229 
L 140.607044 217.108386 
L 145.727445 218.491171 
L 152.304112 220.015077 
L 158.447389 221.18243 
L 161.314689 221.642595 
L 168.999538 222.610115 
L 174.274779 223.050174 
L 181.337736 223.353728 
L 186.278754 223.371676 
L 193.358969 223.118415 
L 200.20883 222.560635 
L 206.140229 221.829156 
L 212.034844 220.873722 
L 218.937553 219.465347 
L 223.546294 218.351121 
L 229.173906 216.801749 
L 235.160403 214.925677 
L 240.75269 212.960903 
L 247.383906 210.365432 
L 253.037112 207.925129 
L 260.026285 204.618512 
L 265.25182 201.937069 
L 273.072215 197.589684 
L 277.558907 194.914524 
L 285.822439 189.642101 
L 291.901115 185.477934 
L 298.446185 180.723447 
L 304.28437 176.24549 
L 311.243671 170.615704 
L 318.677936 164.250953 
L 324.506086 159.007903 
L 332.523598 151.431431 
L 337.103833 146.914025 
L 345.753471 138.007951 
L 352.131143 131.127066 
L 359.976582 122.296849 
L 366.60212 114.525394 
L 375.125523 104.104607 
L 383.205973 93.785613 
L 390.944508 83.502008 
L 398.52731 73.04455 
L 407.394544 60.337615 
L 415.802125 47.813316 
L 422.700809 37.190628 
L 431.74049 22.798955 
L 437.451391 13.430769 
L 437.451391 13.430769 
" clip-path="url(#p1669237730)" style="fill: none; stroke: #cc0077; stroke-linecap: square"/>
   </g>
   <g id="patch_6">
    <path d="M 184.362337 331.2 
L 184.362337 7.2 
" style="fill: none; stroke: #000000; stroke-width: 0.8; stroke-linejoin: miter; stroke-linecap: square"/>
   </g>
   <g id="patch_7">
    <path d="M 7.2 223.383714 
L 445.887692 223.383714 
" style="fill: none; stroke: #000000; stroke-width: 0.8; stroke-linejoin: miter; stroke-linecap: square"/>
   </g>
  </g>
 </g>
 <defs>
  <clipPath id="p1669237730">
   <rect x="7.2" y="7.2" width="438.687692" height="324"/>
  </clipPath>
 </defs>
</svg>
