<?xml version="1.0" encoding="utf-8" standalone="no"?>
<!DOCTYPE svg PUBLIC "-//W3C//DTD SVG 1.1//EN"
  "http://www.w3.org/Graphics/SVG/1.1/DTD/svg11.dtd">
<svg xmlns:xlink="http://www.w3.org/1999/xlink" width="453.545625pt" height="337.114942pt" viewBox="0 0 453.545625 337.114942" xmlns="http://www.w3.org/2000/svg" version="1.1">
 <metadata>
  <rdf:RDF xmlns:dc="http://purl.org/dc/elements/1.1/" xmlns:cc="http://creativecommons.org/ns#" xmlns:rdf="http://www.w3.org/1999/02/22-rdf-syntax-ns#">
   <cc:Work>
    <dc:type rdf:resource="http://purl.org/dc/dcmitype/StillImage"/>
    <dc:date>2023-05-19T04:05:42.063304</dc:date>
    <dc:format>image/svg+xml</dc:format>
    <dc:creator>
     <cc:Agent>
      <dc:title>Matplotlib v3.7.1, https://matplotlib.org/</dc:title>
     </cc:Agent>
    </dc:creator>
   </cc:Work>
  </rdf:RDF>
 </metadata>
 <defs>
  <style type="text/css">*{stroke-linejoin: round; stroke-linecap: butt}</style>
 </defs>
 <g id="figure_1">
  <g id="patch_1">
   <path d="M 0 337.114942 
L 453.545625 337.114942 
L 453.545625 0 
L 0 0 
L 0 337.114942 
z
" style="fill: none"/>
  </g>
  <g id="axes_1">
   <g id="patch_2">
    <path d="M 46.465625 319.237538 
L 446.345625 319.237538 
L 446.345625 7.2 
L 46.465625 7.2 
L 46.465625 319.237538 
z
" style="fill: none"/>
   </g>
   <g id="patch_3">
    <path d="M 113.309471 313.236817 
L 113.309471 179.887441 
L 115.420358 183.004077 
L 115.980451 183.812694 
L 117.658603 186.190893 
L 119.973865 189.365843 
L 121.157344 190.942994 
L 121.768798 191.746069 
L 124.447703 195.172909 
L 124.63357 195.405272 
L 127.087378 198.409684 
L 128.822914 200.465811 
L 129.313309 201.036788 
L 130.574909 202.485925 
L 131.930539 204.011999 
L 134.592303 206.918082 
L 135.648476 208.039142 
L 136.568236 209.001027 
L 138.938642 211.420037 
L 140.140746 212.614736 
L 142.005757 214.427061 
L 142.62035 215.013575 
L 144.730833 216.988379 
L 145.897634 218.054705 
L 146.82188 218.886837 
L 148.804485 220.635437 
L 150.371733 221.983532 
L 152.361095 223.652731 
L 153.519464 224.603662 
L 154.608411 225.483863 
L 156.931552 227.318385 
L 157.828508 228.011323 
L 159.271277 229.108466 
L 160.631542 230.123581 
L 163.02195 231.863474 
L 163.534898 232.229707 
L 164.967863 233.23981 
L 166.221771 234.108277 
L 168.848881 235.882582 
L 169.4663 236.290914 
L 171.341976 237.511758 
L 172.691629 238.372337 
L 174.648067 239.594009 
L 175.612103 240.18502 
L 177.915396 241.568594 
L 179.05756 242.240152 
L 180.261493 242.937861 
L 181.036154 243.381372 
L 183.09074 244.537544 
L 185.158561 245.672423 
L 186.703101 246.501863 
L 188.342854 247.365829 
L 189.098741 247.758457 
L 189.990753 248.217293 
L 191.446846 248.955989 
L 193.342592 249.89901 
L 195.047989 250.729726 
L 195.987482 251.180399 
L 198.700647 252.454879 
L 200.208218 253.146146 
L 201.550586 253.751786 
L 202.959448 254.377631 
L 203.506119 254.617816 
L 205.542682 255.49978 
L 206.402358 255.866112 
L 207.985963 256.531863 
L 209.98667 257.356526 
L 210.72448 257.656106 
L 212.242095 258.264791 
L 214.015242 258.963384 
L 215.441093 259.515533 
L 217.406687 260.262983 
L 219.130332 260.905666 
L 220.141837 261.277387 
L 221.650345 261.824439 
L 223.978171 262.651812 
L 225.128159 263.053198 
L 225.806555 263.287745 
L 228.126135 264.077412 
L 229.008245 264.372805 
L 230.059331 264.72132 
L 231.48534 265.188221 
L 233.229453 265.750168 
L 235.89438 266.589948 
L 237.225419 267.001072 
L 238.307713 267.331371 
L 239.409745 267.664071 
L 241.314436 268.230623 
L 242.263171 268.508892 
L 243.730103 268.934096 
L 245.427201 269.418496 
L 246.867542 269.823404 
L 247.996403 270.136838 
L 250.451177 270.806812 
L 250.812306 270.904054 
L 252.436912 271.337409 
L 255.24341 272.070506 
L 256.002133 272.265392 
L 256.829144 272.476247 
L 258.451502 272.885182 
L 259.919408 273.249906 
L 262.016244 273.76238 
L 263.702271 274.167339 
L 264.245164 274.296409 
L 266.048254 274.720523 
L 267.97864 275.166945 
L 270.088729 275.646104 
L 271.078246 275.867694 
L 271.946962 276.06062 
L 273.1987 276.335992 
L 274.956246 276.717504 
L 276.915155 277.135794 
L 278.478161 277.464413 
L 279.26226 277.627581 
L 281.084997 278.002598 
L 282.287117 278.246695 
L 284.250354 278.63992 
L 285.1015 278.808343 
L 286.891 279.158458 
L 289.264102 279.614577 
L 289.68804 279.695095 
L 291.230353 279.985596 
L 292.585199 280.237685 
L 294.615043 280.610036 
L 296.20152 280.896686 
L 297.375292 281.106342 
L 298.624141 281.327179 
L 299.840414 281.540073 
L 301.827446 281.883324 
L 303.647666 282.19289 
L 304.322786 282.306543 
L 306.384093 282.649719 
L 308.535316 283.001808 
L 309.177646 283.10576 
L 310.433002 283.30738 
L 312.949866 283.705558 
L 314.650111 283.970064 
L 315.838262 284.1528 
L 316.611777 284.270847 
L 318.691462 284.584691 
L 319.885832 284.762632 
L 320.818343 284.90041 
L 322.389844 285.130348 
L 324.718529 285.465961 
L 325.268781 285.544386 
L 327.539687 285.864559 
L 328.267455 285.965993 
L 331.021155 286.344733 
L 331.775109 286.447055 
L 333.760963 286.713786 
L 334.087486 286.757261 
L 336.037669 287.01471 
L 338.439783 287.326691 
L 339.292003 287.436039 
L 340.761743 287.623 
L 342.787485 287.877376 
L 343.316185 287.943143 
L 344.70561 288.114762 
L 346.60756 288.34687 
L 347.699591 288.478687 
L 349.793608 288.72854 
L 351.673914 288.949685 
L 352.152405 289.005483 
L 354.152706 289.236674 
L 355.877873 289.433418 
L 357.499088 289.61611 
L 358.028064 289.675265 
L 359.904098 289.883277 
L 362.099084 290.123177 
L 362.480591 290.164496 
L 365.151083 290.450647 
L 366.071293 290.548018 
L 367.741976 290.723212 
L 369.43496 290.898682 
L 371.070321 291.066239 
L 372.449079 291.206044 
L 372.695083 291.23085 
L 374.19115 291.380806 
L 375.840392 291.544347 
L 377.669466 291.723582 
L 378.705266 291.824099 
L 380.525379 291.999029 
L 382.790995 292.213798 
L 384.132862 292.339468 
L 385.48101 292.464594 
L 387.149571 292.617909 
L 388.81043 292.768837 
L 390.13237 292.887785 
L 391.535828 293.012936 
L 393.183933 293.158436 
L 393.602298 293.19512 
L 395.304609 293.343356 
L 396.686108 293.46245 
L 398.83109 293.645254 
L 399.603275 293.710442 
L 400.970601 293.825077 
L 403.012631 293.994408 
L 404.954744 294.153406 
L 406.122268 294.248043 
L 408.271737 294.420443 
L 409.078702 294.484561 
L 409.078702 313.236817 
z
" clip-path="url(#p4779a875fc)" style="fill: #808080; opacity: 0.5"/>
   </g>
   <g id="matplotlib.axis_1">
    <g id="xtick_1">
     <g id="line2d_1">
      <defs>
       <path id="m92196b5ab8" d="M 0 0 
L 0 3.5 
" style="stroke: #000000; stroke-width: 0.8"/>
      </defs>
      <g>
       <use xlink:href="#m92196b5ab8" x="54.155625" y="313.236817" style="stroke: #000000; stroke-width: 0.8"/>
      </g>
     </g>
     <g id="text_1">
      <!-- 2 -->
      <g transform="translate(50.974375 327.835254) scale(0.1 -0.1)">
       <defs>
        <path id="DejaVuSans-32" d="M 1228 531 
L 3431 531 
L 3431 0 
L 469 0 
L 469 531 
Q 828 903 1448 1529 
Q 2069 2156 2228 2338 
Q 2531 2678 2651 2914 
Q 2772 3150 2772 3378 
Q 2772 3750 2511 3984 
Q 2250 4219 1831 4219 
Q 1534 4219 1204 4116 
Q 875 4013 500 3803 
L 500 4441 
Q 881 4594 1212 4672 
Q 1544 4750 1819 4750 
Q 2544 4750 2975 4387 
Q 3406 4025 3406 3419 
Q 3406 3131 3298 2873 
Q 3191 2616 2906 2266 
Q 2828 2175 2409 1742 
Q 1991 1309 1228 531 
z
" transform="scale(0.015625)"/>
       </defs>
       <use xlink:href="#DejaVuSans-32"/>
      </g>
     </g>
    </g>
    <g id="xtick_2">
     <g id="line2d_2">
      <g>
       <use xlink:href="#m92196b5ab8" x="113.309471" y="313.236817" style="stroke: #000000; stroke-width: 0.8"/>
      </g>
     </g>
     <g id="text_2">
      <!-- 3 -->
      <g transform="translate(110.128221 327.835254) scale(0.1 -0.1)">
       <defs>
        <path id="DejaVuSans-33" d="M 2597 2516 
Q 3050 2419 3304 2112 
Q 3559 1806 3559 1356 
Q 3559 666 3084 287 
Q 2609 -91 1734 -91 
Q 1441 -91 1130 -33 
Q 819 25 488 141 
L 488 750 
Q 750 597 1062 519 
Q 1375 441 1716 441 
Q 2309 441 2620 675 
Q 2931 909 2931 1356 
Q 2931 1769 2642 2001 
Q 2353 2234 1838 2234 
L 1294 2234 
L 1294 2753 
L 1863 2753 
Q 2328 2753 2575 2939 
Q 2822 3125 2822 3475 
Q 2822 3834 2567 4026 
Q 2313 4219 1838 4219 
Q 1578 4219 1281 4162 
Q 984 4106 628 3988 
L 628 4550 
Q 988 4650 1302 4700 
Q 1616 4750 1894 4750 
Q 2613 4750 3031 4423 
Q 3450 4097 3450 3541 
Q 3450 3153 3228 2886 
Q 3006 2619 2597 2516 
z
" transform="scale(0.015625)"/>
       </defs>
       <use xlink:href="#DejaVuSans-33"/>
      </g>
     </g>
    </g>
    <g id="xtick_3">
     <g id="line2d_3">
      <g>
       <use xlink:href="#m92196b5ab8" x="172.463317" y="313.236817" style="stroke: #000000; stroke-width: 0.8"/>
      </g>
     </g>
     <g id="text_3">
      <!-- 4 -->
      <g transform="translate(169.282067 327.835254) scale(0.1 -0.1)">
       <defs>
        <path id="DejaVuSans-34" d="M 2419 4116 
L 825 1625 
L 2419 1625 
L 2419 4116 
z
M 2253 4666 
L 3047 4666 
L 3047 1625 
L 3713 1625 
L 3713 1100 
L 3047 1100 
L 3047 0 
L 2419 0 
L 2419 1100 
L 313 1100 
L 313 1709 
L 2253 4666 
z
" transform="scale(0.015625)"/>
       </defs>
       <use xlink:href="#DejaVuSans-34"/>
      </g>
     </g>
    </g>
    <g id="xtick_4">
     <g id="line2d_4">
      <g>
       <use xlink:href="#m92196b5ab8" x="231.617163" y="313.236817" style="stroke: #000000; stroke-width: 0.8"/>
      </g>
     </g>
     <g id="text_4">
      <!-- 5 -->
      <g transform="translate(228.435913 327.835254) scale(0.1 -0.1)">
       <defs>
        <path id="DejaVuSans-35" d="M 691 4666 
L 3169 4666 
L 3169 4134 
L 1269 4134 
L 1269 2991 
Q 1406 3038 1543 3061 
Q 1681 3084 1819 3084 
Q 2600 3084 3056 2656 
Q 3513 2228 3513 1497 
Q 3513 744 3044 326 
Q 2575 -91 1722 -91 
Q 1428 -91 1123 -41 
Q 819 9 494 109 
L 494 744 
Q 775 591 1075 516 
Q 1375 441 1709 441 
Q 2250 441 2565 725 
Q 2881 1009 2881 1497 
Q 2881 1984 2565 2268 
Q 2250 2553 1709 2553 
Q 1456 2553 1204 2497 
Q 953 2441 691 2322 
L 691 4666 
z
" transform="scale(0.015625)"/>
       </defs>
       <use xlink:href="#DejaVuSans-35"/>
      </g>
     </g>
    </g>
    <g id="xtick_5">
     <g id="line2d_5">
      <g>
       <use xlink:href="#m92196b5ab8" x="290.77101" y="313.236817" style="stroke: #000000; stroke-width: 0.8"/>
      </g>
     </g>
     <g id="text_5">
      <!-- 6 -->
      <g transform="translate(287.58976 327.835254) scale(0.1 -0.1)">
       <defs>
        <path id="DejaVuSans-36" d="M 2113 2584 
Q 1688 2584 1439 2293 
Q 1191 2003 1191 1497 
Q 1191 994 1439 701 
Q 1688 409 2113 409 
Q 2538 409 2786 701 
Q 3034 994 3034 1497 
Q 3034 2003 2786 2293 
Q 2538 2584 2113 2584 
z
M 3366 4563 
L 3366 3988 
Q 3128 4100 2886 4159 
Q 2644 4219 2406 4219 
Q 1781 4219 1451 3797 
Q 1122 3375 1075 2522 
Q 1259 2794 1537 2939 
Q 1816 3084 2150 3084 
Q 2853 3084 3261 2657 
Q 3669 2231 3669 1497 
Q 3669 778 3244 343 
Q 2819 -91 2113 -91 
Q 1303 -91 875 529 
Q 447 1150 447 2328 
Q 447 3434 972 4092 
Q 1497 4750 2381 4750 
Q 2619 4750 2861 4703 
Q 3103 4656 3366 4563 
z
" transform="scale(0.015625)"/>
       </defs>
       <use xlink:href="#DejaVuSans-36"/>
      </g>
     </g>
    </g>
    <g id="xtick_6">
     <g id="line2d_6">
      <g>
       <use xlink:href="#m92196b5ab8" x="349.924856" y="313.236817" style="stroke: #000000; stroke-width: 0.8"/>
      </g>
     </g>
     <g id="text_6">
      <!-- 7 -->
      <g transform="translate(346.743606 327.835254) scale(0.1 -0.1)">
       <defs>
        <path id="DejaVuSans-37" d="M 525 4666 
L 3525 4666 
L 3525 4397 
L 1831 0 
L 1172 0 
L 2766 4134 
L 525 4134 
L 525 4666 
z
" transform="scale(0.015625)"/>
       </defs>
       <use xlink:href="#DejaVuSans-37"/>
      </g>
     </g>
    </g>
    <g id="xtick_7">
     <g id="line2d_7">
      <g>
       <use xlink:href="#m92196b5ab8" x="409.078702" y="313.236817" style="stroke: #000000; stroke-width: 0.8"/>
      </g>
     </g>
     <g id="text_7">
      <!-- 8 -->
      <g transform="translate(405.897452 327.835254) scale(0.1 -0.1)">
       <defs>
        <path id="DejaVuSans-38" d="M 2034 2216 
Q 1584 2216 1326 1975 
Q 1069 1734 1069 1313 
Q 1069 891 1326 650 
Q 1584 409 2034 409 
Q 2484 409 2743 651 
Q 3003 894 3003 1313 
Q 3003 1734 2745 1975 
Q 2488 2216 2034 2216 
z
M 1403 2484 
Q 997 2584 770 2862 
Q 544 3141 544 3541 
Q 544 4100 942 4425 
Q 1341 4750 2034 4750 
Q 2731 4750 3128 4425 
Q 3525 4100 3525 3541 
Q 3525 3141 3298 2862 
Q 3072 2584 2669 2484 
Q 3125 2378 3379 2068 
Q 3634 1759 3634 1313 
Q 3634 634 3220 271 
Q 2806 -91 2034 -91 
Q 1263 -91 848 271 
Q 434 634 434 1313 
Q 434 1759 690 2068 
Q 947 2378 1403 2484 
z
M 1172 3481 
Q 1172 3119 1398 2916 
Q 1625 2713 2034 2713 
Q 2441 2713 2670 2916 
Q 2900 3119 2900 3481 
Q 2900 3844 2670 4047 
Q 2441 4250 2034 4250 
Q 1625 4250 1398 4047 
Q 1172 3844 1172 3481 
z
" transform="scale(0.015625)"/>
       </defs>
       <use xlink:href="#DejaVuSans-38"/>
      </g>
     </g>
    </g>
    <g id="xtick_8">
     <g id="line2d_8">
      <defs>
       <path id="mbae0a40ae1" d="M 0 0 
L 0 2 
" style="stroke: #000000; stroke-width: 0.6"/>
      </defs>
      <g>
       <use xlink:href="#mbae0a40ae1" x="65.986394" y="313.236817" style="stroke: #000000; stroke-width: 0.6"/>
      </g>
     </g>
    </g>
    <g id="xtick_9">
     <g id="line2d_9">
      <g>
       <use xlink:href="#mbae0a40ae1" x="77.817163" y="313.236817" style="stroke: #000000; stroke-width: 0.6"/>
      </g>
     </g>
    </g>
    <g id="xtick_10">
     <g id="line2d_10">
      <g>
       <use xlink:href="#mbae0a40ae1" x="89.647933" y="313.236817" style="stroke: #000000; stroke-width: 0.6"/>
      </g>
     </g>
    </g>
    <g id="xtick_11">
     <g id="line2d_11">
      <g>
       <use xlink:href="#mbae0a40ae1" x="101.478702" y="313.236817" style="stroke: #000000; stroke-width: 0.6"/>
      </g>
     </g>
    </g>
    <g id="xtick_12">
     <g id="line2d_12">
      <g>
       <use xlink:href="#mbae0a40ae1" x="125.14024" y="313.236817" style="stroke: #000000; stroke-width: 0.6"/>
      </g>
     </g>
    </g>
    <g id="xtick_13">
     <g id="line2d_13">
      <g>
       <use xlink:href="#mbae0a40ae1" x="136.97101" y="313.236817" style="stroke: #000000; stroke-width: 0.6"/>
      </g>
     </g>
    </g>
    <g id="xtick_14">
     <g id="line2d_14">
      <g>
       <use xlink:href="#mbae0a40ae1" x="148.801779" y="313.236817" style="stroke: #000000; stroke-width: 0.6"/>
      </g>
     </g>
    </g>
    <g id="xtick_15">
     <g id="line2d_15">
      <g>
       <use xlink:href="#mbae0a40ae1" x="160.632548" y="313.236817" style="stroke: #000000; stroke-width: 0.6"/>
      </g>
     </g>
    </g>
    <g id="xtick_16">
     <g id="line2d_16">
      <g>
       <use xlink:href="#mbae0a40ae1" x="184.294087" y="313.236817" style="stroke: #000000; stroke-width: 0.6"/>
      </g>
     </g>
    </g>
    <g id="xtick_17">
     <g id="line2d_17">
      <g>
       <use xlink:href="#mbae0a40ae1" x="196.124856" y="313.236817" style="stroke: #000000; stroke-width: 0.6"/>
      </g>
     </g>
    </g>
    <g id="xtick_18">
     <g id="line2d_18">
      <g>
       <use xlink:href="#mbae0a40ae1" x="207.955625" y="313.236817" style="stroke: #000000; stroke-width: 0.6"/>
      </g>
     </g>
    </g>
    <g id="xtick_19">
     <g id="line2d_19">
      <g>
       <use xlink:href="#mbae0a40ae1" x="219.786394" y="313.236817" style="stroke: #000000; stroke-width: 0.6"/>
      </g>
     </g>
    </g>
    <g id="xtick_20">
     <g id="line2d_20">
      <g>
       <use xlink:href="#mbae0a40ae1" x="243.447933" y="313.236817" style="stroke: #000000; stroke-width: 0.6"/>
      </g>
     </g>
    </g>
    <g id="xtick_21">
     <g id="line2d_21">
      <g>
       <use xlink:href="#mbae0a40ae1" x="255.278702" y="313.236817" style="stroke: #000000; stroke-width: 0.6"/>
      </g>
     </g>
    </g>
    <g id="xtick_22">
     <g id="line2d_22">
      <g>
       <use xlink:href="#mbae0a40ae1" x="267.109471" y="313.236817" style="stroke: #000000; stroke-width: 0.6"/>
      </g>
     </g>
    </g>
    <g id="xtick_23">
     <g id="line2d_23">
      <g>
       <use xlink:href="#mbae0a40ae1" x="278.94024" y="313.236817" style="stroke: #000000; stroke-width: 0.6"/>
      </g>
     </g>
    </g>
    <g id="xtick_24">
     <g id="line2d_24">
      <g>
       <use xlink:href="#mbae0a40ae1" x="302.601779" y="313.236817" style="stroke: #000000; stroke-width: 0.6"/>
      </g>
     </g>
    </g>
    <g id="xtick_25">
     <g id="line2d_25">
      <g>
       <use xlink:href="#mbae0a40ae1" x="314.432548" y="313.236817" style="stroke: #000000; stroke-width: 0.6"/>
      </g>
     </g>
    </g>
    <g id="xtick_26">
     <g id="line2d_26">
      <g>
       <use xlink:href="#mbae0a40ae1" x="326.263317" y="313.236817" style="stroke: #000000; stroke-width: 0.6"/>
      </g>
     </g>
    </g>
    <g id="xtick_27">
     <g id="line2d_27">
      <g>
       <use xlink:href="#mbae0a40ae1" x="338.094087" y="313.236817" style="stroke: #000000; stroke-width: 0.6"/>
      </g>
     </g>
    </g>
    <g id="xtick_28">
     <g id="line2d_28">
      <g>
       <use xlink:href="#mbae0a40ae1" x="361.755625" y="313.236817" style="stroke: #000000; stroke-width: 0.6"/>
      </g>
     </g>
    </g>
    <g id="xtick_29">
     <g id="line2d_29">
      <g>
       <use xlink:href="#mbae0a40ae1" x="373.586394" y="313.236817" style="stroke: #000000; stroke-width: 0.6"/>
      </g>
     </g>
    </g>
    <g id="xtick_30">
     <g id="line2d_30">
      <g>
       <use xlink:href="#mbae0a40ae1" x="385.417163" y="313.236817" style="stroke: #000000; stroke-width: 0.6"/>
      </g>
     </g>
    </g>
    <g id="xtick_31">
     <g id="line2d_31">
      <g>
       <use xlink:href="#mbae0a40ae1" x="397.247933" y="313.236817" style="stroke: #000000; stroke-width: 0.6"/>
      </g>
     </g>
    </g>
    <g id="xtick_32">
     <g id="line2d_32">
      <g>
       <use xlink:href="#mbae0a40ae1" x="420.909471" y="313.236817" style="stroke: #000000; stroke-width: 0.6"/>
      </g>
     </g>
    </g>
    <g id="xtick_33">
     <g id="line2d_33">
      <g>
       <use xlink:href="#mbae0a40ae1" x="432.74024" y="313.236817" style="stroke: #000000; stroke-width: 0.6"/>
      </g>
     </g>
    </g>
    <g id="xtick_34">
     <g id="line2d_34">
      <g>
       <use xlink:href="#mbae0a40ae1" x="444.57101" y="313.236817" style="stroke: #000000; stroke-width: 0.6"/>
      </g>
     </g>
    </g>
   </g>
   <g id="matplotlib.axis_2">
    <g id="ytick_1">
     <g id="line2d_35">
      <defs>
       <path id="m90528d0725" d="M 0 0 
L -3.5 0 
" style="stroke: #000000; stroke-width: 0.8"/>
      </defs>
      <g>
       <use xlink:href="#m90528d0725" x="36.465625" y="313.236817" style="stroke: #000000; stroke-width: 0.8"/>
      </g>
     </g>
     <g id="text_8">
      <!-- 0.00 -->
      <g transform="translate(7.2 317.036035) scale(0.1 -0.1)">
       <defs>
        <path id="DejaVuSans-30" d="M 2034 4250 
Q 1547 4250 1301 3770 
Q 1056 3291 1056 2328 
Q 1056 1369 1301 889 
Q 1547 409 2034 409 
Q 2525 409 2770 889 
Q 3016 1369 3016 2328 
Q 3016 3291 2770 3770 
Q 2525 4250 2034 4250 
z
M 2034 4750 
Q 2819 4750 3233 4129 
Q 3647 3509 3647 2328 
Q 3647 1150 3233 529 
Q 2819 -91 2034 -91 
Q 1250 -91 836 529 
Q 422 1150 422 2328 
Q 422 3509 836 4129 
Q 1250 4750 2034 4750 
z
" transform="scale(0.015625)"/>
        <path id="DejaVuSans-2e" d="M 684 794 
L 1344 794 
L 1344 0 
L 684 0 
L 684 794 
z
" transform="scale(0.015625)"/>
       </defs>
       <use xlink:href="#DejaVuSans-30"/>
       <use xlink:href="#DejaVuSans-2e" x="63.623047"/>
       <use xlink:href="#DejaVuSans-30" x="95.410156"/>
       <use xlink:href="#DejaVuSans-30" x="159.033203"/>
      </g>
     </g>
    </g>
    <g id="ytick_2">
     <g id="line2d_36">
      <g>
       <use xlink:href="#m90528d0725" x="36.465625" y="253.229598" style="stroke: #000000; stroke-width: 0.8"/>
      </g>
     </g>
     <g id="text_9">
      <!-- 0.05 -->
      <g transform="translate(7.2 257.028816) scale(0.1 -0.1)">
       <use xlink:href="#DejaVuSans-30"/>
       <use xlink:href="#DejaVuSans-2e" x="63.623047"/>
       <use xlink:href="#DejaVuSans-30" x="95.410156"/>
       <use xlink:href="#DejaVuSans-35" x="159.033203"/>
      </g>
     </g>
    </g>
    <g id="ytick_3">
     <g id="line2d_37">
      <g>
       <use xlink:href="#m90528d0725" x="36.465625" y="193.222379" style="stroke: #000000; stroke-width: 0.8"/>
      </g>
     </g>
     <g id="text_10">
      <!-- 0.10 -->
      <g transform="translate(7.2 197.021597) scale(0.1 -0.1)">
       <defs>
        <path id="DejaVuSans-31" d="M 794 531 
L 1825 531 
L 1825 4091 
L 703 3866 
L 703 4441 
L 1819 4666 
L 2450 4666 
L 2450 531 
L 3481 531 
L 3481 0 
L 794 0 
L 794 531 
z
" transform="scale(0.015625)"/>
       </defs>
       <use xlink:href="#DejaVuSans-30"/>
       <use xlink:href="#DejaVuSans-2e" x="63.623047"/>
       <use xlink:href="#DejaVuSans-31" x="95.410156"/>
       <use xlink:href="#DejaVuSans-30" x="159.033203"/>
      </g>
     </g>
    </g>
    <g id="ytick_4">
     <g id="line2d_38">
      <g>
       <use xlink:href="#m90528d0725" x="36.465625" y="133.21516" style="stroke: #000000; stroke-width: 0.8"/>
      </g>
     </g>
     <g id="text_11">
      <!-- 0.15 -->
      <g transform="translate(7.2 137.014379) scale(0.1 -0.1)">
       <use xlink:href="#DejaVuSans-30"/>
       <use xlink:href="#DejaVuSans-2e" x="63.623047"/>
       <use xlink:href="#DejaVuSans-31" x="95.410156"/>
       <use xlink:href="#DejaVuSans-35" x="159.033203"/>
      </g>
     </g>
    </g>
    <g id="ytick_5">
     <g id="line2d_39">
      <g>
       <use xlink:href="#m90528d0725" x="36.465625" y="73.207941" style="stroke: #000000; stroke-width: 0.8"/>
      </g>
     </g>
     <g id="text_12">
      <!-- 0.20 -->
      <g transform="translate(7.2 77.00716) scale(0.1 -0.1)">
       <use xlink:href="#DejaVuSans-30"/>
       <use xlink:href="#DejaVuSans-2e" x="63.623047"/>
       <use xlink:href="#DejaVuSans-32" x="95.410156"/>
       <use xlink:href="#DejaVuSans-30" x="159.033203"/>
      </g>
     </g>
    </g>
    <g id="ytick_6">
     <g id="line2d_40">
      <g>
       <use xlink:href="#m90528d0725" x="36.465625" y="13.200722" style="stroke: #000000; stroke-width: 0.8"/>
      </g>
     </g>
     <g id="text_13">
      <!-- 0.25 -->
      <g transform="translate(7.2 16.999941) scale(0.1 -0.1)">
       <use xlink:href="#DejaVuSans-30"/>
       <use xlink:href="#DejaVuSans-2e" x="63.623047"/>
       <use xlink:href="#DejaVuSans-32" x="95.410156"/>
       <use xlink:href="#DejaVuSans-35" x="159.033203"/>
      </g>
     </g>
    </g>
    <g id="ytick_7">
     <g id="line2d_41">
      <defs>
       <path id="m77e316d5b7" d="M 0 0 
L -2 0 
" style="stroke: #000000; stroke-width: 0.6"/>
      </defs>
      <g>
       <use xlink:href="#m77e316d5b7" x="36.465625" y="301.235373" style="stroke: #000000; stroke-width: 0.6"/>
      </g>
     </g>
    </g>
    <g id="ytick_8">
     <g id="line2d_42">
      <g>
       <use xlink:href="#m77e316d5b7" x="36.465625" y="289.233929" style="stroke: #000000; stroke-width: 0.6"/>
      </g>
     </g>
    </g>
    <g id="ytick_9">
     <g id="line2d_43">
      <g>
       <use xlink:href="#m77e316d5b7" x="36.465625" y="277.232485" style="stroke: #000000; stroke-width: 0.6"/>
      </g>
     </g>
    </g>
    <g id="ytick_10">
     <g id="line2d_44">
      <g>
       <use xlink:href="#m77e316d5b7" x="36.465625" y="265.231041" style="stroke: #000000; stroke-width: 0.6"/>
      </g>
     </g>
    </g>
    <g id="ytick_11">
     <g id="line2d_45">
      <g>
       <use xlink:href="#m77e316d5b7" x="36.465625" y="241.228154" style="stroke: #000000; stroke-width: 0.6"/>
      </g>
     </g>
    </g>
    <g id="ytick_12">
     <g id="line2d_46">
      <g>
       <use xlink:href="#m77e316d5b7" x="36.465625" y="229.22671" style="stroke: #000000; stroke-width: 0.6"/>
      </g>
     </g>
    </g>
    <g id="ytick_13">
     <g id="line2d_47">
      <g>
       <use xlink:href="#m77e316d5b7" x="36.465625" y="217.225266" style="stroke: #000000; stroke-width: 0.6"/>
      </g>
     </g>
    </g>
    <g id="ytick_14">
     <g id="line2d_48">
      <g>
       <use xlink:href="#m77e316d5b7" x="36.465625" y="205.223822" style="stroke: #000000; stroke-width: 0.6"/>
      </g>
     </g>
    </g>
    <g id="ytick_15">
     <g id="line2d_49">
      <g>
       <use xlink:href="#m77e316d5b7" x="36.465625" y="181.220935" style="stroke: #000000; stroke-width: 0.6"/>
      </g>
     </g>
    </g>
    <g id="ytick_16">
     <g id="line2d_50">
      <g>
       <use xlink:href="#m77e316d5b7" x="36.465625" y="169.219491" style="stroke: #000000; stroke-width: 0.6"/>
      </g>
     </g>
    </g>
    <g id="ytick_17">
     <g id="line2d_51">
      <g>
       <use xlink:href="#m77e316d5b7" x="36.465625" y="157.218047" style="stroke: #000000; stroke-width: 0.6"/>
      </g>
     </g>
    </g>
    <g id="ytick_18">
     <g id="line2d_52">
      <g>
       <use xlink:href="#m77e316d5b7" x="36.465625" y="145.216604" style="stroke: #000000; stroke-width: 0.6"/>
      </g>
     </g>
    </g>
    <g id="ytick_19">
     <g id="line2d_53">
      <g>
       <use xlink:href="#m77e316d5b7" x="36.465625" y="121.213716" style="stroke: #000000; stroke-width: 0.6"/>
      </g>
     </g>
    </g>
    <g id="ytick_20">
     <g id="line2d_54">
      <g>
       <use xlink:href="#m77e316d5b7" x="36.465625" y="109.212272" style="stroke: #000000; stroke-width: 0.6"/>
      </g>
     </g>
    </g>
    <g id="ytick_21">
     <g id="line2d_55">
      <g>
       <use xlink:href="#m77e316d5b7" x="36.465625" y="97.210828" style="stroke: #000000; stroke-width: 0.6"/>
      </g>
     </g>
    </g>
    <g id="ytick_22">
     <g id="line2d_56">
      <g>
       <use xlink:href="#m77e316d5b7" x="36.465625" y="85.209385" style="stroke: #000000; stroke-width: 0.6"/>
      </g>
     </g>
    </g>
    <g id="ytick_23">
     <g id="line2d_57">
      <g>
       <use xlink:href="#m77e316d5b7" x="36.465625" y="61.206497" style="stroke: #000000; stroke-width: 0.6"/>
      </g>
     </g>
    </g>
    <g id="ytick_24">
     <g id="line2d_58">
      <g>
       <use xlink:href="#m77e316d5b7" x="36.465625" y="49.205053" style="stroke: #000000; stroke-width: 0.6"/>
      </g>
     </g>
    </g>
    <g id="ytick_25">
     <g id="line2d_59">
      <g>
       <use xlink:href="#m77e316d5b7" x="36.465625" y="37.203609" style="stroke: #000000; stroke-width: 0.6"/>
      </g>
     </g>
    </g>
    <g id="ytick_26">
     <g id="line2d_60">
      <g>
       <use xlink:href="#m77e316d5b7" x="36.465625" y="25.202166" style="stroke: #000000; stroke-width: 0.6"/>
      </g>
     </g>
    </g>
   </g>
   <g id="line2d_61">
    <path d="M 113.309471 313.236817 
L 113.309471 179.887441 
" clip-path="url(#p4779a875fc)" style="fill: none; stroke: #000000; stroke-linecap: square"/>
   </g>
   <g id="line2d_62">
    <path d="M 409.078702 313.236817 
L 409.078702 294.484561 
" clip-path="url(#p4779a875fc)" style="fill: none; stroke: #000000; stroke-linecap: square"/>
   </g>
   <g id="line2d_63">
    <path d="M 113.309471 179.887441 
L 117.658603 186.190893 
L 121.768798 191.746069 
L 127.087378 198.409684 
L 131.930539 204.011999 
L 136.568236 209.001027 
L 142.005757 214.427061 
L 146.82188 218.886837 
L 152.361095 223.652731 
L 157.828508 228.011323 
L 163.534898 232.229707 
L 169.4663 236.290914 
L 175.612103 240.18502 
L 181.036154 243.381372 
L 188.342854 247.365829 
L 195.047989 250.729726 
L 201.550586 253.751786 
L 207.985963 256.531863 
L 215.441093 259.515533 
L 223.978171 262.651812 
L 231.48534 265.188221 
L 239.409745 267.664071 
L 247.996403 270.136838 
L 258.451502 272.885182 
L 267.97864 275.166945 
L 279.26226 277.627581 
L 291.230353 279.985596 
L 303.647666 282.19289 
L 316.611777 284.270847 
L 331.775109 286.447055 
L 347.699591 288.478687 
L 365.151083 290.450647 
L 382.790995 292.213798 
L 400.970601 293.825077 
L 409.078702 294.484561 
L 409.078702 294.484561 
" clip-path="url(#p4779a875fc)" style="fill: none; stroke: #0000ff; stroke-linecap: square"/>
   </g>
   <g id="line2d_64">
    <path d="M 54.155625 13.200722 
L 57.266868 28.379991 
L 61.993348 49.3264 
L 62.867423 52.946064 
L 67.422574 70.656766 
L 69.739006 78.977849 
L 73.378027 91.210738 
L 77.04368 102.589351 
L 81.148953 114.324285 
L 85.259366 125.118187 
L 88.875673 133.90426 
L 92.420958 141.933574 
L 94.819768 147.06434 
L 98.195485 153.902992 
L 102.437462 161.914122 
L 106.180598 168.491812 
L 110.689428 175.86095 
L 113.40748 180.034612 
L 117.999144 186.665487 
L 121.785591 191.768012 
L 126.30611 197.4657 
L 131.227502 203.224534 
L 135.80965 208.208657 
L 140.202302 212.675347 
L 144.051757 216.359508 
L 149.587397 221.312579 
L 154.123276 225.093354 
L 160.175853 229.785574 
L 165.604787 233.682726 
L 172.225018 238.076479 
L 176.993061 241.019311 
L 183.92114 244.996702 
L 190.824029 248.641574 
L 197.52701 251.90844 
L 204.307942 254.967454 
L 209.792488 257.277278 
L 217.87162 260.4375 
L 226.865606 263.650626 
L 234.619896 266.191132 
L 243.040879 268.735076 
L 250.975207 270.94781 
L 259.959357 273.259762 
L 270.613097 275.763774 
L 282.502871 278.290236 
L 295.011765 280.682073 
L 307.058639 282.76078 
L 320.115652 284.796681 
L 333.41669 286.667831 
L 350.621989 288.826338 
L 366.474677 290.590505 
L 384.196136 292.345366 
L 402.9524 293.989445 
L 425.512379 295.722132 
L 438.655625 296.625822 
L 438.655625 296.625822 
" clip-path="url(#p4779a875fc)" style="fill: none; stroke: #0000ff; stroke-width: 2; stroke-linecap: square"/>
   </g>
   <g id="patch_4">
    <path d="M 36.465625 319.237538 
L 36.465625 7.2 
" style="fill: none; stroke: #000000; stroke-width: 0.8; stroke-linejoin: miter; stroke-linecap: square"/>
   </g>
   <g id="patch_5">
    <path d="M 46.465625 313.236817 
L 446.345625 313.236817 
" style="fill: none; stroke: #000000; stroke-width: 0.8; stroke-linejoin: miter; stroke-linecap: square"/>
   </g>
  </g>
 </g>
 <defs>
  <clipPath id="p4779a875fc">
   <rect x="46.465625" y="7.2" width="399.88" height="312.037538"/>
  </clipPath>
 </defs>
</svg>
