<?xml version="1.0" encoding="UTF-8" standalone="no"?>
<svg
   width="174.197pt"
   height="85.438pt"
   viewBox="0 0 174.197 85.438"
   version="1.1"
   id="svg25"
   xmlns="http://www.w3.org/2000/svg"
   xmlns:svg="http://www.w3.org/2000/svg">
  <defs
     id="defs11">
    <clipPath
       id="clip-0">
      <path
         clip-rule="nonzero"
         d="M 0 0 L 148 0 L 148 85.4375 L 0 85.4375 Z M 0 0 "
         id="path2" />
    </clipPath>
    <clipPath
       id="clip-1">
      <path
         clip-rule="nonzero"
         d="M 145 85 L 174.195312 85 L 174.195312 85.4375 L 145 85.4375 Z M 145 85 "
         id="path5" />
    </clipPath>
    <clipPath
       id="clip-2">
      <path
         clip-rule="nonzero"
         d="M 145 83 L 148 83 L 148 85.4375 L 145 85.4375 Z M 145 83 "
         id="path8" />
    </clipPath>
  </defs>
  <g
     clip-path="url(#clip-0)"
     id="g15">
    <path
       fill="none"
       stroke-width="0.3985"
       stroke-linecap="butt"
       stroke-linejoin="miter"
       stroke="#000000"
       stroke-opacity="1"
       stroke-miterlimit="10"
       d="M 2.1875e-4,7.1875e-4 85.039281,56.692125 141.73459,7.1875e-4 V 85.039781 h -28.34765"
       transform="matrix(1,0,0,-1,0.199,85.239)"
       id="path13" />
  </g>
  <g
     clip-path="url(#clip-1)"
     id="g19">
    <path
       fill="none"
       stroke-width="0.3985"
       stroke-linecap="butt"
       stroke-linejoin="miter"
       stroke="#000000"
       stroke-opacity="1"
       stroke-miterlimit="10"
       d="M -56.693906,7.1875e-4 H -84.580625"
       transform="matrix(1,0,0,-1,230.69,85.239)"
       id="path17" />
  </g>
  <g
     clip-path="url(#clip-2)"
     id="g23">
    <path
       fill="none"
       stroke-width="0.31879"
       stroke-linecap="round"
       stroke-linejoin="round"
       stroke="#000000"
       stroke-opacity="1"
       stroke-miterlimit="10"
       d="M -1.196827,1.593031 C -1.095265,0.995375 -0.001515,0.100844 0.299266,-7.1875e-4 -0.001515,-0.098375 -1.095265,-0.996813 -1.196827,-1.594469"
       transform="matrix(-1,0,0,1,146.10786,85.239)"
       id="path21" />
  </g>
</svg>
