<?xml version="1.0" encoding="utf-8" standalone="no"?>
<!DOCTYPE svg PUBLIC "-//W3C//DTD SVG 1.1//EN"
  "http://www.w3.org/Graphics/SVG/1.1/DTD/svg11.dtd">
<svg xmlns:xlink="http://www.w3.org/1999/xlink" width="451.536877pt" height="337.114942pt" viewBox="0 0 451.536877 337.114942" xmlns="http://www.w3.org/2000/svg" version="1.1">
 <metadata>
  <rdf:RDF xmlns:dc="http://purl.org/dc/elements/1.1/" xmlns:cc="http://creativecommons.org/ns#" xmlns:rdf="http://www.w3.org/1999/02/22-rdf-syntax-ns#">
   <cc:Work>
    <dc:type rdf:resource="http://purl.org/dc/dcmitype/StillImage"/>
    <dc:date>2023-05-19T04:05:54.368816</dc:date>
    <dc:format>image/svg+xml</dc:format>
    <dc:creator>
     <cc:Agent>
      <dc:title>Matplotlib v3.7.1, https://matplotlib.org/</dc:title>
     </cc:Agent>
    </dc:creator>
   </cc:Work>
  </rdf:RDF>
 </metadata>
 <defs>
  <style type="text/css">*{stroke-linejoin: round; stroke-linecap: butt}</style>
 </defs>
 <g id="figure_1">
  <g id="patch_1">
   <path d="M 0 337.114942 
L 451.536877 337.114942 
L 451.536877 0 
L 0 0 
L 0 337.114942 
z
" style="fill: none"/>
  </g>
  <g id="axes_1">
   <g id="patch_2">
    <path d="M 16.50304 319.237538 
L 442.994893 319.237538 
L 442.994893 7.2 
L 16.50304 7.2 
L 16.50304 319.237538 
z
" style="fill: none"/>
   </g>
   <g id="patch_3">
    <path d="M 434.793127 13.200722 
L 434.743126 20.253606 
L 434.693124 20.253606 
L 434.593122 20.253606 
L 434.393118 20.253606 
L 433.993109 20.253606 
L 433.193092 20.253606 
L 431.574909 20.253606 
L 430.773849 20.253606 
L 430.673716 20.253606 
L 430.573584 18.395809 
L 430.373318 18.395809 
L 429.972788 18.395809 
L 428.370667 18.395809 
L 427.297366 18.395809 
L 426.760716 18.395809 
L 426.626553 18.395809 
L 426.559472 18.395809 
L 426.49239 22.217185 
L 426.224065 22.217185 
L 423.574313 22.217185 
L 422.284509 22.651951 
L 419.370873 22.651951 
L 418.847135 22.651951 
L 418.49674 22.651951 
L 418.321542 22.651951 
L 418.233944 22.651951 
L 418.146345 21.928302 
L 417.445555 21.928302 
L 416.043976 21.928302 
L 414.683865 21.928302 
L 414.293687 21.928302 
L 414.098598 21.928302 
L 414.001053 23.549235 
L 413.903509 23.549235 
L 413.123152 23.549235 
L 411.56244 23.549235 
L 410.036944 23.549235 
L 409.94956 23.549235 
L 409.862177 22.819672 
L 409.687411 22.819672 
L 409.337879 22.819672 
L 408.638814 22.819672 
L 407.240685 22.819672 
L 405.931679 22.819672 
L 405.836382 22.819672 
L 405.788733 24.485532 
L 405.741085 24.485532 
L 405.55049 24.485532 
L 405.1693 24.485532 
L 404.406922 24.485532 
L 402.665735 24.485532 
L 401.795141 24.485532 
L 401.686317 24.485532 
L 401.577493 28.625786 
L 401.359844 28.625786 
L 400.924548 28.625786 
L 400.627926 28.625786 
L 397.599031 28.625786 
L 397.526348 28.625786 
L 397.490006 27.92831 
L 397.453665 27.92831 
L 397.308299 27.92831 
L 397.017567 27.92831 
L 396.436103 27.92831 
L 393.902628 27.92831 
L 393.452625 27.92831 
L 393.396375 27.92831 
L 393.340124 25.968878 
L 393.227624 25.968878 
L 393.002622 25.968878 
L 392.102616 25.968878 
L 389.632424 25.968878 
L 389.282678 25.968878 
L 389.238959 25.968878 
L 389.195241 25.225358 
L 389.107804 25.225358 
L 388.932931 25.225358 
L 388.233439 25.225358 
L 385.392761 25.225358 
L 385.216738 25.225358 
L 385.128726 25.225358 
L 385.08472 27.014609 
L 385.040715 27.014609 
L 384.688668 27.014609 
L 383.984576 27.014609 
L 381.237658 27.014609 
L 379.121036 27.555714 
L 377.71054 27.555714 
L 377.005292 27.555714 
L 376.82898 27.555714 
L 376.740824 26.80462 
L 376.652668 26.80462 
L 376.300044 26.80462 
L 376.059759 26.80462 
L 373.761615 26.80462 
L 369.882285 27.356108 
L 369.198506 27.356108 
L 368.856616 27.356108 
L 368.685671 27.356108 
L 368.600198 27.356108 
L 368.557462 27.356108 
L 368.514726 25.248137 
L 367.098337 25.248137 
L 365.724633 25.248137 
L 365.037782 25.248137 
L 364.694356 25.248137 
L 364.522643 25.248137 
L 364.436786 25.248137 
L 364.35093 28.499438 
L 363.251158 28.499438 
L 361.639243 28.499438 
L 360.833285 28.499438 
L 360.430306 28.499438 
L 360.329561 28.499438 
L 360.228816 26.353533 
L 360.027327 26.353533 
L 358.789793 26.353533 
L 357.215834 26.353533 
L 356.428855 26.353533 
L 356.23211 26.353533 
L 356.133737 26.353533 
L 356.035365 29.699934 
L 355.641875 29.699934 
L 355.340414 29.699934 
L 352.902691 29.699934 
L 352.092968 29.699934 
L 351.991753 29.699934 
L 351.890537 31.727015 
L 351.688107 31.727015 
L 351.283245 31.727015 
L 349.663799 31.727015 
L 347.961982 31.727015 
L 347.878193 31.727015 
L 347.794403 30.961994 
L 347.626825 30.961994 
L 347.291668 30.961994 
L 346.621355 30.961994 
L 345.280728 30.961994 
L 344.402145 30.961994 
L 343.962853 30.961994 
L 343.743208 30.961994 
L 343.688296 30.961994 
L 343.633385 33.058117 
L 343.523562 33.058117 
L 341.607592 33.058117 
L 339.948829 33.058117 
L 339.606994 33.058117 
L 339.521535 33.058117 
L 339.436076 33.74994 
L 339.265159 33.74994 
L 338.581489 33.74994 
L 337.214149 33.74994 
L 336.880922 33.74994 
L 335.917625 33.74994 
L 335.435977 33.74994 
L 335.315565 32.98129 
L 335.195152 32.98129 
L 334.954328 32.98129 
L 333.027734 32.98129 
L 331.966846 32.98129 
L 331.436402 32.98129 
L 331.303791 32.98129 
L 331.237485 32.98129 
L 331.171179 33.690772 
L 330.905957 33.690772 
L 329.988392 33.690772 
L 327.111549 33.690772 
L 327.094083 33.690772 
L 327.076617 34.419693 
L 327.041686 34.419693 
L 326.971822 34.419693 
L 326.832095 34.419693 
L 326.552641 34.419693 
L 323.059364 34.419693 
L 322.997337 34.419693 
L 322.93531 36.709403 
L 322.811256 36.709403 
L 322.563149 36.709403 
L 322.066934 36.709403 
L 321.074503 36.709403 
L 319.757451 36.709403 
L 319.098926 36.709403 
L 318.934294 36.709403 
L 318.851978 36.709403 
L 318.769663 37.501373 
L 318.4404 37.501373 
L 317.360496 37.501373 
L 316.052316 37.501373 
L 315.191551 37.501373 
L 314.761168 37.501373 
L 314.653572 36.731411 
L 314.545976 36.731411 
L 314.330785 36.731411 
L 312.609254 36.731411 
L 312.032845 36.731411 
L 311.24827 36.731411 
L 310.855983 36.731411 
L 310.659839 36.731411 
L 310.561767 36.731411 
L 310.463696 34.331609 
L 308.894546 34.331609 
L 306.383465 34.331609 
L 306.317084 38.385876 
L 306.250702 38.385876 
L 306.117939 38.385876 
L 305.852412 38.385876 
L 305.321358 38.385876 
L 304.25925 38.385876 
L 303.904018 38.385876 
L 302.694517 38.385876 
L 302.392142 38.385876 
L 302.240954 38.385876 
L 302.165361 39.250149 
L 302.089767 39.250149 
L 301.485016 39.250149 
L 299.287043 39.250149 
L 298.579646 39.250149 
L 298.225948 39.250149 
L 298.137524 39.250149 
L 298.049099 46.86298 
L 297.87225 46.86298 
L 296.457457 46.86298 
L 295.080291 46.86298 
L 294.391709 46.86298 
L 294.047417 46.86298 
L 293.961345 46.86298 
L 293.875272 46.177816 
L 293.703126 46.177816 
L 292.772714 46.177816 
L 290.098959 46.177816 
L 289.929243 46.177816 
L 289.844385 46.177816 
L 289.801956 43.738129 
L 289.759527 43.738129 
L 289.420095 43.738129 
L 288.741231 43.738129 
L 286.079337 43.738129 
L 285.862373 43.738129 
L 285.753891 43.738129 
L 285.699651 43.738129 
L 285.64541 42.981613 
L 285.211483 42.981613 
L 284.343629 42.981613 
L 282.838464 42.981613 
L 281.872009 42.981613 
L 281.630396 42.981613 
L 281.569993 42.981613 
L 281.509589 51.145779 
L 281.388782 51.145779 
L 280.905555 51.145779 
L 277.463732 51.145779 
L 277.386998 51.145779 
L 277.348631 55.940932 
L 277.310265 55.940932 
L 277.156797 55.940932 
L 276.849863 55.940932 
L 276.235995 55.940932 
L 274.86063 55.940932 
L 273.530733 55.940932 
L 273.364496 55.940932 
L 273.281378 55.940932 
L 273.198259 53.501319 
L 272.865785 53.501319 
L 272.200836 53.501319 
L 270.847406 53.501319 
L 269.663016 53.501319 
L 269.366919 53.501319 
L 269.21887 53.501319 
L 269.144846 53.501319 
L 269.070821 52.858991 
L 268.478626 52.858991 
L 265.064063 52.858991 
L 264.960493 52.858991 
L 264.947547 54.106911 
L 264.934601 54.106911 
L 264.908709 54.106911 
L 264.856924 54.106911 
L 264.649785 54.106911 
L 262.592281 54.106911 
L 261.620627 54.106911 
L 261.134801 54.106911 
L 260.891887 54.106911 
L 260.831159 54.106911 
L 260.77043 51.506721 
L 260.648974 51.506721 
L 257.180753 51.506721 
L 256.884944 51.506721 
L 256.73704 51.506721 
L 256.700064 51.506721 
L 256.663088 52.775063 
L 256.589135 52.775063 
L 255.997518 52.775063 
L 252.634739 52.775063 
L 252.570877 52.775063 
L 252.538946 52.775063 
L 252.507016 54.089526 
L 252.379292 54.089526 
L 252.123844 54.089526 
L 251.612949 54.089526 
L 249.792653 54.089526 
L 248.982785 54.089526 
L 248.577852 54.089526 
L 248.476618 54.089526 
L 248.375385 55.452673 
L 248.172918 55.452673 
L 246.553183 55.452673 
L 245.093572 55.452673 
L 244.32921 55.452673 
L 244.281437 55.452673 
L 244.233664 61.052885 
L 244.138119 61.052885 
L 243.947028 61.052885 
L 243.564847 61.052885 
L 241.336198 61.052885 
L 240.58881 61.052885 
L 240.215116 61.052885 
L 240.121693 61.052885 
L 240.074981 58.336253 
L 240.028269 58.336253 
L 239.841423 58.336253 
L 236.943524 58.336253 
L 235.9753 58.336253 
L 235.914786 59.862854 
L 235.854272 59.862854 
L 235.733243 59.862854 
L 235.491187 59.862854 
L 235.007075 59.862854 
L 232.425623 59.862854 
L 231.897216 59.862854 
L 231.831165 59.862854 
L 231.765114 59.232138 
L 231.633012 59.232138 
L 231.368809 59.232138 
L 230.311995 59.232138 
L 227.756674 59.232138 
L 227.715696 59.232138 
L 227.674719 56.312023 
L 227.592763 56.312023 
L 227.428852 56.312023 
L 227.101029 56.312023 
L 226.445384 56.312023 
L 223.608143 56.312023 
L 223.560852 56.312023 
L 223.537206 56.312023 
L 223.525383 55.581051 
L 223.51356 55.581051 
L 223.418976 55.581051 
L 223.229809 55.581051 
L 221.20497 55.581051 
L 219.530312 55.581051 
L 219.425645 55.581051 
L 219.320979 64.258896 
L 219.111647 64.258896 
L 218.692982 64.258896 
L 217.855653 64.258896 
L 216.635982 64.258896 
L 215.360247 64.258896 
L 215.280514 64.258896 
L 215.20078 73.314037 
L 215.041313 73.314037 
L 214.72238 73.314037 
L 214.084512 73.314037 
L 213.192259 73.314037 
L 211.452514 73.314037 
L 211.235046 73.314037 
L 211.126312 73.314037 
L 211.017578 70.447288 
L 210.582641 70.447288 
L 209.712768 70.447288 
L 207.693522 70.447288 
L 205.032561 69.971121 
L 203.990825 69.971121 
L 203.238962 69.971121 
L 202.863031 69.971121 
L 202.769048 66.893292 
L 202.675065 66.893292 
L 202.487099 66.893292 
L 200.983374 66.893292 
L 200.63355 66.893292 
L 199.29015 66.893292 
L 198.954301 66.893292 
L 198.786376 66.893292 
L 198.702413 66.893292 
L 198.618451 74.232622 
L 197.946751 74.232622 
L 195.387559 74.232622 
L 194.7691 74.232622 
L 194.614485 74.232622 
L 194.575832 74.232622 
L 194.537178 71.108594 
L 194.459871 71.108594 
L 194.150641 71.108594 
L 191.488079 71.108594 
L 190.518408 71.108594 
L 190.397199 71.108594 
L 190.336595 73.374319 
L 190.27599 73.374319 
L 190.033573 73.374319 
L 189.548737 73.374319 
L 187.876001 73.374319 
L 186.516367 73.374319 
L 186.346412 73.374319 
L 186.261435 73.374319 
L 186.176458 75.756235 
L 185.83655 75.756235 
L 185.156732 75.756235 
L 183.143794 75.756235 
L 181.246017 75.344592 
L 178.804113 75.344592 
L 178.355094 75.344592 
L 178.130585 75.344592 
L 178.01833 75.344592 
L 177.962202 77.908511 
L 177.906075 77.908511 
L 177.008037 77.908511 
L 175.152541 77.908511 
L 174.129584 77.908511 
L 173.873845 77.908511 
L 173.80991 80.61487 
L 173.745975 80.61487 
L 173.618106 80.61487 
L 173.106627 80.61487 
L 170.196594 80.61487 
L 169.80229 80.61487 
L 169.703714 80.61487 
L 169.67907 77.137645 
L 169.654426 77.137645 
L 169.605138 77.137645 
L 169.407985 77.137645 
L 167.753645 77.137645 
L 166.101179 77.137645 
L 165.688062 77.137645 
L 165.584783 77.137645 
L 165.481504 86.50518 
L 165.274945 86.50518 
L 164.448712 86.50518 
L 162.477816 86.50518 
L 161.654416 86.50518 
L 161.448566 86.50518 
L 161.397103 82.995709 
L 161.345641 82.995709 
L 161.242716 82.995709 
L 160.831016 82.995709 
L 159.128341 82.995709 
L 157.623942 82.995709 
L 157.435892 82.995709 
L 157.341867 82.995709 
L 157.247842 86.199337 
L 156.871742 86.199337 
L 156.119542 86.199337 
L 154.745953 86.199337 
L 153.39422 86.199337 
L 151.148005 86.031617 
L 149.751694 86.031617 
L 149.053538 86.031617 
L 148.966268 104.339228 
L 148.878999 104.339228 
L 148.70446 104.339228 
L 148.355382 104.339228 
L 147.217779 104.339228 
L 145.050154 104.339228 
L 142.871737 104.785454 
L 141.489414 104.785454 
L 140.798252 104.785454 
L 140.711857 104.785454 
L 140.625462 101.302158 
L 140.452671 101.302158 
L 140.10709 101.302158 
L 138.704216 101.302158 
L 135.037531 101.668954 
L 134.032159 101.668954 
L 132.786968 101.668954 
L 132.475671 101.668954 
L 132.397846 97.797846 
L 132.320022 97.797846 
L 132.164373 97.797846 
L 131.541778 97.797846 
L 129.473826 97.797846 
L 128.048365 98.053813 
L 124.990692 98.053813 
L 124.447584 98.053813 
L 124.176031 98.053813 
L 124.142086 98.053813 
L 124.108142 107.574367 
L 124.040254 107.574367 
L 123.904477 107.574367 
L 121.865602 107.574367 
L 120.266154 107.574367 
L 120.066223 107.574367 
L 119.966257 113.100227 
L 119.866292 113.100227 
L 119.46643 113.100227 
L 118.666705 113.100227 
L 116.855325 113.100227 
L 116.000676 113.100227 
L 115.851757 113.100227 
L 115.777298 114.086661 
L 115.702838 114.086661 
L 115.405001 114.086661 
L 114.809327 114.086661 
L 113.617978 114.086661 
L 111.831873 114.086661 
L 111.722847 114.086661 
L 111.668334 120.448903 
L 111.613821 120.448903 
L 111.395768 120.448903 
L 110.959663 120.448903 
L 110.087454 120.448903 
L 107.685396 120.448903 
L 107.578623 120.448903 
L 107.471851 116.355461 
L 107.258305 116.355461 
L 106.831215 116.355461 
L 105.977034 116.355461 
L 104.268671 116.355461 
L 104.023568 116.355461 
L 103.67872 116.355461 
L 103.506297 116.355461 
L 103.420085 116.355461 
L 103.333873 117.668976 
L 102.644179 117.668976 
L 101.26479 117.668976 
L 99.376794 117.668976 
L 99.318839 117.668976 
L 99.260885 125.290608 
L 99.144977 125.290608 
L 98.913159 125.290608 
L 98.449525 125.290608 
L 97.522255 125.290608 
L 96.14828 125.290608 
L 95.461292 125.290608 
L 95.289545 125.290608 
L 95.203672 125.290608 
L 95.117798 120.7596 
L 94.774304 120.7596 
L 93.600211 120.7596 
L 91.892846 120.7596 
L 91.039163 120.7596 
L 90.932453 129.527101 
L 90.825742 129.527101 
L 90.612322 129.527101 
L 90.18548 129.527101 
L 89.506724 129.527101 
L 86.979075 129.527101 
L 86.888507 129.527101 
L 86.797939 139.463601 
L 86.616804 139.463601 
L 86.254532 139.463601 
L 85.529989 139.463601 
L 84.080902 139.463601 
L 82.792229 139.463601 
L 82.711687 139.463601 
L 82.631145 142.89681 
L 82.470061 142.89681 
L 82.147893 142.89681 
L 81.503556 142.89681 
L 80.302653 142.89681 
L 79.18076 142.89681 
L 78.619813 142.89681 
L 78.549695 138.325969 
L 78.479577 138.325969 
L 78.33934 138.325969 
L 78.058867 138.325969 
L 77.1423 138.325969 
L 75.24254 138.325969 
L 74.7676 138.325969 
L 74.53013 138.325969 
L 74.411395 142.236578 
L 74.29266 142.236578 
L 73.342779 142.236578 
L 72.575046 142.236578 
L 71.412944 142.236578 
L 70.831893 142.236578 
L 70.541368 142.236578 
L 70.396105 142.236578 
L 70.323474 142.236578 
L 70.250843 156.941758 
L 67.178538 156.941758 
L 66.335392 156.941758 
L 66.154623 156.941758 
L 66.064238 152.40416 
L 65.973853 152.40416 
L 65.612314 152.40416 
L 64.889236 152.40416 
L 63.443079 152.40416 
L 62.256066 152.40416 
L 62.022726 152.40416 
L 61.964391 171.506889 
L 61.906056 171.506889 
L 61.789386 171.506889 
L 61.322705 171.506889 
L 60.389345 171.506889 
L 58.960718 171.506889 
L 58.246405 171.506889 
L 57.889249 171.506889 
L 57.799959 181.520416 
L 57.71067 181.520416 
L 57.532092 181.520416 
L 55.648667 181.520416 
L 54.636212 181.520416 
L 54.129984 181.520416 
L 53.87687 181.520416 
L 53.750313 181.520416 
L 53.687035 178.54937 
L 53.623756 178.54937 
L 51.048834 178.54937 
L 49.929869 178.54937 
L 49.650127 178.54937 
L 49.580192 178.54937 
L 49.510257 193.074487 
L 49.370386 193.074487 
L 48.810903 193.074487 
L 48.092303 193.074487 
L 46.721403 193.074487 
L 46.035953 193.074487 
L 45.693227 193.074487 
L 45.521865 193.074487 
L 45.436184 193.074487 
L 45.350502 191.225835 
L 43.607372 191.225835 
L 41.98464 191.225835 
L 41.578957 191.225835 
L 41.376116 191.225835 
L 41.274695 191.225835 
L 41.173274 216.182627 
L 40.361909 216.182627 
L 38.272793 216.182627 
L 37.372341 216.182627 
L 37.147228 216.182627 
L 37.090949 220.804255 
L 37.034671 220.804255 
L 36.922115 220.804255 
L 36.471888 220.804255 
L 34.083861 220.804255 
L 33.707675 220.804255 
L 33.157147 220.804255 
L 33.019516 220.804255 
L 32.9507 230.047511 
L 32.881884 230.047511 
L 32.60662 230.047511 
L 31.505565 230.047511 
L 29.056068 230.047511 
L 28.888909 230.047511 
L 28.84712 230.047511 
L 28.80533 202.317743 
L 28.72175 202.317743 
L 28.387433 202.317743 
L 27.718797 202.317743 
L 24.704806 202.317743 
L 24.704806 313.236817 
L 25.189654 306.299999 
L 25.674502 300.055064 
L 26.644197 289.169866 
L 27.396912 281.857202 
L 28.149626 275.30936 
L 29.655055 263.966029 
L 31.137431 254.501071 
L 32.24631 248.251823 
L 33.355188 242.569619 
L 35.25425 233.895419 
L 37.314218 225.672286 
L 39.535779 217.868034 
L 40.240185 215.58351 
L 42.224635 209.562211 
L 45.419828 200.939747 
L 48.008139 194.73206 
L 49.124298 192.233888 
L 51.033833 188.178167 
L 53.550785 183.204348 
L 56.425041 177.968904 
L 56.947387 177.062695 
L 59.283977 173.162103 
L 60.895562 170.60663 
L 63.636518 166.486222 
L 66.361011 162.642616 
L 68.389815 159.926193 
L 69.056984 159.058028 
L 71.659693 155.781709 
L 73.564294 153.488252 
L 77.147456 149.388591 
L 78.660544 147.734821 
L 81.151505 145.103874 
L 83.027542 143.19286 
L 84.162675 142.064241 
L 86.856639 139.464388 
L 87.66767 138.702355 
L 90.824514 135.821434 
L 93.684852 133.320757 
L 94.241317 132.845646 
L 96.798774 130.707241 
L 98.352818 129.442601 
L 101.011703 127.33635 
L 103.758159 125.232592 
L 105.002813 124.301968 
L 107.316426 122.607971 
L 109.236796 121.235866 
L 111.848319 119.416865 
L 112.780551 118.780118 
L 115.830973 116.740669 
L 117.721858 115.508995 
L 118.933917 114.732034 
L 120.9224 113.477869 
L 123.509009 111.883136 
L 126.096154 110.327662 
L 128.077376 109.162056 
L 130.687963 107.658553 
L 132.762015 106.489245 
L 134.217104 105.681727 
L 136.856843 104.242818 
L 138.53069 103.347237 
L 140.343429 102.391564 
L 142.227702 101.413387 
L 143.957453 100.528674 
L 145.521259 99.739446 
L 148.811712 98.110572 
L 150.327898 97.374029 
L 153.487415 95.866443 
L 153.922589 95.661609 
L 157.137133 94.168932 
L 159.307454 93.180878 
L 160.18128 92.78742 
L 162.69441 91.669409 
L 165.672478 90.369877 
L 166.290311 90.103617 
L 168.979296 88.957776 
L 170.505948 88.316437 
L 173.104928 87.239493 
L 175.129108 86.413365 
L 176.609421 85.816025 
L 179.960412 84.484496 
L 181.484414 83.888161 
L 182.793601 83.380376 
L 184.699015 82.64861 
L 187.602154 81.549846 
L 190.585962 80.440273 
L 191.168071 80.226079 
L 192.823356 79.620967 
L 195.482645 78.660897 
L 196.964003 78.132401 
L 200.834863 76.772091 
L 201.650246 76.489273 
L 204.330541 75.568497 
L 206.936262 74.686125 
L 208.250943 74.245608 
L 210.786501 73.404651 
L 211.57417 73.14569 
L 214.887024 72.068089 
L 216.434313 71.571067 
L 217.476291 71.23857 
L 221.149832 70.08021 
L 221.769047 69.887047 
L 224.521049 69.035697 
L 225.876976 68.620447 
L 228.130301 67.936399 
L 230.789245 67.138704 
L 231.983565 66.783681 
L 234.584302 66.017475 
L 237.656394 65.124309 
L 239.079193 64.714925 
L 240.41901 64.331846 
L 242.881045 63.633953 
L 244.190626 63.265878 
L 247.597355 62.31838 
L 248.53154 62.061042 
L 251.274399 61.311523 
L 252.627541 60.945037 
L 256.441492 59.92345 
L 257.701232 59.589647 
L 260.238953 58.922561 
L 261.905548 58.488296 
L 262.7587 58.26715 
L 266.709182 57.253194 
L 267.253382 57.114792 
L 270.462566 56.304789 
L 271.646651 56.008549 
L 273.133909 55.638432 
L 277.037955 54.677152 
L 278.110546 54.415613 
L 281.066363 53.700468 
L 282.19178 53.43031 
L 283.765505 53.054478 
L 285.929987 52.541217 
L 288.767208 51.874734 
L 290.976095 51.360715 
L 291.672772 51.199466 
L 293.848876 50.69845 
L 296.509621 50.091246 
L 299.72439 49.365373 
L 301.670938 48.929907 
L 303.18943 48.592291 
L 304.841525 48.227024 
L 307.845093 47.568362 
L 308.717548 47.378328 
L 311.225575 46.835231 
L 314.038111 46.231741 
L 315.655459 45.887318 
L 318.183469 45.352728 
L 320.038486 44.963334 
L 320.961145 44.770553 
L 324.465212 44.043763 
L 324.660417 44.003522 
L 327.93515 43.332265 
L 329.899857 42.932961 
L 331.588515 42.591783 
L 334.790721 41.949863 
L 335.381599 41.832129 
L 337.245494 41.462188 
L 339.354073 41.046299 
L 341.788901 40.56947 
L 343.317785 40.271902 
L 346.891913 39.581729 
L 349.254827 39.129583 
L 349.311471 39.118784 
L 352.638134 38.48781 
L 354.955184 38.052056 
L 356.838703 37.700051 
L 359.125192 37.275378 
L 361.489704 36.839219 
L 361.745572 36.792203 
L 365.013265 36.194842 
L 367.792062 35.691296 
L 369.529253 35.378543 
L 370.098763 35.276351 
L 373.208354 34.72129 
L 375.181399 34.371634 
L 377.871602 33.898008 
L 378.39498 33.806278 
L 380.375754 33.460331 
L 383.573997 32.905748 
L 385.972879 32.492974 
L 387.912622 32.161181 
L 389.822105 31.83627 
L 390.660576 31.69413 
L 393.55559 31.20582 
L 395.137553 30.940585 
L 397.224456 30.592399 
L 399.799659 30.165393 
L 401.26312 29.92402 
L 404.138309 29.452497 
L 405.64532 29.206762 
L 408.04375 28.817646 
L 409.507855 28.581295 
L 411.737648 28.223043 
L 413.375265 27.961232 
L 416.965864 27.390991 
L 418.364392 27.17028 
L 420.056406 26.904287 
L 422.253605 26.560554 
L 424.909759 26.147521 
L 425.724833 26.021321 
L 427.600261 25.731905 
L 430.137859 25.342418 
L 433.453259 24.83717 
L 434.793127 24.634132 
z
" clip-path="url(#p2a9da05259)" style="fill: #ff0000; opacity: 0.5"/>
   </g>
   <g id="matplotlib.axis_1">
    <g id="xtick_1">
     <g id="line2d_1">
      <defs>
       <path id="me8433f5420" d="M 0 0 
L 0 3.5 
" style="stroke: #000000; stroke-width: 0.8"/>
      </defs>
      <g>
       <use xlink:href="#me8433f5420" x="20.5625" y="313.236817" style="stroke: #000000; stroke-width: 0.8"/>
      </g>
     </g>
    </g>
    <g id="xtick_2">
     <g id="line2d_2">
      <g>
       <use xlink:href="#me8433f5420" x="103.408625" y="313.236817" style="stroke: #000000; stroke-width: 0.8"/>
      </g>
     </g>
     <g id="text_1">
      <!-- 20 -->
      <g transform="translate(97.046125 327.835254) scale(0.1 -0.1)">
       <defs>
        <path id="DejaVuSans-32" d="M 1228 531 
L 3431 531 
L 3431 0 
L 469 0 
L 469 531 
Q 828 903 1448 1529 
Q 2069 2156 2228 2338 
Q 2531 2678 2651 2914 
Q 2772 3150 2772 3378 
Q 2772 3750 2511 3984 
Q 2250 4219 1831 4219 
Q 1534 4219 1204 4116 
Q 875 4013 500 3803 
L 500 4441 
Q 881 4594 1212 4672 
Q 1544 4750 1819 4750 
Q 2544 4750 2975 4387 
Q 3406 4025 3406 3419 
Q 3406 3131 3298 2873 
Q 3191 2616 2906 2266 
Q 2828 2175 2409 1742 
Q 1991 1309 1228 531 
z
" transform="scale(0.015625)"/>
        <path id="DejaVuSans-30" d="M 2034 4250 
Q 1547 4250 1301 3770 
Q 1056 3291 1056 2328 
Q 1056 1369 1301 889 
Q 1547 409 2034 409 
Q 2525 409 2770 889 
Q 3016 1369 3016 2328 
Q 3016 3291 2770 3770 
Q 2525 4250 2034 4250 
z
M 2034 4750 
Q 2819 4750 3233 4129 
Q 3647 3509 3647 2328 
Q 3647 1150 3233 529 
Q 2819 -91 2034 -91 
Q 1250 -91 836 529 
Q 422 1150 422 2328 
Q 422 3509 836 4129 
Q 1250 4750 2034 4750 
z
" transform="scale(0.015625)"/>
       </defs>
       <use xlink:href="#DejaVuSans-32"/>
       <use xlink:href="#DejaVuSans-30" x="63.623047"/>
      </g>
     </g>
    </g>
    <g id="xtick_3">
     <g id="line2d_3">
      <g>
       <use xlink:href="#me8433f5420" x="186.254751" y="313.236817" style="stroke: #000000; stroke-width: 0.8"/>
      </g>
     </g>
     <g id="text_2">
      <!-- 40 -->
      <g transform="translate(179.892251 327.835254) scale(0.1 -0.1)">
       <defs>
        <path id="DejaVuSans-34" d="M 2419 4116 
L 825 1625 
L 2419 1625 
L 2419 4116 
z
M 2253 4666 
L 3047 4666 
L 3047 1625 
L 3713 1625 
L 3713 1100 
L 3047 1100 
L 3047 0 
L 2419 0 
L 2419 1100 
L 313 1100 
L 313 1709 
L 2253 4666 
z
" transform="scale(0.015625)"/>
       </defs>
       <use xlink:href="#DejaVuSans-34"/>
       <use xlink:href="#DejaVuSans-30" x="63.623047"/>
      </g>
     </g>
    </g>
    <g id="xtick_4">
     <g id="line2d_4">
      <g>
       <use xlink:href="#me8433f5420" x="269.100876" y="313.236817" style="stroke: #000000; stroke-width: 0.8"/>
      </g>
     </g>
     <g id="text_3">
      <!-- 60 -->
      <g transform="translate(262.738376 327.835254) scale(0.1 -0.1)">
       <defs>
        <path id="DejaVuSans-36" d="M 2113 2584 
Q 1688 2584 1439 2293 
Q 1191 2003 1191 1497 
Q 1191 994 1439 701 
Q 1688 409 2113 409 
Q 2538 409 2786 701 
Q 3034 994 3034 1497 
Q 3034 2003 2786 2293 
Q 2538 2584 2113 2584 
z
M 3366 4563 
L 3366 3988 
Q 3128 4100 2886 4159 
Q 2644 4219 2406 4219 
Q 1781 4219 1451 3797 
Q 1122 3375 1075 2522 
Q 1259 2794 1537 2939 
Q 1816 3084 2150 3084 
Q 2853 3084 3261 2657 
Q 3669 2231 3669 1497 
Q 3669 778 3244 343 
Q 2819 -91 2113 -91 
Q 1303 -91 875 529 
Q 447 1150 447 2328 
Q 447 3434 972 4092 
Q 1497 4750 2381 4750 
Q 2619 4750 2861 4703 
Q 3103 4656 3366 4563 
z
" transform="scale(0.015625)"/>
       </defs>
       <use xlink:href="#DejaVuSans-36"/>
       <use xlink:href="#DejaVuSans-30" x="63.623047"/>
      </g>
     </g>
    </g>
    <g id="xtick_5">
     <g id="line2d_5">
      <g>
       <use xlink:href="#me8433f5420" x="351.947001" y="313.236817" style="stroke: #000000; stroke-width: 0.8"/>
      </g>
     </g>
     <g id="text_4">
      <!-- 80 -->
      <g transform="translate(345.584501 327.835254) scale(0.1 -0.1)">
       <defs>
        <path id="DejaVuSans-38" d="M 2034 2216 
Q 1584 2216 1326 1975 
Q 1069 1734 1069 1313 
Q 1069 891 1326 650 
Q 1584 409 2034 409 
Q 2484 409 2743 651 
Q 3003 894 3003 1313 
Q 3003 1734 2745 1975 
Q 2488 2216 2034 2216 
z
M 1403 2484 
Q 997 2584 770 2862 
Q 544 3141 544 3541 
Q 544 4100 942 4425 
Q 1341 4750 2034 4750 
Q 2731 4750 3128 4425 
Q 3525 4100 3525 3541 
Q 3525 3141 3298 2862 
Q 3072 2584 2669 2484 
Q 3125 2378 3379 2068 
Q 3634 1759 3634 1313 
Q 3634 634 3220 271 
Q 2806 -91 2034 -91 
Q 1263 -91 848 271 
Q 434 634 434 1313 
Q 434 1759 690 2068 
Q 947 2378 1403 2484 
z
M 1172 3481 
Q 1172 3119 1398 2916 
Q 1625 2713 2034 2713 
Q 2441 2713 2670 2916 
Q 2900 3119 2900 3481 
Q 2900 3844 2670 4047 
Q 2441 4250 2034 4250 
Q 1625 4250 1398 4047 
Q 1172 3844 1172 3481 
z
" transform="scale(0.015625)"/>
       </defs>
       <use xlink:href="#DejaVuSans-38"/>
       <use xlink:href="#DejaVuSans-30" x="63.623047"/>
      </g>
     </g>
    </g>
    <g id="xtick_6">
     <g id="line2d_6">
      <g>
       <use xlink:href="#me8433f5420" x="434.793127" y="313.236817" style="stroke: #000000; stroke-width: 0.8"/>
      </g>
     </g>
     <g id="text_5">
      <!-- 100 -->
      <g transform="translate(425.249377 327.835254) scale(0.1 -0.1)">
       <defs>
        <path id="DejaVuSans-31" d="M 794 531 
L 1825 531 
L 1825 4091 
L 703 3866 
L 703 4441 
L 1819 4666 
L 2450 4666 
L 2450 531 
L 3481 531 
L 3481 0 
L 794 0 
L 794 531 
z
" transform="scale(0.015625)"/>
       </defs>
       <use xlink:href="#DejaVuSans-31"/>
       <use xlink:href="#DejaVuSans-30" x="63.623047"/>
       <use xlink:href="#DejaVuSans-30" x="127.246094"/>
      </g>
     </g>
    </g>
    <g id="xtick_7">
     <g id="line2d_7">
      <defs>
       <path id="me2849c0746" d="M 0 0 
L 0 2 
" style="stroke: #000000; stroke-width: 0.6"/>
      </defs>
      <g>
       <use xlink:href="#me2849c0746" x="41.274031" y="313.236817" style="stroke: #000000; stroke-width: 0.6"/>
      </g>
     </g>
    </g>
    <g id="xtick_8">
     <g id="line2d_8">
      <g>
       <use xlink:href="#me2849c0746" x="61.985563" y="313.236817" style="stroke: #000000; stroke-width: 0.6"/>
      </g>
     </g>
    </g>
    <g id="xtick_9">
     <g id="line2d_9">
      <g>
       <use xlink:href="#me2849c0746" x="82.697094" y="313.236817" style="stroke: #000000; stroke-width: 0.6"/>
      </g>
     </g>
    </g>
    <g id="xtick_10">
     <g id="line2d_10">
      <g>
       <use xlink:href="#me2849c0746" x="124.120157" y="313.236817" style="stroke: #000000; stroke-width: 0.6"/>
      </g>
     </g>
    </g>
    <g id="xtick_11">
     <g id="line2d_11">
      <g>
       <use xlink:href="#me2849c0746" x="144.831688" y="313.236817" style="stroke: #000000; stroke-width: 0.6"/>
      </g>
     </g>
    </g>
    <g id="xtick_12">
     <g id="line2d_12">
      <g>
       <use xlink:href="#me2849c0746" x="165.543219" y="313.236817" style="stroke: #000000; stroke-width: 0.6"/>
      </g>
     </g>
    </g>
    <g id="xtick_13">
     <g id="line2d_13">
      <g>
       <use xlink:href="#me2849c0746" x="206.966282" y="313.236817" style="stroke: #000000; stroke-width: 0.6"/>
      </g>
     </g>
    </g>
    <g id="xtick_14">
     <g id="line2d_14">
      <g>
       <use xlink:href="#me2849c0746" x="227.677813" y="313.236817" style="stroke: #000000; stroke-width: 0.6"/>
      </g>
     </g>
    </g>
    <g id="xtick_15">
     <g id="line2d_15">
      <g>
       <use xlink:href="#me2849c0746" x="248.389345" y="313.236817" style="stroke: #000000; stroke-width: 0.6"/>
      </g>
     </g>
    </g>
    <g id="xtick_16">
     <g id="line2d_16">
      <g>
       <use xlink:href="#me2849c0746" x="289.812407" y="313.236817" style="stroke: #000000; stroke-width: 0.6"/>
      </g>
     </g>
    </g>
    <g id="xtick_17">
     <g id="line2d_17">
      <g>
       <use xlink:href="#me2849c0746" x="310.523939" y="313.236817" style="stroke: #000000; stroke-width: 0.6"/>
      </g>
     </g>
    </g>
    <g id="xtick_18">
     <g id="line2d_18">
      <g>
       <use xlink:href="#me2849c0746" x="331.23547" y="313.236817" style="stroke: #000000; stroke-width: 0.6"/>
      </g>
     </g>
    </g>
    <g id="xtick_19">
     <g id="line2d_19">
      <g>
       <use xlink:href="#me2849c0746" x="372.658533" y="313.236817" style="stroke: #000000; stroke-width: 0.6"/>
      </g>
     </g>
    </g>
    <g id="xtick_20">
     <g id="line2d_20">
      <g>
       <use xlink:href="#me2849c0746" x="393.370064" y="313.236817" style="stroke: #000000; stroke-width: 0.6"/>
      </g>
     </g>
    </g>
    <g id="xtick_21">
     <g id="line2d_21">
      <g>
       <use xlink:href="#me2849c0746" x="414.081595" y="313.236817" style="stroke: #000000; stroke-width: 0.6"/>
      </g>
     </g>
    </g>
   </g>
   <g id="matplotlib.axis_2">
    <g id="ytick_1">
     <g id="line2d_22">
      <defs>
       <path id="m863263d8d3" d="M 0 0 
L -3.5 0 
" style="stroke: #000000; stroke-width: 0.8"/>
      </defs>
      <g>
       <use xlink:href="#m863263d8d3" x="20.5625" y="313.236817" style="stroke: #000000; stroke-width: 0.8"/>
      </g>
     </g>
    </g>
    <g id="ytick_2">
     <g id="line2d_23">
      <g>
       <use xlink:href="#m863263d8d3" x="20.5625" y="257.77728" style="stroke: #000000; stroke-width: 0.8"/>
      </g>
     </g>
     <g id="text_6">
      <!-- 1 -->
      <g transform="translate(7.2 261.576498) scale(0.1 -0.1)">
       <use xlink:href="#DejaVuSans-31"/>
      </g>
     </g>
    </g>
    <g id="ytick_3">
     <g id="line2d_24">
      <g>
       <use xlink:href="#m863263d8d3" x="20.5625" y="202.317743" style="stroke: #000000; stroke-width: 0.8"/>
      </g>
     </g>
     <g id="text_7">
      <!-- 2 -->
      <g transform="translate(7.2 206.116962) scale(0.1 -0.1)">
       <use xlink:href="#DejaVuSans-32"/>
      </g>
     </g>
    </g>
    <g id="ytick_4">
     <g id="line2d_25">
      <g>
       <use xlink:href="#m863263d8d3" x="20.5625" y="146.858206" style="stroke: #000000; stroke-width: 0.8"/>
      </g>
     </g>
     <g id="text_8">
      <!-- 3 -->
      <g transform="translate(7.2 150.657425) scale(0.1 -0.1)">
       <defs>
        <path id="DejaVuSans-33" d="M 2597 2516 
Q 3050 2419 3304 2112 
Q 3559 1806 3559 1356 
Q 3559 666 3084 287 
Q 2609 -91 1734 -91 
Q 1441 -91 1130 -33 
Q 819 25 488 141 
L 488 750 
Q 750 597 1062 519 
Q 1375 441 1716 441 
Q 2309 441 2620 675 
Q 2931 909 2931 1356 
Q 2931 1769 2642 2001 
Q 2353 2234 1838 2234 
L 1294 2234 
L 1294 2753 
L 1863 2753 
Q 2328 2753 2575 2939 
Q 2822 3125 2822 3475 
Q 2822 3834 2567 4026 
Q 2313 4219 1838 4219 
Q 1578 4219 1281 4162 
Q 984 4106 628 3988 
L 628 4550 
Q 988 4650 1302 4700 
Q 1616 4750 1894 4750 
Q 2613 4750 3031 4423 
Q 3450 4097 3450 3541 
Q 3450 3153 3228 2886 
Q 3006 2619 2597 2516 
z
" transform="scale(0.015625)"/>
       </defs>
       <use xlink:href="#DejaVuSans-33"/>
      </g>
     </g>
    </g>
    <g id="ytick_5">
     <g id="line2d_26">
      <g>
       <use xlink:href="#m863263d8d3" x="20.5625" y="91.398669" style="stroke: #000000; stroke-width: 0.8"/>
      </g>
     </g>
     <g id="text_9">
      <!-- 4 -->
      <g transform="translate(7.2 95.197888) scale(0.1 -0.1)">
       <use xlink:href="#DejaVuSans-34"/>
      </g>
     </g>
    </g>
    <g id="ytick_6">
     <g id="line2d_27">
      <g>
       <use xlink:href="#m863263d8d3" x="20.5625" y="35.939132" style="stroke: #000000; stroke-width: 0.8"/>
      </g>
     </g>
     <g id="text_10">
      <!-- 5 -->
      <g transform="translate(7.2 39.738351) scale(0.1 -0.1)">
       <defs>
        <path id="DejaVuSans-35" d="M 691 4666 
L 3169 4666 
L 3169 4134 
L 1269 4134 
L 1269 2991 
Q 1406 3038 1543 3061 
Q 1681 3084 1819 3084 
Q 2600 3084 3056 2656 
Q 3513 2228 3513 1497 
Q 3513 744 3044 326 
Q 2575 -91 1722 -91 
Q 1428 -91 1123 -41 
Q 819 9 494 109 
L 494 744 
Q 775 591 1075 516 
Q 1375 441 1709 441 
Q 2250 441 2565 725 
Q 2881 1009 2881 1497 
Q 2881 1984 2565 2268 
Q 2250 2553 1709 2553 
Q 1456 2553 1204 2497 
Q 953 2441 691 2322 
L 691 4666 
z
" transform="scale(0.015625)"/>
       </defs>
       <use xlink:href="#DejaVuSans-35"/>
      </g>
     </g>
    </g>
    <g id="ytick_7">
     <g id="line2d_28">
      <defs>
       <path id="m84d49d08c3" d="M 0 0 
L -2 0 
" style="stroke: #000000; stroke-width: 0.6"/>
      </defs>
      <g>
       <use xlink:href="#m84d49d08c3" x="20.5625" y="302.144909" style="stroke: #000000; stroke-width: 0.6"/>
      </g>
     </g>
    </g>
    <g id="ytick_8">
     <g id="line2d_29">
      <g>
       <use xlink:href="#m84d49d08c3" x="20.5625" y="291.053002" style="stroke: #000000; stroke-width: 0.6"/>
      </g>
     </g>
    </g>
    <g id="ytick_9">
     <g id="line2d_30">
      <g>
       <use xlink:href="#m84d49d08c3" x="20.5625" y="279.961094" style="stroke: #000000; stroke-width: 0.6"/>
      </g>
     </g>
    </g>
    <g id="ytick_10">
     <g id="line2d_31">
      <g>
       <use xlink:href="#m84d49d08c3" x="20.5625" y="268.869187" style="stroke: #000000; stroke-width: 0.6"/>
      </g>
     </g>
    </g>
    <g id="ytick_11">
     <g id="line2d_32">
      <g>
       <use xlink:href="#m84d49d08c3" x="20.5625" y="246.685372" style="stroke: #000000; stroke-width: 0.6"/>
      </g>
     </g>
    </g>
    <g id="ytick_12">
     <g id="line2d_33">
      <g>
       <use xlink:href="#m84d49d08c3" x="20.5625" y="235.593465" style="stroke: #000000; stroke-width: 0.6"/>
      </g>
     </g>
    </g>
    <g id="ytick_13">
     <g id="line2d_34">
      <g>
       <use xlink:href="#m84d49d08c3" x="20.5625" y="224.501558" style="stroke: #000000; stroke-width: 0.6"/>
      </g>
     </g>
    </g>
    <g id="ytick_14">
     <g id="line2d_35">
      <g>
       <use xlink:href="#m84d49d08c3" x="20.5625" y="213.40965" style="stroke: #000000; stroke-width: 0.6"/>
      </g>
     </g>
    </g>
    <g id="ytick_15">
     <g id="line2d_36">
      <g>
       <use xlink:href="#m84d49d08c3" x="20.5625" y="191.225835" style="stroke: #000000; stroke-width: 0.6"/>
      </g>
     </g>
    </g>
    <g id="ytick_16">
     <g id="line2d_37">
      <g>
       <use xlink:href="#m84d49d08c3" x="20.5625" y="180.133928" style="stroke: #000000; stroke-width: 0.6"/>
      </g>
     </g>
    </g>
    <g id="ytick_17">
     <g id="line2d_38">
      <g>
       <use xlink:href="#m84d49d08c3" x="20.5625" y="169.042021" style="stroke: #000000; stroke-width: 0.6"/>
      </g>
     </g>
    </g>
    <g id="ytick_18">
     <g id="line2d_39">
      <g>
       <use xlink:href="#m84d49d08c3" x="20.5625" y="157.950113" style="stroke: #000000; stroke-width: 0.6"/>
      </g>
     </g>
    </g>
    <g id="ytick_19">
     <g id="line2d_40">
      <g>
       <use xlink:href="#m84d49d08c3" x="20.5625" y="135.766298" style="stroke: #000000; stroke-width: 0.6"/>
      </g>
     </g>
    </g>
    <g id="ytick_20">
     <g id="line2d_41">
      <g>
       <use xlink:href="#m84d49d08c3" x="20.5625" y="124.674391" style="stroke: #000000; stroke-width: 0.6"/>
      </g>
     </g>
    </g>
    <g id="ytick_21">
     <g id="line2d_42">
      <g>
       <use xlink:href="#m84d49d08c3" x="20.5625" y="113.582484" style="stroke: #000000; stroke-width: 0.6"/>
      </g>
     </g>
    </g>
    <g id="ytick_22">
     <g id="line2d_43">
      <g>
       <use xlink:href="#m84d49d08c3" x="20.5625" y="102.490576" style="stroke: #000000; stroke-width: 0.6"/>
      </g>
     </g>
    </g>
    <g id="ytick_23">
     <g id="line2d_44">
      <g>
       <use xlink:href="#m84d49d08c3" x="20.5625" y="80.306762" style="stroke: #000000; stroke-width: 0.6"/>
      </g>
     </g>
    </g>
    <g id="ytick_24">
     <g id="line2d_45">
      <g>
       <use xlink:href="#m84d49d08c3" x="20.5625" y="69.214854" style="stroke: #000000; stroke-width: 0.6"/>
      </g>
     </g>
    </g>
    <g id="ytick_25">
     <g id="line2d_46">
      <g>
       <use xlink:href="#m84d49d08c3" x="20.5625" y="58.122947" style="stroke: #000000; stroke-width: 0.6"/>
      </g>
     </g>
    </g>
    <g id="ytick_26">
     <g id="line2d_47">
      <g>
       <use xlink:href="#m84d49d08c3" x="20.5625" y="47.031039" style="stroke: #000000; stroke-width: 0.6"/>
      </g>
     </g>
    </g>
    <g id="ytick_27">
     <g id="line2d_48">
      <g>
       <use xlink:href="#m84d49d08c3" x="20.5625" y="24.847225" style="stroke: #000000; stroke-width: 0.6"/>
      </g>
     </g>
    </g>
    <g id="ytick_28">
     <g id="line2d_49">
      <g>
       <use xlink:href="#m84d49d08c3" x="20.5625" y="13.755317" style="stroke: #000000; stroke-width: 0.6"/>
      </g>
     </g>
    </g>
   </g>
   <g id="line2d_50">
    <path d="M 24.704806 313.236817 
L 25.674502 300.055064 
L 27.396912 281.857202 
L 28.149626 275.30936 
L 29.655055 263.966029 
L 31.137431 254.501071 
L 33.355188 242.569619 
L 35.25425 233.895419 
L 37.314218 225.672286 
L 40.240185 215.58351 
L 42.224635 209.562211 
L 45.419828 200.939747 
L 49.124298 192.233888 
L 51.033833 188.178167 
L 53.550785 183.204348 
L 56.947387 177.062695 
L 60.895562 170.60663 
L 63.636518 166.486222 
L 68.389815 159.926193 
L 71.659693 155.781709 
L 73.564294 153.488252 
L 78.660544 147.734821 
L 84.162675 142.064241 
L 87.66767 138.702355 
L 94.241317 132.845646 
L 98.352818 129.442601 
L 105.002813 124.301968 
L 111.848319 119.416865 
L 117.721858 115.508995 
L 123.509009 111.883136 
L 130.687963 107.658553 
L 138.53069 103.347237 
L 145.521259 99.739446 
L 153.922589 95.661609 
L 162.69441 91.669409 
L 173.104928 87.239493 
L 182.793601 83.380376 
L 192.823356 79.620967 
L 204.330541 75.568497 
L 216.434313 71.571067 
L 228.130301 67.936399 
L 240.41901 64.331846 
L 252.627541 60.945037 
L 267.253382 57.114792 
L 283.765505 53.054478 
L 299.72439 49.365373 
L 315.655459 45.887318 
L 334.790721 41.949863 
L 352.638134 38.48781 
L 373.208354 34.72129 
L 395.137553 30.940585 
L 418.364392 27.17028 
L 434.793127 24.634132 
L 434.793127 24.634132 
" clip-path="url(#p2a9da05259)" style="fill: none; stroke: #0000ff; stroke-linecap: square"/>
   </g>
   <g id="patch_4">
    <path d="M 20.5625 319.237538 
L 20.5625 7.2 
" style="fill: none; stroke: #000000; stroke-width: 0.8; stroke-linejoin: miter; stroke-linecap: square"/>
   </g>
   <g id="patch_5">
    <path d="M 16.50304 313.236817 
L 442.994893 313.236817 
" style="fill: none; stroke: #000000; stroke-width: 0.8; stroke-linejoin: miter; stroke-linecap: square"/>
   </g>
  </g>
 </g>
 <defs>
  <clipPath id="p2a9da05259">
   <rect x="16.50304" y="7.2" width="426.491853" height="312.037538"/>
  </clipPath>
 </defs>
</svg>
