<?xml version="1.0" encoding="utf-8" standalone="no"?>
<!DOCTYPE svg PUBLIC "-//W3C//DTD SVG 1.1//EN"
  "http://www.w3.org/Graphics/SVG/1.1/DTD/svg11.dtd">
<svg xmlns:xlink="http://www.w3.org/1999/xlink" width="452.502692pt" height="338.4pt" viewBox="0 0 452.502692 338.4" xmlns="http://www.w3.org/2000/svg" version="1.1">
 <metadata>
  <rdf:RDF xmlns:dc="http://purl.org/dc/elements/1.1/" xmlns:cc="http://creativecommons.org/ns#" xmlns:rdf="http://www.w3.org/1999/02/22-rdf-syntax-ns#">
   <cc:Work>
    <dc:type rdf:resource="http://purl.org/dc/dcmitype/StillImage"/>
    <dc:date>2023-05-19T04:05:55.156474</dc:date>
    <dc:format>image/svg+xml</dc:format>
    <dc:creator>
     <cc:Agent>
      <dc:title>Matplotlib v3.7.1, https://matplotlib.org/</dc:title>
     </cc:Agent>
    </dc:creator>
   </cc:Work>
  </rdf:RDF>
 </metadata>
 <defs>
  <style type="text/css">*{stroke-linejoin: round; stroke-linecap: butt}</style>
 </defs>
 <g id="figure_1">
  <g id="patch_1">
   <path d="M 0 338.4 
L 452.502692 338.4 
L 452.502692 0 
L 0 0 
L 0 338.4 
z
" style="fill: none"/>
  </g>
  <g id="axes_1">
   <g id="patch_2">
    <path d="M 7.2 331.2 
L 445.302692 331.2 
L 445.302692 7.2 
L 7.2 7.2 
L 7.2 331.2 
z
" style="fill: none"/>
   </g>
   <g id="patch_3">
    <path d="M 436.877641 13.430769 
L 435.321059 15.726737 
L 432.168467 20.337734 
L 429.950158 23.550868 
L 427.862668 26.550847 
L 426.945715 27.861365 
L 423.234083 33.120828 
L 421.926702 34.956134 
L 420.463238 36.999874 
L 418.3169 39.976848 
L 416.118329 43.001113 
L 413.582898 46.457141 
L 410.518692 50.588754 
L 408.675957 53.049588 
L 406.54492 55.873127 
L 405.734898 56.940101 
L 402.122114 61.656839 
L 401.771301 62.111187 
L 397.734481 67.292753 
L 396.990381 68.238494 
L 394.606816 71.24834 
L 391.523143 75.09785 
L 391.001182 75.744484 
L 388.48179 78.845473 
L 385.591583 82.361706 
L 383.030254 85.441055 
L 381.489479 87.276802 
L 380.361249 88.613095 
L 377.453342 92.026355 
L 374.895995 94.991329 
L 372.857135 97.330493 
L 371.314158 99.086182 
L 369.053115 101.636279 
L 366.977409 103.953638 
L 364.243789 106.970885 
L 363.102371 108.219084 
L 361.047136 110.449286 
L 358.542078 113.137523 
L 355.389723 116.473424 
L 355.084886 116.793235 
L 352.813409 119.160879 
L 350.249929 121.800248 
L 348.109936 123.977088 
L 346.079648 126.020037 
L 343.072009 129.006529 
L 341.008828 131.027653 
L 339.124599 132.853886 
L 337.144549 134.752842 
L 334.638853 137.126315 
L 332.26459 139.34478 
L 330.580862 140.90003 
L 328.269314 143.010873 
L 326.790325 144.346682 
L 324.079132 146.765491 
L 322.772071 147.917763 
L 320.200175 150.15881 
L 318.015868 152.034769 
L 315.372427 154.271442 
L 314.490645 155.009351 
L 312.606053 156.572719 
L 309.353701 159.226722 
L 307.433569 160.767444 
L 305.493686 162.304295 
L 302.508107 164.630864 
L 301.721739 165.235844 
L 298.761486 167.484065 
L 297.150809 168.687936 
L 295.346697 170.020164 
L 292.847461 171.837376 
L 291.706215 172.656243 
L 287.928894 175.31762 
L 286.746621 176.13517 
L 283.849744 178.107262 
L 283.158952 178.571003 
L 279.30301 181.113394 
L 277.243272 182.439382 
L 276.268262 183.059267 
L 274.390809 184.238799 
L 272.795192 185.226671 
L 268.808168 187.636487 
L 267.596234 188.352405 
L 265.315356 189.678793 
L 263.405481 190.768357 
L 260.209553 192.54863 
L 258.428658 193.517326 
L 257.90693 193.79795 
L 255.510887 195.068309 
L 252.97877 196.377953 
L 250.237772 197.757569 
L 247.577518 199.058707 
L 247.275244 199.204192 
L 243.729632 200.874771 
L 242.548516 201.416574 
L 240.045276 202.540575 
L 237.633675 203.592215 
L 236.14479 204.226188 
L 234.402076 204.953412 
L 230.816451 206.399359 
L 229.056347 207.084365 
L 227.426209 207.704236 
L 224.882207 208.643646 
L 222.533507 209.480677 
L 221.602526 209.804419 
L 219.053742 210.667386 
L 217.55897 211.157569 
L 214.902742 211.999594 
L 212.113981 212.843645 
L 210.588381 213.288052 
L 209.215472 213.677501 
L 206.373535 214.452121 
L 203.587738 215.170153 
L 202.525651 215.433141 
L 199.838695 216.071943 
L 197.440676 216.60994 
L 194.54288 217.219651 
L 193.723774 217.383977 
L 190.536423 217.989785 
L 189.263881 218.216706 
L 186.877462 218.619262 
L 184.192591 219.036306 
L 183.635812 219.118038 
L 179.715004 219.64736 
L 179.029559 219.731582 
L 176.759993 219.99279 
L 175.424701 220.133794 
L 171.713407 220.476379 
L 170.28036 220.589248 
L 168.101114 220.740158 
L 165.237441 220.900434 
L 164.340518 220.941752 
L 161.504556 221.044514 
L 158.671045 221.104883 
L 157.627548 221.116461 
L 154.850132 221.119332 
L 153.765612 221.109424 
L 151.616331 221.071484 
L 149.544042 221.011866 
L 147.135729 220.914164 
L 145.084735 220.806872 
L 143.677693 220.720454 
L 139.850417 220.432634 
L 137.533718 220.22093 
L 136.809691 220.148969 
L 134.417357 219.891564 
L 131.994424 219.600142 
L 130.336994 219.382982 
L 127.384974 218.96037 
L 126.295336 218.79278 
L 123.51994 218.337665 
L 122.087821 218.086956 
L 119.579353 217.621788 
L 117.285361 217.16738 
L 115.65824 216.828269 
L 112.069693 216.031085 
L 111.475665 215.89258 
L 108.630122 215.203336 
L 106.590891 214.683163 
L 105.336289 214.352254 
L 101.357579 213.24801 
L 99.508338 212.706395 
L 98.974285 212.546627 
L 96.425451 211.763421 
L 94.72163 211.220789 
L 91.371934 210.109404 
L 89.107061 209.324461 
L 87.49679 208.749953 
L 85.217751 207.913502 
L 82.510239 206.884238 
L 80.791448 206.210804 
L 80.107885 205.938654 
L 77.618829 204.926882 
L 74.630175 203.668917 
L 73.554085 203.204458 
L 71.434998 202.271992 
L 69.252962 201.287112 
L 66.533821 200.024709 
L 64.133386 198.877909 
L 62.101925 197.883675 
L 60.050879 196.857806 
L 58.997816 196.322488 
L 55.394727 194.446703 
L 54.301768 193.864187 
L 52.279138 192.769587 
L 49.673098 191.327495 
L 48.318661 190.563871 
L 46.171394 189.333452 
L 42.966247 187.451674 
L 40.313824 185.853492 
L 38.093268 184.48703 
L 37.389443 184.048498 
L 33.801258 181.772251 
L 33.584314 181.632454 
L 31.429651 180.230546 
L 28.485413 178.275378 
L 26.496708 176.928912 
L 23.8831 175.127675 
L 21.719438 173.609311 
L 20.602494 172.815838 
L 18.756603 171.490122 
L 15.625052 169.2 
L 15.625052 324.969231 
L 16.780129 324.11499 
L 19.30684 322.246354 
L 22.944476 319.556131 
L 23.060589 319.47026 
L 26.717646 316.765674 
L 28.756631 315.257737 
L 30.67854 313.836384 
L 33.60182 311.674465 
L 35.605733 310.192466 
L 36.251174 309.715128 
L 39.684285 307.176162 
L 40.471911 306.593671 
L 43.834252 304.107042 
L 45.191938 303.102962 
L 48.002627 301.024309 
L 49.070942 300.234235 
L 50.913265 298.87174 
L 54.259388 296.397106 
L 56.361789 294.84227 
L 58.566248 293.211956 
L 59.907782 292.219821 
L 62.205464 290.520564 
L 63.816266 289.329291 
L 65.514073 288.073674 
L 68.91849 285.555928 
L 71.62411 283.55498 
L 73.206627 282.384625 
L 74.021913 281.781678 
L 76.78084 279.741306 
L 79.696239 277.585216 
L 80.686773 276.852664 
L 82.921019 275.200321 
L 85.458502 273.323718 
L 87.117202 272.097023 
L 90.673989 269.466592 
L 91.201092 269.076771 
L 94.409361 266.704087 
L 96.61958 265.069514 
L 98.877934 263.399343 
L 100.015657 262.557937 
L 102.869126 260.447646 
L 103.65789 259.864314 
L 106.680461 257.628963 
L 108.602853 256.207253 
L 111.133665 254.335584 
L 113.853821 252.323886 
L 115.856441 250.842843 
L 116.9561 250.029587 
L 120.402171 247.481037 
L 122.38071 246.017803 
L 122.563699 245.882473 
L 125.468886 243.733934 
L 127.395447 242.309141 
L 130.865403 239.742926 
L 131.641651 239.168849 
L 135.04321 236.653217 
L 135.785373 236.104349 
L 139.338769 233.476425 
L 139.462417 233.384981 
L 143.496735 230.401391 
L 144.59074 229.592317 
L 146.208696 228.395753 
L 148.430908 226.75231 
L 150.898907 224.927095 
L 152.369442 223.839557 
L 154.725044 222.097465 
L 157.399878 220.119284 
L 159.994493 218.20043 
L 162.495206 216.351021 
L 164.331611 214.992903 
L 165.082935 214.43726 
L 168.691434 211.768584 
L 170.020591 210.785603 
L 172.061586 209.27618 
L 173.401017 208.2856 
L 176.789128 205.779914 
L 178.146645 204.775959 
L 181.595535 202.225323 
L 181.856183 202.03256 
L 185.326184 199.466312 
L 187.76132 197.6654 
L 190.156793 195.893822 
L 191.001651 195.269005 
L 193.086435 193.727198 
L 195.147787 192.202719 
L 196.704576 191.051391 
L 200.664597 188.122748 
L 201.571641 187.451941 
L 204.479881 185.301144 
L 206.087965 184.111881 
L 208.295324 182.479423 
L 211.056981 180.437033 
L 213.352557 178.739334 
L 214.169166 178.135408 
L 216.561892 176.365861 
L 219.021605 174.546774 
L 220.53084 173.430615 
L 222.228141 172.175372 
L 225.958682 169.416441 
L 228.328251 167.66402 
L 229.140574 167.063264 
L 231.524617 165.300139 
L 233.177709 164.07759 
L 235.112383 162.646797 
L 237.399013 160.955713 
L 240.681644 158.528035 
L 241.970716 157.574698 
L 243.481847 156.457138 
L 246.01324 154.585039 
L 248.487585 152.755131 
L 249.669972 151.880693 
L 252.639975 149.68422 
L 254.964595 147.965041 
L 257.952409 145.755395 
L 258.539846 145.320955 
L 262.007572 142.756389 
L 262.389276 142.474099 
L 265.750715 139.988137 
L 268.468378 137.978283 
L 269.503517 137.212743 
L 272.689608 134.856461 
L 274.798503 133.296822 
L 275.388633 132.86039 
L 277.554241 131.258809 
L 281.080473 128.650975 
L 283.227262 127.063311 
L 283.559036 126.817947 
L 286.941703 124.316287 
L 288.806699 122.937024 
L 291.391409 121.025495 
L 293.227133 119.66788 
L 294.609848 118.64529 
L 296.816752 117.013168 
L 298.339061 115.887341 
L 300.654983 114.174594 
L 304.465113 111.356803 
L 305.578979 110.53304 
L 307.337037 109.232864 
L 309.364324 107.733578 
L 311.981535 105.798013 
L 313.0545 105.004499 
L 315.245489 103.384147 
L 319.170876 100.481117 
L 320.94905 99.166064 
L 323.207175 97.496061 
L 324.742488 96.360617 
L 326.93969 94.73567 
L 329.563657 92.795108 
L 332.041532 90.96259 
L 332.845691 90.367872 
L 335.860066 88.138582 
L 337.580466 86.866256 
L 339.314275 85.584014 
L 342.538661 83.19941 
L 343.032964 82.833847 
L 346.390124 80.35105 
L 347.627573 79.435891 
L 350.469805 77.333911 
L 352.065481 76.153825 
L 354.745253 74.171993 
L 355.692806 73.471227 
L 358.435296 71.443012 
L 359.963695 70.31268 
L 363.14295 67.961454 
L 364.143064 67.221817 
L 367.526907 64.719287 
L 370.144122 62.783718 
L 371.987647 61.420335 
L 373.559496 60.25787 
L 376.179661 58.32012 
L 378.169501 56.848528 
L 378.957475 56.26578 
L 381.388382 54.467996 
L 383.796497 52.687069 
L 386.826276 50.446388 
L 387.424963 50.003627 
L 389.31106 48.608759 
L 392.525303 46.231657 
L 395.156212 44.285962 
L 395.698507 43.884906 
L 397.964863 42.208816 
L 401.204568 39.812884 
L 402.449216 38.892401 
L 404.949343 37.043425 
L 407.983007 34.799872 
L 410.286255 33.096498 
L 411.550398 32.161598 
L 413.809841 30.490621 
L 415.990028 28.878258 
L 416.775191 28.297589 
L 419.362381 26.384225 
L 421.439792 24.847871 
L 424.088708 22.888858 
L 426.300999 21.252752 
L 428.149278 19.885853 
L 429.547502 18.851792 
L 432.968182 16.32202 
L 434.047035 15.524151 
z
" clip-path="url(#p74c6b219dc)" style="fill: #b2b3ff; opacity: 0.5"/>
   </g>
   <g id="matplotlib.axis_1">
    <g id="xtick_1">
     <g id="line2d_1">
      <defs>
       <path id="m5e7472a467" d="M 0 0 
L 0 3.5 
" style="stroke: #000000; stroke-width: 0.8"/>
      </defs>
      <g>
       <use xlink:href="#m5e7472a467" x="43.708558" y="221.123077" style="stroke: #000000; stroke-width: 0.8"/>
      </g>
     </g>
     <g id="text_1">
      <!-- −0.4 -->
      <g transform="translate(31.567151 235.721514) scale(0.1 -0.1)">
       <defs>
        <path id="DejaVuSans-2212" d="M 678 2272 
L 4684 2272 
L 4684 1741 
L 678 1741 
L 678 2272 
z
" transform="scale(0.015625)"/>
        <path id="DejaVuSans-30" d="M 2034 4250 
Q 1547 4250 1301 3770 
Q 1056 3291 1056 2328 
Q 1056 1369 1301 889 
Q 1547 409 2034 409 
Q 2525 409 2770 889 
Q 3016 1369 3016 2328 
Q 3016 3291 2770 3770 
Q 2525 4250 2034 4250 
z
M 2034 4750 
Q 2819 4750 3233 4129 
Q 3647 3509 3647 2328 
Q 3647 1150 3233 529 
Q 2819 -91 2034 -91 
Q 1250 -91 836 529 
Q 422 1150 422 2328 
Q 422 3509 836 4129 
Q 1250 4750 2034 4750 
z
" transform="scale(0.015625)"/>
        <path id="DejaVuSans-2e" d="M 684 794 
L 1344 794 
L 1344 0 
L 684 0 
L 684 794 
z
" transform="scale(0.015625)"/>
        <path id="DejaVuSans-34" d="M 2419 4116 
L 825 1625 
L 2419 1625 
L 2419 4116 
z
M 2253 4666 
L 3047 4666 
L 3047 1625 
L 3713 1625 
L 3713 1100 
L 3047 1100 
L 3047 0 
L 2419 0 
L 2419 1100 
L 313 1100 
L 313 1709 
L 2253 4666 
z
" transform="scale(0.015625)"/>
       </defs>
       <use xlink:href="#DejaVuSans-2212"/>
       <use xlink:href="#DejaVuSans-30" x="83.789062"/>
       <use xlink:href="#DejaVuSans-2e" x="147.412109"/>
       <use xlink:href="#DejaVuSans-34" x="179.199219"/>
      </g>
     </g>
    </g>
    <g id="xtick_2">
     <g id="line2d_2">
      <g>
       <use xlink:href="#m5e7472a467" x="99.87557" y="221.123077" style="stroke: #000000; stroke-width: 0.8"/>
      </g>
     </g>
     <g id="text_2">
      <!-- −0.2 -->
      <g transform="translate(87.734163 235.721514) scale(0.1 -0.1)">
       <defs>
        <path id="DejaVuSans-32" d="M 1228 531 
L 3431 531 
L 3431 0 
L 469 0 
L 469 531 
Q 828 903 1448 1529 
Q 2069 2156 2228 2338 
Q 2531 2678 2651 2914 
Q 2772 3150 2772 3378 
Q 2772 3750 2511 3984 
Q 2250 4219 1831 4219 
Q 1534 4219 1204 4116 
Q 875 4013 500 3803 
L 500 4441 
Q 881 4594 1212 4672 
Q 1544 4750 1819 4750 
Q 2544 4750 2975 4387 
Q 3406 4025 3406 3419 
Q 3406 3131 3298 2873 
Q 3191 2616 2906 2266 
Q 2828 2175 2409 1742 
Q 1991 1309 1228 531 
z
" transform="scale(0.015625)"/>
       </defs>
       <use xlink:href="#DejaVuSans-2212"/>
       <use xlink:href="#DejaVuSans-30" x="83.789062"/>
       <use xlink:href="#DejaVuSans-2e" x="147.412109"/>
       <use xlink:href="#DejaVuSans-32" x="179.199219"/>
      </g>
     </g>
    </g>
    <g id="xtick_3">
     <g id="line2d_3">
      <g>
       <use xlink:href="#m5e7472a467" x="156.042581" y="221.123077" style="stroke: #000000; stroke-width: 0.8"/>
      </g>
     </g>
    </g>
    <g id="xtick_4">
     <g id="line2d_4">
      <g>
       <use xlink:href="#m5e7472a467" x="212.209593" y="221.123077" style="stroke: #000000; stroke-width: 0.8"/>
      </g>
     </g>
     <g id="text_3">
      <!-- 0.2 -->
      <g transform="translate(204.258031 235.721514) scale(0.1 -0.1)">
       <use xlink:href="#DejaVuSans-30"/>
       <use xlink:href="#DejaVuSans-2e" x="63.623047"/>
       <use xlink:href="#DejaVuSans-32" x="95.410156"/>
      </g>
     </g>
    </g>
    <g id="xtick_5">
     <g id="line2d_5">
      <g>
       <use xlink:href="#m5e7472a467" x="268.376605" y="221.123077" style="stroke: #000000; stroke-width: 0.8"/>
      </g>
     </g>
     <g id="text_4">
      <!-- 0.4 -->
      <g transform="translate(260.425043 235.721514) scale(0.1 -0.1)">
       <use xlink:href="#DejaVuSans-30"/>
       <use xlink:href="#DejaVuSans-2e" x="63.623047"/>
       <use xlink:href="#DejaVuSans-34" x="95.410156"/>
      </g>
     </g>
    </g>
    <g id="xtick_6">
     <g id="line2d_6">
      <g>
       <use xlink:href="#m5e7472a467" x="324.543617" y="221.123077" style="stroke: #000000; stroke-width: 0.8"/>
      </g>
     </g>
     <g id="text_5">
      <!-- 0.6 -->
      <g transform="translate(316.592054 235.721514) scale(0.1 -0.1)">
       <defs>
        <path id="DejaVuSans-36" d="M 2113 2584 
Q 1688 2584 1439 2293 
Q 1191 2003 1191 1497 
Q 1191 994 1439 701 
Q 1688 409 2113 409 
Q 2538 409 2786 701 
Q 3034 994 3034 1497 
Q 3034 2003 2786 2293 
Q 2538 2584 2113 2584 
z
M 3366 4563 
L 3366 3988 
Q 3128 4100 2886 4159 
Q 2644 4219 2406 4219 
Q 1781 4219 1451 3797 
Q 1122 3375 1075 2522 
Q 1259 2794 1537 2939 
Q 1816 3084 2150 3084 
Q 2853 3084 3261 2657 
Q 3669 2231 3669 1497 
Q 3669 778 3244 343 
Q 2819 -91 2113 -91 
Q 1303 -91 875 529 
Q 447 1150 447 2328 
Q 447 3434 972 4092 
Q 1497 4750 2381 4750 
Q 2619 4750 2861 4703 
Q 3103 4656 3366 4563 
z
" transform="scale(0.015625)"/>
       </defs>
       <use xlink:href="#DejaVuSans-30"/>
       <use xlink:href="#DejaVuSans-2e" x="63.623047"/>
       <use xlink:href="#DejaVuSans-36" x="95.410156"/>
      </g>
     </g>
    </g>
    <g id="xtick_7">
     <g id="line2d_7">
      <g>
       <use xlink:href="#m5e7472a467" x="380.710629" y="221.123077" style="stroke: #000000; stroke-width: 0.8"/>
      </g>
     </g>
     <g id="text_6">
      <!-- 0.8 -->
      <g transform="translate(372.759066 235.721514) scale(0.1 -0.1)">
       <defs>
        <path id="DejaVuSans-38" d="M 2034 2216 
Q 1584 2216 1326 1975 
Q 1069 1734 1069 1313 
Q 1069 891 1326 650 
Q 1584 409 2034 409 
Q 2484 409 2743 651 
Q 3003 894 3003 1313 
Q 3003 1734 2745 1975 
Q 2488 2216 2034 2216 
z
M 1403 2484 
Q 997 2584 770 2862 
Q 544 3141 544 3541 
Q 544 4100 942 4425 
Q 1341 4750 2034 4750 
Q 2731 4750 3128 4425 
Q 3525 4100 3525 3541 
Q 3525 3141 3298 2862 
Q 3072 2584 2669 2484 
Q 3125 2378 3379 2068 
Q 3634 1759 3634 1313 
Q 3634 634 3220 271 
Q 2806 -91 2034 -91 
Q 1263 -91 848 271 
Q 434 634 434 1313 
Q 434 1759 690 2068 
Q 947 2378 1403 2484 
z
M 1172 3481 
Q 1172 3119 1398 2916 
Q 1625 2713 2034 2713 
Q 2441 2713 2670 2916 
Q 2900 3119 2900 3481 
Q 2900 3844 2670 4047 
Q 2441 4250 2034 4250 
Q 1625 4250 1398 4047 
Q 1172 3844 1172 3481 
z
" transform="scale(0.015625)"/>
       </defs>
       <use xlink:href="#DejaVuSans-30"/>
       <use xlink:href="#DejaVuSans-2e" x="63.623047"/>
       <use xlink:href="#DejaVuSans-38" x="95.410156"/>
      </g>
     </g>
    </g>
    <g id="xtick_8">
     <g id="line2d_8">
      <g>
       <use xlink:href="#m5e7472a467" x="436.877641" y="221.123077" style="stroke: #000000; stroke-width: 0.8"/>
      </g>
     </g>
     <g id="text_7">
      <!-- 1.0 -->
      <g transform="translate(428.926078 235.721514) scale(0.1 -0.1)">
       <defs>
        <path id="DejaVuSans-31" d="M 794 531 
L 1825 531 
L 1825 4091 
L 703 3866 
L 703 4441 
L 1819 4666 
L 2450 4666 
L 2450 531 
L 3481 531 
L 3481 0 
L 794 0 
L 794 531 
z
" transform="scale(0.015625)"/>
       </defs>
       <use xlink:href="#DejaVuSans-31"/>
       <use xlink:href="#DejaVuSans-2e" x="63.623047"/>
       <use xlink:href="#DejaVuSans-30" x="95.410156"/>
      </g>
     </g>
    </g>
    <g id="xtick_9">
     <g id="line2d_9">
      <defs>
       <path id="ma83ac2f75d" d="M 0 0 
L 0 2 
" style="stroke: #000000; stroke-width: 0.6"/>
      </defs>
      <g>
       <use xlink:href="#ma83ac2f75d" x="15.625052" y="221.123077" style="stroke: #000000; stroke-width: 0.6"/>
      </g>
     </g>
    </g>
    <g id="xtick_10">
     <g id="line2d_10">
      <g>
       <use xlink:href="#ma83ac2f75d" x="29.666805" y="221.123077" style="stroke: #000000; stroke-width: 0.6"/>
      </g>
     </g>
    </g>
    <g id="xtick_11">
     <g id="line2d_11">
      <g>
       <use xlink:href="#ma83ac2f75d" x="57.750311" y="221.123077" style="stroke: #000000; stroke-width: 0.6"/>
      </g>
     </g>
    </g>
    <g id="xtick_12">
     <g id="line2d_12">
      <g>
       <use xlink:href="#ma83ac2f75d" x="71.792064" y="221.123077" style="stroke: #000000; stroke-width: 0.6"/>
      </g>
     </g>
    </g>
    <g id="xtick_13">
     <g id="line2d_13">
      <g>
       <use xlink:href="#ma83ac2f75d" x="85.833817" y="221.123077" style="stroke: #000000; stroke-width: 0.6"/>
      </g>
     </g>
    </g>
    <g id="xtick_14">
     <g id="line2d_14">
      <g>
       <use xlink:href="#ma83ac2f75d" x="113.917322" y="221.123077" style="stroke: #000000; stroke-width: 0.6"/>
      </g>
     </g>
    </g>
    <g id="xtick_15">
     <g id="line2d_15">
      <g>
       <use xlink:href="#ma83ac2f75d" x="127.959075" y="221.123077" style="stroke: #000000; stroke-width: 0.6"/>
      </g>
     </g>
    </g>
    <g id="xtick_16">
     <g id="line2d_16">
      <g>
       <use xlink:href="#ma83ac2f75d" x="142.000828" y="221.123077" style="stroke: #000000; stroke-width: 0.6"/>
      </g>
     </g>
    </g>
    <g id="xtick_17">
     <g id="line2d_17">
      <g>
       <use xlink:href="#ma83ac2f75d" x="170.084334" y="221.123077" style="stroke: #000000; stroke-width: 0.6"/>
      </g>
     </g>
    </g>
    <g id="xtick_18">
     <g id="line2d_18">
      <g>
       <use xlink:href="#ma83ac2f75d" x="184.126087" y="221.123077" style="stroke: #000000; stroke-width: 0.6"/>
      </g>
     </g>
    </g>
    <g id="xtick_19">
     <g id="line2d_19">
      <g>
       <use xlink:href="#ma83ac2f75d" x="198.16784" y="221.123077" style="stroke: #000000; stroke-width: 0.6"/>
      </g>
     </g>
    </g>
    <g id="xtick_20">
     <g id="line2d_20">
      <g>
       <use xlink:href="#ma83ac2f75d" x="226.251346" y="221.123077" style="stroke: #000000; stroke-width: 0.6"/>
      </g>
     </g>
    </g>
    <g id="xtick_21">
     <g id="line2d_21">
      <g>
       <use xlink:href="#ma83ac2f75d" x="240.293099" y="221.123077" style="stroke: #000000; stroke-width: 0.6"/>
      </g>
     </g>
    </g>
    <g id="xtick_22">
     <g id="line2d_22">
      <g>
       <use xlink:href="#ma83ac2f75d" x="254.334852" y="221.123077" style="stroke: #000000; stroke-width: 0.6"/>
      </g>
     </g>
    </g>
    <g id="xtick_23">
     <g id="line2d_23">
      <g>
       <use xlink:href="#ma83ac2f75d" x="282.418358" y="221.123077" style="stroke: #000000; stroke-width: 0.6"/>
      </g>
     </g>
    </g>
    <g id="xtick_24">
     <g id="line2d_24">
      <g>
       <use xlink:href="#ma83ac2f75d" x="296.460111" y="221.123077" style="stroke: #000000; stroke-width: 0.6"/>
      </g>
     </g>
    </g>
    <g id="xtick_25">
     <g id="line2d_25">
      <g>
       <use xlink:href="#ma83ac2f75d" x="310.501864" y="221.123077" style="stroke: #000000; stroke-width: 0.6"/>
      </g>
     </g>
    </g>
    <g id="xtick_26">
     <g id="line2d_26">
      <g>
       <use xlink:href="#ma83ac2f75d" x="338.58537" y="221.123077" style="stroke: #000000; stroke-width: 0.6"/>
      </g>
     </g>
    </g>
    <g id="xtick_27">
     <g id="line2d_27">
      <g>
       <use xlink:href="#ma83ac2f75d" x="352.627123" y="221.123077" style="stroke: #000000; stroke-width: 0.6"/>
      </g>
     </g>
    </g>
    <g id="xtick_28">
     <g id="line2d_28">
      <g>
       <use xlink:href="#ma83ac2f75d" x="366.668876" y="221.123077" style="stroke: #000000; stroke-width: 0.6"/>
      </g>
     </g>
    </g>
    <g id="xtick_29">
     <g id="line2d_29">
      <g>
       <use xlink:href="#ma83ac2f75d" x="394.752382" y="221.123077" style="stroke: #000000; stroke-width: 0.6"/>
      </g>
     </g>
    </g>
    <g id="xtick_30">
     <g id="line2d_30">
      <g>
       <use xlink:href="#ma83ac2f75d" x="408.794135" y="221.123077" style="stroke: #000000; stroke-width: 0.6"/>
      </g>
     </g>
    </g>
    <g id="xtick_31">
     <g id="line2d_31">
      <g>
       <use xlink:href="#ma83ac2f75d" x="422.835888" y="221.123077" style="stroke: #000000; stroke-width: 0.6"/>
      </g>
     </g>
    </g>
   </g>
   <g id="matplotlib.axis_2">
    <g id="ytick_1">
     <g id="line2d_32">
      <defs>
       <path id="m199cc3820e" d="M 0 0 
L -3.5 0 
" style="stroke: #000000; stroke-width: 0.8"/>
      </defs>
      <g>
       <use xlink:href="#m199cc3820e" x="156.042581" y="304.2" style="stroke: #000000; stroke-width: 0.8"/>
      </g>
     </g>
     <g id="text_8">
      <!-- −0.4 -->
      <g transform="translate(124.759769 307.999219) scale(0.1 -0.1)">
       <use xlink:href="#DejaVuSans-2212"/>
       <use xlink:href="#DejaVuSans-30" x="83.789062"/>
       <use xlink:href="#DejaVuSans-2e" x="147.412109"/>
       <use xlink:href="#DejaVuSans-34" x="179.199219"/>
      </g>
     </g>
    </g>
    <g id="ytick_2">
     <g id="line2d_33">
      <g>
       <use xlink:href="#m199cc3820e" x="156.042581" y="262.661538" style="stroke: #000000; stroke-width: 0.8"/>
      </g>
     </g>
     <g id="text_9">
      <!-- −0.2 -->
      <g transform="translate(124.759769 266.460757) scale(0.1 -0.1)">
       <use xlink:href="#DejaVuSans-2212"/>
       <use xlink:href="#DejaVuSans-30" x="83.789062"/>
       <use xlink:href="#DejaVuSans-2e" x="147.412109"/>
       <use xlink:href="#DejaVuSans-32" x="179.199219"/>
      </g>
     </g>
    </g>
    <g id="ytick_3">
     <g id="line2d_34">
      <g>
       <use xlink:href="#m199cc3820e" x="156.042581" y="221.123077" style="stroke: #000000; stroke-width: 0.8"/>
      </g>
     </g>
    </g>
    <g id="ytick_4">
     <g id="line2d_35">
      <g>
       <use xlink:href="#m199cc3820e" x="156.042581" y="179.584615" style="stroke: #000000; stroke-width: 0.8"/>
      </g>
     </g>
     <g id="text_10">
      <!-- 0.2 -->
      <g transform="translate(133.139456 183.383834) scale(0.1 -0.1)">
       <use xlink:href="#DejaVuSans-30"/>
       <use xlink:href="#DejaVuSans-2e" x="63.623047"/>
       <use xlink:href="#DejaVuSans-32" x="95.410156"/>
      </g>
     </g>
    </g>
    <g id="ytick_5">
     <g id="line2d_36">
      <g>
       <use xlink:href="#m199cc3820e" x="156.042581" y="138.046154" style="stroke: #000000; stroke-width: 0.8"/>
      </g>
     </g>
     <g id="text_11">
      <!-- 0.4 -->
      <g transform="translate(133.139456 141.845373) scale(0.1 -0.1)">
       <use xlink:href="#DejaVuSans-30"/>
       <use xlink:href="#DejaVuSans-2e" x="63.623047"/>
       <use xlink:href="#DejaVuSans-34" x="95.410156"/>
      </g>
     </g>
    </g>
    <g id="ytick_6">
     <g id="line2d_37">
      <g>
       <use xlink:href="#m199cc3820e" x="156.042581" y="96.507692" style="stroke: #000000; stroke-width: 0.8"/>
      </g>
     </g>
     <g id="text_12">
      <!-- 0.6 -->
      <g transform="translate(133.139456 100.306911) scale(0.1 -0.1)">
       <use xlink:href="#DejaVuSans-30"/>
       <use xlink:href="#DejaVuSans-2e" x="63.623047"/>
       <use xlink:href="#DejaVuSans-36" x="95.410156"/>
      </g>
     </g>
    </g>
    <g id="ytick_7">
     <g id="line2d_38">
      <g>
       <use xlink:href="#m199cc3820e" x="156.042581" y="54.969231" style="stroke: #000000; stroke-width: 0.8"/>
      </g>
     </g>
     <g id="text_13">
      <!-- 0.8 -->
      <g transform="translate(133.139456 58.76845) scale(0.1 -0.1)">
       <use xlink:href="#DejaVuSans-30"/>
       <use xlink:href="#DejaVuSans-2e" x="63.623047"/>
       <use xlink:href="#DejaVuSans-38" x="95.410156"/>
      </g>
     </g>
    </g>
    <g id="ytick_8">
     <g id="line2d_39">
      <g>
       <use xlink:href="#m199cc3820e" x="156.042581" y="13.430769" style="stroke: #000000; stroke-width: 0.8"/>
      </g>
     </g>
     <g id="text_14">
      <!-- 1.0 -->
      <g transform="translate(133.139456 17.229988) scale(0.1 -0.1)">
       <use xlink:href="#DejaVuSans-31"/>
       <use xlink:href="#DejaVuSans-2e" x="63.623047"/>
       <use xlink:href="#DejaVuSans-30" x="95.410156"/>
      </g>
     </g>
    </g>
    <g id="ytick_9">
     <g id="line2d_40">
      <defs>
       <path id="m9b3a33c55f" d="M 0 0 
L -2 0 
" style="stroke: #000000; stroke-width: 0.6"/>
      </defs>
      <g>
       <use xlink:href="#m9b3a33c55f" x="156.042581" y="324.969231" style="stroke: #000000; stroke-width: 0.6"/>
      </g>
     </g>
    </g>
    <g id="ytick_10">
     <g id="line2d_41">
      <g>
       <use xlink:href="#m9b3a33c55f" x="156.042581" y="314.584615" style="stroke: #000000; stroke-width: 0.6"/>
      </g>
     </g>
    </g>
    <g id="ytick_11">
     <g id="line2d_42">
      <g>
       <use xlink:href="#m9b3a33c55f" x="156.042581" y="293.815385" style="stroke: #000000; stroke-width: 0.6"/>
      </g>
     </g>
    </g>
    <g id="ytick_12">
     <g id="line2d_43">
      <g>
       <use xlink:href="#m9b3a33c55f" x="156.042581" y="283.430769" style="stroke: #000000; stroke-width: 0.6"/>
      </g>
     </g>
    </g>
    <g id="ytick_13">
     <g id="line2d_44">
      <g>
       <use xlink:href="#m9b3a33c55f" x="156.042581" y="273.046154" style="stroke: #000000; stroke-width: 0.6"/>
      </g>
     </g>
    </g>
    <g id="ytick_14">
     <g id="line2d_45">
      <g>
       <use xlink:href="#m9b3a33c55f" x="156.042581" y="252.276923" style="stroke: #000000; stroke-width: 0.6"/>
      </g>
     </g>
    </g>
    <g id="ytick_15">
     <g id="line2d_46">
      <g>
       <use xlink:href="#m9b3a33c55f" x="156.042581" y="241.892308" style="stroke: #000000; stroke-width: 0.6"/>
      </g>
     </g>
    </g>
    <g id="ytick_16">
     <g id="line2d_47">
      <g>
       <use xlink:href="#m9b3a33c55f" x="156.042581" y="231.507692" style="stroke: #000000; stroke-width: 0.6"/>
      </g>
     </g>
    </g>
    <g id="ytick_17">
     <g id="line2d_48">
      <g>
       <use xlink:href="#m9b3a33c55f" x="156.042581" y="210.738462" style="stroke: #000000; stroke-width: 0.6"/>
      </g>
     </g>
    </g>
    <g id="ytick_18">
     <g id="line2d_49">
      <g>
       <use xlink:href="#m9b3a33c55f" x="156.042581" y="200.353846" style="stroke: #000000; stroke-width: 0.6"/>
      </g>
     </g>
    </g>
    <g id="ytick_19">
     <g id="line2d_50">
      <g>
       <use xlink:href="#m9b3a33c55f" x="156.042581" y="189.969231" style="stroke: #000000; stroke-width: 0.6"/>
      </g>
     </g>
    </g>
    <g id="ytick_20">
     <g id="line2d_51">
      <g>
       <use xlink:href="#m9b3a33c55f" x="156.042581" y="169.2" style="stroke: #000000; stroke-width: 0.6"/>
      </g>
     </g>
    </g>
    <g id="ytick_21">
     <g id="line2d_52">
      <g>
       <use xlink:href="#m9b3a33c55f" x="156.042581" y="158.815385" style="stroke: #000000; stroke-width: 0.6"/>
      </g>
     </g>
    </g>
    <g id="ytick_22">
     <g id="line2d_53">
      <g>
       <use xlink:href="#m9b3a33c55f" x="156.042581" y="148.430769" style="stroke: #000000; stroke-width: 0.6"/>
      </g>
     </g>
    </g>
    <g id="ytick_23">
     <g id="line2d_54">
      <g>
       <use xlink:href="#m9b3a33c55f" x="156.042581" y="127.661538" style="stroke: #000000; stroke-width: 0.6"/>
      </g>
     </g>
    </g>
    <g id="ytick_24">
     <g id="line2d_55">
      <g>
       <use xlink:href="#m9b3a33c55f" x="156.042581" y="117.276923" style="stroke: #000000; stroke-width: 0.6"/>
      </g>
     </g>
    </g>
    <g id="ytick_25">
     <g id="line2d_56">
      <g>
       <use xlink:href="#m9b3a33c55f" x="156.042581" y="106.892308" style="stroke: #000000; stroke-width: 0.6"/>
      </g>
     </g>
    </g>
    <g id="ytick_26">
     <g id="line2d_57">
      <g>
       <use xlink:href="#m9b3a33c55f" x="156.042581" y="86.123077" style="stroke: #000000; stroke-width: 0.6"/>
      </g>
     </g>
    </g>
    <g id="ytick_27">
     <g id="line2d_58">
      <g>
       <use xlink:href="#m9b3a33c55f" x="156.042581" y="75.738462" style="stroke: #000000; stroke-width: 0.6"/>
      </g>
     </g>
    </g>
    <g id="ytick_28">
     <g id="line2d_59">
      <g>
       <use xlink:href="#m9b3a33c55f" x="156.042581" y="65.353846" style="stroke: #000000; stroke-width: 0.6"/>
      </g>
     </g>
    </g>
    <g id="ytick_29">
     <g id="line2d_60">
      <g>
       <use xlink:href="#m9b3a33c55f" x="156.042581" y="44.584615" style="stroke: #000000; stroke-width: 0.6"/>
      </g>
     </g>
    </g>
    <g id="ytick_30">
     <g id="line2d_61">
      <g>
       <use xlink:href="#m9b3a33c55f" x="156.042581" y="34.2" style="stroke: #000000; stroke-width: 0.6"/>
      </g>
     </g>
    </g>
    <g id="ytick_31">
     <g id="line2d_62">
      <g>
       <use xlink:href="#m9b3a33c55f" x="156.042581" y="23.815385" style="stroke: #000000; stroke-width: 0.6"/>
      </g>
     </g>
    </g>
   </g>
   <g id="line2d_63">
    <path d="M 15.625052 324.969231 
L 436.877641 13.430769 
L 436.877641 13.430769 
" clip-path="url(#p74c6b219dc)" style="fill: none; stroke: #0000cc; stroke-linecap: square"/>
   </g>
   <g id="line2d_64">
    <path d="M 15.625052 169.2 
L 22.432461 174.112403 
L 29.665368 179.064428 
L 37.231217 183.949553 
L 45.193208 188.764885 
L 50.964427 192.046543 
L 58.989433 196.318203 
L 66.35036 199.938133 
L 74.623554 203.666078 
L 81.843276 206.624765 
L 88.785722 209.210906 
L 95.137134 211.354528 
L 99.810752 212.796199 
L 107.379938 214.887033 
L 112.717875 216.180095 
L 119.877666 217.678843 
L 126.904013 218.887168 
L 134.341809 219.882944 
L 139.624966 220.413274 
L 146.59375 220.887965 
L 152.180317 221.083794 
L 159.032217 221.09954 
L 165.132139 220.905505 
L 172.592082 220.401824 
L 180.068148 219.603002 
L 186.942372 218.608709 
L 193.305374 217.466552 
L 199.751063 216.092136 
L 206.609878 214.389323 
L 213.697046 212.369538 
L 221.096662 209.978416 
L 227.346873 207.734047 
L 233.897145 205.161128 
L 241.633927 201.831067 
L 250.135542 197.808259 
L 257.470905 194.031377 
L 265.419001 189.619115 
L 273.284865 184.924933 
L 281.896457 179.412043 
L 288.509097 174.913713 
L 297.081687 168.739295 
L 303.535411 163.835615 
L 310.262028 158.491111 
L 315.806363 153.906804 
L 323.968465 146.863401 
L 330.098607 141.342736 
L 339.356469 132.630162 
L 348.081553 124.005797 
L 355.083382 116.794813 
L 362.477752 108.899231 
L 369.836121 100.75622 
L 376.702016 92.901012 
L 384.86159 83.242858 
L 392.506618 73.875566 
L 400.472945 63.787089 
L 409.496114 51.956539 
L 418.215351 40.117094 
L 426.831969 28.023623 
L 435.080195 16.080872 
L 436.877641 13.430769 
L 436.877641 13.430769 
" clip-path="url(#p74c6b219dc)" style="fill: none; stroke: #3ccc00; stroke-linecap: square"/>
   </g>
   <g id="patch_4">
    <path d="M 156.042581 331.2 
L 156.042581 7.2 
" style="fill: none; stroke: #000000; stroke-width: 0.8; stroke-linejoin: miter; stroke-linecap: square"/>
   </g>
   <g id="patch_5">
    <path d="M 7.2 221.123077 
L 445.302692 221.123077 
" style="fill: none; stroke: #000000; stroke-width: 0.8; stroke-linejoin: miter; stroke-linecap: square"/>
   </g>
  </g>
 </g>
 <defs>
  <clipPath id="p74c6b219dc">
   <rect x="7.2" y="7.2" width="438.102692" height="324"/>
  </clipPath>
 </defs>
</svg>
