<?xml version="1.0" encoding="utf-8" standalone="no"?>
<!DOCTYPE svg PUBLIC "-//W3C//DTD SVG 1.1//EN"
  "http://www.w3.org/Graphics/SVG/1.1/DTD/svg11.dtd">
<svg xmlns:xlink="http://www.w3.org/1999/xlink" width="452.05977pt" height="338.121091pt" viewBox="0 0 452.05977 338.121091" xmlns="http://www.w3.org/2000/svg" version="1.1">
 <metadata>
  <rdf:RDF xmlns:dc="http://purl.org/dc/elements/1.1/" xmlns:cc="http://creativecommons.org/ns#" xmlns:rdf="http://www.w3.org/1999/02/22-rdf-syntax-ns#">
   <cc:Work>
    <dc:type rdf:resource="http://purl.org/dc/dcmitype/StillImage"/>
    <dc:date>2023-02-05T19:50:22.588121</dc:date>
    <dc:format>image/svg+xml</dc:format>
    <dc:creator>
     <cc:Agent>
      <dc:title>Matplotlib v3.5.2, https://matplotlib.org/</dc:title>
     </cc:Agent>
    </dc:creator>
   </cc:Work>
  </rdf:RDF>
 </metadata>
 <defs>
  <style type="text/css">*{stroke-linejoin: round; stroke-linecap: butt}</style>
 </defs>
 <g id="figure_1">
  <g id="patch_1">
   <path d="M 0 338.121091 
L 452.05977 338.121091 
L 452.05977 0 
L 0 0 
L 0 338.121091 
z
" style="fill: none"/>
  </g>
  <g id="axes_1">
   <g id="patch_2">
    <path d="M 7.647784 330.921091 
L 444.85977 330.921091 
L 444.85977 7.2 
L 7.647784 7.2 
L 7.647784 330.921091 
z
" style="fill: none"/>
   </g>
   <g id="matplotlib.axis_1">
    <g id="xtick_1">
     <g id="line2d_1">
      <defs>
       <path id="m5813995dfe" d="M 0 0 
L 0 3.5 
" style="stroke: #000000; stroke-width: 0.8"/>
      </defs>
      <g>
       <use xlink:href="#m5813995dfe" x="16.055707" y="169.059649" style="stroke: #000000; stroke-width: 0.8"/>
      </g>
     </g>
     <g id="text_1">
      <!-- $\mathdefault{−10}$ -->
      <g transform="translate(7.2 182.978147)scale(0.1 -0.1)">
       <defs>
        <path id="CMSY10-0" d="M 4218 1472 
C 4326 1472 4442 1472 4442 1600 
C 4442 1728 4326 1728 4218 1728 
L 755 1728 
C 646 1728 531 1728 531 1600 
C 531 1472 646 1472 755 1472 
L 4218 1472 
z
" transform="scale(0.015625)"/>
        <path id="CMR17-31" d="M 1702 4083 
C 1702 4217 1696 4224 1606 4224 
C 1357 3927 979 3833 621 3820 
C 602 3820 570 3820 563 3808 
C 557 3795 557 3782 557 3648 
C 755 3648 1088 3686 1344 3839 
L 1344 467 
C 1344 243 1331 166 781 166 
L 589 166 
L 589 0 
C 896 6 1216 12 1523 12 
C 1830 12 2150 6 2458 0 
L 2458 166 
L 2266 166 
C 1715 166 1702 236 1702 467 
L 1702 4083 
z
" transform="scale(0.015625)"/>
        <path id="CMR17-30" d="M 2688 2038 
C 2688 2430 2682 3099 2413 3613 
C 2176 4063 1798 4224 1466 4224 
C 1158 4224 768 4082 525 3620 
C 269 3137 243 2539 243 2038 
C 243 1671 250 1112 448 623 
C 723 -39 1216 -128 1466 -128 
C 1760 -128 2208 -7 2470 604 
C 2662 1048 2688 1568 2688 2038 
z
M 1466 -26 
C 1056 -26 813 328 723 816 
C 653 1196 653 1749 653 2109 
C 653 2604 653 3015 736 3407 
C 858 3954 1216 4121 1466 4121 
C 1728 4121 2067 3947 2189 3420 
C 2272 3054 2278 2623 2278 2109 
C 2278 1691 2278 1176 2202 797 
C 2067 96 1690 -26 1466 -26 
z
" transform="scale(0.015625)"/>
       </defs>
       <use xlink:href="#CMSY10-0" transform="scale(0.996264)"/>
       <use xlink:href="#CMR17-31" transform="translate(77.487468 0)scale(0.996264)"/>
       <use xlink:href="#CMR17-30" transform="translate(123.177945 0)scale(0.996264)"/>
      </g>
     </g>
    </g>
    <g id="xtick_2">
     <g id="line2d_2">
      <g>
       <use xlink:href="#m5813995dfe" x="121.154742" y="169.059649" style="stroke: #000000; stroke-width: 0.8"/>
      </g>
     </g>
     <g id="text_2">
      <!-- $\mathdefault{−5}$ -->
      <g transform="translate(114.789703 182.978147)scale(0.1 -0.1)">
       <defs>
        <path id="CMR17-35" d="M 730 3750 
C 794 3724 1056 3641 1325 3641 
C 1920 3641 2246 3961 2432 4140 
C 2432 4191 2432 4224 2394 4224 
C 2387 4224 2374 4224 2323 4198 
C 2099 4102 1837 4032 1517 4032 
C 1325 4032 1037 4055 723 4191 
C 653 4224 640 4224 634 4224 
C 602 4224 595 4217 595 4090 
L 595 2231 
C 595 2113 595 2080 659 2080 
C 691 2080 704 2093 736 2139 
C 941 2435 1222 2560 1542 2560 
C 1766 2560 2246 2415 2246 1293 
C 2246 1087 2246 716 2054 422 
C 1894 159 1645 25 1370 25 
C 947 25 518 319 403 812 
C 429 806 480 793 506 793 
C 589 793 749 838 749 1036 
C 749 1209 627 1280 506 1280 
C 358 1280 262 1190 262 1011 
C 262 454 704 -128 1382 -128 
C 2042 -128 2669 441 2669 1267 
C 2669 2054 2170 2662 1549 2662 
C 1222 2662 947 2540 730 2304 
L 730 3750 
z
" transform="scale(0.015625)"/>
       </defs>
       <use xlink:href="#CMSY10-0" transform="scale(0.996264)"/>
       <use xlink:href="#CMR17-35" transform="translate(77.487468 0)scale(0.996264)"/>
      </g>
     </g>
    </g>
    <g id="xtick_3">
     <g id="line2d_3">
      <g>
       <use xlink:href="#m5813995dfe" x="226.253777" y="169.059649" style="stroke: #000000; stroke-width: 0.8"/>
      </g>
     </g>
    </g>
    <g id="xtick_4">
     <g id="line2d_4">
      <g>
       <use xlink:href="#m5813995dfe" x="331.352812" y="169.059649" style="stroke: #000000; stroke-width: 0.8"/>
      </g>
     </g>
     <g id="text_3">
      <!-- $\mathdefault{5}$ -->
      <g transform="translate(328.862144 182.978147)scale(0.1 -0.1)">
       <use xlink:href="#CMR17-35" transform="scale(0.996264)"/>
      </g>
     </g>
    </g>
    <g id="xtick_5">
     <g id="line2d_5">
      <g>
       <use xlink:href="#m5813995dfe" x="436.451847" y="169.059649" style="stroke: #000000; stroke-width: 0.8"/>
      </g>
     </g>
     <g id="text_4">
      <!-- $\mathdefault{10}$ -->
      <g transform="translate(431.470511 182.978147)scale(0.1 -0.1)">
       <use xlink:href="#CMR17-31" transform="scale(0.996264)"/>
       <use xlink:href="#CMR17-30" transform="translate(45.690477 0)scale(0.996264)"/>
      </g>
     </g>
    </g>
    <g id="xtick_6">
     <g id="line2d_6">
      <defs>
       <path id="m314a6e9db8" d="M 0 0 
L 0 2 
" style="stroke: #000000; stroke-width: 0.6"/>
      </defs>
      <g>
       <use xlink:href="#m314a6e9db8" x="37.075514" y="169.059649" style="stroke: #000000; stroke-width: 0.6"/>
      </g>
     </g>
    </g>
    <g id="xtick_7">
     <g id="line2d_7">
      <g>
       <use xlink:href="#m314a6e9db8" x="58.095321" y="169.059649" style="stroke: #000000; stroke-width: 0.6"/>
      </g>
     </g>
    </g>
    <g id="xtick_8">
     <g id="line2d_8">
      <g>
       <use xlink:href="#m314a6e9db8" x="79.115128" y="169.059649" style="stroke: #000000; stroke-width: 0.6"/>
      </g>
     </g>
    </g>
    <g id="xtick_9">
     <g id="line2d_9">
      <g>
       <use xlink:href="#m314a6e9db8" x="100.134935" y="169.059649" style="stroke: #000000; stroke-width: 0.6"/>
      </g>
     </g>
    </g>
    <g id="xtick_10">
     <g id="line2d_10">
      <g>
       <use xlink:href="#m314a6e9db8" x="142.174549" y="169.059649" style="stroke: #000000; stroke-width: 0.6"/>
      </g>
     </g>
    </g>
    <g id="xtick_11">
     <g id="line2d_11">
      <g>
       <use xlink:href="#m314a6e9db8" x="163.194356" y="169.059649" style="stroke: #000000; stroke-width: 0.6"/>
      </g>
     </g>
    </g>
    <g id="xtick_12">
     <g id="line2d_12">
      <g>
       <use xlink:href="#m314a6e9db8" x="184.214163" y="169.059649" style="stroke: #000000; stroke-width: 0.6"/>
      </g>
     </g>
    </g>
    <g id="xtick_13">
     <g id="line2d_13">
      <g>
       <use xlink:href="#m314a6e9db8" x="205.23397" y="169.059649" style="stroke: #000000; stroke-width: 0.6"/>
      </g>
     </g>
    </g>
    <g id="xtick_14">
     <g id="line2d_14">
      <g>
       <use xlink:href="#m314a6e9db8" x="247.273584" y="169.059649" style="stroke: #000000; stroke-width: 0.6"/>
      </g>
     </g>
    </g>
    <g id="xtick_15">
     <g id="line2d_15">
      <g>
       <use xlink:href="#m314a6e9db8" x="268.293391" y="169.059649" style="stroke: #000000; stroke-width: 0.6"/>
      </g>
     </g>
    </g>
    <g id="xtick_16">
     <g id="line2d_16">
      <g>
       <use xlink:href="#m314a6e9db8" x="289.313198" y="169.059649" style="stroke: #000000; stroke-width: 0.6"/>
      </g>
     </g>
    </g>
    <g id="xtick_17">
     <g id="line2d_17">
      <g>
       <use xlink:href="#m314a6e9db8" x="310.333005" y="169.059649" style="stroke: #000000; stroke-width: 0.6"/>
      </g>
     </g>
    </g>
    <g id="xtick_18">
     <g id="line2d_18">
      <g>
       <use xlink:href="#m314a6e9db8" x="352.372619" y="169.059649" style="stroke: #000000; stroke-width: 0.6"/>
      </g>
     </g>
    </g>
    <g id="xtick_19">
     <g id="line2d_19">
      <g>
       <use xlink:href="#m314a6e9db8" x="373.392426" y="169.059649" style="stroke: #000000; stroke-width: 0.6"/>
      </g>
     </g>
    </g>
    <g id="xtick_20">
     <g id="line2d_20">
      <g>
       <use xlink:href="#m314a6e9db8" x="394.412233" y="169.059649" style="stroke: #000000; stroke-width: 0.6"/>
      </g>
     </g>
    </g>
    <g id="xtick_21">
     <g id="line2d_21">
      <g>
       <use xlink:href="#m314a6e9db8" x="415.43204" y="169.059649" style="stroke: #000000; stroke-width: 0.6"/>
      </g>
     </g>
    </g>
   </g>
   <g id="matplotlib.axis_2">
    <g id="ytick_1">
     <g id="line2d_22">
      <defs>
       <path id="m9a9be7052e" d="M 0 0 
L -3.5 0 
" style="stroke: #000000; stroke-width: 0.8"/>
      </defs>
      <g>
       <use xlink:href="#m9a9be7052e" x="226.253777" y="324.69571" style="stroke: #000000; stroke-width: 0.8"/>
      </g>
     </g>
     <g id="text_5">
      <!-- $\mathdefault{−1.0}$ -->
      <g transform="translate(198.774954 328.154959)scale(0.1 -0.1)">
       <defs>
        <path id="CMMI12-3a" d="M 1178 307 
C 1178 492 1024 620 870 620 
C 685 620 557 467 557 313 
C 557 128 710 0 864 0 
C 1050 0 1178 153 1178 307 
z
" transform="scale(0.015625)"/>
       </defs>
       <use xlink:href="#CMSY10-0" transform="scale(0.996264)"/>
       <use xlink:href="#CMR17-31" transform="translate(77.487468 0)scale(0.996264)"/>
       <use xlink:href="#CMMI12-3a" transform="translate(123.177945 0)scale(0.996264)"/>
       <use xlink:href="#CMR17-30" transform="translate(150.275122 0)scale(0.996264)"/>
      </g>
     </g>
    </g>
    <g id="ytick_2">
     <g id="line2d_23">
      <g>
       <use xlink:href="#m9a9be7052e" x="226.253777" y="246.877679" style="stroke: #000000; stroke-width: 0.8"/>
      </g>
     </g>
     <g id="text_6">
      <!-- $\mathdefault{−0.5}$ -->
      <g transform="translate(198.774954 250.336928)scale(0.1 -0.1)">
       <use xlink:href="#CMSY10-0" transform="scale(0.996264)"/>
       <use xlink:href="#CMR17-30" transform="translate(77.487468 0)scale(0.996264)"/>
       <use xlink:href="#CMMI12-3a" transform="translate(123.177945 0)scale(0.996264)"/>
       <use xlink:href="#CMR17-35" transform="translate(150.275122 0)scale(0.996264)"/>
      </g>
     </g>
    </g>
    <g id="ytick_3">
     <g id="line2d_24">
      <g>
       <use xlink:href="#m9a9be7052e" x="226.253777" y="169.059649" style="stroke: #000000; stroke-width: 0.8"/>
      </g>
     </g>
    </g>
    <g id="ytick_4">
     <g id="line2d_25">
      <g>
       <use xlink:href="#m9a9be7052e" x="226.253777" y="91.241619" style="stroke: #000000; stroke-width: 0.8"/>
      </g>
     </g>
     <g id="text_7">
      <!-- $\mathdefault{0.5}$ -->
      <g transform="translate(206.523698 94.700868)scale(0.1 -0.1)">
       <use xlink:href="#CMR17-30" transform="scale(0.996264)"/>
       <use xlink:href="#CMMI12-3a" transform="translate(45.690477 0)scale(0.996264)"/>
       <use xlink:href="#CMR17-35" transform="translate(72.787654 0)scale(0.996264)"/>
      </g>
     </g>
    </g>
    <g id="ytick_5">
     <g id="line2d_26">
      <g>
       <use xlink:href="#m9a9be7052e" x="226.253777" y="13.423588" style="stroke: #000000; stroke-width: 0.8"/>
      </g>
     </g>
     <g id="text_8">
      <!-- $\mathdefault{1.0}$ -->
      <g transform="translate(206.523698 16.882837)scale(0.1 -0.1)">
       <use xlink:href="#CMR17-31" transform="scale(0.996264)"/>
       <use xlink:href="#CMMI12-3a" transform="translate(45.690477 0)scale(0.996264)"/>
       <use xlink:href="#CMR17-30" transform="translate(72.787654 0)scale(0.996264)"/>
      </g>
     </g>
    </g>
    <g id="ytick_6">
     <g id="line2d_27">
      <defs>
       <path id="md5ac2cf6af" d="M 0 0 
L -2 0 
" style="stroke: #000000; stroke-width: 0.6"/>
      </defs>
      <g>
       <use xlink:href="#md5ac2cf6af" x="226.253777" y="309.132103" style="stroke: #000000; stroke-width: 0.6"/>
      </g>
     </g>
    </g>
    <g id="ytick_7">
     <g id="line2d_28">
      <g>
       <use xlink:href="#md5ac2cf6af" x="226.253777" y="293.568497" style="stroke: #000000; stroke-width: 0.6"/>
      </g>
     </g>
    </g>
    <g id="ytick_8">
     <g id="line2d_29">
      <g>
       <use xlink:href="#md5ac2cf6af" x="226.253777" y="278.004891" style="stroke: #000000; stroke-width: 0.6"/>
      </g>
     </g>
    </g>
    <g id="ytick_9">
     <g id="line2d_30">
      <g>
       <use xlink:href="#md5ac2cf6af" x="226.253777" y="262.441285" style="stroke: #000000; stroke-width: 0.6"/>
      </g>
     </g>
    </g>
    <g id="ytick_10">
     <g id="line2d_31">
      <g>
       <use xlink:href="#md5ac2cf6af" x="226.253777" y="231.314073" style="stroke: #000000; stroke-width: 0.6"/>
      </g>
     </g>
    </g>
    <g id="ytick_11">
     <g id="line2d_32">
      <g>
       <use xlink:href="#md5ac2cf6af" x="226.253777" y="215.750467" style="stroke: #000000; stroke-width: 0.6"/>
      </g>
     </g>
    </g>
    <g id="ytick_12">
     <g id="line2d_33">
      <g>
       <use xlink:href="#md5ac2cf6af" x="226.253777" y="200.186861" style="stroke: #000000; stroke-width: 0.6"/>
      </g>
     </g>
    </g>
    <g id="ytick_13">
     <g id="line2d_34">
      <g>
       <use xlink:href="#md5ac2cf6af" x="226.253777" y="184.623255" style="stroke: #000000; stroke-width: 0.6"/>
      </g>
     </g>
    </g>
    <g id="ytick_14">
     <g id="line2d_35">
      <g>
       <use xlink:href="#md5ac2cf6af" x="226.253777" y="153.496043" style="stroke: #000000; stroke-width: 0.6"/>
      </g>
     </g>
    </g>
    <g id="ytick_15">
     <g id="line2d_36">
      <g>
       <use xlink:href="#md5ac2cf6af" x="226.253777" y="137.932437" style="stroke: #000000; stroke-width: 0.6"/>
      </g>
     </g>
    </g>
    <g id="ytick_16">
     <g id="line2d_37">
      <g>
       <use xlink:href="#md5ac2cf6af" x="226.253777" y="122.368831" style="stroke: #000000; stroke-width: 0.6"/>
      </g>
     </g>
    </g>
    <g id="ytick_17">
     <g id="line2d_38">
      <g>
       <use xlink:href="#md5ac2cf6af" x="226.253777" y="106.805225" style="stroke: #000000; stroke-width: 0.6"/>
      </g>
     </g>
    </g>
    <g id="ytick_18">
     <g id="line2d_39">
      <g>
       <use xlink:href="#md5ac2cf6af" x="226.253777" y="75.678012" style="stroke: #000000; stroke-width: 0.6"/>
      </g>
     </g>
    </g>
    <g id="ytick_19">
     <g id="line2d_40">
      <g>
       <use xlink:href="#md5ac2cf6af" x="226.253777" y="60.114406" style="stroke: #000000; stroke-width: 0.6"/>
      </g>
     </g>
    </g>
    <g id="ytick_20">
     <g id="line2d_41">
      <g>
       <use xlink:href="#md5ac2cf6af" x="226.253777" y="44.5508" style="stroke: #000000; stroke-width: 0.6"/>
      </g>
     </g>
    </g>
    <g id="ytick_21">
     <g id="line2d_42">
      <g>
       <use xlink:href="#md5ac2cf6af" x="226.253777" y="28.987194" style="stroke: #000000; stroke-width: 0.6"/>
      </g>
     </g>
    </g>
   </g>
   <g id="line2d_43">
    <path d="M 16.055707 299.649436 
L 18.342781 308.071526 
L 20.482942 314.465203 
L 21.458162 316.882567 
L 22.433382 318.981796 
L 23.408603 320.758372 
L 25.222533 323.192065 
L 26.957461 324.446657 
L 28.321019 324.690362 
L 29.452657 324.395449 
L 30.584294 323.650421 
L 31.714632 322.459062 
L 32.84497 320.824219 
L 33.866362 318.969429 
L 34.887754 316.760747 
L 36.088957 313.717521 
L 37.29016 310.202016 
L 38.661696 305.625284 
L 40.408293 298.958468 
L 42.950082 287.668908 
L 45.673284 273.656342 
L 48.480517 257.379062 
L 49.160547 253.187697 
L 51.669435 236.99756 
L 55.187494 212.721667 
L 61.367985 167.553749 
L 67.882219 120.163028 
L 71.209423 97.48378 
L 74.922803 74.30988 
L 77.247099 61.263382 
L 79.01809 52.198561 
L 80.728375 44.23074 
L 82.862236 35.453294 
L 84.766482 28.779544 
L 86.670728 23.256297 
L 87.692811 20.782427 
L 88.714895 18.65907 
L 90.36319 15.985609 
L 91.501568 14.687697 
L 93.282177 13.56631 
L 94.394824 13.431533 
L 95.507472 13.732714 
L 96.868034 14.692158 
L 98.228596 16.298124 
L 99.848206 19.043245 
L 101.478521 22.705511 
L 103.108836 27.247757 
L 104.10075 30.430511 
L 105.871134 36.873161 
L 107.641517 44.252958 
L 109.456771 52.738045 
L 112.677419 69.881996 
L 115.932133 89.566469 
L 119.306029 111.973052 
L 122.775319 136.537625 
L 134.633572 222.957735 
L 138.35095 247.803908 
L 141.755208 268.420275 
L 144.110593 281.192364 
L 145.979982 290.335258 
L 148.562328 301.374645 
L 150.766211 309.224283 
L 152.115469 313.275052 
L 153.464728 316.731809 
L 155.199441 320.280665 
L 156.821617 322.668317 
L 158.791779 324.337535 
L 160.188795 324.695558 
L 161.585812 324.366361 
L 163.375095 322.943635 
L 164.741887 321.105258 
L 166.108679 318.624241 
L 167.623789 315.13575 
L 169.1389 310.888643 
L 170.073793 307.898948 
L 171.657864 302.209809 
L 174.170431 291.650274 
L 176.781097 278.82749 
L 179.723618 262.358656 
L 182.428788 245.599509 
L 187.058538 214.143167 
L 191.763526 179.95288 
L 198.450709 130.843026 
L 202.481455 102.789553 
L 205.58946 82.76639 
L 208.399639 66.271856 
L 211.243458 51.448486 
L 213.673399 40.476088 
L 216.098731 31.236007 
L 218.173655 24.781648 
L 219.529195 21.320298 
L 220.884735 18.473152 
L 222.035168 16.547531 
L 223.552302 14.70718 
L 225.069436 13.670568 
L 226.355359 13.425406 
L 227.832992 13.862625 
L 229.310625 15.066464 
L 231.057414 17.47002 
L 232.556386 20.36755 
L 234.055359 24.020928 
L 235.301072 27.618909 
L 236.546786 31.713512 
L 237.995505 37.080839 
L 239.372435 42.763489 
L 241.801114 54.090774 
L 243.653779 63.771174 
L 247.026961 83.438376 
L 250.575619 106.493285 
L 254.293579 132.544588 
L 266.519383 221.666936 
L 271.14792 252.390387 
L 274.39224 271.607766 
L 277.226768 286.416526 
L 279.30044 295.91438 
L 281.015337 302.840704 
L 282.730234 308.877064 
L 284.248356 313.445773 
L 285.414561 316.445235 
L 286.580767 318.991135 
L 287.615042 320.863184 
L 288.649318 322.367774 
L 289.602638 323.425997 
L 290.555958 324.166754 
L 291.827297 324.658093 
L 292.961561 324.616154 
L 294.095825 324.121365 
L 295.057544 323.348121 
L 296.019262 322.251956 
L 296.980981 320.835165 
L 297.942699 319.100712 
L 299.50069 315.626298 
L 300.730075 312.315483 
L 301.95946 308.514768 
L 303.948762 301.360857 
L 306.236806 291.67293 
L 308.490803 280.709402 
L 309.181757 277.085488 
L 312.797836 256.31135 
L 316.159751 234.672601 
L 320.673269 203.093823 
L 326.023356 163.758689 
L 331.908893 120.979247 
L 335.897979 93.919323 
L 336.763802 88.37052 
L 340.586473 65.631307 
L 343.159673 52.203951 
L 345.411449 41.882557 
L 346.538981 37.255413 
L 347.964996 31.947939 
L 349.086412 28.216117 
L 350.207828 24.88508 
L 351.58764 21.350358 
L 352.844431 18.684138 
L 354.101223 16.555341 
L 355.164737 15.179424 
L 356.884473 13.788988 
L 358.604209 13.437307 
L 359.671523 13.74276 
L 360.738837 14.448575 
L 361.48522 15.179111 
L 363.3579 17.863385 
L 365.818025 23.20766 
L 367.653618 28.500296 
L 370.110677 37.253128 
L 372.656899 48.219863 
L 374.330288 56.402762 
L 375.990007 65.22386 
L 379.373021 85.144243 
L 382.401691 104.834744 
L 385.154105 123.895013 
L 391.545334 170.558094 
L 398.122375 218.390472 
L 401.321512 240.199471 
L 404.854734 262.355432 
L 408.082654 280.312582 
L 409.689509 288.299552 
L 412.548559 300.761039 
L 413.786036 305.412283 
L 415.023513 309.591078 
L 416.545222 314.060777 
L 417.865853 317.324909 
L 419.186483 320.003979 
L 420.34844 321.868868 
L 421.510396 323.266924 
L 423.255638 324.480646 
L 424.349202 324.695686 
L 425.442766 324.48957 
L 426.745739 323.694985 
L 428.048712 322.306404 
L 429.829748 319.457528 
L 431.46078 315.901333 
L 433.091811 311.46145 
L 435.0049 305.163959 
L 436.451847 299.649436 
L 436.451847 299.649436 
" clip-path="url(#p64023093f5)" style="fill: none; stroke: #0000ff; stroke-linecap: square"/>
   </g>
   <g id="patch_3">
    <path d="M 226.253777 330.921091 
L 226.253777 7.2 
" style="fill: none; stroke: #000000; stroke-width: 0.8; stroke-linejoin: miter; stroke-linecap: square"/>
   </g>
   <g id="patch_4">
    <path d="M 7.647784 169.059649 
L 444.85977 169.059649 
" style="fill: none; stroke: #000000; stroke-width: 0.8; stroke-linejoin: miter; stroke-linecap: square"/>
   </g>
  </g>
 </g>
 <defs>
  <clipPath id="p64023093f5">
   <rect x="7.647784" y="7.2" width="437.211985" height="323.721091"/>
  </clipPath>
 </defs>
</svg>
