<?xml version="1.0" encoding="utf-8" standalone="no"?>
<!DOCTYPE svg PUBLIC "-//W3C//DTD SVG 1.1//EN"
  "http://www.w3.org/Graphics/SVG/1.1/DTD/svg11.dtd">
<svg xmlns:xlink="http://www.w3.org/1999/xlink" width="453.545pt" height="337.953895pt" viewBox="0 0 453.545 337.953895" xmlns="http://www.w3.org/2000/svg" version="1.1">
 <metadata>
  <rdf:RDF xmlns:dc="http://purl.org/dc/elements/1.1/" xmlns:cc="http://creativecommons.org/ns#" xmlns:rdf="http://www.w3.org/1999/02/22-rdf-syntax-ns#">
   <cc:Work>
    <dc:type rdf:resource="http://purl.org/dc/dcmitype/StillImage"/>
    <dc:date>2023-05-19T04:05:41.511608</dc:date>
    <dc:format>image/svg+xml</dc:format>
    <dc:creator>
     <cc:Agent>
      <dc:title>Matplotlib v3.7.1, https://matplotlib.org/</dc:title>
     </cc:Agent>
    </dc:creator>
   </cc:Work>
  </rdf:RDF>
 </metadata>
 <defs>
  <style type="text/css">*{stroke-linejoin: round; stroke-linecap: butt}</style>
 </defs>
 <g id="figure_1">
  <g id="patch_1">
   <path d="M 0 337.953895 
L 453.545 337.953895 
L 453.545 0 
L 0 0 
L 0 337.953895 
z
" style="fill: none"/>
  </g>
  <g id="axes_1">
   <g id="patch_2">
    <path d="M 36.925 330.753895 
L 446.345 330.753895 
L 446.345 9.340897 
L 36.925 9.340897 
L 36.925 330.753895 
z
" style="fill: none"/>
   </g>
   <g id="patch_3">
    <path d="M 97.288205 292.411475 
L 97.288205 191.907098 
L 97.677675 191.223012 
L 98.067145 190.542901 
L 98.456614 189.866754 
L 98.846084 189.194561 
L 99.173527 188.632475 
L 99.500969 188.073171 
L 99.828412 187.516643 
L 100.155855 186.962886 
L 100.514729 186.35915 
L 100.873603 185.758726 
L 101.232477 185.161608 
L 101.59135 184.567788 
L 102.120995 183.697408 
L 102.650639 182.834169 
L 103.180283 181.978048 
L 103.709927 181.129018 
L 104.056155 180.577829 
L 104.402383 180.029653 
L 104.748611 179.484484 
L 105.094839 178.942314 
L 105.676538 178.038146 
L 106.258236 177.142391 
L 106.78541 176.337841 
L 107.312583 175.540149 
L 107.839756 174.749292 
L 108.366929 173.965245 
L 108.780189 173.355364 
L 109.193448 172.749641 
L 109.815906 171.845115 
L 110.438363 170.949955 
L 111.060821 170.064122 
L 111.683279 169.187575 
L 112.206728 168.45761 
L 112.730178 167.734159 
L 113.253628 167.017199 
L 113.777078 166.306706 
L 114.184069 165.758739 
L 114.710036 165.056335 
L 115.236004 164.360393 
L 115.761971 163.670889 
L 116.287939 162.987798 
L 116.878238 162.228765 
L 117.468537 161.477746 
L 118.058836 160.734706 
L 118.649136 159.99961 
L 119.263115 159.243418 
L 119.877095 158.495745 
L 120.306966 157.97732 
L 120.736838 157.463038 
L 121.259776 156.842982 
L 121.782714 156.229016 
L 122.305653 155.621114 
L 122.828591 155.019254 
L 123.300513 154.481275 
L 123.772436 153.94818 
L 124.244358 153.41995 
L 124.71628 152.896568 
L 125.221886 152.341189 
L 125.727493 151.791333 
L 126.196581 151.28611 
L 126.66567 150.785606 
L 127.134759 150.289803 
L 127.603848 149.798684 
L 128.071376 149.313843 
L 128.538905 148.83362 
L 129.006433 148.357998 
L 129.473961 147.886961 
L 129.748894 147.6121 
L 130.166439 147.197675 
L 130.583984 146.786874 
L 131.001529 146.379683 
L 131.419074 145.976091 
L 131.801282 145.6098 
L 132.183489 145.246504 
L 132.565697 144.886196 
L 132.947905 144.528864 
L 133.414692 144.096483 
L 133.88148 143.668511 
L 134.348267 143.244932 
L 134.815055 142.82573 
L 135.379752 142.324423 
L 135.944449 141.829465 
L 136.509146 141.340827 
L 137.073844 140.858478 
L 137.453142 140.538007 
L 137.832441 140.220352 
L 138.21174 139.905501 
L 138.591039 139.593448 
L 139.026983 139.238234 
L 139.462927 138.886689 
L 139.898871 138.538798 
L 140.334814 138.194548 
L 140.835498 137.803649 
L 141.336182 137.417514 
L 141.867883 137.01265 
L 142.399583 136.613109 
L 142.920202 136.227028 
L 143.440822 135.846003 
L 143.961441 135.47001 
L 144.48206 135.099027 
L 144.86388 134.830119 
L 145.2457 134.563884 
L 145.627519 134.300312 
L 146.009339 134.039393 
L 146.585716 133.650528 
L 147.162093 133.267657 
L 147.826986 132.833391 
L 148.491878 132.407009 
L 149.156771 131.988463 
L 149.821664 131.577703 
L 150.546035 131.139004 
L 151.270405 130.709425 
L 151.720772 130.446911 
L 152.171139 130.187882 
L 152.806525 129.828338 
L 153.441911 129.475659 
L 154.077297 129.129803 
L 154.712683 128.790725 
L 155.157723 128.557242 
L 155.602763 128.327048 
L 156.056436 128.09576 
L 156.510109 127.867861 
L 156.963782 127.643335 
L 157.417455 127.422165 
L 157.993212 127.146288 
L 158.568969 126.875761 
L 159.144726 126.610553 
L 159.720483 126.350631 
L 159.859257 126.288769 
L 160.60061 125.963447 
L 161.341962 125.646757 
L 162.083314 125.33863 
L 162.824667 125.038999 
L 163.355976 124.829448 
L 163.887286 124.624201 
L 164.429555 124.419132 
L 164.971825 124.218492 
L 165.603391 123.990362 
L 166.234958 123.768164 
L 166.859468 123.554239 
L 167.483978 123.346032 
L 168.108488 123.143502 
L 168.732998 122.946609 
L 169.548395 122.697951 
L 170.216452 122.50127 
L 170.884509 122.310883 
L 171.561036 122.124445 
L 172.237563 121.944357 
L 172.91409 121.770569 
L 173.590618 121.603029 
L 174.094952 121.482166 
L 174.599286 121.364725 
L 175.10362 121.250685 
L 175.607954 121.140024 
L 175.969147 121.062836 
L 176.605391 120.931033 
L 177.241634 120.804507 
L 177.877878 120.683214 
L 178.514122 120.567113 
L 178.798304 120.516921 
L 179.45654 120.404588 
L 180.114777 120.297696 
L 180.773013 120.196198 
L 181.43125 120.100047 
L 182.070276 120.011772 
L 182.817914 119.914775 
L 183.565552 119.824484 
L 184.31319 119.740831 
L 185.060828 119.663745 
L 185.756449 119.597859 
L 186.332031 119.547556 
L 186.907613 119.501033 
L 187.460207 119.459897 
L 188.012801 119.422188 
L 188.565394 119.387878 
L 189.117988 119.35694 
L 189.975523 119.315538 
L 190.833059 119.282082 
L 191.767347 119.254552 
L 192.701636 119.236193 
L 193.272667 119.22943 
L 193.843698 119.22601 
L 194.762868 119.22745 
L 195.682038 119.237345 
L 196.183249 119.246256 
L 196.68446 119.257621 
L 197.686881 119.28763 
L 198.422949 119.315765 
L 199.434859 119.362741 
L 200.44677 119.419164 
L 201.328746 119.475915 
L 201.948078 119.519915 
L 202.567409 119.567294 
L 203.186741 119.618012 
L 203.806073 119.672029 
L 204.121407 119.700786 
L 204.788932 119.764427 
L 205.456456 119.831782 
L 206.123981 119.9028 
L 206.791505 119.977433 
L 207.888957 120.10786 
L 209.002469 120.249816 
L 210.115981 120.401235 
L 210.458987 120.449749 
L 211.491914 120.601066 
L 212.524841 120.760083 
L 213.697278 120.949674 
L 214.546426 121.09288 
L 215.395574 121.240922 
L 216.45262 121.431812 
L 217.509667 121.629841 
L 218.348475 121.791934 
L 219.187283 121.9583 
L 219.958749 122.114997 
L 221.240435 122.382927 
L 222.522121 122.660041 
L 223.284125 122.829003 
L 224.046129 123.001013 
L 225.060073 123.234493 
L 226.074017 123.473066 
L 226.436668 123.559599 
L 227.449658 123.804574 
L 228.462647 124.054223 
L 229.618202 124.344493 
L 231.021413 124.704475 
L 232.424625 125.072252 
L 233.971832 125.486254 
L 234.892578 125.736606 
L 236.139057 126.079975 
L 237.657109 126.50464 
L 239.236685 126.953486 
L 240.568827 127.337068 
L 241.90097 127.724851 
L 243.071856 128.068848 
L 244.792842 128.579233 
L 245.892976 128.908128 
L 246.848249 129.195175 
L 248.880308 129.809604 
L 250.833579 130.404042 
L 251.829248 130.708093 
L 253.247982 131.142132 
L 254.894184 131.646365 
L 257.083151 132.316625 
L 258.960301 132.889993 
L 260.429107 133.336967 
L 261.100908 133.540755 
L 262.84547 134.067605 
L 265.044671 134.725794 
L 266.20756 135.070589 
L 267.370449 135.4128 
L 267.679617 135.503313 
L 268.977739 135.881051 
L 270.275862 136.254791 
L 271.985312 136.740244 
L 272.895911 136.995463 
L 274.003934 137.30262 
L 275.68879 137.762052 
L 276.675848 138.026654 
L 277.662906 138.287695 
L 278.469699 138.498304 
L 279.276491 138.706339 
L 280.769503 139.084232 
L 281.705913 139.316345 
L 282.642324 139.544517 
L 283.992864 139.866381 
L 285.097382 140.123019 
L 286.2019 140.373483 
L 287.012478 140.553235 
L 288.191156 140.808284 
L 289.369834 141.055587 
L 289.645161 141.112208 
L 290.777409 141.340383 
L 291.909656 141.560856 
L 292.934937 141.753653 
L 293.845444 141.919262 
L 294.75595 142.079466 
L 295.384462 142.186833 
L 296.012974 142.291524 
L 297.169053 142.476963 
L 298.325131 142.652948 
L 299.293651 142.792915 
L 300.270379 142.927012 
L 301.247108 143.053867 
L 301.848326 143.128283 
L 302.449544 143.199861 
L 303.328443 143.299313 
L 304.207342 143.392507 
L 304.826226 143.454315 
L 305.44511 143.512924 
L 306.063993 143.568295 
L 306.682877 143.620388 
L 307.606703 143.691965 
L 308.19407 143.73357 
L 308.781436 143.7721 
L 309.368803 143.807522 
L 309.95617 143.839801 
L 310.836475 143.88222 
L 311.716781 143.917391 
L 312.293399 143.936445 
L 313.081698 143.957325 
L 313.869997 143.97216 
L 314.456881 143.979231 
L 315.043765 143.982872 
L 315.576046 143.98318 
L 316.108327 143.980614 
L 316.640608 143.975149 
L 317.172889 143.966759 
L 317.971827 143.948623 
L 318.770764 143.923757 
L 319.401524 143.899315 
L 320.032283 143.870583 
L 320.641368 143.838728 
L 321.250452 143.802797 
L 321.859536 143.762751 
L 322.46862 143.718554 
L 323.28625 143.652629 
L 324.103879 143.579063 
L 324.920583 143.497862 
L 325.737287 143.408854 
L 326.24298 143.349789 
L 326.748672 143.287675 
L 327.480942 143.192283 
L 328.213211 143.090386 
L 328.827306 142.999872 
L 329.441401 142.904698 
L 330.055496 142.804827 
L 330.669591 142.70022 
L 331.104291 142.623288 
L 331.669193 142.519715 
L 332.234095 142.412049 
L 332.798997 142.300259 
L 333.363899 142.184315 
L 333.987873 142.051383 
L 334.611847 141.913305 
L 335.181544 141.782711 
L 335.751241 141.647763 
L 336.506419 141.462116 
L 337.261597 141.268692 
L 337.749814 141.139474 
L 338.238031 141.006955 
L 338.726248 140.871118 
L 339.214464 140.731943 
L 339.769929 140.569513 
L 340.325395 140.402708 
L 340.849042 140.241426 
L 341.372689 140.076207 
L 341.896336 139.907026 
L 342.419983 139.73386 
L 343.141782 139.48859 
L 343.86358 139.23564 
L 344.544745 138.989829 
L 345.22591 138.73707 
L 345.824273 138.509261 
L 346.422636 138.276014 
L 347.020999 138.037293 
L 347.619362 137.793062 
L 348.029687 137.622378 
L 348.440013 137.449075 
L 348.850339 137.273141 
L 349.260665 137.094565 
L 350.041598 136.747356 
L 350.432065 136.570123 
L 350.822532 136.390456 
L 351.28305 136.175416 
L 351.743567 135.956962 
L 352.296254 135.690255 
L 352.848941 135.418579 
L 353.401627 135.141905 
L 353.954314 134.860205 
L 354.348902 134.655997 
L 354.74349 134.449202 
L 355.278504 134.164664 
L 355.813519 133.875326 
L 356.348533 133.581164 
L 356.883547 133.282152 
L 357.483052 132.941303 
L 358.082557 132.594296 
L 358.684469 132.239664 
L 359.286381 131.878752 
L 359.888293 131.511524 
L 360.490205 131.137942 
L 361.178968 130.702616 
L 361.867731 130.258868 
L 362.236756 130.017634 
L 362.605782 129.773959 
L 362.974807 129.527834 
L 363.343833 129.279251 
L 363.772948 128.987088 
L 364.202063 128.691577 
L 364.846209 128.241671 
L 365.490354 127.784145 
L 366.1345 127.318957 
L 366.778645 126.846061 
L 367.366137 126.407998 
L 367.907692 125.998447 
L 368.449247 125.583361 
L 368.990801 125.162714 
L 369.532356 124.736479 
L 370.101257 124.282673 
L 370.670158 123.82264 
L 371.341022 123.272115 
L 372.011886 122.712839 
L 372.682749 122.144761 
L 373.353613 121.567831 
L 373.939888 121.056358 
L 374.526162 120.538052 
L 374.99215 120.121192 
L 375.458138 119.699977 
L 375.922567 119.275822 
L 376.386997 118.847307 
L 376.851426 118.414416 
L 377.315856 117.977133 
L 377.690569 117.62111 
L 378.065282 117.262207 
L 378.439995 116.900417 
L 378.814707 116.53573 
L 379.43051 115.930091 
L 380.046312 115.316565 
L 380.662114 114.695116 
L 381.277916 114.065703 
L 381.860758 113.462608 
L 382.4436 112.852311 
L 382.864925 112.406636 
L 383.286251 111.957167 
L 383.707577 111.503894 
L 384.128902 111.046802 
L 384.477933 110.665241 
L 384.826965 110.281044 
L 385.397781 109.647019 
L 385.968598 109.005893 
L 386.539414 108.357637 
L 387.110231 107.702219 
L 387.623541 107.106689 
L 388.136851 106.505321 
L 388.746016 105.784044 
L 389.355182 105.054475 
L 389.964347 104.316575 
L 390.573513 103.570307 
L 391.114089 102.901027 
L 391.654664 102.225101 
L 392.131854 101.622889 
L 392.609043 101.015459 
L 393.004294 100.508367 
L 393.399545 99.997674 
L 393.794796 99.483367 
L 394.190048 98.965438 
L 394.646191 98.3632 
L 395.102335 97.756107 
L 395.558478 97.144144 
L 396.014622 96.527295 
L 396.571369 95.767753 
L 397.128116 95.00088 
L 397.684863 94.226646 
L 398.24161 93.445023 
L 398.566522 92.985449 
L 398.891434 92.523343 
L 399.316664 91.914726 
L 399.741893 91.301749 
L 400.167123 90.684399 
L 400.592353 90.062664 
L 401.181931 89.193353 
L 401.771509 88.315553 
L 402.361087 87.429229 
L 402.950665 86.534347 
L 403.349877 85.923534 
L 403.749088 85.308772 
L 404.098479 84.76748 
L 404.44787 84.223148 
L 404.797261 83.675768 
L 405.146652 83.125333 
L 405.631448 82.356505 
L 406.116245 81.581763 
L 406.601041 80.801087 
L 407.085838 80.01446 
L 407.394916 79.509835 
L 407.703994 79.002778 
L 408.013072 78.493285 
L 408.322151 77.98135 
L 408.631229 77.466967 
L 408.940307 76.950133 
L 409.249385 76.430843 
L 409.558464 75.90909 
L 409.928058 75.281943 
L 410.297652 74.65126 
L 410.779906 73.823003 
L 411.26216 72.988694 
L 411.744413 72.148314 
L 412.226667 71.301845 
L 412.226667 292.411475 
z
" clip-path="url(#p7c1e8cd25d)" style="fill: #808080; opacity: 0.5"/>
   </g>
   <g id="matplotlib.axis_1">
    <g id="xtick_1">
     <g id="line2d_1">
      <defs>
       <path id="m580c115765" d="M 0 0 
L 0 3.5 
" style="stroke: #000000; stroke-width: 0.8"/>
      </defs>
      <g>
       <use xlink:href="#m580c115765" x="44.798462" y="292.411475" style="stroke: #000000; stroke-width: 0.8"/>
      </g>
     </g>
     <g id="text_1">
      <!-- 1 -->
      <g transform="translate(41.617212 307.009912) scale(0.1 -0.1)">
       <defs>
        <path id="DejaVuSans-31" d="M 794 531 
L 1825 531 
L 1825 4091 
L 703 3866 
L 703 4441 
L 1819 4666 
L 2450 4666 
L 2450 531 
L 3481 531 
L 3481 0 
L 794 0 
L 794 531 
z
" transform="scale(0.015625)"/>
       </defs>
       <use xlink:href="#DejaVuSans-31"/>
      </g>
     </g>
    </g>
    <g id="xtick_2">
     <g id="line2d_2">
      <g>
       <use xlink:href="#m580c115765" x="97.288205" y="292.411475" style="stroke: #000000; stroke-width: 0.8"/>
      </g>
     </g>
     <g id="text_2">
      <!-- 2 -->
      <g transform="translate(94.106955 307.009912) scale(0.1 -0.1)">
       <defs>
        <path id="DejaVuSans-32" d="M 1228 531 
L 3431 531 
L 3431 0 
L 469 0 
L 469 531 
Q 828 903 1448 1529 
Q 2069 2156 2228 2338 
Q 2531 2678 2651 2914 
Q 2772 3150 2772 3378 
Q 2772 3750 2511 3984 
Q 2250 4219 1831 4219 
Q 1534 4219 1204 4116 
Q 875 4013 500 3803 
L 500 4441 
Q 881 4594 1212 4672 
Q 1544 4750 1819 4750 
Q 2544 4750 2975 4387 
Q 3406 4025 3406 3419 
Q 3406 3131 3298 2873 
Q 3191 2616 2906 2266 
Q 2828 2175 2409 1742 
Q 1991 1309 1228 531 
z
" transform="scale(0.015625)"/>
       </defs>
       <use xlink:href="#DejaVuSans-32"/>
      </g>
     </g>
    </g>
    <g id="xtick_3">
     <g id="line2d_3">
      <g>
       <use xlink:href="#m580c115765" x="149.777949" y="292.411475" style="stroke: #000000; stroke-width: 0.8"/>
      </g>
     </g>
     <g id="text_3">
      <!-- 3 -->
      <g transform="translate(146.596699 307.009912) scale(0.1 -0.1)">
       <defs>
        <path id="DejaVuSans-33" d="M 2597 2516 
Q 3050 2419 3304 2112 
Q 3559 1806 3559 1356 
Q 3559 666 3084 287 
Q 2609 -91 1734 -91 
Q 1441 -91 1130 -33 
Q 819 25 488 141 
L 488 750 
Q 750 597 1062 519 
Q 1375 441 1716 441 
Q 2309 441 2620 675 
Q 2931 909 2931 1356 
Q 2931 1769 2642 2001 
Q 2353 2234 1838 2234 
L 1294 2234 
L 1294 2753 
L 1863 2753 
Q 2328 2753 2575 2939 
Q 2822 3125 2822 3475 
Q 2822 3834 2567 4026 
Q 2313 4219 1838 4219 
Q 1578 4219 1281 4162 
Q 984 4106 628 3988 
L 628 4550 
Q 988 4650 1302 4700 
Q 1616 4750 1894 4750 
Q 2613 4750 3031 4423 
Q 3450 4097 3450 3541 
Q 3450 3153 3228 2886 
Q 3006 2619 2597 2516 
z
" transform="scale(0.015625)"/>
       </defs>
       <use xlink:href="#DejaVuSans-33"/>
      </g>
     </g>
    </g>
    <g id="xtick_4">
     <g id="line2d_4">
      <g>
       <use xlink:href="#m580c115765" x="202.267692" y="292.411475" style="stroke: #000000; stroke-width: 0.8"/>
      </g>
     </g>
     <g id="text_4">
      <!-- 4 -->
      <g transform="translate(199.086442 307.009912) scale(0.1 -0.1)">
       <defs>
        <path id="DejaVuSans-34" d="M 2419 4116 
L 825 1625 
L 2419 1625 
L 2419 4116 
z
M 2253 4666 
L 3047 4666 
L 3047 1625 
L 3713 1625 
L 3713 1100 
L 3047 1100 
L 3047 0 
L 2419 0 
L 2419 1100 
L 313 1100 
L 313 1709 
L 2253 4666 
z
" transform="scale(0.015625)"/>
       </defs>
       <use xlink:href="#DejaVuSans-34"/>
      </g>
     </g>
    </g>
    <g id="xtick_5">
     <g id="line2d_5">
      <g>
       <use xlink:href="#m580c115765" x="254.757436" y="292.411475" style="stroke: #000000; stroke-width: 0.8"/>
      </g>
     </g>
     <g id="text_5">
      <!-- 5 -->
      <g transform="translate(251.576186 307.009912) scale(0.1 -0.1)">
       <defs>
        <path id="DejaVuSans-35" d="M 691 4666 
L 3169 4666 
L 3169 4134 
L 1269 4134 
L 1269 2991 
Q 1406 3038 1543 3061 
Q 1681 3084 1819 3084 
Q 2600 3084 3056 2656 
Q 3513 2228 3513 1497 
Q 3513 744 3044 326 
Q 2575 -91 1722 -91 
Q 1428 -91 1123 -41 
Q 819 9 494 109 
L 494 744 
Q 775 591 1075 516 
Q 1375 441 1709 441 
Q 2250 441 2565 725 
Q 2881 1009 2881 1497 
Q 2881 1984 2565 2268 
Q 2250 2553 1709 2553 
Q 1456 2553 1204 2497 
Q 953 2441 691 2322 
L 691 4666 
z
" transform="scale(0.015625)"/>
       </defs>
       <use xlink:href="#DejaVuSans-35"/>
      </g>
     </g>
    </g>
    <g id="xtick_6">
     <g id="line2d_6">
      <g>
       <use xlink:href="#m580c115765" x="307.247179" y="292.411475" style="stroke: #000000; stroke-width: 0.8"/>
      </g>
     </g>
     <g id="text_6">
      <!-- 6 -->
      <g transform="translate(304.065929 307.009912) scale(0.1 -0.1)">
       <defs>
        <path id="DejaVuSans-36" d="M 2113 2584 
Q 1688 2584 1439 2293 
Q 1191 2003 1191 1497 
Q 1191 994 1439 701 
Q 1688 409 2113 409 
Q 2538 409 2786 701 
Q 3034 994 3034 1497 
Q 3034 2003 2786 2293 
Q 2538 2584 2113 2584 
z
M 3366 4563 
L 3366 3988 
Q 3128 4100 2886 4159 
Q 2644 4219 2406 4219 
Q 1781 4219 1451 3797 
Q 1122 3375 1075 2522 
Q 1259 2794 1537 2939 
Q 1816 3084 2150 3084 
Q 2853 3084 3261 2657 
Q 3669 2231 3669 1497 
Q 3669 778 3244 343 
Q 2819 -91 2113 -91 
Q 1303 -91 875 529 
Q 447 1150 447 2328 
Q 447 3434 972 4092 
Q 1497 4750 2381 4750 
Q 2619 4750 2861 4703 
Q 3103 4656 3366 4563 
z
" transform="scale(0.015625)"/>
       </defs>
       <use xlink:href="#DejaVuSans-36"/>
      </g>
     </g>
    </g>
    <g id="xtick_7">
     <g id="line2d_7">
      <g>
       <use xlink:href="#m580c115765" x="359.736923" y="292.411475" style="stroke: #000000; stroke-width: 0.8"/>
      </g>
     </g>
     <g id="text_7">
      <!-- 7 -->
      <g transform="translate(356.555673 307.009912) scale(0.1 -0.1)">
       <defs>
        <path id="DejaVuSans-37" d="M 525 4666 
L 3525 4666 
L 3525 4397 
L 1831 0 
L 1172 0 
L 2766 4134 
L 525 4134 
L 525 4666 
z
" transform="scale(0.015625)"/>
       </defs>
       <use xlink:href="#DejaVuSans-37"/>
      </g>
     </g>
    </g>
    <g id="xtick_8">
     <g id="line2d_8">
      <g>
       <use xlink:href="#m580c115765" x="412.226667" y="292.411475" style="stroke: #000000; stroke-width: 0.8"/>
      </g>
     </g>
     <g id="text_8">
      <!-- 8 -->
      <g transform="translate(409.045417 307.009912) scale(0.1 -0.1)">
       <defs>
        <path id="DejaVuSans-38" d="M 2034 2216 
Q 1584 2216 1326 1975 
Q 1069 1734 1069 1313 
Q 1069 891 1326 650 
Q 1584 409 2034 409 
Q 2484 409 2743 651 
Q 3003 894 3003 1313 
Q 3003 1734 2745 1975 
Q 2488 2216 2034 2216 
z
M 1403 2484 
Q 997 2584 770 2862 
Q 544 3141 544 3541 
Q 544 4100 942 4425 
Q 1341 4750 2034 4750 
Q 2731 4750 3128 4425 
Q 3525 4100 3525 3541 
Q 3525 3141 3298 2862 
Q 3072 2584 2669 2484 
Q 3125 2378 3379 2068 
Q 3634 1759 3634 1313 
Q 3634 634 3220 271 
Q 2806 -91 2034 -91 
Q 1263 -91 848 271 
Q 434 634 434 1313 
Q 434 1759 690 2068 
Q 947 2378 1403 2484 
z
M 1172 3481 
Q 1172 3119 1398 2916 
Q 1625 2713 2034 2713 
Q 2441 2713 2670 2916 
Q 2900 3119 2900 3481 
Q 2900 3844 2670 4047 
Q 2441 4250 2034 4250 
Q 1625 4250 1398 4047 
Q 1172 3844 1172 3481 
z
" transform="scale(0.015625)"/>
       </defs>
       <use xlink:href="#DejaVuSans-38"/>
      </g>
     </g>
    </g>
    <g id="xtick_9">
     <g id="line2d_9">
      <defs>
       <path id="m84fb933415" d="M 0 0 
L 0 2 
" style="stroke: #000000; stroke-width: 0.6"/>
      </defs>
      <g>
       <use xlink:href="#m84fb933415" x="55.29641" y="292.411475" style="stroke: #000000; stroke-width: 0.6"/>
      </g>
     </g>
    </g>
    <g id="xtick_10">
     <g id="line2d_10">
      <g>
       <use xlink:href="#m84fb933415" x="65.794359" y="292.411475" style="stroke: #000000; stroke-width: 0.6"/>
      </g>
     </g>
    </g>
    <g id="xtick_11">
     <g id="line2d_11">
      <g>
       <use xlink:href="#m84fb933415" x="76.292308" y="292.411475" style="stroke: #000000; stroke-width: 0.6"/>
      </g>
     </g>
    </g>
    <g id="xtick_12">
     <g id="line2d_12">
      <g>
       <use xlink:href="#m84fb933415" x="86.790256" y="292.411475" style="stroke: #000000; stroke-width: 0.6"/>
      </g>
     </g>
    </g>
    <g id="xtick_13">
     <g id="line2d_13">
      <g>
       <use xlink:href="#m84fb933415" x="107.786154" y="292.411475" style="stroke: #000000; stroke-width: 0.6"/>
      </g>
     </g>
    </g>
    <g id="xtick_14">
     <g id="line2d_14">
      <g>
       <use xlink:href="#m84fb933415" x="118.284103" y="292.411475" style="stroke: #000000; stroke-width: 0.6"/>
      </g>
     </g>
    </g>
    <g id="xtick_15">
     <g id="line2d_15">
      <g>
       <use xlink:href="#m84fb933415" x="128.782051" y="292.411475" style="stroke: #000000; stroke-width: 0.6"/>
      </g>
     </g>
    </g>
    <g id="xtick_16">
     <g id="line2d_16">
      <g>
       <use xlink:href="#m84fb933415" x="139.28" y="292.411475" style="stroke: #000000; stroke-width: 0.6"/>
      </g>
     </g>
    </g>
    <g id="xtick_17">
     <g id="line2d_17">
      <g>
       <use xlink:href="#m84fb933415" x="160.275897" y="292.411475" style="stroke: #000000; stroke-width: 0.6"/>
      </g>
     </g>
    </g>
    <g id="xtick_18">
     <g id="line2d_18">
      <g>
       <use xlink:href="#m84fb933415" x="170.773846" y="292.411475" style="stroke: #000000; stroke-width: 0.6"/>
      </g>
     </g>
    </g>
    <g id="xtick_19">
     <g id="line2d_19">
      <g>
       <use xlink:href="#m84fb933415" x="181.271795" y="292.411475" style="stroke: #000000; stroke-width: 0.6"/>
      </g>
     </g>
    </g>
    <g id="xtick_20">
     <g id="line2d_20">
      <g>
       <use xlink:href="#m84fb933415" x="191.769744" y="292.411475" style="stroke: #000000; stroke-width: 0.6"/>
      </g>
     </g>
    </g>
    <g id="xtick_21">
     <g id="line2d_21">
      <g>
       <use xlink:href="#m84fb933415" x="212.765641" y="292.411475" style="stroke: #000000; stroke-width: 0.6"/>
      </g>
     </g>
    </g>
    <g id="xtick_22">
     <g id="line2d_22">
      <g>
       <use xlink:href="#m84fb933415" x="223.26359" y="292.411475" style="stroke: #000000; stroke-width: 0.6"/>
      </g>
     </g>
    </g>
    <g id="xtick_23">
     <g id="line2d_23">
      <g>
       <use xlink:href="#m84fb933415" x="233.761538" y="292.411475" style="stroke: #000000; stroke-width: 0.6"/>
      </g>
     </g>
    </g>
    <g id="xtick_24">
     <g id="line2d_24">
      <g>
       <use xlink:href="#m84fb933415" x="244.259487" y="292.411475" style="stroke: #000000; stroke-width: 0.6"/>
      </g>
     </g>
    </g>
    <g id="xtick_25">
     <g id="line2d_25">
      <g>
       <use xlink:href="#m84fb933415" x="265.255385" y="292.411475" style="stroke: #000000; stroke-width: 0.6"/>
      </g>
     </g>
    </g>
    <g id="xtick_26">
     <g id="line2d_26">
      <g>
       <use xlink:href="#m84fb933415" x="275.753333" y="292.411475" style="stroke: #000000; stroke-width: 0.6"/>
      </g>
     </g>
    </g>
    <g id="xtick_27">
     <g id="line2d_27">
      <g>
       <use xlink:href="#m84fb933415" x="286.251282" y="292.411475" style="stroke: #000000; stroke-width: 0.6"/>
      </g>
     </g>
    </g>
    <g id="xtick_28">
     <g id="line2d_28">
      <g>
       <use xlink:href="#m84fb933415" x="296.749231" y="292.411475" style="stroke: #000000; stroke-width: 0.6"/>
      </g>
     </g>
    </g>
    <g id="xtick_29">
     <g id="line2d_29">
      <g>
       <use xlink:href="#m84fb933415" x="317.745128" y="292.411475" style="stroke: #000000; stroke-width: 0.6"/>
      </g>
     </g>
    </g>
    <g id="xtick_30">
     <g id="line2d_30">
      <g>
       <use xlink:href="#m84fb933415" x="328.243077" y="292.411475" style="stroke: #000000; stroke-width: 0.6"/>
      </g>
     </g>
    </g>
    <g id="xtick_31">
     <g id="line2d_31">
      <g>
       <use xlink:href="#m84fb933415" x="338.741026" y="292.411475" style="stroke: #000000; stroke-width: 0.6"/>
      </g>
     </g>
    </g>
    <g id="xtick_32">
     <g id="line2d_32">
      <g>
       <use xlink:href="#m84fb933415" x="349.238974" y="292.411475" style="stroke: #000000; stroke-width: 0.6"/>
      </g>
     </g>
    </g>
    <g id="xtick_33">
     <g id="line2d_33">
      <g>
       <use xlink:href="#m84fb933415" x="370.234872" y="292.411475" style="stroke: #000000; stroke-width: 0.6"/>
      </g>
     </g>
    </g>
    <g id="xtick_34">
     <g id="line2d_34">
      <g>
       <use xlink:href="#m84fb933415" x="380.732821" y="292.411475" style="stroke: #000000; stroke-width: 0.6"/>
      </g>
     </g>
    </g>
    <g id="xtick_35">
     <g id="line2d_35">
      <g>
       <use xlink:href="#m84fb933415" x="391.230769" y="292.411475" style="stroke: #000000; stroke-width: 0.6"/>
      </g>
     </g>
    </g>
    <g id="xtick_36">
     <g id="line2d_36">
      <g>
       <use xlink:href="#m84fb933415" x="401.728718" y="292.411475" style="stroke: #000000; stroke-width: 0.6"/>
      </g>
     </g>
    </g>
    <g id="xtick_37">
     <g id="line2d_37">
      <g>
       <use xlink:href="#m84fb933415" x="422.724615" y="292.411475" style="stroke: #000000; stroke-width: 0.6"/>
      </g>
     </g>
    </g>
    <g id="xtick_38">
     <g id="line2d_38">
      <g>
       <use xlink:href="#m84fb933415" x="433.222564" y="292.411475" style="stroke: #000000; stroke-width: 0.6"/>
      </g>
     </g>
    </g>
    <g id="xtick_39">
     <g id="line2d_39">
      <g>
       <use xlink:href="#m84fb933415" x="443.720513" y="292.411475" style="stroke: #000000; stroke-width: 0.6"/>
      </g>
     </g>
    </g>
   </g>
   <g id="matplotlib.axis_2">
    <g id="ytick_1">
     <g id="line2d_40">
      <defs>
       <path id="mcf426e4fbb" d="M 0 0 
L -3.5 0 
" style="stroke: #000000; stroke-width: 0.8"/>
      </defs>
      <g>
       <use xlink:href="#mcf426e4fbb" x="26.925" y="292.411475" style="stroke: #000000; stroke-width: 0.8"/>
      </g>
     </g>
     <g id="text_9">
      <!-- 0 -->
      <g transform="translate(13.5625 296.210694) scale(0.1 -0.1)">
       <defs>
        <path id="DejaVuSans-30" d="M 2034 4250 
Q 1547 4250 1301 3770 
Q 1056 3291 1056 2328 
Q 1056 1369 1301 889 
Q 1547 409 2034 409 
Q 2525 409 2770 889 
Q 3016 1369 3016 2328 
Q 3016 3291 2770 3770 
Q 2525 4250 2034 4250 
z
M 2034 4750 
Q 2819 4750 3233 4129 
Q 3647 3509 3647 2328 
Q 3647 1150 3233 529 
Q 2819 -91 2034 -91 
Q 1250 -91 836 529 
Q 422 1150 422 2328 
Q 422 3509 836 4129 
Q 1250 4750 2034 4750 
z
" transform="scale(0.015625)"/>
       </defs>
       <use xlink:href="#DejaVuSans-30"/>
      </g>
     </g>
    </g>
    <g id="ytick_2">
     <g id="line2d_41">
      <g>
       <use xlink:href="#mcf426e4fbb" x="26.925" y="252.209724" style="stroke: #000000; stroke-width: 0.8"/>
      </g>
     </g>
     <g id="text_10">
      <!-- 10 -->
      <g transform="translate(7.2 256.008943) scale(0.1 -0.1)">
       <use xlink:href="#DejaVuSans-31"/>
       <use xlink:href="#DejaVuSans-30" x="63.623047"/>
      </g>
     </g>
    </g>
    <g id="ytick_3">
     <g id="line2d_42">
      <g>
       <use xlink:href="#mcf426e4fbb" x="26.925" y="212.007973" style="stroke: #000000; stroke-width: 0.8"/>
      </g>
     </g>
     <g id="text_11">
      <!-- 20 -->
      <g transform="translate(7.2 215.807192) scale(0.1 -0.1)">
       <use xlink:href="#DejaVuSans-32"/>
       <use xlink:href="#DejaVuSans-30" x="63.623047"/>
      </g>
     </g>
    </g>
    <g id="ytick_4">
     <g id="line2d_43">
      <g>
       <use xlink:href="#mcf426e4fbb" x="26.925" y="171.806222" style="stroke: #000000; stroke-width: 0.8"/>
      </g>
     </g>
     <g id="text_12">
      <!-- 30 -->
      <g transform="translate(7.2 175.605441) scale(0.1 -0.1)">
       <use xlink:href="#DejaVuSans-33"/>
       <use xlink:href="#DejaVuSans-30" x="63.623047"/>
      </g>
     </g>
    </g>
    <g id="ytick_5">
     <g id="line2d_44">
      <g>
       <use xlink:href="#mcf426e4fbb" x="26.925" y="131.604471" style="stroke: #000000; stroke-width: 0.8"/>
      </g>
     </g>
     <g id="text_13">
      <!-- 40 -->
      <g transform="translate(7.2 135.40369) scale(0.1 -0.1)">
       <use xlink:href="#DejaVuSans-34"/>
       <use xlink:href="#DejaVuSans-30" x="63.623047"/>
      </g>
     </g>
    </g>
    <g id="ytick_6">
     <g id="line2d_45">
      <g>
       <use xlink:href="#mcf426e4fbb" x="26.925" y="91.40272" style="stroke: #000000; stroke-width: 0.8"/>
      </g>
     </g>
     <g id="text_14">
      <!-- 50 -->
      <g transform="translate(7.2 95.201939) scale(0.1 -0.1)">
       <use xlink:href="#DejaVuSans-35"/>
       <use xlink:href="#DejaVuSans-30" x="63.623047"/>
      </g>
     </g>
    </g>
    <g id="ytick_7">
     <g id="line2d_46">
      <g>
       <use xlink:href="#mcf426e4fbb" x="26.925" y="51.20097" style="stroke: #000000; stroke-width: 0.8"/>
      </g>
     </g>
     <g id="text_15">
      <!-- 60 -->
      <g transform="translate(7.2 55.000188) scale(0.1 -0.1)">
       <use xlink:href="#DejaVuSans-36"/>
       <use xlink:href="#DejaVuSans-30" x="63.623047"/>
      </g>
     </g>
    </g>
    <g id="ytick_8">
     <g id="line2d_47">
      <g>
       <use xlink:href="#mcf426e4fbb" x="26.925" y="10.999219" style="stroke: #000000; stroke-width: 0.8"/>
      </g>
     </g>
     <g id="text_16">
      <!-- 70 -->
      <g transform="translate(7.2 14.798437) scale(0.1 -0.1)">
       <use xlink:href="#DejaVuSans-37"/>
       <use xlink:href="#DejaVuSans-30" x="63.623047"/>
      </g>
     </g>
    </g>
    <g id="ytick_9">
     <g id="line2d_48">
      <defs>
       <path id="m2d664cf553" d="M 0 0 
L -2 0 
" style="stroke: #000000; stroke-width: 0.6"/>
      </defs>
      <g>
       <use xlink:href="#m2d664cf553" x="26.925" y="324.572875" style="stroke: #000000; stroke-width: 0.6"/>
      </g>
     </g>
    </g>
    <g id="ytick_10">
     <g id="line2d_49">
      <g>
       <use xlink:href="#m2d664cf553" x="26.925" y="316.532525" style="stroke: #000000; stroke-width: 0.6"/>
      </g>
     </g>
    </g>
    <g id="ytick_11">
     <g id="line2d_50">
      <g>
       <use xlink:href="#m2d664cf553" x="26.925" y="308.492175" style="stroke: #000000; stroke-width: 0.6"/>
      </g>
     </g>
    </g>
    <g id="ytick_12">
     <g id="line2d_51">
      <g>
       <use xlink:href="#m2d664cf553" x="26.925" y="300.451825" style="stroke: #000000; stroke-width: 0.6"/>
      </g>
     </g>
    </g>
    <g id="ytick_13">
     <g id="line2d_52">
      <g>
       <use xlink:href="#m2d664cf553" x="26.925" y="284.371125" style="stroke: #000000; stroke-width: 0.6"/>
      </g>
     </g>
    </g>
    <g id="ytick_14">
     <g id="line2d_53">
      <g>
       <use xlink:href="#m2d664cf553" x="26.925" y="276.330774" style="stroke: #000000; stroke-width: 0.6"/>
      </g>
     </g>
    </g>
    <g id="ytick_15">
     <g id="line2d_54">
      <g>
       <use xlink:href="#m2d664cf553" x="26.925" y="268.290424" style="stroke: #000000; stroke-width: 0.6"/>
      </g>
     </g>
    </g>
    <g id="ytick_16">
     <g id="line2d_55">
      <g>
       <use xlink:href="#m2d664cf553" x="26.925" y="260.250074" style="stroke: #000000; stroke-width: 0.6"/>
      </g>
     </g>
    </g>
    <g id="ytick_17">
     <g id="line2d_56">
      <g>
       <use xlink:href="#m2d664cf553" x="26.925" y="244.169374" style="stroke: #000000; stroke-width: 0.6"/>
      </g>
     </g>
    </g>
    <g id="ytick_18">
     <g id="line2d_57">
      <g>
       <use xlink:href="#m2d664cf553" x="26.925" y="236.129024" style="stroke: #000000; stroke-width: 0.6"/>
      </g>
     </g>
    </g>
    <g id="ytick_19">
     <g id="line2d_58">
      <g>
       <use xlink:href="#m2d664cf553" x="26.925" y="228.088673" style="stroke: #000000; stroke-width: 0.6"/>
      </g>
     </g>
    </g>
    <g id="ytick_20">
     <g id="line2d_59">
      <g>
       <use xlink:href="#m2d664cf553" x="26.925" y="220.048323" style="stroke: #000000; stroke-width: 0.6"/>
      </g>
     </g>
    </g>
    <g id="ytick_21">
     <g id="line2d_60">
      <g>
       <use xlink:href="#m2d664cf553" x="26.925" y="203.967623" style="stroke: #000000; stroke-width: 0.6"/>
      </g>
     </g>
    </g>
    <g id="ytick_22">
     <g id="line2d_61">
      <g>
       <use xlink:href="#m2d664cf553" x="26.925" y="195.927273" style="stroke: #000000; stroke-width: 0.6"/>
      </g>
     </g>
    </g>
    <g id="ytick_23">
     <g id="line2d_62">
      <g>
       <use xlink:href="#m2d664cf553" x="26.925" y="187.886923" style="stroke: #000000; stroke-width: 0.6"/>
      </g>
     </g>
    </g>
    <g id="ytick_24">
     <g id="line2d_63">
      <g>
       <use xlink:href="#m2d664cf553" x="26.925" y="179.846572" style="stroke: #000000; stroke-width: 0.6"/>
      </g>
     </g>
    </g>
    <g id="ytick_25">
     <g id="line2d_64">
      <g>
       <use xlink:href="#m2d664cf553" x="26.925" y="163.765872" style="stroke: #000000; stroke-width: 0.6"/>
      </g>
     </g>
    </g>
    <g id="ytick_26">
     <g id="line2d_65">
      <g>
       <use xlink:href="#m2d664cf553" x="26.925" y="155.725522" style="stroke: #000000; stroke-width: 0.6"/>
      </g>
     </g>
    </g>
    <g id="ytick_27">
     <g id="line2d_66">
      <g>
       <use xlink:href="#m2d664cf553" x="26.925" y="147.685172" style="stroke: #000000; stroke-width: 0.6"/>
      </g>
     </g>
    </g>
    <g id="ytick_28">
     <g id="line2d_67">
      <g>
       <use xlink:href="#m2d664cf553" x="26.925" y="139.644822" style="stroke: #000000; stroke-width: 0.6"/>
      </g>
     </g>
    </g>
    <g id="ytick_29">
     <g id="line2d_68">
      <g>
       <use xlink:href="#m2d664cf553" x="26.925" y="123.564121" style="stroke: #000000; stroke-width: 0.6"/>
      </g>
     </g>
    </g>
    <g id="ytick_30">
     <g id="line2d_69">
      <g>
       <use xlink:href="#m2d664cf553" x="26.925" y="115.523771" style="stroke: #000000; stroke-width: 0.6"/>
      </g>
     </g>
    </g>
    <g id="ytick_31">
     <g id="line2d_70">
      <g>
       <use xlink:href="#m2d664cf553" x="26.925" y="107.483421" style="stroke: #000000; stroke-width: 0.6"/>
      </g>
     </g>
    </g>
    <g id="ytick_32">
     <g id="line2d_71">
      <g>
       <use xlink:href="#m2d664cf553" x="26.925" y="99.443071" style="stroke: #000000; stroke-width: 0.6"/>
      </g>
     </g>
    </g>
    <g id="ytick_33">
     <g id="line2d_72">
      <g>
       <use xlink:href="#m2d664cf553" x="26.925" y="83.36237" style="stroke: #000000; stroke-width: 0.6"/>
      </g>
     </g>
    </g>
    <g id="ytick_34">
     <g id="line2d_73">
      <g>
       <use xlink:href="#m2d664cf553" x="26.925" y="75.32202" style="stroke: #000000; stroke-width: 0.6"/>
      </g>
     </g>
    </g>
    <g id="ytick_35">
     <g id="line2d_74">
      <g>
       <use xlink:href="#m2d664cf553" x="26.925" y="67.28167" style="stroke: #000000; stroke-width: 0.6"/>
      </g>
     </g>
    </g>
    <g id="ytick_36">
     <g id="line2d_75">
      <g>
       <use xlink:href="#m2d664cf553" x="26.925" y="59.24132" style="stroke: #000000; stroke-width: 0.6"/>
      </g>
     </g>
    </g>
    <g id="ytick_37">
     <g id="line2d_76">
      <g>
       <use xlink:href="#m2d664cf553" x="26.925" y="43.160619" style="stroke: #000000; stroke-width: 0.6"/>
      </g>
     </g>
    </g>
    <g id="ytick_38">
     <g id="line2d_77">
      <g>
       <use xlink:href="#m2d664cf553" x="26.925" y="35.120269" style="stroke: #000000; stroke-width: 0.6"/>
      </g>
     </g>
    </g>
    <g id="ytick_39">
     <g id="line2d_78">
      <g>
       <use xlink:href="#m2d664cf553" x="26.925" y="27.079919" style="stroke: #000000; stroke-width: 0.6"/>
      </g>
     </g>
    </g>
    <g id="ytick_40">
     <g id="line2d_79">
      <g>
       <use xlink:href="#m2d664cf553" x="26.925" y="19.039569" style="stroke: #000000; stroke-width: 0.6"/>
      </g>
     </g>
    </g>
   </g>
   <g id="line2d_80">
    <path d="M 97.288205 292.411475 
L 97.288205 191.907098 
" clip-path="url(#p7c1e8cd25d)" style="fill: none; stroke: #000000; stroke-linecap: square"/>
   </g>
   <g id="line2d_81">
    <path d="M 412.226667 292.411475 
L 412.226667 71.301845 
" clip-path="url(#p7c1e8cd25d)" style="fill: none; stroke: #000000; stroke-linecap: square"/>
   </g>
   <g id="line2d_82">
    <path d="M 97.288205 191.907098 
L 101.59135 184.567788 
L 105.676538 178.038146 
L 109.815906 171.845115 
L 113.777078 166.306706 
L 117.468537 161.477746 
L 121.259776 156.842982 
L 125.221886 152.341189 
L 129.006433 148.357998 
L 132.947905 144.528864 
L 137.073844 140.858478 
L 140.835498 137.803649 
L 144.86388 134.830119 
L 148.491878 132.407009 
L 152.171139 130.187882 
L 156.056436 128.09576 
L 159.859257 126.288769 
L 163.887286 124.624201 
L 168.108488 123.143502 
L 172.237563 121.944357 
L 176.605391 120.931033 
L 180.773013 120.196198 
L 185.060828 119.663745 
L 189.117988 119.35694 
L 193.843698 119.22601 
L 198.422949 119.315765 
L 203.806073 119.672029 
L 209.002469 120.249816 
L 214.546426 121.09288 
L 219.958749 122.114997 
L 226.436668 123.559599 
L 233.971832 125.486254 
L 243.071856 128.068848 
L 258.960301 132.889993 
L 271.985312 136.740244 
L 279.276491 138.706339 
L 287.012478 140.553235 
L 293.845444 141.919262 
L 299.293651 142.792915 
L 304.826226 143.454315 
L 309.95617 143.839801 
L 315.043765 143.982872 
L 319.401524 143.899315 
L 324.103879 143.579063 
L 328.827306 142.999872 
L 332.798997 142.300259 
L 336.506419 141.462116 
L 340.849042 140.241426 
L 344.544745 138.989829 
L 348.440013 137.449075 
L 352.296254 135.690255 
L 356.348533 133.581164 
L 359.888293 131.511524 
L 363.772948 128.987088 
L 367.366137 126.407998 
L 371.341022 123.272115 
L 375.458138 119.699977 
L 379.43051 115.930091 
L 383.286251 111.957167 
L 387.110231 107.702219 
L 391.114089 102.901027 
L 395.102335 97.756107 
L 398.891434 92.523343 
L 402.950665 86.534347 
L 407.085838 80.01446 
L 411.26216 72.988694 
L 412.226667 71.301845 
L 412.226667 71.301845 
" clip-path="url(#p7c1e8cd25d)" style="fill: none; stroke: #0000ff; stroke-linecap: square"/>
   </g>
   <g id="line2d_83">
    <path d="M 44.798462 324.572875 
L 49.603781 308.78043 
L 54.229124 294.325979 
L 58.766054 280.843086 
L 63.396939 267.774784 
L 67.732445 256.16073 
L 72.298462 244.562853 
L 76.819623 233.704115 
L 81.255671 223.639524 
L 85.62925 214.274227 
L 90.043015 205.369882 
L 94.373785 197.153266 
L 98.536954 189.727771 
L 102.561751 182.978545 
L 106.659989 176.52863 
L 110.787301 170.452228 
L 114.481637 165.360557 
L 118.517007 160.163461 
L 122.461203 155.441458 
L 126.194637 151.288195 
L 130.14864 147.215267 
L 133.851546 143.695824 
L 137.88633 140.175448 
L 141.783227 137.076754 
L 145.454967 134.419097 
L 149.340647 131.87409 
L 153.485301 129.451824 
L 157.443429 127.409604 
L 161.408657 125.618687 
L 165.203654 124.134061 
L 168.921775 122.888195 
L 172.937081 121.764774 
L 176.61642 120.928795 
L 181.021764 120.159236 
L 185.334063 119.637198 
L 189.715269 119.327259 
L 194.556456 119.226386 
L 199.482719 119.365198 
L 204.425309 119.729296 
L 210.135645 120.403993 
L 215.944434 121.339137 
L 222.485193 122.651931 
L 229.144615 124.224838 
L 236.527847 126.188078 
L 246.298563 129.029846 
L 275.240205 137.640666 
L 282.594528 139.532969 
L 289.659626 141.115171 
L 295.829417 142.261228 
L 301.493852 143.084749 
L 307.014217 143.646917 
L 312.00898 143.927443 
L 316.54312 143.976368 
L 320.876627 143.825335 
L 325.680929 143.415249 
L 329.837435 142.840831 
L 334.063726 142.034873 
L 338.290322 140.992565 
L 342.563272 139.685778 
L 346.395456 138.286727 
L 350.46237 136.556266 
L 354.155932 134.756186 
L 358.14074 132.560289 
L 362.176577 130.05714 
L 366.271054 127.219352 
L 370.152536 124.241462 
L 374.072731 120.939515 
L 377.746192 117.568015 
L 381.615112 113.717666 
L 385.596055 109.42513 
L 389.367229 105.039963 
L 393.05896 100.437949 
L 397.004809 95.171359 
L 400.970445 89.506155 
L 405.2117 83.022519 
L 409.331504 76.292459 
L 413.332118 69.338437 
L 417.36672 61.896583 
L 421.403758 54.008345 
L 425.842823 44.81123 
L 429.978916 35.736086 
L 434.289563 25.745709 
L 438.471538 15.521916 
L 438.471538 15.521916 
" clip-path="url(#p7c1e8cd25d)" style="fill: none; stroke: #0000ff; stroke-width: 2; stroke-linecap: square"/>
   </g>
   <g id="patch_4">
    <path d="M 26.925 330.753895 
L 26.925 9.340897 
" style="fill: none; stroke: #000000; stroke-width: 0.8; stroke-linejoin: miter; stroke-linecap: square"/>
   </g>
   <g id="patch_5">
    <path d="M 36.925 292.411475 
L 446.345 292.411475 
" style="fill: none; stroke: #000000; stroke-width: 0.8; stroke-linejoin: miter; stroke-linecap: square"/>
   </g>
  </g>
 </g>
 <defs>
  <clipPath id="p7c1e8cd25d">
   <rect x="36.925" y="9.340897" width="409.42" height="321.412998"/>
  </clipPath>
 </defs>
</svg>
