<?xml version="1.0" encoding="utf-8" standalone="no"?>
<!DOCTYPE svg PUBLIC "-//W3C//DTD SVG 1.1//EN"
  "http://www.w3.org/Graphics/SVG/1.1/DTD/svg11.dtd">
<svg xmlns:xlink="http://www.w3.org/1999/xlink" width="452.05977pt" height="338.111875pt" viewBox="0 0 452.05977 338.111875" xmlns="http://www.w3.org/2000/svg" version="1.1">
 <metadata>
  <rdf:RDF xmlns:dc="http://purl.org/dc/elements/1.1/" xmlns:cc="http://creativecommons.org/ns#" xmlns:rdf="http://www.w3.org/1999/02/22-rdf-syntax-ns#">
   <cc:Work>
    <dc:type rdf:resource="http://purl.org/dc/dcmitype/StillImage"/>
    <dc:date>2023-02-05T19:50:25.334329</dc:date>
    <dc:format>image/svg+xml</dc:format>
    <dc:creator>
     <cc:Agent>
      <dc:title>Matplotlib v3.5.2, https://matplotlib.org/</dc:title>
     </cc:Agent>
    </dc:creator>
   </cc:Work>
  </rdf:RDF>
 </metadata>
 <defs>
  <style type="text/css">*{stroke-linejoin: round; stroke-linecap: butt}</style>
 </defs>
 <g id="figure_1">
  <g id="patch_1">
   <path d="M 0 338.111875 
L 452.05977 338.111875 
L 452.05977 0 
L 0 0 
L 0 338.111875 
z
" style="fill: none"/>
  </g>
  <g id="axes_1">
   <g id="patch_2">
    <path d="M 7.647784 330.911875 
L 444.85977 330.911875 
L 444.85977 7.2 
L 7.647784 7.2 
L 7.647784 330.911875 
z
" style="fill: none"/>
   </g>
   <g id="matplotlib.axis_1">
    <g id="xtick_1">
     <g id="line2d_1">
      <defs>
       <path id="macdde92c3b" d="M 0 0 
L 0 3.5 
" style="stroke: #000000; stroke-width: 0.8"/>
      </defs>
      <g>
       <use xlink:href="#macdde92c3b" x="16.055707" y="169.053983" style="stroke: #000000; stroke-width: 0.8"/>
      </g>
     </g>
     <g id="text_1">
      <!-- $\mathdefault{−10}$ -->
      <g transform="translate(7.2 182.972481)scale(0.1 -0.1)">
       <defs>
        <path id="CMSY10-0" d="M 4218 1472 
C 4326 1472 4442 1472 4442 1600 
C 4442 1728 4326 1728 4218 1728 
L 755 1728 
C 646 1728 531 1728 531 1600 
C 531 1472 646 1472 755 1472 
L 4218 1472 
z
" transform="scale(0.015625)"/>
        <path id="CMR17-31" d="M 1702 4083 
C 1702 4217 1696 4224 1606 4224 
C 1357 3927 979 3833 621 3820 
C 602 3820 570 3820 563 3808 
C 557 3795 557 3782 557 3648 
C 755 3648 1088 3686 1344 3839 
L 1344 467 
C 1344 243 1331 166 781 166 
L 589 166 
L 589 0 
C 896 6 1216 12 1523 12 
C 1830 12 2150 6 2458 0 
L 2458 166 
L 2266 166 
C 1715 166 1702 236 1702 467 
L 1702 4083 
z
" transform="scale(0.015625)"/>
        <path id="CMR17-30" d="M 2688 2038 
C 2688 2430 2682 3099 2413 3613 
C 2176 4063 1798 4224 1466 4224 
C 1158 4224 768 4082 525 3620 
C 269 3137 243 2539 243 2038 
C 243 1671 250 1112 448 623 
C 723 -39 1216 -128 1466 -128 
C 1760 -128 2208 -7 2470 604 
C 2662 1048 2688 1568 2688 2038 
z
M 1466 -26 
C 1056 -26 813 328 723 816 
C 653 1196 653 1749 653 2109 
C 653 2604 653 3015 736 3407 
C 858 3954 1216 4121 1466 4121 
C 1728 4121 2067 3947 2189 3420 
C 2272 3054 2278 2623 2278 2109 
C 2278 1691 2278 1176 2202 797 
C 2067 96 1690 -26 1466 -26 
z
" transform="scale(0.015625)"/>
       </defs>
       <use xlink:href="#CMSY10-0" transform="scale(0.996264)"/>
       <use xlink:href="#CMR17-31" transform="translate(77.487468 0)scale(0.996264)"/>
       <use xlink:href="#CMR17-30" transform="translate(123.177945 0)scale(0.996264)"/>
      </g>
     </g>
    </g>
    <g id="xtick_2">
     <g id="line2d_2">
      <g>
       <use xlink:href="#macdde92c3b" x="121.154742" y="169.053983" style="stroke: #000000; stroke-width: 0.8"/>
      </g>
     </g>
     <g id="text_2">
      <!-- $\mathdefault{−5}$ -->
      <g transform="translate(114.789703 182.972481)scale(0.1 -0.1)">
       <defs>
        <path id="CMR17-35" d="M 730 3750 
C 794 3724 1056 3641 1325 3641 
C 1920 3641 2246 3961 2432 4140 
C 2432 4191 2432 4224 2394 4224 
C 2387 4224 2374 4224 2323 4198 
C 2099 4102 1837 4032 1517 4032 
C 1325 4032 1037 4055 723 4191 
C 653 4224 640 4224 634 4224 
C 602 4224 595 4217 595 4090 
L 595 2231 
C 595 2113 595 2080 659 2080 
C 691 2080 704 2093 736 2139 
C 941 2435 1222 2560 1542 2560 
C 1766 2560 2246 2415 2246 1293 
C 2246 1087 2246 716 2054 422 
C 1894 159 1645 25 1370 25 
C 947 25 518 319 403 812 
C 429 806 480 793 506 793 
C 589 793 749 838 749 1036 
C 749 1209 627 1280 506 1280 
C 358 1280 262 1190 262 1011 
C 262 454 704 -128 1382 -128 
C 2042 -128 2669 441 2669 1267 
C 2669 2054 2170 2662 1549 2662 
C 1222 2662 947 2540 730 2304 
L 730 3750 
z
" transform="scale(0.015625)"/>
       </defs>
       <use xlink:href="#CMSY10-0" transform="scale(0.996264)"/>
       <use xlink:href="#CMR17-35" transform="translate(77.487468 0)scale(0.996264)"/>
      </g>
     </g>
    </g>
    <g id="xtick_3">
     <g id="line2d_3">
      <g>
       <use xlink:href="#macdde92c3b" x="226.253777" y="169.053983" style="stroke: #000000; stroke-width: 0.8"/>
      </g>
     </g>
    </g>
    <g id="xtick_4">
     <g id="line2d_4">
      <g>
       <use xlink:href="#macdde92c3b" x="331.352812" y="169.053983" style="stroke: #000000; stroke-width: 0.8"/>
      </g>
     </g>
     <g id="text_3">
      <!-- $\mathdefault{5}$ -->
      <g transform="translate(328.862144 182.972481)scale(0.1 -0.1)">
       <use xlink:href="#CMR17-35" transform="scale(0.996264)"/>
      </g>
     </g>
    </g>
    <g id="xtick_5">
     <g id="line2d_5">
      <g>
       <use xlink:href="#macdde92c3b" x="436.451847" y="169.053983" style="stroke: #000000; stroke-width: 0.8"/>
      </g>
     </g>
     <g id="text_4">
      <!-- $\mathdefault{10}$ -->
      <g transform="translate(431.470511 182.972481)scale(0.1 -0.1)">
       <use xlink:href="#CMR17-31" transform="scale(0.996264)"/>
       <use xlink:href="#CMR17-30" transform="translate(45.690477 0)scale(0.996264)"/>
      </g>
     </g>
    </g>
    <g id="xtick_6">
     <g id="line2d_6">
      <defs>
       <path id="m83044e7417" d="M 0 0 
L 0 2 
" style="stroke: #000000; stroke-width: 0.6"/>
      </defs>
      <g>
       <use xlink:href="#m83044e7417" x="37.075514" y="169.053983" style="stroke: #000000; stroke-width: 0.6"/>
      </g>
     </g>
    </g>
    <g id="xtick_7">
     <g id="line2d_7">
      <g>
       <use xlink:href="#m83044e7417" x="58.095321" y="169.053983" style="stroke: #000000; stroke-width: 0.6"/>
      </g>
     </g>
    </g>
    <g id="xtick_8">
     <g id="line2d_8">
      <g>
       <use xlink:href="#m83044e7417" x="79.115128" y="169.053983" style="stroke: #000000; stroke-width: 0.6"/>
      </g>
     </g>
    </g>
    <g id="xtick_9">
     <g id="line2d_9">
      <g>
       <use xlink:href="#m83044e7417" x="100.134935" y="169.053983" style="stroke: #000000; stroke-width: 0.6"/>
      </g>
     </g>
    </g>
    <g id="xtick_10">
     <g id="line2d_10">
      <g>
       <use xlink:href="#m83044e7417" x="142.174549" y="169.053983" style="stroke: #000000; stroke-width: 0.6"/>
      </g>
     </g>
    </g>
    <g id="xtick_11">
     <g id="line2d_11">
      <g>
       <use xlink:href="#m83044e7417" x="163.194356" y="169.053983" style="stroke: #000000; stroke-width: 0.6"/>
      </g>
     </g>
    </g>
    <g id="xtick_12">
     <g id="line2d_12">
      <g>
       <use xlink:href="#m83044e7417" x="184.214163" y="169.053983" style="stroke: #000000; stroke-width: 0.6"/>
      </g>
     </g>
    </g>
    <g id="xtick_13">
     <g id="line2d_13">
      <g>
       <use xlink:href="#m83044e7417" x="205.23397" y="169.053983" style="stroke: #000000; stroke-width: 0.6"/>
      </g>
     </g>
    </g>
    <g id="xtick_14">
     <g id="line2d_14">
      <g>
       <use xlink:href="#m83044e7417" x="247.273584" y="169.053983" style="stroke: #000000; stroke-width: 0.6"/>
      </g>
     </g>
    </g>
    <g id="xtick_15">
     <g id="line2d_15">
      <g>
       <use xlink:href="#m83044e7417" x="268.293391" y="169.053983" style="stroke: #000000; stroke-width: 0.6"/>
      </g>
     </g>
    </g>
    <g id="xtick_16">
     <g id="line2d_16">
      <g>
       <use xlink:href="#m83044e7417" x="289.313198" y="169.053983" style="stroke: #000000; stroke-width: 0.6"/>
      </g>
     </g>
    </g>
    <g id="xtick_17">
     <g id="line2d_17">
      <g>
       <use xlink:href="#m83044e7417" x="310.333005" y="169.053983" style="stroke: #000000; stroke-width: 0.6"/>
      </g>
     </g>
    </g>
    <g id="xtick_18">
     <g id="line2d_18">
      <g>
       <use xlink:href="#m83044e7417" x="352.372619" y="169.053983" style="stroke: #000000; stroke-width: 0.6"/>
      </g>
     </g>
    </g>
    <g id="xtick_19">
     <g id="line2d_19">
      <g>
       <use xlink:href="#m83044e7417" x="373.392426" y="169.053983" style="stroke: #000000; stroke-width: 0.6"/>
      </g>
     </g>
    </g>
    <g id="xtick_20">
     <g id="line2d_20">
      <g>
       <use xlink:href="#m83044e7417" x="394.412233" y="169.053983" style="stroke: #000000; stroke-width: 0.6"/>
      </g>
     </g>
    </g>
    <g id="xtick_21">
     <g id="line2d_21">
      <g>
       <use xlink:href="#m83044e7417" x="415.43204" y="169.053983" style="stroke: #000000; stroke-width: 0.6"/>
      </g>
     </g>
    </g>
   </g>
   <g id="matplotlib.axis_2">
    <g id="ytick_1">
     <g id="line2d_22">
      <defs>
       <path id="m4f2134db56" d="M 0 0 
L -3.5 0 
" style="stroke: #000000; stroke-width: 0.8"/>
      </defs>
      <g>
       <use xlink:href="#m4f2134db56" x="226.253777" y="324.697882" style="stroke: #000000; stroke-width: 0.8"/>
      </g>
     </g>
     <g id="text_5">
      <!-- $\mathdefault{−1.0}$ -->
      <g transform="translate(198.774954 328.157131)scale(0.1 -0.1)">
       <defs>
        <path id="CMMI12-3a" d="M 1178 307 
C 1178 492 1024 620 870 620 
C 685 620 557 467 557 313 
C 557 128 710 0 864 0 
C 1050 0 1178 153 1178 307 
z
" transform="scale(0.015625)"/>
       </defs>
       <use xlink:href="#CMSY10-0" transform="scale(0.996264)"/>
       <use xlink:href="#CMR17-31" transform="translate(77.487468 0)scale(0.996264)"/>
       <use xlink:href="#CMMI12-3a" transform="translate(123.177945 0)scale(0.996264)"/>
       <use xlink:href="#CMR17-30" transform="translate(150.275122 0)scale(0.996264)"/>
      </g>
     </g>
    </g>
    <g id="ytick_2">
     <g id="line2d_23">
      <g>
       <use xlink:href="#m4f2134db56" x="226.253777" y="246.875932" style="stroke: #000000; stroke-width: 0.8"/>
      </g>
     </g>
     <g id="text_6">
      <!-- $\mathdefault{−0.5}$ -->
      <g transform="translate(198.774954 250.335182)scale(0.1 -0.1)">
       <use xlink:href="#CMSY10-0" transform="scale(0.996264)"/>
       <use xlink:href="#CMR17-30" transform="translate(77.487468 0)scale(0.996264)"/>
       <use xlink:href="#CMMI12-3a" transform="translate(123.177945 0)scale(0.996264)"/>
       <use xlink:href="#CMR17-35" transform="translate(150.275122 0)scale(0.996264)"/>
      </g>
     </g>
    </g>
    <g id="ytick_3">
     <g id="line2d_24">
      <g>
       <use xlink:href="#m4f2134db56" x="226.253777" y="169.053983" style="stroke: #000000; stroke-width: 0.8"/>
      </g>
     </g>
    </g>
    <g id="ytick_4">
     <g id="line2d_25">
      <g>
       <use xlink:href="#m4f2134db56" x="226.253777" y="91.232034" style="stroke: #000000; stroke-width: 0.8"/>
      </g>
     </g>
     <g id="text_7">
      <!-- $\mathdefault{0.5}$ -->
      <g transform="translate(206.523698 94.691283)scale(0.1 -0.1)">
       <use xlink:href="#CMR17-30" transform="scale(0.996264)"/>
       <use xlink:href="#CMMI12-3a" transform="translate(45.690477 0)scale(0.996264)"/>
       <use xlink:href="#CMR17-35" transform="translate(72.787654 0)scale(0.996264)"/>
      </g>
     </g>
    </g>
    <g id="ytick_5">
     <g id="line2d_26">
      <g>
       <use xlink:href="#m4f2134db56" x="226.253777" y="13.410084" style="stroke: #000000; stroke-width: 0.8"/>
      </g>
     </g>
     <g id="text_8">
      <!-- $\mathdefault{1.0}$ -->
      <g transform="translate(206.523698 16.869333)scale(0.1 -0.1)">
       <use xlink:href="#CMR17-31" transform="scale(0.996264)"/>
       <use xlink:href="#CMMI12-3a" transform="translate(45.690477 0)scale(0.996264)"/>
       <use xlink:href="#CMR17-30" transform="translate(72.787654 0)scale(0.996264)"/>
      </g>
     </g>
    </g>
    <g id="ytick_6">
     <g id="line2d_27">
      <defs>
       <path id="m424fdb4057" d="M 0 0 
L -2 0 
" style="stroke: #000000; stroke-width: 0.6"/>
      </defs>
      <g>
       <use xlink:href="#m424fdb4057" x="226.253777" y="309.133492" style="stroke: #000000; stroke-width: 0.6"/>
      </g>
     </g>
    </g>
    <g id="ytick_7">
     <g id="line2d_28">
      <g>
       <use xlink:href="#m424fdb4057" x="226.253777" y="293.569102" style="stroke: #000000; stroke-width: 0.6"/>
      </g>
     </g>
    </g>
    <g id="ytick_8">
     <g id="line2d_29">
      <g>
       <use xlink:href="#m424fdb4057" x="226.253777" y="278.004712" style="stroke: #000000; stroke-width: 0.6"/>
      </g>
     </g>
    </g>
    <g id="ytick_9">
     <g id="line2d_30">
      <g>
       <use xlink:href="#m424fdb4057" x="226.253777" y="262.440322" style="stroke: #000000; stroke-width: 0.6"/>
      </g>
     </g>
    </g>
    <g id="ytick_10">
     <g id="line2d_31">
      <g>
       <use xlink:href="#m424fdb4057" x="226.253777" y="231.311542" style="stroke: #000000; stroke-width: 0.6"/>
      </g>
     </g>
    </g>
    <g id="ytick_11">
     <g id="line2d_32">
      <g>
       <use xlink:href="#m424fdb4057" x="226.253777" y="215.747153" style="stroke: #000000; stroke-width: 0.6"/>
      </g>
     </g>
    </g>
    <g id="ytick_12">
     <g id="line2d_33">
      <g>
       <use xlink:href="#m424fdb4057" x="226.253777" y="200.182763" style="stroke: #000000; stroke-width: 0.6"/>
      </g>
     </g>
    </g>
    <g id="ytick_13">
     <g id="line2d_34">
      <g>
       <use xlink:href="#m424fdb4057" x="226.253777" y="184.618373" style="stroke: #000000; stroke-width: 0.6"/>
      </g>
     </g>
    </g>
    <g id="ytick_14">
     <g id="line2d_35">
      <g>
       <use xlink:href="#m424fdb4057" x="226.253777" y="153.489593" style="stroke: #000000; stroke-width: 0.6"/>
      </g>
     </g>
    </g>
    <g id="ytick_15">
     <g id="line2d_36">
      <g>
       <use xlink:href="#m424fdb4057" x="226.253777" y="137.925203" style="stroke: #000000; stroke-width: 0.6"/>
      </g>
     </g>
    </g>
    <g id="ytick_16">
     <g id="line2d_37">
      <g>
       <use xlink:href="#m424fdb4057" x="226.253777" y="122.360813" style="stroke: #000000; stroke-width: 0.6"/>
      </g>
     </g>
    </g>
    <g id="ytick_17">
     <g id="line2d_38">
      <g>
       <use xlink:href="#m424fdb4057" x="226.253777" y="106.796423" style="stroke: #000000; stroke-width: 0.6"/>
      </g>
     </g>
    </g>
    <g id="ytick_18">
     <g id="line2d_39">
      <g>
       <use xlink:href="#m424fdb4057" x="226.253777" y="75.667644" style="stroke: #000000; stroke-width: 0.6"/>
      </g>
     </g>
    </g>
    <g id="ytick_19">
     <g id="line2d_40">
      <g>
       <use xlink:href="#m424fdb4057" x="226.253777" y="60.103254" style="stroke: #000000; stroke-width: 0.6"/>
      </g>
     </g>
    </g>
    <g id="ytick_20">
     <g id="line2d_41">
      <g>
       <use xlink:href="#m424fdb4057" x="226.253777" y="44.538864" style="stroke: #000000; stroke-width: 0.6"/>
      </g>
     </g>
    </g>
    <g id="ytick_21">
     <g id="line2d_42">
      <g>
       <use xlink:href="#m424fdb4057" x="226.253777" y="28.974474" style="stroke: #000000; stroke-width: 0.6"/>
      </g>
     </g>
    </g>
   </g>
   <g id="line2d_43">
    <path d="M 16.055707 84.380416 
L 20.221158 111.748523 
L 25.492883 149.455144 
L 33.935294 211.376215 
L 38.463446 242.414925 
L 41.439569 261.051624 
L 44.077478 276.04219 
L 46.781521 289.660114 
L 48.134856 295.740114 
L 49.928959 302.987122 
L 52.136377 310.560717 
L 53.926738 315.561594 
L 55.360222 318.80138 
L 56.793706 321.34499 
L 57.799825 322.707992 
L 58.805943 323.719027 
L 59.851427 324.39425 
L 60.89691 324.685261 
L 61.984426 324.579514 
L 63.071942 324.057551 
L 64.523194 322.715279 
L 66.104184 320.420026 
L 67.685175 317.26887 
L 69.22943 313.381671 
L 70.755605 308.774876 
L 72.154919 303.903367 
L 74.003919 296.554031 
L 76.886369 283.154113 
L 79.463714 269.35003 
L 82.925785 248.478027 
L 86.833632 222.367378 
L 89.112067 206.235142 
L 101.701619 114.557057 
L 105.803552 87.321071 
L 108.791139 69.382245 
L 110.909123 57.862835 
L 113.797815 43.990949 
L 116.148437 34.432627 
L 117.753953 28.864343 
L 118.776216 25.743016 
L 120.670356 20.860218 
L 123.016778 16.48256 
L 123.966676 15.248141 
L 124.916574 14.32777 
L 125.866472 13.723326 
L 126.816369 13.436042 
L 127.783208 13.469934 
L 129.436773 14.290269 
L 131.495585 16.648428 
L 132.59062 18.499844 
L 133.685656 20.759762 
L 134.962579 23.902739 
L 136.239502 27.581215 
L 137.431744 31.487206 
L 138.623986 35.835652 
L 140.082994 41.738535 
L 141.855624 49.732315 
L 143.628254 58.574182 
L 147.208281 78.754784 
L 151.459846 106.062582 
L 156.212864 139.57579 
L 167.329804 220.714562 
L 171.304581 247.391767 
L 174.65353 267.736869 
L 175.634035 273.241928 
L 177.870369 284.931516 
L 179.535021 292.788877 
L 181.199674 299.870608 
L 182.57693 305.111594 
L 184.343809 310.977379 
L 186.711075 317.259169 
L 188.505532 320.773165 
L 190.382636 323.266108 
L 191.683007 324.273308 
L 192.983378 324.686647 
L 194.541775 324.397633 
L 196.100173 323.25514 
L 197.095799 322.081106 
L 198.894091 319.092959 
L 200.692384 315.007317 
L 201.894266 311.679318 
L 203.510987 306.469549 
L 205.316856 299.691183 
L 207.784422 288.882223 
L 209.529494 280.232666 
L 212.755805 262.272611 
L 215.315072 246.444351 
L 219.03113 221.488799 
L 223.309477 190.784215 
L 232.043786 126.721218 
L 236.339343 97.206762 
L 239.125561 79.589256 
L 241.627532 65.098246 
L 243.286876 56.287088 
L 244.94622 48.178309 
L 248.056404 35.043839 
L 250.198489 27.686025 
L 251.648873 23.532915 
L 253.099258 20.072374 
L 254.346797 17.662513 
L 255.594335 15.785773 
L 256.756313 14.523111 
L 257.918291 13.73256 
L 258.978386 13.425228 
L 260.24902 13.57832 
L 261.519654 14.299366 
L 263.366938 16.354826 
L 264.864518 18.887249 
L 266.213105 21.820161 
L 267.561693 25.358916 
L 269.327445 30.883666 
L 271.656518 39.654045 
L 273.237568 46.519391 
L 275.85654 59.39582 
L 278.241391 72.605813 
L 280.731287 87.718154 
L 283.394531 105.138601 
L 287.89252 136.733268 
L 299.911065 224.260725 
L 303.550346 248.505079 
L 307.073137 269.71742 
L 309.909527 284.77228 
L 312.608304 297.147191 
L 313.006827 298.800358 
L 315.007023 306.381774 
L 316.430674 311.024527 
L 317.854326 315.016278 
L 319.191085 318.155416 
L 320.527845 320.691738 
L 322.148251 322.943454 
L 324.020475 324.406316 
L 325.68591 324.672632 
L 327.351345 323.962538 
L 329.214248 322.017029 
L 330.209239 320.484661 
L 331.204229 318.613049 
L 332.887012 314.687725 
L 334.169407 311.068455 
L 335.451802 306.92076 
L 337.363557 299.790284 
L 338.744773 293.96242 
L 341.192297 282.328561 
L 342.828031 273.687597 
L 345.975104 255.329997 
L 348.034688 242.243431 
L 352.804563 209.463338 
L 355.353556 190.984096 
L 365.00579 120.414716 
L 368.861885 94.259828 
L 370.939987 81.152596 
L 373.161973 68.090621 
L 375.043612 57.905307 
L 376.658963 49.868582 
L 378.274314 42.535391 
L 380.290242 34.435896 
L 382.435146 27.178282 
L 383.049184 25.369418 
L 384.505581 21.571971 
L 385.961979 18.482253 
L 386.956327 16.787072 
L 387.950676 15.432568 
L 389.033288 14.34874 
L 390.467488 13.545062 
L 391.901689 13.465067 
L 393.356892 14.123929 
L 394.812094 15.525044 
L 395.804265 16.902601 
L 396.796435 18.619089 
L 397.676331 20.421846 
L 399.500327 24.984197 
L 402.016549 33.048844 
L 403.28017 37.841407 
L 404.543791 43.108016 
L 406.447246 51.8938 
L 409.436166 67.596882 
L 412.153722 83.660921 
L 415.959548 108.488959 
L 419.847798 135.893087 
L 433.501074 234.621564 
L 436.451847 253.72755 
L 436.451847 253.72755 
" clip-path="url(#p944a928738)" style="fill: none; stroke: #0000ff; stroke-linecap: square"/>
   </g>
   <g id="patch_3">
    <path d="M 226.253777 330.911875 
L 226.253777 7.2 
" style="fill: none; stroke: #000000; stroke-width: 0.8; stroke-linejoin: miter; stroke-linecap: square"/>
   </g>
   <g id="patch_4">
    <path d="M 7.647784 169.053983 
L 444.85977 169.053983 
" style="fill: none; stroke: #000000; stroke-width: 0.8; stroke-linejoin: miter; stroke-linecap: square"/>
   </g>
  </g>
 </g>
 <defs>
  <clipPath id="p944a928738">
   <rect x="7.647784" y="7.2" width="437.211985" height="323.711875"/>
  </clipPath>
 </defs>
</svg>
