<?xml version="1.0" encoding="utf-8" standalone="no"?>
<!DOCTYPE svg PUBLIC "-//W3C//DTD SVG 1.1//EN"
  "http://www.w3.org/Graphics/SVG/1.1/DTD/svg11.dtd">
<svg xmlns:xlink="http://www.w3.org/1999/xlink" width="453.573125pt" height="337.114942pt" viewBox="0 0 453.573125 337.114942" xmlns="http://www.w3.org/2000/svg" version="1.1">
 <metadata>
  <rdf:RDF xmlns:dc="http://purl.org/dc/elements/1.1/" xmlns:cc="http://creativecommons.org/ns#" xmlns:rdf="http://www.w3.org/1999/02/22-rdf-syntax-ns#">
   <cc:Work>
    <dc:type rdf:resource="http://purl.org/dc/dcmitype/StillImage"/>
    <dc:date>2023-02-08T16:44:52.002045</dc:date>
    <dc:format>image/svg+xml</dc:format>
    <dc:creator>
     <cc:Agent>
      <dc:title>Matplotlib v3.6.2, https://matplotlib.org/</dc:title>
     </cc:Agent>
    </dc:creator>
   </cc:Work>
  </rdf:RDF>
 </metadata>
 <defs>
  <style type="text/css">*{stroke-linejoin: round; stroke-linecap: butt}</style>
 </defs>
 <g id="figure_1">
  <g id="patch_1">
   <path d="M 0 337.114942 
L 453.573125 337.114942 
L 453.573125 0 
L 0 0 
L 0 337.114942 
z
" style="fill: none"/>
  </g>
  <g id="axes_1">
   <g id="patch_2">
    <path d="M 40.103125 319.237538 
L 446.373125 319.237538 
L 446.373125 7.2 
L 40.103125 7.2 
L 40.103125 319.237538 
z
" style="fill: none"/>
   </g>
   <g id="patch_3">
    <path d="M 58.767238 313.236817 
L 58.767238 73.207941 
L 60.227567 79.4991 
L 61.799721 85.913489 
L 63.371874 91.985225 
L 64.441894 95.935509 
L 66.469768 103.047661 
L 68.822384 110.736738 
L 70.204788 114.997984 
L 71.281288 118.194081 
L 73.230456 123.726309 
L 75.937667 130.909139 
L 78.316348 136.785405 
L 79.889936 140.468957 
L 81.877155 144.906659 
L 84.170159 149.75208 
L 85.271769 151.982082 
L 86.767665 154.914617 
L 89.046641 159.182792 
L 90.673269 162.091128 
L 92.630123 165.447611 
L 95.454966 170.038151 
L 97.603747 173.343487 
L 99.559285 176.221677 
L 100.796747 177.982594 
L 102.524033 180.366185 
L 105.140257 183.820644 
L 105.822008 184.691523 
L 108.214597 187.657248 
L 110.75835 190.663852 
L 111.820559 191.877147 
L 113.892889 194.176408 
L 115.910078 196.332329 
L 117.275381 197.74776 
L 119.917566 200.391835 
L 121.647319 202.05822 
L 123.881009 204.13863 
L 124.911824 205.072679 
L 127.78167 207.590834 
L 128.594329 208.282742 
L 131.619815 210.780895 
L 133.922888 212.604249 
L 134.383904 212.961469 
L 137.350847 215.201094 
L 138.890454 216.324306 
L 141.667322 218.286398 
L 141.908068 218.45277 
L 144.108111 219.946562 
L 146.077636 221.244451 
L 147.814616 222.359488 
L 149.749067 223.5699 
L 151.407335 224.582124 
L 154.223931 226.250013 
L 155.652764 227.072351 
L 158.876803 228.871958 
L 160.569601 229.787081 
L 161.096597 230.067935 
L 163.808301 231.483713 
L 166.130093 232.658164 
L 167.69823 233.43248 
L 168.563159 233.853231 
L 171.051865 235.039502 
L 172.461895 235.696007 
L 176.125555 237.351364 
L 176.235545 237.399968 
L 178.563459 238.41427 
L 181.643168 239.715173 
L 182.26282 239.971474 
L 184.589534 240.918103 
L 186.177213 241.550135 
L 187.701227 242.146519 
L 191.249894 243.497474 
L 192.273098 243.877517 
L 194.506852 244.692965 
L 195.889138 245.188043 
L 197.303994 245.687435 
L 200.680954 246.850262 
L 202.810977 247.563348 
L 204.438278 248.097895 
L 205.98326 248.597411 
L 207.307856 249.019612 
L 209.266562 249.633919 
L 211.486235 250.316018 
L 214.119762 251.106556 
L 214.592581 251.246389 
L 216.659316 251.850296 
L 219.941272 252.785485 
L 221.381365 253.186903 
L 222.273275 253.432855 
L 225.053974 254.186889 
L 226.802068 254.651257 
L 229.066719 255.242094 
L 229.958321 255.471453 
L 233.289566 256.312575 
L 235.069201 256.751962 
L 236.63689 257.133439 
L 238.74134 257.637502 
L 240.93649 258.153728 
L 241.267157 258.23066 
L 243.800785 258.813072 
L 245.339621 259.160826 
L 248.5753 259.877738 
L 248.692626 259.903377 
L 250.876747 260.376197 
L 253.422464 260.916824 
L 255.464266 261.342509 
L 257.604559 261.781355 
L 258.640558 261.991121 
L 260.616513 262.386502 
L 263.793988 263.009666 
L 265.549886 263.347522 
L 266.290349 263.488638 
L 268.524861 263.909688 
L 270.460177 264.268642 
L 272.786082 264.693189 
L 274.879962 265.069137 
L 275.497326 265.178873 
L 278.620753 265.726484 
L 281.029351 266.14032 
L 282.036283 266.311198 
L 283.851708 266.616166 
L 285.74144 266.929435 
L 287.339317 267.191054 
L 289.857905 267.597473 
L 292.00202 267.937853 
L 292.986872 268.092503 
L 295.359265 268.460736 
L 297.046751 268.719026 
L 298.622411 268.957524 
L 300.722868 269.271511 
L 302.672946 269.559059 
L 304.667987 269.84937 
L 307.390185 270.239325 
L 307.916607 270.313928 
L 311.50493 270.815636 
L 312.640754 270.972008 
L 314.504456 271.226107 
L 315.563771 271.369178 
L 318.220619 271.723761 
L 319.290012 271.864792 
L 322.483605 272.280317 
L 324.493194 272.537537 
L 325.954573 272.722568 
L 327.446181 272.909699 
L 330.544477 273.292928 
L 331.646334 273.427467 
L 334.486097 273.770066 
L 335.314774 273.868932 
L 338.267295 274.217194 
L 340.199679 274.441809 
L 340.983192 274.532148 
L 343.059616 274.769536 
L 344.116382 274.889236 
L 347.434442 275.26028 
L 347.996467 275.322419 
L 351.376967 275.691926 
L 353.570538 275.927867 
L 355.39047 276.12138 
L 357.330522 276.325467 
L 357.859788 276.380755 
L 359.550133 276.556227 
L 362.186821 276.826627 
L 364.666906 277.077353 
L 366.710426 277.281363 
L 368.489436 277.457102 
L 370.07469 277.61226 
L 371.910254 277.790244 
L 373.845257 277.975954 
L 376.182998 278.197738 
L 376.834803 278.259079 
L 378.805137 278.443206 
L 381.587094 278.699903 
L 382.714321 278.80284 
L 384.485449 278.963343 
L 386.764943 279.167726 
L 389.773546 279.433779 
L 390.247712 279.475332 
L 392.688033 279.687577 
L 395.284073 279.910456 
L 396.396076 280.005022 
L 399.3555 280.2541 
L 401.303077 280.415989 
L 402.797332 280.539124 
L 403.81815 280.622715 
L 406.257351 280.820731 
L 407.678001 280.934956 
L 409.103932 281.0488 
L 411.057021 281.203434 
L 413.247329 281.375093 
L 415.992731 281.587674 
L 418.174938 281.754633 
L 420.045086 281.896321 
L 420.923669 281.962446 
L 422.728673 282.097425 
L 424.79935 282.250842 
L 426.527705 282.377744 
L 429.216301 282.573098 
L 430.844264 282.690188 
L 433.369497 282.870055 
L 434.774578 282.969221 
L 435.729258 283.036231 
L 438.56024 283.233207 
L 438.56024 313.236817 
z
" clip-path="url(#pa2ddeb7eb3)" style="fill: #808080; opacity: 0.5"/>
   </g>
   <g id="matplotlib.axis_1">
    <g id="xtick_1">
     <g id="line2d_1">
      <defs>
       <path id="mb4a506432a" d="M 0 0 
L 0 3.5 
" style="stroke: #000000; stroke-width: 0.8"/>
      </defs>
      <g>
       <use xlink:href="#mb4a506432a" x="58.767238" y="313.236817" style="stroke: #000000; stroke-width: 0.8"/>
      </g>
     </g>
     <g id="text_1">
      <!-- 1 -->
      <g transform="translate(55.585988 327.835254) scale(0.1 -0.1)">
       <defs>
        <path id="DejaVuSans-31" d="M 794 531 
L 1825 531 
L 1825 4091 
L 703 3866 
L 703 4441 
L 1819 4666 
L 2450 4666 
L 2450 531 
L 3481 531 
L 3481 0 
L 794 0 
L 794 531 
z
" transform="scale(0.015625)"/>
       </defs>
       <use xlink:href="#DejaVuSans-31"/>
      </g>
     </g>
    </g>
    <g id="xtick_2">
     <g id="line2d_2">
      <g>
       <use xlink:href="#mb4a506432a" x="113.023381" y="313.236817" style="stroke: #000000; stroke-width: 0.8"/>
      </g>
     </g>
     <g id="text_2">
      <!-- 2 -->
      <g transform="translate(109.842131 327.835254) scale(0.1 -0.1)">
       <defs>
        <path id="DejaVuSans-32" d="M 1228 531 
L 3431 531 
L 3431 0 
L 469 0 
L 469 531 
Q 828 903 1448 1529 
Q 2069 2156 2228 2338 
Q 2531 2678 2651 2914 
Q 2772 3150 2772 3378 
Q 2772 3750 2511 3984 
Q 2250 4219 1831 4219 
Q 1534 4219 1204 4116 
Q 875 4013 500 3803 
L 500 4441 
Q 881 4594 1212 4672 
Q 1544 4750 1819 4750 
Q 2544 4750 2975 4387 
Q 3406 4025 3406 3419 
Q 3406 3131 3298 2873 
Q 3191 2616 2906 2266 
Q 2828 2175 2409 1742 
Q 1991 1309 1228 531 
z
" transform="scale(0.015625)"/>
       </defs>
       <use xlink:href="#DejaVuSans-32"/>
      </g>
     </g>
    </g>
    <g id="xtick_3">
     <g id="line2d_3">
      <g>
       <use xlink:href="#mb4a506432a" x="167.279525" y="313.236817" style="stroke: #000000; stroke-width: 0.8"/>
      </g>
     </g>
     <g id="text_3">
      <!-- 3 -->
      <g transform="translate(164.098275 327.835254) scale(0.1 -0.1)">
       <defs>
        <path id="DejaVuSans-33" d="M 2597 2516 
Q 3050 2419 3304 2112 
Q 3559 1806 3559 1356 
Q 3559 666 3084 287 
Q 2609 -91 1734 -91 
Q 1441 -91 1130 -33 
Q 819 25 488 141 
L 488 750 
Q 750 597 1062 519 
Q 1375 441 1716 441 
Q 2309 441 2620 675 
Q 2931 909 2931 1356 
Q 2931 1769 2642 2001 
Q 2353 2234 1838 2234 
L 1294 2234 
L 1294 2753 
L 1863 2753 
Q 2328 2753 2575 2939 
Q 2822 3125 2822 3475 
Q 2822 3834 2567 4026 
Q 2313 4219 1838 4219 
Q 1578 4219 1281 4162 
Q 984 4106 628 3988 
L 628 4550 
Q 988 4650 1302 4700 
Q 1616 4750 1894 4750 
Q 2613 4750 3031 4423 
Q 3450 4097 3450 3541 
Q 3450 3153 3228 2886 
Q 3006 2619 2597 2516 
z
" transform="scale(0.015625)"/>
       </defs>
       <use xlink:href="#DejaVuSans-33"/>
      </g>
     </g>
    </g>
    <g id="xtick_4">
     <g id="line2d_4">
      <g>
       <use xlink:href="#mb4a506432a" x="221.535668" y="313.236817" style="stroke: #000000; stroke-width: 0.8"/>
      </g>
     </g>
     <g id="text_4">
      <!-- 4 -->
      <g transform="translate(218.354418 327.835254) scale(0.1 -0.1)">
       <defs>
        <path id="DejaVuSans-34" d="M 2419 4116 
L 825 1625 
L 2419 1625 
L 2419 4116 
z
M 2253 4666 
L 3047 4666 
L 3047 1625 
L 3713 1625 
L 3713 1100 
L 3047 1100 
L 3047 0 
L 2419 0 
L 2419 1100 
L 313 1100 
L 313 1709 
L 2253 4666 
z
" transform="scale(0.015625)"/>
       </defs>
       <use xlink:href="#DejaVuSans-34"/>
      </g>
     </g>
    </g>
    <g id="xtick_5">
     <g id="line2d_5">
      <g>
       <use xlink:href="#mb4a506432a" x="275.791811" y="313.236817" style="stroke: #000000; stroke-width: 0.8"/>
      </g>
     </g>
     <g id="text_5">
      <!-- 5 -->
      <g transform="translate(272.610561 327.835254) scale(0.1 -0.1)">
       <defs>
        <path id="DejaVuSans-35" d="M 691 4666 
L 3169 4666 
L 3169 4134 
L 1269 4134 
L 1269 2991 
Q 1406 3038 1543 3061 
Q 1681 3084 1819 3084 
Q 2600 3084 3056 2656 
Q 3513 2228 3513 1497 
Q 3513 744 3044 326 
Q 2575 -91 1722 -91 
Q 1428 -91 1123 -41 
Q 819 9 494 109 
L 494 744 
Q 775 591 1075 516 
Q 1375 441 1709 441 
Q 2250 441 2565 725 
Q 2881 1009 2881 1497 
Q 2881 1984 2565 2268 
Q 2250 2553 1709 2553 
Q 1456 2553 1204 2497 
Q 953 2441 691 2322 
L 691 4666 
z
" transform="scale(0.015625)"/>
       </defs>
       <use xlink:href="#DejaVuSans-35"/>
      </g>
     </g>
    </g>
    <g id="xtick_6">
     <g id="line2d_6">
      <g>
       <use xlink:href="#mb4a506432a" x="330.047954" y="313.236817" style="stroke: #000000; stroke-width: 0.8"/>
      </g>
     </g>
     <g id="text_6">
      <!-- 6 -->
      <g transform="translate(326.866704 327.835254) scale(0.1 -0.1)">
       <defs>
        <path id="DejaVuSans-36" d="M 2113 2584 
Q 1688 2584 1439 2293 
Q 1191 2003 1191 1497 
Q 1191 994 1439 701 
Q 1688 409 2113 409 
Q 2538 409 2786 701 
Q 3034 994 3034 1497 
Q 3034 2003 2786 2293 
Q 2538 2584 2113 2584 
z
M 3366 4563 
L 3366 3988 
Q 3128 4100 2886 4159 
Q 2644 4219 2406 4219 
Q 1781 4219 1451 3797 
Q 1122 3375 1075 2522 
Q 1259 2794 1537 2939 
Q 1816 3084 2150 3084 
Q 2853 3084 3261 2657 
Q 3669 2231 3669 1497 
Q 3669 778 3244 343 
Q 2819 -91 2113 -91 
Q 1303 -91 875 529 
Q 447 1150 447 2328 
Q 447 3434 972 4092 
Q 1497 4750 2381 4750 
Q 2619 4750 2861 4703 
Q 3103 4656 3366 4563 
z
" transform="scale(0.015625)"/>
       </defs>
       <use xlink:href="#DejaVuSans-36"/>
      </g>
     </g>
    </g>
    <g id="xtick_7">
     <g id="line2d_7">
      <g>
       <use xlink:href="#mb4a506432a" x="384.304097" y="313.236817" style="stroke: #000000; stroke-width: 0.8"/>
      </g>
     </g>
     <g id="text_7">
      <!-- 7 -->
      <g transform="translate(381.122847 327.835254) scale(0.1 -0.1)">
       <defs>
        <path id="DejaVuSans-37" d="M 525 4666 
L 3525 4666 
L 3525 4397 
L 1831 0 
L 1172 0 
L 2766 4134 
L 525 4134 
L 525 4666 
z
" transform="scale(0.015625)"/>
       </defs>
       <use xlink:href="#DejaVuSans-37"/>
      </g>
     </g>
    </g>
    <g id="xtick_8">
     <g id="line2d_8">
      <g>
       <use xlink:href="#mb4a506432a" x="438.56024" y="313.236817" style="stroke: #000000; stroke-width: 0.8"/>
      </g>
     </g>
     <g id="text_8">
      <!-- 8 -->
      <g transform="translate(435.37899 327.835254) scale(0.1 -0.1)">
       <defs>
        <path id="DejaVuSans-38" d="M 2034 2216 
Q 1584 2216 1326 1975 
Q 1069 1734 1069 1313 
Q 1069 891 1326 650 
Q 1584 409 2034 409 
Q 2484 409 2743 651 
Q 3003 894 3003 1313 
Q 3003 1734 2745 1975 
Q 2488 2216 2034 2216 
z
M 1403 2484 
Q 997 2584 770 2862 
Q 544 3141 544 3541 
Q 544 4100 942 4425 
Q 1341 4750 2034 4750 
Q 2731 4750 3128 4425 
Q 3525 4100 3525 3541 
Q 3525 3141 3298 2862 
Q 3072 2584 2669 2484 
Q 3125 2378 3379 2068 
Q 3634 1759 3634 1313 
Q 3634 634 3220 271 
Q 2806 -91 2034 -91 
Q 1263 -91 848 271 
Q 434 634 434 1313 
Q 434 1759 690 2068 
Q 947 2378 1403 2484 
z
M 1172 3481 
Q 1172 3119 1398 2916 
Q 1625 2713 2034 2713 
Q 2441 2713 2670 2916 
Q 2900 3119 2900 3481 
Q 2900 3844 2670 4047 
Q 2441 4250 2034 4250 
Q 1625 4250 1398 4047 
Q 1172 3844 1172 3481 
z
" transform="scale(0.015625)"/>
       </defs>
       <use xlink:href="#DejaVuSans-38"/>
      </g>
     </g>
    </g>
    <g id="xtick_9">
     <g id="line2d_9">
      <defs>
       <path id="m200daa15ff" d="M 0 0 
L 0 2 
" style="stroke: #000000; stroke-width: 0.6"/>
      </defs>
      <g>
       <use xlink:href="#m200daa15ff" x="47.91601" y="313.236817" style="stroke: #000000; stroke-width: 0.6"/>
      </g>
     </g>
    </g>
    <g id="xtick_10">
     <g id="line2d_10">
      <g>
       <use xlink:href="#m200daa15ff" x="69.618467" y="313.236817" style="stroke: #000000; stroke-width: 0.6"/>
      </g>
     </g>
    </g>
    <g id="xtick_11">
     <g id="line2d_11">
      <g>
       <use xlink:href="#m200daa15ff" x="80.469696" y="313.236817" style="stroke: #000000; stroke-width: 0.6"/>
      </g>
     </g>
    </g>
    <g id="xtick_12">
     <g id="line2d_12">
      <g>
       <use xlink:href="#m200daa15ff" x="91.320924" y="313.236817" style="stroke: #000000; stroke-width: 0.6"/>
      </g>
     </g>
    </g>
    <g id="xtick_13">
     <g id="line2d_13">
      <g>
       <use xlink:href="#m200daa15ff" x="102.172153" y="313.236817" style="stroke: #000000; stroke-width: 0.6"/>
      </g>
     </g>
    </g>
    <g id="xtick_14">
     <g id="line2d_14">
      <g>
       <use xlink:href="#m200daa15ff" x="123.87461" y="313.236817" style="stroke: #000000; stroke-width: 0.6"/>
      </g>
     </g>
    </g>
    <g id="xtick_15">
     <g id="line2d_15">
      <g>
       <use xlink:href="#m200daa15ff" x="134.725839" y="313.236817" style="stroke: #000000; stroke-width: 0.6"/>
      </g>
     </g>
    </g>
    <g id="xtick_16">
     <g id="line2d_16">
      <g>
       <use xlink:href="#m200daa15ff" x="145.577067" y="313.236817" style="stroke: #000000; stroke-width: 0.6"/>
      </g>
     </g>
    </g>
    <g id="xtick_17">
     <g id="line2d_17">
      <g>
       <use xlink:href="#m200daa15ff" x="156.428296" y="313.236817" style="stroke: #000000; stroke-width: 0.6"/>
      </g>
     </g>
    </g>
    <g id="xtick_18">
     <g id="line2d_18">
      <g>
       <use xlink:href="#m200daa15ff" x="178.130753" y="313.236817" style="stroke: #000000; stroke-width: 0.6"/>
      </g>
     </g>
    </g>
    <g id="xtick_19">
     <g id="line2d_19">
      <g>
       <use xlink:href="#m200daa15ff" x="188.981982" y="313.236817" style="stroke: #000000; stroke-width: 0.6"/>
      </g>
     </g>
    </g>
    <g id="xtick_20">
     <g id="line2d_20">
      <g>
       <use xlink:href="#m200daa15ff" x="199.83321" y="313.236817" style="stroke: #000000; stroke-width: 0.6"/>
      </g>
     </g>
    </g>
    <g id="xtick_21">
     <g id="line2d_21">
      <g>
       <use xlink:href="#m200daa15ff" x="210.684439" y="313.236817" style="stroke: #000000; stroke-width: 0.6"/>
      </g>
     </g>
    </g>
    <g id="xtick_22">
     <g id="line2d_22">
      <g>
       <use xlink:href="#m200daa15ff" x="232.386896" y="313.236817" style="stroke: #000000; stroke-width: 0.6"/>
      </g>
     </g>
    </g>
    <g id="xtick_23">
     <g id="line2d_23">
      <g>
       <use xlink:href="#m200daa15ff" x="243.238125" y="313.236817" style="stroke: #000000; stroke-width: 0.6"/>
      </g>
     </g>
    </g>
    <g id="xtick_24">
     <g id="line2d_24">
      <g>
       <use xlink:href="#m200daa15ff" x="254.089354" y="313.236817" style="stroke: #000000; stroke-width: 0.6"/>
      </g>
     </g>
    </g>
    <g id="xtick_25">
     <g id="line2d_25">
      <g>
       <use xlink:href="#m200daa15ff" x="264.940582" y="313.236817" style="stroke: #000000; stroke-width: 0.6"/>
      </g>
     </g>
    </g>
    <g id="xtick_26">
     <g id="line2d_26">
      <g>
       <use xlink:href="#m200daa15ff" x="286.64304" y="313.236817" style="stroke: #000000; stroke-width: 0.6"/>
      </g>
     </g>
    </g>
    <g id="xtick_27">
     <g id="line2d_27">
      <g>
       <use xlink:href="#m200daa15ff" x="297.494268" y="313.236817" style="stroke: #000000; stroke-width: 0.6"/>
      </g>
     </g>
    </g>
    <g id="xtick_28">
     <g id="line2d_28">
      <g>
       <use xlink:href="#m200daa15ff" x="308.345497" y="313.236817" style="stroke: #000000; stroke-width: 0.6"/>
      </g>
     </g>
    </g>
    <g id="xtick_29">
     <g id="line2d_29">
      <g>
       <use xlink:href="#m200daa15ff" x="319.196725" y="313.236817" style="stroke: #000000; stroke-width: 0.6"/>
      </g>
     </g>
    </g>
    <g id="xtick_30">
     <g id="line2d_30">
      <g>
       <use xlink:href="#m200daa15ff" x="340.899183" y="313.236817" style="stroke: #000000; stroke-width: 0.6"/>
      </g>
     </g>
    </g>
    <g id="xtick_31">
     <g id="line2d_31">
      <g>
       <use xlink:href="#m200daa15ff" x="351.750411" y="313.236817" style="stroke: #000000; stroke-width: 0.6"/>
      </g>
     </g>
    </g>
    <g id="xtick_32">
     <g id="line2d_32">
      <g>
       <use xlink:href="#m200daa15ff" x="362.60164" y="313.236817" style="stroke: #000000; stroke-width: 0.6"/>
      </g>
     </g>
    </g>
    <g id="xtick_33">
     <g id="line2d_33">
      <g>
       <use xlink:href="#m200daa15ff" x="373.452869" y="313.236817" style="stroke: #000000; stroke-width: 0.6"/>
      </g>
     </g>
    </g>
    <g id="xtick_34">
     <g id="line2d_34">
      <g>
       <use xlink:href="#m200daa15ff" x="395.155326" y="313.236817" style="stroke: #000000; stroke-width: 0.6"/>
      </g>
     </g>
    </g>
    <g id="xtick_35">
     <g id="line2d_35">
      <g>
       <use xlink:href="#m200daa15ff" x="406.006554" y="313.236817" style="stroke: #000000; stroke-width: 0.6"/>
      </g>
     </g>
    </g>
    <g id="xtick_36">
     <g id="line2d_36">
      <g>
       <use xlink:href="#m200daa15ff" x="416.857783" y="313.236817" style="stroke: #000000; stroke-width: 0.6"/>
      </g>
     </g>
    </g>
    <g id="xtick_37">
     <g id="line2d_37">
      <g>
       <use xlink:href="#m200daa15ff" x="427.709012" y="313.236817" style="stroke: #000000; stroke-width: 0.6"/>
      </g>
     </g>
    </g>
   </g>
   <g id="matplotlib.axis_2">
    <g id="ytick_1">
     <g id="line2d_38">
      <defs>
       <path id="mb8f1fc3fe2" d="M 0 0 
L -3.5 0 
" style="stroke: #000000; stroke-width: 0.8"/>
      </defs>
      <g>
       <use xlink:href="#mb8f1fc3fe2" x="30.103125" y="313.236817" style="stroke: #000000; stroke-width: 0.8"/>
      </g>
     </g>
     <g id="text_9">
      <!-- 0.0 -->
      <g transform="translate(7.2 317.036035) scale(0.1 -0.1)">
       <defs>
        <path id="DejaVuSans-30" d="M 2034 4250 
Q 1547 4250 1301 3770 
Q 1056 3291 1056 2328 
Q 1056 1369 1301 889 
Q 1547 409 2034 409 
Q 2525 409 2770 889 
Q 3016 1369 3016 2328 
Q 3016 3291 2770 3770 
Q 2525 4250 2034 4250 
z
M 2034 4750 
Q 2819 4750 3233 4129 
Q 3647 3509 3647 2328 
Q 3647 1150 3233 529 
Q 2819 -91 2034 -91 
Q 1250 -91 836 529 
Q 422 1150 422 2328 
Q 422 3509 836 4129 
Q 1250 4750 2034 4750 
z
" transform="scale(0.015625)"/>
        <path id="DejaVuSans-2e" d="M 684 794 
L 1344 794 
L 1344 0 
L 684 0 
L 684 794 
z
" transform="scale(0.015625)"/>
       </defs>
       <use xlink:href="#DejaVuSans-30"/>
       <use xlink:href="#DejaVuSans-2e" x="63.623047"/>
       <use xlink:href="#DejaVuSans-30" x="95.410156"/>
      </g>
     </g>
    </g>
    <g id="ytick_2">
     <g id="line2d_39">
      <g>
       <use xlink:href="#mb8f1fc3fe2" x="30.103125" y="265.231041" style="stroke: #000000; stroke-width: 0.8"/>
      </g>
     </g>
     <g id="text_10">
      <!-- 0.2 -->
      <g transform="translate(7.2 269.03026) scale(0.1 -0.1)">
       <use xlink:href="#DejaVuSans-30"/>
       <use xlink:href="#DejaVuSans-2e" x="63.623047"/>
       <use xlink:href="#DejaVuSans-32" x="95.410156"/>
      </g>
     </g>
    </g>
    <g id="ytick_3">
     <g id="line2d_40">
      <g>
       <use xlink:href="#mb8f1fc3fe2" x="30.103125" y="217.225266" style="stroke: #000000; stroke-width: 0.8"/>
      </g>
     </g>
     <g id="text_11">
      <!-- 0.4 -->
      <g transform="translate(7.2 221.024485) scale(0.1 -0.1)">
       <use xlink:href="#DejaVuSans-30"/>
       <use xlink:href="#DejaVuSans-2e" x="63.623047"/>
       <use xlink:href="#DejaVuSans-34" x="95.410156"/>
      </g>
     </g>
    </g>
    <g id="ytick_4">
     <g id="line2d_41">
      <g>
       <use xlink:href="#mb8f1fc3fe2" x="30.103125" y="169.219491" style="stroke: #000000; stroke-width: 0.8"/>
      </g>
     </g>
     <g id="text_12">
      <!-- 0.6 -->
      <g transform="translate(7.2 173.01871) scale(0.1 -0.1)">
       <use xlink:href="#DejaVuSans-30"/>
       <use xlink:href="#DejaVuSans-2e" x="63.623047"/>
       <use xlink:href="#DejaVuSans-36" x="95.410156"/>
      </g>
     </g>
    </g>
    <g id="ytick_5">
     <g id="line2d_42">
      <g>
       <use xlink:href="#mb8f1fc3fe2" x="30.103125" y="121.213716" style="stroke: #000000; stroke-width: 0.8"/>
      </g>
     </g>
     <g id="text_13">
      <!-- 0.8 -->
      <g transform="translate(7.2 125.012935) scale(0.1 -0.1)">
       <use xlink:href="#DejaVuSans-30"/>
       <use xlink:href="#DejaVuSans-2e" x="63.623047"/>
       <use xlink:href="#DejaVuSans-38" x="95.410156"/>
      </g>
     </g>
    </g>
    <g id="ytick_6">
     <g id="line2d_43">
      <g>
       <use xlink:href="#mb8f1fc3fe2" x="30.103125" y="73.207941" style="stroke: #000000; stroke-width: 0.8"/>
      </g>
     </g>
     <g id="text_14">
      <!-- 1.0 -->
      <g transform="translate(7.2 77.00716) scale(0.1 -0.1)">
       <use xlink:href="#DejaVuSans-31"/>
       <use xlink:href="#DejaVuSans-2e" x="63.623047"/>
       <use xlink:href="#DejaVuSans-30" x="95.410156"/>
      </g>
     </g>
    </g>
    <g id="ytick_7">
     <g id="line2d_44">
      <g>
       <use xlink:href="#mb8f1fc3fe2" x="30.103125" y="25.202166" style="stroke: #000000; stroke-width: 0.8"/>
      </g>
     </g>
     <g id="text_15">
      <!-- 1.2 -->
      <g transform="translate(7.2 29.001384) scale(0.1 -0.1)">
       <use xlink:href="#DejaVuSans-31"/>
       <use xlink:href="#DejaVuSans-2e" x="63.623047"/>
       <use xlink:href="#DejaVuSans-32" x="95.410156"/>
      </g>
     </g>
    </g>
    <g id="ytick_8">
     <g id="line2d_45">
      <defs>
       <path id="med032a0d62" d="M 0 0 
L -2 0 
" style="stroke: #000000; stroke-width: 0.6"/>
      </defs>
      <g>
       <use xlink:href="#med032a0d62" x="30.103125" y="301.235373" style="stroke: #000000; stroke-width: 0.6"/>
      </g>
     </g>
    </g>
    <g id="ytick_9">
     <g id="line2d_46">
      <g>
       <use xlink:href="#med032a0d62" x="30.103125" y="289.233929" style="stroke: #000000; stroke-width: 0.6"/>
      </g>
     </g>
    </g>
    <g id="ytick_10">
     <g id="line2d_47">
      <g>
       <use xlink:href="#med032a0d62" x="30.103125" y="277.232485" style="stroke: #000000; stroke-width: 0.6"/>
      </g>
     </g>
    </g>
    <g id="ytick_11">
     <g id="line2d_48">
      <g>
       <use xlink:href="#med032a0d62" x="30.103125" y="253.229598" style="stroke: #000000; stroke-width: 0.6"/>
      </g>
     </g>
    </g>
    <g id="ytick_12">
     <g id="line2d_49">
      <g>
       <use xlink:href="#med032a0d62" x="30.103125" y="241.228154" style="stroke: #000000; stroke-width: 0.6"/>
      </g>
     </g>
    </g>
    <g id="ytick_13">
     <g id="line2d_50">
      <g>
       <use xlink:href="#med032a0d62" x="30.103125" y="229.22671" style="stroke: #000000; stroke-width: 0.6"/>
      </g>
     </g>
    </g>
    <g id="ytick_14">
     <g id="line2d_51">
      <g>
       <use xlink:href="#med032a0d62" x="30.103125" y="205.223822" style="stroke: #000000; stroke-width: 0.6"/>
      </g>
     </g>
    </g>
    <g id="ytick_15">
     <g id="line2d_52">
      <g>
       <use xlink:href="#med032a0d62" x="30.103125" y="193.222379" style="stroke: #000000; stroke-width: 0.6"/>
      </g>
     </g>
    </g>
    <g id="ytick_16">
     <g id="line2d_53">
      <g>
       <use xlink:href="#med032a0d62" x="30.103125" y="181.220935" style="stroke: #000000; stroke-width: 0.6"/>
      </g>
     </g>
    </g>
    <g id="ytick_17">
     <g id="line2d_54">
      <g>
       <use xlink:href="#med032a0d62" x="30.103125" y="157.218047" style="stroke: #000000; stroke-width: 0.6"/>
      </g>
     </g>
    </g>
    <g id="ytick_18">
     <g id="line2d_55">
      <g>
       <use xlink:href="#med032a0d62" x="30.103125" y="145.216604" style="stroke: #000000; stroke-width: 0.6"/>
      </g>
     </g>
    </g>
    <g id="ytick_19">
     <g id="line2d_56">
      <g>
       <use xlink:href="#med032a0d62" x="30.103125" y="133.21516" style="stroke: #000000; stroke-width: 0.6"/>
      </g>
     </g>
    </g>
    <g id="ytick_20">
     <g id="line2d_57">
      <g>
       <use xlink:href="#med032a0d62" x="30.103125" y="109.212272" style="stroke: #000000; stroke-width: 0.6"/>
      </g>
     </g>
    </g>
    <g id="ytick_21">
     <g id="line2d_58">
      <g>
       <use xlink:href="#med032a0d62" x="30.103125" y="97.210828" style="stroke: #000000; stroke-width: 0.6"/>
      </g>
     </g>
    </g>
    <g id="ytick_22">
     <g id="line2d_59">
      <g>
       <use xlink:href="#med032a0d62" x="30.103125" y="85.209385" style="stroke: #000000; stroke-width: 0.6"/>
      </g>
     </g>
    </g>
    <g id="ytick_23">
     <g id="line2d_60">
      <g>
       <use xlink:href="#med032a0d62" x="30.103125" y="61.206497" style="stroke: #000000; stroke-width: 0.6"/>
      </g>
     </g>
    </g>
    <g id="ytick_24">
     <g id="line2d_61">
      <g>
       <use xlink:href="#med032a0d62" x="30.103125" y="49.205053" style="stroke: #000000; stroke-width: 0.6"/>
      </g>
     </g>
    </g>
    <g id="ytick_25">
     <g id="line2d_62">
      <g>
       <use xlink:href="#med032a0d62" x="30.103125" y="37.203609" style="stroke: #000000; stroke-width: 0.6"/>
      </g>
     </g>
    </g>
    <g id="ytick_26">
     <g id="line2d_63">
      <g>
       <use xlink:href="#med032a0d62" x="30.103125" y="13.200722" style="stroke: #000000; stroke-width: 0.6"/>
      </g>
     </g>
    </g>
   </g>
   <g id="line2d_64">
    <path d="M 58.767238 313.236817 
L 58.767238 73.207941 
" clip-path="url(#pa2ddeb7eb3)" style="fill: none; stroke: #000000; stroke-linecap: square"/>
   </g>
   <g id="line2d_65">
    <path d="M 58.767238 73.207941 
L 61.799721 85.913489 
L 64.441894 95.935509 
L 66.469768 103.047661 
L 70.204788 114.997984 
L 73.230456 123.726309 
L 75.937667 130.909139 
L 79.889936 140.468957 
L 81.877155 144.906659 
L 85.271769 151.982082 
L 89.046641 159.182792 
L 92.630123 165.447611 
L 97.603747 173.343487 
L 100.796747 177.982594 
L 105.140257 183.820644 
L 108.214597 187.657248 
L 111.820559 191.877147 
L 115.910078 196.332329 
L 119.917566 200.391835 
L 124.911824 205.072679 
L 128.594329 208.282742 
L 134.383904 212.961469 
L 138.890454 216.324306 
L 144.108111 219.946562 
L 149.749067 223.5699 
L 155.652764 227.072351 
L 161.096597 230.067935 
L 168.563159 233.853231 
L 176.235545 237.399968 
L 182.26282 239.971474 
L 187.701227 242.146519 
L 197.303994 245.687435 
L 207.307856 249.019612 
L 216.659316 251.850296 
L 226.802068 254.651257 
L 236.63689 257.133439 
L 245.339621 259.160826 
L 257.604559 261.781355 
L 268.524861 263.909688 
L 282.036283 266.311198 
L 295.359265 268.460736 
L 307.916607 270.313928 
L 324.493194 272.537537 
L 340.983192 274.532148 
L 359.550133 276.556227 
L 378.805137 278.443206 
L 401.303077 280.415989 
L 424.79935 282.250842 
L 438.56024 283.233207 
L 438.56024 283.233207 
" clip-path="url(#pa2ddeb7eb3)" style="fill: none; stroke: #0000ff; stroke-linecap: square"/>
   </g>
   <g id="line2d_66">
    <path d="M 47.91601 13.200722 
L 50.429778 29.625872 
L 52.642074 42.661788 
L 54.726496 53.893252 
L 57.080348 65.505673 
L 59.441946 76.156182 
L 61.621819 85.205368 
L 64.638935 96.647611 
L 67.975544 108.03467 
L 69.574714 113.078244 
L 72.954628 122.96258 
L 76.418645 132.128699 
L 80.151865 141.067217 
L 84.406394 150.235473 
L 88.270352 157.755004 
L 93.291981 166.549374 
L 96.078727 171.013623 
L 101.087552 178.389863 
L 105.224672 183.929116 
L 108.74177 188.292399 
L 111.94102 192.013227 
L 117.875092 198.358712 
L 121.68812 202.096932 
L 127.701762 207.522306 
L 133.655458 212.39586 
L 138.663124 216.160081 
L 143.390987 219.464846 
L 149.682092 223.528532 
L 155.187097 226.806059 
L 160.978137 230.004968 
L 168.742593 233.939963 
L 175.847402 237.228169 
L 183.623053 240.527874 
L 191.237726 243.492929 
L 199.464141 246.435906 
L 206.661435 248.814263 
L 214.289792 251.156914 
L 223.238863 253.696863 
L 233.075025 256.259143 
L 244.27708 258.921184 
L 255.773451 261.406366 
L 266.794956 263.584348 
L 280.649543 266.075542 
L 294.347525 268.304435 
L 310.756117 270.71191 
L 326.443346 272.784078 
L 345.137681 275.004214 
L 363.473865 276.957174 
L 385.281044 279.034955 
L 407.882578 280.951339 
L 431.959616 282.769894 
L 438.56024 283.233207 
L 438.56024 283.233207 
" clip-path="url(#pa2ddeb7eb3)" style="fill: none; stroke: #0000ff; stroke-width: 2; stroke-linecap: square"/>
   </g>
   <g id="patch_4">
    <path d="M 30.103125 319.237538 
L 30.103125 7.2 
" style="fill: none; stroke: #000000; stroke-width: 0.8; stroke-linejoin: miter; stroke-linecap: square"/>
   </g>
   <g id="patch_5">
    <path d="M 40.103125 313.236817 
L 446.373125 313.236817 
" style="fill: none; stroke: #000000; stroke-width: 0.8; stroke-linejoin: miter; stroke-linecap: square"/>
   </g>
  </g>
 </g>
 <defs>
  <clipPath id="pa2ddeb7eb3">
   <rect x="40.103125" y="7.2" width="406.27" height="312.037538"/>
  </clipPath>
 </defs>
</svg>
