<?xml version="1.0" encoding="utf-8" standalone="no"?>
<!DOCTYPE svg PUBLIC "-//W3C//DTD SVG 1.1//EN"
  "http://www.w3.org/Graphics/SVG/1.1/DTD/svg11.dtd">
<svg xmlns:xlink="http://www.w3.org/1999/xlink" width="452.05977pt" height="338.120764pt" viewBox="0 0 452.05977 338.120764" xmlns="http://www.w3.org/2000/svg" version="1.1">
 <metadata>
  <rdf:RDF xmlns:dc="http://purl.org/dc/elements/1.1/" xmlns:cc="http://creativecommons.org/ns#" xmlns:rdf="http://www.w3.org/1999/02/22-rdf-syntax-ns#">
   <cc:Work>
    <dc:type rdf:resource="http://purl.org/dc/dcmitype/StillImage"/>
    <dc:date>2023-10-04T16:46:04.392833</dc:date>
    <dc:format>image/svg+xml</dc:format>
    <dc:creator>
     <cc:Agent>
      <dc:title>Matplotlib v3.8.0, https://matplotlib.org/</dc:title>
     </cc:Agent>
    </dc:creator>
   </cc:Work>
  </rdf:RDF>
 </metadata>
 <defs>
  <style type="text/css">*{stroke-linejoin: round; stroke-linecap: butt}</style>
 </defs>
 <g id="figure_1">
  <g id="patch_1">
   <path d="M 0 338.120764 
L 452.05977 338.120764 
L 452.05977 0 
L 0 0 
L 0 338.120764 
z
" style="fill: none"/>
  </g>
  <g id="axes_1">
   <g id="patch_2">
    <path d="M 7.647784 330.920764 
L 444.85977 330.920764 
L 444.85977 7.2 
L 7.647784 7.2 
L 7.647784 330.920764 
z
" style="fill: none"/>
   </g>
   <g id="matplotlib.axis_1">
    <g id="xtick_1">
     <g id="line2d_1">
      <defs>
       <path id="m82635ebdd7" d="M 0 0 
L 0 3.5 
" style="stroke: #000000; stroke-width: 0.8"/>
      </defs>
      <g>
       <use xlink:href="#m82635ebdd7" x="16.055707" y="169.058647" style="stroke: #000000; stroke-width: 0.8"/>
      </g>
     </g>
     <g id="text_1">
      <!-- $\mathdefault{−10}$ -->
      <g transform="translate(7.2 182.977145) scale(0.1 -0.1)">
       <defs>
        <path id="CMSY10-0" d="M 4218 1472 
C 4326 1472 4442 1472 4442 1600 
C 4442 1728 4326 1728 4218 1728 
L 755 1728 
C 646 1728 531 1728 531 1600 
C 531 1472 646 1472 755 1472 
L 4218 1472 
z
" transform="scale(0.015625)"/>
        <path id="CMR17-31" d="M 1702 4083 
C 1702 4217 1696 4224 1606 4224 
C 1357 3927 979 3833 621 3820 
C 602 3820 570 3820 563 3808 
C 557 3795 557 3782 557 3648 
C 755 3648 1088 3686 1344 3839 
L 1344 467 
C 1344 243 1331 166 781 166 
L 589 166 
L 589 0 
C 896 6 1216 12 1523 12 
C 1830 12 2150 6 2458 0 
L 2458 166 
L 2266 166 
C 1715 166 1702 236 1702 467 
L 1702 4083 
z
" transform="scale(0.015625)"/>
        <path id="CMR17-30" d="M 2688 2038 
C 2688 2430 2682 3099 2413 3613 
C 2176 4063 1798 4224 1466 4224 
C 1158 4224 768 4082 525 3620 
C 269 3137 243 2539 243 2038 
C 243 1671 250 1112 448 623 
C 723 -39 1216 -128 1466 -128 
C 1760 -128 2208 -7 2470 604 
C 2662 1048 2688 1568 2688 2038 
z
M 1466 -26 
C 1056 -26 813 328 723 816 
C 653 1196 653 1749 653 2109 
C 653 2604 653 3015 736 3407 
C 858 3954 1216 4121 1466 4121 
C 1728 4121 2067 3947 2189 3420 
C 2272 3054 2278 2623 2278 2109 
C 2278 1691 2278 1176 2202 797 
C 2067 96 1690 -26 1466 -26 
z
" transform="scale(0.015625)"/>
       </defs>
       <use xlink:href="#CMSY10-0" transform="scale(0.996264)"/>
       <use xlink:href="#CMR17-31" transform="translate(77.487468 0) scale(0.996264)"/>
       <use xlink:href="#CMR17-30" transform="translate(123.177945 0) scale(0.996264)"/>
      </g>
     </g>
    </g>
    <g id="xtick_2">
     <g id="line2d_2">
      <g>
       <use xlink:href="#m82635ebdd7" x="121.154742" y="169.058647" style="stroke: #000000; stroke-width: 0.8"/>
      </g>
     </g>
     <g id="text_2">
      <!-- $\mathdefault{−5}$ -->
      <g transform="translate(114.789703 182.977145) scale(0.1 -0.1)">
       <defs>
        <path id="CMR17-35" d="M 730 3750 
C 794 3724 1056 3641 1325 3641 
C 1920 3641 2246 3961 2432 4140 
C 2432 4191 2432 4224 2394 4224 
C 2387 4224 2374 4224 2323 4198 
C 2099 4102 1837 4032 1517 4032 
C 1325 4032 1037 4055 723 4191 
C 653 4224 640 4224 634 4224 
C 602 4224 595 4217 595 4090 
L 595 2231 
C 595 2113 595 2080 659 2080 
C 691 2080 704 2093 736 2139 
C 941 2435 1222 2560 1542 2560 
C 1766 2560 2246 2415 2246 1293 
C 2246 1087 2246 716 2054 422 
C 1894 159 1645 25 1370 25 
C 947 25 518 319 403 812 
C 429 806 480 793 506 793 
C 589 793 749 838 749 1036 
C 749 1209 627 1280 506 1280 
C 358 1280 262 1190 262 1011 
C 262 454 704 -128 1382 -128 
C 2042 -128 2669 441 2669 1267 
C 2669 2054 2170 2662 1549 2662 
C 1222 2662 947 2540 730 2304 
L 730 3750 
z
" transform="scale(0.015625)"/>
       </defs>
       <use xlink:href="#CMSY10-0" transform="scale(0.996264)"/>
       <use xlink:href="#CMR17-35" transform="translate(77.487468 0) scale(0.996264)"/>
      </g>
     </g>
    </g>
    <g id="xtick_3">
     <g id="line2d_3">
      <g>
       <use xlink:href="#m82635ebdd7" x="226.253777" y="169.058647" style="stroke: #000000; stroke-width: 0.8"/>
      </g>
     </g>
    </g>
    <g id="xtick_4">
     <g id="line2d_4">
      <g>
       <use xlink:href="#m82635ebdd7" x="331.352812" y="169.058647" style="stroke: #000000; stroke-width: 0.8"/>
      </g>
     </g>
     <g id="text_3">
      <!-- $\mathdefault{5}$ -->
      <g transform="translate(328.862144 182.977145) scale(0.1 -0.1)">
       <use xlink:href="#CMR17-35" transform="scale(0.996264)"/>
      </g>
     </g>
    </g>
    <g id="xtick_5">
     <g id="line2d_5">
      <g>
       <use xlink:href="#m82635ebdd7" x="436.451847" y="169.058647" style="stroke: #000000; stroke-width: 0.8"/>
      </g>
     </g>
     <g id="text_4">
      <!-- $\mathdefault{10}$ -->
      <g transform="translate(431.470511 182.977145) scale(0.1 -0.1)">
       <use xlink:href="#CMR17-31" transform="scale(0.996264)"/>
       <use xlink:href="#CMR17-30" transform="translate(45.690477 0) scale(0.996264)"/>
      </g>
     </g>
    </g>
    <g id="xtick_6">
     <g id="line2d_6">
      <defs>
       <path id="m0b7f2bc13b" d="M 0 0 
L 0 2 
" style="stroke: #000000; stroke-width: 0.6"/>
      </defs>
      <g>
       <use xlink:href="#m0b7f2bc13b" x="37.075514" y="169.058647" style="stroke: #000000; stroke-width: 0.6"/>
      </g>
     </g>
    </g>
    <g id="xtick_7">
     <g id="line2d_7">
      <g>
       <use xlink:href="#m0b7f2bc13b" x="58.095321" y="169.058647" style="stroke: #000000; stroke-width: 0.6"/>
      </g>
     </g>
    </g>
    <g id="xtick_8">
     <g id="line2d_8">
      <g>
       <use xlink:href="#m0b7f2bc13b" x="79.115128" y="169.058647" style="stroke: #000000; stroke-width: 0.6"/>
      </g>
     </g>
    </g>
    <g id="xtick_9">
     <g id="line2d_9">
      <g>
       <use xlink:href="#m0b7f2bc13b" x="100.134935" y="169.058647" style="stroke: #000000; stroke-width: 0.6"/>
      </g>
     </g>
    </g>
    <g id="xtick_10">
     <g id="line2d_10">
      <g>
       <use xlink:href="#m0b7f2bc13b" x="142.174549" y="169.058647" style="stroke: #000000; stroke-width: 0.6"/>
      </g>
     </g>
    </g>
    <g id="xtick_11">
     <g id="line2d_11">
      <g>
       <use xlink:href="#m0b7f2bc13b" x="163.194356" y="169.058647" style="stroke: #000000; stroke-width: 0.6"/>
      </g>
     </g>
    </g>
    <g id="xtick_12">
     <g id="line2d_12">
      <g>
       <use xlink:href="#m0b7f2bc13b" x="184.214163" y="169.058647" style="stroke: #000000; stroke-width: 0.6"/>
      </g>
     </g>
    </g>
    <g id="xtick_13">
     <g id="line2d_13">
      <g>
       <use xlink:href="#m0b7f2bc13b" x="205.23397" y="169.058647" style="stroke: #000000; stroke-width: 0.6"/>
      </g>
     </g>
    </g>
    <g id="xtick_14">
     <g id="line2d_14">
      <g>
       <use xlink:href="#m0b7f2bc13b" x="247.273584" y="169.058647" style="stroke: #000000; stroke-width: 0.6"/>
      </g>
     </g>
    </g>
    <g id="xtick_15">
     <g id="line2d_15">
      <g>
       <use xlink:href="#m0b7f2bc13b" x="268.293391" y="169.058647" style="stroke: #000000; stroke-width: 0.6"/>
      </g>
     </g>
    </g>
    <g id="xtick_16">
     <g id="line2d_16">
      <g>
       <use xlink:href="#m0b7f2bc13b" x="289.313198" y="169.058647" style="stroke: #000000; stroke-width: 0.6"/>
      </g>
     </g>
    </g>
    <g id="xtick_17">
     <g id="line2d_17">
      <g>
       <use xlink:href="#m0b7f2bc13b" x="310.333005" y="169.058647" style="stroke: #000000; stroke-width: 0.6"/>
      </g>
     </g>
    </g>
    <g id="xtick_18">
     <g id="line2d_18">
      <g>
       <use xlink:href="#m0b7f2bc13b" x="352.372619" y="169.058647" style="stroke: #000000; stroke-width: 0.6"/>
      </g>
     </g>
    </g>
    <g id="xtick_19">
     <g id="line2d_19">
      <g>
       <use xlink:href="#m0b7f2bc13b" x="373.392426" y="169.058647" style="stroke: #000000; stroke-width: 0.6"/>
      </g>
     </g>
    </g>
    <g id="xtick_20">
     <g id="line2d_20">
      <g>
       <use xlink:href="#m0b7f2bc13b" x="394.412233" y="169.058647" style="stroke: #000000; stroke-width: 0.6"/>
      </g>
     </g>
    </g>
    <g id="xtick_21">
     <g id="line2d_21">
      <g>
       <use xlink:href="#m0b7f2bc13b" x="415.43204" y="169.058647" style="stroke: #000000; stroke-width: 0.6"/>
      </g>
     </g>
    </g>
   </g>
   <g id="matplotlib.axis_2">
    <g id="ytick_1">
     <g id="line2d_22">
      <defs>
       <path id="mb281d37d26" d="M 0 0 
L -3.5 0 
" style="stroke: #000000; stroke-width: 0.8"/>
      </defs>
      <g>
       <use xlink:href="#mb281d37d26" x="226.253777" y="324.695787" style="stroke: #000000; stroke-width: 0.8"/>
      </g>
     </g>
     <g id="text_5">
      <!-- $\mathdefault{−1.0}$ -->
      <g transform="translate(198.774954 328.155036) scale(0.1 -0.1)">
       <defs>
        <path id="CMMI12-3a" d="M 1178 307 
C 1178 492 1024 620 870 620 
C 685 620 557 467 557 313 
C 557 128 710 0 864 0 
C 1050 0 1178 153 1178 307 
z
" transform="scale(0.015625)"/>
       </defs>
       <use xlink:href="#CMSY10-0" transform="scale(0.996264)"/>
       <use xlink:href="#CMR17-31" transform="translate(77.487468 0) scale(0.996264)"/>
       <use xlink:href="#CMMI12-3a" transform="translate(123.177945 0) scale(0.996264)"/>
       <use xlink:href="#CMR17-30" transform="translate(150.275122 0) scale(0.996264)"/>
      </g>
     </g>
    </g>
    <g id="ytick_2">
     <g id="line2d_23">
      <g>
       <use xlink:href="#mb281d37d26" x="226.253777" y="246.877217" style="stroke: #000000; stroke-width: 0.8"/>
      </g>
     </g>
     <g id="text_6">
      <!-- $\mathdefault{−0.5}$ -->
      <g transform="translate(198.774954 250.336466) scale(0.1 -0.1)">
       <use xlink:href="#CMSY10-0" transform="scale(0.996264)"/>
       <use xlink:href="#CMR17-30" transform="translate(77.487468 0) scale(0.996264)"/>
       <use xlink:href="#CMMI12-3a" transform="translate(123.177945 0) scale(0.996264)"/>
       <use xlink:href="#CMR17-35" transform="translate(150.275122 0) scale(0.996264)"/>
      </g>
     </g>
    </g>
    <g id="ytick_3">
     <g id="line2d_24">
      <g>
       <use xlink:href="#mb281d37d26" x="226.253777" y="169.058647" style="stroke: #000000; stroke-width: 0.8"/>
      </g>
     </g>
    </g>
    <g id="ytick_4">
     <g id="line2d_25">
      <g>
       <use xlink:href="#mb281d37d26" x="226.253777" y="91.240077" style="stroke: #000000; stroke-width: 0.8"/>
      </g>
     </g>
     <g id="text_7">
      <!-- $\mathdefault{0.5}$ -->
      <g transform="translate(206.523698 94.699326) scale(0.1 -0.1)">
       <use xlink:href="#CMR17-30" transform="scale(0.996264)"/>
       <use xlink:href="#CMMI12-3a" transform="translate(45.690477 0) scale(0.996264)"/>
       <use xlink:href="#CMR17-35" transform="translate(72.787654 0) scale(0.996264)"/>
      </g>
     </g>
    </g>
    <g id="ytick_5">
     <g id="line2d_26">
      <g>
       <use xlink:href="#mb281d37d26" x="226.253777" y="13.421507" style="stroke: #000000; stroke-width: 0.8"/>
      </g>
     </g>
     <g id="text_8">
      <!-- $\mathdefault{1.0}$ -->
      <g transform="translate(206.523698 16.880756) scale(0.1 -0.1)">
       <use xlink:href="#CMR17-31" transform="scale(0.996264)"/>
       <use xlink:href="#CMMI12-3a" transform="translate(45.690477 0) scale(0.996264)"/>
       <use xlink:href="#CMR17-30" transform="translate(72.787654 0) scale(0.996264)"/>
      </g>
     </g>
    </g>
    <g id="ytick_6">
     <g id="line2d_27">
      <defs>
       <path id="m245e848f7f" d="M 0 0 
L -2 0 
" style="stroke: #000000; stroke-width: 0.6"/>
      </defs>
      <g>
       <use xlink:href="#m245e848f7f" x="226.253777" y="309.132073" style="stroke: #000000; stroke-width: 0.6"/>
      </g>
     </g>
    </g>
    <g id="ytick_7">
     <g id="line2d_28">
      <g>
       <use xlink:href="#m245e848f7f" x="226.253777" y="293.568359" style="stroke: #000000; stroke-width: 0.6"/>
      </g>
     </g>
    </g>
    <g id="ytick_8">
     <g id="line2d_29">
      <g>
       <use xlink:href="#m245e848f7f" x="226.253777" y="278.004645" style="stroke: #000000; stroke-width: 0.6"/>
      </g>
     </g>
    </g>
    <g id="ytick_9">
     <g id="line2d_30">
      <g>
       <use xlink:href="#m245e848f7f" x="226.253777" y="262.440931" style="stroke: #000000; stroke-width: 0.6"/>
      </g>
     </g>
    </g>
    <g id="ytick_10">
     <g id="line2d_31">
      <g>
       <use xlink:href="#m245e848f7f" x="226.253777" y="231.313503" style="stroke: #000000; stroke-width: 0.6"/>
      </g>
     </g>
    </g>
    <g id="ytick_11">
     <g id="line2d_32">
      <g>
       <use xlink:href="#m245e848f7f" x="226.253777" y="215.749789" style="stroke: #000000; stroke-width: 0.6"/>
      </g>
     </g>
    </g>
    <g id="ytick_12">
     <g id="line2d_33">
      <g>
       <use xlink:href="#m245e848f7f" x="226.253777" y="200.186075" style="stroke: #000000; stroke-width: 0.6"/>
      </g>
     </g>
    </g>
    <g id="ytick_13">
     <g id="line2d_34">
      <g>
       <use xlink:href="#m245e848f7f" x="226.253777" y="184.622361" style="stroke: #000000; stroke-width: 0.6"/>
      </g>
     </g>
    </g>
    <g id="ytick_14">
     <g id="line2d_35">
      <g>
       <use xlink:href="#m245e848f7f" x="226.253777" y="153.494933" style="stroke: #000000; stroke-width: 0.6"/>
      </g>
     </g>
    </g>
    <g id="ytick_15">
     <g id="line2d_36">
      <g>
       <use xlink:href="#m245e848f7f" x="226.253777" y="137.931219" style="stroke: #000000; stroke-width: 0.6"/>
      </g>
     </g>
    </g>
    <g id="ytick_16">
     <g id="line2d_37">
      <g>
       <use xlink:href="#m245e848f7f" x="226.253777" y="122.367505" style="stroke: #000000; stroke-width: 0.6"/>
      </g>
     </g>
    </g>
    <g id="ytick_17">
     <g id="line2d_38">
      <g>
       <use xlink:href="#m245e848f7f" x="226.253777" y="106.803791" style="stroke: #000000; stroke-width: 0.6"/>
      </g>
     </g>
    </g>
    <g id="ytick_18">
     <g id="line2d_39">
      <g>
       <use xlink:href="#m245e848f7f" x="226.253777" y="75.676363" style="stroke: #000000; stroke-width: 0.6"/>
      </g>
     </g>
    </g>
    <g id="ytick_19">
     <g id="line2d_40">
      <g>
       <use xlink:href="#m245e848f7f" x="226.253777" y="60.112649" style="stroke: #000000; stroke-width: 0.6"/>
      </g>
     </g>
    </g>
    <g id="ytick_20">
     <g id="line2d_41">
      <g>
       <use xlink:href="#m245e848f7f" x="226.253777" y="44.548935" style="stroke: #000000; stroke-width: 0.6"/>
      </g>
     </g>
    </g>
    <g id="ytick_21">
     <g id="line2d_42">
      <g>
       <use xlink:href="#m245e848f7f" x="226.253777" y="28.985221" style="stroke: #000000; stroke-width: 0.6"/>
      </g>
     </g>
    </g>
   </g>
   <g id="line2d_43">
    <path d="M 16.055707 299.64934 
L 18.395365 308.246137 
L 20.381893 314.196741 
L 21.880674 317.831421 
L 23.909267 321.543881 
L 25.779224 323.709596 
L 27.649182 324.652182 
L 28.195708 324.695365 
L 29.937418 324.131387 
L 31.533568 322.6799 
L 33.129717 320.343027 
L 34.039592 318.619655 
L 35.289049 315.797267 
L 36.538506 312.456555 
L 37.885511 308.288025 
L 39.232516 303.547933 
L 41.233094 295.495408 
L 43.043645 287.219009 
L 45.140182 276.545043 
L 47.429639 263.672478 
L 49.099847 253.565048 
L 52.901817 228.675331 
L 57.472655 196.254606 
L 67.683348 121.561796 
L 72.020025 92.207241 
L 73.579744 82.385422 
L 76.521612 65.199715 
L 78.476933 54.881578 
L 80.050452 47.291189 
L 81.623971 40.382848 
L 82.945186 35.137393 
L 85.328935 27.024223 
L 86.391468 23.990431 
L 87.572245 21.05409 
L 89.215364 17.746691 
L 90.858484 15.36342 
L 91.620115 14.576434 
L 93.434884 13.519922 
L 95.249652 13.622065 
L 96.473752 14.345283 
L 97.87491 15.816719 
L 99.276068 17.968822 
L 100.394525 20.168933 
L 102.251616 24.749288 
L 104.214432 30.813177 
L 106.282384 38.503787 
L 107.804474 44.975695 
L 109.326565 52.097951 
L 111.407584 62.819657 
L 112.88309 71.058648 
L 114.938091 83.328432 
L 117.073457 96.94376 
L 121.787361 129.421294 
L 129.167933 183.606559 
L 134.847542 224.440552 
L 137.347306 241.306191 
L 140.307808 259.942237 
L 143.531848 278.178329 
L 146.155862 291.147032 
L 148.262498 300.192224 
L 150.442806 308.16686 
L 151.657844 311.966933 
L 152.872881 315.289632 
L 154.289321 318.545775 
L 155.705762 321.123373 
L 156.659634 322.470861 
L 157.613506 323.50248 
L 159.294173 324.54546 
L 160.922442 324.60842 
L 162.550711 323.738455 
L 164.234362 321.863436 
L 165.43829 319.920888 
L 166.642217 317.483568 
L 167.697266 314.947132 
L 169.527652 309.67917 
L 171.273916 303.659378 
L 173.020179 296.711133 
L 174.314905 290.988178 
L 176.139346 282.144181 
L 179.060925 266.238667 
L 182.71257 243.762561 
L 186.067659 221.112008 
L 189.872312 193.857841 
L 200.655695 115.254302 
L 204.114202 92.060262 
L 207.49473 71.394899 
L 210.753888 53.852465 
L 213.434582 41.478727 
L 215.701664 32.624318 
L 216.910436 28.545541 
L 218.119209 24.931309 
L 219.4853 21.420806 
L 220.851391 18.533675 
L 221.86512 16.801462 
L 222.878849 15.423311 
L 224.542532 13.936985 
L 226.402431 13.425399 
L 227.920908 13.910765 
L 229.439386 15.205443 
L 230.39782 16.436367 
L 231.356254 17.984547 
L 232.40468 20.037611 
L 233.453106 22.461335 
L 234.715528 25.863027 
L 236.164822 30.404087 
L 237.614116 35.604045 
L 239.109006 41.631732 
L 241.534104 52.76571 
L 244.771808 70.01188 
L 247.389222 85.689295 
L 250.656575 107.041168 
L 254.167212 131.634452 
L 267.248714 226.715955 
L 270.907235 250.879389 
L 274.623483 272.889213 
L 277.669622 288.543867 
L 279.998647 298.838865 
L 282.416482 307.841049 
L 284.236112 313.411908 
L 285.633886 316.958942 
L 287.25483 320.252732 
L 288.875774 322.647857 
L 289.971222 323.750209 
L 291.06667 324.432518 
L 291.755685 324.64561 
L 293.448646 324.459178 
L 295.141607 323.265224 
L 296.176179 322.042666 
L 297.210751 320.449578 
L 298.489052 317.975262 
L 299.844493 314.750451 
L 301.199934 310.920037 
L 302.823193 305.558367 
L 304.305242 299.951668 
L 305.787291 293.694533 
L 308.287248 281.753953 
L 309.692067 274.333585 
L 313.351621 252.885622 
L 316.751469 230.67369 
L 317.394228 226.275217 
L 323.59038 181.757004 
L 332.084654 119.741878 
L 335.457153 96.79252 
L 337.201431 85.615798 
L 340.739745 64.784326 
L 342.341676 56.290048 
L 345.197932 42.798525 
L 347.490582 33.642841 
L 348.528907 30.019944 
L 349.921886 25.693831 
L 351.830279 20.79214 
L 353.347948 17.764219 
L 354.865616 15.524669 
L 356.172983 14.23656 
L 357.33344 13.594683 
L 359.077307 13.521147 
L 360.821174 14.517541 
L 361.854287 15.610025 
L 362.8874 17.073116 
L 363.891363 18.846646 
L 364.895326 20.962787 
L 366.165491 24.123335 
L 368.145549 30.100613 
L 370.36145 38.247957 
L 372.697305 48.40679 
L 374.339623 56.448677 
L 377.375215 73.082121 
L 380.250338 90.684973 
L 383.727053 113.893872 
L 387.634923 141.745413 
L 398.026278 217.714455 
L 401.739955 242.940359 
L 403.97084 257.035742 
L 407.030518 274.727493 
L 409.301965 286.435086 
L 410.295195 291.131638 
L 411.855294 297.954659 
L 413.415393 304.067961 
L 415.642272 311.498765 
L 416.783693 314.692939 
L 418.049181 317.732079 
L 419.314669 320.232503 
L 420.806165 322.475657 
L 422.297661 323.946703 
L 423.588868 324.590851 
L 424.657834 324.680246 
L 425.7268 324.367253 
L 426.876741 323.582233 
L 428.026681 322.334853 
L 429.205645 320.579897 
L 431.075145 316.82282 
L 432.944645 311.897653 
L 435.016952 305.120596 
L 436.451847 299.64934 
L 436.451847 299.64934 
" clip-path="url(#p32bd37c233)" style="fill: none; stroke: #0000ff; stroke-linecap: square"/>
   </g>
   <g id="patch_3">
    <path d="M 226.253777 330.920764 
L 226.253777 7.2 
" style="fill: none; stroke: #000000; stroke-width: 0.8; stroke-linejoin: miter; stroke-linecap: square"/>
   </g>
   <g id="patch_4">
    <path d="M 7.647784 169.058647 
L 444.85977 169.058647 
" style="fill: none; stroke: #000000; stroke-width: 0.8; stroke-linejoin: miter; stroke-linecap: square"/>
   </g>
  </g>
 </g>
 <defs>
  <clipPath id="p32bd37c233">
   <rect x="7.647784" y="7.2" width="437.211985" height="323.720764"/>
  </clipPath>
 </defs>
</svg>
