<?xml version="1.0" encoding="utf-8" standalone="no"?>
<!DOCTYPE svg PUBLIC "-//W3C//DTD SVG 1.1//EN"
  "http://www.w3.org/Graphics/SVG/1.1/DTD/svg11.dtd">
<svg xmlns:xlink="http://www.w3.org/1999/xlink" width="887.98125pt" height="392.514375pt" viewBox="0 0 887.98125 392.514375" xmlns="http://www.w3.org/2000/svg" version="1.1">
 <metadata>
  <rdf:RDF xmlns:dc="http://purl.org/dc/elements/1.1/" xmlns:cc="http://creativecommons.org/ns#" xmlns:rdf="http://www.w3.org/1999/02/22-rdf-syntax-ns#">
   <cc:Work>
    <dc:type rdf:resource="http://purl.org/dc/dcmitype/StillImage"/>
    <dc:date>2023-12-19T12:03:45.803237</dc:date>
    <dc:format>image/svg+xml</dc:format>
    <dc:creator>
     <cc:Agent>
      <dc:title>Matplotlib v3.8.1, https://matplotlib.org/</dc:title>
     </cc:Agent>
    </dc:creator>
   </cc:Work>
  </rdf:RDF>
 </metadata>
 <defs>
  <style type="text/css">*{stroke-linejoin: round; stroke-linecap: butt}</style>
 </defs>
 <g id="figure_1">
  <g id="patch_1">
   <path d="M 0 392.514375 
L 887.98125 392.514375 
L 887.98125 0 
L 0 0 
L 0 392.514375 
z
" style="fill: none"/>
  </g>
  <g id="axes_1">
   <g id="patch_2">
    <path d="M 43.78125 354.958125 
L 880.78125 354.958125 
L 880.78125 22.318125 
L 43.78125 22.318125 
L 43.78125 354.958125 
z
" style="fill: none"/>
   </g>
   <g id="patch_3">
    <path d="M 81.826705 354.958125 
L 96.389558 354.958125 
L 96.389558 38.158125 
L 81.826705 38.158125 
z
" clip-path="url(#pf37f20fbbe)" style="fill: #801a80; fill-opacity: 0.6"/>
   </g>
   <g id="patch_4">
    <path d="M 100.030271 354.958125 
L 114.593125 354.958125 
L 114.593125 250.841271 
L 100.030271 250.841271 
z
" clip-path="url(#pf37f20fbbe)" style="fill: #801a80; fill-opacity: 0.6"/>
   </g>
   <g id="patch_5">
    <path d="M 118.233838 354.958125 
L 132.796691 354.958125 
L 132.796691 281.097451 
L 118.233838 281.097451 
z
" clip-path="url(#pf37f20fbbe)" style="fill: #801a80; fill-opacity: 0.6"/>
   </g>
   <g id="patch_6">
    <path d="M 136.437405 354.958125 
L 151.000258 354.958125 
L 151.000258 81.762619 
L 136.437405 81.762619 
z
" clip-path="url(#pf37f20fbbe)" style="fill: #801a80; fill-opacity: 0.6"/>
   </g>
   <g id="patch_7">
    <path d="M 154.640972 354.958125 
L 169.203825 354.958125 
L 169.203825 250.841271 
L 154.640972 250.841271 
z
" clip-path="url(#pf37f20fbbe)" style="fill: #801a80; fill-opacity: 0.6"/>
   </g>
   <g id="patch_8">
    <path d="M 172.844538 354.958125 
L 187.407392 354.958125 
L 187.407392 281.097451 
L 172.844538 281.097451 
z
" clip-path="url(#pf37f20fbbe)" style="fill: #801a80; fill-opacity: 0.6"/>
   </g>
   <g id="patch_9">
    <path d="M 191.048105 354.958125 
L 205.610959 354.958125 
L 205.610959 138.715428 
L 191.048105 138.715428 
z
" clip-path="url(#pf37f20fbbe)" style="fill: #801a80; fill-opacity: 0.6"/>
   </g>
   <g id="patch_10">
    <path d="M 209.251672 354.958125 
L 223.814525 354.958125 
L 223.814525 254.400822 
L 209.251672 254.400822 
z
" clip-path="url(#pf37f20fbbe)" style="fill: #801a80; fill-opacity: 0.6"/>
   </g>
   <g id="patch_11">
    <path d="M 227.455239 354.958125 
L 242.018092 354.958125 
L 242.018092 281.097451 
L 227.455239 281.097451 
z
" clip-path="url(#pf37f20fbbe)" style="fill: #801a80; fill-opacity: 0.6"/>
   </g>
   <g id="patch_12">
    <path d="M 245.658805 354.958125 
L 260.221659 354.958125 
L 260.221659 172.531159 
L 245.658805 172.531159 
z
" clip-path="url(#pf37f20fbbe)" style="fill: #801a80; fill-opacity: 0.6"/>
   </g>
   <g id="patch_13">
    <path d="M 263.862372 354.958125 
L 278.425226 354.958125 
L 278.425226 255.290709 
L 263.862372 255.290709 
z
" clip-path="url(#pf37f20fbbe)" style="fill: #801a80; fill-opacity: 0.6"/>
   </g>
   <g id="patch_14">
    <path d="M 282.065939 354.958125 
L 296.628792 354.958125 
L 296.628792 284.657001 
L 282.065939 284.657001 
z
" clip-path="url(#pf37f20fbbe)" style="fill: #801a80; fill-opacity: 0.6"/>
   </g>
   <g id="patch_15">
    <path d="M 300.269506 354.958125 
L 314.832359 354.958125 
L 314.832359 177.870485 
L 300.269506 177.870485 
z
" clip-path="url(#pf37f20fbbe)" style="fill: #801a80; fill-opacity: 0.6"/>
   </g>
   <g id="patch_16">
    <path d="M 318.473073 354.958125 
L 333.035926 354.958125 
L 333.035926 257.960372 
L 318.473073 257.960372 
z
" clip-path="url(#pf37f20fbbe)" style="fill: #801a80; fill-opacity: 0.6"/>
   </g>
   <g id="patch_17">
    <path d="M 336.676639 354.958125 
L 351.239493 354.958125 
L 351.239493 284.657001 
L 336.676639 284.657001 
z
" clip-path="url(#pf37f20fbbe)" style="fill: #801a80; fill-opacity: 0.6"/>
   </g>
   <g id="patch_18">
    <path d="M 354.880206 354.958125 
L 369.443059 354.958125 
L 369.443059 190.328912 
L 354.880206 190.328912 
z
" clip-path="url(#pf37f20fbbe)" style="fill: #801a80; fill-opacity: 0.6"/>
   </g>
   <g id="patch_19">
    <path d="M 373.083773 354.958125 
L 387.646626 354.958125 
L 387.646626 259.740147 
L 373.083773 259.740147 
z
" clip-path="url(#pf37f20fbbe)" style="fill: #801a80; fill-opacity: 0.6"/>
   </g>
   <g id="patch_20">
    <path d="M 391.28734 354.958125 
L 405.850193 354.958125 
L 405.850193 287.326664 
L 391.28734 287.326664 
z
" clip-path="url(#pf37f20fbbe)" style="fill: #801a80; fill-opacity: 0.6"/>
   </g>
   <g id="patch_21">
    <path d="M 409.490906 354.958125 
L 424.05376 354.958125 
L 424.05376 198.3379 
L 409.490906 198.3379 
z
" clip-path="url(#pf37f20fbbe)" style="fill: #801a80; fill-opacity: 0.6"/>
   </g>
   <g id="patch_22">
    <path d="M 427.694473 354.958125 
L 442.257327 354.958125 
L 442.257327 261.519923 
L 427.694473 261.519923 
z
" clip-path="url(#pf37f20fbbe)" style="fill: #801a80; fill-opacity: 0.6"/>
   </g>
   <g id="patch_23">
    <path d="M 445.89804 354.958125 
L 460.460893 354.958125 
L 460.460893 287.326664 
L 445.89804 287.326664 
z
" clip-path="url(#pf37f20fbbe)" style="fill: #801a80; fill-opacity: 0.6"/>
   </g>
   <g id="patch_24">
    <path d="M 464.101607 354.958125 
L 478.66446 354.958125 
L 478.66446 222.364867 
L 464.101607 222.364867 
z
" clip-path="url(#pf37f20fbbe)" style="fill: #801a80; fill-opacity: 0.6"/>
   </g>
   <g id="patch_25">
    <path d="M 482.305173 354.958125 
L 496.868027 354.958125 
L 496.868027 261.519923 
L 482.305173 261.519923 
z
" clip-path="url(#pf37f20fbbe)" style="fill: #801a80; fill-opacity: 0.6"/>
   </g>
   <g id="patch_26">
    <path d="M 500.50874 354.958125 
L 515.071594 354.958125 
L 515.071594 289.996327 
L 500.50874 289.996327 
z
" clip-path="url(#pf37f20fbbe)" style="fill: #801a80; fill-opacity: 0.6"/>
   </g>
   <g id="patch_27">
    <path d="M 518.712307 354.958125 
L 533.27516 354.958125 
L 533.27516 225.924417 
L 518.712307 225.924417 
z
" clip-path="url(#pf37f20fbbe)" style="fill: #801a80; fill-opacity: 0.6"/>
   </g>
   <g id="patch_28">
    <path d="M 536.915874 354.958125 
L 551.478727 354.958125 
L 551.478727 262.40981 
L 536.915874 262.40981 
z
" clip-path="url(#pf37f20fbbe)" style="fill: #801a80; fill-opacity: 0.6"/>
   </g>
   <g id="patch_29">
    <path d="M 555.119441 354.958125 
L 569.682294 354.958125 
L 569.682294 289.996327 
L 555.119441 289.996327 
z
" clip-path="url(#pf37f20fbbe)" style="fill: #801a80; fill-opacity: 0.6"/>
   </g>
   <g id="patch_30">
    <path d="M 573.323007 354.958125 
L 587.885861 354.958125 
L 587.885861 234.823294 
L 573.323007 234.823294 
z
" clip-path="url(#pf37f20fbbe)" style="fill: #801a80; fill-opacity: 0.6"/>
   </g>
   <g id="patch_31">
    <path d="M 591.526574 354.958125 
L 606.089427 354.958125 
L 606.089427 270.418799 
L 591.526574 270.418799 
z
" clip-path="url(#pf37f20fbbe)" style="fill: #801a80; fill-opacity: 0.6"/>
   </g>
   <g id="patch_32">
    <path d="M 609.730141 354.958125 
L 624.292994 354.958125 
L 624.292994 292.66599 
L 609.730141 292.66599 
z
" clip-path="url(#pf37f20fbbe)" style="fill: #801a80; fill-opacity: 0.6"/>
   </g>
   <g id="patch_33">
    <path d="M 627.933708 354.958125 
L 642.496561 354.958125 
L 642.496561 235.713181 
L 627.933708 235.713181 
z
" clip-path="url(#pf37f20fbbe)" style="fill: #801a80; fill-opacity: 0.6"/>
   </g>
   <g id="patch_34">
    <path d="M 646.137274 354.958125 
L 660.700128 354.958125 
L 660.700128 272.198574 
L 646.137274 272.198574 
z
" clip-path="url(#pf37f20fbbe)" style="fill: #801a80; fill-opacity: 0.6"/>
   </g>
   <g id="patch_35">
    <path d="M 664.340841 354.958125 
L 678.903695 354.958125 
L 678.903695 293.555878 
L 664.340841 293.555878 
z
" clip-path="url(#pf37f20fbbe)" style="fill: #801a80; fill-opacity: 0.6"/>
   </g>
   <g id="patch_36">
    <path d="M 682.544408 354.958125 
L 697.107261 354.958125 
L 697.107261 235.713181 
L 682.544408 235.713181 
z
" clip-path="url(#pf37f20fbbe)" style="fill: #801a80; fill-opacity: 0.6"/>
   </g>
   <g id="patch_37">
    <path d="M 700.747975 354.958125 
L 715.310828 354.958125 
L 715.310828 272.198574 
L 700.747975 272.198574 
z
" clip-path="url(#pf37f20fbbe)" style="fill: #801a80; fill-opacity: 0.6"/>
   </g>
   <g id="patch_38">
    <path d="M 718.951541 354.958125 
L 733.514395 354.958125 
L 733.514395 293.555878 
L 718.951541 293.555878 
z
" clip-path="url(#pf37f20fbbe)" style="fill: #801a80; fill-opacity: 0.6"/>
   </g>
   <g id="patch_39">
    <path d="M 737.155108 354.958125 
L 751.717962 354.958125 
L 751.717962 241.052507 
L 737.155108 241.052507 
z
" clip-path="url(#pf37f20fbbe)" style="fill: #801a80; fill-opacity: 0.6"/>
   </g>
   <g id="patch_40">
    <path d="M 755.358675 354.958125 
L 769.921528 354.958125 
L 769.921528 277.5379 
L 755.358675 277.5379 
z
" clip-path="url(#pf37f20fbbe)" style="fill: #801a80; fill-opacity: 0.6"/>
   </g>
   <g id="patch_41">
    <path d="M 773.562242 354.958125 
L 788.125095 354.958125 
L 788.125095 293.555878 
L 773.562242 293.555878 
z
" clip-path="url(#pf37f20fbbe)" style="fill: #801a80; fill-opacity: 0.6"/>
   </g>
   <g id="patch_42">
    <path d="M 791.765809 354.958125 
L 806.328662 354.958125 
L 806.328662 248.171608 
L 791.765809 248.171608 
z
" clip-path="url(#pf37f20fbbe)" style="fill: #801a80; fill-opacity: 0.6"/>
   </g>
   <g id="patch_43">
    <path d="M 809.969375 354.958125 
L 824.532229 354.958125 
L 824.532229 277.5379 
L 809.969375 277.5379 
z
" clip-path="url(#pf37f20fbbe)" style="fill: #801a80; fill-opacity: 0.6"/>
   </g>
   <g id="patch_44">
    <path d="M 828.172942 354.958125 
L 842.735795 354.958125 
L 842.735795 297.115428 
L 828.172942 297.115428 
z
" clip-path="url(#pf37f20fbbe)" style="fill: #801a80; fill-opacity: 0.6"/>
   </g>
   <g id="matplotlib.axis_1">
    <g id="xtick_1">
     <g id="line2d_1">
      <defs>
       <path id="m0f60dd72b6" d="M 0 0 
L 0 3.5 
" style="stroke: #000000; stroke-width: 0.8"/>
      </defs>
      <g>
       <use xlink:href="#m0f60dd72b6" x="89.108131" y="354.958125" style="stroke: #000000; stroke-width: 0.8"/>
      </g>
     </g>
     <g id="text_1">
      <!-- th -->
      <g transform="translate(83.979225 369.556562) scale(0.1 -0.1)">
       <defs>
        <path id="DejaVuSans-74" d="M 1172 4494 
L 1172 3500 
L 2356 3500 
L 2356 3053 
L 1172 3053 
L 1172 1153 
Q 1172 725 1289 603 
Q 1406 481 1766 481 
L 2356 481 
L 2356 0 
L 1766 0 
Q 1100 0 847 248 
Q 594 497 594 1153 
L 594 3053 
L 172 3053 
L 172 3500 
L 594 3500 
L 594 4494 
L 1172 4494 
z
" transform="scale(0.015625)"/>
        <path id="DejaVuSans-68" d="M 3513 2113 
L 3513 0 
L 2938 0 
L 2938 2094 
Q 2938 2591 2744 2837 
Q 2550 3084 2163 3084 
Q 1697 3084 1428 2787 
Q 1159 2491 1159 1978 
L 1159 0 
L 581 0 
L 581 4863 
L 1159 4863 
L 1159 2956 
Q 1366 3272 1645 3428 
Q 1925 3584 2291 3584 
Q 2894 3584 3203 3211 
Q 3513 2838 3513 2113 
z
" transform="scale(0.015625)"/>
       </defs>
       <use xlink:href="#DejaVuSans-74"/>
       <use xlink:href="#DejaVuSans-68" x="39.208984"/>
      </g>
     </g>
    </g>
    <g id="xtick_2">
     <g id="line2d_2">
      <g>
       <use xlink:href="#m0f60dd72b6" x="107.311698" y="354.958125" style="stroke: #000000; stroke-width: 0.8"/>
      </g>
     </g>
     <g id="text_2">
      <!-- of -->
      <g transform="translate(102.492167 369.556562) scale(0.1 -0.1)">
       <defs>
        <path id="DejaVuSans-6f" d="M 1959 3097 
Q 1497 3097 1228 2736 
Q 959 2375 959 1747 
Q 959 1119 1226 758 
Q 1494 397 1959 397 
Q 2419 397 2687 759 
Q 2956 1122 2956 1747 
Q 2956 2369 2687 2733 
Q 2419 3097 1959 3097 
z
M 1959 3584 
Q 2709 3584 3137 3096 
Q 3566 2609 3566 1747 
Q 3566 888 3137 398 
Q 2709 -91 1959 -91 
Q 1206 -91 779 398 
Q 353 888 353 1747 
Q 353 2609 779 3096 
Q 1206 3584 1959 3584 
z
" transform="scale(0.015625)"/>
        <path id="DejaVuSans-66" d="M 2375 4863 
L 2375 4384 
L 1825 4384 
Q 1516 4384 1395 4259 
Q 1275 4134 1275 3809 
L 1275 3500 
L 2222 3500 
L 2222 3053 
L 1275 3053 
L 1275 0 
L 697 0 
L 697 3053 
L 147 3053 
L 147 3500 
L 697 3500 
L 697 3744 
Q 697 4328 969 4595 
Q 1241 4863 1831 4863 
L 2375 4863 
z
" transform="scale(0.015625)"/>
       </defs>
       <use xlink:href="#DejaVuSans-6f"/>
       <use xlink:href="#DejaVuSans-66" x="61.181641"/>
      </g>
     </g>
    </g>
    <g id="xtick_3">
     <g id="line2d_3">
      <g>
       <use xlink:href="#m0f60dd72b6" x="125.515265" y="354.958125" style="stroke: #000000; stroke-width: 0.8"/>
      </g>
     </g>
     <g id="text_3">
      <!-- io -->
      <g transform="translate(121.066827 369.556562) scale(0.1 -0.1)">
       <defs>
        <path id="DejaVuSans-69" d="M 603 3500 
L 1178 3500 
L 1178 0 
L 603 0 
L 603 3500 
z
M 603 4863 
L 1178 4863 
L 1178 4134 
L 603 4134 
L 603 4863 
z
" transform="scale(0.015625)"/>
       </defs>
       <use xlink:href="#DejaVuSans-69"/>
       <use xlink:href="#DejaVuSans-6f" x="27.783203"/>
      </g>
     </g>
    </g>
    <g id="xtick_4">
     <g id="line2d_4">
      <g>
       <use xlink:href="#m0f60dd72b6" x="143.718832" y="354.958125" style="stroke: #000000; stroke-width: 0.8"/>
      </g>
     </g>
     <g id="text_4">
      <!-- he -->
      <g transform="translate(137.473519 369.556562) scale(0.1 -0.1)">
       <defs>
        <path id="DejaVuSans-65" d="M 3597 1894 
L 3597 1613 
L 953 1613 
Q 991 1019 1311 708 
Q 1631 397 2203 397 
Q 2534 397 2845 478 
Q 3156 559 3463 722 
L 3463 178 
Q 3153 47 2828 -22 
Q 2503 -91 2169 -91 
Q 1331 -91 842 396 
Q 353 884 353 1716 
Q 353 2575 817 3079 
Q 1281 3584 2069 3584 
Q 2775 3584 3186 3129 
Q 3597 2675 3597 1894 
z
M 3022 2063 
Q 3016 2534 2758 2815 
Q 2500 3097 2075 3097 
Q 1594 3097 1305 2825 
Q 1016 2553 972 2059 
L 3022 2063 
z
" transform="scale(0.015625)"/>
       </defs>
       <use xlink:href="#DejaVuSans-68"/>
       <use xlink:href="#DejaVuSans-65" x="63.378906"/>
      </g>
     </g>
    </g>
    <g id="xtick_5">
     <g id="line2d_5">
      <g>
       <use xlink:href="#m0f60dd72b6" x="161.922398" y="354.958125" style="stroke: #000000; stroke-width: 0.8"/>
      </g>
     </g>
     <g id="text_5">
      <!-- ed -->
      <g transform="translate(155.671617 369.556562) scale(0.1 -0.1)">
       <defs>
        <path id="DejaVuSans-64" d="M 2906 2969 
L 2906 4863 
L 3481 4863 
L 3481 0 
L 2906 0 
L 2906 525 
Q 2725 213 2448 61 
Q 2172 -91 1784 -91 
Q 1150 -91 751 415 
Q 353 922 353 1747 
Q 353 2572 751 3078 
Q 1150 3584 1784 3584 
Q 2172 3584 2448 3432 
Q 2725 3281 2906 2969 
z
M 947 1747 
Q 947 1113 1208 752 
Q 1469 391 1925 391 
Q 2381 391 2643 752 
Q 2906 1113 2906 1747 
Q 2906 2381 2643 2742 
Q 2381 3103 1925 3103 
Q 1469 3103 1208 2742 
Q 947 2381 947 1747 
z
" transform="scale(0.015625)"/>
       </defs>
       <use xlink:href="#DejaVuSans-65"/>
       <use xlink:href="#DejaVuSans-64" x="61.523438"/>
      </g>
     </g>
    </g>
    <g id="xtick_6">
     <g id="line2d_6">
      <g>
       <use xlink:href="#m0f60dd72b6" x="180.125965" y="354.958125" style="stroke: #000000; stroke-width: 0.8"/>
      </g>
     </g>
     <g id="text_6">
      <!-- le -->
      <g transform="translate(175.66034 369.556562) scale(0.1 -0.1)">
       <defs>
        <path id="DejaVuSans-6c" d="M 603 4863 
L 1178 4863 
L 1178 0 
L 603 0 
L 603 4863 
z
" transform="scale(0.015625)"/>
       </defs>
       <use xlink:href="#DejaVuSans-6c"/>
       <use xlink:href="#DejaVuSans-65" x="27.783203"/>
      </g>
     </g>
    </g>
    <g id="xtick_7">
     <g id="line2d_7">
      <g>
       <use xlink:href="#m0f60dd72b6" x="198.329532" y="354.958125" style="stroke: #000000; stroke-width: 0.8"/>
      </g>
     </g>
     <g id="text_7">
      <!-- in -->
      <g transform="translate(193.771719 369.556562) scale(0.1 -0.1)">
       <defs>
        <path id="DejaVuSans-6e" d="M 3513 2113 
L 3513 0 
L 2938 0 
L 2938 2094 
Q 2938 2591 2744 2837 
Q 2550 3084 2163 3084 
Q 1697 3084 1428 2787 
Q 1159 2491 1159 1978 
L 1159 0 
L 581 0 
L 581 3500 
L 1159 3500 
L 1159 2956 
Q 1366 3272 1645 3428 
Q 1925 3584 2291 3584 
Q 2894 3584 3203 3211 
Q 3513 2838 3513 2113 
z
" transform="scale(0.015625)"/>
       </defs>
       <use xlink:href="#DejaVuSans-69"/>
       <use xlink:href="#DejaVuSans-6e" x="27.783203"/>
      </g>
     </g>
    </g>
    <g id="xtick_8">
     <g id="line2d_8">
      <g>
       <use xlink:href="#m0f60dd72b6" x="216.533099" y="354.958125" style="stroke: #000000; stroke-width: 0.8"/>
      </g>
     </g>
     <g id="text_8">
      <!-- is -->
      <g transform="translate(212.539349 369.556562) scale(0.1 -0.1)">
       <defs>
        <path id="DejaVuSans-73" d="M 2834 3397 
L 2834 2853 
Q 2591 2978 2328 3040 
Q 2066 3103 1784 3103 
Q 1356 3103 1142 2972 
Q 928 2841 928 2578 
Q 928 2378 1081 2264 
Q 1234 2150 1697 2047 
L 1894 2003 
Q 2506 1872 2764 1633 
Q 3022 1394 3022 966 
Q 3022 478 2636 193 
Q 2250 -91 1575 -91 
Q 1294 -91 989 -36 
Q 684 19 347 128 
L 347 722 
Q 666 556 975 473 
Q 1284 391 1588 391 
Q 1994 391 2212 530 
Q 2431 669 2431 922 
Q 2431 1156 2273 1281 
Q 2116 1406 1581 1522 
L 1381 1569 
Q 847 1681 609 1914 
Q 372 2147 372 2553 
Q 372 3047 722 3315 
Q 1072 3584 1716 3584 
Q 2034 3584 2315 3537 
Q 2597 3491 2834 3397 
z
" transform="scale(0.015625)"/>
       </defs>
       <use xlink:href="#DejaVuSans-69"/>
       <use xlink:href="#DejaVuSans-73" x="27.783203"/>
      </g>
     </g>
    </g>
    <g id="xtick_9">
     <g id="line2d_9">
      <g>
       <use xlink:href="#m0f60dd72b6" x="234.736665" y="354.958125" style="stroke: #000000; stroke-width: 0.8"/>
      </g>
     </g>
     <g id="text_9">
      <!-- ve -->
      <g transform="translate(228.700728 369.556562) scale(0.1 -0.1)">
       <defs>
        <path id="DejaVuSans-76" d="M 191 3500 
L 800 3500 
L 1894 563 
L 2988 3500 
L 3597 3500 
L 2284 0 
L 1503 0 
L 191 3500 
z
" transform="scale(0.015625)"/>
       </defs>
       <use xlink:href="#DejaVuSans-76"/>
       <use xlink:href="#DejaVuSans-65" x="59.179688"/>
      </g>
     </g>
    </g>
    <g id="xtick_10">
     <g id="line2d_10">
      <g>
       <use xlink:href="#m0f60dd72b6" x="252.940232" y="354.958125" style="stroke: #000000; stroke-width: 0.8"/>
      </g>
     </g>
     <g id="text_10">
      <!-- er -->
      <g transform="translate(247.808201 369.556562) scale(0.1 -0.1)">
       <defs>
        <path id="DejaVuSans-72" d="M 2631 2963 
Q 2534 3019 2420 3045 
Q 2306 3072 2169 3072 
Q 1681 3072 1420 2755 
Q 1159 2438 1159 1844 
L 1159 0 
L 581 0 
L 581 3500 
L 1159 3500 
L 1159 2956 
Q 1341 3275 1631 3429 
Q 1922 3584 2338 3584 
Q 2397 3584 2469 3576 
Q 2541 3569 2628 3553 
L 2631 2963 
z
" transform="scale(0.015625)"/>
       </defs>
       <use xlink:href="#DejaVuSans-65"/>
       <use xlink:href="#DejaVuSans-72" x="61.523438"/>
      </g>
     </g>
    </g>
    <g id="xtick_11">
     <g id="line2d_11">
      <g>
       <use xlink:href="#m0f60dd72b6" x="271.143799" y="354.958125" style="stroke: #000000; stroke-width: 0.8"/>
      </g>
     </g>
     <g id="text_11">
      <!-- it -->
      <g transform="translate(267.79458 369.556562) scale(0.1 -0.1)">
       <use xlink:href="#DejaVuSans-69"/>
       <use xlink:href="#DejaVuSans-74" x="27.783203"/>
      </g>
     </g>
    </g>
    <g id="xtick_12">
     <g id="line2d_12">
      <g>
       <use xlink:href="#m0f60dd72b6" x="289.347366" y="354.958125" style="stroke: #000000; stroke-width: 0.8"/>
      </g>
     </g>
     <g id="text_12">
      <!-- co -->
      <g transform="translate(283.538772 369.556562) scale(0.1 -0.1)">
       <defs>
        <path id="DejaVuSans-63" d="M 3122 3366 
L 3122 2828 
Q 2878 2963 2633 3030 
Q 2388 3097 2138 3097 
Q 1578 3097 1268 2742 
Q 959 2388 959 1747 
Q 959 1106 1268 751 
Q 1578 397 2138 397 
Q 2388 397 2633 464 
Q 2878 531 3122 666 
L 3122 134 
Q 2881 22 2623 -34 
Q 2366 -91 2075 -91 
Q 1284 -91 818 406 
Q 353 903 353 1747 
Q 353 2603 823 3093 
Q 1294 3584 2113 3584 
Q 2378 3584 2631 3529 
Q 2884 3475 3122 3366 
z
" transform="scale(0.015625)"/>
       </defs>
       <use xlink:href="#DejaVuSans-63"/>
       <use xlink:href="#DejaVuSans-6f" x="54.980469"/>
      </g>
     </g>
    </g>
    <g id="xtick_13">
     <g id="line2d_13">
      <g>
       <use xlink:href="#m0f60dd72b6" x="307.550932" y="354.958125" style="stroke: #000000; stroke-width: 0.8"/>
      </g>
     </g>
     <g id="text_13">
      <!-- an -->
      <g transform="translate(301.31812 369.556562) scale(0.1 -0.1)">
       <defs>
        <path id="DejaVuSans-61" d="M 2194 1759 
Q 1497 1759 1228 1600 
Q 959 1441 959 1056 
Q 959 750 1161 570 
Q 1363 391 1709 391 
Q 2188 391 2477 730 
Q 2766 1069 2766 1631 
L 2766 1759 
L 2194 1759 
z
M 3341 1997 
L 3341 0 
L 2766 0 
L 2766 531 
Q 2569 213 2275 61 
Q 1981 -91 1556 -91 
Q 1019 -91 701 211 
Q 384 513 384 1019 
Q 384 1609 779 1909 
Q 1175 2209 1959 2209 
L 2766 2209 
L 2766 2266 
Q 2766 2663 2505 2880 
Q 2244 3097 1772 3097 
Q 1472 3097 1187 3025 
Q 903 2953 641 2809 
L 641 3341 
Q 956 3463 1253 3523 
Q 1550 3584 1831 3584 
Q 2591 3584 2966 3190 
Q 3341 2797 3341 1997 
z
" transform="scale(0.015625)"/>
       </defs>
       <use xlink:href="#DejaVuSans-61"/>
       <use xlink:href="#DejaVuSans-6e" x="61.279297"/>
      </g>
     </g>
    </g>
    <g id="xtick_14">
     <g id="line2d_14">
      <g>
       <use xlink:href="#m0f60dd72b6" x="325.754499" y="354.958125" style="stroke: #000000; stroke-width: 0.8"/>
      </g>
     </g>
     <g id="text_14">
      <!-- al -->
      <g transform="translate(321.301374 369.556562) scale(0.1 -0.1)">
       <use xlink:href="#DejaVuSans-61"/>
       <use xlink:href="#DejaVuSans-6c" x="61.279297"/>
      </g>
     </g>
    </g>
    <g id="xtick_15">
     <g id="line2d_15">
      <g>
       <use xlink:href="#m0f60dd72b6" x="343.958066" y="354.958125" style="stroke: #000000; stroke-width: 0.8"/>
      </g>
     </g>
     <g id="text_15">
      <!-- me -->
      <g transform="translate(336.011191 369.556562) scale(0.1 -0.1)">
       <defs>
        <path id="DejaVuSans-6d" d="M 3328 2828 
Q 3544 3216 3844 3400 
Q 4144 3584 4550 3584 
Q 5097 3584 5394 3201 
Q 5691 2819 5691 2113 
L 5691 0 
L 5113 0 
L 5113 2094 
Q 5113 2597 4934 2840 
Q 4756 3084 4391 3084 
Q 3944 3084 3684 2787 
Q 3425 2491 3425 1978 
L 3425 0 
L 2847 0 
L 2847 2094 
Q 2847 2600 2669 2842 
Q 2491 3084 2119 3084 
Q 1678 3084 1418 2786 
Q 1159 2488 1159 1978 
L 1159 0 
L 581 0 
L 581 3500 
L 1159 3500 
L 1159 2956 
Q 1356 3278 1631 3431 
Q 1906 3584 2284 3584 
Q 2666 3584 2933 3390 
Q 3200 3197 3328 2828 
z
" transform="scale(0.015625)"/>
       </defs>
       <use xlink:href="#DejaVuSans-6d"/>
       <use xlink:href="#DejaVuSans-65" x="97.412109"/>
      </g>
     </g>
    </g>
    <g id="xtick_16">
     <g id="line2d_16">
      <g>
       <use xlink:href="#m0f60dd72b6" x="362.161633" y="354.958125" style="stroke: #000000; stroke-width: 0.8"/>
      </g>
     </g>
     <g id="text_16">
      <!-- re -->
      <g transform="translate(357.142102 369.556562) scale(0.1 -0.1)">
       <use xlink:href="#DejaVuSans-72"/>
       <use xlink:href="#DejaVuSans-65" x="38.863281"/>
      </g>
     </g>
    </g>
    <g id="xtick_17">
     <g id="line2d_17">
      <g>
       <use xlink:href="#m0f60dd72b6" x="380.3652" y="354.958125" style="stroke: #000000; stroke-width: 0.8"/>
      </g>
     </g>
     <g id="text_17">
      <!-- ar -->
      <g transform="translate(375.245668 369.556562) scale(0.1 -0.1)">
       <use xlink:href="#DejaVuSans-61"/>
       <use xlink:href="#DejaVuSans-72" x="61.279297"/>
      </g>
     </g>
    </g>
    <g id="xtick_18">
     <g id="line2d_18">
      <g>
       <use xlink:href="#m0f60dd72b6" x="398.568766" y="354.958125" style="stroke: #000000; stroke-width: 0.8"/>
      </g>
     </g>
     <g id="text_18">
      <!-- de -->
      <g transform="translate(392.317985 369.556562) scale(0.1 -0.1)">
       <use xlink:href="#DejaVuSans-64"/>
       <use xlink:href="#DejaVuSans-65" x="63.476562"/>
      </g>
     </g>
    </g>
    <g id="xtick_19">
     <g id="line2d_19">
      <g>
       <use xlink:href="#m0f60dd72b6" x="416.772333" y="354.958125" style="stroke: #000000; stroke-width: 0.8"/>
      </g>
     </g>
     <g id="text_19">
      <!-- on -->
      <g transform="translate(410.544208 369.556562) scale(0.1 -0.1)">
       <use xlink:href="#DejaVuSans-6f"/>
       <use xlink:href="#DejaVuSans-6e" x="61.181641"/>
      </g>
     </g>
    </g>
    <g id="xtick_20">
     <g id="line2d_20">
      <g>
       <use xlink:href="#m0f60dd72b6" x="434.9759" y="354.958125" style="stroke: #000000; stroke-width: 0.8"/>
      </g>
     </g>
     <g id="text_20">
      <!-- st -->
      <g transform="translate(430.411056 369.556562) scale(0.1 -0.1)">
       <use xlink:href="#DejaVuSans-73"/>
       <use xlink:href="#DejaVuSans-74" x="52.099609"/>
      </g>
     </g>
    </g>
    <g id="xtick_21">
     <g id="line2d_21">
      <g>
       <use xlink:href="#m0f60dd72b6" x="453.179467" y="354.958125" style="stroke: #000000; stroke-width: 0.8"/>
      </g>
     </g>
     <g id="text_21">
      <!-- hi -->
      <g transform="translate(448.621654 369.556562) scale(0.1 -0.1)">
       <use xlink:href="#DejaVuSans-68"/>
       <use xlink:href="#DejaVuSans-69" x="63.378906"/>
      </g>
     </g>
    </g>
    <g id="xtick_22">
     <g id="line2d_22">
      <g>
       <use xlink:href="#m0f60dd72b6" x="471.383033" y="354.958125" style="stroke: #000000; stroke-width: 0.8"/>
      </g>
     </g>
     <g id="text_22">
      <!-- at -->
      <g transform="translate(466.358815 369.556562) scale(0.1 -0.1)">
       <use xlink:href="#DejaVuSans-61"/>
       <use xlink:href="#DejaVuSans-74" x="61.279297"/>
      </g>
     </g>
    </g>
    <g id="xtick_23">
     <g id="line2d_23">
      <g>
       <use xlink:href="#m0f60dd72b6" x="489.5866" y="354.958125" style="stroke: #000000; stroke-width: 0.8"/>
      </g>
     </g>
     <g id="text_23">
      <!-- to -->
      <g transform="translate(484.567069 369.556562) scale(0.1 -0.1)">
       <use xlink:href="#DejaVuSans-74"/>
       <use xlink:href="#DejaVuSans-6f" x="39.208984"/>
      </g>
     </g>
    </g>
    <g id="xtick_24">
     <g id="line2d_24">
      <g>
       <use xlink:href="#m0f60dd72b6" x="507.790167" y="354.958125" style="stroke: #000000; stroke-width: 0.8"/>
      </g>
     </g>
     <g id="text_24">
      <!-- ri -->
      <g transform="translate(504.345636 369.556562) scale(0.1 -0.1)">
       <use xlink:href="#DejaVuSans-72"/>
       <use xlink:href="#DejaVuSans-69" x="41.113281"/>
      </g>
     </g>
    </g>
    <g id="xtick_25">
     <g id="line2d_25">
      <g>
       <use xlink:href="#m0f60dd72b6" x="525.993734" y="354.958125" style="stroke: #000000; stroke-width: 0.8"/>
      </g>
     </g>
     <g id="text_25">
      <!-- en -->
      <g transform="translate(519.748421 369.556562) scale(0.1 -0.1)">
       <use xlink:href="#DejaVuSans-65"/>
       <use xlink:href="#DejaVuSans-6e" x="61.523438"/>
      </g>
     </g>
    </g>
    <g id="xtick_26">
     <g id="line2d_26">
      <g>
       <use xlink:href="#m0f60dd72b6" x="544.1973" y="354.958125" style="stroke: #000000; stroke-width: 0.8"/>
      </g>
     </g>
     <g id="text_26">
      <!-- nt -->
      <g transform="translate(539.068394 369.556562) scale(0.1 -0.1)">
       <use xlink:href="#DejaVuSans-6e"/>
       <use xlink:href="#DejaVuSans-74" x="63.378906"/>
      </g>
     </g>
    </g>
    <g id="xtick_27">
     <g id="line2d_27">
      <g>
       <use xlink:href="#m0f60dd72b6" x="562.400867" y="354.958125" style="stroke: #000000; stroke-width: 0.8"/>
      </g>
     </g>
     <g id="text_27">
      <!-- ro -->
      <g transform="translate(557.398523 369.556562) scale(0.1 -0.1)">
       <use xlink:href="#DejaVuSans-72"/>
       <use xlink:href="#DejaVuSans-6f" x="38.863281"/>
      </g>
     </g>
    </g>
    <g id="xtick_28">
     <g id="line2d_28">
      <g>
       <use xlink:href="#m0f60dd72b6" x="580.604434" y="354.958125" style="stroke: #000000; stroke-width: 0.8"/>
      </g>
     </g>
     <g id="text_28">
      <!-- nd -->
      <g transform="translate(574.261465 369.556562) scale(0.1 -0.1)">
       <use xlink:href="#DejaVuSans-6e"/>
       <use xlink:href="#DejaVuSans-64" x="63.378906"/>
      </g>
     </g>
    </g>
    <g id="xtick_29">
     <g id="line2d_29">
      <g>
       <use xlink:href="#m0f60dd72b6" x="598.808001" y="354.958125" style="stroke: #000000; stroke-width: 0.8"/>
      </g>
     </g>
     <g id="text_29">
      <!-- ng -->
      <g transform="translate(592.465032 369.556562) scale(0.1 -0.1)">
       <defs>
        <path id="DejaVuSans-67" d="M 2906 1791 
Q 2906 2416 2648 2759 
Q 2391 3103 1925 3103 
Q 1463 3103 1205 2759 
Q 947 2416 947 1791 
Q 947 1169 1205 825 
Q 1463 481 1925 481 
Q 2391 481 2648 825 
Q 2906 1169 2906 1791 
z
M 3481 434 
Q 3481 -459 3084 -895 
Q 2688 -1331 1869 -1331 
Q 1566 -1331 1297 -1286 
Q 1028 -1241 775 -1147 
L 775 -588 
Q 1028 -725 1275 -790 
Q 1522 -856 1778 -856 
Q 2344 -856 2625 -561 
Q 2906 -266 2906 331 
L 2906 616 
Q 2728 306 2450 153 
Q 2172 0 1784 0 
Q 1141 0 747 490 
Q 353 981 353 1791 
Q 353 2603 747 3093 
Q 1141 3584 1784 3584 
Q 2172 3584 2450 3431 
Q 2728 3278 2906 2969 
L 2906 3500 
L 3481 3500 
L 3481 434 
z
" transform="scale(0.015625)"/>
       </defs>
       <use xlink:href="#DejaVuSans-6e"/>
       <use xlink:href="#DejaVuSans-67" x="63.378906"/>
      </g>
     </g>
    </g>
    <g id="xtick_30">
     <g id="line2d_30">
      <g>
       <use xlink:href="#m0f60dd72b6" x="617.011568" y="354.958125" style="stroke: #000000; stroke-width: 0.8"/>
      </g>
     </g>
     <g id="text_30">
      <!-- ic -->
      <g transform="translate(612.873286 369.556562) scale(0.1 -0.1)">
       <use xlink:href="#DejaVuSans-69"/>
       <use xlink:href="#DejaVuSans-63" x="27.783203"/>
      </g>
     </g>
    </g>
    <g id="xtick_31">
     <g id="line2d_31">
      <g>
       <use xlink:href="#m0f60dd72b6" x="635.215134" y="354.958125" style="stroke: #000000; stroke-width: 0.8"/>
      </g>
     </g>
     <g id="text_31">
      <!-- ti -->
      <g transform="translate(631.865916 369.556562) scale(0.1 -0.1)">
       <use xlink:href="#DejaVuSans-74"/>
       <use xlink:href="#DejaVuSans-69" x="39.208984"/>
      </g>
     </g>
    </g>
    <g id="xtick_32">
     <g id="line2d_32">
      <g>
       <use xlink:href="#m0f60dd72b6" x="653.418701" y="354.958125" style="stroke: #000000; stroke-width: 0.8"/>
      </g>
     </g>
     <g id="text_32">
      <!-- se -->
      <g transform="translate(647.737451 369.556562) scale(0.1 -0.1)">
       <use xlink:href="#DejaVuSans-73"/>
       <use xlink:href="#DejaVuSans-65" x="52.099609"/>
      </g>
     </g>
    </g>
    <g id="xtick_33">
     <g id="line2d_33">
      <g>
       <use xlink:href="#m0f60dd72b6" x="671.622268" y="354.958125" style="stroke: #000000; stroke-width: 0.8"/>
      </g>
     </g>
     <g id="text_33">
      <!-- ne -->
      <g transform="translate(665.376955 369.556562) scale(0.1 -0.1)">
       <use xlink:href="#DejaVuSans-6e"/>
       <use xlink:href="#DejaVuSans-65" x="63.378906"/>
      </g>
     </g>
    </g>
    <g id="xtick_34">
     <g id="line2d_34">
      <g>
       <use xlink:href="#m0f60dd72b6" x="689.825835" y="354.958125" style="stroke: #000000; stroke-width: 0.8"/>
      </g>
     </g>
     <g id="text_34">
      <!-- es -->
      <g transform="translate(684.144585 369.556562) scale(0.1 -0.1)">
       <use xlink:href="#DejaVuSans-65"/>
       <use xlink:href="#DejaVuSans-73" x="61.523438"/>
      </g>
     </g>
    </g>
    <g id="xtick_35">
     <g id="line2d_35">
      <g>
       <use xlink:href="#m0f60dd72b6" x="708.029401" y="354.958125" style="stroke: #000000; stroke-width: 0.8"/>
      </g>
     </g>
     <g id="text_35">
      <!-- ha -->
      <g transform="translate(701.796589 369.556562) scale(0.1 -0.1)">
       <use xlink:href="#DejaVuSans-68"/>
       <use xlink:href="#DejaVuSans-61" x="63.378906"/>
      </g>
     </g>
    </g>
    <g id="xtick_36">
     <g id="line2d_36">
      <g>
       <use xlink:href="#m0f60dd72b6" x="726.232968" y="354.958125" style="stroke: #000000; stroke-width: 0.8"/>
      </g>
     </g>
     <g id="text_36">
      <!-- ea -->
      <g transform="translate(720.092343 369.556562) scale(0.1 -0.1)">
       <use xlink:href="#DejaVuSans-65"/>
       <use xlink:href="#DejaVuSans-61" x="61.523438"/>
      </g>
     </g>
    </g>
    <g id="xtick_37">
     <g id="line2d_37">
      <g>
       <use xlink:href="#m0f60dd72b6" x="744.436535" y="354.958125" style="stroke: #000000; stroke-width: 0.8"/>
      </g>
     </g>
     <g id="text_37">
      <!-- or -->
      <g transform="translate(739.321691 369.556562) scale(0.1 -0.1)">
       <use xlink:href="#DejaVuSans-6f"/>
       <use xlink:href="#DejaVuSans-72" x="61.181641"/>
      </g>
     </g>
    </g>
    <g id="xtick_38">
     <g id="line2d_38">
      <g>
       <use xlink:href="#m0f60dd72b6" x="762.640102" y="354.958125" style="stroke: #000000; stroke-width: 0.8"/>
      </g>
     </g>
     <g id="text_38">
      <!-- as -->
      <g transform="translate(756.971352 369.556562) scale(0.1 -0.1)">
       <use xlink:href="#DejaVuSans-61"/>
       <use xlink:href="#DejaVuSans-73" x="61.279297"/>
      </g>
     </g>
    </g>
    <g id="xtick_39">
     <g id="line2d_39">
      <g>
       <use xlink:href="#m0f60dd72b6" x="780.843668" y="354.958125" style="stroke: #000000; stroke-width: 0.8"/>
      </g>
     </g>
     <g id="text_39">
      <!-- ra -->
      <g transform="translate(775.724137 369.556562) scale(0.1 -0.1)">
       <use xlink:href="#DejaVuSans-72"/>
       <use xlink:href="#DejaVuSans-61" x="41.113281"/>
      </g>
     </g>
    </g>
    <g id="xtick_40">
     <g id="line2d_40">
      <g>
       <use xlink:href="#m0f60dd72b6" x="799.047235" y="354.958125" style="stroke: #000000; stroke-width: 0.8"/>
      </g>
     </g>
     <g id="text_40">
      <!-- te -->
      <g transform="translate(794.010516 369.556562) scale(0.1 -0.1)">
       <use xlink:href="#DejaVuSans-74"/>
       <use xlink:href="#DejaVuSans-65" x="39.208984"/>
      </g>
     </g>
    </g>
    <g id="xtick_41">
     <g id="line2d_41">
      <g>
       <use xlink:href="#m0f60dd72b6" x="817.250802" y="354.958125" style="stroke: #000000; stroke-width: 0.8"/>
      </g>
     </g>
     <g id="text_41">
      <!-- ou -->
      <g transform="translate(811.022677 369.556562) scale(0.1 -0.1)">
       <defs>
        <path id="DejaVuSans-75" d="M 544 1381 
L 544 3500 
L 1119 3500 
L 1119 1403 
Q 1119 906 1312 657 
Q 1506 409 1894 409 
Q 2359 409 2629 706 
Q 2900 1003 2900 1516 
L 2900 3500 
L 3475 3500 
L 3475 0 
L 2900 0 
L 2900 538 
Q 2691 219 2414 64 
Q 2138 -91 1772 -91 
Q 1169 -91 856 284 
Q 544 659 544 1381 
z
M 1991 3584 
L 1991 3584 
z
" transform="scale(0.015625)"/>
       </defs>
       <use xlink:href="#DejaVuSans-6f"/>
       <use xlink:href="#DejaVuSans-75" x="61.181641"/>
      </g>
     </g>
    </g>
    <g id="xtick_42">
     <g id="line2d_42">
      <g>
       <use xlink:href="#m0f60dd72b6" x="835.454369" y="354.958125" style="stroke: #000000; stroke-width: 0.8"/>
      </g>
     </g>
     <g id="text_42">
      <!-- ce -->
      <g transform="translate(829.628587 369.556562) scale(0.1 -0.1)">
       <use xlink:href="#DejaVuSans-63"/>
       <use xlink:href="#DejaVuSans-65" x="54.980469"/>
      </g>
     </g>
    </g>
    <g id="text_43">
     <!-- bigram -->
     <g transform="translate(444.553906 383.234687) scale(0.1 -0.1)">
      <defs>
       <path id="DejaVuSans-62" d="M 3116 1747 
Q 3116 2381 2855 2742 
Q 2594 3103 2138 3103 
Q 1681 3103 1420 2742 
Q 1159 2381 1159 1747 
Q 1159 1113 1420 752 
Q 1681 391 2138 391 
Q 2594 391 2855 752 
Q 3116 1113 3116 1747 
z
M 1159 2969 
Q 1341 3281 1617 3432 
Q 1894 3584 2278 3584 
Q 2916 3584 3314 3078 
Q 3713 2572 3713 1747 
Q 3713 922 3314 415 
Q 2916 -91 2278 -91 
Q 1894 -91 1617 61 
Q 1341 213 1159 525 
L 1159 0 
L 581 0 
L 581 4863 
L 1159 4863 
L 1159 2969 
z
" transform="scale(0.015625)"/>
      </defs>
      <use xlink:href="#DejaVuSans-62"/>
      <use xlink:href="#DejaVuSans-69" x="63.476562"/>
      <use xlink:href="#DejaVuSans-67" x="91.259766"/>
      <use xlink:href="#DejaVuSans-72" x="154.736328"/>
      <use xlink:href="#DejaVuSans-61" x="195.849609"/>
      <use xlink:href="#DejaVuSans-6d" x="257.128906"/>
     </g>
    </g>
   </g>
   <g id="matplotlib.axis_2">
    <g id="ytick_1">
     <g id="line2d_43">
      <defs>
       <path id="maf85906287" d="M 0 0 
L -3.5 0 
" style="stroke: #000000; stroke-width: 0.8"/>
      </defs>
      <g>
       <use xlink:href="#maf85906287" x="43.78125" y="354.958125" style="stroke: #000000; stroke-width: 0.8"/>
      </g>
     </g>
     <g id="text_44">
      <!-- 0.0 -->
      <g transform="translate(20.878125 358.757344) scale(0.1 -0.1)">
       <defs>
        <path id="DejaVuSans-30" d="M 2034 4250 
Q 1547 4250 1301 3770 
Q 1056 3291 1056 2328 
Q 1056 1369 1301 889 
Q 1547 409 2034 409 
Q 2525 409 2770 889 
Q 3016 1369 3016 2328 
Q 3016 3291 2770 3770 
Q 2525 4250 2034 4250 
z
M 2034 4750 
Q 2819 4750 3233 4129 
Q 3647 3509 3647 2328 
Q 3647 1150 3233 529 
Q 2819 -91 2034 -91 
Q 1250 -91 836 529 
Q 422 1150 422 2328 
Q 422 3509 836 4129 
Q 1250 4750 2034 4750 
z
" transform="scale(0.015625)"/>
        <path id="DejaVuSans-2e" d="M 684 794 
L 1344 794 
L 1344 0 
L 684 0 
L 684 794 
z
" transform="scale(0.015625)"/>
       </defs>
       <use xlink:href="#DejaVuSans-30"/>
       <use xlink:href="#DejaVuSans-2e" x="63.623047"/>
       <use xlink:href="#DejaVuSans-30" x="95.410156"/>
      </g>
     </g>
    </g>
    <g id="ytick_2">
     <g id="line2d_44">
      <g>
       <use xlink:href="#maf85906287" x="43.78125" y="310.463743" style="stroke: #000000; stroke-width: 0.8"/>
      </g>
     </g>
     <g id="text_45">
      <!-- 0.5 -->
      <g transform="translate(20.878125 314.262962) scale(0.1 -0.1)">
       <defs>
        <path id="DejaVuSans-35" d="M 691 4666 
L 3169 4666 
L 3169 4134 
L 1269 4134 
L 1269 2991 
Q 1406 3038 1543 3061 
Q 1681 3084 1819 3084 
Q 2600 3084 3056 2656 
Q 3513 2228 3513 1497 
Q 3513 744 3044 326 
Q 2575 -91 1722 -91 
Q 1428 -91 1123 -41 
Q 819 9 494 109 
L 494 744 
Q 775 591 1075 516 
Q 1375 441 1709 441 
Q 2250 441 2565 725 
Q 2881 1009 2881 1497 
Q 2881 1984 2565 2268 
Q 2250 2553 1709 2553 
Q 1456 2553 1204 2497 
Q 953 2441 691 2322 
L 691 4666 
z
" transform="scale(0.015625)"/>
       </defs>
       <use xlink:href="#DejaVuSans-30"/>
       <use xlink:href="#DejaVuSans-2e" x="63.623047"/>
       <use xlink:href="#DejaVuSans-35" x="95.410156"/>
      </g>
     </g>
    </g>
    <g id="ytick_3">
     <g id="line2d_45">
      <g>
       <use xlink:href="#maf85906287" x="43.78125" y="265.969361" style="stroke: #000000; stroke-width: 0.8"/>
      </g>
     </g>
     <g id="text_46">
      <!-- 1.0 -->
      <g transform="translate(20.878125 269.76858) scale(0.1 -0.1)">
       <defs>
        <path id="DejaVuSans-31" d="M 794 531 
L 1825 531 
L 1825 4091 
L 703 3866 
L 703 4441 
L 1819 4666 
L 2450 4666 
L 2450 531 
L 3481 531 
L 3481 0 
L 794 0 
L 794 531 
z
" transform="scale(0.015625)"/>
       </defs>
       <use xlink:href="#DejaVuSans-31"/>
       <use xlink:href="#DejaVuSans-2e" x="63.623047"/>
       <use xlink:href="#DejaVuSans-30" x="95.410156"/>
      </g>
     </g>
    </g>
    <g id="ytick_4">
     <g id="line2d_46">
      <g>
       <use xlink:href="#maf85906287" x="43.78125" y="221.474979" style="stroke: #000000; stroke-width: 0.8"/>
      </g>
     </g>
     <g id="text_47">
      <!-- 1.5 -->
      <g transform="translate(20.878125 225.274198) scale(0.1 -0.1)">
       <use xlink:href="#DejaVuSans-31"/>
       <use xlink:href="#DejaVuSans-2e" x="63.623047"/>
       <use xlink:href="#DejaVuSans-35" x="95.410156"/>
      </g>
     </g>
    </g>
    <g id="ytick_5">
     <g id="line2d_47">
      <g>
       <use xlink:href="#maf85906287" x="43.78125" y="176.980597" style="stroke: #000000; stroke-width: 0.8"/>
      </g>
     </g>
     <g id="text_48">
      <!-- 2.0 -->
      <g transform="translate(20.878125 180.779816) scale(0.1 -0.1)">
       <defs>
        <path id="DejaVuSans-32" d="M 1228 531 
L 3431 531 
L 3431 0 
L 469 0 
L 469 531 
Q 828 903 1448 1529 
Q 2069 2156 2228 2338 
Q 2531 2678 2651 2914 
Q 2772 3150 2772 3378 
Q 2772 3750 2511 3984 
Q 2250 4219 1831 4219 
Q 1534 4219 1204 4116 
Q 875 4013 500 3803 
L 500 4441 
Q 881 4594 1212 4672 
Q 1544 4750 1819 4750 
Q 2544 4750 2975 4387 
Q 3406 4025 3406 3419 
Q 3406 3131 3298 2873 
Q 3191 2616 2906 2266 
Q 2828 2175 2409 1742 
Q 1991 1309 1228 531 
z
" transform="scale(0.015625)"/>
       </defs>
       <use xlink:href="#DejaVuSans-32"/>
       <use xlink:href="#DejaVuSans-2e" x="63.623047"/>
       <use xlink:href="#DejaVuSans-30" x="95.410156"/>
      </g>
     </g>
    </g>
    <g id="ytick_6">
     <g id="line2d_48">
      <g>
       <use xlink:href="#maf85906287" x="43.78125" y="132.486215" style="stroke: #000000; stroke-width: 0.8"/>
      </g>
     </g>
     <g id="text_49">
      <!-- 2.5 -->
      <g transform="translate(20.878125 136.285434) scale(0.1 -0.1)">
       <use xlink:href="#DejaVuSans-32"/>
       <use xlink:href="#DejaVuSans-2e" x="63.623047"/>
       <use xlink:href="#DejaVuSans-35" x="95.410156"/>
      </g>
     </g>
    </g>
    <g id="ytick_7">
     <g id="line2d_49">
      <g>
       <use xlink:href="#maf85906287" x="43.78125" y="87.991833" style="stroke: #000000; stroke-width: 0.8"/>
      </g>
     </g>
     <g id="text_50">
      <!-- 3.0 -->
      <g transform="translate(20.878125 91.791052) scale(0.1 -0.1)">
       <defs>
        <path id="DejaVuSans-33" d="M 2597 2516 
Q 3050 2419 3304 2112 
Q 3559 1806 3559 1356 
Q 3559 666 3084 287 
Q 2609 -91 1734 -91 
Q 1441 -91 1130 -33 
Q 819 25 488 141 
L 488 750 
Q 750 597 1062 519 
Q 1375 441 1716 441 
Q 2309 441 2620 675 
Q 2931 909 2931 1356 
Q 2931 1769 2642 2001 
Q 2353 2234 1838 2234 
L 1294 2234 
L 1294 2753 
L 1863 2753 
Q 2328 2753 2575 2939 
Q 2822 3125 2822 3475 
Q 2822 3834 2567 4026 
Q 2313 4219 1838 4219 
Q 1578 4219 1281 4162 
Q 984 4106 628 3988 
L 628 4550 
Q 988 4650 1302 4700 
Q 1616 4750 1894 4750 
Q 2613 4750 3031 4423 
Q 3450 4097 3450 3541 
Q 3450 3153 3228 2886 
Q 3006 2619 2597 2516 
z
" transform="scale(0.015625)"/>
       </defs>
       <use xlink:href="#DejaVuSans-33"/>
       <use xlink:href="#DejaVuSans-2e" x="63.623047"/>
       <use xlink:href="#DejaVuSans-30" x="95.410156"/>
      </g>
     </g>
    </g>
    <g id="ytick_8">
     <g id="line2d_50">
      <g>
       <use xlink:href="#maf85906287" x="43.78125" y="43.497451" style="stroke: #000000; stroke-width: 0.8"/>
      </g>
     </g>
     <g id="text_51">
      <!-- 3.5 -->
      <g transform="translate(20.878125 47.29667) scale(0.1 -0.1)">
       <use xlink:href="#DejaVuSans-33"/>
       <use xlink:href="#DejaVuSans-2e" x="63.623047"/>
       <use xlink:href="#DejaVuSans-35" x="95.410156"/>
      </g>
     </g>
    </g>
    <g id="text_52">
     <!-- frequency (percentage) -->
     <g transform="translate(14.798438 247.668594) rotate(-90) scale(0.1 -0.1)">
      <defs>
       <path id="DejaVuSans-71" d="M 947 1747 
Q 947 1113 1208 752 
Q 1469 391 1925 391 
Q 2381 391 2643 752 
Q 2906 1113 2906 1747 
Q 2906 2381 2643 2742 
Q 2381 3103 1925 3103 
Q 1469 3103 1208 2742 
Q 947 2381 947 1747 
z
M 2906 525 
Q 2725 213 2448 61 
Q 2172 -91 1784 -91 
Q 1150 -91 751 415 
Q 353 922 353 1747 
Q 353 2572 751 3078 
Q 1150 3584 1784 3584 
Q 2172 3584 2448 3432 
Q 2725 3281 2906 2969 
L 2906 3500 
L 3481 3500 
L 3481 -1331 
L 2906 -1331 
L 2906 525 
z
" transform="scale(0.015625)"/>
       <path id="DejaVuSans-79" d="M 2059 -325 
Q 1816 -950 1584 -1140 
Q 1353 -1331 966 -1331 
L 506 -1331 
L 506 -850 
L 844 -850 
Q 1081 -850 1212 -737 
Q 1344 -625 1503 -206 
L 1606 56 
L 191 3500 
L 800 3500 
L 1894 763 
L 2988 3500 
L 3597 3500 
L 2059 -325 
z
" transform="scale(0.015625)"/>
       <path id="DejaVuSans-20" transform="scale(0.015625)"/>
       <path id="DejaVuSans-28" d="M 1984 4856 
Q 1566 4138 1362 3434 
Q 1159 2731 1159 2009 
Q 1159 1288 1364 580 
Q 1569 -128 1984 -844 
L 1484 -844 
Q 1016 -109 783 600 
Q 550 1309 550 2009 
Q 550 2706 781 3412 
Q 1013 4119 1484 4856 
L 1984 4856 
z
" transform="scale(0.015625)"/>
       <path id="DejaVuSans-70" d="M 1159 525 
L 1159 -1331 
L 581 -1331 
L 581 3500 
L 1159 3500 
L 1159 2969 
Q 1341 3281 1617 3432 
Q 1894 3584 2278 3584 
Q 2916 3584 3314 3078 
Q 3713 2572 3713 1747 
Q 3713 922 3314 415 
Q 2916 -91 2278 -91 
Q 1894 -91 1617 61 
Q 1341 213 1159 525 
z
M 3116 1747 
Q 3116 2381 2855 2742 
Q 2594 3103 2138 3103 
Q 1681 3103 1420 2742 
Q 1159 2381 1159 1747 
Q 1159 1113 1420 752 
Q 1681 391 2138 391 
Q 2594 391 2855 752 
Q 3116 1113 3116 1747 
z
" transform="scale(0.015625)"/>
       <path id="DejaVuSans-29" d="M 513 4856 
L 1013 4856 
Q 1481 4119 1714 3412 
Q 1947 2706 1947 2009 
Q 1947 1309 1714 600 
Q 1481 -109 1013 -844 
L 513 -844 
Q 928 -128 1133 580 
Q 1338 1288 1338 2009 
Q 1338 2731 1133 3434 
Q 928 4138 513 4856 
z
" transform="scale(0.015625)"/>
      </defs>
      <use xlink:href="#DejaVuSans-66"/>
      <use xlink:href="#DejaVuSans-72" x="35.205078"/>
      <use xlink:href="#DejaVuSans-65" x="74.068359"/>
      <use xlink:href="#DejaVuSans-71" x="135.591797"/>
      <use xlink:href="#DejaVuSans-75" x="199.068359"/>
      <use xlink:href="#DejaVuSans-65" x="262.447266"/>
      <use xlink:href="#DejaVuSans-6e" x="323.970703"/>
      <use xlink:href="#DejaVuSans-63" x="387.349609"/>
      <use xlink:href="#DejaVuSans-79" x="442.330078"/>
      <use xlink:href="#DejaVuSans-20" x="501.509766"/>
      <use xlink:href="#DejaVuSans-28" x="533.296875"/>
      <use xlink:href="#DejaVuSans-70" x="572.310547"/>
      <use xlink:href="#DejaVuSans-65" x="635.787109"/>
      <use xlink:href="#DejaVuSans-72" x="697.310547"/>
      <use xlink:href="#DejaVuSans-63" x="736.173828"/>
      <use xlink:href="#DejaVuSans-65" x="791.154297"/>
      <use xlink:href="#DejaVuSans-6e" x="852.677734"/>
      <use xlink:href="#DejaVuSans-74" x="916.056641"/>
      <use xlink:href="#DejaVuSans-61" x="955.265625"/>
      <use xlink:href="#DejaVuSans-67" x="1016.544922"/>
      <use xlink:href="#DejaVuSans-65" x="1080.021484"/>
      <use xlink:href="#DejaVuSans-29" x="1141.544922"/>
     </g>
    </g>
   </g>
   <g id="patch_45">
    <path d="M 43.78125 354.958125 
L 43.78125 22.318125 
" style="fill: none; stroke: #000000; stroke-width: 0.8; stroke-linejoin: miter; stroke-linecap: square"/>
   </g>
   <g id="patch_46">
    <path d="M 880.78125 354.958125 
L 880.78125 22.318125 
" style="fill: none; stroke: #000000; stroke-width: 0.8; stroke-linejoin: miter; stroke-linecap: square"/>
   </g>
   <g id="patch_47">
    <path d="M 43.78125 354.958125 
L 880.78125 354.958125 
" style="fill: none; stroke: #000000; stroke-width: 0.8; stroke-linejoin: miter; stroke-linecap: square"/>
   </g>
   <g id="patch_48">
    <path d="M 43.78125 22.318125 
L 880.78125 22.318125 
" style="fill: none; stroke: #000000; stroke-width: 0.8; stroke-linejoin: miter; stroke-linecap: square"/>
   </g>
   <g id="text_53">
    <!-- bigram frequency in english -->
    <g transform="translate(378.16125 16.318125) scale(0.12 -0.12)">
     <use xlink:href="#DejaVuSans-62"/>
     <use xlink:href="#DejaVuSans-69" x="63.476562"/>
     <use xlink:href="#DejaVuSans-67" x="91.259766"/>
     <use xlink:href="#DejaVuSans-72" x="154.736328"/>
     <use xlink:href="#DejaVuSans-61" x="195.849609"/>
     <use xlink:href="#DejaVuSans-6d" x="257.128906"/>
     <use xlink:href="#DejaVuSans-20" x="354.541016"/>
     <use xlink:href="#DejaVuSans-66" x="386.328125"/>
     <use xlink:href="#DejaVuSans-72" x="421.533203"/>
     <use xlink:href="#DejaVuSans-65" x="460.396484"/>
     <use xlink:href="#DejaVuSans-71" x="521.919922"/>
     <use xlink:href="#DejaVuSans-75" x="585.396484"/>
     <use xlink:href="#DejaVuSans-65" x="648.775391"/>
     <use xlink:href="#DejaVuSans-6e" x="710.298828"/>
     <use xlink:href="#DejaVuSans-63" x="773.677734"/>
     <use xlink:href="#DejaVuSans-79" x="828.658203"/>
     <use xlink:href="#DejaVuSans-20" x="887.837891"/>
     <use xlink:href="#DejaVuSans-69" x="919.625"/>
     <use xlink:href="#DejaVuSans-6e" x="947.408203"/>
     <use xlink:href="#DejaVuSans-20" x="1010.787109"/>
     <use xlink:href="#DejaVuSans-65" x="1042.574219"/>
     <use xlink:href="#DejaVuSans-6e" x="1104.097656"/>
     <use xlink:href="#DejaVuSans-67" x="1167.476562"/>
     <use xlink:href="#DejaVuSans-6c" x="1230.953125"/>
     <use xlink:href="#DejaVuSans-69" x="1258.736328"/>
     <use xlink:href="#DejaVuSans-73" x="1286.519531"/>
     <use xlink:href="#DejaVuSans-68" x="1338.619141"/>
    </g>
   </g>
  </g>
 </g>
 <defs>
  <clipPath id="pf37f20fbbe">
   <rect x="43.78125" y="22.318125" width="837" height="332.64"/>
  </clipPath>
 </defs>
</svg>
