<?xml version="1.0" encoding="utf-8" standalone="no"?>
<!DOCTYPE svg PUBLIC "-//W3C//DTD SVG 1.1//EN"
  "http://www.w3.org/Graphics/SVG/1.1/DTD/svg11.dtd">
<svg xmlns:xlink="http://www.w3.org/1999/xlink" width="341.708447pt" height="337.493272pt" viewBox="0 0 341.708447 337.493272" xmlns="http://www.w3.org/2000/svg" version="1.1">
 <metadata>
  <rdf:RDF xmlns:dc="http://purl.org/dc/elements/1.1/" xmlns:cc="http://creativecommons.org/ns#" xmlns:rdf="http://www.w3.org/1999/02/22-rdf-syntax-ns#">
   <cc:Work>
    <dc:type rdf:resource="http://purl.org/dc/dcmitype/StillImage"/>
    <dc:date>2023-10-04T18:46:08.750334</dc:date>
    <dc:format>image/svg+xml</dc:format>
    <dc:creator>
     <cc:Agent>
      <dc:title>Matplotlib v3.8.0, https://matplotlib.org/</dc:title>
     </cc:Agent>
    </dc:creator>
   </cc:Work>
  </rdf:RDF>
 </metadata>
 <defs>
  <style type="text/css">*{stroke-linejoin: round; stroke-linecap: butt}</style>
 </defs>
 <g id="figure_1">
  <g id="patch_1">
   <path d="M 0 337.493272 
L 341.708447 337.493272 
L 341.708447 0 
L 0 0 
L 0 337.493272 
z
" style="fill: none"/>
  </g>
  <g id="axes_1">
   <g id="patch_2">
    <path d="M 20.905812 320.461862 
L 334.167674 320.461862 
L 334.167674 7.2 
L 20.905812 7.2 
L 20.905812 320.461862 
z
" style="fill: none"/>
   </g>
   <g id="patch_3">
    <path d="M 26.930079 314.437595 
L 26.930079 13.224267 
L 31.233127 13.224267 
L 31.233127 314.437595 
L 26.930079 314.437595 
z
" clip-path="url(#pf3182f3087)" style="fill: none; stroke: #0000ff; stroke-linejoin: miter"/>
   </g>
   <g id="patch_4">
    <path d="M 31.233127 314.437595 
L 31.233127 17.496724 
L 35.536174 17.496724 
L 35.536174 314.437595 
L 31.233127 314.437595 
z
" clip-path="url(#pf3182f3087)" style="fill: none; stroke: #0000ff; stroke-linejoin: miter"/>
   </g>
   <g id="patch_5">
    <path d="M 35.536174 314.437595 
L 35.536174 21.70858 
L 39.839222 21.70858 
L 39.839222 314.437595 
L 35.536174 314.437595 
z
" clip-path="url(#pf3182f3087)" style="fill: none; stroke: #0000ff; stroke-linejoin: miter"/>
   </g>
   <g id="patch_6">
    <path d="M 39.839222 314.437595 
L 39.839222 25.860695 
L 44.142269 25.860695 
L 44.142269 314.437595 
L 39.839222 314.437595 
z
" clip-path="url(#pf3182f3087)" style="fill: none; stroke: #0000ff; stroke-linejoin: miter"/>
   </g>
   <g id="patch_7">
    <path d="M 44.142269 314.437595 
L 44.142269 29.953915 
L 48.445317 29.953915 
L 48.445317 314.437595 
L 44.142269 314.437595 
z
" clip-path="url(#pf3182f3087)" style="fill: none; stroke: #0000ff; stroke-linejoin: miter"/>
   </g>
   <g id="patch_8">
    <path d="M 48.445317 314.437595 
L 48.445317 33.989076 
L 52.748364 33.989076 
L 52.748364 314.437595 
L 48.445317 314.437595 
z
" clip-path="url(#pf3182f3087)" style="fill: none; stroke: #0000ff; stroke-linejoin: miter"/>
   </g>
   <g id="patch_9">
    <path d="M 52.748364 314.437595 
L 52.748364 37.967002 
L 57.051412 37.967002 
L 57.051412 314.437595 
L 52.748364 314.437595 
z
" clip-path="url(#pf3182f3087)" style="fill: none; stroke: #0000ff; stroke-linejoin: miter"/>
   </g>
   <g id="patch_10">
    <path d="M 57.051412 314.437595 
L 57.051412 41.888505 
L 61.354459 41.888505 
L 61.354459 314.437595 
L 57.051412 314.437595 
z
" clip-path="url(#pf3182f3087)" style="fill: none; stroke: #0000ff; stroke-linejoin: miter"/>
   </g>
   <g id="patch_11">
    <path d="M 61.354459 314.437595 
L 61.354459 45.754384 
L 65.657507 45.754384 
L 65.657507 314.437595 
L 61.354459 314.437595 
z
" clip-path="url(#pf3182f3087)" style="fill: none; stroke: #0000ff; stroke-linejoin: miter"/>
   </g>
   <g id="patch_12">
    <path d="M 65.657507 314.437595 
L 65.657507 49.565429 
L 69.960554 49.565429 
L 69.960554 314.437595 
L 65.657507 314.437595 
z
" clip-path="url(#pf3182f3087)" style="fill: none; stroke: #0000ff; stroke-linejoin: miter"/>
   </g>
   <g id="patch_13">
    <path d="M 69.960554 314.437595 
L 69.960554 53.322417 
L 74.263602 53.322417 
L 74.263602 314.437595 
L 69.960554 314.437595 
z
" clip-path="url(#pf3182f3087)" style="fill: none; stroke: #0000ff; stroke-linejoin: miter"/>
   </g>
   <g id="patch_14">
    <path d="M 74.263602 314.437595 
L 74.263602 57.026116 
L 78.56665 57.026116 
L 78.56665 314.437595 
L 74.263602 314.437595 
z
" clip-path="url(#pf3182f3087)" style="fill: none; stroke: #0000ff; stroke-linejoin: miter"/>
   </g>
   <g id="patch_15">
    <path d="M 78.56665 314.437595 
L 78.56665 60.677281 
L 82.869697 60.677281 
L 82.869697 314.437595 
L 78.56665 314.437595 
z
" clip-path="url(#pf3182f3087)" style="fill: none; stroke: #0000ff; stroke-linejoin: miter"/>
   </g>
   <g id="patch_16">
    <path d="M 82.869697 314.437595 
L 82.869697 64.276658 
L 87.172745 64.276658 
L 87.172745 314.437595 
L 82.869697 314.437595 
z
" clip-path="url(#pf3182f3087)" style="fill: none; stroke: #0000ff; stroke-linejoin: miter"/>
   </g>
   <g id="patch_17">
    <path d="M 87.172745 314.437595 
L 87.172745 67.82498 
L 91.475792 67.82498 
L 91.475792 314.437595 
L 87.172745 314.437595 
z
" clip-path="url(#pf3182f3087)" style="fill: none; stroke: #0000ff; stroke-linejoin: miter"/>
   </g>
   <g id="patch_18">
    <path d="M 91.475792 314.437595 
L 91.475792 71.322972 
L 95.77884 71.322972 
L 95.77884 314.437595 
L 91.475792 314.437595 
z
" clip-path="url(#pf3182f3087)" style="fill: none; stroke: #0000ff; stroke-linejoin: miter"/>
   </g>
   <g id="patch_19">
    <path d="M 95.77884 314.437595 
L 95.77884 74.771348 
L 100.081887 74.771348 
L 100.081887 314.437595 
L 95.77884 314.437595 
z
" clip-path="url(#pf3182f3087)" style="fill: none; stroke: #0000ff; stroke-linejoin: miter"/>
   </g>
   <g id="patch_20">
    <path d="M 100.081887 314.437595 
L 100.081887 78.170812 
L 104.384935 78.170812 
L 104.384935 314.437595 
L 100.081887 314.437595 
z
" clip-path="url(#pf3182f3087)" style="fill: none; stroke: #0000ff; stroke-linejoin: miter"/>
   </g>
   <g id="patch_21">
    <path d="M 104.384935 314.437595 
L 104.384935 81.522057 
L 108.687982 81.522057 
L 108.687982 314.437595 
L 104.384935 314.437595 
z
" clip-path="url(#pf3182f3087)" style="fill: none; stroke: #0000ff; stroke-linejoin: miter"/>
   </g>
   <g id="patch_22">
    <path d="M 108.687982 314.437595 
L 108.687982 84.825768 
L 112.99103 84.825768 
L 112.99103 314.437595 
L 108.687982 314.437595 
z
" clip-path="url(#pf3182f3087)" style="fill: none; stroke: #0000ff; stroke-linejoin: miter"/>
   </g>
   <g id="patch_23">
    <path d="M 112.99103 314.437595 
L 112.99103 88.082618 
L 117.294078 88.082618 
L 117.294078 314.437595 
L 112.99103 314.437595 
z
" clip-path="url(#pf3182f3087)" style="fill: none; stroke: #0000ff; stroke-linejoin: miter"/>
   </g>
   <g id="patch_24">
    <path d="M 117.294078 314.437595 
L 117.294078 91.293273 
L 121.597125 91.293273 
L 121.597125 314.437595 
L 117.294078 314.437595 
z
" clip-path="url(#pf3182f3087)" style="fill: none; stroke: #0000ff; stroke-linejoin: miter"/>
   </g>
   <g id="patch_25">
    <path d="M 121.597125 314.437595 
L 121.597125 94.458387 
L 125.900173 94.458387 
L 125.900173 314.437595 
L 121.597125 314.437595 
z
" clip-path="url(#pf3182f3087)" style="fill: none; stroke: #0000ff; stroke-linejoin: miter"/>
   </g>
   <g id="patch_26">
    <path d="M 125.900173 314.437595 
L 125.900173 97.578607 
L 130.20322 97.578607 
L 130.20322 314.437595 
L 125.900173 314.437595 
z
" clip-path="url(#pf3182f3087)" style="fill: none; stroke: #0000ff; stroke-linejoin: miter"/>
   </g>
   <g id="patch_27">
    <path d="M 130.20322 314.437595 
L 130.20322 100.654569 
L 134.506268 100.654569 
L 134.506268 314.437595 
L 130.20322 314.437595 
z
" clip-path="url(#pf3182f3087)" style="fill: none; stroke: #0000ff; stroke-linejoin: miter"/>
   </g>
   <g id="patch_28">
    <path d="M 134.506268 314.437595 
L 134.506268 103.686901 
L 138.809315 103.686901 
L 138.809315 314.437595 
L 134.506268 314.437595 
z
" clip-path="url(#pf3182f3087)" style="fill: none; stroke: #0000ff; stroke-linejoin: miter"/>
   </g>
   <g id="patch_29">
    <path d="M 138.809315 314.437595 
L 138.809315 106.676222 
L 143.112363 106.676222 
L 143.112363 314.437595 
L 138.809315 314.437595 
z
" clip-path="url(#pf3182f3087)" style="fill: none; stroke: #0000ff; stroke-linejoin: miter"/>
   </g>
   <g id="patch_30">
    <path d="M 143.112363 314.437595 
L 143.112363 109.623142 
L 147.41541 109.623142 
L 147.41541 314.437595 
L 143.112363 314.437595 
z
" clip-path="url(#pf3182f3087)" style="fill: none; stroke: #0000ff; stroke-linejoin: miter"/>
   </g>
   <g id="patch_31">
    <path d="M 147.41541 314.437595 
L 147.41541 112.528263 
L 151.718458 112.528263 
L 151.718458 314.437595 
L 147.41541 314.437595 
z
" clip-path="url(#pf3182f3087)" style="fill: none; stroke: #0000ff; stroke-linejoin: miter"/>
   </g>
   <g id="patch_32">
    <path d="M 151.718458 314.437595 
L 151.718458 115.392177 
L 156.021506 115.392177 
L 156.021506 314.437595 
L 151.718458 314.437595 
z
" clip-path="url(#pf3182f3087)" style="fill: none; stroke: #0000ff; stroke-linejoin: miter"/>
   </g>
   <g id="patch_33">
    <path d="M 156.021506 314.437595 
L 156.021506 118.215468 
L 160.324553 118.215468 
L 160.324553 314.437595 
L 156.021506 314.437595 
z
" clip-path="url(#pf3182f3087)" style="fill: none; stroke: #0000ff; stroke-linejoin: miter"/>
   </g>
   <g id="patch_34">
    <path d="M 160.324553 314.437595 
L 160.324553 120.998714 
L 164.627601 120.998714 
L 164.627601 314.437595 
L 160.324553 314.437595 
z
" clip-path="url(#pf3182f3087)" style="fill: none; stroke: #0000ff; stroke-linejoin: miter"/>
   </g>
   <g id="patch_35">
    <path d="M 164.627601 314.437595 
L 164.627601 123.742481 
L 168.930648 123.742481 
L 168.930648 314.437595 
L 164.627601 314.437595 
z
" clip-path="url(#pf3182f3087)" style="fill: none; stroke: #0000ff; stroke-linejoin: miter"/>
   </g>
   <g id="patch_36">
    <path d="M 168.930648 314.437595 
L 168.930648 126.447331 
L 173.233696 126.447331 
L 173.233696 314.437595 
L 168.930648 314.437595 
z
" clip-path="url(#pf3182f3087)" style="fill: none; stroke: #0000ff; stroke-linejoin: miter"/>
   </g>
   <g id="patch_37">
    <path d="M 173.233696 314.437595 
L 173.233696 129.113815 
L 177.536743 129.113815 
L 177.536743 314.437595 
L 173.233696 314.437595 
z
" clip-path="url(#pf3182f3087)" style="fill: none; stroke: #0000ff; stroke-linejoin: miter"/>
   </g>
   <g id="patch_38">
    <path d="M 177.536743 314.437595 
L 177.536743 131.742476 
L 181.839791 131.742476 
L 181.839791 314.437595 
L 177.536743 314.437595 
z
" clip-path="url(#pf3182f3087)" style="fill: none; stroke: #0000ff; stroke-linejoin: miter"/>
   </g>
   <g id="patch_39">
    <path d="M 181.839791 314.437595 
L 181.839791 134.333853 
L 186.142838 134.333853 
L 186.142838 314.437595 
L 181.839791 314.437595 
z
" clip-path="url(#pf3182f3087)" style="fill: none; stroke: #0000ff; stroke-linejoin: miter"/>
   </g>
   <g id="patch_40">
    <path d="M 186.142838 314.437595 
L 186.142838 136.888473 
L 190.445886 136.888473 
L 190.445886 314.437595 
L 186.142838 314.437595 
z
" clip-path="url(#pf3182f3087)" style="fill: none; stroke: #0000ff; stroke-linejoin: miter"/>
   </g>
   <g id="patch_41">
    <path d="M 190.445886 314.437595 
L 190.445886 139.406857 
L 194.748933 139.406857 
L 194.748933 314.437595 
L 190.445886 314.437595 
z
" clip-path="url(#pf3182f3087)" style="fill: none; stroke: #0000ff; stroke-linejoin: miter"/>
   </g>
   <g id="patch_42">
    <path d="M 194.748933 314.437595 
L 194.748933 141.889521 
L 199.051981 141.889521 
L 199.051981 314.437595 
L 194.748933 314.437595 
z
" clip-path="url(#pf3182f3087)" style="fill: none; stroke: #0000ff; stroke-linejoin: miter"/>
   </g>
   <g id="patch_43">
    <path d="M 199.051981 314.437595 
L 199.051981 144.33697 
L 203.355029 144.33697 
L 203.355029 314.437595 
L 199.051981 314.437595 
z
" clip-path="url(#pf3182f3087)" style="fill: none; stroke: #0000ff; stroke-linejoin: miter"/>
   </g>
   <g id="patch_44">
    <path d="M 203.355029 314.437595 
L 203.355029 146.749704 
L 207.658076 146.749704 
L 207.658076 314.437595 
L 203.355029 314.437595 
z
" clip-path="url(#pf3182f3087)" style="fill: none; stroke: #0000ff; stroke-linejoin: miter"/>
   </g>
   <g id="patch_45">
    <path d="M 207.658076 314.437595 
L 207.658076 149.128215 
L 211.961124 149.128215 
L 211.961124 314.437595 
L 207.658076 314.437595 
z
" clip-path="url(#pf3182f3087)" style="fill: none; stroke: #0000ff; stroke-linejoin: miter"/>
   </g>
   <g id="patch_46">
    <path d="M 211.961124 314.437595 
L 211.961124 151.47299 
L 216.264171 151.47299 
L 216.264171 314.437595 
L 211.961124 314.437595 
z
" clip-path="url(#pf3182f3087)" style="fill: none; stroke: #0000ff; stroke-linejoin: miter"/>
   </g>
   <g id="patch_47">
    <path d="M 216.264171 314.437595 
L 216.264171 153.784505 
L 220.567219 153.784505 
L 220.567219 314.437595 
L 216.264171 314.437595 
z
" clip-path="url(#pf3182f3087)" style="fill: none; stroke: #0000ff; stroke-linejoin: miter"/>
   </g>
   <g id="patch_48">
    <path d="M 220.567219 314.437595 
L 220.567219 156.063234 
L 224.870266 156.063234 
L 224.870266 314.437595 
L 220.567219 314.437595 
z
" clip-path="url(#pf3182f3087)" style="fill: none; stroke: #0000ff; stroke-linejoin: miter"/>
   </g>
   <g id="patch_49">
    <path d="M 224.870266 314.437595 
L 224.870266 158.309641 
L 229.173314 158.309641 
L 229.173314 314.437595 
L 224.870266 314.437595 
z
" clip-path="url(#pf3182f3087)" style="fill: none; stroke: #0000ff; stroke-linejoin: miter"/>
   </g>
   <g id="patch_50">
    <path d="M 229.173314 314.437595 
L 229.173314 160.524185 
L 233.476361 160.524185 
L 233.476361 314.437595 
L 229.173314 314.437595 
z
" clip-path="url(#pf3182f3087)" style="fill: none; stroke: #0000ff; stroke-linejoin: miter"/>
   </g>
   <g id="patch_51">
    <path d="M 233.476361 314.437595 
L 233.476361 162.707317 
L 237.779409 162.707317 
L 237.779409 314.437595 
L 233.476361 314.437595 
z
" clip-path="url(#pf3182f3087)" style="fill: none; stroke: #0000ff; stroke-linejoin: miter"/>
   </g>
   <g id="patch_52">
    <path d="M 237.779409 314.437595 
L 237.779409 164.859483 
L 242.082457 164.859483 
L 242.082457 314.437595 
L 237.779409 314.437595 
z
" clip-path="url(#pf3182f3087)" style="fill: none; stroke: #0000ff; stroke-linejoin: miter"/>
   </g>
   <g id="patch_53">
    <path d="M 242.082457 314.437595 
L 242.082457 166.981122 
L 246.385504 166.981122 
L 246.385504 314.437595 
L 242.082457 314.437595 
z
" clip-path="url(#pf3182f3087)" style="fill: none; stroke: #0000ff; stroke-linejoin: miter"/>
   </g>
   <g id="patch_54">
    <path d="M 246.385504 314.437595 
L 246.385504 169.072668 
L 250.688552 169.072668 
L 250.688552 314.437595 
L 246.385504 314.437595 
z
" clip-path="url(#pf3182f3087)" style="fill: none; stroke: #0000ff; stroke-linejoin: miter"/>
   </g>
   <g id="patch_55">
    <path d="M 250.688552 314.437595 
L 250.688552 171.134547 
L 254.991599 171.134547 
L 254.991599 314.437595 
L 250.688552 314.437595 
z
" clip-path="url(#pf3182f3087)" style="fill: none; stroke: #0000ff; stroke-linejoin: miter"/>
   </g>
   <g id="patch_56">
    <path d="M 254.991599 314.437595 
L 254.991599 173.16718 
L 259.294647 173.16718 
L 259.294647 314.437595 
L 254.991599 314.437595 
z
" clip-path="url(#pf3182f3087)" style="fill: none; stroke: #0000ff; stroke-linejoin: miter"/>
   </g>
   <g id="patch_57">
    <path d="M 259.294647 314.437595 
L 259.294647 175.170982 
L 263.597694 175.170982 
L 263.597694 314.437595 
L 259.294647 314.437595 
z
" clip-path="url(#pf3182f3087)" style="fill: none; stroke: #0000ff; stroke-linejoin: miter"/>
   </g>
   <g id="patch_58">
    <path d="M 263.597694 314.437595 
L 263.597694 177.146362 
L 267.900742 177.146362 
L 267.900742 314.437595 
L 263.597694 314.437595 
z
" clip-path="url(#pf3182f3087)" style="fill: none; stroke: #0000ff; stroke-linejoin: miter"/>
   </g>
   <g id="patch_59">
    <path d="M 267.900742 314.437595 
L 267.900742 179.093722 
L 272.203789 179.093722 
L 272.203789 314.437595 
L 267.900742 314.437595 
z
" clip-path="url(#pf3182f3087)" style="fill: none; stroke: #0000ff; stroke-linejoin: miter"/>
   </g>
   <g id="patch_60">
    <path d="M 272.203789 314.437595 
L 272.203789 181.013461 
L 276.506837 181.013461 
L 276.506837 314.437595 
L 272.203789 314.437595 
z
" clip-path="url(#pf3182f3087)" style="fill: none; stroke: #0000ff; stroke-linejoin: miter"/>
   </g>
   <g id="patch_61">
    <path d="M 276.506837 314.437595 
L 276.506837 182.90597 
L 280.809885 182.90597 
L 280.809885 314.437595 
L 276.506837 314.437595 
z
" clip-path="url(#pf3182f3087)" style="fill: none; stroke: #0000ff; stroke-linejoin: miter"/>
   </g>
   <g id="patch_62">
    <path d="M 280.809885 314.437595 
L 280.809885 184.771635 
L 285.112932 184.771635 
L 285.112932 314.437595 
L 280.809885 314.437595 
z
" clip-path="url(#pf3182f3087)" style="fill: none; stroke: #0000ff; stroke-linejoin: miter"/>
   </g>
   <g id="patch_63">
    <path d="M 285.112932 314.437595 
L 285.112932 186.610838 
L 289.41598 186.610838 
L 289.41598 314.437595 
L 285.112932 314.437595 
z
" clip-path="url(#pf3182f3087)" style="fill: none; stroke: #0000ff; stroke-linejoin: miter"/>
   </g>
   <g id="patch_64">
    <path d="M 289.41598 314.437595 
L 289.41598 188.423953 
L 293.719027 188.423953 
L 293.719027 314.437595 
L 289.41598 314.437595 
z
" clip-path="url(#pf3182f3087)" style="fill: none; stroke: #0000ff; stroke-linejoin: miter"/>
   </g>
   <g id="patch_65">
    <path d="M 293.719027 314.437595 
L 293.719027 190.21135 
L 298.022075 190.21135 
L 298.022075 314.437595 
L 293.719027 314.437595 
z
" clip-path="url(#pf3182f3087)" style="fill: none; stroke: #0000ff; stroke-linejoin: miter"/>
   </g>
   <g id="patch_66">
    <path d="M 298.022075 314.437595 
L 298.022075 191.973395 
L 302.325122 191.973395 
L 302.325122 314.437595 
L 298.022075 314.437595 
z
" clip-path="url(#pf3182f3087)" style="fill: none; stroke: #0000ff; stroke-linejoin: miter"/>
   </g>
   <g id="patch_67">
    <path d="M 302.325122 314.437595 
L 302.325122 193.710446 
L 306.62817 193.710446 
L 306.62817 314.437595 
L 302.325122 314.437595 
z
" clip-path="url(#pf3182f3087)" style="fill: none; stroke: #0000ff; stroke-linejoin: miter"/>
   </g>
   <g id="patch_68">
    <path d="M 306.62817 314.437595 
L 306.62817 195.422859 
L 310.931217 195.422859 
L 310.931217 314.437595 
L 306.62817 314.437595 
z
" clip-path="url(#pf3182f3087)" style="fill: none; stroke: #0000ff; stroke-linejoin: miter"/>
   </g>
   <g id="patch_69">
    <path d="M 310.931217 314.437595 
L 310.931217 197.110983 
L 315.234265 197.110983 
L 315.234265 314.437595 
L 310.931217 314.437595 
z
" clip-path="url(#pf3182f3087)" style="fill: none; stroke: #0000ff; stroke-linejoin: miter"/>
   </g>
   <g id="patch_70">
    <path d="M 315.234265 314.437595 
L 315.234265 198.775162 
L 319.537312 198.775162 
L 319.537312 314.437595 
L 315.234265 314.437595 
z
" clip-path="url(#pf3182f3087)" style="fill: none; stroke: #0000ff; stroke-linejoin: miter"/>
   </g>
   <g id="patch_71">
    <path d="M 319.537312 314.437595 
L 319.537312 200.415736 
L 323.84036 200.415736 
L 323.84036 314.437595 
L 319.537312 314.437595 
z
" clip-path="url(#pf3182f3087)" style="fill: none; stroke: #0000ff; stroke-linejoin: miter"/>
   </g>
   <g id="patch_72">
    <path d="M 323.84036 314.437595 
L 323.84036 202.03304 
L 328.143408 202.03304 
L 328.143408 314.437595 
L 323.84036 314.437595 
z
" clip-path="url(#pf3182f3087)" style="fill: none; stroke: #0000ff; stroke-linejoin: miter"/>
   </g>
   <g id="patch_73">
    <path d="M 26.930079 314.437595 
L 26.930079 13.224267 
L 28.871263 15.159209 
L 29.310858 15.595661 
L 31.398387 17.659595 
L 33.177099 19.406952 
L 35.202763 21.384381 
L 35.953907 22.114265 
L 37.474758 23.58651 
L 38.624199 24.694293 
L 39.975398 25.991129 
L 42.597029 28.490749 
L 43.627129 29.46697 
L 45.50885 31.241671 
L 45.866991 31.578189 
L 47.890207 33.471758 
L 49.185507 34.677394 
L 50.835759 36.20592 
L 52.095766 37.367362 
L 54.033904 39.144429 
L 55.41959 40.407964 
L 57.813034 42.576778 
L 59.333815 43.945903 
L 59.609938 44.193751 
L 61.657572 46.024625 
L 62.651375 46.90875 
L 64.553027 48.592421 
L 66.351814 50.175266 
L 67.402163 51.095159 
L 70.04849 53.398636 
L 71.492292 54.646877 
L 72.087195 55.159463 
L 73.376985 56.267313 
L 75.687206 58.239832 
L 76.137523 58.622565 
L 78.799857 60.873673 
L 79.845622 61.75248 
L 81.8837 63.456434 
L 82.293724 63.797848 
L 84.366274 65.516498 
L 86.463291 67.243444 
L 87.754825 68.301087 
L 88.313008 68.756783 
L 90.443182 70.488104 
L 92.0896 71.817882 
L 93.07006 72.606334 
L 95.211575 74.319567 
L 96.925137 75.681689 
L 97.362323 76.027972 
L 99.616099 77.805172 
L 101.416261 79.215158 
L 103.181262 80.589446 
L 103.646558 80.950401 
L 105.747885 82.573588 
L 106.629641 83.251342 
L 108.253098 84.494021 
L 110.17736 85.958303 
L 111.756003 87.152618 
L 113.223256 88.257064 
L 115.300427 89.811442 
L 116.6276 90.798988 
L 118.296913 92.034957 
L 118.661097 92.303691 
L 120.283423 93.496882 
L 121.606228 94.465035 
L 123.230016 95.647678 
L 125.687154 97.425189 
L 127.134403 98.465375 
L 127.80891 98.94846 
L 130.572433 100.916453 
L 131.472017 101.55319 
L 132.89263 102.554853 
L 133.700749 103.122548 
L 135.261715 104.214805 
L 137.624699 105.857526 
L 139.302783 107.016312 
L 140.047565 107.52855 
L 142.454311 109.175201 
L 143.26661 109.727998 
L 144.786425 110.758288 
L 146.253155 111.747675 
L 148.642042 113.348827 
L 149.457018 113.892166 
L 150.370682 114.499555 
L 152.671509 116.020969 
L 154.593935 117.283286 
L 155.051358 117.582458 
L 156.618572 118.604036 
L 158.971334 120.127723 
L 159.714935 120.606821 
L 161.535289 121.774687 
L 163.665904 123.132668 
L 164.894516 123.911388 
L 165.976582 124.594598 
L 167.624873 125.630615 
L 169.798757 126.988346 
L 170.919426 127.684459 
L 172.064603 128.393124 
L 173.802955 129.463725 
L 175.482824 130.492454 
L 177.018386 131.427806 
L 178.536248 132.347702 
L 179.768315 133.090992 
L 181.097182 133.889279 
L 183.09109 135.080487 
L 184.380097 135.846385 
L 186.207981 136.926867 
L 186.848502 137.303937 
L 189.088308 138.616208 
L 189.747644 139.000648 
L 192.283508 140.471422 
L 193.844674 141.370743 
L 195.102432 142.091901 
L 197.052346 143.203983 
L 197.728227 143.587777 
L 199.419663 144.54448 
L 201.640098 145.792265 
L 201.905258 145.940659 
L 203.676971 146.928836 
L 205.648647 148.021731 
L 206.317957 148.391104 
L 208.517205 149.599043 
L 209.558803 150.168072 
L 212.192955 151.598369 
L 213.759085 152.442838 
L 214.959119 153.086942 
L 215.8787 153.578782 
L 217.739763 154.569592 
L 219.228533 155.357803 
L 220.826747 156.199632 
L 222.573083 157.11439 
L 223.025504 157.350511 
L 225.844841 158.813976 
L 226.029872 158.909544 
L 228.767493 160.316679 
L 229.085468 160.479291 
L 231.345319 161.63004 
L 233.225868 162.581083 
L 234.984295 163.46501 
L 236.556449 164.250945 
L 237.371453 164.656761 
L 239.294227 165.609831 
L 240.323603 166.117572 
L 241.12979 166.514014 
L 243.47929 167.663348 
L 245.088923 168.445592 
L 245.907137 168.841626 
L 248.058984 169.878047 
L 249.974538 170.794451 
L 250.366033 170.981026 
L 252.063561 171.787221 
L 254.040189 172.720259 
L 256.223555 173.743793 
L 256.743624 173.986503 
L 258.962063 175.017126 
L 259.942439 175.470169 
L 261.085634 175.996592 
L 262.386302 176.593105 
L 264.317703 177.474145 
L 266.145234 178.302619 
L 267.666928 178.988622 
L 269.486729 179.804479 
L 271.040838 180.49733 
L 272.524208 181.155317 
L 273.668184 181.660548 
L 275.236417 182.350041 
L 276.40226 182.860296 
L 278.40282 183.731294 
L 279.998786 184.422004 
L 281.286131 184.976487 
L 282.699523 185.582538 
L 283.59204 185.96378 
L 285.615585 186.823972 
L 287.225085 187.504043 
L 288.430477 188.010989 
L 289.683611 188.535868 
L 291.656793 189.357926 
L 292.668009 189.777132 
L 294.452058 190.513299 
L 296.226611 191.241233 
L 297.527818 191.77228 
L 299.178668 192.442729 
L 301.633565 193.43295 
L 303.095793 194.018938 
L 304.195972 194.457964 
L 306.026256 195.184794 
L 306.952558 195.550962 
L 308.041294 195.979902 
L 309.432223 196.525649 
L 311.957799 197.51017 
L 312.92158 197.8837 
L 314.732732 198.582419 
L 315.998346 199.068189 
L 317.059323 199.473844 
L 319.57149 200.428673 
L 320.915202 200.936134 
L 322.210961 201.423346 
L 323.386815 201.863662 
L 324.961972 202.450817 
L 326.573288 203.048281 
L 328.143408 203.627404 
L 328.143408 314.437595 
z
" clip-path="url(#pf3182f3087)" style="fill: #808080; opacity: 0.5"/>
   </g>
   <g id="matplotlib.axis_1">
    <g id="xtick_1">
     <g id="line2d_1">
      <defs>
       <path id="m1d7f42179b" d="M 0 0 
L 0 3.5 
" style="stroke: #000000; stroke-width: 0.8"/>
      </defs>
      <g>
       <use xlink:href="#m1d7f42179b" x="26.930079" y="314.437595" style="stroke: #000000; stroke-width: 0.8"/>
      </g>
     </g>
    </g>
    <g id="xtick_2">
     <g id="line2d_2">
      <g>
       <use xlink:href="#m1d7f42179b" x="87.172745" y="314.437595" style="stroke: #000000; stroke-width: 0.8"/>
      </g>
     </g>
     <g id="text_1">
      <!-- $\mathdefault{0.2}$ -->
      <g transform="translate(80.807705 328.356094) scale(0.1 -0.1)">
       <defs>
        <path id="CMR17-30" d="M 2688 2038 
C 2688 2430 2682 3099 2413 3613 
C 2176 4063 1798 4224 1466 4224 
C 1158 4224 768 4082 525 3620 
C 269 3137 243 2539 243 2038 
C 243 1671 250 1112 448 623 
C 723 -39 1216 -128 1466 -128 
C 1760 -128 2208 -7 2470 604 
C 2662 1048 2688 1568 2688 2038 
z
M 1466 -26 
C 1056 -26 813 328 723 816 
C 653 1196 653 1749 653 2109 
C 653 2604 653 3015 736 3407 
C 858 3954 1216 4121 1466 4121 
C 1728 4121 2067 3947 2189 3420 
C 2272 3054 2278 2623 2278 2109 
C 2278 1691 2278 1176 2202 797 
C 2067 96 1690 -26 1466 -26 
z
" transform="scale(0.015625)"/>
        <path id="CMMI12-3a" d="M 1178 307 
C 1178 492 1024 620 870 620 
C 685 620 557 467 557 313 
C 557 128 710 0 864 0 
C 1050 0 1178 153 1178 307 
z
" transform="scale(0.015625)"/>
        <path id="CMR17-32" d="M 2669 990 
L 2554 990 
C 2490 537 2438 460 2413 422 
C 2381 371 1920 371 1830 371 
L 602 371 
C 832 620 1280 1073 1824 1596 
C 2214 1966 2669 2400 2669 3033 
C 2669 3788 2067 4224 1395 4224 
C 691 4224 262 3603 262 3027 
C 262 2777 448 2745 525 2745 
C 589 2745 781 2783 781 3007 
C 781 3206 614 3264 525 3264 
C 486 3264 448 3257 422 3244 
C 544 3788 915 4057 1306 4057 
C 1862 4057 2227 3616 2227 3033 
C 2227 2477 1901 1998 1536 1583 
L 262 147 
L 262 0 
L 2515 0 
L 2669 990 
z
" transform="scale(0.015625)"/>
       </defs>
       <use xlink:href="#CMR17-30" transform="scale(0.996264)"/>
       <use xlink:href="#CMMI12-3a" transform="translate(45.690477 0) scale(0.996264)"/>
       <use xlink:href="#CMR17-32" transform="translate(72.787654 0) scale(0.996264)"/>
      </g>
     </g>
    </g>
    <g id="xtick_3">
     <g id="line2d_3">
      <g>
       <use xlink:href="#m1d7f42179b" x="147.41541" y="314.437595" style="stroke: #000000; stroke-width: 0.8"/>
      </g>
     </g>
     <g id="text_2">
      <!-- $\mathdefault{0.4}$ -->
      <g transform="translate(141.050371 328.356094) scale(0.1 -0.1)">
       <defs>
        <path id="CMR17-34" d="M 2150 4147 
C 2150 4281 2144 4288 2029 4288 
L 128 1254 
L 128 1088 
L 1779 1088 
L 1779 460 
C 1779 230 1766 166 1318 166 
L 1197 166 
L 1197 0 
C 1402 12 1747 12 1965 12 
C 2182 12 2528 12 2733 0 
L 2733 166 
L 2611 166 
C 2163 166 2150 230 2150 460 
L 2150 1088 
L 2803 1088 
L 2803 1254 
L 2150 1254 
L 2150 4147 
z
M 1798 3723 
L 1798 1254 
L 256 1254 
L 1798 3723 
z
" transform="scale(0.015625)"/>
       </defs>
       <use xlink:href="#CMR17-30" transform="scale(0.996264)"/>
       <use xlink:href="#CMMI12-3a" transform="translate(45.690477 0) scale(0.996264)"/>
       <use xlink:href="#CMR17-34" transform="translate(72.787654 0) scale(0.996264)"/>
      </g>
     </g>
    </g>
    <g id="xtick_4">
     <g id="line2d_4">
      <g>
       <use xlink:href="#m1d7f42179b" x="207.658076" y="314.437595" style="stroke: #000000; stroke-width: 0.8"/>
      </g>
     </g>
     <g id="text_3">
      <!-- $\mathdefault{0.6}$ -->
      <g transform="translate(201.293037 328.356094) scale(0.1 -0.1)">
       <defs>
        <path id="CMR17-36" d="M 678 2198 
C 678 3712 1395 4076 1811 4076 
C 1946 4076 2272 4049 2400 3782 
C 2298 3782 2106 3782 2106 3558 
C 2106 3385 2246 3328 2336 3328 
C 2394 3328 2566 3353 2566 3571 
C 2566 3987 2246 4224 1805 4224 
C 1043 4224 243 3411 243 2011 
C 243 257 966 -128 1478 -128 
C 2099 -128 2688 431 2688 1295 
C 2688 2101 2170 2688 1517 2688 
C 1126 2688 838 2430 678 1979 
L 678 2198 
z
M 1478 25 
C 691 25 691 1212 691 1450 
C 691 1914 909 2585 1504 2585 
C 1613 2585 1926 2585 2138 2140 
C 2253 1889 2253 1624 2253 1302 
C 2253 954 2253 696 2118 438 
C 1978 173 1773 25 1478 25 
z
" transform="scale(0.015625)"/>
       </defs>
       <use xlink:href="#CMR17-30" transform="scale(0.996264)"/>
       <use xlink:href="#CMMI12-3a" transform="translate(45.690477 0) scale(0.996264)"/>
       <use xlink:href="#CMR17-36" transform="translate(72.787654 0) scale(0.996264)"/>
      </g>
     </g>
    </g>
    <g id="xtick_5">
     <g id="line2d_5">
      <g>
       <use xlink:href="#m1d7f42179b" x="267.900742" y="314.437595" style="stroke: #000000; stroke-width: 0.8"/>
      </g>
     </g>
     <g id="text_4">
      <!-- $\mathdefault{0.8}$ -->
      <g transform="translate(261.535702 328.356094) scale(0.1 -0.1)">
       <defs>
        <path id="CMR17-38" d="M 1741 2289 
C 2144 2494 2554 2803 2554 3298 
C 2554 3884 1990 4224 1472 4224 
C 890 4224 378 3800 378 3215 
C 378 3054 416 2777 666 2533 
C 730 2469 998 2276 1171 2154 
C 883 2006 211 1652 211 945 
C 211 282 838 -128 1459 -128 
C 2144 -128 2720 366 2720 1022 
C 2720 1607 2330 1877 2074 2051 
L 1741 2289 
z
M 902 2855 
C 851 2887 595 3086 595 3388 
C 595 3781 998 4076 1459 4076 
C 1965 4076 2336 3716 2336 3298 
C 2336 2700 1670 2359 1638 2359 
C 1632 2359 1626 2359 1574 2398 
L 902 2855 
z
M 2080 1536 
C 2176 1466 2483 1253 2483 861 
C 2483 385 2010 25 1472 25 
C 890 25 448 443 448 951 
C 448 1459 838 1884 1280 2083 
L 2080 1536 
z
" transform="scale(0.015625)"/>
       </defs>
       <use xlink:href="#CMR17-30" transform="scale(0.996264)"/>
       <use xlink:href="#CMMI12-3a" transform="translate(45.690477 0) scale(0.996264)"/>
       <use xlink:href="#CMR17-38" transform="translate(72.787654 0) scale(0.996264)"/>
      </g>
     </g>
    </g>
    <g id="xtick_6">
     <g id="line2d_6">
      <g>
       <use xlink:href="#m1d7f42179b" x="328.143408" y="314.437595" style="stroke: #000000; stroke-width: 0.8"/>
      </g>
     </g>
     <g id="text_5">
      <!-- $\mathdefault{1.0}$ -->
      <g transform="translate(321.778368 328.356094) scale(0.1 -0.1)">
       <defs>
        <path id="CMR17-31" d="M 1702 4083 
C 1702 4217 1696 4224 1606 4224 
C 1357 3927 979 3833 621 3820 
C 602 3820 570 3820 563 3808 
C 557 3795 557 3782 557 3648 
C 755 3648 1088 3686 1344 3839 
L 1344 467 
C 1344 243 1331 166 781 166 
L 589 166 
L 589 0 
C 896 6 1216 12 1523 12 
C 1830 12 2150 6 2458 0 
L 2458 166 
L 2266 166 
C 1715 166 1702 236 1702 467 
L 1702 4083 
z
" transform="scale(0.015625)"/>
       </defs>
       <use xlink:href="#CMR17-31" transform="scale(0.996264)"/>
       <use xlink:href="#CMMI12-3a" transform="translate(45.690477 0) scale(0.996264)"/>
       <use xlink:href="#CMR17-30" transform="translate(72.787654 0) scale(0.996264)"/>
      </g>
     </g>
    </g>
    <g id="xtick_7">
     <g id="line2d_7">
      <defs>
       <path id="mc0bfa4621f" d="M 0 0 
L 0 2 
" style="stroke: #000000; stroke-width: 0.6"/>
      </defs>
      <g>
       <use xlink:href="#mc0bfa4621f" x="41.990745" y="314.437595" style="stroke: #000000; stroke-width: 0.6"/>
      </g>
     </g>
    </g>
    <g id="xtick_8">
     <g id="line2d_8">
      <g>
       <use xlink:href="#mc0bfa4621f" x="57.051412" y="314.437595" style="stroke: #000000; stroke-width: 0.6"/>
      </g>
     </g>
    </g>
    <g id="xtick_9">
     <g id="line2d_9">
      <g>
       <use xlink:href="#mc0bfa4621f" x="72.112078" y="314.437595" style="stroke: #000000; stroke-width: 0.6"/>
      </g>
     </g>
    </g>
    <g id="xtick_10">
     <g id="line2d_10">
      <g>
       <use xlink:href="#mc0bfa4621f" x="102.233411" y="314.437595" style="stroke: #000000; stroke-width: 0.6"/>
      </g>
     </g>
    </g>
    <g id="xtick_11">
     <g id="line2d_11">
      <g>
       <use xlink:href="#mc0bfa4621f" x="117.294078" y="314.437595" style="stroke: #000000; stroke-width: 0.6"/>
      </g>
     </g>
    </g>
    <g id="xtick_12">
     <g id="line2d_12">
      <g>
       <use xlink:href="#mc0bfa4621f" x="132.354744" y="314.437595" style="stroke: #000000; stroke-width: 0.6"/>
      </g>
     </g>
    </g>
    <g id="xtick_13">
     <g id="line2d_13">
      <g>
       <use xlink:href="#mc0bfa4621f" x="162.476077" y="314.437595" style="stroke: #000000; stroke-width: 0.6"/>
      </g>
     </g>
    </g>
    <g id="xtick_14">
     <g id="line2d_14">
      <g>
       <use xlink:href="#mc0bfa4621f" x="177.536743" y="314.437595" style="stroke: #000000; stroke-width: 0.6"/>
      </g>
     </g>
    </g>
    <g id="xtick_15">
     <g id="line2d_15">
      <g>
       <use xlink:href="#mc0bfa4621f" x="192.59741" y="314.437595" style="stroke: #000000; stroke-width: 0.6"/>
      </g>
     </g>
    </g>
    <g id="xtick_16">
     <g id="line2d_16">
      <g>
       <use xlink:href="#mc0bfa4621f" x="222.718743" y="314.437595" style="stroke: #000000; stroke-width: 0.6"/>
      </g>
     </g>
    </g>
    <g id="xtick_17">
     <g id="line2d_17">
      <g>
       <use xlink:href="#mc0bfa4621f" x="237.779409" y="314.437595" style="stroke: #000000; stroke-width: 0.6"/>
      </g>
     </g>
    </g>
    <g id="xtick_18">
     <g id="line2d_18">
      <g>
       <use xlink:href="#mc0bfa4621f" x="252.840075" y="314.437595" style="stroke: #000000; stroke-width: 0.6"/>
      </g>
     </g>
    </g>
    <g id="xtick_19">
     <g id="line2d_19">
      <g>
       <use xlink:href="#mc0bfa4621f" x="282.961408" y="314.437595" style="stroke: #000000; stroke-width: 0.6"/>
      </g>
     </g>
    </g>
    <g id="xtick_20">
     <g id="line2d_20">
      <g>
       <use xlink:href="#mc0bfa4621f" x="298.022075" y="314.437595" style="stroke: #000000; stroke-width: 0.6"/>
      </g>
     </g>
    </g>
    <g id="xtick_21">
     <g id="line2d_21">
      <g>
       <use xlink:href="#mc0bfa4621f" x="313.082741" y="314.437595" style="stroke: #000000; stroke-width: 0.6"/>
      </g>
     </g>
    </g>
   </g>
   <g id="matplotlib.axis_2">
    <g id="ytick_1">
     <g id="line2d_22">
      <defs>
       <path id="m2b7cdaf15b" d="M 0 0 
L -3.5 0 
" style="stroke: #000000; stroke-width: 0.8"/>
      </defs>
      <g>
       <use xlink:href="#m2b7cdaf15b" x="26.930079" y="314.437595" style="stroke: #000000; stroke-width: 0.8"/>
      </g>
     </g>
    </g>
    <g id="ytick_2">
     <g id="line2d_23">
      <g>
       <use xlink:href="#m2b7cdaf15b" x="26.930079" y="254.194929" style="stroke: #000000; stroke-width: 0.8"/>
      </g>
     </g>
     <g id="text_6">
      <!-- $\mathdefault{0.2}$ -->
      <g transform="translate(7.2 257.654179) scale(0.1 -0.1)">
       <use xlink:href="#CMR17-30" transform="scale(0.996264)"/>
       <use xlink:href="#CMMI12-3a" transform="translate(45.690477 0) scale(0.996264)"/>
       <use xlink:href="#CMR17-32" transform="translate(72.787654 0) scale(0.996264)"/>
      </g>
     </g>
    </g>
    <g id="ytick_3">
     <g id="line2d_24">
      <g>
       <use xlink:href="#m2b7cdaf15b" x="26.930079" y="193.952264" style="stroke: #000000; stroke-width: 0.8"/>
      </g>
     </g>
     <g id="text_7">
      <!-- $\mathdefault{0.4}$ -->
      <g transform="translate(7.2 197.411513) scale(0.1 -0.1)">
       <use xlink:href="#CMR17-30" transform="scale(0.996264)"/>
       <use xlink:href="#CMMI12-3a" transform="translate(45.690477 0) scale(0.996264)"/>
       <use xlink:href="#CMR17-34" transform="translate(72.787654 0) scale(0.996264)"/>
      </g>
     </g>
    </g>
    <g id="ytick_4">
     <g id="line2d_25">
      <g>
       <use xlink:href="#m2b7cdaf15b" x="26.930079" y="133.709598" style="stroke: #000000; stroke-width: 0.8"/>
      </g>
     </g>
     <g id="text_8">
      <!-- $\mathdefault{0.6}$ -->
      <g transform="translate(7.2 137.168847) scale(0.1 -0.1)">
       <use xlink:href="#CMR17-30" transform="scale(0.996264)"/>
       <use xlink:href="#CMMI12-3a" transform="translate(45.690477 0) scale(0.996264)"/>
       <use xlink:href="#CMR17-36" transform="translate(72.787654 0) scale(0.996264)"/>
      </g>
     </g>
    </g>
    <g id="ytick_5">
     <g id="line2d_26">
      <g>
       <use xlink:href="#m2b7cdaf15b" x="26.930079" y="73.466932" style="stroke: #000000; stroke-width: 0.8"/>
      </g>
     </g>
     <g id="text_9">
      <!-- $\mathdefault{0.8}$ -->
      <g transform="translate(7.2 76.926181) scale(0.1 -0.1)">
       <use xlink:href="#CMR17-30" transform="scale(0.996264)"/>
       <use xlink:href="#CMMI12-3a" transform="translate(45.690477 0) scale(0.996264)"/>
       <use xlink:href="#CMR17-38" transform="translate(72.787654 0) scale(0.996264)"/>
      </g>
     </g>
    </g>
    <g id="ytick_6">
     <g id="line2d_27">
      <g>
       <use xlink:href="#m2b7cdaf15b" x="26.930079" y="13.224267" style="stroke: #000000; stroke-width: 0.8"/>
      </g>
     </g>
     <g id="text_10">
      <!-- $\mathdefault{1.0}$ -->
      <g transform="translate(7.2 16.683516) scale(0.1 -0.1)">
       <use xlink:href="#CMR17-31" transform="scale(0.996264)"/>
       <use xlink:href="#CMMI12-3a" transform="translate(45.690477 0) scale(0.996264)"/>
       <use xlink:href="#CMR17-30" transform="translate(72.787654 0) scale(0.996264)"/>
      </g>
     </g>
    </g>
    <g id="ytick_7">
     <g id="line2d_28">
      <defs>
       <path id="m75b5f93224" d="M 0 0 
L -2 0 
" style="stroke: #000000; stroke-width: 0.6"/>
      </defs>
      <g>
       <use xlink:href="#m75b5f93224" x="26.930079" y="299.376929" style="stroke: #000000; stroke-width: 0.6"/>
      </g>
     </g>
    </g>
    <g id="ytick_8">
     <g id="line2d_29">
      <g>
       <use xlink:href="#m75b5f93224" x="26.930079" y="284.316262" style="stroke: #000000; stroke-width: 0.6"/>
      </g>
     </g>
    </g>
    <g id="ytick_9">
     <g id="line2d_30">
      <g>
       <use xlink:href="#m75b5f93224" x="26.930079" y="269.255596" style="stroke: #000000; stroke-width: 0.6"/>
      </g>
     </g>
    </g>
    <g id="ytick_10">
     <g id="line2d_31">
      <g>
       <use xlink:href="#m75b5f93224" x="26.930079" y="239.134263" style="stroke: #000000; stroke-width: 0.6"/>
      </g>
     </g>
    </g>
    <g id="ytick_11">
     <g id="line2d_32">
      <g>
       <use xlink:href="#m75b5f93224" x="26.930079" y="224.073597" style="stroke: #000000; stroke-width: 0.6"/>
      </g>
     </g>
    </g>
    <g id="ytick_12">
     <g id="line2d_33">
      <g>
       <use xlink:href="#m75b5f93224" x="26.930079" y="209.01293" style="stroke: #000000; stroke-width: 0.6"/>
      </g>
     </g>
    </g>
    <g id="ytick_13">
     <g id="line2d_34">
      <g>
       <use xlink:href="#m75b5f93224" x="26.930079" y="178.891597" style="stroke: #000000; stroke-width: 0.6"/>
      </g>
     </g>
    </g>
    <g id="ytick_14">
     <g id="line2d_35">
      <g>
       <use xlink:href="#m75b5f93224" x="26.930079" y="163.830931" style="stroke: #000000; stroke-width: 0.6"/>
      </g>
     </g>
    </g>
    <g id="ytick_15">
     <g id="line2d_36">
      <g>
       <use xlink:href="#m75b5f93224" x="26.930079" y="148.770264" style="stroke: #000000; stroke-width: 0.6"/>
      </g>
     </g>
    </g>
    <g id="ytick_16">
     <g id="line2d_37">
      <g>
       <use xlink:href="#m75b5f93224" x="26.930079" y="118.648932" style="stroke: #000000; stroke-width: 0.6"/>
      </g>
     </g>
    </g>
    <g id="ytick_17">
     <g id="line2d_38">
      <g>
       <use xlink:href="#m75b5f93224" x="26.930079" y="103.588265" style="stroke: #000000; stroke-width: 0.6"/>
      </g>
     </g>
    </g>
    <g id="ytick_18">
     <g id="line2d_39">
      <g>
       <use xlink:href="#m75b5f93224" x="26.930079" y="88.527599" style="stroke: #000000; stroke-width: 0.6"/>
      </g>
     </g>
    </g>
    <g id="ytick_19">
     <g id="line2d_40">
      <g>
       <use xlink:href="#m75b5f93224" x="26.930079" y="58.406266" style="stroke: #000000; stroke-width: 0.6"/>
      </g>
     </g>
    </g>
    <g id="ytick_20">
     <g id="line2d_41">
      <g>
       <use xlink:href="#m75b5f93224" x="26.930079" y="43.345599" style="stroke: #000000; stroke-width: 0.6"/>
      </g>
     </g>
    </g>
    <g id="ytick_21">
     <g id="line2d_42">
      <g>
       <use xlink:href="#m75b5f93224" x="26.930079" y="28.284933" style="stroke: #000000; stroke-width: 0.6"/>
      </g>
     </g>
    </g>
   </g>
   <g id="line2d_43">
    <path d="M 26.930079 13.224267 
L 37.474758 23.58651 
L 47.890207 33.471758 
L 57.813034 42.576778 
L 67.402163 51.095159 
L 78.799857 60.873673 
L 88.313008 68.756783 
L 99.616099 77.805172 
L 110.17736 85.958303 
L 120.283423 93.496882 
L 131.472017 101.55319 
L 142.454311 109.175201 
L 152.671509 116.020969 
L 163.665904 123.132668 
L 175.482824 130.492454 
L 186.848502 137.303937 
L 199.419663 144.54448 
L 212.192955 151.598369 
L 223.025504 157.350511 
L 236.556449 164.250945 
L 248.058984 169.878047 
L 261.085634 175.996592 
L 273.668184 181.660548 
L 287.225085 187.504043 
L 299.178668 192.442729 
L 312.92158 197.8837 
L 326.573288 203.048281 
L 328.143408 203.627404 
L 328.143408 203.627404 
" clip-path="url(#pf3182f3087)" style="fill: none; stroke: #ff0000; stroke-linecap: square"/>
   </g>
   <g id="patch_74">
    <path d="M 26.930079 320.461862 
L 26.930079 7.2 
" style="fill: none; stroke: #000000; stroke-width: 0.8; stroke-linejoin: miter; stroke-linecap: square"/>
   </g>
   <g id="patch_75">
    <path d="M 20.905812 314.437595 
L 334.167674 314.437595 
" style="fill: none; stroke: #000000; stroke-width: 0.8; stroke-linejoin: miter; stroke-linecap: square"/>
   </g>
  </g>
 </g>
 <defs>
  <clipPath id="pf3182f3087">
   <rect x="20.905812" y="7.2" width="313.261862" height="313.261862"/>
  </clipPath>
 </defs>
</svg>
