<?xml version="1.0" encoding="utf-8" standalone="no"?>
<!DOCTYPE svg PUBLIC "-//W3C//DTD SVG 1.1//EN"
  "http://www.w3.org/Graphics/SVG/1.1/DTD/svg11.dtd">
<svg xmlns:xlink="http://www.w3.org/1999/xlink" width="460.8pt" height="345.6pt" viewBox="0 0 460.8 345.6" xmlns="http://www.w3.org/2000/svg" version="1.1">
 <metadata>
  <rdf:RDF xmlns:dc="http://purl.org/dc/elements/1.1/" xmlns:cc="http://creativecommons.org/ns#" xmlns:rdf="http://www.w3.org/1999/02/22-rdf-syntax-ns#">
   <cc:Work>
    <dc:type rdf:resource="http://purl.org/dc/dcmitype/StillImage"/>
    <dc:date>2023-11-07T13:39:33.332846</dc:date>
    <dc:format>image/svg+xml</dc:format>
    <dc:creator>
     <cc:Agent>
      <dc:title>Matplotlib v3.8.0, https://matplotlib.org/</dc:title>
     </cc:Agent>
    </dc:creator>
   </cc:Work>
  </rdf:RDF>
 </metadata>
 <defs>
  <style type="text/css">*{stroke-linejoin: round; stroke-linecap: butt}</style>
 </defs>
 <g id="figure_1">
  <g id="patch_1">
   <path d="M 0 345.6 
L 460.8 345.6 
L 460.8 0 
L 0 0 
L 0 345.6 
z
" style="fill: none"/>
  </g>
  <g id="axes_1">
   <g id="patch_2">
    <path d="M 57.6 307.584 
L 414.72 307.584 
L 414.72 41.472 
L 57.6 41.472 
L 57.6 307.584 
z
" style="fill: none"/>
   </g>
   <g id="matplotlib.axis_1">
    <g id="xtick_1">
     <g id="line2d_1">
      <defs>
       <path id="m4d21bc078c" d="M 0 0 
L 0 3.5 
" style="stroke: #000000; stroke-width: 0.8"/>
      </defs>
      <g>
       <use xlink:href="#m4d21bc078c" x="73.832727" y="307.584" style="stroke: #000000; stroke-width: 0.8"/>
      </g>
     </g>
     <g id="text_1">
      <!-- 0 -->
      <g transform="translate(70.651477 322.182437) scale(0.1 -0.1)">
       <defs>
        <path id="DejaVuSans-30" d="M 2034 4250 
Q 1547 4250 1301 3770 
Q 1056 3291 1056 2328 
Q 1056 1369 1301 889 
Q 1547 409 2034 409 
Q 2525 409 2770 889 
Q 3016 1369 3016 2328 
Q 3016 3291 2770 3770 
Q 2525 4250 2034 4250 
z
M 2034 4750 
Q 2819 4750 3233 4129 
Q 3647 3509 3647 2328 
Q 3647 1150 3233 529 
Q 2819 -91 2034 -91 
Q 1250 -91 836 529 
Q 422 1150 422 2328 
Q 422 3509 836 4129 
Q 1250 4750 2034 4750 
z
" transform="scale(0.015625)"/>
       </defs>
       <use xlink:href="#DejaVuSans-30"/>
      </g>
     </g>
    </g>
    <g id="xtick_2">
     <g id="line2d_2">
      <g>
       <use xlink:href="#m4d21bc078c" x="138.893758" y="307.584" style="stroke: #000000; stroke-width: 0.8"/>
      </g>
     </g>
     <g id="text_2">
      <!-- 100 -->
      <g transform="translate(129.350008 322.182437) scale(0.1 -0.1)">
       <defs>
        <path id="DejaVuSans-31" d="M 794 531 
L 1825 531 
L 1825 4091 
L 703 3866 
L 703 4441 
L 1819 4666 
L 2450 4666 
L 2450 531 
L 3481 531 
L 3481 0 
L 794 0 
L 794 531 
z
" transform="scale(0.015625)"/>
       </defs>
       <use xlink:href="#DejaVuSans-31"/>
       <use xlink:href="#DejaVuSans-30" x="63.623047"/>
       <use xlink:href="#DejaVuSans-30" x="127.246094"/>
      </g>
     </g>
    </g>
    <g id="xtick_3">
     <g id="line2d_3">
      <g>
       <use xlink:href="#m4d21bc078c" x="203.95479" y="307.584" style="stroke: #000000; stroke-width: 0.8"/>
      </g>
     </g>
     <g id="text_3">
      <!-- 200 -->
      <g transform="translate(194.41104 322.182437) scale(0.1 -0.1)">
       <defs>
        <path id="DejaVuSans-32" d="M 1228 531 
L 3431 531 
L 3431 0 
L 469 0 
L 469 531 
Q 828 903 1448 1529 
Q 2069 2156 2228 2338 
Q 2531 2678 2651 2914 
Q 2772 3150 2772 3378 
Q 2772 3750 2511 3984 
Q 2250 4219 1831 4219 
Q 1534 4219 1204 4116 
Q 875 4013 500 3803 
L 500 4441 
Q 881 4594 1212 4672 
Q 1544 4750 1819 4750 
Q 2544 4750 2975 4387 
Q 3406 4025 3406 3419 
Q 3406 3131 3298 2873 
Q 3191 2616 2906 2266 
Q 2828 2175 2409 1742 
Q 1991 1309 1228 531 
z
" transform="scale(0.015625)"/>
       </defs>
       <use xlink:href="#DejaVuSans-32"/>
       <use xlink:href="#DejaVuSans-30" x="63.623047"/>
       <use xlink:href="#DejaVuSans-30" x="127.246094"/>
      </g>
     </g>
    </g>
    <g id="xtick_4">
     <g id="line2d_4">
      <g>
       <use xlink:href="#m4d21bc078c" x="269.015821" y="307.584" style="stroke: #000000; stroke-width: 0.8"/>
      </g>
     </g>
     <g id="text_4">
      <!-- 300 -->
      <g transform="translate(259.472071 322.182437) scale(0.1 -0.1)">
       <defs>
        <path id="DejaVuSans-33" d="M 2597 2516 
Q 3050 2419 3304 2112 
Q 3559 1806 3559 1356 
Q 3559 666 3084 287 
Q 2609 -91 1734 -91 
Q 1441 -91 1130 -33 
Q 819 25 488 141 
L 488 750 
Q 750 597 1062 519 
Q 1375 441 1716 441 
Q 2309 441 2620 675 
Q 2931 909 2931 1356 
Q 2931 1769 2642 2001 
Q 2353 2234 1838 2234 
L 1294 2234 
L 1294 2753 
L 1863 2753 
Q 2328 2753 2575 2939 
Q 2822 3125 2822 3475 
Q 2822 3834 2567 4026 
Q 2313 4219 1838 4219 
Q 1578 4219 1281 4162 
Q 984 4106 628 3988 
L 628 4550 
Q 988 4650 1302 4700 
Q 1616 4750 1894 4750 
Q 2613 4750 3031 4423 
Q 3450 4097 3450 3541 
Q 3450 3153 3228 2886 
Q 3006 2619 2597 2516 
z
" transform="scale(0.015625)"/>
       </defs>
       <use xlink:href="#DejaVuSans-33"/>
       <use xlink:href="#DejaVuSans-30" x="63.623047"/>
       <use xlink:href="#DejaVuSans-30" x="127.246094"/>
      </g>
     </g>
    </g>
    <g id="xtick_5">
     <g id="line2d_5">
      <g>
       <use xlink:href="#m4d21bc078c" x="334.076852" y="307.584" style="stroke: #000000; stroke-width: 0.8"/>
      </g>
     </g>
     <g id="text_5">
      <!-- 400 -->
      <g transform="translate(324.533102 322.182437) scale(0.1 -0.1)">
       <defs>
        <path id="DejaVuSans-34" d="M 2419 4116 
L 825 1625 
L 2419 1625 
L 2419 4116 
z
M 2253 4666 
L 3047 4666 
L 3047 1625 
L 3713 1625 
L 3713 1100 
L 3047 1100 
L 3047 0 
L 2419 0 
L 2419 1100 
L 313 1100 
L 313 1709 
L 2253 4666 
z
" transform="scale(0.015625)"/>
       </defs>
       <use xlink:href="#DejaVuSans-34"/>
       <use xlink:href="#DejaVuSans-30" x="63.623047"/>
       <use xlink:href="#DejaVuSans-30" x="127.246094"/>
      </g>
     </g>
    </g>
    <g id="xtick_6">
     <g id="line2d_6">
      <g>
       <use xlink:href="#m4d21bc078c" x="399.137883" y="307.584" style="stroke: #000000; stroke-width: 0.8"/>
      </g>
     </g>
     <g id="text_6">
      <!-- 500 -->
      <g transform="translate(389.594133 322.182437) scale(0.1 -0.1)">
       <defs>
        <path id="DejaVuSans-35" d="M 691 4666 
L 3169 4666 
L 3169 4134 
L 1269 4134 
L 1269 2991 
Q 1406 3038 1543 3061 
Q 1681 3084 1819 3084 
Q 2600 3084 3056 2656 
Q 3513 2228 3513 1497 
Q 3513 744 3044 326 
Q 2575 -91 1722 -91 
Q 1428 -91 1123 -41 
Q 819 9 494 109 
L 494 744 
Q 775 591 1075 516 
Q 1375 441 1709 441 
Q 2250 441 2565 725 
Q 2881 1009 2881 1497 
Q 2881 1984 2565 2268 
Q 2250 2553 1709 2553 
Q 1456 2553 1204 2497 
Q 953 2441 691 2322 
L 691 4666 
z
" transform="scale(0.015625)"/>
       </defs>
       <use xlink:href="#DejaVuSans-35"/>
       <use xlink:href="#DejaVuSans-30" x="63.623047"/>
       <use xlink:href="#DejaVuSans-30" x="127.246094"/>
      </g>
     </g>
    </g>
    <g id="text_7">
     <!-- iteration -->
     <g transform="translate(215.037344 335.860562) scale(0.1 -0.1)">
      <defs>
       <path id="DejaVuSans-69" d="M 603 3500 
L 1178 3500 
L 1178 0 
L 603 0 
L 603 3500 
z
M 603 4863 
L 1178 4863 
L 1178 4134 
L 603 4134 
L 603 4863 
z
" transform="scale(0.015625)"/>
       <path id="DejaVuSans-74" d="M 1172 4494 
L 1172 3500 
L 2356 3500 
L 2356 3053 
L 1172 3053 
L 1172 1153 
Q 1172 725 1289 603 
Q 1406 481 1766 481 
L 2356 481 
L 2356 0 
L 1766 0 
Q 1100 0 847 248 
Q 594 497 594 1153 
L 594 3053 
L 172 3053 
L 172 3500 
L 594 3500 
L 594 4494 
L 1172 4494 
z
" transform="scale(0.015625)"/>
       <path id="DejaVuSans-65" d="M 3597 1894 
L 3597 1613 
L 953 1613 
Q 991 1019 1311 708 
Q 1631 397 2203 397 
Q 2534 397 2845 478 
Q 3156 559 3463 722 
L 3463 178 
Q 3153 47 2828 -22 
Q 2503 -91 2169 -91 
Q 1331 -91 842 396 
Q 353 884 353 1716 
Q 353 2575 817 3079 
Q 1281 3584 2069 3584 
Q 2775 3584 3186 3129 
Q 3597 2675 3597 1894 
z
M 3022 2063 
Q 3016 2534 2758 2815 
Q 2500 3097 2075 3097 
Q 1594 3097 1305 2825 
Q 1016 2553 972 2059 
L 3022 2063 
z
" transform="scale(0.015625)"/>
       <path id="DejaVuSans-72" d="M 2631 2963 
Q 2534 3019 2420 3045 
Q 2306 3072 2169 3072 
Q 1681 3072 1420 2755 
Q 1159 2438 1159 1844 
L 1159 0 
L 581 0 
L 581 3500 
L 1159 3500 
L 1159 2956 
Q 1341 3275 1631 3429 
Q 1922 3584 2338 3584 
Q 2397 3584 2469 3576 
Q 2541 3569 2628 3553 
L 2631 2963 
z
" transform="scale(0.015625)"/>
       <path id="DejaVuSans-61" d="M 2194 1759 
Q 1497 1759 1228 1600 
Q 959 1441 959 1056 
Q 959 750 1161 570 
Q 1363 391 1709 391 
Q 2188 391 2477 730 
Q 2766 1069 2766 1631 
L 2766 1759 
L 2194 1759 
z
M 3341 1997 
L 3341 0 
L 2766 0 
L 2766 531 
Q 2569 213 2275 61 
Q 1981 -91 1556 -91 
Q 1019 -91 701 211 
Q 384 513 384 1019 
Q 384 1609 779 1909 
Q 1175 2209 1959 2209 
L 2766 2209 
L 2766 2266 
Q 2766 2663 2505 2880 
Q 2244 3097 1772 3097 
Q 1472 3097 1187 3025 
Q 903 2953 641 2809 
L 641 3341 
Q 956 3463 1253 3523 
Q 1550 3584 1831 3584 
Q 2591 3584 2966 3190 
Q 3341 2797 3341 1997 
z
" transform="scale(0.015625)"/>
       <path id="DejaVuSans-6f" d="M 1959 3097 
Q 1497 3097 1228 2736 
Q 959 2375 959 1747 
Q 959 1119 1226 758 
Q 1494 397 1959 397 
Q 2419 397 2687 759 
Q 2956 1122 2956 1747 
Q 2956 2369 2687 2733 
Q 2419 3097 1959 3097 
z
M 1959 3584 
Q 2709 3584 3137 3096 
Q 3566 2609 3566 1747 
Q 3566 888 3137 398 
Q 2709 -91 1959 -91 
Q 1206 -91 779 398 
Q 353 888 353 1747 
Q 353 2609 779 3096 
Q 1206 3584 1959 3584 
z
" transform="scale(0.015625)"/>
       <path id="DejaVuSans-6e" d="M 3513 2113 
L 3513 0 
L 2938 0 
L 2938 2094 
Q 2938 2591 2744 2837 
Q 2550 3084 2163 3084 
Q 1697 3084 1428 2787 
Q 1159 2491 1159 1978 
L 1159 0 
L 581 0 
L 581 3500 
L 1159 3500 
L 1159 2956 
Q 1366 3272 1645 3428 
Q 1925 3584 2291 3584 
Q 2894 3584 3203 3211 
Q 3513 2838 3513 2113 
z
" transform="scale(0.015625)"/>
      </defs>
      <use xlink:href="#DejaVuSans-69"/>
      <use xlink:href="#DejaVuSans-74" x="27.783203"/>
      <use xlink:href="#DejaVuSans-65" x="66.992188"/>
      <use xlink:href="#DejaVuSans-72" x="128.515625"/>
      <use xlink:href="#DejaVuSans-61" x="169.628906"/>
      <use xlink:href="#DejaVuSans-74" x="230.908203"/>
      <use xlink:href="#DejaVuSans-69" x="270.117188"/>
      <use xlink:href="#DejaVuSans-6f" x="297.900391"/>
      <use xlink:href="#DejaVuSans-6e" x="359.082031"/>
     </g>
    </g>
   </g>
   <g id="matplotlib.axis_2">
    <g id="ytick_1">
     <g id="line2d_7">
      <defs>
       <path id="me363e222d3" d="M 0 0 
L -3.5 0 
" style="stroke: #000000; stroke-width: 0.8"/>
      </defs>
      <g>
       <use xlink:href="#me363e222d3" x="57.6" y="305.293149" style="stroke: #000000; stroke-width: 0.8"/>
      </g>
     </g>
     <g id="text_8">
      <!-- 0.00 -->
      <g transform="translate(28.334375 309.092367) scale(0.1 -0.1)">
       <defs>
        <path id="DejaVuSans-2e" d="M 684 794 
L 1344 794 
L 1344 0 
L 684 0 
L 684 794 
z
" transform="scale(0.015625)"/>
       </defs>
       <use xlink:href="#DejaVuSans-30"/>
       <use xlink:href="#DejaVuSans-2e" x="63.623047"/>
       <use xlink:href="#DejaVuSans-30" x="95.410156"/>
       <use xlink:href="#DejaVuSans-30" x="159.033203"/>
      </g>
     </g>
    </g>
    <g id="ytick_2">
     <g id="line2d_8">
      <g>
       <use xlink:href="#me363e222d3" x="57.6" y="259.802603" style="stroke: #000000; stroke-width: 0.8"/>
      </g>
     </g>
     <g id="text_9">
      <!-- 0.05 -->
      <g transform="translate(28.334375 263.601822) scale(0.1 -0.1)">
       <use xlink:href="#DejaVuSans-30"/>
       <use xlink:href="#DejaVuSans-2e" x="63.623047"/>
       <use xlink:href="#DejaVuSans-30" x="95.410156"/>
       <use xlink:href="#DejaVuSans-35" x="159.033203"/>
      </g>
     </g>
    </g>
    <g id="ytick_3">
     <g id="line2d_9">
      <g>
       <use xlink:href="#me363e222d3" x="57.6" y="214.312057" style="stroke: #000000; stroke-width: 0.8"/>
      </g>
     </g>
     <g id="text_10">
      <!-- 0.10 -->
      <g transform="translate(28.334375 218.111276) scale(0.1 -0.1)">
       <use xlink:href="#DejaVuSans-30"/>
       <use xlink:href="#DejaVuSans-2e" x="63.623047"/>
       <use xlink:href="#DejaVuSans-31" x="95.410156"/>
       <use xlink:href="#DejaVuSans-30" x="159.033203"/>
      </g>
     </g>
    </g>
    <g id="ytick_4">
     <g id="line2d_10">
      <g>
       <use xlink:href="#me363e222d3" x="57.6" y="168.821511" style="stroke: #000000; stroke-width: 0.8"/>
      </g>
     </g>
     <g id="text_11">
      <!-- 0.15 -->
      <g transform="translate(28.334375 172.62073) scale(0.1 -0.1)">
       <use xlink:href="#DejaVuSans-30"/>
       <use xlink:href="#DejaVuSans-2e" x="63.623047"/>
       <use xlink:href="#DejaVuSans-31" x="95.410156"/>
       <use xlink:href="#DejaVuSans-35" x="159.033203"/>
      </g>
     </g>
    </g>
    <g id="ytick_5">
     <g id="line2d_11">
      <g>
       <use xlink:href="#me363e222d3" x="57.6" y="123.330966" style="stroke: #000000; stroke-width: 0.8"/>
      </g>
     </g>
     <g id="text_12">
      <!-- 0.20 -->
      <g transform="translate(28.334375 127.130184) scale(0.1 -0.1)">
       <use xlink:href="#DejaVuSans-30"/>
       <use xlink:href="#DejaVuSans-2e" x="63.623047"/>
       <use xlink:href="#DejaVuSans-32" x="95.410156"/>
       <use xlink:href="#DejaVuSans-30" x="159.033203"/>
      </g>
     </g>
    </g>
    <g id="ytick_6">
     <g id="line2d_12">
      <g>
       <use xlink:href="#me363e222d3" x="57.6" y="77.84042" style="stroke: #000000; stroke-width: 0.8"/>
      </g>
     </g>
     <g id="text_13">
      <!-- 0.25 -->
      <g transform="translate(28.334375 81.639639) scale(0.1 -0.1)">
       <use xlink:href="#DejaVuSans-30"/>
       <use xlink:href="#DejaVuSans-2e" x="63.623047"/>
       <use xlink:href="#DejaVuSans-32" x="95.410156"/>
       <use xlink:href="#DejaVuSans-35" x="159.033203"/>
      </g>
     </g>
    </g>
    <g id="text_14">
     <!-- loss -->
     <g transform="translate(22.254688 184.185812) rotate(-90) scale(0.1 -0.1)">
      <defs>
       <path id="DejaVuSans-6c" d="M 603 4863 
L 1178 4863 
L 1178 0 
L 603 0 
L 603 4863 
z
" transform="scale(0.015625)"/>
       <path id="DejaVuSans-73" d="M 2834 3397 
L 2834 2853 
Q 2591 2978 2328 3040 
Q 2066 3103 1784 3103 
Q 1356 3103 1142 2972 
Q 928 2841 928 2578 
Q 928 2378 1081 2264 
Q 1234 2150 1697 2047 
L 1894 2003 
Q 2506 1872 2764 1633 
Q 3022 1394 3022 966 
Q 3022 478 2636 193 
Q 2250 -91 1575 -91 
Q 1294 -91 989 -36 
Q 684 19 347 128 
L 347 722 
Q 666 556 975 473 
Q 1284 391 1588 391 
Q 1994 391 2212 530 
Q 2431 669 2431 922 
Q 2431 1156 2273 1281 
Q 2116 1406 1581 1522 
L 1381 1569 
Q 847 1681 609 1914 
Q 372 2147 372 2553 
Q 372 3047 722 3315 
Q 1072 3584 1716 3584 
Q 2034 3584 2315 3537 
Q 2597 3491 2834 3397 
z
" transform="scale(0.015625)"/>
      </defs>
      <use xlink:href="#DejaVuSans-6c"/>
      <use xlink:href="#DejaVuSans-6f" x="27.783203"/>
      <use xlink:href="#DejaVuSans-73" x="88.964844"/>
      <use xlink:href="#DejaVuSans-73" x="141.064453"/>
     </g>
    </g>
   </g>
   <g id="line2d_13">
    <path d="M 73.832727 78.147193 
L 74.483338 78.545952 
L 75.133948 75.607949 
L 75.784558 76.619618 
L 76.435169 76.508665 
L 77.085779 72.9186 
L 77.736389 73.033403 
L 78.386999 68.993969 
L 79.03761 74.218414 
L 79.68822 71.725319 
L 80.33883 70.630409 
L 80.989441 66.788016 
L 81.640051 70.433016 
L 82.290661 69.314028 
L 82.941272 67.502293 
L 83.591882 67.359562 
L 84.242492 65.046264 
L 84.893103 67.979589 
L 86.194323 62.102146 
L 86.844934 60.999618 
L 87.495544 62.249215 
L 88.146154 63.942487 
L 88.796764 60.172762 
L 89.447375 61.413927 
L 90.097985 59.30724 
L 90.748595 61.373608 
L 91.399206 61.76205 
L 92.049816 60.585091 
L 92.700426 57.280758 
L 93.351037 61.328543 
L 94.652257 59.614393 
L 95.302868 54.410311 
L 95.953478 56.450974 
L 96.604088 57.283036 
L 97.254698 59.155372 
L 97.905309 56.582073 
L 98.555919 57.013301 
L 99.206529 55.328407 
L 99.85714 54.900866 
L 100.50775 56.5494 
L 101.15836 56.485708 
L 101.808971 58.296494 
L 102.459581 57.419612 
L 103.110191 56.23799 
L 103.760802 53.568 
L 104.411412 54.911522 
L 105.062022 53.887761 
L 105.712633 58.481713 
L 106.363243 57.224794 
L 107.013853 57.606973 
L 107.664463 59.323753 
L 108.315074 58.343266 
L 108.965684 58.902286 
L 109.616294 56.920136 
L 110.266905 59.959506 
L 110.917515 57.791568 
L 111.568125 60.185017 
L 112.218736 57.515732 
L 112.869346 53.692537 
L 113.519956 56.901617 
L 114.170567 56.892886 
L 114.821177 55.357908 
L 115.471787 58.582796 
L 116.122398 59.291026 
L 116.773008 60.940291 
L 118.074228 59.451923 
L 118.724839 60.655264 
L 119.375449 61.400071 
L 120.026059 61.166399 
L 120.67667 58.056666 
L 121.32728 59.249324 
L 121.97789 61.029552 
L 122.628501 64.191046 
L 123.279111 65.825317 
L 123.929721 63.015579 
L 124.580332 65.569546 
L 125.230942 66.543335 
L 125.881552 63.607054 
L 127.182773 64.452402 
L 127.833383 66.420236 
L 128.483993 66.393663 
L 129.134604 65.123187 
L 129.785214 67.84868 
L 130.435824 67.716226 
L 131.086435 67.846267 
L 131.737045 67.326808 
L 132.387655 67.326239 
L 133.038266 69.252885 
L 133.688876 69.374548 
L 134.339486 70.77699 
L 134.990097 73.108347 
L 135.640707 71.204639 
L 136.291317 70.832141 
L 136.941927 72.745637 
L 137.592538 75.108962 
L 138.243148 74.732504 
L 138.893758 75.916648 
L 139.544369 73.90497 
L 140.194979 74.07045 
L 140.845589 79.215612 
L 141.4962 78.44811 
L 142.14681 76.374828 
L 142.79742 79.231976 
L 143.448031 79.037538 
L 144.098641 85.207763 
L 145.399862 83.637739 
L 146.050472 84.992758 
L 146.701082 83.221342 
L 147.351692 84.372921 
L 148.002303 87.29128 
L 148.652913 88.514522 
L 149.303523 90.209665 
L 149.954134 90.628326 
L 150.604744 88.103263 
L 151.255354 90.436803 
L 152.556575 88.195656 
L 153.207185 91.202869 
L 153.857796 91.602211 
L 154.508406 93.223087 
L 155.159016 93.569271 
L 155.809627 96.752348 
L 156.460237 98.533254 
L 157.110847 98.706841 
L 157.761457 98.623261 
L 158.412068 97.233562 
L 159.062678 102.368326 
L 159.713288 97.433545 
L 160.363899 103.80622 
L 161.014509 103.306812 
L 162.31573 103.350887 
L 162.96634 107.362582 
L 163.61695 107.80265 
L 164.267561 110.336702 
L 164.918171 110.052556 
L 165.568781 113.847051 
L 166.219392 108.511965 
L 166.870002 114.865755 
L 167.520612 109.692299 
L 168.171222 115.6088 
L 168.821833 113.990039 
L 169.472443 119.357296 
L 170.773664 113.746578 
L 171.424274 120.82122 
L 172.074884 121.539794 
L 172.725495 121.795416 
L 173.376105 123.459797 
L 174.026715 126.243587 
L 174.677326 124.876678 
L 175.327936 124.59866 
L 175.978546 124.924142 
L 176.629156 126.596251 
L 177.279767 129.608141 
L 177.930377 128.436646 
L 178.580987 132.144389 
L 179.231598 131.235349 
L 179.882208 131.208112 
L 180.532818 136.098561 
L 181.183429 137.365729 
L 181.834039 135.041286 
L 182.484649 139.658258 
L 183.13526 142.631252 
L 183.78587 142.663789 
L 184.43648 143.931689 
L 185.087091 141.619936 
L 185.737701 143.219297 
L 186.388311 141.301978 
L 187.038921 148.23896 
L 187.689532 148.531701 
L 188.340142 149.14053 
L 188.990752 147.072725 
L 189.641363 148.983062 
L 190.291973 149.343658 
L 190.942583 148.423515 
L 191.593194 152.37484 
L 192.243804 163.27143 
L 192.894414 155.919109 
L 193.545025 158.317303 
L 194.195635 157.642464 
L 194.846245 160.42864 
L 195.496856 160.975498 
L 196.147466 162.200191 
L 197.448686 166.823088 
L 198.099297 167.045087 
L 198.749907 164.668341 
L 199.400517 168.821777 
L 200.051128 167.990135 
L 200.701738 168.016925 
L 201.352348 169.194032 
L 202.002959 167.443955 
L 202.653569 171.40237 
L 203.304179 169.328452 
L 203.95479 171.492418 
L 204.6054 172.821108 
L 205.25601 179.469524 
L 205.906621 177.218236 
L 206.557231 177.645791 
L 207.207841 180.387376 
L 207.858451 178.758095 
L 208.509062 179.5516 
L 209.159672 182.822257 
L 209.810282 188.630991 
L 210.460893 177.94645 
L 211.111503 188.030243 
L 211.762113 187.484564 
L 212.412724 187.415951 
L 213.063334 189.506653 
L 213.713944 187.836917 
L 214.364555 193.529832 
L 215.015165 188.618844 
L 215.665775 193.319017 
L 216.966996 193.149951 
L 217.617606 196.052021 
L 218.268216 198.319259 
L 218.918827 198.788271 
L 219.569437 195.226453 
L 220.220047 198.835552 
L 220.870658 198.455238 
L 221.521268 201.722146 
L 222.171878 203.49104 
L 222.822489 204.46969 
L 223.473099 202.476051 
L 224.123709 205.468282 
L 224.77432 205.442374 
L 225.42493 203.869043 
L 226.07554 209.829273 
L 226.72615 207.301221 
L 227.376761 206.649864 
L 228.027371 209.004485 
L 228.677981 207.07914 
L 229.328592 208.609766 
L 229.979202 213.903942 
L 230.629812 212.828528 
L 231.280423 217.935153 
L 231.931033 214.352619 
L 232.581643 213.003918 
L 233.232254 217.615453 
L 233.882864 216.996728 
L 234.533474 218.592679 
L 235.184085 215.636449 
L 235.834695 221.565213 
L 236.485305 224.422577 
L 237.135915 224.305605 
L 237.786526 218.242442 
L 238.437136 220.700274 
L 239.087746 219.086387 
L 239.738357 217.775178 
L 240.388967 226.374969 
L 241.039577 222.038076 
L 241.690188 225.46117 
L 242.340798 224.961057 
L 242.991408 223.849628 
L 243.642019 230.150768 
L 244.943239 225.702801 
L 246.24446 231.917554 
L 246.89507 231.720554 
L 247.54568 229.791888 
L 248.196291 233.230132 
L 248.846901 235.363804 
L 249.497511 235.880078 
L 250.148122 231.193198 
L 251.449342 235.437732 
L 252.099953 236.123478 
L 252.750563 234.251467 
L 253.401173 233.927137 
L 254.051784 239.433288 
L 254.702394 235.374704 
L 255.353004 235.728148 
L 256.003615 236.285642 
L 256.654225 240.685529 
L 257.304835 238.321947 
L 257.955445 236.491448 
L 258.606056 240.632981 
L 259.256666 240.249257 
L 260.557887 244.387591 
L 261.208497 241.697889 
L 261.859107 241.965211 
L 262.509718 244.972091 
L 263.160328 244.086471 
L 263.810938 242.017786 
L 264.461549 243.827792 
L 265.112159 245.298678 
L 265.762769 250.316185 
L 266.413379 240.616848 
L 267.06399 244.497798 
L 267.7146 250.728569 
L 268.36521 247.582747 
L 269.015821 250.078059 
L 269.666431 250.952311 
L 270.967652 247.004694 
L 271.618262 248.886784 
L 272.268872 251.241633 
L 272.919483 250.497344 
L 273.570093 250.79886 
L 274.220703 250.845456 
L 274.871314 252.960226 
L 275.521924 254.197548 
L 276.172534 254.278607 
L 276.823144 249.047024 
L 277.473755 253.711331 
L 278.124365 250.443237 
L 278.774975 251.449777 
L 279.425586 252.699311 
L 280.076196 256.018007 
L 280.726806 253.853618 
L 281.377417 256.086851 
L 282.028027 253.915463 
L 282.678637 255.963575 
L 283.329248 256.743496 
L 283.979858 259.895127 
L 284.630468 259.441017 
L 285.281079 256.926837 
L 285.931689 256.693707 
L 286.582299 262.845596 
L 287.232909 260.21075 
L 287.88352 261.588829 
L 288.53413 259.25427 
L 289.18474 260.252306 
L 289.835351 259.799426 
L 290.485961 262.839881 
L 291.136571 260.021691 
L 291.787182 261.848847 
L 292.437792 260.907534 
L 293.088402 262.332841 
L 293.739013 262.56731 
L 294.389623 259.243475 
L 295.040233 263.121241 
L 295.690844 265.558243 
L 296.341454 263.892106 
L 296.992064 264.149955 
L 297.642674 263.449072 
L 298.293285 265.346347 
L 298.943895 265.488349 
L 299.594505 264.600716 
L 300.245116 265.609642 
L 300.895726 267.96183 
L 301.546336 263.18273 
L 302.196947 266.417511 
L 302.847557 267.344972 
L 303.498167 267.857704 
L 304.148778 266.702881 
L 304.799388 270.910977 
L 305.449998 268.817322 
L 306.100608 267.374381 
L 306.751219 265.439729 
L 307.401829 267.470261 
L 308.052439 269.873465 
L 308.70305 269.335822 
L 309.35366 268.217621 
L 310.00427 269.098472 
L 311.305491 267.478145 
L 311.956101 270.837527 
L 312.606712 269.037065 
L 313.257322 270.431213 
L 313.907932 272.769027 
L 314.558543 268.243837 
L 315.209153 274.416591 
L 316.510373 268.731268 
L 317.160984 269.657031 
L 317.811594 270.207617 
L 318.462204 273.645096 
L 319.112815 272.97204 
L 319.763425 271.309594 
L 320.414035 272.677421 
L 321.064646 271.255141 
L 321.715256 273.403635 
L 322.365866 274.185674 
L 323.016477 272.381846 
L 323.667087 274.720531 
L 324.317697 271.138742 
L 325.618918 275.656339 
L 326.269528 274.936314 
L 326.920138 272.982255 
L 328.221359 274.090444 
L 328.871969 274.043255 
L 329.52258 275.903413 
L 330.17319 276.967162 
L 330.8238 272.779971 
L 331.474411 276.396917 
L 332.125021 274.126266 
L 332.775631 275.437729 
L 333.426242 277.595872 
L 334.076852 276.976331 
L 334.727462 278.410801 
L 335.378073 276.311964 
L 336.028683 276.389786 
L 336.679293 277.092127 
L 337.329903 280.768967 
L 337.980514 276.207082 
L 338.631124 277.209104 
L 339.281734 277.973126 
L 339.932345 279.506531 
L 340.582955 277.466534 
L 341.233565 277.838011 
L 342.534786 279.269655 
L 343.836007 280.013161 
L 344.486617 278.035428 
L 345.787837 277.716694 
L 346.438448 280.750435 
L 347.089058 282.441661 
L 347.739668 280.206391 
L 348.390279 281.753436 
L 349.040889 279.137211 
L 349.691499 280.179387 
L 350.34211 280.590652 
L 350.99272 278.402463 
L 351.64333 281.210781 
L 352.293941 281.144235 
L 352.944551 281.546638 
L 353.595161 281.650703 
L 354.245772 281.134386 
L 354.896382 279.725165 
L 355.546992 282.448909 
L 356.197602 282.172548 
L 356.848213 282.680687 
L 357.498823 282.879601 
L 358.149433 282.477264 
L 358.800044 280.099199 
L 359.450654 283.480205 
L 360.101264 281.772466 
L 360.751875 284.113864 
L 361.402485 283.461967 
L 362.053095 283.181925 
L 362.703706 285.870668 
L 363.354316 282.852288 
L 364.004926 286.242991 
L 364.655537 283.002424 
L 365.306147 283.913525 
L 365.956757 285.382686 
L 367.257978 282.793712 
L 367.908588 282.686107 
L 368.559198 285.222497 
L 369.209809 286.118435 
L 369.860419 285.739499 
L 370.511029 283.554355 
L 371.16164 283.037565 
L 371.81225 283.855568 
L 373.113471 284.541825 
L 373.764081 283.990637 
L 374.414691 284.729635 
L 375.065302 284.932821 
L 375.715912 284.270599 
L 376.366522 286.316925 
L 377.017132 286.67223 
L 377.667743 286.152859 
L 378.318353 284.131708 
L 378.968963 284.991895 
L 379.619574 288.230099 
L 380.270184 285.25773 
L 380.920794 285.680331 
L 381.571405 286.297386 
L 382.222015 286.246844 
L 382.872625 284.615185 
L 383.523236 286.223945 
L 384.173846 286.885936 
L 384.824456 287.017446 
L 385.475066 286.46839 
L 386.125677 285.3436 
L 386.776287 288.955643 
L 387.426897 288.391779 
L 388.077508 286.913916 
L 388.728118 286.429698 
L 389.378728 286.641624 
L 390.029339 288.153846 
L 390.679949 287.241729 
L 391.330559 287.615726 
L 391.98117 287.813614 
L 392.63178 287.272368 
L 393.28239 290.216518 
L 393.933001 287.594275 
L 394.583611 285.806895 
L 395.234221 288.944837 
L 395.884831 287.830082 
L 396.535442 287.433293 
L 397.186052 289.381078 
L 397.836662 287.610623 
L 398.487273 288.976954 
L 398.487273 288.976954 
" clip-path="url(#pd5bd0a9497)" style="fill: none; stroke: #1f77b4; stroke-width: 1.5; stroke-linecap: square"/>
   </g>
   <g id="line2d_14">
    <path d="M 73.832727 58.698168 
L 74.483338 59.41803 
L 75.133948 67.467505 
L 75.784558 67.811642 
L 77.085779 76.151432 
L 77.736389 78.748416 
L 78.386999 85.910624 
L 79.03761 82.76952 
L 79.68822 82.579244 
L 80.33883 91.804593 
L 80.989441 90.549627 
L 81.640051 95.655866 
L 82.290661 98.66358 
L 82.941272 97.160516 
L 84.242492 101.854303 
L 84.893103 108.556962 
L 86.194323 113.139322 
L 86.844934 110.77498 
L 87.495544 119.428295 
L 88.146154 114.861891 
L 88.796764 115.741743 
L 89.447375 120.546957 
L 90.748595 127.430509 
L 91.399206 128.235511 
L 92.049816 129.419397 
L 92.700426 127.149319 
L 93.351037 130.481661 
L 94.001647 132.685336 
L 94.652257 137.888442 
L 95.302868 141.450064 
L 95.953478 141.186294 
L 96.604088 138.278999 
L 97.254698 140.396883 
L 97.905309 145.647466 
L 98.555919 141.4688 
L 99.206529 150.053935 
L 99.85714 145.377433 
L 100.50775 146.867754 
L 101.15836 148.800812 
L 101.808971 149.408543 
L 102.459581 153.244591 
L 103.110191 149.918837 
L 103.760802 154.579491 
L 104.411412 156.834141 
L 105.062022 158.349434 
L 105.712633 161.942536 
L 106.363243 158.655624 
L 107.013853 163.770526 
L 107.664463 161.349135 
L 108.315074 165.06024 
L 108.965684 165.499223 
L 109.616294 162.597554 
L 110.266905 167.86587 
L 110.917515 166.264692 
L 111.568125 170.521923 
L 112.218736 166.527919 
L 112.869346 170.274191 
L 113.519956 171.211308 
L 114.170567 171.178188 
L 114.821177 171.86272 
L 115.471787 169.752929 
L 116.122398 176.811329 
L 116.773008 178.681144 
L 117.423618 174.192179 
L 118.724839 177.96543 
L 119.375449 174.03478 
L 120.026059 179.582144 
L 120.67667 177.181117 
L 121.32728 181.373178 
L 121.97789 181.017585 
L 122.628501 179.632889 
L 123.279111 184.903659 
L 123.929721 180.732584 
L 124.580332 186.318641 
L 125.230942 184.041893 
L 125.881552 185.146401 
L 126.532163 185.493968 
L 127.182773 186.530582 
L 127.833383 187.240263 
L 128.483993 185.012456 
L 129.134604 190.391223 
L 129.785214 188.994488 
L 130.435824 188.893324 
L 131.086435 189.851034 
L 131.737045 186.865581 
L 132.387655 190.482666 
L 133.038266 188.99602 
L 133.688876 193.475088 
L 134.339486 191.806924 
L 134.990097 192.188268 
L 135.640707 194.66014 
L 136.291317 194.197363 
L 136.941927 197.759229 
L 137.592538 196.725307 
L 138.243148 197.590571 
L 138.893758 198.968135 
L 139.544369 199.369979 
L 140.194979 197.713758 
L 140.845589 198.044596 
L 141.4962 199.532313 
L 142.14681 197.992841 
L 142.79742 197.398702 
L 143.448031 200.049596 
L 144.098641 198.847618 
L 144.749251 199.122891 
L 145.399862 200.01691 
L 146.050472 202.033305 
L 146.701082 202.373666 
L 147.351692 201.781866 
L 148.002303 203.91524 
L 148.652913 204.362764 
L 149.303523 200.603918 
L 149.954134 206.319297 
L 150.604744 204.620067 
L 151.255354 203.737267 
L 151.905965 206.509282 
L 152.556575 208.084592 
L 153.207185 210.124462 
L 153.857796 208.638087 
L 154.508406 212.485984 
L 155.159016 207.424829 
L 155.809627 207.230954 
L 156.460237 208.011397 
L 157.110847 203.718416 
L 158.412068 212.211362 
L 159.062678 205.96304 
L 159.713288 211.91681 
L 160.363899 211.44209 
L 161.014509 208.090307 
L 161.665119 213.494629 
L 162.31573 209.962853 
L 162.96634 208.52321 
L 163.61695 212.804714 
L 164.267561 211.83889 
L 164.918171 214.870038 
L 165.568781 215.770699 
L 166.219392 211.419171 
L 166.870002 212.512502 
L 167.520612 215.704499 
L 168.171222 216.439736 
L 168.821833 213.747431 
L 169.472443 212.950428 
L 170.123053 215.974519 
L 170.773664 215.208372 
L 171.424274 217.180313 
L 172.074884 217.045432 
L 172.725495 216.51893 
L 173.376105 220.631424 
L 174.026715 218.931339 
L 174.677326 219.028911 
L 175.327936 212.789442 
L 175.978546 218.403705 
L 176.629156 222.041004 
L 177.279767 219.287129 
L 177.930377 218.296698 
L 178.580987 217.662666 
L 179.231598 220.307901 
L 179.882208 221.907926 
L 180.532818 221.757454 
L 181.183429 223.610132 
L 181.834039 222.33723 
L 182.484649 224.85687 
L 183.13526 222.8687 
L 183.78587 222.839193 
L 184.43648 227.662581 
L 185.087091 221.750472 
L 185.737701 223.999537 
L 186.388311 227.236355 
L 187.038921 229.550996 
L 187.689532 223.559482 
L 188.340142 227.124386 
L 188.990752 229.134179 
L 189.641363 225.26316 
L 190.291973 228.087139 
L 190.942583 229.822195 
L 191.593194 225.990594 
L 192.243804 229.437698 
L 192.894414 227.852382 
L 193.545025 230.441944 
L 194.195635 231.385846 
L 195.496856 225.667376 
L 196.147466 227.423784 
L 196.798076 230.272648 
L 197.448686 235.599002 
L 198.099297 228.382552 
L 198.749907 230.955499 
L 199.400517 232.43925 
L 200.051128 232.687707 
L 200.701738 232.665155 
L 201.352348 231.712765 
L 202.002959 233.022124 
L 202.653569 229.400287 
L 203.304179 235.318544 
L 203.95479 232.969643 
L 204.6054 235.799432 
L 205.25601 236.525131 
L 205.906621 233.868529 
L 206.557231 238.205368 
L 207.207841 240.072227 
L 207.858451 236.552869 
L 208.509062 239.66835 
L 209.159672 238.992257 
L 209.810282 240.857327 
L 211.111503 238.155857 
L 211.762113 239.759265 
L 212.412724 237.355614 
L 213.063334 240.279937 
L 213.713944 242.141346 
L 214.364555 245.395456 
L 215.665775 243.379271 
L 216.316385 238.493608 
L 216.966996 243.135743 
L 217.617606 242.262236 
L 218.268216 245.149196 
L 218.918827 245.775662 
L 219.569437 244.295063 
L 220.220047 243.5655 
L 220.870658 246.275389 
L 221.521268 247.883318 
L 222.171878 245.331473 
L 222.822489 246.735549 
L 223.473099 246.286262 
L 224.123709 247.507207 
L 224.77432 250.6146 
L 225.42493 244.735226 
L 226.07554 251.440236 
L 226.72615 250.089481 
L 227.376761 246.784768 
L 228.027371 251.432925 
L 228.677981 248.85243 
L 229.328592 248.717285 
L 229.979202 253.205287 
L 230.629812 252.8307 
L 231.280423 247.736365 
L 231.931033 254.473401 
L 232.581643 256.044627 
L 233.232254 253.494456 
L 233.882864 255.091235 
L 234.533474 252.608314 
L 235.184085 256.403962 
L 235.834695 256.781083 
L 236.485305 254.778147 
L 237.135915 255.183397 
L 237.786526 254.239609 
L 238.437136 255.957237 
L 239.087746 256.164046 
L 239.738357 255.06858 
L 240.388967 258.103782 
L 241.039577 257.195684 
L 241.690188 258.170148 
L 242.340798 258.216636 
L 242.991408 257.771141 
L 243.642019 258.554157 
L 244.292629 255.135113 
L 245.59385 261.445784 
L 246.24446 260.963905 
L 246.89507 262.852042 
L 247.54568 259.651293 
L 248.196291 262.385571 
L 248.846901 261.906174 
L 249.497511 262.128208 
L 250.148122 264.101193 
L 250.798732 264.693078 
L 251.449342 260.291147 
L 252.750563 264.039378 
L 253.401173 262.691138 
L 254.051784 265.147201 
L 254.702394 264.39043 
L 255.353004 264.374357 
L 256.003615 263.756351 
L 256.654225 261.748439 
L 257.304835 265.461153 
L 257.955445 265.590611 
L 259.256666 264.51016 
L 259.907276 263.51756 
L 261.208497 269.423639 
L 261.859107 269.840538 
L 262.509718 266.331403 
L 263.810938 268.093678 
L 264.461549 266.833919 
L 265.112159 266.632729 
L 266.413379 271.050376 
L 267.06399 272.021806 
L 267.7146 270.305921 
L 268.36521 270.3299 
L 269.015821 270.546453 
L 269.666431 271.409609 
L 270.317041 268.264783 
L 270.967652 269.727447 
L 271.618262 270.812073 
L 272.268872 269.952165 
L 272.919483 267.656975 
L 273.570093 267.232315 
L 274.871314 275.018983 
L 275.521924 275.040692 
L 276.172534 274.288516 
L 276.823144 276.022273 
L 277.473755 276.038548 
L 278.124365 273.099186 
L 278.774975 271.826663 
L 279.425586 274.686749 
L 280.076196 274.847538 
L 281.377417 274.374468 
L 282.028027 276.516736 
L 282.678637 275.879417 
L 283.329248 274.362497 
L 283.979858 277.29464 
L 284.630468 275.830285 
L 285.281079 278.456338 
L 285.931689 277.257625 
L 286.582299 277.967959 
L 287.232909 274.823454 
L 287.88352 277.070914 
L 288.53413 275.071677 
L 289.18474 276.963603 
L 289.835351 277.539272 
L 290.485961 274.328157 
L 291.136571 278.917937 
L 291.787182 280.027422 
L 292.437792 276.190417 
L 293.088402 275.49129 
L 293.739013 277.189124 
L 294.389623 278.323563 
L 295.040233 277.63341 
L 295.690844 279.245391 
L 296.992064 279.914217 
L 297.642674 279.040031 
L 298.293285 282.837812 
L 298.943895 279.681267 
L 299.594505 280.341533 
L 300.245116 281.657939 
L 300.895726 282.150552 
L 301.546336 279.560051 
L 302.196947 282.276251 
L 302.847557 282.015186 
L 303.498167 283.312804 
L 304.148778 279.878577 
L 304.799388 284.21323 
L 305.449998 280.125176 
L 306.100608 279.808037 
L 306.751219 280.58235 
L 307.401829 280.768696 
L 308.052439 282.099722 
L 308.70305 280.923676 
L 309.35366 281.298869 
L 310.00427 281.230974 
L 310.654881 281.698028 
L 311.305491 281.009452 
L 311.956101 284.646351 
L 312.606712 282.439672 
L 313.257322 282.790506 
L 313.907932 285.891801 
L 314.558543 282.983895 
L 315.209153 283.043596 
L 315.859763 284.396503 
L 316.510373 284.832535 
L 317.160984 284.734995 
L 317.811594 283.382674 
L 318.462204 286.37798 
L 319.112815 284.338475 
L 319.763425 283.424122 
L 320.414035 283.886024 
L 321.064646 284.008483 
L 321.715256 284.0173 
L 322.365866 284.31689 
L 323.667087 285.51715 
L 324.317697 285.743383 
L 324.968308 284.352471 
L 325.618918 285.966155 
L 326.269528 286.499223 
L 326.920138 285.740661 
L 327.570749 287.02284 
L 328.221359 284.527015 
L 328.871969 285.918066 
L 329.52258 288.011538 
L 330.17319 286.815274 
L 330.8238 285.227942 
L 331.474411 285.643547 
L 332.125021 285.087524 
L 332.775631 285.089002 
L 334.076852 288.049449 
L 334.727462 288.857616 
L 335.378073 288.029316 
L 336.028683 286.445021 
L 336.679293 287.689729 
L 337.329903 289.406903 
L 337.980514 286.301068 
L 339.281734 290.114145 
L 339.932345 289.030634 
L 340.582955 289.010674 
L 341.233565 287.619366 
L 341.884176 288.90933 
L 342.534786 289.010998 
L 343.185396 287.847505 
L 343.836007 288.060213 
L 344.486617 288.708297 
L 345.137227 289.765322 
L 345.787837 288.634395 
L 346.438448 289.123623 
L 347.089058 287.056217 
L 347.739668 289.52369 
L 348.390279 289.320437 
L 349.040889 290.055381 
L 349.691499 287.519762 
L 350.34211 289.967212 
L 350.99272 288.747362 
L 351.64333 289.868063 
L 352.293941 289.460181 
L 352.944551 291.220227 
L 353.595161 287.964055 
L 354.245772 291.371877 
L 354.896382 288.901321 
L 355.546992 291.010946 
L 356.197602 290.741581 
L 356.848213 291.4315 
L 357.498823 287.89736 
L 358.149433 292.150534 
L 358.800044 288.420349 
L 359.450654 290.832038 
L 360.101264 290.821148 
L 360.751875 291.436023 
L 361.402485 289.171343 
L 362.053095 290.122524 
L 362.703706 291.637769 
L 363.354316 291.205547 
L 364.004926 289.930243 
L 364.655537 291.623693 
L 365.306147 292.290441 
L 365.956757 289.927492 
L 366.607367 292.458754 
L 367.257978 291.104434 
L 367.908588 292.988159 
L 368.559198 292.088757 
L 369.209809 291.849106 
L 369.860419 292.284168 
L 370.511029 291.493371 
L 371.16164 292.110166 
L 371.81225 290.065959 
L 372.46286 292.784208 
L 373.113471 291.712333 
L 373.764081 292.063064 
L 374.414691 293.589457 
L 375.715912 291.955819 
L 376.366522 292.235235 
L 377.017132 291.764031 
L 377.667743 293.848715 
L 378.318353 293.530807 
L 379.619574 291.848875 
L 380.270184 294.378965 
L 380.920794 291.864661 
L 381.571405 292.712476 
L 382.222015 293.169398 
L 382.872625 291.464716 
L 383.523236 294.715096 
L 384.824456 293.225089 
L 385.475066 291.642585 
L 386.125677 293.701894 
L 386.776287 293.583712 
L 387.426897 293.303197 
L 388.077508 294.770255 
L 388.728118 295.488 
L 389.378728 295.395651 
L 390.029339 294.564609 
L 390.679949 294.959297 
L 391.330559 293.134729 
L 391.98117 293.361347 
L 392.63178 295.473785 
L 393.933001 294.431651 
L 394.583611 295.365812 
L 395.234221 294.364957 
L 395.884831 293.122895 
L 396.535442 293.555042 
L 397.186052 294.417414 
L 397.836662 295.0529 
L 398.487273 292.750178 
L 398.487273 292.750178 
" clip-path="url(#pd5bd0a9497)" style="fill: none; stroke: #ff7f0e; stroke-width: 1.5; stroke-linecap: square"/>
   </g>
   <g id="patch_3">
    <path d="M 57.6 307.584 
L 57.6 41.472 
" style="fill: none; stroke: #000000; stroke-width: 0.8; stroke-linejoin: miter; stroke-linecap: square"/>
   </g>
   <g id="patch_4">
    <path d="M 414.72 307.584 
L 414.72 41.472 
" style="fill: none; stroke: #000000; stroke-width: 0.8; stroke-linejoin: miter; stroke-linecap: square"/>
   </g>
   <g id="patch_5">
    <path d="M 57.6 307.584 
L 414.72 307.584 
" style="fill: none; stroke: #000000; stroke-width: 0.8; stroke-linejoin: miter; stroke-linecap: square"/>
   </g>
   <g id="patch_6">
    <path d="M 57.6 41.472 
L 414.72 41.472 
" style="fill: none; stroke: #000000; stroke-width: 0.8; stroke-linejoin: miter; stroke-linecap: square"/>
   </g>
   <g id="text_15">
    <!-- discriminator classification loss per batch/iteration -->
    <g transform="translate(84.344063 35.472) scale(0.12 -0.12)">
     <defs>
      <path id="DejaVuSans-64" d="M 2906 2969 
L 2906 4863 
L 3481 4863 
L 3481 0 
L 2906 0 
L 2906 525 
Q 2725 213 2448 61 
Q 2172 -91 1784 -91 
Q 1150 -91 751 415 
Q 353 922 353 1747 
Q 353 2572 751 3078 
Q 1150 3584 1784 3584 
Q 2172 3584 2448 3432 
Q 2725 3281 2906 2969 
z
M 947 1747 
Q 947 1113 1208 752 
Q 1469 391 1925 391 
Q 2381 391 2643 752 
Q 2906 1113 2906 1747 
Q 2906 2381 2643 2742 
Q 2381 3103 1925 3103 
Q 1469 3103 1208 2742 
Q 947 2381 947 1747 
z
" transform="scale(0.015625)"/>
      <path id="DejaVuSans-63" d="M 3122 3366 
L 3122 2828 
Q 2878 2963 2633 3030 
Q 2388 3097 2138 3097 
Q 1578 3097 1268 2742 
Q 959 2388 959 1747 
Q 959 1106 1268 751 
Q 1578 397 2138 397 
Q 2388 397 2633 464 
Q 2878 531 3122 666 
L 3122 134 
Q 2881 22 2623 -34 
Q 2366 -91 2075 -91 
Q 1284 -91 818 406 
Q 353 903 353 1747 
Q 353 2603 823 3093 
Q 1294 3584 2113 3584 
Q 2378 3584 2631 3529 
Q 2884 3475 3122 3366 
z
" transform="scale(0.015625)"/>
      <path id="DejaVuSans-6d" d="M 3328 2828 
Q 3544 3216 3844 3400 
Q 4144 3584 4550 3584 
Q 5097 3584 5394 3201 
Q 5691 2819 5691 2113 
L 5691 0 
L 5113 0 
L 5113 2094 
Q 5113 2597 4934 2840 
Q 4756 3084 4391 3084 
Q 3944 3084 3684 2787 
Q 3425 2491 3425 1978 
L 3425 0 
L 2847 0 
L 2847 2094 
Q 2847 2600 2669 2842 
Q 2491 3084 2119 3084 
Q 1678 3084 1418 2786 
Q 1159 2488 1159 1978 
L 1159 0 
L 581 0 
L 581 3500 
L 1159 3500 
L 1159 2956 
Q 1356 3278 1631 3431 
Q 1906 3584 2284 3584 
Q 2666 3584 2933 3390 
Q 3200 3197 3328 2828 
z
" transform="scale(0.015625)"/>
      <path id="DejaVuSans-20" transform="scale(0.015625)"/>
      <path id="DejaVuSans-66" d="M 2375 4863 
L 2375 4384 
L 1825 4384 
Q 1516 4384 1395 4259 
Q 1275 4134 1275 3809 
L 1275 3500 
L 2222 3500 
L 2222 3053 
L 1275 3053 
L 1275 0 
L 697 0 
L 697 3053 
L 147 3053 
L 147 3500 
L 697 3500 
L 697 3744 
Q 697 4328 969 4595 
Q 1241 4863 1831 4863 
L 2375 4863 
z
" transform="scale(0.015625)"/>
      <path id="DejaVuSans-70" d="M 1159 525 
L 1159 -1331 
L 581 -1331 
L 581 3500 
L 1159 3500 
L 1159 2969 
Q 1341 3281 1617 3432 
Q 1894 3584 2278 3584 
Q 2916 3584 3314 3078 
Q 3713 2572 3713 1747 
Q 3713 922 3314 415 
Q 2916 -91 2278 -91 
Q 1894 -91 1617 61 
Q 1341 213 1159 525 
z
M 3116 1747 
Q 3116 2381 2855 2742 
Q 2594 3103 2138 3103 
Q 1681 3103 1420 2742 
Q 1159 2381 1159 1747 
Q 1159 1113 1420 752 
Q 1681 391 2138 391 
Q 2594 391 2855 752 
Q 3116 1113 3116 1747 
z
" transform="scale(0.015625)"/>
      <path id="DejaVuSans-62" d="M 3116 1747 
Q 3116 2381 2855 2742 
Q 2594 3103 2138 3103 
Q 1681 3103 1420 2742 
Q 1159 2381 1159 1747 
Q 1159 1113 1420 752 
Q 1681 391 2138 391 
Q 2594 391 2855 752 
Q 3116 1113 3116 1747 
z
M 1159 2969 
Q 1341 3281 1617 3432 
Q 1894 3584 2278 3584 
Q 2916 3584 3314 3078 
Q 3713 2572 3713 1747 
Q 3713 922 3314 415 
Q 2916 -91 2278 -91 
Q 1894 -91 1617 61 
Q 1341 213 1159 525 
L 1159 0 
L 581 0 
L 581 4863 
L 1159 4863 
L 1159 2969 
z
" transform="scale(0.015625)"/>
      <path id="DejaVuSans-68" d="M 3513 2113 
L 3513 0 
L 2938 0 
L 2938 2094 
Q 2938 2591 2744 2837 
Q 2550 3084 2163 3084 
Q 1697 3084 1428 2787 
Q 1159 2491 1159 1978 
L 1159 0 
L 581 0 
L 581 4863 
L 1159 4863 
L 1159 2956 
Q 1366 3272 1645 3428 
Q 1925 3584 2291 3584 
Q 2894 3584 3203 3211 
Q 3513 2838 3513 2113 
z
" transform="scale(0.015625)"/>
      <path id="DejaVuSans-2f" d="M 1625 4666 
L 2156 4666 
L 531 -594 
L 0 -594 
L 1625 4666 
z
" transform="scale(0.015625)"/>
     </defs>
     <use xlink:href="#DejaVuSans-64"/>
     <use xlink:href="#DejaVuSans-69" x="63.476562"/>
     <use xlink:href="#DejaVuSans-73" x="91.259766"/>
     <use xlink:href="#DejaVuSans-63" x="143.359375"/>
     <use xlink:href="#DejaVuSans-72" x="198.339844"/>
     <use xlink:href="#DejaVuSans-69" x="239.453125"/>
     <use xlink:href="#DejaVuSans-6d" x="267.236328"/>
     <use xlink:href="#DejaVuSans-69" x="364.648438"/>
     <use xlink:href="#DejaVuSans-6e" x="392.431641"/>
     <use xlink:href="#DejaVuSans-61" x="455.810547"/>
     <use xlink:href="#DejaVuSans-74" x="517.089844"/>
     <use xlink:href="#DejaVuSans-6f" x="556.298828"/>
     <use xlink:href="#DejaVuSans-72" x="617.480469"/>
     <use xlink:href="#DejaVuSans-20" x="658.59375"/>
     <use xlink:href="#DejaVuSans-63" x="690.380859"/>
     <use xlink:href="#DejaVuSans-6c" x="745.361328"/>
     <use xlink:href="#DejaVuSans-61" x="773.144531"/>
     <use xlink:href="#DejaVuSans-73" x="834.423828"/>
     <use xlink:href="#DejaVuSans-73" x="886.523438"/>
     <use xlink:href="#DejaVuSans-69" x="938.623047"/>
     <use xlink:href="#DejaVuSans-66" x="966.40625"/>
     <use xlink:href="#DejaVuSans-69" x="1001.611328"/>
     <use xlink:href="#DejaVuSans-63" x="1029.394531"/>
     <use xlink:href="#DejaVuSans-61" x="1084.375"/>
     <use xlink:href="#DejaVuSans-74" x="1145.654297"/>
     <use xlink:href="#DejaVuSans-69" x="1184.863281"/>
     <use xlink:href="#DejaVuSans-6f" x="1212.646484"/>
     <use xlink:href="#DejaVuSans-6e" x="1273.828125"/>
     <use xlink:href="#DejaVuSans-20" x="1337.207031"/>
     <use xlink:href="#DejaVuSans-6c" x="1368.994141"/>
     <use xlink:href="#DejaVuSans-6f" x="1396.777344"/>
     <use xlink:href="#DejaVuSans-73" x="1457.958984"/>
     <use xlink:href="#DejaVuSans-73" x="1510.058594"/>
     <use xlink:href="#DejaVuSans-20" x="1562.158203"/>
     <use xlink:href="#DejaVuSans-70" x="1593.945312"/>
     <use xlink:href="#DejaVuSans-65" x="1657.421875"/>
     <use xlink:href="#DejaVuSans-72" x="1718.945312"/>
     <use xlink:href="#DejaVuSans-20" x="1760.058594"/>
     <use xlink:href="#DejaVuSans-62" x="1791.845703"/>
     <use xlink:href="#DejaVuSans-61" x="1855.322266"/>
     <use xlink:href="#DejaVuSans-74" x="1916.601562"/>
     <use xlink:href="#DejaVuSans-63" x="1955.810547"/>
     <use xlink:href="#DejaVuSans-68" x="2010.791016"/>
     <use xlink:href="#DejaVuSans-2f" x="2074.169922"/>
     <use xlink:href="#DejaVuSans-69" x="2107.861328"/>
     <use xlink:href="#DejaVuSans-74" x="2135.644531"/>
     <use xlink:href="#DejaVuSans-65" x="2174.853516"/>
     <use xlink:href="#DejaVuSans-72" x="2236.376953"/>
     <use xlink:href="#DejaVuSans-61" x="2277.490234"/>
     <use xlink:href="#DejaVuSans-74" x="2338.769531"/>
     <use xlink:href="#DejaVuSans-69" x="2377.978516"/>
     <use xlink:href="#DejaVuSans-6f" x="2405.761719"/>
     <use xlink:href="#DejaVuSans-6e" x="2466.943359"/>
    </g>
   </g>
   <g id="legend_1">
    <g id="patch_7">
     <path d="M 314.954375 78.82825 
L 407.72 78.82825 
Q 409.72 78.82825 409.72 76.82825 
L 409.72 48.472 
Q 409.72 46.472 407.72 46.472 
L 314.954375 46.472 
Q 312.954375 46.472 312.954375 48.472 
L 312.954375 76.82825 
Q 312.954375 78.82825 314.954375 78.82825 
z
" style="fill: #ffffff; opacity: 0.8; stroke: #cccccc; stroke-linejoin: miter"/>
    </g>
    <g id="line2d_15">
     <path d="M 316.954375 54.570437 
L 326.954375 54.570437 
L 336.954375 54.570437 
" style="fill: none; stroke: #1f77b4; stroke-width: 1.5; stroke-linecap: square"/>
    </g>
    <g id="text_16">
     <!-- real images -->
     <g transform="translate(344.954375 58.070437) scale(0.1 -0.1)">
      <defs>
       <path id="DejaVuSans-67" d="M 2906 1791 
Q 2906 2416 2648 2759 
Q 2391 3103 1925 3103 
Q 1463 3103 1205 2759 
Q 947 2416 947 1791 
Q 947 1169 1205 825 
Q 1463 481 1925 481 
Q 2391 481 2648 825 
Q 2906 1169 2906 1791 
z
M 3481 434 
Q 3481 -459 3084 -895 
Q 2688 -1331 1869 -1331 
Q 1566 -1331 1297 -1286 
Q 1028 -1241 775 -1147 
L 775 -588 
Q 1028 -725 1275 -790 
Q 1522 -856 1778 -856 
Q 2344 -856 2625 -561 
Q 2906 -266 2906 331 
L 2906 616 
Q 2728 306 2450 153 
Q 2172 0 1784 0 
Q 1141 0 747 490 
Q 353 981 353 1791 
Q 353 2603 747 3093 
Q 1141 3584 1784 3584 
Q 2172 3584 2450 3431 
Q 2728 3278 2906 2969 
L 2906 3500 
L 3481 3500 
L 3481 434 
z
" transform="scale(0.015625)"/>
      </defs>
      <use xlink:href="#DejaVuSans-72"/>
      <use xlink:href="#DejaVuSans-65" x="38.863281"/>
      <use xlink:href="#DejaVuSans-61" x="100.386719"/>
      <use xlink:href="#DejaVuSans-6c" x="161.666016"/>
      <use xlink:href="#DejaVuSans-20" x="189.449219"/>
      <use xlink:href="#DejaVuSans-69" x="221.236328"/>
      <use xlink:href="#DejaVuSans-6d" x="249.019531"/>
      <use xlink:href="#DejaVuSans-61" x="346.431641"/>
      <use xlink:href="#DejaVuSans-67" x="407.710938"/>
      <use xlink:href="#DejaVuSans-65" x="471.1875"/>
      <use xlink:href="#DejaVuSans-73" x="532.710938"/>
     </g>
    </g>
    <g id="line2d_16">
     <path d="M 316.954375 69.248562 
L 326.954375 69.248562 
L 336.954375 69.248562 
" style="fill: none; stroke: #ff7f0e; stroke-width: 1.5; stroke-linecap: square"/>
    </g>
    <g id="text_17">
     <!-- fake images -->
     <g transform="translate(344.954375 72.748562) scale(0.1 -0.1)">
      <defs>
       <path id="DejaVuSans-6b" d="M 581 4863 
L 1159 4863 
L 1159 1991 
L 2875 3500 
L 3609 3500 
L 1753 1863 
L 3688 0 
L 2938 0 
L 1159 1709 
L 1159 0 
L 581 0 
L 581 4863 
z
" transform="scale(0.015625)"/>
      </defs>
      <use xlink:href="#DejaVuSans-66"/>
      <use xlink:href="#DejaVuSans-61" x="35.205078"/>
      <use xlink:href="#DejaVuSans-6b" x="96.484375"/>
      <use xlink:href="#DejaVuSans-65" x="150.769531"/>
      <use xlink:href="#DejaVuSans-20" x="212.292969"/>
      <use xlink:href="#DejaVuSans-69" x="244.080078"/>
      <use xlink:href="#DejaVuSans-6d" x="271.863281"/>
      <use xlink:href="#DejaVuSans-61" x="369.275391"/>
      <use xlink:href="#DejaVuSans-67" x="430.554688"/>
      <use xlink:href="#DejaVuSans-65" x="494.03125"/>
      <use xlink:href="#DejaVuSans-73" x="555.554688"/>
     </g>
    </g>
   </g>
  </g>
 </g>
 <defs>
  <clipPath id="pd5bd0a9497">
   <rect x="57.6" y="41.472" width="357.12" height="266.112"/>
  </clipPath>
 </defs>
</svg>
