<?xml version="1.0" encoding="utf-8" standalone="no"?>
<!DOCTYPE svg PUBLIC "-//W3C//DTD SVG 1.1//EN"
  "http://www.w3.org/Graphics/SVG/1.1/DTD/svg11.dtd">
<svg xmlns:xlink="http://www.w3.org/1999/xlink" width="341.708447pt" height="337.493272pt" viewBox="0 0 341.708447 337.493272" xmlns="http://www.w3.org/2000/svg" version="1.1">
 <metadata>
  <rdf:RDF xmlns:dc="http://purl.org/dc/elements/1.1/" xmlns:cc="http://creativecommons.org/ns#" xmlns:rdf="http://www.w3.org/1999/02/22-rdf-syntax-ns#">
   <cc:Work>
    <dc:type rdf:resource="http://purl.org/dc/dcmitype/StillImage"/>
    <dc:date>2023-10-04T18:46:03.219438</dc:date>
    <dc:format>image/svg+xml</dc:format>
    <dc:creator>
     <cc:Agent>
      <dc:title>Matplotlib v3.8.0, https://matplotlib.org/</dc:title>
     </cc:Agent>
    </dc:creator>
   </cc:Work>
  </rdf:RDF>
 </metadata>
 <defs>
  <style type="text/css">*{stroke-linejoin: round; stroke-linecap: butt}</style>
 </defs>
 <g id="figure_1">
  <g id="patch_1">
   <path d="M 0 337.493272 
L 341.708447 337.493272 
L 341.708447 0 
L 0 0 
L 0 337.493272 
z
" style="fill: none"/>
  </g>
  <g id="axes_1">
   <g id="patch_2">
    <path d="M 20.905812 320.461862 
L 334.167674 320.461862 
L 334.167674 7.2 
L 20.905812 7.2 
L 20.905812 320.461862 
z
" style="fill: none"/>
   </g>
   <g id="patch_3">
    <path d="M 26.930079 314.437595 
L 26.930079 13.224267 
L 64.581745 13.224267 
L 64.581745 314.437595 
L 26.930079 314.437595 
z
" clip-path="url(#p6ff419ec13)" style="fill: none; stroke: #0000ff; stroke-linejoin: miter"/>
   </g>
   <g id="patch_4">
    <path d="M 64.581745 314.437595 
L 64.581745 48.617766 
L 102.233411 48.617766 
L 102.233411 314.437595 
L 64.581745 314.437595 
z
" clip-path="url(#p6ff419ec13)" style="fill: none; stroke: #0000ff; stroke-linejoin: miter"/>
   </g>
   <g id="patch_5">
    <path d="M 102.233411 314.437595 
L 102.233411 79.852419 
L 139.885077 79.852419 
L 139.885077 314.437595 
L 102.233411 314.437595 
z
" clip-path="url(#p6ff419ec13)" style="fill: none; stroke: #0000ff; stroke-linejoin: miter"/>
   </g>
   <g id="patch_6">
    <path d="M 139.885077 314.437595 
L 139.885077 107.416904 
L 177.536743 107.416904 
L 177.536743 314.437595 
L 139.885077 314.437595 
z
" clip-path="url(#p6ff419ec13)" style="fill: none; stroke: #0000ff; stroke-linejoin: miter"/>
   </g>
   <g id="patch_7">
    <path d="M 177.536743 314.437595 
L 177.536743 131.742476 
L 215.188409 131.742476 
L 215.188409 314.437595 
L 177.536743 314.437595 
z
" clip-path="url(#p6ff419ec13)" style="fill: none; stroke: #0000ff; stroke-linejoin: miter"/>
   </g>
   <g id="patch_8">
    <path d="M 215.188409 314.437595 
L 215.188409 153.209719 
L 252.840075 153.209719 
L 252.840075 314.437595 
L 215.188409 314.437595 
z
" clip-path="url(#p6ff419ec13)" style="fill: none; stroke: #0000ff; stroke-linejoin: miter"/>
   </g>
   <g id="patch_9">
    <path d="M 252.840075 314.437595 
L 252.840075 172.154494 
L 290.491742 172.154494 
L 290.491742 314.437595 
L 252.840075 314.437595 
z
" clip-path="url(#p6ff419ec13)" style="fill: none; stroke: #0000ff; stroke-linejoin: miter"/>
   </g>
   <g id="patch_10">
    <path d="M 290.491742 314.437595 
L 290.491742 188.873199 
L 328.143408 188.873199 
L 328.143408 314.437595 
L 290.491742 314.437595 
z
" clip-path="url(#p6ff419ec13)" style="fill: none; stroke: #0000ff; stroke-linejoin: miter"/>
   </g>
   <g id="patch_11">
    <path d="M 26.930079 314.437595 
L 26.930079 13.224267 
L 28.036321 14.32848 
L 30.062167 16.340127 
L 30.949888 17.217371 
L 33.025706 19.258629 
L 35.084673 21.269467 
L 35.70442 21.872042 
L 37.362121 23.477728 
L 38.813989 24.876798 
L 40.344015 26.343906 
L 41.98774 27.911755 
L 43.947648 29.770044 
L 45.612731 31.339322 
L 46.88716 32.534576 
L 47.758697 33.349061 
L 49.558926 35.024002 
L 50.692404 36.073471 
L 52.349178 37.600363 
L 53.760358 38.894309 
L 55.087568 40.10574 
L 57.796479 42.561836 
L 59.016478 43.660782 
L 60.472406 44.966436 
L 61.442229 45.832664 
L 63.474412 47.638749 
L 64.406161 48.462768 
L 65.536027 49.458584 
L 67.118712 50.84723 
L 69.607504 53.016186 
L 71.185146 54.381834 
L 71.819767 54.929164 
L 73.263175 56.169748 
L 75.132959 57.767982 
L 77.464325 59.746915 
L 78.912391 60.968388 
L 80.07946 61.948569 
L 81.577556 63.201215 
L 82.609084 64.060122 
L 84.429903 65.569075 
L 85.904869 66.784744 
L 87.249232 67.887594 
L 89.205437 69.483605 
L 91.034738 70.966729 
L 91.296176 71.177958 
L 94.162389 73.48173 
L 94.400032 73.671758 
L 96.452242 75.306555 
L 98.310053 76.776919 
L 100.045821 78.142521 
L 101.601449 79.35973 
L 101.896529 79.589909 
L 103.615045 80.925973 
L 105.382994 82.292537 
L 107.792007 84.141758 
L 109.170436 85.193243 
L 110.841715 86.461681 
L 112.038512 87.365689 
L 112.458963 87.682429 
L 113.985623 88.828799 
L 115.923639 90.275714 
L 117.657951 91.562674 
L 118.866676 92.455247 
L 121.367171 94.290385 
L 122.499302 95.11627 
L 123.199912 95.625811 
L 125.849856 97.542379 
L 127.555237 98.766905 
L 128.414386 99.381185 
L 130.319182 100.736856 
L 131.536066 101.598452 
L 133.42218 102.927029 
L 135.025725 104.050038 
L 135.626585 104.4693 
L 137.339849 105.660184 
L 139.350534 107.049192 
L 140.202864 107.6352 
L 141.580136 108.578627 
L 142.777857 109.395564 
L 144.885076 110.824985 
L 146.155599 111.682017 
L 147.850784 112.819892 
L 149.298247 113.786429 
L 151.287435 115.107148 
L 153.006096 116.241248 
L 153.914107 116.837813 
L 155.08853 117.606749 
L 157.799477 119.370297 
L 158.443612 119.786996 
L 160.065765 120.832449 
L 161.083585 121.485549 
L 163.618816 123.102759 
L 164.994594 123.97468 
L 166.075008 124.656622 
L 167.469282 125.533062 
L 169.009662 126.496638 
L 171.23764 127.881648 
L 172.750574 128.816332 
L 173.175362 129.077921 
L 175.738432 130.648483 
L 176.651663 131.204859 
L 177.753004 131.873598 
L 179.293293 132.804777 
L 181.093257 133.886926 
L 182.229918 134.56697 
L 184.085792 135.671804 
L 185.960222 136.780797 
L 186.811579 137.282222 
L 189.219378 138.692698 
L 190.387831 139.373119 
L 192.355187 140.512816 
L 193.106994 140.946378 
L 194.528409 141.763149 
L 196.460115 142.866981 
L 198.660516 144.115759 
L 199.448706 144.56086 
L 200.797795 145.320011 
L 203.140732 146.630361 
L 203.679925 146.930479 
L 205.416683 147.893525 
L 206.389176 148.430359 
L 208.980377 149.852319 
L 210.749209 150.81599 
L 211.395206 151.166525 
L 213.704555 152.413509 
L 215.03861 153.129517 
L 216.598437 153.962688 
L 217.573951 154.481564 
L 219.493495 155.497676 
L 220.227836 155.88469 
L 222.814074 157.240209 
L 223.554221 157.626003 
L 225.440715 158.605042 
L 226.464886 159.133996 
L 228.723356 160.294094 
L 229.780508 160.834135 
L 230.53723 161.219541 
L 232.034954 161.979496 
L 233.604339 162.771769 
L 235.551366 163.748967 
L 236.929774 164.436971 
L 239.495878 165.709432 
L 239.990421 165.953419 
L 241.572058 166.731049 
L 243.506813 167.676758 
L 245.029023 168.416557 
L 246.647755 169.199175 
L 247.331707 169.528587 
L 249.436901 170.537832 
L 251.188309 171.372111 
L 253.051147 172.254162 
L 254.664396 173.013637 
L 255.799027 173.545361 
L 256.817472 174.020933 
L 258.107062 174.620816 
L 260.578929 175.763509 
L 261.549524 176.209637 
L 263.184013 176.957679 
L 264.711274 177.652988 
L 266.350129 178.39519 
L 267.944469 179.113369 
L 268.535272 179.378535 
L 271.022486 180.489169 
L 272.205662 181.01429 
L 273.592662 181.627254 
L 275.914665 182.647131 
L 276.616661 182.953918 
L 277.687635 183.420583 
L 280.289612 184.547476 
L 281.469178 185.055137 
L 282.993191 185.708104 
L 283.656893 185.991438 
L 285.45185 186.754585 
L 286.812917 187.330233 
L 288.859554 188.190955 
L 289.718134 188.550296 
L 292.144551 189.560305 
L 294.066826 190.354706 
L 294.11952 190.376411 
L 295.784343 191.060213 
L 298.027435 191.975574 
L 299.738222 192.669144 
L 301.258116 193.282029 
L 301.671577 193.448219 
L 304.354332 194.521026 
L 305.752757 195.076465 
L 307.145132 195.626945 
L 309.155317 196.417203 
L 309.833693 196.682703 
L 311.610373 197.375225 
L 312.5167 197.726927 
L 314.180368 198.369769 
L 316.390822 199.218415 
L 317.43928 199.618771 
L 319.53877 200.416288 
L 320.741426 200.870634 
L 321.819038 201.276202 
L 322.890577 201.678048 
L 325.687556 202.720254 
L 325.949614 202.817407 
L 328.143408 203.627404 
L 328.143408 314.437595 
z
" clip-path="url(#p6ff419ec13)" style="fill: #808080; opacity: 0.5"/>
   </g>
   <g id="matplotlib.axis_1">
    <g id="xtick_1">
     <g id="line2d_1">
      <defs>
       <path id="m52b77b757b" d="M 0 0 
L 0 3.5 
" style="stroke: #000000; stroke-width: 0.8"/>
      </defs>
      <g>
       <use xlink:href="#m52b77b757b" x="26.930079" y="314.437595" style="stroke: #000000; stroke-width: 0.8"/>
      </g>
     </g>
    </g>
    <g id="xtick_2">
     <g id="line2d_2">
      <g>
       <use xlink:href="#m52b77b757b" x="87.172745" y="314.437595" style="stroke: #000000; stroke-width: 0.8"/>
      </g>
     </g>
     <g id="text_1">
      <!-- $\mathdefault{0.2}$ -->
      <g transform="translate(80.807705 328.356094) scale(0.1 -0.1)">
       <defs>
        <path id="CMR17-30" d="M 2688 2038 
C 2688 2430 2682 3099 2413 3613 
C 2176 4063 1798 4224 1466 4224 
C 1158 4224 768 4082 525 3620 
C 269 3137 243 2539 243 2038 
C 243 1671 250 1112 448 623 
C 723 -39 1216 -128 1466 -128 
C 1760 -128 2208 -7 2470 604 
C 2662 1048 2688 1568 2688 2038 
z
M 1466 -26 
C 1056 -26 813 328 723 816 
C 653 1196 653 1749 653 2109 
C 653 2604 653 3015 736 3407 
C 858 3954 1216 4121 1466 4121 
C 1728 4121 2067 3947 2189 3420 
C 2272 3054 2278 2623 2278 2109 
C 2278 1691 2278 1176 2202 797 
C 2067 96 1690 -26 1466 -26 
z
" transform="scale(0.015625)"/>
        <path id="CMMI12-3a" d="M 1178 307 
C 1178 492 1024 620 870 620 
C 685 620 557 467 557 313 
C 557 128 710 0 864 0 
C 1050 0 1178 153 1178 307 
z
" transform="scale(0.015625)"/>
        <path id="CMR17-32" d="M 2669 990 
L 2554 990 
C 2490 537 2438 460 2413 422 
C 2381 371 1920 371 1830 371 
L 602 371 
C 832 620 1280 1073 1824 1596 
C 2214 1966 2669 2400 2669 3033 
C 2669 3788 2067 4224 1395 4224 
C 691 4224 262 3603 262 3027 
C 262 2777 448 2745 525 2745 
C 589 2745 781 2783 781 3007 
C 781 3206 614 3264 525 3264 
C 486 3264 448 3257 422 3244 
C 544 3788 915 4057 1306 4057 
C 1862 4057 2227 3616 2227 3033 
C 2227 2477 1901 1998 1536 1583 
L 262 147 
L 262 0 
L 2515 0 
L 2669 990 
z
" transform="scale(0.015625)"/>
       </defs>
       <use xlink:href="#CMR17-30" transform="scale(0.996264)"/>
       <use xlink:href="#CMMI12-3a" transform="translate(45.690477 0) scale(0.996264)"/>
       <use xlink:href="#CMR17-32" transform="translate(72.787654 0) scale(0.996264)"/>
      </g>
     </g>
    </g>
    <g id="xtick_3">
     <g id="line2d_3">
      <g>
       <use xlink:href="#m52b77b757b" x="147.41541" y="314.437595" style="stroke: #000000; stroke-width: 0.8"/>
      </g>
     </g>
     <g id="text_2">
      <!-- $\mathdefault{0.4}$ -->
      <g transform="translate(141.050371 328.356094) scale(0.1 -0.1)">
       <defs>
        <path id="CMR17-34" d="M 2150 4147 
C 2150 4281 2144 4288 2029 4288 
L 128 1254 
L 128 1088 
L 1779 1088 
L 1779 460 
C 1779 230 1766 166 1318 166 
L 1197 166 
L 1197 0 
C 1402 12 1747 12 1965 12 
C 2182 12 2528 12 2733 0 
L 2733 166 
L 2611 166 
C 2163 166 2150 230 2150 460 
L 2150 1088 
L 2803 1088 
L 2803 1254 
L 2150 1254 
L 2150 4147 
z
M 1798 3723 
L 1798 1254 
L 256 1254 
L 1798 3723 
z
" transform="scale(0.015625)"/>
       </defs>
       <use xlink:href="#CMR17-30" transform="scale(0.996264)"/>
       <use xlink:href="#CMMI12-3a" transform="translate(45.690477 0) scale(0.996264)"/>
       <use xlink:href="#CMR17-34" transform="translate(72.787654 0) scale(0.996264)"/>
      </g>
     </g>
    </g>
    <g id="xtick_4">
     <g id="line2d_4">
      <g>
       <use xlink:href="#m52b77b757b" x="207.658076" y="314.437595" style="stroke: #000000; stroke-width: 0.8"/>
      </g>
     </g>
     <g id="text_3">
      <!-- $\mathdefault{0.6}$ -->
      <g transform="translate(201.293037 328.356094) scale(0.1 -0.1)">
       <defs>
        <path id="CMR17-36" d="M 678 2198 
C 678 3712 1395 4076 1811 4076 
C 1946 4076 2272 4049 2400 3782 
C 2298 3782 2106 3782 2106 3558 
C 2106 3385 2246 3328 2336 3328 
C 2394 3328 2566 3353 2566 3571 
C 2566 3987 2246 4224 1805 4224 
C 1043 4224 243 3411 243 2011 
C 243 257 966 -128 1478 -128 
C 2099 -128 2688 431 2688 1295 
C 2688 2101 2170 2688 1517 2688 
C 1126 2688 838 2430 678 1979 
L 678 2198 
z
M 1478 25 
C 691 25 691 1212 691 1450 
C 691 1914 909 2585 1504 2585 
C 1613 2585 1926 2585 2138 2140 
C 2253 1889 2253 1624 2253 1302 
C 2253 954 2253 696 2118 438 
C 1978 173 1773 25 1478 25 
z
" transform="scale(0.015625)"/>
       </defs>
       <use xlink:href="#CMR17-30" transform="scale(0.996264)"/>
       <use xlink:href="#CMMI12-3a" transform="translate(45.690477 0) scale(0.996264)"/>
       <use xlink:href="#CMR17-36" transform="translate(72.787654 0) scale(0.996264)"/>
      </g>
     </g>
    </g>
    <g id="xtick_5">
     <g id="line2d_5">
      <g>
       <use xlink:href="#m52b77b757b" x="267.900742" y="314.437595" style="stroke: #000000; stroke-width: 0.8"/>
      </g>
     </g>
     <g id="text_4">
      <!-- $\mathdefault{0.8}$ -->
      <g transform="translate(261.535702 328.356094) scale(0.1 -0.1)">
       <defs>
        <path id="CMR17-38" d="M 1741 2289 
C 2144 2494 2554 2803 2554 3298 
C 2554 3884 1990 4224 1472 4224 
C 890 4224 378 3800 378 3215 
C 378 3054 416 2777 666 2533 
C 730 2469 998 2276 1171 2154 
C 883 2006 211 1652 211 945 
C 211 282 838 -128 1459 -128 
C 2144 -128 2720 366 2720 1022 
C 2720 1607 2330 1877 2074 2051 
L 1741 2289 
z
M 902 2855 
C 851 2887 595 3086 595 3388 
C 595 3781 998 4076 1459 4076 
C 1965 4076 2336 3716 2336 3298 
C 2336 2700 1670 2359 1638 2359 
C 1632 2359 1626 2359 1574 2398 
L 902 2855 
z
M 2080 1536 
C 2176 1466 2483 1253 2483 861 
C 2483 385 2010 25 1472 25 
C 890 25 448 443 448 951 
C 448 1459 838 1884 1280 2083 
L 2080 1536 
z
" transform="scale(0.015625)"/>
       </defs>
       <use xlink:href="#CMR17-30" transform="scale(0.996264)"/>
       <use xlink:href="#CMMI12-3a" transform="translate(45.690477 0) scale(0.996264)"/>
       <use xlink:href="#CMR17-38" transform="translate(72.787654 0) scale(0.996264)"/>
      </g>
     </g>
    </g>
    <g id="xtick_6">
     <g id="line2d_6">
      <g>
       <use xlink:href="#m52b77b757b" x="328.143408" y="314.437595" style="stroke: #000000; stroke-width: 0.8"/>
      </g>
     </g>
     <g id="text_5">
      <!-- $\mathdefault{1.0}$ -->
      <g transform="translate(321.778368 328.356094) scale(0.1 -0.1)">
       <defs>
        <path id="CMR17-31" d="M 1702 4083 
C 1702 4217 1696 4224 1606 4224 
C 1357 3927 979 3833 621 3820 
C 602 3820 570 3820 563 3808 
C 557 3795 557 3782 557 3648 
C 755 3648 1088 3686 1344 3839 
L 1344 467 
C 1344 243 1331 166 781 166 
L 589 166 
L 589 0 
C 896 6 1216 12 1523 12 
C 1830 12 2150 6 2458 0 
L 2458 166 
L 2266 166 
C 1715 166 1702 236 1702 467 
L 1702 4083 
z
" transform="scale(0.015625)"/>
       </defs>
       <use xlink:href="#CMR17-31" transform="scale(0.996264)"/>
       <use xlink:href="#CMMI12-3a" transform="translate(45.690477 0) scale(0.996264)"/>
       <use xlink:href="#CMR17-30" transform="translate(72.787654 0) scale(0.996264)"/>
      </g>
     </g>
    </g>
    <g id="xtick_7">
     <g id="line2d_7">
      <defs>
       <path id="m4427123a00" d="M 0 0 
L 0 2 
" style="stroke: #000000; stroke-width: 0.6"/>
      </defs>
      <g>
       <use xlink:href="#m4427123a00" x="41.990745" y="314.437595" style="stroke: #000000; stroke-width: 0.6"/>
      </g>
     </g>
    </g>
    <g id="xtick_8">
     <g id="line2d_8">
      <g>
       <use xlink:href="#m4427123a00" x="57.051412" y="314.437595" style="stroke: #000000; stroke-width: 0.6"/>
      </g>
     </g>
    </g>
    <g id="xtick_9">
     <g id="line2d_9">
      <g>
       <use xlink:href="#m4427123a00" x="72.112078" y="314.437595" style="stroke: #000000; stroke-width: 0.6"/>
      </g>
     </g>
    </g>
    <g id="xtick_10">
     <g id="line2d_10">
      <g>
       <use xlink:href="#m4427123a00" x="102.233411" y="314.437595" style="stroke: #000000; stroke-width: 0.6"/>
      </g>
     </g>
    </g>
    <g id="xtick_11">
     <g id="line2d_11">
      <g>
       <use xlink:href="#m4427123a00" x="117.294078" y="314.437595" style="stroke: #000000; stroke-width: 0.6"/>
      </g>
     </g>
    </g>
    <g id="xtick_12">
     <g id="line2d_12">
      <g>
       <use xlink:href="#m4427123a00" x="132.354744" y="314.437595" style="stroke: #000000; stroke-width: 0.6"/>
      </g>
     </g>
    </g>
    <g id="xtick_13">
     <g id="line2d_13">
      <g>
       <use xlink:href="#m4427123a00" x="162.476077" y="314.437595" style="stroke: #000000; stroke-width: 0.6"/>
      </g>
     </g>
    </g>
    <g id="xtick_14">
     <g id="line2d_14">
      <g>
       <use xlink:href="#m4427123a00" x="177.536743" y="314.437595" style="stroke: #000000; stroke-width: 0.6"/>
      </g>
     </g>
    </g>
    <g id="xtick_15">
     <g id="line2d_15">
      <g>
       <use xlink:href="#m4427123a00" x="192.59741" y="314.437595" style="stroke: #000000; stroke-width: 0.6"/>
      </g>
     </g>
    </g>
    <g id="xtick_16">
     <g id="line2d_16">
      <g>
       <use xlink:href="#m4427123a00" x="222.718743" y="314.437595" style="stroke: #000000; stroke-width: 0.6"/>
      </g>
     </g>
    </g>
    <g id="xtick_17">
     <g id="line2d_17">
      <g>
       <use xlink:href="#m4427123a00" x="237.779409" y="314.437595" style="stroke: #000000; stroke-width: 0.6"/>
      </g>
     </g>
    </g>
    <g id="xtick_18">
     <g id="line2d_18">
      <g>
       <use xlink:href="#m4427123a00" x="252.840075" y="314.437595" style="stroke: #000000; stroke-width: 0.6"/>
      </g>
     </g>
    </g>
    <g id="xtick_19">
     <g id="line2d_19">
      <g>
       <use xlink:href="#m4427123a00" x="282.961408" y="314.437595" style="stroke: #000000; stroke-width: 0.6"/>
      </g>
     </g>
    </g>
    <g id="xtick_20">
     <g id="line2d_20">
      <g>
       <use xlink:href="#m4427123a00" x="298.022075" y="314.437595" style="stroke: #000000; stroke-width: 0.6"/>
      </g>
     </g>
    </g>
    <g id="xtick_21">
     <g id="line2d_21">
      <g>
       <use xlink:href="#m4427123a00" x="313.082741" y="314.437595" style="stroke: #000000; stroke-width: 0.6"/>
      </g>
     </g>
    </g>
   </g>
   <g id="matplotlib.axis_2">
    <g id="ytick_1">
     <g id="line2d_22">
      <defs>
       <path id="m5eeac84826" d="M 0 0 
L -3.5 0 
" style="stroke: #000000; stroke-width: 0.8"/>
      </defs>
      <g>
       <use xlink:href="#m5eeac84826" x="26.930079" y="314.437595" style="stroke: #000000; stroke-width: 0.8"/>
      </g>
     </g>
    </g>
    <g id="ytick_2">
     <g id="line2d_23">
      <g>
       <use xlink:href="#m5eeac84826" x="26.930079" y="254.194929" style="stroke: #000000; stroke-width: 0.8"/>
      </g>
     </g>
     <g id="text_6">
      <!-- $\mathdefault{0.2}$ -->
      <g transform="translate(7.2 257.654179) scale(0.1 -0.1)">
       <use xlink:href="#CMR17-30" transform="scale(0.996264)"/>
       <use xlink:href="#CMMI12-3a" transform="translate(45.690477 0) scale(0.996264)"/>
       <use xlink:href="#CMR17-32" transform="translate(72.787654 0) scale(0.996264)"/>
      </g>
     </g>
    </g>
    <g id="ytick_3">
     <g id="line2d_24">
      <g>
       <use xlink:href="#m5eeac84826" x="26.930079" y="193.952264" style="stroke: #000000; stroke-width: 0.8"/>
      </g>
     </g>
     <g id="text_7">
      <!-- $\mathdefault{0.4}$ -->
      <g transform="translate(7.2 197.411513) scale(0.1 -0.1)">
       <use xlink:href="#CMR17-30" transform="scale(0.996264)"/>
       <use xlink:href="#CMMI12-3a" transform="translate(45.690477 0) scale(0.996264)"/>
       <use xlink:href="#CMR17-34" transform="translate(72.787654 0) scale(0.996264)"/>
      </g>
     </g>
    </g>
    <g id="ytick_4">
     <g id="line2d_25">
      <g>
       <use xlink:href="#m5eeac84826" x="26.930079" y="133.709598" style="stroke: #000000; stroke-width: 0.8"/>
      </g>
     </g>
     <g id="text_8">
      <!-- $\mathdefault{0.6}$ -->
      <g transform="translate(7.2 137.168847) scale(0.1 -0.1)">
       <use xlink:href="#CMR17-30" transform="scale(0.996264)"/>
       <use xlink:href="#CMMI12-3a" transform="translate(45.690477 0) scale(0.996264)"/>
       <use xlink:href="#CMR17-36" transform="translate(72.787654 0) scale(0.996264)"/>
      </g>
     </g>
    </g>
    <g id="ytick_5">
     <g id="line2d_26">
      <g>
       <use xlink:href="#m5eeac84826" x="26.930079" y="73.466932" style="stroke: #000000; stroke-width: 0.8"/>
      </g>
     </g>
     <g id="text_9">
      <!-- $\mathdefault{0.8}$ -->
      <g transform="translate(7.2 76.926181) scale(0.1 -0.1)">
       <use xlink:href="#CMR17-30" transform="scale(0.996264)"/>
       <use xlink:href="#CMMI12-3a" transform="translate(45.690477 0) scale(0.996264)"/>
       <use xlink:href="#CMR17-38" transform="translate(72.787654 0) scale(0.996264)"/>
      </g>
     </g>
    </g>
    <g id="ytick_6">
     <g id="line2d_27">
      <g>
       <use xlink:href="#m5eeac84826" x="26.930079" y="13.224267" style="stroke: #000000; stroke-width: 0.8"/>
      </g>
     </g>
     <g id="text_10">
      <!-- $\mathdefault{1.0}$ -->
      <g transform="translate(7.2 16.683516) scale(0.1 -0.1)">
       <use xlink:href="#CMR17-31" transform="scale(0.996264)"/>
       <use xlink:href="#CMMI12-3a" transform="translate(45.690477 0) scale(0.996264)"/>
       <use xlink:href="#CMR17-30" transform="translate(72.787654 0) scale(0.996264)"/>
      </g>
     </g>
    </g>
    <g id="ytick_7">
     <g id="line2d_28">
      <defs>
       <path id="m78a2b96322" d="M 0 0 
L -2 0 
" style="stroke: #000000; stroke-width: 0.6"/>
      </defs>
      <g>
       <use xlink:href="#m78a2b96322" x="26.930079" y="299.376929" style="stroke: #000000; stroke-width: 0.6"/>
      </g>
     </g>
    </g>
    <g id="ytick_8">
     <g id="line2d_29">
      <g>
       <use xlink:href="#m78a2b96322" x="26.930079" y="284.316262" style="stroke: #000000; stroke-width: 0.6"/>
      </g>
     </g>
    </g>
    <g id="ytick_9">
     <g id="line2d_30">
      <g>
       <use xlink:href="#m78a2b96322" x="26.930079" y="269.255596" style="stroke: #000000; stroke-width: 0.6"/>
      </g>
     </g>
    </g>
    <g id="ytick_10">
     <g id="line2d_31">
      <g>
       <use xlink:href="#m78a2b96322" x="26.930079" y="239.134263" style="stroke: #000000; stroke-width: 0.6"/>
      </g>
     </g>
    </g>
    <g id="ytick_11">
     <g id="line2d_32">
      <g>
       <use xlink:href="#m78a2b96322" x="26.930079" y="224.073597" style="stroke: #000000; stroke-width: 0.6"/>
      </g>
     </g>
    </g>
    <g id="ytick_12">
     <g id="line2d_33">
      <g>
       <use xlink:href="#m78a2b96322" x="26.930079" y="209.01293" style="stroke: #000000; stroke-width: 0.6"/>
      </g>
     </g>
    </g>
    <g id="ytick_13">
     <g id="line2d_34">
      <g>
       <use xlink:href="#m78a2b96322" x="26.930079" y="178.891597" style="stroke: #000000; stroke-width: 0.6"/>
      </g>
     </g>
    </g>
    <g id="ytick_14">
     <g id="line2d_35">
      <g>
       <use xlink:href="#m78a2b96322" x="26.930079" y="163.830931" style="stroke: #000000; stroke-width: 0.6"/>
      </g>
     </g>
    </g>
    <g id="ytick_15">
     <g id="line2d_36">
      <g>
       <use xlink:href="#m78a2b96322" x="26.930079" y="148.770264" style="stroke: #000000; stroke-width: 0.6"/>
      </g>
     </g>
    </g>
    <g id="ytick_16">
     <g id="line2d_37">
      <g>
       <use xlink:href="#m78a2b96322" x="26.930079" y="118.648932" style="stroke: #000000; stroke-width: 0.6"/>
      </g>
     </g>
    </g>
    <g id="ytick_17">
     <g id="line2d_38">
      <g>
       <use xlink:href="#m78a2b96322" x="26.930079" y="103.588265" style="stroke: #000000; stroke-width: 0.6"/>
      </g>
     </g>
    </g>
    <g id="ytick_18">
     <g id="line2d_39">
      <g>
       <use xlink:href="#m78a2b96322" x="26.930079" y="88.527599" style="stroke: #000000; stroke-width: 0.6"/>
      </g>
     </g>
    </g>
    <g id="ytick_19">
     <g id="line2d_40">
      <g>
       <use xlink:href="#m78a2b96322" x="26.930079" y="58.406266" style="stroke: #000000; stroke-width: 0.6"/>
      </g>
     </g>
    </g>
    <g id="ytick_20">
     <g id="line2d_41">
      <g>
       <use xlink:href="#m78a2b96322" x="26.930079" y="43.345599" style="stroke: #000000; stroke-width: 0.6"/>
      </g>
     </g>
    </g>
    <g id="ytick_21">
     <g id="line2d_42">
      <g>
       <use xlink:href="#m78a2b96322" x="26.930079" y="28.284933" style="stroke: #000000; stroke-width: 0.6"/>
      </g>
     </g>
    </g>
   </g>
   <g id="line2d_43">
    <path d="M 26.930079 13.224267 
L 35.70442 21.872042 
L 45.612731 31.339322 
L 55.087568 40.10574 
L 65.536027 49.458584 
L 75.132959 57.767982 
L 85.904869 66.784744 
L 96.452242 75.306555 
L 107.792007 84.141758 
L 118.866676 92.455247 
L 130.319182 100.736856 
L 141.580136 108.578627 
L 153.006096 116.241248 
L 163.618816 123.102759 
L 173.175362 129.077921 
L 184.085792 135.671804 
L 196.460115 142.866981 
L 208.980377 149.852319 
L 220.227836 155.88469 
L 233.604339 162.771769 
L 246.647755 169.199175 
L 258.107062 174.620816 
L 271.022486 180.489169 
L 283.656893 185.991438 
L 295.784343 191.060213 
L 309.833693 196.682703 
L 322.890577 201.678048 
L 328.143408 203.627404 
L 328.143408 203.627404 
" clip-path="url(#p6ff419ec13)" style="fill: none; stroke: #ff0000; stroke-linecap: square"/>
   </g>
   <g id="patch_12">
    <path d="M 26.930079 320.461862 
L 26.930079 7.2 
" style="fill: none; stroke: #000000; stroke-width: 0.8; stroke-linejoin: miter; stroke-linecap: square"/>
   </g>
   <g id="patch_13">
    <path d="M 20.905812 314.437595 
L 334.167674 314.437595 
" style="fill: none; stroke: #000000; stroke-width: 0.8; stroke-linejoin: miter; stroke-linecap: square"/>
   </g>
  </g>
 </g>
 <defs>
  <clipPath id="p6ff419ec13">
   <rect x="20.905812" y="7.2" width="313.261862" height="313.261862"/>
  </clipPath>
 </defs>
</svg>
