<?xml version="1.0" encoding="utf-8" standalone="no"?>
<!DOCTYPE svg PUBLIC "-//W3C//DTD SVG 1.1//EN"
  "http://www.w3.org/Graphics/SVG/1.1/DTD/svg11.dtd">
<svg xmlns:xlink="http://www.w3.org/1999/xlink" width="452.05977pt" height="338.116952pt" viewBox="0 0 452.05977 338.116952" xmlns="http://www.w3.org/2000/svg" version="1.1">
 <metadata>
  <rdf:RDF xmlns:dc="http://purl.org/dc/elements/1.1/" xmlns:cc="http://creativecommons.org/ns#" xmlns:rdf="http://www.w3.org/1999/02/22-rdf-syntax-ns#">
   <cc:Work>
    <dc:type rdf:resource="http://purl.org/dc/dcmitype/StillImage"/>
    <dc:date>2023-10-04T16:45:56.056096</dc:date>
    <dc:format>image/svg+xml</dc:format>
    <dc:creator>
     <cc:Agent>
      <dc:title>Matplotlib v3.8.0, https://matplotlib.org/</dc:title>
     </cc:Agent>
    </dc:creator>
   </cc:Work>
  </rdf:RDF>
 </metadata>
 <defs>
  <style type="text/css">*{stroke-linejoin: round; stroke-linecap: butt}</style>
 </defs>
 <g id="figure_1">
  <g id="patch_1">
   <path d="M 0 338.116952 
L 452.05977 338.116952 
L 452.05977 0 
L 0 0 
L 0 338.116952 
z
" style="fill: none"/>
  </g>
  <g id="axes_1">
   <g id="patch_2">
    <path d="M 7.647784 330.916952 
L 444.85977 330.916952 
L 444.85977 7.2 
L 7.647784 7.2 
L 7.647784 330.916952 
z
" style="fill: none"/>
   </g>
   <g id="matplotlib.axis_1">
    <g id="xtick_1">
     <g id="line2d_1">
      <defs>
       <path id="mbe6fc53ac1" d="M 0 0 
L 0 3.5 
" style="stroke: #000000; stroke-width: 0.8"/>
      </defs>
      <g>
       <use xlink:href="#mbe6fc53ac1" x="16.055707" y="169.060703" style="stroke: #000000; stroke-width: 0.8"/>
      </g>
     </g>
     <g id="text_1">
      <!-- $\mathdefault{−10}$ -->
      <g transform="translate(7.2 182.979201) scale(0.1 -0.1)">
       <defs>
        <path id="CMSY10-0" d="M 4218 1472 
C 4326 1472 4442 1472 4442 1600 
C 4442 1728 4326 1728 4218 1728 
L 755 1728 
C 646 1728 531 1728 531 1600 
C 531 1472 646 1472 755 1472 
L 4218 1472 
z
" transform="scale(0.015625)"/>
        <path id="CMR17-31" d="M 1702 4083 
C 1702 4217 1696 4224 1606 4224 
C 1357 3927 979 3833 621 3820 
C 602 3820 570 3820 563 3808 
C 557 3795 557 3782 557 3648 
C 755 3648 1088 3686 1344 3839 
L 1344 467 
C 1344 243 1331 166 781 166 
L 589 166 
L 589 0 
C 896 6 1216 12 1523 12 
C 1830 12 2150 6 2458 0 
L 2458 166 
L 2266 166 
C 1715 166 1702 236 1702 467 
L 1702 4083 
z
" transform="scale(0.015625)"/>
        <path id="CMR17-30" d="M 2688 2038 
C 2688 2430 2682 3099 2413 3613 
C 2176 4063 1798 4224 1466 4224 
C 1158 4224 768 4082 525 3620 
C 269 3137 243 2539 243 2038 
C 243 1671 250 1112 448 623 
C 723 -39 1216 -128 1466 -128 
C 1760 -128 2208 -7 2470 604 
C 2662 1048 2688 1568 2688 2038 
z
M 1466 -26 
C 1056 -26 813 328 723 816 
C 653 1196 653 1749 653 2109 
C 653 2604 653 3015 736 3407 
C 858 3954 1216 4121 1466 4121 
C 1728 4121 2067 3947 2189 3420 
C 2272 3054 2278 2623 2278 2109 
C 2278 1691 2278 1176 2202 797 
C 2067 96 1690 -26 1466 -26 
z
" transform="scale(0.015625)"/>
       </defs>
       <use xlink:href="#CMSY10-0" transform="scale(0.996264)"/>
       <use xlink:href="#CMR17-31" transform="translate(77.487468 0) scale(0.996264)"/>
       <use xlink:href="#CMR17-30" transform="translate(123.177945 0) scale(0.996264)"/>
      </g>
     </g>
    </g>
    <g id="xtick_2">
     <g id="line2d_2">
      <g>
       <use xlink:href="#mbe6fc53ac1" x="121.154742" y="169.060703" style="stroke: #000000; stroke-width: 0.8"/>
      </g>
     </g>
     <g id="text_2">
      <!-- $\mathdefault{−5}$ -->
      <g transform="translate(114.789703 182.979201) scale(0.1 -0.1)">
       <defs>
        <path id="CMR17-35" d="M 730 3750 
C 794 3724 1056 3641 1325 3641 
C 1920 3641 2246 3961 2432 4140 
C 2432 4191 2432 4224 2394 4224 
C 2387 4224 2374 4224 2323 4198 
C 2099 4102 1837 4032 1517 4032 
C 1325 4032 1037 4055 723 4191 
C 653 4224 640 4224 634 4224 
C 602 4224 595 4217 595 4090 
L 595 2231 
C 595 2113 595 2080 659 2080 
C 691 2080 704 2093 736 2139 
C 941 2435 1222 2560 1542 2560 
C 1766 2560 2246 2415 2246 1293 
C 2246 1087 2246 716 2054 422 
C 1894 159 1645 25 1370 25 
C 947 25 518 319 403 812 
C 429 806 480 793 506 793 
C 589 793 749 838 749 1036 
C 749 1209 627 1280 506 1280 
C 358 1280 262 1190 262 1011 
C 262 454 704 -128 1382 -128 
C 2042 -128 2669 441 2669 1267 
C 2669 2054 2170 2662 1549 2662 
C 1222 2662 947 2540 730 2304 
L 730 3750 
z
" transform="scale(0.015625)"/>
       </defs>
       <use xlink:href="#CMSY10-0" transform="scale(0.996264)"/>
       <use xlink:href="#CMR17-35" transform="translate(77.487468 0) scale(0.996264)"/>
      </g>
     </g>
    </g>
    <g id="xtick_3">
     <g id="line2d_3">
      <g>
       <use xlink:href="#mbe6fc53ac1" x="226.253777" y="169.060703" style="stroke: #000000; stroke-width: 0.8"/>
      </g>
     </g>
    </g>
    <g id="xtick_4">
     <g id="line2d_4">
      <g>
       <use xlink:href="#mbe6fc53ac1" x="331.352812" y="169.060703" style="stroke: #000000; stroke-width: 0.8"/>
      </g>
     </g>
     <g id="text_3">
      <!-- $\mathdefault{5}$ -->
      <g transform="translate(328.862144 182.979201) scale(0.1 -0.1)">
       <use xlink:href="#CMR17-35" transform="scale(0.996264)"/>
      </g>
     </g>
    </g>
    <g id="xtick_5">
     <g id="line2d_5">
      <g>
       <use xlink:href="#mbe6fc53ac1" x="436.451847" y="169.060703" style="stroke: #000000; stroke-width: 0.8"/>
      </g>
     </g>
     <g id="text_4">
      <!-- $\mathdefault{10}$ -->
      <g transform="translate(431.470511 182.979201) scale(0.1 -0.1)">
       <use xlink:href="#CMR17-31" transform="scale(0.996264)"/>
       <use xlink:href="#CMR17-30" transform="translate(45.690477 0) scale(0.996264)"/>
      </g>
     </g>
    </g>
    <g id="xtick_6">
     <g id="line2d_6">
      <defs>
       <path id="mde6736433c" d="M 0 0 
L 0 2 
" style="stroke: #000000; stroke-width: 0.6"/>
      </defs>
      <g>
       <use xlink:href="#mde6736433c" x="37.075514" y="169.060703" style="stroke: #000000; stroke-width: 0.6"/>
      </g>
     </g>
    </g>
    <g id="xtick_7">
     <g id="line2d_7">
      <g>
       <use xlink:href="#mde6736433c" x="58.095321" y="169.060703" style="stroke: #000000; stroke-width: 0.6"/>
      </g>
     </g>
    </g>
    <g id="xtick_8">
     <g id="line2d_8">
      <g>
       <use xlink:href="#mde6736433c" x="79.115128" y="169.060703" style="stroke: #000000; stroke-width: 0.6"/>
      </g>
     </g>
    </g>
    <g id="xtick_9">
     <g id="line2d_9">
      <g>
       <use xlink:href="#mde6736433c" x="100.134935" y="169.060703" style="stroke: #000000; stroke-width: 0.6"/>
      </g>
     </g>
    </g>
    <g id="xtick_10">
     <g id="line2d_10">
      <g>
       <use xlink:href="#mde6736433c" x="142.174549" y="169.060703" style="stroke: #000000; stroke-width: 0.6"/>
      </g>
     </g>
    </g>
    <g id="xtick_11">
     <g id="line2d_11">
      <g>
       <use xlink:href="#mde6736433c" x="163.194356" y="169.060703" style="stroke: #000000; stroke-width: 0.6"/>
      </g>
     </g>
    </g>
    <g id="xtick_12">
     <g id="line2d_12">
      <g>
       <use xlink:href="#mde6736433c" x="184.214163" y="169.060703" style="stroke: #000000; stroke-width: 0.6"/>
      </g>
     </g>
    </g>
    <g id="xtick_13">
     <g id="line2d_13">
      <g>
       <use xlink:href="#mde6736433c" x="205.23397" y="169.060703" style="stroke: #000000; stroke-width: 0.6"/>
      </g>
     </g>
    </g>
    <g id="xtick_14">
     <g id="line2d_14">
      <g>
       <use xlink:href="#mde6736433c" x="247.273584" y="169.060703" style="stroke: #000000; stroke-width: 0.6"/>
      </g>
     </g>
    </g>
    <g id="xtick_15">
     <g id="line2d_15">
      <g>
       <use xlink:href="#mde6736433c" x="268.293391" y="169.060703" style="stroke: #000000; stroke-width: 0.6"/>
      </g>
     </g>
    </g>
    <g id="xtick_16">
     <g id="line2d_16">
      <g>
       <use xlink:href="#mde6736433c" x="289.313198" y="169.060703" style="stroke: #000000; stroke-width: 0.6"/>
      </g>
     </g>
    </g>
    <g id="xtick_17">
     <g id="line2d_17">
      <g>
       <use xlink:href="#mde6736433c" x="310.333005" y="169.060703" style="stroke: #000000; stroke-width: 0.6"/>
      </g>
     </g>
    </g>
    <g id="xtick_18">
     <g id="line2d_18">
      <g>
       <use xlink:href="#mde6736433c" x="352.372619" y="169.060703" style="stroke: #000000; stroke-width: 0.6"/>
      </g>
     </g>
    </g>
    <g id="xtick_19">
     <g id="line2d_19">
      <g>
       <use xlink:href="#mde6736433c" x="373.392426" y="169.060703" style="stroke: #000000; stroke-width: 0.6"/>
      </g>
     </g>
    </g>
    <g id="xtick_20">
     <g id="line2d_20">
      <g>
       <use xlink:href="#mde6736433c" x="394.412233" y="169.060703" style="stroke: #000000; stroke-width: 0.6"/>
      </g>
     </g>
    </g>
    <g id="xtick_21">
     <g id="line2d_21">
      <g>
       <use xlink:href="#mde6736433c" x="415.43204" y="169.060703" style="stroke: #000000; stroke-width: 0.6"/>
      </g>
     </g>
    </g>
   </g>
   <g id="matplotlib.axis_2">
    <g id="ytick_1">
     <g id="line2d_22">
      <defs>
       <path id="m9de3282998" d="M 0 0 
L -3.5 0 
" style="stroke: #000000; stroke-width: 0.8"/>
      </defs>
      <g>
       <use xlink:href="#m9de3282998" x="226.253777" y="324.696685" style="stroke: #000000; stroke-width: 0.8"/>
      </g>
     </g>
     <g id="text_5">
      <!-- $\mathdefault{−1.0}$ -->
      <g transform="translate(198.774954 328.155935) scale(0.1 -0.1)">
       <defs>
        <path id="CMMI12-3a" d="M 1178 307 
C 1178 492 1024 620 870 620 
C 685 620 557 467 557 313 
C 557 128 710 0 864 0 
C 1050 0 1178 153 1178 307 
z
" transform="scale(0.015625)"/>
       </defs>
       <use xlink:href="#CMSY10-0" transform="scale(0.996264)"/>
       <use xlink:href="#CMR17-31" transform="translate(77.487468 0) scale(0.996264)"/>
       <use xlink:href="#CMMI12-3a" transform="translate(123.177945 0) scale(0.996264)"/>
       <use xlink:href="#CMR17-30" transform="translate(150.275122 0) scale(0.996264)"/>
      </g>
     </g>
    </g>
    <g id="ytick_2">
     <g id="line2d_23">
      <g>
       <use xlink:href="#m9de3282998" x="226.253777" y="246.878694" style="stroke: #000000; stroke-width: 0.8"/>
      </g>
     </g>
     <g id="text_6">
      <!-- $\mathdefault{−0.5}$ -->
      <g transform="translate(198.774954 250.337943) scale(0.1 -0.1)">
       <use xlink:href="#CMSY10-0" transform="scale(0.996264)"/>
       <use xlink:href="#CMR17-30" transform="translate(77.487468 0) scale(0.996264)"/>
       <use xlink:href="#CMMI12-3a" transform="translate(123.177945 0) scale(0.996264)"/>
       <use xlink:href="#CMR17-35" transform="translate(150.275122 0) scale(0.996264)"/>
      </g>
     </g>
    </g>
    <g id="ytick_3">
     <g id="line2d_24">
      <g>
       <use xlink:href="#m9de3282998" x="226.253777" y="169.060703" style="stroke: #000000; stroke-width: 0.8"/>
      </g>
     </g>
    </g>
    <g id="ytick_4">
     <g id="line2d_25">
      <g>
       <use xlink:href="#m9de3282998" x="226.253777" y="91.242711" style="stroke: #000000; stroke-width: 0.8"/>
      </g>
     </g>
     <g id="text_7">
      <!-- $\mathdefault{0.5}$ -->
      <g transform="translate(206.523698 94.70196) scale(0.1 -0.1)">
       <use xlink:href="#CMR17-30" transform="scale(0.996264)"/>
       <use xlink:href="#CMMI12-3a" transform="translate(45.690477 0) scale(0.996264)"/>
       <use xlink:href="#CMR17-35" transform="translate(72.787654 0) scale(0.996264)"/>
      </g>
     </g>
    </g>
    <g id="ytick_5">
     <g id="line2d_26">
      <g>
       <use xlink:href="#m9de3282998" x="226.253777" y="13.42472" style="stroke: #000000; stroke-width: 0.8"/>
      </g>
     </g>
     <g id="text_8">
      <!-- $\mathdefault{1.0}$ -->
      <g transform="translate(206.523698 16.883969) scale(0.1 -0.1)">
       <use xlink:href="#CMR17-31" transform="scale(0.996264)"/>
       <use xlink:href="#CMMI12-3a" transform="translate(45.690477 0) scale(0.996264)"/>
       <use xlink:href="#CMR17-30" transform="translate(72.787654 0) scale(0.996264)"/>
      </g>
     </g>
    </g>
    <g id="ytick_6">
     <g id="line2d_27">
      <defs>
       <path id="m38b201c3a8" d="M 0 0 
L -2 0 
" style="stroke: #000000; stroke-width: 0.6"/>
      </defs>
      <g>
       <use xlink:href="#m38b201c3a8" x="226.253777" y="309.133087" style="stroke: #000000; stroke-width: 0.6"/>
      </g>
     </g>
    </g>
    <g id="ytick_7">
     <g id="line2d_28">
      <g>
       <use xlink:href="#m38b201c3a8" x="226.253777" y="293.569489" style="stroke: #000000; stroke-width: 0.6"/>
      </g>
     </g>
    </g>
    <g id="ytick_8">
     <g id="line2d_29">
      <g>
       <use xlink:href="#m38b201c3a8" x="226.253777" y="278.005891" style="stroke: #000000; stroke-width: 0.6"/>
      </g>
     </g>
    </g>
    <g id="ytick_9">
     <g id="line2d_30">
      <g>
       <use xlink:href="#m38b201c3a8" x="226.253777" y="262.442292" style="stroke: #000000; stroke-width: 0.6"/>
      </g>
     </g>
    </g>
    <g id="ytick_10">
     <g id="line2d_31">
      <g>
       <use xlink:href="#m38b201c3a8" x="226.253777" y="231.315096" style="stroke: #000000; stroke-width: 0.6"/>
      </g>
     </g>
    </g>
    <g id="ytick_11">
     <g id="line2d_32">
      <g>
       <use xlink:href="#m38b201c3a8" x="226.253777" y="215.751497" style="stroke: #000000; stroke-width: 0.6"/>
      </g>
     </g>
    </g>
    <g id="ytick_12">
     <g id="line2d_33">
      <g>
       <use xlink:href="#m38b201c3a8" x="226.253777" y="200.187899" style="stroke: #000000; stroke-width: 0.6"/>
      </g>
     </g>
    </g>
    <g id="ytick_13">
     <g id="line2d_34">
      <g>
       <use xlink:href="#m38b201c3a8" x="226.253777" y="184.624301" style="stroke: #000000; stroke-width: 0.6"/>
      </g>
     </g>
    </g>
    <g id="ytick_14">
     <g id="line2d_35">
      <g>
       <use xlink:href="#m38b201c3a8" x="226.253777" y="153.497104" style="stroke: #000000; stroke-width: 0.6"/>
      </g>
     </g>
    </g>
    <g id="ytick_15">
     <g id="line2d_36">
      <g>
       <use xlink:href="#m38b201c3a8" x="226.253777" y="137.933506" style="stroke: #000000; stroke-width: 0.6"/>
      </g>
     </g>
    </g>
    <g id="ytick_16">
     <g id="line2d_37">
      <g>
       <use xlink:href="#m38b201c3a8" x="226.253777" y="122.369908" style="stroke: #000000; stroke-width: 0.6"/>
      </g>
     </g>
    </g>
    <g id="ytick_17">
     <g id="line2d_38">
      <g>
       <use xlink:href="#m38b201c3a8" x="226.253777" y="106.80631" style="stroke: #000000; stroke-width: 0.6"/>
      </g>
     </g>
    </g>
    <g id="ytick_18">
     <g id="line2d_39">
      <g>
       <use xlink:href="#m38b201c3a8" x="226.253777" y="75.679113" style="stroke: #000000; stroke-width: 0.6"/>
      </g>
     </g>
    </g>
    <g id="ytick_19">
     <g id="line2d_40">
      <g>
       <use xlink:href="#m38b201c3a8" x="226.253777" y="60.115515" style="stroke: #000000; stroke-width: 0.6"/>
      </g>
     </g>
    </g>
    <g id="ytick_20">
     <g id="line2d_41">
      <g>
       <use xlink:href="#m38b201c3a8" x="226.253777" y="44.551916" style="stroke: #000000; stroke-width: 0.6"/>
      </g>
     </g>
    </g>
    <g id="ytick_21">
     <g id="line2d_42">
      <g>
       <use xlink:href="#m38b201c3a8" x="226.253777" y="28.988318" style="stroke: #000000; stroke-width: 0.6"/>
      </g>
     </g>
    </g>
   </g>
   <g id="line2d_43">
    <path d="M 16.055707 84.391442 
L 19.20238 104.814793 
L 22.120832 125.051821 
L 26.343108 155.722362 
L 33.430633 207.77308 
L 37.440152 235.65133 
L 40.890692 257.744571 
L 44.010206 275.68116 
L 46.780843 289.657528 
L 48.624264 297.811006 
L 50.467684 304.97488 
L 51.594407 308.842326 
L 53.09572 313.369828 
L 54.085685 315.953951 
L 55.07565 318.212309 
L 56.065615 320.139895 
L 57.05558 321.732432 
L 57.772716 322.674776 
L 59.456396 324.183041 
L 60.680544 324.655419 
L 61.904692 324.600225 
L 63.776186 323.496985 
L 65.528121 321.355221 
L 67.280056 318.156126 
L 68.819926 314.488598 
L 69.883521 311.498557 
L 70.947116 308.143908 
L 72.472147 302.715009 
L 73.997178 296.582889 
L 76.319115 285.969782 
L 78.106928 276.819561 
L 79.894741 266.890268 
L 81.644744 256.485446 
L 85.018892 234.781093 
L 87.426785 218.22454 
L 93.366076 175.103711 
L 99.108521 132.919662 
L 103.229499 104.123086 
L 106.482846 83.095 
L 109.519008 65.315305 
L 110.065096 62.336626 
L 112.27196 51.052806 
L 113.652239 44.648663 
L 116.253301 34.058182 
L 117.474084 29.790816 
L 119.010854 25.088193 
L 120.815126 20.550326 
L 122.619398 17.106004 
L 123.720072 15.553047 
L 124.820745 14.420903 
L 126.465022 13.519922 
L 127.756882 13.479283 
L 129.245401 14.160795 
L 131.060273 16.041559 
L 132.875144 19.062337 
L 133.971545 21.430516 
L 134.991617 23.994585 
L 136.011688 26.900228 
L 137.570698 31.985181 
L 139.879627 40.891532 
L 142.543044 53.076433 
L 145.018217 66.071903 
L 147.329922 79.501192 
L 150.037358 96.592704 
L 153.796511 122.249747 
L 157.917262 152.05867 
L 165.964151 211.077975 
L 168.638218 229.751328 
L 171.833612 250.754097 
L 175.524451 272.639152 
L 177.722142 284.196751 
L 179.54625 292.839721 
L 181.370358 300.551115 
L 183.601808 308.633497 
L 185.587842 314.507652 
L 186.672686 317.171281 
L 187.75753 319.440483 
L 188.805972 321.25306 
L 189.854414 322.687077 
L 191.095697 323.890613 
L 192.761439 324.657032 
L 193.777716 324.644992 
L 194.793993 324.269332 
L 196.287289 323.059706 
L 197.780584 321.073173 
L 198.740099 319.391246 
L 199.699615 317.396121 
L 201.414728 313.063084 
L 203.186335 307.581649 
L 204.833545 301.601922 
L 206.480754 294.808674 
L 209.196654 281.944393 
L 210.623094 274.419172 
L 213.327633 258.849933 
L 216.476547 238.87141 
L 218.625301 224.312118 
L 222.472175 196.909845 
L 231.445187 131.011774 
L 235.164983 105.038621 
L 238.298209 84.681315 
L 240.076156 73.934459 
L 242.393511 60.959215 
L 244.408409 50.739074 
L 246.046534 43.226688 
L 247.770426 36.146673 
L 249.004362 31.625031 
L 250.238298 27.57687 
L 251.80188 23.149 
L 253.365461 19.52813 
L 254.531099 17.36595 
L 256.214679 15.067687 
L 257.986084 13.715692 
L 259.757489 13.466297 
L 261.639746 14.411398 
L 262.971997 15.830159 
L 264.414889 18.060624 
L 265.857782 21.002332 
L 267.127306 24.16785 
L 268.39683 27.86174 
L 270.164541 33.859537 
L 272.060085 41.351581 
L 274.312795 51.599396 
L 275.734209 58.767194 
L 279.116275 77.783722 
L 282.141037 96.804677 
L 284.284576 111.212879 
L 288.873849 143.881886 
L 299.490519 221.342413 
L 302.670363 242.837019 
L 305.369614 259.77901 
L 306.661548 267.375542 
L 308.613447 278.139552 
L 311.251216 291.176532 
L 312.815242 298.011563 
L 314.379268 304.132995 
L 315.913042 309.410288 
L 317.852807 315.011669 
L 319.248755 318.276491 
L 320.644703 320.883448 
L 321.612419 322.298399 
L 322.886239 323.665473 
L 324.160059 324.46494 
L 325.476778 324.691626 
L 326.793497 324.307816 
L 327.880133 323.532267 
L 329.104957 322.163447 
L 330.329781 320.27493 
L 331.73169 317.483863 
L 333.1336 314.032828 
L 334.299401 310.671353 
L 335.465203 306.87439 
L 337.267572 300.174638 
L 339.138093 292.203533 
L 340.783509 284.383762 
L 342.428925 275.857692 
L 344.157227 266.198792 
L 346.859424 249.807888 
L 348.831697 236.986979 
L 351.21187 220.729488 
L 357.989257 171.547405 
L 362.705154 136.863999 
L 367.466706 103.48771 
L 370.409877 84.430576 
L 373.586998 65.728226 
L 375.874274 53.700138 
L 376.899459 48.743972 
L 379.951634 35.725271 
L 381.005666 31.869145 
L 382.854987 25.942306 
L 384.486333 21.631799 
L 386.117679 18.208854 
L 387.383886 16.177202 
L 388.650093 14.70015 
L 389.838317 13.823287 
L 391.401614 13.425326 
L 392.964911 13.887831 
L 393.926462 14.598793 
L 394.888014 15.632927 
L 396.549989 18.17568 
L 397.962925 21.079663 
L 399.375861 24.652037 
L 401.989576 32.965483 
L 403.540849 38.903015 
L 405.092121 45.549131 
L 408.10323 60.333289 
L 410.644978 74.560181 
L 412.050878 83.036367 
L 414.157069 96.442205 
L 418.219921 124.236183 
L 423.899921 165.648583 
L 429.824693 209.062763 
L 433.259774 233.00029 
L 436.451847 253.729963 
L 436.451847 253.729963 
" clip-path="url(#p94b014b514)" style="fill: none; stroke: #0000ff; stroke-linecap: square"/>
   </g>
   <g id="patch_3">
    <path d="M 226.253777 330.916952 
L 226.253777 7.2 
" style="fill: none; stroke: #000000; stroke-width: 0.8; stroke-linejoin: miter; stroke-linecap: square"/>
   </g>
   <g id="patch_4">
    <path d="M 7.647784 169.060703 
L 444.85977 169.060703 
" style="fill: none; stroke: #000000; stroke-width: 0.8; stroke-linejoin: miter; stroke-linecap: square"/>
   </g>
  </g>
 </g>
 <defs>
  <clipPath id="p94b014b514">
   <rect x="7.647784" y="7.2" width="437.211985" height="323.716952"/>
  </clipPath>
 </defs>
</svg>
