<?xml version="1.0" encoding="utf-8" standalone="no"?>
<!DOCTYPE svg PUBLIC "-//W3C//DTD SVG 1.1//EN"
  "http://www.w3.org/Graphics/SVG/1.1/DTD/svg11.dtd">
<svg xmlns:xlink="http://www.w3.org/1999/xlink" width="453.6pt" height="337.493272pt" viewBox="0 0 453.6 337.493272" xmlns="http://www.w3.org/2000/svg" version="1.1">
 <metadata>
  <rdf:RDF xmlns:dc="http://purl.org/dc/elements/1.1/" xmlns:cc="http://creativecommons.org/ns#" xmlns:rdf="http://www.w3.org/1999/02/22-rdf-syntax-ns#">
   <cc:Work>
    <dc:type rdf:resource="http://purl.org/dc/dcmitype/StillImage"/>
    <dc:date>2023-10-04T18:46:31.411920</dc:date>
    <dc:format>image/svg+xml</dc:format>
    <dc:creator>
     <cc:Agent>
      <dc:title>Matplotlib v3.8.0, https://matplotlib.org/</dc:title>
     </cc:Agent>
    </dc:creator>
   </cc:Work>
  </rdf:RDF>
 </metadata>
 <defs>
  <style type="text/css">*{stroke-linejoin: round; stroke-linecap: butt}</style>
 </defs>
 <g id="figure_1">
  <g id="patch_1">
   <path d="M 0 337.493272 
L 453.6 337.493272 
L 453.6 0 
L 0 0 
L 0 337.493272 
z
" style="fill: none"/>
  </g>
  <g id="axes_1">
   <g id="patch_2">
    <path d="M 36.930079 320.461862 
L 446.4 320.461862 
L 446.4 7.2 
L 36.930079 7.2 
L 36.930079 320.461862 
z
" style="fill: none"/>
   </g>
   <g id="patch_3">
    <path d="M 55.741197 314.437595 
L 55.741197 73.466932 
L 57.388268 80.512768 
L 58.993898 86.995705 
L 60.654988 93.334945 
L 62.316078 99.330393 
L 63.656356 103.93598 
L 65.853437 111.073631 
L 67.018701 114.66625 
L 69.583704 122.143911 
L 70.856547 125.650553 
L 72.205636 129.230287 
L 74.458745 134.915387 
L 77.171269 141.313174 
L 78.605633 144.515368 
L 79.892779 147.289701 
L 82.367469 152.376903 
L 85.127408 157.697223 
L 87.061696 161.22242 
L 87.514196 162.024325 
L 89.99165 166.270138 
L 91.604187 168.908843 
L 93.500792 171.894578 
L 95.748114 175.277605 
L 98.13866 178.704316 
L 100.521781 181.956433 
L 101.11952 182.747836 
L 104.572322 187.14044 
L 105.195867 187.902653 
L 108.37936 191.656072 
L 109.76873 193.225269 
L 111.646354 195.283266 
L 112.951896 196.673517 
L 115.787982 199.584598 
L 117.139895 200.922196 
L 118.662804 202.392145 
L 120.489053 204.105456 
L 123.59546 206.902443 
L 124.590747 207.768838 
L 127.844446 210.506254 
L 128.346346 210.916055 
L 131.430035 213.364645 
L 132.416235 214.123469 
L 134.953011 216.024018 
L 135.940072 216.744202 
L 138.63284 218.656363 
L 141.087048 220.335061 
L 142.650983 221.374448 
L 144.954243 222.864051 
L 146.244622 223.67793 
L 147.716027 224.58851 
L 150.950389 226.527261 
L 152.731896 227.559822 
L 153.431226 227.958554 
L 155.083537 228.886257 
L 158.258921 230.614351 
L 159.137942 231.080458 
L 161.029542 232.066122 
L 163.632783 233.385099 
L 166.248162 234.668363 
L 167.993307 235.502271 
L 170.05954 236.467342 
L 170.955477 236.878509 
L 172.372853 237.520195 
L 174.426569 238.431353 
L 176.58072 239.364159 
L 178.169268 240.037508 
L 181.487372 241.405726 
L 181.742559 241.508871 
L 185.560248 243.017898 
L 185.854932 243.131786 
L 189.157132 244.383603 
L 190.845407 245.006775 
L 191.390797 245.205725 
L 194.30672 246.250361 
L 196.507379 247.018113 
L 199.019848 247.873779 
L 200.854791 248.485103 
L 202.888941 249.149803 
L 203.122696 249.22533 
L 206.342497 250.248156 
L 207.533364 250.618374 
L 209.630937 251.260189 
L 210.762282 251.601028 
L 214.096643 252.584509 
L 214.620789 252.736315 
L 217.599607 253.585097 
L 219.365529 254.077341 
L 220.357796 254.350453 
L 222.859336 255.028133 
L 224.478111 255.458579 
L 227.281293 256.1894 
L 228.010367 256.37652 
L 231.451257 257.243652 
L 231.873054 257.34817 
L 234.263179 257.93328 
L 236.777507 258.535988 
L 239.094203 259.080052 
L 240.46096 259.396089 
L 242.930923 259.958163 
L 243.855982 260.165729 
L 245.802301 260.597323 
L 247.588203 260.98735 
L 250.608971 261.634354 
L 252.68063 262.069093 
L 254.263445 262.396454 
L 255.55082 262.659709 
L 258.180106 263.18918 
L 260.405662 263.62896 
L 262.508125 264.03754 
L 263.908606 264.306074 
L 265.714415 264.648132 
L 266.843323 264.859609 
L 269.299132 265.313507 
L 271.925856 265.789884 
L 272.906129 265.965305 
L 274.086043 266.174782 
L 276.281663 266.559802 
L 279.791343 267.162657 
L 281.173403 267.395906 
L 281.89385 267.516585 
L 284.425919 267.935853 
L 286.672589 268.30164 
L 288.804224 268.643416 
L 290.491885 268.910437 
L 292.076392 269.158319 
L 295.218998 269.64205 
L 296.3336 269.811143 
L 298.253927 270.099496 
L 299.588279 270.297675 
L 302.364388 270.704362 
L 304.219474 270.971971 
L 305.247216 271.118825 
L 307.826882 271.483099 
L 309.892069 271.770337 
L 312.107437 272.074223 
L 313.562923 272.271529 
L 315.430942 272.522082 
L 317.548005 272.802463 
L 318.340875 272.906506 
L 320.352401 273.168148 
L 323.720205 273.5989 
L 324.92181 273.75042 
L 326.543065 273.953084 
L 329.249814 274.286979 
L 330.138072 274.395354 
L 333.648637 274.818008 
L 335.010987 274.979634 
L 336.596579 275.166093 
L 339.237445 275.472767 
L 339.89806 275.548734 
L 342.195816 275.810672 
L 344.703591 276.092554 
L 346.967657 276.343532 
L 347.857359 276.441261 
L 349.327186 276.60162 
L 352.870355 276.982673 
L 354.286013 277.132784 
L 356.105496 277.323956 
L 357.588429 277.478325 
L 359.591091 277.684768 
L 361.89583 277.919515 
L 362.93352 278.024232 
L 364.746631 278.205765 
L 366.880763 278.417133 
L 369.169247 278.641066 
L 370.731428 278.792337 
L 373.968457 279.101753 
L 375.06931 279.205759 
L 376.485661 279.338676 
L 378.664975 279.541245 
L 381.326909 279.785524 
L 383.353181 279.96919 
L 384.930891 280.110854 
L 386.09669 280.214787 
L 389.443363 280.50968 
L 391.202864 280.662691 
L 392.987647 280.816496 
L 395.117839 280.998243 
L 396.94165 281.152296 
L 397.247541 281.177995 
L 400.589277 281.456183 
L 402.644468 281.624971 
L 403.703528 281.711277 
L 405.252233 281.83667 
L 408.503042 282.096777 
L 410.141997 282.226347 
L 410.704084 282.270545 
L 414.450629 282.562073 
L 415.665032 282.655437 
L 417.515284 282.79664 
L 419.887858 282.975879 
L 421.84886 283.122499 
L 424.080745 283.287719 
L 424.224128 283.298273 
L 427.098424 283.508356 
L 429.569256 283.686696 
L 431.221982 283.804844 
L 433.33901 283.954863 
L 435.638328 284.116143 
L 436.43613 284.171705 
L 438.525578 284.316262 
L 438.525578 314.437595 
z
" clip-path="url(#p5d155d1158)" style="fill: #808080; opacity: 0.5"/>
   </g>
   <g id="matplotlib.axis_1">
    <g id="xtick_1">
     <g id="line2d_1">
      <defs>
       <path id="mc1a31e1ef9" d="M 0 0 
L 0 3.5 
" style="stroke: #000000; stroke-width: 0.8"/>
      </defs>
      <g>
       <use xlink:href="#mc1a31e1ef9" x="55.741197" y="314.437595" style="stroke: #000000; stroke-width: 0.8"/>
      </g>
     </g>
     <g id="text_1">
      <!-- $\mathdefault{1}$ -->
      <g transform="translate(53.25053 328.356094) scale(0.1 -0.1)">
       <defs>
        <path id="CMR17-31" d="M 1702 4083 
C 1702 4217 1696 4224 1606 4224 
C 1357 3927 979 3833 621 3820 
C 602 3820 570 3820 563 3808 
C 557 3795 557 3782 557 3648 
C 755 3648 1088 3686 1344 3839 
L 1344 467 
C 1344 243 1331 166 781 166 
L 589 166 
L 589 0 
C 896 6 1216 12 1523 12 
C 1830 12 2150 6 2458 0 
L 2458 166 
L 2266 166 
C 1715 166 1702 236 1702 467 
L 1702 4083 
z
" transform="scale(0.015625)"/>
       </defs>
       <use xlink:href="#CMR17-31" transform="scale(0.996264)"/>
      </g>
     </g>
    </g>
    <g id="xtick_2">
     <g id="line2d_2">
      <g>
       <use xlink:href="#mc1a31e1ef9" x="110.42468" y="314.437595" style="stroke: #000000; stroke-width: 0.8"/>
      </g>
     </g>
     <g id="text_2">
      <!-- $\mathdefault{2}$ -->
      <g transform="translate(107.934013 328.356094) scale(0.1 -0.1)">
       <defs>
        <path id="CMR17-32" d="M 2669 990 
L 2554 990 
C 2490 537 2438 460 2413 422 
C 2381 371 1920 371 1830 371 
L 602 371 
C 832 620 1280 1073 1824 1596 
C 2214 1966 2669 2400 2669 3033 
C 2669 3788 2067 4224 1395 4224 
C 691 4224 262 3603 262 3027 
C 262 2777 448 2745 525 2745 
C 589 2745 781 2783 781 3007 
C 781 3206 614 3264 525 3264 
C 486 3264 448 3257 422 3244 
C 544 3788 915 4057 1306 4057 
C 1862 4057 2227 3616 2227 3033 
C 2227 2477 1901 1998 1536 1583 
L 262 147 
L 262 0 
L 2515 0 
L 2669 990 
z
" transform="scale(0.015625)"/>
       </defs>
       <use xlink:href="#CMR17-32" transform="scale(0.996264)"/>
      </g>
     </g>
    </g>
    <g id="xtick_3">
     <g id="line2d_3">
      <g>
       <use xlink:href="#mc1a31e1ef9" x="165.108163" y="314.437595" style="stroke: #000000; stroke-width: 0.8"/>
      </g>
     </g>
     <g id="text_3">
      <!-- $\mathdefault{3}$ -->
      <g transform="translate(162.617496 328.356094) scale(0.1 -0.1)">
       <defs>
        <path id="CMR17-33" d="M 1414 2176 
C 1984 2176 2234 1673 2234 1094 
C 2234 322 1824 25 1453 25 
C 1114 25 563 193 390 691 
C 422 678 454 678 486 678 
C 640 678 755 780 755 947 
C 755 1132 614 1216 486 1216 
C 378 1216 211 1164 211 927 
C 211 335 787 -128 1466 -128 
C 2176 -128 2720 432 2720 1087 
C 2720 1718 2208 2176 1600 2246 
C 2086 2347 2554 2776 2554 3353 
C 2554 3856 2048 4224 1472 4224 
C 890 4224 378 3862 378 3347 
C 378 3123 544 3084 627 3084 
C 762 3084 877 3167 877 3334 
C 877 3500 762 3584 627 3584 
C 602 3584 570 3584 544 3571 
C 730 3999 1235 4076 1459 4076 
C 1683 4076 2106 3966 2106 3347 
C 2106 3167 2080 2851 1862 2574 
C 1670 2329 1453 2316 1242 2297 
C 1210 2297 1062 2284 1037 2284 
C 992 2278 966 2272 966 2227 
C 966 2182 973 2176 1101 2176 
L 1414 2176 
z
" transform="scale(0.015625)"/>
       </defs>
       <use xlink:href="#CMR17-33" transform="scale(0.996264)"/>
      </g>
     </g>
    </g>
    <g id="xtick_4">
     <g id="line2d_4">
      <g>
       <use xlink:href="#mc1a31e1ef9" x="219.791646" y="314.437595" style="stroke: #000000; stroke-width: 0.8"/>
      </g>
     </g>
     <g id="text_4">
      <!-- $\mathdefault{4}$ -->
      <g transform="translate(217.300979 328.356094) scale(0.1 -0.1)">
       <defs>
        <path id="CMR17-34" d="M 2150 4147 
C 2150 4281 2144 4288 2029 4288 
L 128 1254 
L 128 1088 
L 1779 1088 
L 1779 460 
C 1779 230 1766 166 1318 166 
L 1197 166 
L 1197 0 
C 1402 12 1747 12 1965 12 
C 2182 12 2528 12 2733 0 
L 2733 166 
L 2611 166 
C 2163 166 2150 230 2150 460 
L 2150 1088 
L 2803 1088 
L 2803 1254 
L 2150 1254 
L 2150 4147 
z
M 1798 3723 
L 1798 1254 
L 256 1254 
L 1798 3723 
z
" transform="scale(0.015625)"/>
       </defs>
       <use xlink:href="#CMR17-34" transform="scale(0.996264)"/>
      </g>
     </g>
    </g>
    <g id="xtick_5">
     <g id="line2d_5">
      <g>
       <use xlink:href="#mc1a31e1ef9" x="274.475129" y="314.437595" style="stroke: #000000; stroke-width: 0.8"/>
      </g>
     </g>
     <g id="text_5">
      <!-- $\mathdefault{5}$ -->
      <g transform="translate(271.984462 328.356094) scale(0.1 -0.1)">
       <defs>
        <path id="CMR17-35" d="M 730 3750 
C 794 3724 1056 3641 1325 3641 
C 1920 3641 2246 3961 2432 4140 
C 2432 4191 2432 4224 2394 4224 
C 2387 4224 2374 4224 2323 4198 
C 2099 4102 1837 4032 1517 4032 
C 1325 4032 1037 4055 723 4191 
C 653 4224 640 4224 634 4224 
C 602 4224 595 4217 595 4090 
L 595 2231 
C 595 2113 595 2080 659 2080 
C 691 2080 704 2093 736 2139 
C 941 2435 1222 2560 1542 2560 
C 1766 2560 2246 2415 2246 1293 
C 2246 1087 2246 716 2054 422 
C 1894 159 1645 25 1370 25 
C 947 25 518 319 403 812 
C 429 806 480 793 506 793 
C 589 793 749 838 749 1036 
C 749 1209 627 1280 506 1280 
C 358 1280 262 1190 262 1011 
C 262 454 704 -128 1382 -128 
C 2042 -128 2669 441 2669 1267 
C 2669 2054 2170 2662 1549 2662 
C 1222 2662 947 2540 730 2304 
L 730 3750 
z
" transform="scale(0.015625)"/>
       </defs>
       <use xlink:href="#CMR17-35" transform="scale(0.996264)"/>
      </g>
     </g>
    </g>
    <g id="xtick_6">
     <g id="line2d_6">
      <g>
       <use xlink:href="#mc1a31e1ef9" x="329.158612" y="314.437595" style="stroke: #000000; stroke-width: 0.8"/>
      </g>
     </g>
     <g id="text_6">
      <!-- $\mathdefault{6}$ -->
      <g transform="translate(326.667945 328.356094) scale(0.1 -0.1)">
       <defs>
        <path id="CMR17-36" d="M 678 2198 
C 678 3712 1395 4076 1811 4076 
C 1946 4076 2272 4049 2400 3782 
C 2298 3782 2106 3782 2106 3558 
C 2106 3385 2246 3328 2336 3328 
C 2394 3328 2566 3353 2566 3571 
C 2566 3987 2246 4224 1805 4224 
C 1043 4224 243 3411 243 2011 
C 243 257 966 -128 1478 -128 
C 2099 -128 2688 431 2688 1295 
C 2688 2101 2170 2688 1517 2688 
C 1126 2688 838 2430 678 1979 
L 678 2198 
z
M 1478 25 
C 691 25 691 1212 691 1450 
C 691 1914 909 2585 1504 2585 
C 1613 2585 1926 2585 2138 2140 
C 2253 1889 2253 1624 2253 1302 
C 2253 954 2253 696 2118 438 
C 1978 173 1773 25 1478 25 
z
" transform="scale(0.015625)"/>
       </defs>
       <use xlink:href="#CMR17-36" transform="scale(0.996264)"/>
      </g>
     </g>
    </g>
    <g id="xtick_7">
     <g id="line2d_7">
      <g>
       <use xlink:href="#mc1a31e1ef9" x="383.842095" y="314.437595" style="stroke: #000000; stroke-width: 0.8"/>
      </g>
     </g>
     <g id="text_7">
      <!-- $\mathdefault{7}$ -->
      <g transform="translate(381.351428 328.356094) scale(0.1 -0.1)">
       <defs>
        <path id="CMR17-37" d="M 2886 3955 
L 2886 4096 
L 1382 4096 
C 634 4096 621 4166 595 4288 
L 480 4288 
L 294 3104 
L 410 3104 
C 429 3226 474 3552 550 3673 
C 589 3724 1062 3724 1171 3724 
L 2579 3724 
L 1869 2670 
C 1395 1961 1069 1003 1069 166 
C 1069 89 1069 -128 1299 -128 
C 1530 -128 1530 89 1530 172 
L 1530 466 
C 1530 1514 1709 2204 2003 2644 
L 2886 3955 
z
" transform="scale(0.015625)"/>
       </defs>
       <use xlink:href="#CMR17-37" transform="scale(0.996264)"/>
      </g>
     </g>
    </g>
    <g id="xtick_8">
     <g id="line2d_8">
      <g>
       <use xlink:href="#mc1a31e1ef9" x="438.525578" y="314.437595" style="stroke: #000000; stroke-width: 0.8"/>
      </g>
     </g>
     <g id="text_8">
      <!-- $\mathdefault{8}$ -->
      <g transform="translate(436.034911 328.356094) scale(0.1 -0.1)">
       <defs>
        <path id="CMR17-38" d="M 1741 2289 
C 2144 2494 2554 2803 2554 3298 
C 2554 3884 1990 4224 1472 4224 
C 890 4224 378 3800 378 3215 
C 378 3054 416 2777 666 2533 
C 730 2469 998 2276 1171 2154 
C 883 2006 211 1652 211 945 
C 211 282 838 -128 1459 -128 
C 2144 -128 2720 366 2720 1022 
C 2720 1607 2330 1877 2074 2051 
L 1741 2289 
z
M 902 2855 
C 851 2887 595 3086 595 3388 
C 595 3781 998 4076 1459 4076 
C 1965 4076 2336 3716 2336 3298 
C 2336 2700 1670 2359 1638 2359 
C 1632 2359 1626 2359 1574 2398 
L 902 2855 
z
M 2080 1536 
C 2176 1466 2483 1253 2483 861 
C 2483 385 2010 25 1472 25 
C 890 25 448 443 448 951 
C 448 1459 838 1884 1280 2083 
L 2080 1536 
z
" transform="scale(0.015625)"/>
       </defs>
       <use xlink:href="#CMR17-38" transform="scale(0.996264)"/>
      </g>
     </g>
    </g>
    <g id="xtick_9">
     <g id="line2d_9">
      <defs>
       <path id="m6ab84b3b2c" d="M 0 0 
L 0 2 
" style="stroke: #000000; stroke-width: 0.6"/>
      </defs>
      <g>
       <use xlink:href="#m6ab84b3b2c" x="44.804501" y="314.437595" style="stroke: #000000; stroke-width: 0.6"/>
      </g>
     </g>
    </g>
    <g id="xtick_10">
     <g id="line2d_10">
      <g>
       <use xlink:href="#m6ab84b3b2c" x="66.677894" y="314.437595" style="stroke: #000000; stroke-width: 0.6"/>
      </g>
     </g>
    </g>
    <g id="xtick_11">
     <g id="line2d_11">
      <g>
       <use xlink:href="#m6ab84b3b2c" x="77.61459" y="314.437595" style="stroke: #000000; stroke-width: 0.6"/>
      </g>
     </g>
    </g>
    <g id="xtick_12">
     <g id="line2d_12">
      <g>
       <use xlink:href="#m6ab84b3b2c" x="88.551287" y="314.437595" style="stroke: #000000; stroke-width: 0.6"/>
      </g>
     </g>
    </g>
    <g id="xtick_13">
     <g id="line2d_13">
      <g>
       <use xlink:href="#m6ab84b3b2c" x="99.487984" y="314.437595" style="stroke: #000000; stroke-width: 0.6"/>
      </g>
     </g>
    </g>
    <g id="xtick_14">
     <g id="line2d_14">
      <g>
       <use xlink:href="#m6ab84b3b2c" x="121.361377" y="314.437595" style="stroke: #000000; stroke-width: 0.6"/>
      </g>
     </g>
    </g>
    <g id="xtick_15">
     <g id="line2d_15">
      <g>
       <use xlink:href="#m6ab84b3b2c" x="132.298073" y="314.437595" style="stroke: #000000; stroke-width: 0.6"/>
      </g>
     </g>
    </g>
    <g id="xtick_16">
     <g id="line2d_16">
      <g>
       <use xlink:href="#m6ab84b3b2c" x="143.23477" y="314.437595" style="stroke: #000000; stroke-width: 0.6"/>
      </g>
     </g>
    </g>
    <g id="xtick_17">
     <g id="line2d_17">
      <g>
       <use xlink:href="#m6ab84b3b2c" x="154.171467" y="314.437595" style="stroke: #000000; stroke-width: 0.6"/>
      </g>
     </g>
    </g>
    <g id="xtick_18">
     <g id="line2d_18">
      <g>
       <use xlink:href="#m6ab84b3b2c" x="176.04486" y="314.437595" style="stroke: #000000; stroke-width: 0.6"/>
      </g>
     </g>
    </g>
    <g id="xtick_19">
     <g id="line2d_19">
      <g>
       <use xlink:href="#m6ab84b3b2c" x="186.981556" y="314.437595" style="stroke: #000000; stroke-width: 0.6"/>
      </g>
     </g>
    </g>
    <g id="xtick_20">
     <g id="line2d_20">
      <g>
       <use xlink:href="#m6ab84b3b2c" x="197.918253" y="314.437595" style="stroke: #000000; stroke-width: 0.6"/>
      </g>
     </g>
    </g>
    <g id="xtick_21">
     <g id="line2d_21">
      <g>
       <use xlink:href="#m6ab84b3b2c" x="208.85495" y="314.437595" style="stroke: #000000; stroke-width: 0.6"/>
      </g>
     </g>
    </g>
    <g id="xtick_22">
     <g id="line2d_22">
      <g>
       <use xlink:href="#m6ab84b3b2c" x="230.728343" y="314.437595" style="stroke: #000000; stroke-width: 0.6"/>
      </g>
     </g>
    </g>
    <g id="xtick_23">
     <g id="line2d_23">
      <g>
       <use xlink:href="#m6ab84b3b2c" x="241.665039" y="314.437595" style="stroke: #000000; stroke-width: 0.6"/>
      </g>
     </g>
    </g>
    <g id="xtick_24">
     <g id="line2d_24">
      <g>
       <use xlink:href="#m6ab84b3b2c" x="252.601736" y="314.437595" style="stroke: #000000; stroke-width: 0.6"/>
      </g>
     </g>
    </g>
    <g id="xtick_25">
     <g id="line2d_25">
      <g>
       <use xlink:href="#m6ab84b3b2c" x="263.538433" y="314.437595" style="stroke: #000000; stroke-width: 0.6"/>
      </g>
     </g>
    </g>
    <g id="xtick_26">
     <g id="line2d_26">
      <g>
       <use xlink:href="#m6ab84b3b2c" x="285.411826" y="314.437595" style="stroke: #000000; stroke-width: 0.6"/>
      </g>
     </g>
    </g>
    <g id="xtick_27">
     <g id="line2d_27">
      <g>
       <use xlink:href="#m6ab84b3b2c" x="296.348523" y="314.437595" style="stroke: #000000; stroke-width: 0.6"/>
      </g>
     </g>
    </g>
    <g id="xtick_28">
     <g id="line2d_28">
      <g>
       <use xlink:href="#m6ab84b3b2c" x="307.285219" y="314.437595" style="stroke: #000000; stroke-width: 0.6"/>
      </g>
     </g>
    </g>
    <g id="xtick_29">
     <g id="line2d_29">
      <g>
       <use xlink:href="#m6ab84b3b2c" x="318.221916" y="314.437595" style="stroke: #000000; stroke-width: 0.6"/>
      </g>
     </g>
    </g>
    <g id="xtick_30">
     <g id="line2d_30">
      <g>
       <use xlink:href="#m6ab84b3b2c" x="340.095309" y="314.437595" style="stroke: #000000; stroke-width: 0.6"/>
      </g>
     </g>
    </g>
    <g id="xtick_31">
     <g id="line2d_31">
      <g>
       <use xlink:href="#m6ab84b3b2c" x="351.032006" y="314.437595" style="stroke: #000000; stroke-width: 0.6"/>
      </g>
     </g>
    </g>
    <g id="xtick_32">
     <g id="line2d_32">
      <g>
       <use xlink:href="#m6ab84b3b2c" x="361.968702" y="314.437595" style="stroke: #000000; stroke-width: 0.6"/>
      </g>
     </g>
    </g>
    <g id="xtick_33">
     <g id="line2d_33">
      <g>
       <use xlink:href="#m6ab84b3b2c" x="372.905399" y="314.437595" style="stroke: #000000; stroke-width: 0.6"/>
      </g>
     </g>
    </g>
    <g id="xtick_34">
     <g id="line2d_34">
      <g>
       <use xlink:href="#m6ab84b3b2c" x="394.778792" y="314.437595" style="stroke: #000000; stroke-width: 0.6"/>
      </g>
     </g>
    </g>
    <g id="xtick_35">
     <g id="line2d_35">
      <g>
       <use xlink:href="#m6ab84b3b2c" x="405.715489" y="314.437595" style="stroke: #000000; stroke-width: 0.6"/>
      </g>
     </g>
    </g>
    <g id="xtick_36">
     <g id="line2d_36">
      <g>
       <use xlink:href="#m6ab84b3b2c" x="416.652185" y="314.437595" style="stroke: #000000; stroke-width: 0.6"/>
      </g>
     </g>
    </g>
    <g id="xtick_37">
     <g id="line2d_37">
      <g>
       <use xlink:href="#m6ab84b3b2c" x="427.588882" y="314.437595" style="stroke: #000000; stroke-width: 0.6"/>
      </g>
     </g>
    </g>
   </g>
   <g id="matplotlib.axis_2">
    <g id="ytick_1">
     <g id="line2d_38">
      <defs>
       <path id="m54b7115073" d="M 0 0 
L -3.5 0 
" style="stroke: #000000; stroke-width: 0.8"/>
      </defs>
      <g>
       <use xlink:href="#m54b7115073" x="26.930079" y="314.437595" style="stroke: #000000; stroke-width: 0.8"/>
      </g>
     </g>
     <g id="text_9">
      <!-- $\mathdefault{0.0}$ -->
      <g transform="translate(7.2 317.896844) scale(0.1 -0.1)">
       <defs>
        <path id="CMR17-30" d="M 2688 2038 
C 2688 2430 2682 3099 2413 3613 
C 2176 4063 1798 4224 1466 4224 
C 1158 4224 768 4082 525 3620 
C 269 3137 243 2539 243 2038 
C 243 1671 250 1112 448 623 
C 723 -39 1216 -128 1466 -128 
C 1760 -128 2208 -7 2470 604 
C 2662 1048 2688 1568 2688 2038 
z
M 1466 -26 
C 1056 -26 813 328 723 816 
C 653 1196 653 1749 653 2109 
C 653 2604 653 3015 736 3407 
C 858 3954 1216 4121 1466 4121 
C 1728 4121 2067 3947 2189 3420 
C 2272 3054 2278 2623 2278 2109 
C 2278 1691 2278 1176 2202 797 
C 2067 96 1690 -26 1466 -26 
z
" transform="scale(0.015625)"/>
        <path id="CMMI12-3a" d="M 1178 307 
C 1178 492 1024 620 870 620 
C 685 620 557 467 557 313 
C 557 128 710 0 864 0 
C 1050 0 1178 153 1178 307 
z
" transform="scale(0.015625)"/>
       </defs>
       <use xlink:href="#CMR17-30" transform="scale(0.996264)"/>
       <use xlink:href="#CMMI12-3a" transform="translate(45.690477 0) scale(0.996264)"/>
       <use xlink:href="#CMR17-30" transform="translate(72.787654 0) scale(0.996264)"/>
      </g>
     </g>
    </g>
    <g id="ytick_2">
     <g id="line2d_39">
      <g>
       <use xlink:href="#m54b7115073" x="26.930079" y="266.243463" style="stroke: #000000; stroke-width: 0.8"/>
      </g>
     </g>
     <g id="text_10">
      <!-- $\mathdefault{0.2}$ -->
      <g transform="translate(7.2 269.702712) scale(0.1 -0.1)">
       <use xlink:href="#CMR17-30" transform="scale(0.996264)"/>
       <use xlink:href="#CMMI12-3a" transform="translate(45.690477 0) scale(0.996264)"/>
       <use xlink:href="#CMR17-32" transform="translate(72.787654 0) scale(0.996264)"/>
      </g>
     </g>
    </g>
    <g id="ytick_3">
     <g id="line2d_40">
      <g>
       <use xlink:href="#m54b7115073" x="26.930079" y="218.04933" style="stroke: #000000; stroke-width: 0.8"/>
      </g>
     </g>
     <g id="text_11">
      <!-- $\mathdefault{0.4}$ -->
      <g transform="translate(7.2 221.508579) scale(0.1 -0.1)">
       <use xlink:href="#CMR17-30" transform="scale(0.996264)"/>
       <use xlink:href="#CMMI12-3a" transform="translate(45.690477 0) scale(0.996264)"/>
       <use xlink:href="#CMR17-34" transform="translate(72.787654 0) scale(0.996264)"/>
      </g>
     </g>
    </g>
    <g id="ytick_4">
     <g id="line2d_41">
      <g>
       <use xlink:href="#m54b7115073" x="26.930079" y="169.855197" style="stroke: #000000; stroke-width: 0.8"/>
      </g>
     </g>
     <g id="text_12">
      <!-- $\mathdefault{0.6}$ -->
      <g transform="translate(7.2 173.314447) scale(0.1 -0.1)">
       <use xlink:href="#CMR17-30" transform="scale(0.996264)"/>
       <use xlink:href="#CMMI12-3a" transform="translate(45.690477 0) scale(0.996264)"/>
       <use xlink:href="#CMR17-36" transform="translate(72.787654 0) scale(0.996264)"/>
      </g>
     </g>
    </g>
    <g id="ytick_5">
     <g id="line2d_42">
      <g>
       <use xlink:href="#m54b7115073" x="26.930079" y="121.661065" style="stroke: #000000; stroke-width: 0.8"/>
      </g>
     </g>
     <g id="text_13">
      <!-- $\mathdefault{0.8}$ -->
      <g transform="translate(7.2 125.120314) scale(0.1 -0.1)">
       <use xlink:href="#CMR17-30" transform="scale(0.996264)"/>
       <use xlink:href="#CMMI12-3a" transform="translate(45.690477 0) scale(0.996264)"/>
       <use xlink:href="#CMR17-38" transform="translate(72.787654 0) scale(0.996264)"/>
      </g>
     </g>
    </g>
    <g id="ytick_6">
     <g id="line2d_43">
      <g>
       <use xlink:href="#m54b7115073" x="26.930079" y="73.466932" style="stroke: #000000; stroke-width: 0.8"/>
      </g>
     </g>
     <g id="text_14">
      <!-- $\mathdefault{1.0}$ -->
      <g transform="translate(7.2 76.926181) scale(0.1 -0.1)">
       <use xlink:href="#CMR17-31" transform="scale(0.996264)"/>
       <use xlink:href="#CMMI12-3a" transform="translate(45.690477 0) scale(0.996264)"/>
       <use xlink:href="#CMR17-30" transform="translate(72.787654 0) scale(0.996264)"/>
      </g>
     </g>
    </g>
    <g id="ytick_7">
     <g id="line2d_44">
      <g>
       <use xlink:href="#m54b7115073" x="26.930079" y="25.2728" style="stroke: #000000; stroke-width: 0.8"/>
      </g>
     </g>
     <g id="text_15">
      <!-- $\mathdefault{1.2}$ -->
      <g transform="translate(7.2 28.732049) scale(0.1 -0.1)">
       <use xlink:href="#CMR17-31" transform="scale(0.996264)"/>
       <use xlink:href="#CMMI12-3a" transform="translate(45.690477 0) scale(0.996264)"/>
       <use xlink:href="#CMR17-32" transform="translate(72.787654 0) scale(0.996264)"/>
      </g>
     </g>
    </g>
    <g id="ytick_8">
     <g id="line2d_45">
      <defs>
       <path id="m61a8cb47a5" d="M 0 0 
L -2 0 
" style="stroke: #000000; stroke-width: 0.6"/>
      </defs>
      <g>
       <use xlink:href="#m61a8cb47a5" x="26.930079" y="302.389062" style="stroke: #000000; stroke-width: 0.6"/>
      </g>
     </g>
    </g>
    <g id="ytick_9">
     <g id="line2d_46">
      <g>
       <use xlink:href="#m61a8cb47a5" x="26.930079" y="290.340529" style="stroke: #000000; stroke-width: 0.6"/>
      </g>
     </g>
    </g>
    <g id="ytick_10">
     <g id="line2d_47">
      <g>
       <use xlink:href="#m61a8cb47a5" x="26.930079" y="278.291996" style="stroke: #000000; stroke-width: 0.6"/>
      </g>
     </g>
    </g>
    <g id="ytick_11">
     <g id="line2d_48">
      <g>
       <use xlink:href="#m61a8cb47a5" x="26.930079" y="254.194929" style="stroke: #000000; stroke-width: 0.6"/>
      </g>
     </g>
    </g>
    <g id="ytick_12">
     <g id="line2d_49">
      <g>
       <use xlink:href="#m61a8cb47a5" x="26.930079" y="242.146396" style="stroke: #000000; stroke-width: 0.6"/>
      </g>
     </g>
    </g>
    <g id="ytick_13">
     <g id="line2d_50">
      <g>
       <use xlink:href="#m61a8cb47a5" x="26.930079" y="230.097863" style="stroke: #000000; stroke-width: 0.6"/>
      </g>
     </g>
    </g>
    <g id="ytick_14">
     <g id="line2d_51">
      <g>
       <use xlink:href="#m61a8cb47a5" x="26.930079" y="206.000797" style="stroke: #000000; stroke-width: 0.6"/>
      </g>
     </g>
    </g>
    <g id="ytick_15">
     <g id="line2d_52">
      <g>
       <use xlink:href="#m61a8cb47a5" x="26.930079" y="193.952264" style="stroke: #000000; stroke-width: 0.6"/>
      </g>
     </g>
    </g>
    <g id="ytick_16">
     <g id="line2d_53">
      <g>
       <use xlink:href="#m61a8cb47a5" x="26.930079" y="181.903731" style="stroke: #000000; stroke-width: 0.6"/>
      </g>
     </g>
    </g>
    <g id="ytick_17">
     <g id="line2d_54">
      <g>
       <use xlink:href="#m61a8cb47a5" x="26.930079" y="157.806664" style="stroke: #000000; stroke-width: 0.6"/>
      </g>
     </g>
    </g>
    <g id="ytick_18">
     <g id="line2d_55">
      <g>
       <use xlink:href="#m61a8cb47a5" x="26.930079" y="145.758131" style="stroke: #000000; stroke-width: 0.6"/>
      </g>
     </g>
    </g>
    <g id="ytick_19">
     <g id="line2d_56">
      <g>
       <use xlink:href="#m61a8cb47a5" x="26.930079" y="133.709598" style="stroke: #000000; stroke-width: 0.6"/>
      </g>
     </g>
    </g>
    <g id="ytick_20">
     <g id="line2d_57">
      <g>
       <use xlink:href="#m61a8cb47a5" x="26.930079" y="109.612532" style="stroke: #000000; stroke-width: 0.6"/>
      </g>
     </g>
    </g>
    <g id="ytick_21">
     <g id="line2d_58">
      <g>
       <use xlink:href="#m61a8cb47a5" x="26.930079" y="97.563999" style="stroke: #000000; stroke-width: 0.6"/>
      </g>
     </g>
    </g>
    <g id="ytick_22">
     <g id="line2d_59">
      <g>
       <use xlink:href="#m61a8cb47a5" x="26.930079" y="85.515465" style="stroke: #000000; stroke-width: 0.6"/>
      </g>
     </g>
    </g>
    <g id="ytick_23">
     <g id="line2d_60">
      <g>
       <use xlink:href="#m61a8cb47a5" x="26.930079" y="61.418399" style="stroke: #000000; stroke-width: 0.6"/>
      </g>
     </g>
    </g>
    <g id="ytick_24">
     <g id="line2d_61">
      <g>
       <use xlink:href="#m61a8cb47a5" x="26.930079" y="49.369866" style="stroke: #000000; stroke-width: 0.6"/>
      </g>
     </g>
    </g>
    <g id="ytick_25">
     <g id="line2d_62">
      <g>
       <use xlink:href="#m61a8cb47a5" x="26.930079" y="37.321333" style="stroke: #000000; stroke-width: 0.6"/>
      </g>
     </g>
    </g>
    <g id="ytick_26">
     <g id="line2d_63">
      <g>
       <use xlink:href="#m61a8cb47a5" x="26.930079" y="13.224267" style="stroke: #000000; stroke-width: 0.6"/>
      </g>
     </g>
    </g>
   </g>
   <g id="line2d_64">
    <path d="M 55.741197 314.437595 
L 55.741197 73.466932 
" clip-path="url(#p5d155d1158)" style="fill: none; stroke: #000000; stroke-linecap: square"/>
   </g>
   <g id="line2d_65">
    <path d="M 55.741197 73.466932 
L 58.993898 86.995705 
L 62.316078 99.330393 
L 63.656356 103.93598 
L 67.018701 114.66625 
L 70.856547 125.650553 
L 74.458745 134.915387 
L 78.605633 144.515368 
L 82.367469 152.376903 
L 87.061696 161.22242 
L 89.99165 166.270138 
L 93.500792 171.894578 
L 98.13866 178.704316 
L 101.11952 182.747836 
L 105.195867 187.902653 
L 109.76873 193.225269 
L 112.951896 196.673517 
L 118.662804 202.392145 
L 123.59546 206.902443 
L 128.346346 210.916055 
L 134.953011 216.024018 
L 138.63284 218.656363 
L 144.954243 222.864051 
L 150.950389 226.527261 
L 155.083537 228.886257 
L 161.029542 232.066122 
L 167.993307 235.502271 
L 174.426569 238.431353 
L 181.742559 241.508871 
L 191.390797 245.205725 
L 200.854791 248.485103 
L 209.630937 251.260189 
L 219.365529 254.077341 
L 228.010367 256.37652 
L 239.094203 259.080052 
L 250.608971 261.634354 
L 262.508125 264.03754 
L 274.086043 266.174782 
L 288.804224 268.643416 
L 304.219474 270.971971 
L 320.352401 273.168148 
L 339.237445 275.472767 
L 357.588429 277.478325 
L 378.664975 279.541245 
L 400.589277 281.456183 
L 424.224128 283.298273 
L 438.525578 284.316262 
L 438.525578 284.316262 
" clip-path="url(#p5d155d1158)" style="fill: none; stroke: #0000ff; stroke-linecap: square"/>
   </g>
   <g id="line2d_66">
    <path d="M 44.804501 13.224267 
L 47.137786 28.476339 
L 49.821531 44.214383 
L 52.102843 56.291218 
L 55.281148 71.422461 
L 57.24723 79.925607 
L 60.112982 91.305677 
L 63.47542 103.325781 
L 66.808313 114.027023 
L 70.358142 124.292807 
L 72.404097 129.745469 
L 76.455456 139.66956 
L 78.206725 143.636764 
L 82.577381 152.794206 
L 83.914489 155.402741 
L 88.403964 163.576909 
L 91.698969 169.061021 
L 95.405869 174.772806 
L 99.603997 180.722605 
L 104.997269 187.660882 
L 108.022912 191.246918 
L 112.106693 195.777205 
L 115.424487 199.219557 
L 119.002359 202.714718 
L 124.751579 207.907532 
L 129.712734 212.015512 
L 134.555533 215.731 
L 139.861921 219.504484 
L 146.219623 223.662299 
L 151.481515 226.83766 
L 156.832393 229.846728 
L 163.639007 233.388202 
L 170.161258 236.514242 
L 178.062405 239.99259 
L 185.599135 243.032947 
L 194.780605 246.417161 
L 203.786984 249.439013 
L 212.512238 252.121051 
L 221.913631 254.773741 
L 233.098106 257.649572 
L 241.81201 259.704968 
L 254.368708 262.41808 
L 267.277402 264.940448 
L 280.073667 267.210492 
L 294.218247 269.489133 
L 310.080358 271.796334 
L 326.541075 273.952837 
L 343.188856 275.922787 
L 361.436785 277.872999 
L 380.754917 279.733323 
L 402.434792 281.60783 
L 427.721958 283.553556 
L 438.525578 284.316262 
L 438.525578 284.316262 
" clip-path="url(#p5d155d1158)" style="fill: none; stroke: #0000ff; stroke-width: 2; stroke-linecap: square"/>
   </g>
   <g id="patch_4">
    <path d="M 26.930079 320.461862 
L 26.930079 7.2 
" style="fill: none; stroke: #000000; stroke-width: 0.8; stroke-linejoin: miter; stroke-linecap: square"/>
   </g>
   <g id="patch_5">
    <path d="M 36.930079 314.437595 
L 446.4 314.437595 
" style="fill: none; stroke: #000000; stroke-width: 0.8; stroke-linejoin: miter; stroke-linecap: square"/>
   </g>
  </g>
 </g>
 <defs>
  <clipPath id="p5d155d1158">
   <rect x="36.930079" y="7.2" width="409.469921" height="313.261862"/>
  </clipPath>
 </defs>
</svg>
