<?xml version="1.0" encoding="utf-8" standalone="no"?>
<!DOCTYPE svg PUBLIC "-//W3C//DTD SVG 1.1//EN"
  "http://www.w3.org/Graphics/SVG/1.1/DTD/svg11.dtd">
<svg xmlns:xlink="http://www.w3.org/1999/xlink" width="453.6pt" height="337.493272pt" viewBox="0 0 453.6 337.493272" xmlns="http://www.w3.org/2000/svg" version="1.1">
 <metadata>
  <rdf:RDF xmlns:dc="http://purl.org/dc/elements/1.1/" xmlns:cc="http://creativecommons.org/ns#" xmlns:rdf="http://www.w3.org/1999/02/22-rdf-syntax-ns#">
   <cc:Work>
    <dc:type rdf:resource="http://purl.org/dc/dcmitype/StillImage"/>
    <dc:date>2022-09-15T18:45:00.416316</dc:date>
    <dc:format>image/svg+xml</dc:format>
    <dc:creator>
     <cc:Agent>
      <dc:title>Matplotlib v3.5.1, https://matplotlib.org/</dc:title>
     </cc:Agent>
    </dc:creator>
   </cc:Work>
  </rdf:RDF>
 </metadata>
 <defs>
  <style type="text/css">*{stroke-linejoin: round; stroke-linecap: butt}</style>
 </defs>
 <g id="figure_1">
  <g id="patch_1">
   <path d="M 0 337.493272 
L 453.6 337.493272 
L 453.6 0 
L 0 0 
L 0 337.493272 
z
" style="fill: none"/>
  </g>
  <g id="axes_1">
   <g id="patch_2">
    <path d="M 36.930079 320.461862 
L 446.4 320.461862 
L 446.4 7.2 
L 36.930079 7.2 
L 36.930079 320.461862 
z
" style="fill: none"/>
   </g>
   <g id="patch_3">
    <path d="M 55.741197 314.437595 
L 55.741197 73.466932 
L 57.002666 78.900433 
L 58.264134 84.094304 
L 60.31858 92.079807 
L 61.572559 96.687468 
L 62.64138 100.466651 
L 64.990024 108.327176 
L 66.502181 113.089556 
L 68.014339 117.636828 
L 68.959818 120.377111 
L 70.770077 125.416385 
L 73.226174 131.849312 
L 74.947819 136.103634 
L 77.088495 141.124695 
L 78.176348 143.569485 
L 80.320008 148.190639 
L 83.24203 154.101465 
L 85.334575 158.082518 
L 86.693171 160.563071 
L 88.113998 163.074425 
L 90.698945 167.439222 
L 93.194304 171.420416 
L 93.366829 171.687714 
L 97.024652 177.12869 
L 97.325909 177.558379 
L 99.263176 180.25855 
L 101.820863 183.664438 
L 103.121967 185.33152 
L 104.797708 187.417006 
L 107.578548 190.733014 
L 109.029051 192.394879 
L 111.184909 194.783996 
L 112.853891 196.57028 
L 115.790933 199.587552 
L 116.48803 200.281145 
L 119.417732 203.106798 
L 121.843454 205.342637 
L 124.0253 207.278338 
L 124.340946 207.552702 
L 127.317704 210.072664 
L 128.521133 211.058012 
L 130.23277 212.427845 
L 132.608315 214.269941 
L 134.58038 215.749368 
L 137.326917 217.738452 
L 138.581227 218.620415 
L 140.112736 219.675716 
L 143.081126 221.656307 
L 144.895861 222.826882 
L 145.73413 223.357684 
L 148.121893 224.836475 
L 149.121032 225.441108 
L 151.094193 226.611519 
L 153.775067 228.153261 
L 156.382405 229.601661 
L 158.490447 230.737624 
L 160.241939 231.658569 
L 161.287954 232.198967 
L 163.655906 233.396625 
L 164.50413 233.817197 
L 167.019674 235.039189 
L 169.256932 236.095286 
L 171.125455 236.956027 
L 174.024011 238.254458 
L 175.059698 238.707912 
L 177.498051 239.754474 
L 178.982075 240.377387 
L 180.145775 240.858625 
L 182.573972 241.842912 
L 184.20062 242.487688 
L 186.144255 243.243249 
L 187.58664 243.793779 
L 190.390378 244.83991 
L 192.024208 245.435359 
L 194.978266 246.486493 
L 195.209441 246.567402 
L 197.566743 247.381566 
L 199.285582 247.963011 
L 202.008012 248.863593 
L 204.357176 249.621314 
L 206.169203 250.193924 
L 208.169497 250.814391 
L 210.27506 251.454695 
L 212.454128 252.103921 
L 213.473068 252.402931 
L 215.652515 253.032962 
L 217.535454 253.567063 
L 218.291319 253.778863 
L 221.814348 254.746908 
L 223.947119 255.318073 
L 224.352595 255.425427 
L 227.644004 256.282642 
L 229.669055 256.797781 
L 231.415845 257.23486 
L 233.598568 257.771788 
L 234.028954 257.876471 
L 237.050651 258.60069 
L 238.991164 259.056079 
L 239.852508 259.255843 
L 242.199557 259.79293 
L 243.468304 260.078934 
L 246.213855 260.687707 
L 248.284547 261.137899 
L 249.52174 261.403297 
L 252.503745 262.032254 
L 253.04324 262.144452 
L 256.284067 262.808463 
L 258.266167 263.206327 
L 259.441187 263.439306 
L 261.718176 263.884799 
L 263.482308 264.224637 
L 265.500558 264.607867 
L 267.929278 265.061352 
L 270.092565 265.458383 
L 271.961181 265.796227 
L 272.654842 265.920458 
L 274.236745 266.201407 
L 277.845974 266.830391 
L 279.168749 267.056825 
L 281.306514 267.41825 
L 282.338197 267.590708 
L 284.777697 267.99351 
L 286.329771 268.246197 
L 287.894204 268.498129 
L 291.117937 269.008701 
L 291.688584 269.0979 
L 293.641274 269.400495 
L 295.457969 269.678411 
L 298.274242 270.102527 
L 299.517576 270.287219 
L 302.212914 270.682365 
L 304.477723 271.008966 
L 305.951119 271.218834 
L 308.307591 271.550303 
L 310.228136 271.816716 
L 310.61711 271.870271 
L 313.703254 272.290456 
L 314.65962 272.418988 
L 317.239216 272.761801 
L 318.874289 272.976211 
L 320.803257 273.22634 
L 322.222695 273.408479 
L 325.79687 273.860058 
L 327.354319 274.053739 
L 328.196124 274.157656 
L 330.819171 274.478058 
L 332.380217 274.66633 
L 335.391423 275.024533 
L 335.920211 275.086771 
L 339.183171 275.466512 
L 340.587277 275.627675 
L 342.568577 275.852834 
L 343.700569 275.980307 
L 346.668427 276.31055 
L 348.119065 276.469913 
L 349.206637 276.588519 
L 352.079687 276.898307 
L 354.286492 277.132834 
L 355.667179 277.278082 
L 357.758369 277.495933 
L 359.312118 277.656149 
L 362.434426 277.973942 
L 362.645224 277.995199 
L 365.010728 278.232056 
L 367.336547 278.461956 
L 369.490937 278.672321 
L 370.365075 278.756976 
L 372.5345 278.965351 
L 374.207876 279.124425 
L 376.479862 279.338134 
L 378.285642 279.506154 
L 381.0754 279.76259 
L 382.6038 279.901492 
L 384.367649 280.060414 
L 386.672678 280.265905 
L 388.909687 280.462996 
L 390.998299 280.644972 
L 393.245843 280.83863 
L 394.626066 280.95646 
L 396.836563 281.143458 
L 397.48849 281.19821 
L 399.771117 281.388505 
L 402.469538 281.610672 
L 404.384434 281.766526 
L 404.87323 281.806072 
L 406.861466 281.965951 
L 410.290807 282.238061 
L 411.390338 282.324343 
L 413.380296 282.479328 
L 415.538662 282.645748 
L 418.300609 282.856194 
L 418.511808 282.872172 
L 421.883374 283.125067 
L 422.902248 283.200696 
L 425.184232 283.368764 
L 426.306358 283.450747 
L 429.217715 283.661448 
L 431.073083 283.794237 
L 432.575397 283.90092 
L 434.638288 284.046208 
L 437.501663 284.245596 
L 438.525578 284.316262 
L 438.525578 314.437595 
z
" clip-path="url(#p86d7a9e903)" style="fill: #808080; opacity: 0.5"/>
   </g>
   <g id="matplotlib.axis_1">
    <g id="xtick_1">
     <g id="line2d_1">
      <defs>
       <path id="m4c5ec107cc" d="M 0 0 
L 0 3.5 
" style="stroke: #000000; stroke-width: 0.8"/>
      </defs>
      <g>
       <use xlink:href="#m4c5ec107cc" x="55.741197" y="314.437595" style="stroke: #000000; stroke-width: 0.8"/>
      </g>
     </g>
     <g id="text_1">
      <!-- $\mathdefault{1}$ -->
      <g transform="translate(53.25053 328.356094)scale(0.1 -0.1)">
       <defs>
        <path id="CMR17-31" d="M 1702 4083 
C 1702 4217 1696 4224 1606 4224 
C 1357 3927 979 3833 621 3820 
C 602 3820 570 3820 563 3808 
C 557 3795 557 3782 557 3648 
C 755 3648 1088 3686 1344 3839 
L 1344 467 
C 1344 243 1331 166 781 166 
L 589 166 
L 589 0 
C 896 6 1216 12 1523 12 
C 1830 12 2150 6 2458 0 
L 2458 166 
L 2266 166 
C 1715 166 1702 236 1702 467 
L 1702 4083 
z
" transform="scale(0.015625)"/>
       </defs>
       <use xlink:href="#CMR17-31" transform="scale(0.996264)"/>
      </g>
     </g>
    </g>
    <g id="xtick_2">
     <g id="line2d_2">
      <g>
       <use xlink:href="#m4c5ec107cc" x="110.42468" y="314.437595" style="stroke: #000000; stroke-width: 0.8"/>
      </g>
     </g>
     <g id="text_2">
      <!-- $\mathdefault{2}$ -->
      <g transform="translate(107.934013 328.356094)scale(0.1 -0.1)">
       <defs>
        <path id="CMR17-32" d="M 2669 990 
L 2554 990 
C 2490 537 2438 460 2413 422 
C 2381 371 1920 371 1830 371 
L 602 371 
C 832 620 1280 1073 1824 1596 
C 2214 1966 2669 2400 2669 3033 
C 2669 3788 2067 4224 1395 4224 
C 691 4224 262 3603 262 3027 
C 262 2777 448 2745 525 2745 
C 589 2745 781 2783 781 3007 
C 781 3206 614 3264 525 3264 
C 486 3264 448 3257 422 3244 
C 544 3788 915 4057 1306 4057 
C 1862 4057 2227 3616 2227 3033 
C 2227 2477 1901 1998 1536 1583 
L 262 147 
L 262 0 
L 2515 0 
L 2669 990 
z
" transform="scale(0.015625)"/>
       </defs>
       <use xlink:href="#CMR17-32" transform="scale(0.996264)"/>
      </g>
     </g>
    </g>
    <g id="xtick_3">
     <g id="line2d_3">
      <g>
       <use xlink:href="#m4c5ec107cc" x="165.108163" y="314.437595" style="stroke: #000000; stroke-width: 0.8"/>
      </g>
     </g>
     <g id="text_3">
      <!-- $\mathdefault{3}$ -->
      <g transform="translate(162.617496 328.356094)scale(0.1 -0.1)">
       <defs>
        <path id="CMR17-33" d="M 1414 2176 
C 1984 2176 2234 1673 2234 1094 
C 2234 322 1824 25 1453 25 
C 1114 25 563 193 390 691 
C 422 678 454 678 486 678 
C 640 678 755 780 755 947 
C 755 1132 614 1216 486 1216 
C 378 1216 211 1164 211 927 
C 211 335 787 -128 1466 -128 
C 2176 -128 2720 432 2720 1087 
C 2720 1718 2208 2176 1600 2246 
C 2086 2347 2554 2776 2554 3353 
C 2554 3856 2048 4224 1472 4224 
C 890 4224 378 3862 378 3347 
C 378 3123 544 3084 627 3084 
C 762 3084 877 3167 877 3334 
C 877 3500 762 3584 627 3584 
C 602 3584 570 3584 544 3571 
C 730 3999 1235 4076 1459 4076 
C 1683 4076 2106 3966 2106 3347 
C 2106 3167 2080 2851 1862 2574 
C 1670 2329 1453 2316 1242 2297 
C 1210 2297 1062 2284 1037 2284 
C 992 2278 966 2272 966 2227 
C 966 2182 973 2176 1101 2176 
L 1414 2176 
z
" transform="scale(0.015625)"/>
       </defs>
       <use xlink:href="#CMR17-33" transform="scale(0.996264)"/>
      </g>
     </g>
    </g>
    <g id="xtick_4">
     <g id="line2d_4">
      <g>
       <use xlink:href="#m4c5ec107cc" x="219.791646" y="314.437595" style="stroke: #000000; stroke-width: 0.8"/>
      </g>
     </g>
     <g id="text_4">
      <!-- $\mathdefault{4}$ -->
      <g transform="translate(217.300979 328.356094)scale(0.1 -0.1)">
       <defs>
        <path id="CMR17-34" d="M 2150 4147 
C 2150 4281 2144 4288 2029 4288 
L 128 1254 
L 128 1088 
L 1779 1088 
L 1779 460 
C 1779 230 1766 166 1318 166 
L 1197 166 
L 1197 0 
C 1402 12 1747 12 1965 12 
C 2182 12 2528 12 2733 0 
L 2733 166 
L 2611 166 
C 2163 166 2150 230 2150 460 
L 2150 1088 
L 2803 1088 
L 2803 1254 
L 2150 1254 
L 2150 4147 
z
M 1798 3723 
L 1798 1254 
L 256 1254 
L 1798 3723 
z
" transform="scale(0.015625)"/>
       </defs>
       <use xlink:href="#CMR17-34" transform="scale(0.996264)"/>
      </g>
     </g>
    </g>
    <g id="xtick_5">
     <g id="line2d_5">
      <g>
       <use xlink:href="#m4c5ec107cc" x="274.475129" y="314.437595" style="stroke: #000000; stroke-width: 0.8"/>
      </g>
     </g>
     <g id="text_5">
      <!-- $\mathdefault{5}$ -->
      <g transform="translate(271.984462 328.356094)scale(0.1 -0.1)">
       <defs>
        <path id="CMR17-35" d="M 730 3750 
C 794 3724 1056 3641 1325 3641 
C 1920 3641 2246 3961 2432 4140 
C 2432 4191 2432 4224 2394 4224 
C 2387 4224 2374 4224 2323 4198 
C 2099 4102 1837 4032 1517 4032 
C 1325 4032 1037 4055 723 4191 
C 653 4224 640 4224 634 4224 
C 602 4224 595 4217 595 4090 
L 595 2231 
C 595 2113 595 2080 659 2080 
C 691 2080 704 2093 736 2139 
C 941 2435 1222 2560 1542 2560 
C 1766 2560 2246 2415 2246 1293 
C 2246 1087 2246 716 2054 422 
C 1894 159 1645 25 1370 25 
C 947 25 518 319 403 812 
C 429 806 480 793 506 793 
C 589 793 749 838 749 1036 
C 749 1209 627 1280 506 1280 
C 358 1280 262 1190 262 1011 
C 262 454 704 -128 1382 -128 
C 2042 -128 2669 441 2669 1267 
C 2669 2054 2170 2662 1549 2662 
C 1222 2662 947 2540 730 2304 
L 730 3750 
z
" transform="scale(0.015625)"/>
       </defs>
       <use xlink:href="#CMR17-35" transform="scale(0.996264)"/>
      </g>
     </g>
    </g>
    <g id="xtick_6">
     <g id="line2d_6">
      <g>
       <use xlink:href="#m4c5ec107cc" x="329.158612" y="314.437595" style="stroke: #000000; stroke-width: 0.8"/>
      </g>
     </g>
     <g id="text_6">
      <!-- $\mathdefault{6}$ -->
      <g transform="translate(326.667945 328.356094)scale(0.1 -0.1)">
       <defs>
        <path id="CMR17-36" d="M 678 2198 
C 678 3712 1395 4076 1811 4076 
C 1946 4076 2272 4049 2400 3782 
C 2298 3782 2106 3782 2106 3558 
C 2106 3385 2246 3328 2336 3328 
C 2394 3328 2566 3353 2566 3571 
C 2566 3987 2246 4224 1805 4224 
C 1043 4224 243 3411 243 2011 
C 243 257 966 -128 1478 -128 
C 2099 -128 2688 431 2688 1295 
C 2688 2101 2170 2688 1517 2688 
C 1126 2688 838 2430 678 1979 
L 678 2198 
z
M 1478 25 
C 691 25 691 1212 691 1450 
C 691 1914 909 2585 1504 2585 
C 1613 2585 1926 2585 2138 2140 
C 2253 1889 2253 1624 2253 1302 
C 2253 954 2253 696 2118 438 
C 1978 173 1773 25 1478 25 
z
" transform="scale(0.015625)"/>
       </defs>
       <use xlink:href="#CMR17-36" transform="scale(0.996264)"/>
      </g>
     </g>
    </g>
    <g id="xtick_7">
     <g id="line2d_7">
      <g>
       <use xlink:href="#m4c5ec107cc" x="383.842095" y="314.437595" style="stroke: #000000; stroke-width: 0.8"/>
      </g>
     </g>
     <g id="text_7">
      <!-- $\mathdefault{7}$ -->
      <g transform="translate(381.351428 328.356094)scale(0.1 -0.1)">
       <defs>
        <path id="CMR17-37" d="M 2886 3955 
L 2886 4096 
L 1382 4096 
C 634 4096 621 4166 595 4288 
L 480 4288 
L 294 3104 
L 410 3104 
C 429 3226 474 3552 550 3673 
C 589 3724 1062 3724 1171 3724 
L 2579 3724 
L 1869 2670 
C 1395 1961 1069 1003 1069 166 
C 1069 89 1069 -128 1299 -128 
C 1530 -128 1530 89 1530 172 
L 1530 466 
C 1530 1514 1709 2204 2003 2644 
L 2886 3955 
z
" transform="scale(0.015625)"/>
       </defs>
       <use xlink:href="#CMR17-37" transform="scale(0.996264)"/>
      </g>
     </g>
    </g>
    <g id="xtick_8">
     <g id="line2d_8">
      <g>
       <use xlink:href="#m4c5ec107cc" x="438.525578" y="314.437595" style="stroke: #000000; stroke-width: 0.8"/>
      </g>
     </g>
     <g id="text_8">
      <!-- $\mathdefault{8}$ -->
      <g transform="translate(436.034911 328.356094)scale(0.1 -0.1)">
       <defs>
        <path id="CMR17-38" d="M 1741 2289 
C 2144 2494 2554 2803 2554 3298 
C 2554 3884 1990 4224 1472 4224 
C 890 4224 378 3800 378 3215 
C 378 3054 416 2777 666 2533 
C 730 2469 998 2276 1171 2154 
C 883 2006 211 1652 211 945 
C 211 282 838 -128 1459 -128 
C 2144 -128 2720 366 2720 1022 
C 2720 1607 2330 1877 2074 2051 
L 1741 2289 
z
M 902 2855 
C 851 2887 595 3086 595 3388 
C 595 3781 998 4076 1459 4076 
C 1965 4076 2336 3716 2336 3298 
C 2336 2700 1670 2359 1638 2359 
C 1632 2359 1626 2359 1574 2398 
L 902 2855 
z
M 2080 1536 
C 2176 1466 2483 1253 2483 861 
C 2483 385 2010 25 1472 25 
C 890 25 448 443 448 951 
C 448 1459 838 1884 1280 2083 
L 2080 1536 
z
" transform="scale(0.015625)"/>
       </defs>
       <use xlink:href="#CMR17-38" transform="scale(0.996264)"/>
      </g>
     </g>
    </g>
    <g id="xtick_9">
     <g id="line2d_9">
      <defs>
       <path id="madccbb432a" d="M 0 0 
L 0 2 
" style="stroke: #000000; stroke-width: 0.6"/>
      </defs>
      <g>
       <use xlink:href="#madccbb432a" x="44.804501" y="314.437595" style="stroke: #000000; stroke-width: 0.6"/>
      </g>
     </g>
    </g>
    <g id="xtick_10">
     <g id="line2d_10">
      <g>
       <use xlink:href="#madccbb432a" x="66.677894" y="314.437595" style="stroke: #000000; stroke-width: 0.6"/>
      </g>
     </g>
    </g>
    <g id="xtick_11">
     <g id="line2d_11">
      <g>
       <use xlink:href="#madccbb432a" x="77.61459" y="314.437595" style="stroke: #000000; stroke-width: 0.6"/>
      </g>
     </g>
    </g>
    <g id="xtick_12">
     <g id="line2d_12">
      <g>
       <use xlink:href="#madccbb432a" x="88.551287" y="314.437595" style="stroke: #000000; stroke-width: 0.6"/>
      </g>
     </g>
    </g>
    <g id="xtick_13">
     <g id="line2d_13">
      <g>
       <use xlink:href="#madccbb432a" x="99.487984" y="314.437595" style="stroke: #000000; stroke-width: 0.6"/>
      </g>
     </g>
    </g>
    <g id="xtick_14">
     <g id="line2d_14">
      <g>
       <use xlink:href="#madccbb432a" x="121.361377" y="314.437595" style="stroke: #000000; stroke-width: 0.6"/>
      </g>
     </g>
    </g>
    <g id="xtick_15">
     <g id="line2d_15">
      <g>
       <use xlink:href="#madccbb432a" x="132.298073" y="314.437595" style="stroke: #000000; stroke-width: 0.6"/>
      </g>
     </g>
    </g>
    <g id="xtick_16">
     <g id="line2d_16">
      <g>
       <use xlink:href="#madccbb432a" x="143.23477" y="314.437595" style="stroke: #000000; stroke-width: 0.6"/>
      </g>
     </g>
    </g>
    <g id="xtick_17">
     <g id="line2d_17">
      <g>
       <use xlink:href="#madccbb432a" x="154.171467" y="314.437595" style="stroke: #000000; stroke-width: 0.6"/>
      </g>
     </g>
    </g>
    <g id="xtick_18">
     <g id="line2d_18">
      <g>
       <use xlink:href="#madccbb432a" x="176.04486" y="314.437595" style="stroke: #000000; stroke-width: 0.6"/>
      </g>
     </g>
    </g>
    <g id="xtick_19">
     <g id="line2d_19">
      <g>
       <use xlink:href="#madccbb432a" x="186.981556" y="314.437595" style="stroke: #000000; stroke-width: 0.6"/>
      </g>
     </g>
    </g>
    <g id="xtick_20">
     <g id="line2d_20">
      <g>
       <use xlink:href="#madccbb432a" x="197.918253" y="314.437595" style="stroke: #000000; stroke-width: 0.6"/>
      </g>
     </g>
    </g>
    <g id="xtick_21">
     <g id="line2d_21">
      <g>
       <use xlink:href="#madccbb432a" x="208.85495" y="314.437595" style="stroke: #000000; stroke-width: 0.6"/>
      </g>
     </g>
    </g>
    <g id="xtick_22">
     <g id="line2d_22">
      <g>
       <use xlink:href="#madccbb432a" x="230.728343" y="314.437595" style="stroke: #000000; stroke-width: 0.6"/>
      </g>
     </g>
    </g>
    <g id="xtick_23">
     <g id="line2d_23">
      <g>
       <use xlink:href="#madccbb432a" x="241.665039" y="314.437595" style="stroke: #000000; stroke-width: 0.6"/>
      </g>
     </g>
    </g>
    <g id="xtick_24">
     <g id="line2d_24">
      <g>
       <use xlink:href="#madccbb432a" x="252.601736" y="314.437595" style="stroke: #000000; stroke-width: 0.6"/>
      </g>
     </g>
    </g>
    <g id="xtick_25">
     <g id="line2d_25">
      <g>
       <use xlink:href="#madccbb432a" x="263.538433" y="314.437595" style="stroke: #000000; stroke-width: 0.6"/>
      </g>
     </g>
    </g>
    <g id="xtick_26">
     <g id="line2d_26">
      <g>
       <use xlink:href="#madccbb432a" x="285.411826" y="314.437595" style="stroke: #000000; stroke-width: 0.6"/>
      </g>
     </g>
    </g>
    <g id="xtick_27">
     <g id="line2d_27">
      <g>
       <use xlink:href="#madccbb432a" x="296.348523" y="314.437595" style="stroke: #000000; stroke-width: 0.6"/>
      </g>
     </g>
    </g>
    <g id="xtick_28">
     <g id="line2d_28">
      <g>
       <use xlink:href="#madccbb432a" x="307.285219" y="314.437595" style="stroke: #000000; stroke-width: 0.6"/>
      </g>
     </g>
    </g>
    <g id="xtick_29">
     <g id="line2d_29">
      <g>
       <use xlink:href="#madccbb432a" x="318.221916" y="314.437595" style="stroke: #000000; stroke-width: 0.6"/>
      </g>
     </g>
    </g>
    <g id="xtick_30">
     <g id="line2d_30">
      <g>
       <use xlink:href="#madccbb432a" x="340.095309" y="314.437595" style="stroke: #000000; stroke-width: 0.6"/>
      </g>
     </g>
    </g>
    <g id="xtick_31">
     <g id="line2d_31">
      <g>
       <use xlink:href="#madccbb432a" x="351.032006" y="314.437595" style="stroke: #000000; stroke-width: 0.6"/>
      </g>
     </g>
    </g>
    <g id="xtick_32">
     <g id="line2d_32">
      <g>
       <use xlink:href="#madccbb432a" x="361.968702" y="314.437595" style="stroke: #000000; stroke-width: 0.6"/>
      </g>
     </g>
    </g>
    <g id="xtick_33">
     <g id="line2d_33">
      <g>
       <use xlink:href="#madccbb432a" x="372.905399" y="314.437595" style="stroke: #000000; stroke-width: 0.6"/>
      </g>
     </g>
    </g>
    <g id="xtick_34">
     <g id="line2d_34">
      <g>
       <use xlink:href="#madccbb432a" x="394.778792" y="314.437595" style="stroke: #000000; stroke-width: 0.6"/>
      </g>
     </g>
    </g>
    <g id="xtick_35">
     <g id="line2d_35">
      <g>
       <use xlink:href="#madccbb432a" x="405.715489" y="314.437595" style="stroke: #000000; stroke-width: 0.6"/>
      </g>
     </g>
    </g>
    <g id="xtick_36">
     <g id="line2d_36">
      <g>
       <use xlink:href="#madccbb432a" x="416.652185" y="314.437595" style="stroke: #000000; stroke-width: 0.6"/>
      </g>
     </g>
    </g>
    <g id="xtick_37">
     <g id="line2d_37">
      <g>
       <use xlink:href="#madccbb432a" x="427.588882" y="314.437595" style="stroke: #000000; stroke-width: 0.6"/>
      </g>
     </g>
    </g>
   </g>
   <g id="matplotlib.axis_2">
    <g id="ytick_1">
     <g id="line2d_38">
      <defs>
       <path id="maee3eba140" d="M 0 0 
L -3.5 0 
" style="stroke: #000000; stroke-width: 0.8"/>
      </defs>
      <g>
       <use xlink:href="#maee3eba140" x="26.930079" y="314.437595" style="stroke: #000000; stroke-width: 0.8"/>
      </g>
     </g>
     <g id="text_9">
      <!-- $\mathdefault{0.0}$ -->
      <g transform="translate(7.2 317.896844)scale(0.1 -0.1)">
       <defs>
        <path id="CMR17-30" d="M 2688 2038 
C 2688 2430 2682 3099 2413 3613 
C 2176 4063 1798 4224 1466 4224 
C 1158 4224 768 4082 525 3620 
C 269 3137 243 2539 243 2038 
C 243 1671 250 1112 448 623 
C 723 -39 1216 -128 1466 -128 
C 1760 -128 2208 -7 2470 604 
C 2662 1048 2688 1568 2688 2038 
z
M 1466 -26 
C 1056 -26 813 328 723 816 
C 653 1196 653 1749 653 2109 
C 653 2604 653 3015 736 3407 
C 858 3954 1216 4121 1466 4121 
C 1728 4121 2067 3947 2189 3420 
C 2272 3054 2278 2623 2278 2109 
C 2278 1691 2278 1176 2202 797 
C 2067 96 1690 -26 1466 -26 
z
" transform="scale(0.015625)"/>
        <path id="CMMI12-3a" d="M 1178 307 
C 1178 492 1024 620 870 620 
C 685 620 557 467 557 313 
C 557 128 710 0 864 0 
C 1050 0 1178 153 1178 307 
z
" transform="scale(0.015625)"/>
       </defs>
       <use xlink:href="#CMR17-30" transform="scale(0.996264)"/>
       <use xlink:href="#CMMI12-3a" transform="translate(45.690477 0)scale(0.996264)"/>
       <use xlink:href="#CMR17-30" transform="translate(72.787654 0)scale(0.996264)"/>
      </g>
     </g>
    </g>
    <g id="ytick_2">
     <g id="line2d_39">
      <g>
       <use xlink:href="#maee3eba140" x="26.930079" y="266.243463" style="stroke: #000000; stroke-width: 0.8"/>
      </g>
     </g>
     <g id="text_10">
      <!-- $\mathdefault{0.2}$ -->
      <g transform="translate(7.2 269.702712)scale(0.1 -0.1)">
       <use xlink:href="#CMR17-30" transform="scale(0.996264)"/>
       <use xlink:href="#CMMI12-3a" transform="translate(45.690477 0)scale(0.996264)"/>
       <use xlink:href="#CMR17-32" transform="translate(72.787654 0)scale(0.996264)"/>
      </g>
     </g>
    </g>
    <g id="ytick_3">
     <g id="line2d_40">
      <g>
       <use xlink:href="#maee3eba140" x="26.930079" y="218.04933" style="stroke: #000000; stroke-width: 0.8"/>
      </g>
     </g>
     <g id="text_11">
      <!-- $\mathdefault{0.4}$ -->
      <g transform="translate(7.2 221.508579)scale(0.1 -0.1)">
       <use xlink:href="#CMR17-30" transform="scale(0.996264)"/>
       <use xlink:href="#CMMI12-3a" transform="translate(45.690477 0)scale(0.996264)"/>
       <use xlink:href="#CMR17-34" transform="translate(72.787654 0)scale(0.996264)"/>
      </g>
     </g>
    </g>
    <g id="ytick_4">
     <g id="line2d_41">
      <g>
       <use xlink:href="#maee3eba140" x="26.930079" y="169.855197" style="stroke: #000000; stroke-width: 0.8"/>
      </g>
     </g>
     <g id="text_12">
      <!-- $\mathdefault{0.6}$ -->
      <g transform="translate(7.2 173.314447)scale(0.1 -0.1)">
       <use xlink:href="#CMR17-30" transform="scale(0.996264)"/>
       <use xlink:href="#CMMI12-3a" transform="translate(45.690477 0)scale(0.996264)"/>
       <use xlink:href="#CMR17-36" transform="translate(72.787654 0)scale(0.996264)"/>
      </g>
     </g>
    </g>
    <g id="ytick_5">
     <g id="line2d_42">
      <g>
       <use xlink:href="#maee3eba140" x="26.930079" y="121.661065" style="stroke: #000000; stroke-width: 0.8"/>
      </g>
     </g>
     <g id="text_13">
      <!-- $\mathdefault{0.8}$ -->
      <g transform="translate(7.2 125.120314)scale(0.1 -0.1)">
       <use xlink:href="#CMR17-30" transform="scale(0.996264)"/>
       <use xlink:href="#CMMI12-3a" transform="translate(45.690477 0)scale(0.996264)"/>
       <use xlink:href="#CMR17-38" transform="translate(72.787654 0)scale(0.996264)"/>
      </g>
     </g>
    </g>
    <g id="ytick_6">
     <g id="line2d_43">
      <g>
       <use xlink:href="#maee3eba140" x="26.930079" y="73.466932" style="stroke: #000000; stroke-width: 0.8"/>
      </g>
     </g>
     <g id="text_14">
      <!-- $\mathdefault{1.0}$ -->
      <g transform="translate(7.2 76.926181)scale(0.1 -0.1)">
       <use xlink:href="#CMR17-31" transform="scale(0.996264)"/>
       <use xlink:href="#CMMI12-3a" transform="translate(45.690477 0)scale(0.996264)"/>
       <use xlink:href="#CMR17-30" transform="translate(72.787654 0)scale(0.996264)"/>
      </g>
     </g>
    </g>
    <g id="ytick_7">
     <g id="line2d_44">
      <g>
       <use xlink:href="#maee3eba140" x="26.930079" y="25.2728" style="stroke: #000000; stroke-width: 0.8"/>
      </g>
     </g>
     <g id="text_15">
      <!-- $\mathdefault{1.2}$ -->
      <g transform="translate(7.2 28.732049)scale(0.1 -0.1)">
       <use xlink:href="#CMR17-31" transform="scale(0.996264)"/>
       <use xlink:href="#CMMI12-3a" transform="translate(45.690477 0)scale(0.996264)"/>
       <use xlink:href="#CMR17-32" transform="translate(72.787654 0)scale(0.996264)"/>
      </g>
     </g>
    </g>
    <g id="ytick_8">
     <g id="line2d_45">
      <defs>
       <path id="m32b02e69e1" d="M 0 0 
L -2 0 
" style="stroke: #000000; stroke-width: 0.6"/>
      </defs>
      <g>
       <use xlink:href="#m32b02e69e1" x="26.930079" y="302.389062" style="stroke: #000000; stroke-width: 0.6"/>
      </g>
     </g>
    </g>
    <g id="ytick_9">
     <g id="line2d_46">
      <g>
       <use xlink:href="#m32b02e69e1" x="26.930079" y="290.340529" style="stroke: #000000; stroke-width: 0.6"/>
      </g>
     </g>
    </g>
    <g id="ytick_10">
     <g id="line2d_47">
      <g>
       <use xlink:href="#m32b02e69e1" x="26.930079" y="278.291996" style="stroke: #000000; stroke-width: 0.6"/>
      </g>
     </g>
    </g>
    <g id="ytick_11">
     <g id="line2d_48">
      <g>
       <use xlink:href="#m32b02e69e1" x="26.930079" y="254.194929" style="stroke: #000000; stroke-width: 0.6"/>
      </g>
     </g>
    </g>
    <g id="ytick_12">
     <g id="line2d_49">
      <g>
       <use xlink:href="#m32b02e69e1" x="26.930079" y="242.146396" style="stroke: #000000; stroke-width: 0.6"/>
      </g>
     </g>
    </g>
    <g id="ytick_13">
     <g id="line2d_50">
      <g>
       <use xlink:href="#m32b02e69e1" x="26.930079" y="230.097863" style="stroke: #000000; stroke-width: 0.6"/>
      </g>
     </g>
    </g>
    <g id="ytick_14">
     <g id="line2d_51">
      <g>
       <use xlink:href="#m32b02e69e1" x="26.930079" y="206.000797" style="stroke: #000000; stroke-width: 0.6"/>
      </g>
     </g>
    </g>
    <g id="ytick_15">
     <g id="line2d_52">
      <g>
       <use xlink:href="#m32b02e69e1" x="26.930079" y="193.952264" style="stroke: #000000; stroke-width: 0.6"/>
      </g>
     </g>
    </g>
    <g id="ytick_16">
     <g id="line2d_53">
      <g>
       <use xlink:href="#m32b02e69e1" x="26.930079" y="181.903731" style="stroke: #000000; stroke-width: 0.6"/>
      </g>
     </g>
    </g>
    <g id="ytick_17">
     <g id="line2d_54">
      <g>
       <use xlink:href="#m32b02e69e1" x="26.930079" y="157.806664" style="stroke: #000000; stroke-width: 0.6"/>
      </g>
     </g>
    </g>
    <g id="ytick_18">
     <g id="line2d_55">
      <g>
       <use xlink:href="#m32b02e69e1" x="26.930079" y="145.758131" style="stroke: #000000; stroke-width: 0.6"/>
      </g>
     </g>
    </g>
    <g id="ytick_19">
     <g id="line2d_56">
      <g>
       <use xlink:href="#m32b02e69e1" x="26.930079" y="133.709598" style="stroke: #000000; stroke-width: 0.6"/>
      </g>
     </g>
    </g>
    <g id="ytick_20">
     <g id="line2d_57">
      <g>
       <use xlink:href="#m32b02e69e1" x="26.930079" y="109.612532" style="stroke: #000000; stroke-width: 0.6"/>
      </g>
     </g>
    </g>
    <g id="ytick_21">
     <g id="line2d_58">
      <g>
       <use xlink:href="#m32b02e69e1" x="26.930079" y="97.563999" style="stroke: #000000; stroke-width: 0.6"/>
      </g>
     </g>
    </g>
    <g id="ytick_22">
     <g id="line2d_59">
      <g>
       <use xlink:href="#m32b02e69e1" x="26.930079" y="85.515465" style="stroke: #000000; stroke-width: 0.6"/>
      </g>
     </g>
    </g>
    <g id="ytick_23">
     <g id="line2d_60">
      <g>
       <use xlink:href="#m32b02e69e1" x="26.930079" y="61.418399" style="stroke: #000000; stroke-width: 0.6"/>
      </g>
     </g>
    </g>
    <g id="ytick_24">
     <g id="line2d_61">
      <g>
       <use xlink:href="#m32b02e69e1" x="26.930079" y="49.369866" style="stroke: #000000; stroke-width: 0.6"/>
      </g>
     </g>
    </g>
    <g id="ytick_25">
     <g id="line2d_62">
      <g>
       <use xlink:href="#m32b02e69e1" x="26.930079" y="37.321333" style="stroke: #000000; stroke-width: 0.6"/>
      </g>
     </g>
    </g>
    <g id="ytick_26">
     <g id="line2d_63">
      <g>
       <use xlink:href="#m32b02e69e1" x="26.930079" y="13.224267" style="stroke: #000000; stroke-width: 0.6"/>
      </g>
     </g>
    </g>
   </g>
   <g id="line2d_64">
    <path d="M 55.741197 314.437595 
L 55.741197 73.466932 
" clip-path="url(#p86d7a9e903)" style="fill: none; stroke: #000000; stroke-linecap: square"/>
   </g>
   <g id="line2d_65">
    <path d="M 55.741197 73.466932 
L 58.264134 84.094304 
L 61.572559 96.687468 
L 62.64138 100.466651 
L 66.502181 113.089556 
L 68.959818 120.377111 
L 70.770077 125.416385 
L 74.947819 136.103634 
L 78.176348 143.569485 
L 80.320008 148.190639 
L 83.24203 154.101465 
L 86.693171 160.563071 
L 90.698945 167.439222 
L 93.366829 171.687714 
L 97.325909 177.558379 
L 101.820863 183.664438 
L 104.797708 187.417006 
L 109.029051 192.394879 
L 112.853891 196.57028 
L 116.48803 200.281145 
L 121.843454 205.342637 
L 127.317704 210.072664 
L 132.608315 214.269941 
L 138.581227 218.620415 
L 143.081126 221.656307 
L 149.121032 225.441108 
L 153.775067 228.153261 
L 160.241939 231.658569 
L 167.019674 235.039189 
L 174.024011 238.254458 
L 180.145775 240.858625 
L 187.58664 243.793779 
L 195.209441 246.567402 
L 204.357176 249.621314 
L 213.473068 252.402931 
L 223.947119 255.318073 
L 234.028954 257.876471 
L 246.213855 260.687707 
L 258.266167 263.206327 
L 270.092565 265.458383 
L 282.338197 267.590708 
L 295.457969 269.678411 
L 310.61711 271.870271 
L 328.196124 274.157656 
L 346.668427 276.31055 
L 365.010728 278.232056 
L 386.672678 280.265905 
L 410.290807 282.238061 
L 434.638288 284.046208 
L 438.525578 284.316262 
L 438.525578 284.316262 
" clip-path="url(#p86d7a9e903)" style="fill: none; stroke: #0000ff; stroke-linecap: square"/>
   </g>
   <g id="line2d_66">
    <path d="M 44.804501 13.224267 
L 46.457509 24.191457 
L 49.087221 40.083015 
L 51.699911 54.237291 
L 54.385334 67.340217 
L 56.176298 75.369131 
L 59.569809 89.234326 
L 62.497639 99.966057 
L 65.135766 108.795964 
L 68.032713 117.690818 
L 71.15839 126.463441 
L 74.46171 134.922638 
L 78.312661 143.870976 
L 80.175293 147.886553 
L 82.629292 152.897074 
L 86.791495 160.739542 
L 90.618452 167.307106 
L 94.698231 173.717364 
L 98.374059 179.032642 
L 101.43023 183.155491 
L 106.049401 188.931323 
L 110.57337 194.115847 
L 114.403284 198.181484 
L 119.253258 202.951877 
L 123.482765 206.803454 
L 128.978637 211.427744 
L 132.889093 214.483281 
L 139.665039 219.369639 
L 144.824103 222.781157 
L 148.893005 225.303836 
L 156.24673 229.527493 
L 162.444931 232.788531 
L 169.059092 236.003029 
L 175.158275 238.750791 
L 182.389828 241.769192 
L 189.664867 244.57219 
L 198.151891 247.580647 
L 206.769739 250.38147 
L 216.620551 253.308713 
L 226.923502 256.09713 
L 236.157382 258.388536 
L 247.760097 261.024592 
L 259.654739 263.481421 
L 271.459298 265.705946 
L 283.851179 267.841345 
L 298.500463 270.136246 
L 313.564625 272.271759 
L 331.017526 274.50208 
L 348.761898 276.540107 
L 366.420228 278.37173 
L 389.13111 280.482381 
L 409.952837 282.211446 
L 435.826385 284.129259 
L 438.525578 284.316262 
L 438.525578 284.316262 
" clip-path="url(#p86d7a9e903)" style="fill: none; stroke: #0000ff; stroke-width: 2; stroke-linecap: square"/>
   </g>
   <g id="patch_4">
    <path d="M 26.930079 320.461862 
L 26.930079 7.2 
" style="fill: none; stroke: #000000; stroke-width: 0.8; stroke-linejoin: miter; stroke-linecap: square"/>
   </g>
   <g id="patch_5">
    <path d="M 36.930079 314.437595 
L 446.4 314.437595 
" style="fill: none; stroke: #000000; stroke-width: 0.8; stroke-linejoin: miter; stroke-linecap: square"/>
   </g>
  </g>
 </g>
 <defs>
  <clipPath id="p86d7a9e903">
   <rect x="36.930079" y="7.2" width="409.469921" height="313.261862"/>
  </clipPath>
 </defs>
</svg>
