<?xml version="1.0" encoding="utf-8" standalone="no"?>
<!DOCTYPE svg PUBLIC "-//W3C//DTD SVG 1.1//EN"
  "http://www.w3.org/Graphics/SVG/1.1/DTD/svg11.dtd">
<svg xmlns:xlink="http://www.w3.org/1999/xlink" width="451.536877pt" height="337.114942pt" viewBox="0 0 451.536877 337.114942" xmlns="http://www.w3.org/2000/svg" version="1.1">
 <metadata>
  <rdf:RDF xmlns:dc="http://purl.org/dc/elements/1.1/" xmlns:cc="http://creativecommons.org/ns#" xmlns:rdf="http://www.w3.org/1999/02/22-rdf-syntax-ns#">
   <cc:Work>
    <dc:type rdf:resource="http://purl.org/dc/dcmitype/StillImage"/>
    <dc:date>2022-12-21T16:28:49.425606</dc:date>
    <dc:format>image/svg+xml</dc:format>
    <dc:creator>
     <cc:Agent>
      <dc:title>Matplotlib v3.5.2, https://matplotlib.org/</dc:title>
     </cc:Agent>
    </dc:creator>
   </cc:Work>
  </rdf:RDF>
 </metadata>
 <defs>
  <style type="text/css">*{stroke-linejoin: round; stroke-linecap: butt}</style>
 </defs>
 <g id="figure_1">
  <g id="patch_1">
   <path d="M 0 337.114942 
L 451.536877 337.114942 
L 451.536877 0 
L 0 0 
L 0 337.114942 
z
" style="fill: none"/>
  </g>
  <g id="axes_1">
   <g id="patch_2">
    <path d="M 16.50304 319.237538 
L 442.994893 319.237538 
L 442.994893 7.2 
L 16.50304 7.2 
L 16.50304 319.237538 
z
" style="fill: none"/>
   </g>
   <g id="patch_3">
    <path d="M 434.793127 13.200722 
L 434.726052 20.253606 
L 434.658977 20.253606 
L 434.524828 20.253606 
L 434.25653 20.253606 
L 433.719933 20.253606 
L 432.64674 20.253606 
L 430.850274 20.253606 
L 430.741375 20.253606 
L 430.686925 20.253606 
L 430.632475 18.395809 
L 430.414677 18.395809 
L 429.979079 18.395809 
L 429.107883 18.395809 
L 427.33932 18.395809 
L 426.611891 18.395809 
L 426.520962 18.395809 
L 426.430033 22.217185 
L 426.248176 22.217185 
L 425.884461 22.217185 
L 424.429602 22.217185 
L 422.19298 22.651951 
L 420.633654 22.651951 
L 419.288582 22.651951 
L 418.616046 22.651951 
L 418.279778 22.651951 
L 418.195711 21.928302 
L 418.111645 21.928302 
L 417.943511 21.928302 
L 416.037839 21.928302 
L 414.953684 21.928302 
L 414.47954 21.928302 
L 414.242469 21.928302 
L 414.123933 21.928302 
L 414.005397 23.549235 
L 413.057111 23.549235 
L 411.160539 23.549235 
L 410.926579 23.549235 
L 410.289125 23.549235 
L 409.970398 23.549235 
L 409.890717 22.819672 
L 409.811035 22.819672 
L 409.651671 22.819672 
L 408.376764 22.819672 
L 406.112258 22.819672 
L 405.923237 22.819672 
L 405.828727 22.819672 
L 405.781471 24.485532 
L 405.734216 24.485532 
L 405.356175 24.485532 
L 404.600092 24.485532 
L 402.15099 24.485532 
L 401.863942 24.485532 
L 401.720418 24.485532 
L 401.648656 28.625786 
L 401.576894 28.625786 
L 401.002798 28.625786 
L 399.854606 28.625786 
L 398.624047 28.625786 
L 397.817191 28.625786 
L 397.615477 28.625786 
L 397.51462 28.625786 
L 397.413763 27.92831 
L 397.010335 27.92831 
L 395.396622 27.92831 
L 394.379602 27.92831 
L 393.37013 27.92831 
L 393.307038 25.968878 
L 393.243946 25.968878 
L 393.117762 25.968878 
L 392.865395 25.968878 
L 392.360659 25.968878 
L 389.384619 25.968878 
L 389.300028 25.968878 
L 389.215437 25.225358 
L 389.046255 25.225358 
L 388.707891 25.225358 
L 388.031162 25.225358 
L 386.677706 25.225358 
L 385.47868 25.225358 
L 385.140535 25.225358 
L 385.098267 25.225358 
L 385.055999 27.014609 
L 384.971462 27.014609 
L 384.80239 27.014609 
L 384.126099 27.014609 
L 381.542782 27.014609 
L 379.988722 27.555714 
L 378.199807 27.555714 
L 377.30535 27.555714 
L 376.858121 27.555714 
L 376.746314 26.80462 
L 376.634507 26.80462 
L 376.410893 26.80462 
L 375.788709 26.80462 
L 371.941435 27.356108 
L 370.44703 27.356108 
L 369.222385 27.356108 
L 368.610063 27.356108 
L 368.533522 27.356108 
L 368.456982 25.248137 
L 368.303902 25.248137 
L 367.99774 25.248137 
L 367.653855 25.248137 
L 365.739468 25.248137 
L 364.782275 25.248137 
L 364.542976 25.248137 
L 364.423327 25.248137 
L 364.303678 28.499438 
L 363.825081 28.499438 
L 361.775245 28.499438 
L 361.332921 28.499438 
L 360.590815 28.499438 
L 360.405288 28.499438 
L 360.312525 28.499438 
L 360.219762 26.353533 
L 359.848709 26.353533 
L 358.364496 26.353533 
L 356.618765 26.353533 
L 356.25365 26.353533 
L 356.162371 26.353533 
L 356.071092 29.699934 
L 355.888535 29.699934 
L 355.158304 29.699934 
L 353.697844 29.699934 
L 353.296027 29.699934 
L 352.021036 29.699934 
L 351.941349 31.727015 
L 351.861662 31.727015 
L 351.702288 31.727015 
L 351.38354 31.727015 
L 350.746044 31.727015 
L 349.143069 31.727015 
L 348.341581 31.727015 
L 347.940837 31.727015 
L 347.840651 31.727015 
L 347.740465 30.961994 
L 347.540093 30.961994 
L 346.721651 30.961994 
L 344.954611 30.961994 
L 344.07277 30.961994 
L 343.85231 30.961994 
L 343.74208 30.961994 
L 343.63185 33.058117 
L 343.190929 33.058117 
L 341.427247 33.058117 
L 340.194491 33.058117 
L 339.688218 33.058117 
L 339.56165 33.058117 
L 339.498365 33.74994 
L 339.435081 33.74994 
L 339.181945 33.74994 
L 338.169398 33.74994 
L 336.256002 33.74994 
L 335.451683 33.74994 
L 335.401413 33.74994 
L 335.351143 32.98129 
L 335.250603 32.98129 
L 335.049523 32.98129 
L 334.647364 32.98129 
L 331.440853 32.98129 
L 331.278506 32.98129 
L 331.197333 33.690772 
L 331.116159 33.690772 
L 330.791466 33.690772 
L 330.142079 33.690772 
L 328.843305 33.690772 
L 327.730666 33.690772 
L 327.174346 33.690772 
L 327.104806 33.690772 
L 327.035266 34.419693 
L 326.896186 34.419693 
L 326.618027 34.419693 
L 324.658403 34.419693 
L 323.098916 34.419693 
L 322.97964 34.419693 
L 322.920002 36.709403 
L 322.860363 36.709403 
L 322.621811 36.709403 
L 322.144705 36.709403 
L 321.190494 36.709403 
L 319.869643 36.709403 
L 319.209217 36.709403 
L 318.879004 36.709403 
L 318.796451 37.501373 
L 318.713898 37.501373 
L 318.548792 37.501373 
L 317.368817 37.501373 
L 315.440131 37.501373 
L 315.032833 37.501373 
L 314.829184 37.501373 
L 314.727359 37.501373 
L 314.676447 37.501373 
L 314.625535 36.731411 
L 313.810938 36.731411 
L 311.343916 36.731411 
L 310.857608 36.731411 
L 310.614454 36.731411 
L 310.553665 36.731411 
L 310.492877 34.331609 
L 310.3713 34.331609 
L 309.398683 34.331609 
L 307.47627 34.331609 
L 306.73844 34.331609 
L 306.553982 34.331609 
L 306.461754 34.331609 
L 306.369525 38.385876 
L 306.00061 38.385876 
L 304.52495 38.385876 
L 302.584152 38.385876 
L 302.265333 38.385876 
L 302.185629 39.250149 
L 302.105924 39.250149 
L 301.946515 39.250149 
L 301.308879 39.250149 
L 300.033606 39.250149 
L 299.733164 39.250149 
L 298.846403 39.250149 
L 298.403023 39.250149 
L 298.181333 39.250149 
L 298.070488 46.86298 
L 297.959643 46.86298 
L 296.186122 46.86298 
L 295.610178 46.86298 
L 294.609071 46.86298 
L 294.108518 46.86298 
L 293.98338 46.86298 
L 293.92081 46.177816 
L 293.858241 46.177816 
L 293.607965 46.177816 
L 290.847548 46.177816 
L 290.222966 46.177816 
L 289.910675 46.177816 
L 289.832602 46.177816 
L 289.75453 43.738129 
L 289.598384 43.738129 
L 288.34922 43.738129 
L 287.111723 43.738129 
L 285.720189 43.738129 
L 285.633218 42.981613 
L 285.546248 42.981613 
L 285.372306 42.981613 
L 285.024423 42.981613 
L 284.328656 42.981613 
L 282.858654 42.981613 
L 282.123653 42.981613 
L 281.756152 42.981613 
L 281.572402 42.981613 
L 281.480527 51.145779 
L 281.388651 51.145779 
L 280.410018 51.145779 
L 278.711575 51.145779 
L 277.859563 51.145779 
L 277.433556 51.145779 
L 277.327055 55.940932 
L 277.220553 55.940932 
L 277.00755 55.940932 
L 275.303525 55.940932 
L 274.161042 55.940932 
L 273.295217 55.940932 
L 273.241103 53.501319 
L 273.186989 53.501319 
L 273.078761 53.501319 
L 272.862305 53.501319 
L 272.429392 53.501319 
L 269.333471 53.501319 
L 269.203021 53.501319 
L 269.137796 53.501319 
L 269.105183 53.501319 
L 269.088877 52.858991 
L 269.072571 52.858991 
L 268.811671 52.858991 
L 265.631526 52.858991 
L 265.007342 52.858991 
L 264.929319 54.106911 
L 264.851296 54.106911 
L 264.69525 54.106911 
L 264.383157 54.106911 
L 263.134788 54.106911 
L 262.017064 54.106911 
L 261.07249 54.106911 
L 260.836346 54.106911 
L 260.77731 51.506721 
L 260.718274 51.506721 
L 260.600203 51.506721 
L 260.127915 51.506721 
L 257.896948 51.506721 
L 257.157621 51.506721 
L 256.787957 51.506721 
L 256.695541 51.506721 
L 256.603125 52.775063 
L 256.418293 52.775063 
L 254.939638 52.775063 
L 253.108426 52.775063 
L 252.64489 52.775063 
L 252.586948 52.775063 
L 252.529006 54.089526 
L 252.413122 54.089526 
L 252.181354 54.089526 
L 251.254282 54.089526 
L 249.275791 54.089526 
L 248.501634 54.089526 
L 248.404865 54.089526 
L 248.35648 55.452673 
L 248.308095 55.452673 
L 248.114556 55.452673 
L 247.727477 55.452673 
L 245.576887 55.452673 
L 244.752586 55.452673 
L 244.340435 55.452673 
L 244.237398 61.052885 
L 244.13436 61.052885 
L 243.928285 61.052885 
L 242.279683 61.052885 
L 241.145216 61.052885 
L 240.534098 61.052885 
L 240.228539 61.052885 
L 240.152149 61.052885 
L 240.07576 58.336253 
L 239.92298 58.336253 
L 238.700744 58.336253 
L 237.533824 58.336253 
L 235.980418 58.336253 
L 235.88333 59.862854 
L 235.786242 59.862854 
L 235.592066 59.862854 
L 235.203715 59.862854 
L 234.427012 59.862854 
L 232.131046 59.862854 
L 231.846706 59.862854 
L 231.811164 59.232138 
L 231.775621 59.232138 
L 231.704536 59.232138 
L 231.562366 59.232138 
L 230.993685 59.232138 
L 229.094155 59.232138 
L 228.335598 59.232138 
L 227.956319 59.232138 
L 227.76668 59.232138 
L 227.67186 56.312023 
L 227.577041 56.312023 
L 226.059926 56.312023 
L 225.460287 56.312023 
L 223.844165 56.312023 
L 223.64215 56.312023 
L 223.541142 56.312023 
L 223.440135 55.581051 
L 223.036104 55.581051 
L 222.228044 55.581051 
L 220.197565 55.581051 
L 219.746624 55.581051 
L 219.521153 55.581051 
L 219.408418 55.581051 
L 219.380234 64.258896 
L 219.35205 64.258896 
L 219.295682 64.258896 
L 216.584569 64.258896 
L 215.268567 64.258896 
L 215.150301 73.314037 
L 215.032035 73.314037 
L 214.795503 73.314037 
L 214.32244 73.314037 
L 213.376313 73.314037 
L 211.48406 73.314037 
L 211.19653 73.314037 
L 211.124647 73.314037 
L 211.088706 70.447288 
L 211.052765 70.447288 
L 210.909 70.447288 
L 210.33394 70.447288 
L 207.845669 70.447288 
L 205.529617 69.971121 
L 203.304406 69.971121 
L 203.013671 69.971121 
L 202.868304 69.971121 
L 202.79562 66.893292 
L 202.722937 66.893292 
L 202.141467 66.893292 
L 200.978529 66.893292 
L 200.877598 66.893292 
L 199.613756 66.893292 
L 198.981836 66.893292 
L 198.823855 66.893292 
L 198.744865 66.893292 
L 198.665875 74.232622 
L 198.349915 74.232622 
L 196.387893 74.232622 
L 195.150634 74.232622 
L 194.841319 74.232622 
L 194.686662 74.232622 
L 194.609333 74.232622 
L 194.532004 71.108594 
L 193.913375 71.108594 
L 191.145814 71.108594 
L 190.686184 71.108594 
L 190.456368 71.108594 
L 190.398915 71.108594 
L 190.341461 73.374319 
L 190.226553 73.374319 
L 189.307293 73.374319 
L 188.175904 73.374319 
L 187.206263 73.374319 
L 186.721443 73.374319 
L 186.479033 73.374319 
L 186.357828 73.374319 
L 186.297225 73.374319 
L 186.236623 75.756235 
L 182.402766 75.756235 
L 181.139227 75.344592 
L 179.758747 75.344592 
L 178.75013 75.344592 
L 178.245821 75.344592 
L 177.993667 75.344592 
L 177.930628 77.908511 
L 177.86759 77.908511 
L 177.741513 77.908511 
L 174.401869 77.908511 
L 174.012973 77.908511 
L 173.915749 77.908511 
L 173.867137 77.908511 
L 173.818525 80.61487 
L 173.624077 80.61487 
L 172.846285 80.61487 
L 171.836469 80.61487 
L 170.484409 80.61487 
L 169.808379 80.61487 
L 169.723875 80.61487 
L 169.639372 77.137645 
L 169.470364 77.137645 
L 169.132349 77.137645 
L 166.51324 77.137645 
L 165.828982 77.137645 
L 165.657918 77.137645 
L 165.572385 77.137645 
L 165.529619 86.50518 
L 165.486853 86.50518 
L 165.144724 86.50518 
L 162.580075 86.50518 
L 161.608105 86.50518 
L 161.421167 86.50518 
L 161.327698 82.995709 
L 161.234229 82.995709 
L 160.860354 82.995709 
L 160.112603 82.995709 
L 158.617102 82.995709 
L 157.632407 82.995709 
L 157.386234 82.995709 
L 157.263147 82.995709 
L 157.201604 86.199337 
L 157.14006 86.199337 
L 156.647713 86.199337 
L 153.641803 86.199337 
L 153.308353 86.199337 
L 149.845939 86.031617 
L 149.285255 86.031617 
L 149.125797 86.031617 
L 149.046068 86.031617 
L 148.966339 104.339228 
L 148.647423 104.339228 
L 148.009591 104.339228 
L 146.733927 104.339228 
L 143.760381 104.785454 
L 142.954495 104.785454 
L 141.548681 104.785454 
L 140.845774 104.785454 
L 140.757911 104.785454 
L 140.670048 101.302158 
L 140.494321 101.302158 
L 140.142867 101.302158 
L 138.713828 101.302158 
L 135.775108 101.668954 
L 134.116129 101.668954 
L 132.729878 101.668954 
L 132.52815 101.668954 
L 132.427285 101.668954 
L 132.326421 97.797846 
L 131.922964 97.797846 
L 131.116049 97.797846 
L 129.50222 97.797846 
L 128.563733 97.797846 
L 125.376228 98.053813 
L 124.473905 98.053813 
L 124.2372 98.053813 
L 124.118847 107.574367 
L 124.000494 107.574367 
L 123.527082 107.574367 
L 122.580259 107.574367 
L 120.686613 107.574367 
L 120.364892 107.574367 
L 120.117788 107.574367 
L 119.994235 107.574367 
L 119.870683 113.100227 
L 119.376474 113.100227 
L 118.388055 113.100227 
L 116.411218 113.100227 
L 115.978584 113.100227 
L 115.870426 113.100227 
L 115.816347 114.086661 
L 115.762268 114.086661 
L 115.545951 114.086661 
L 114.680684 114.086661 
L 114.191762 114.086661 
L 112.70872 114.086661 
L 111.9672 114.086661 
L 111.781819 114.086661 
L 111.689129 120.448903 
L 111.596439 120.448903 
L 111.225679 120.448903 
L 108.455969 120.448903 
L 107.614735 120.448903 
L 107.562158 120.448903 
L 107.509581 116.355461 
L 107.404427 116.355461 
L 107.194118 116.355461 
L 106.773502 116.355461 
L 104.703155 116.355461 
L 103.806204 116.355461 
L 103.442374 116.355461 
L 103.351417 117.668976 
L 103.260459 117.668976 
L 103.078544 117.668976 
L 102.350885 117.668976 
L 100.895566 117.668976 
L 99.73547 117.668976 
L 99.479407 117.668976 
L 99.351375 117.668976 
L 99.287359 117.668976 
L 99.223343 125.290608 
L 98.711217 125.290608 
L 97.686964 125.290608 
L 95.442768 125.290608 
L 95.204677 125.290608 
L 95.145155 125.290608 
L 95.085632 120.7596 
L 94.966587 120.7596 
L 94.490405 120.7596 
L 93.538042 120.7596 
L 91.448266 120.7596 
L 91.18967 120.7596 
L 91.060372 120.7596 
L 90.995722 120.7596 
L 90.931073 129.527101 
L 90.41388 129.527101 
L 89.379494 129.527101 
L 87.14971 129.527101 
L 86.925179 129.527101 
L 86.869047 129.527101 
L 86.812914 139.463601 
L 86.700649 139.463601 
L 86.251587 139.463601 
L 85.353465 139.463601 
L 82.776861 139.463601 
L 82.690351 142.89681 
L 82.60384 142.89681 
L 82.430818 142.89681 
L 82.084775 142.89681 
L 81.392689 142.89681 
L 80.008517 142.89681 
L 79.214561 142.89681 
L 78.817583 142.89681 
L 78.619094 142.89681 
L 78.569472 142.89681 
L 78.51985 138.325969 
L 78.420605 138.325969 
L 75.340932 138.325969 
L 75.103843 138.325969 
L 74.64991 138.325969 
L 74.422943 138.325969 
L 74.30946 142.236578 
L 74.195976 142.236578 
L 73.288109 142.236578 
L 71.472375 142.236578 
L 70.57157 142.236578 
L 70.417818 142.236578 
L 70.340942 142.236578 
L 70.264066 156.941758 
L 69.956561 156.941758 
L 69.341552 156.941758 
L 68.111534 156.941758 
L 66.787875 156.941758 
L 66.45696 156.941758 
L 66.291503 156.941758 
L 66.208774 156.941758 
L 66.126046 152.40416 
L 65.464216 152.40416 
L 64.208217 152.40416 
L 62.881142 152.40416 
L 62.217604 152.40416 
L 62.051719 152.40416 
L 61.968777 171.506889 
L 61.885835 171.506889 
L 61.554066 171.506889 
L 59.37119 171.506889 
L 58.384977 171.506889 
L 57.89187 171.506889 
L 57.830232 181.520416 
L 57.768594 181.520416 
L 57.645317 181.520416 
L 57.398764 181.520416 
L 55.201378 181.520416 
L 54.379287 181.520416 
L 53.779389 181.520416 
L 53.704402 181.520416 
L 53.629415 178.54937 
L 53.479441 178.54937 
L 53.179492 178.54937 
L 51.979696 178.54937 
L 50.440578 178.54937 
L 49.671019 178.54937 
L 49.574824 178.54937 
L 49.478629 193.074487 
L 49.286239 193.074487 
L 48.90146 193.074487 
L 47.798004 193.074487 
L 46.529621 193.074487 
L 45.895429 193.074487 
L 45.578333 193.074487 
L 45.419785 193.074487 
L 45.340511 191.225835 
L 45.261237 191.225835 
L 43.630365 191.225835 
L 41.510643 191.225835 
L 41.363856 191.225835 
L 41.290463 191.225835 
L 41.21707 216.182627 
L 40.923498 216.182627 
L 40.336352 216.182627 
L 39.162062 216.182627 
L 37.684722 216.182627 
L 37.315387 216.182627 
L 37.223053 216.182627 
L 37.130719 220.804255 
L 36.946052 220.804255 
L 36.207382 220.804255 
L 34.618108 220.804255 
L 33.569335 220.804255 
L 33.044949 220.804255 
L 32.979401 230.047511 
L 32.913852 230.047511 
L 32.782756 230.047511 
L 32.520563 230.047511 
L 31.775013 230.047511 
L 29.974481 230.047511 
L 29.074214 230.047511 
L 28.849148 230.047511 
L 28.736615 202.317743 
L 28.624081 202.317743 
L 28.173948 202.317743 
L 27.755801 202.317743 
L 24.704806 202.317743 
L 24.704806 313.236817 
L 25.282571 305.054011 
L 25.860337 297.8173 
L 26.438102 291.330407 
L 27.015867 285.452435 
L 28.025496 276.343149 
L 29.035125 268.391458 
L 29.965126 261.864537 
L 30.995204 255.349656 
L 32.025283 249.448717 
L 34.256816 238.3014 
L 36.846059 227.448639 
L 39.809176 216.971438 
L 41.721067 211.036249 
L 43.069535 207.164351 
L 44.76091 202.623398 
L 47.160053 196.699129 
L 49.69919 190.985007 
L 51.126612 187.987642 
L 52.640686 184.957599 
L 55.38281 179.817176 
L 58.644117 174.206343 
L 60.268333 171.588872 
L 62.071574 168.805482 
L 63.694497 166.401924 
L 65.926225 163.240404 
L 68.554709 159.710502 
L 70.651145 157.031035 
L 72.132965 155.203926 
L 75.164417 151.624265 
L 76.334902 150.295039 
L 79.089264 147.274067 
L 80.46501 145.817993 
L 81.501999 144.742391 
L 83.611192 142.610021 
L 86.960644 139.366147 
L 88.058498 138.338421 
L 90.186853 136.392785 
L 93.483837 133.493273 
L 95.16491 132.064944 
L 95.957348 131.402773 
L 99.212655 128.753701 
L 101.232125 127.164878 
L 102.800631 125.958058 
L 105.052094 124.265404 
L 107.616297 122.391724 
L 109.444633 121.089152 
L 111.413383 119.71617 
L 113.212196 118.487466 
L 116.382173 116.379125 
L 117.313517 115.772936 
L 119.276505 114.514162 
L 122.574239 112.454783 
L 123.659805 111.791406 
L 126.415726 110.138176 
L 127.191989 109.680275 
L 129.796762 108.167773 
L 132.694248 106.527108 
L 134.687718 105.422766 
L 135.094535 105.199769 
L 138.778149 103.215915 
L 141.098152 101.997932 
L 141.524248 101.776786 
L 144.565781 100.220478 
L 145.71093 99.644394 
L 147.725207 98.643757 
L 150.168692 97.450964 
L 151.629358 96.748629 
L 153.82836 95.705905 
L 157.332597 94.079304 
L 157.840703 93.846917 
L 160.805761 92.507741 
L 163.445901 91.338932 
L 164.668617 90.804925 
L 166.723541 89.917586 
L 169.516153 88.731496 
L 170.282415 88.409933 
L 173.989848 86.87699 
L 174.548996 86.649014 
L 176.205723 85.978363 
L 179.776272 84.556934 
L 182.210905 83.605874 
L 182.401496 83.532028 
L 185.016717 82.527425 
L 186.668078 81.901272 
L 189.001565 81.027007 
L 192.454967 79.755132 
L 193.312226 79.443366 
L 194.7566 78.921562 
L 197.254013 78.029455 
L 199.769431 77.143573 
L 201.194021 76.647358 
L 204.110795 75.643481 
L 205.546893 75.155059 
L 208.575115 74.13746 
L 210.134684 73.619761 
L 211.90568 73.037018 
L 214.61704 72.155219 
L 215.818349 71.768456 
L 217.567955 71.209404 
L 220.370842 70.324062 
L 222.960413 69.51707 
L 225.199839 68.827475 
L 227.150673 68.232871 
L 228.596928 67.795673 
L 231.802567 66.837355 
L 233.168311 66.43348 
L 235.792336 65.664737 
L 236.718974 65.395503 
L 238.013221 65.021387 
L 241.407807 64.050625 
L 242.701608 63.684555 
L 245.866749 62.797915 
L 246.260464 62.688498 
L 249.563398 61.778022 
L 250.412837 61.545991 
L 253.319057 60.758571 
L 254.539328 60.430873 
L 257.771843 59.57099 
L 259.874845 59.017838 
L 262.536392 58.3247 
L 262.79045 58.258935 
L 265.166234 57.647267 
L 268.268204 56.857516 
L 270.158282 56.381144 
L 271.532284 56.037101 
L 274.960089 55.186942 
L 276.789283 54.737943 
L 277.569492 54.547406 
L 279.908134 53.979724 
L 281.798104 53.52468 
L 285.167632 52.721514 
L 285.902848 52.547627 
L 288.919203 51.839229 
L 290.590027 51.450252 
L 292.956867 50.903338 
L 293.644798 50.745266 
L 296.348074 50.127945 
L 299.271533 49.467118 
L 300.324064 49.230896 
L 302.857741 48.665882 
L 305.206314 48.146658 
L 307.728761 47.593744 
L 310.017814 47.096177 
L 310.751228 46.937588 
L 312.326029 46.598413 
L 315.720868 45.873429 
L 316.707795 45.66423 
L 319.742283 45.025349 
L 321.134543 44.734389 
L 323.215491 44.302006 
L 325.830486 43.762854 
L 328.554749 43.206064 
L 330.487731 42.813976 
L 332.074472 42.493943 
L 333.580348 42.191724 
L 335.338657 41.840678 
L 336.987059 41.513352 
L 339.831691 40.952477 
L 342.624562 40.406649 
L 343.516332 40.233361 
L 346.942255 39.572062 
L 347.920912 39.384428 
L 349.725256 39.039954 
L 352.137738 38.582316 
L 355.238374 37.999005 
L 355.530252 37.944373 
L 358.500404 37.391135 
L 360.04663 37.105048 
L 361.972524 36.750529 
L 365.463011 36.113068 
L 366.48611 35.927444 
L 369.301108 35.419528 
L 371.194411 35.080217 
L 373.401492 34.686976 
L 374.590627 34.476124 
L 378.059694 33.865026 
L 379.501666 33.612757 
L 380.985072 33.354294 
L 383.426214 32.931266 
L 384.608524 32.727405 
L 386.645417 32.377738 
L 388.752003 32.018147 
L 390.523815 31.717292 
L 392.652055 31.357814 
L 395.454766 30.887535 
L 398.626087 30.359627 
L 400.700556 30.016695 
L 402.352612 29.744929 
L 404.706994 29.359653 
L 406.551376 29.059481 
L 407.235766 28.948462 
L 409.671592 28.554919 
L 412.596067 28.085669 
L 413.497007 27.941813 
L 415.281282 27.657882 
L 417.917583 27.240709 
L 420.339494 26.859895 
L 421.689378 26.648642 
L 425.465159 26.0615 
L 426.561087 25.892105 
L 429.324584 25.466982 
L 430.486366 25.289116 
L 433.510654 24.828459 
L 434.793127 24.634132 
z
" clip-path="url(#p59b4f253fe)" style="fill: #ff0000; opacity: 0.5"/>
   </g>
   <g id="matplotlib.axis_1">
    <g id="xtick_1">
     <g id="line2d_1">
      <defs>
       <path id="mee3990e91c" d="M 0 0 
L 0 3.5 
" style="stroke: #000000; stroke-width: 0.8"/>
      </defs>
      <g>
       <use xlink:href="#mee3990e91c" x="20.5625" y="313.236817" style="stroke: #000000; stroke-width: 0.8"/>
      </g>
     </g>
    </g>
    <g id="xtick_2">
     <g id="line2d_2">
      <g>
       <use xlink:href="#mee3990e91c" x="103.408625" y="313.236817" style="stroke: #000000; stroke-width: 0.8"/>
      </g>
     </g>
     <g id="text_1">
      <!-- 20 -->
      <g transform="translate(97.046125 327.835254)scale(0.1 -0.1)">
       <defs>
        <path id="DejaVuSans-32" d="M 1228 531 
L 3431 531 
L 3431 0 
L 469 0 
L 469 531 
Q 828 903 1448 1529 
Q 2069 2156 2228 2338 
Q 2531 2678 2651 2914 
Q 2772 3150 2772 3378 
Q 2772 3750 2511 3984 
Q 2250 4219 1831 4219 
Q 1534 4219 1204 4116 
Q 875 4013 500 3803 
L 500 4441 
Q 881 4594 1212 4672 
Q 1544 4750 1819 4750 
Q 2544 4750 2975 4387 
Q 3406 4025 3406 3419 
Q 3406 3131 3298 2873 
Q 3191 2616 2906 2266 
Q 2828 2175 2409 1742 
Q 1991 1309 1228 531 
z
" transform="scale(0.015625)"/>
        <path id="DejaVuSans-30" d="M 2034 4250 
Q 1547 4250 1301 3770 
Q 1056 3291 1056 2328 
Q 1056 1369 1301 889 
Q 1547 409 2034 409 
Q 2525 409 2770 889 
Q 3016 1369 3016 2328 
Q 3016 3291 2770 3770 
Q 2525 4250 2034 4250 
z
M 2034 4750 
Q 2819 4750 3233 4129 
Q 3647 3509 3647 2328 
Q 3647 1150 3233 529 
Q 2819 -91 2034 -91 
Q 1250 -91 836 529 
Q 422 1150 422 2328 
Q 422 3509 836 4129 
Q 1250 4750 2034 4750 
z
" transform="scale(0.015625)"/>
       </defs>
       <use xlink:href="#DejaVuSans-32"/>
       <use xlink:href="#DejaVuSans-30" x="63.623047"/>
      </g>
     </g>
    </g>
    <g id="xtick_3">
     <g id="line2d_3">
      <g>
       <use xlink:href="#mee3990e91c" x="186.254751" y="313.236817" style="stroke: #000000; stroke-width: 0.8"/>
      </g>
     </g>
     <g id="text_2">
      <!-- 40 -->
      <g transform="translate(179.892251 327.835254)scale(0.1 -0.1)">
       <defs>
        <path id="DejaVuSans-34" d="M 2419 4116 
L 825 1625 
L 2419 1625 
L 2419 4116 
z
M 2253 4666 
L 3047 4666 
L 3047 1625 
L 3713 1625 
L 3713 1100 
L 3047 1100 
L 3047 0 
L 2419 0 
L 2419 1100 
L 313 1100 
L 313 1709 
L 2253 4666 
z
" transform="scale(0.015625)"/>
       </defs>
       <use xlink:href="#DejaVuSans-34"/>
       <use xlink:href="#DejaVuSans-30" x="63.623047"/>
      </g>
     </g>
    </g>
    <g id="xtick_4">
     <g id="line2d_4">
      <g>
       <use xlink:href="#mee3990e91c" x="269.100876" y="313.236817" style="stroke: #000000; stroke-width: 0.8"/>
      </g>
     </g>
     <g id="text_3">
      <!-- 60 -->
      <g transform="translate(262.738376 327.835254)scale(0.1 -0.1)">
       <defs>
        <path id="DejaVuSans-36" d="M 2113 2584 
Q 1688 2584 1439 2293 
Q 1191 2003 1191 1497 
Q 1191 994 1439 701 
Q 1688 409 2113 409 
Q 2538 409 2786 701 
Q 3034 994 3034 1497 
Q 3034 2003 2786 2293 
Q 2538 2584 2113 2584 
z
M 3366 4563 
L 3366 3988 
Q 3128 4100 2886 4159 
Q 2644 4219 2406 4219 
Q 1781 4219 1451 3797 
Q 1122 3375 1075 2522 
Q 1259 2794 1537 2939 
Q 1816 3084 2150 3084 
Q 2853 3084 3261 2657 
Q 3669 2231 3669 1497 
Q 3669 778 3244 343 
Q 2819 -91 2113 -91 
Q 1303 -91 875 529 
Q 447 1150 447 2328 
Q 447 3434 972 4092 
Q 1497 4750 2381 4750 
Q 2619 4750 2861 4703 
Q 3103 4656 3366 4563 
z
" transform="scale(0.015625)"/>
       </defs>
       <use xlink:href="#DejaVuSans-36"/>
       <use xlink:href="#DejaVuSans-30" x="63.623047"/>
      </g>
     </g>
    </g>
    <g id="xtick_5">
     <g id="line2d_5">
      <g>
       <use xlink:href="#mee3990e91c" x="351.947001" y="313.236817" style="stroke: #000000; stroke-width: 0.8"/>
      </g>
     </g>
     <g id="text_4">
      <!-- 80 -->
      <g transform="translate(345.584501 327.835254)scale(0.1 -0.1)">
       <defs>
        <path id="DejaVuSans-38" d="M 2034 2216 
Q 1584 2216 1326 1975 
Q 1069 1734 1069 1313 
Q 1069 891 1326 650 
Q 1584 409 2034 409 
Q 2484 409 2743 651 
Q 3003 894 3003 1313 
Q 3003 1734 2745 1975 
Q 2488 2216 2034 2216 
z
M 1403 2484 
Q 997 2584 770 2862 
Q 544 3141 544 3541 
Q 544 4100 942 4425 
Q 1341 4750 2034 4750 
Q 2731 4750 3128 4425 
Q 3525 4100 3525 3541 
Q 3525 3141 3298 2862 
Q 3072 2584 2669 2484 
Q 3125 2378 3379 2068 
Q 3634 1759 3634 1313 
Q 3634 634 3220 271 
Q 2806 -91 2034 -91 
Q 1263 -91 848 271 
Q 434 634 434 1313 
Q 434 1759 690 2068 
Q 947 2378 1403 2484 
z
M 1172 3481 
Q 1172 3119 1398 2916 
Q 1625 2713 2034 2713 
Q 2441 2713 2670 2916 
Q 2900 3119 2900 3481 
Q 2900 3844 2670 4047 
Q 2441 4250 2034 4250 
Q 1625 4250 1398 4047 
Q 1172 3844 1172 3481 
z
" transform="scale(0.015625)"/>
       </defs>
       <use xlink:href="#DejaVuSans-38"/>
       <use xlink:href="#DejaVuSans-30" x="63.623047"/>
      </g>
     </g>
    </g>
    <g id="xtick_6">
     <g id="line2d_6">
      <g>
       <use xlink:href="#mee3990e91c" x="434.793127" y="313.236817" style="stroke: #000000; stroke-width: 0.8"/>
      </g>
     </g>
     <g id="text_5">
      <!-- 100 -->
      <g transform="translate(425.249377 327.835254)scale(0.1 -0.1)">
       <defs>
        <path id="DejaVuSans-31" d="M 794 531 
L 1825 531 
L 1825 4091 
L 703 3866 
L 703 4441 
L 1819 4666 
L 2450 4666 
L 2450 531 
L 3481 531 
L 3481 0 
L 794 0 
L 794 531 
z
" transform="scale(0.015625)"/>
       </defs>
       <use xlink:href="#DejaVuSans-31"/>
       <use xlink:href="#DejaVuSans-30" x="63.623047"/>
       <use xlink:href="#DejaVuSans-30" x="127.246094"/>
      </g>
     </g>
    </g>
    <g id="xtick_7">
     <g id="line2d_7">
      <defs>
       <path id="m81ce050c84" d="M 0 0 
L 0 2 
" style="stroke: #000000; stroke-width: 0.6"/>
      </defs>
      <g>
       <use xlink:href="#m81ce050c84" x="41.274031" y="313.236817" style="stroke: #000000; stroke-width: 0.6"/>
      </g>
     </g>
    </g>
    <g id="xtick_8">
     <g id="line2d_8">
      <g>
       <use xlink:href="#m81ce050c84" x="61.985563" y="313.236817" style="stroke: #000000; stroke-width: 0.6"/>
      </g>
     </g>
    </g>
    <g id="xtick_9">
     <g id="line2d_9">
      <g>
       <use xlink:href="#m81ce050c84" x="82.697094" y="313.236817" style="stroke: #000000; stroke-width: 0.6"/>
      </g>
     </g>
    </g>
    <g id="xtick_10">
     <g id="line2d_10">
      <g>
       <use xlink:href="#m81ce050c84" x="124.120157" y="313.236817" style="stroke: #000000; stroke-width: 0.6"/>
      </g>
     </g>
    </g>
    <g id="xtick_11">
     <g id="line2d_11">
      <g>
       <use xlink:href="#m81ce050c84" x="144.831688" y="313.236817" style="stroke: #000000; stroke-width: 0.6"/>
      </g>
     </g>
    </g>
    <g id="xtick_12">
     <g id="line2d_12">
      <g>
       <use xlink:href="#m81ce050c84" x="165.543219" y="313.236817" style="stroke: #000000; stroke-width: 0.6"/>
      </g>
     </g>
    </g>
    <g id="xtick_13">
     <g id="line2d_13">
      <g>
       <use xlink:href="#m81ce050c84" x="206.966282" y="313.236817" style="stroke: #000000; stroke-width: 0.6"/>
      </g>
     </g>
    </g>
    <g id="xtick_14">
     <g id="line2d_14">
      <g>
       <use xlink:href="#m81ce050c84" x="227.677813" y="313.236817" style="stroke: #000000; stroke-width: 0.6"/>
      </g>
     </g>
    </g>
    <g id="xtick_15">
     <g id="line2d_15">
      <g>
       <use xlink:href="#m81ce050c84" x="248.389345" y="313.236817" style="stroke: #000000; stroke-width: 0.6"/>
      </g>
     </g>
    </g>
    <g id="xtick_16">
     <g id="line2d_16">
      <g>
       <use xlink:href="#m81ce050c84" x="289.812407" y="313.236817" style="stroke: #000000; stroke-width: 0.6"/>
      </g>
     </g>
    </g>
    <g id="xtick_17">
     <g id="line2d_17">
      <g>
       <use xlink:href="#m81ce050c84" x="310.523939" y="313.236817" style="stroke: #000000; stroke-width: 0.6"/>
      </g>
     </g>
    </g>
    <g id="xtick_18">
     <g id="line2d_18">
      <g>
       <use xlink:href="#m81ce050c84" x="331.23547" y="313.236817" style="stroke: #000000; stroke-width: 0.6"/>
      </g>
     </g>
    </g>
    <g id="xtick_19">
     <g id="line2d_19">
      <g>
       <use xlink:href="#m81ce050c84" x="372.658533" y="313.236817" style="stroke: #000000; stroke-width: 0.6"/>
      </g>
     </g>
    </g>
    <g id="xtick_20">
     <g id="line2d_20">
      <g>
       <use xlink:href="#m81ce050c84" x="393.370064" y="313.236817" style="stroke: #000000; stroke-width: 0.6"/>
      </g>
     </g>
    </g>
    <g id="xtick_21">
     <g id="line2d_21">
      <g>
       <use xlink:href="#m81ce050c84" x="414.081595" y="313.236817" style="stroke: #000000; stroke-width: 0.6"/>
      </g>
     </g>
    </g>
   </g>
   <g id="matplotlib.axis_2">
    <g id="ytick_1">
     <g id="line2d_22">
      <defs>
       <path id="mbc7fe9ef05" d="M 0 0 
L -3.5 0 
" style="stroke: #000000; stroke-width: 0.8"/>
      </defs>
      <g>
       <use xlink:href="#mbc7fe9ef05" x="20.5625" y="313.236817" style="stroke: #000000; stroke-width: 0.8"/>
      </g>
     </g>
    </g>
    <g id="ytick_2">
     <g id="line2d_23">
      <g>
       <use xlink:href="#mbc7fe9ef05" x="20.5625" y="257.77728" style="stroke: #000000; stroke-width: 0.8"/>
      </g>
     </g>
     <g id="text_6">
      <!-- 1 -->
      <g transform="translate(7.2 261.576498)scale(0.1 -0.1)">
       <use xlink:href="#DejaVuSans-31"/>
      </g>
     </g>
    </g>
    <g id="ytick_3">
     <g id="line2d_24">
      <g>
       <use xlink:href="#mbc7fe9ef05" x="20.5625" y="202.317743" style="stroke: #000000; stroke-width: 0.8"/>
      </g>
     </g>
     <g id="text_7">
      <!-- 2 -->
      <g transform="translate(7.2 206.116962)scale(0.1 -0.1)">
       <use xlink:href="#DejaVuSans-32"/>
      </g>
     </g>
    </g>
    <g id="ytick_4">
     <g id="line2d_25">
      <g>
       <use xlink:href="#mbc7fe9ef05" x="20.5625" y="146.858206" style="stroke: #000000; stroke-width: 0.8"/>
      </g>
     </g>
     <g id="text_8">
      <!-- 3 -->
      <g transform="translate(7.2 150.657425)scale(0.1 -0.1)">
       <defs>
        <path id="DejaVuSans-33" d="M 2597 2516 
Q 3050 2419 3304 2112 
Q 3559 1806 3559 1356 
Q 3559 666 3084 287 
Q 2609 -91 1734 -91 
Q 1441 -91 1130 -33 
Q 819 25 488 141 
L 488 750 
Q 750 597 1062 519 
Q 1375 441 1716 441 
Q 2309 441 2620 675 
Q 2931 909 2931 1356 
Q 2931 1769 2642 2001 
Q 2353 2234 1838 2234 
L 1294 2234 
L 1294 2753 
L 1863 2753 
Q 2328 2753 2575 2939 
Q 2822 3125 2822 3475 
Q 2822 3834 2567 4026 
Q 2313 4219 1838 4219 
Q 1578 4219 1281 4162 
Q 984 4106 628 3988 
L 628 4550 
Q 988 4650 1302 4700 
Q 1616 4750 1894 4750 
Q 2613 4750 3031 4423 
Q 3450 4097 3450 3541 
Q 3450 3153 3228 2886 
Q 3006 2619 2597 2516 
z
" transform="scale(0.015625)"/>
       </defs>
       <use xlink:href="#DejaVuSans-33"/>
      </g>
     </g>
    </g>
    <g id="ytick_5">
     <g id="line2d_26">
      <g>
       <use xlink:href="#mbc7fe9ef05" x="20.5625" y="91.398669" style="stroke: #000000; stroke-width: 0.8"/>
      </g>
     </g>
     <g id="text_9">
      <!-- 4 -->
      <g transform="translate(7.2 95.197888)scale(0.1 -0.1)">
       <use xlink:href="#DejaVuSans-34"/>
      </g>
     </g>
    </g>
    <g id="ytick_6">
     <g id="line2d_27">
      <g>
       <use xlink:href="#mbc7fe9ef05" x="20.5625" y="35.939132" style="stroke: #000000; stroke-width: 0.8"/>
      </g>
     </g>
     <g id="text_10">
      <!-- 5 -->
      <g transform="translate(7.2 39.738351)scale(0.1 -0.1)">
       <defs>
        <path id="DejaVuSans-35" d="M 691 4666 
L 3169 4666 
L 3169 4134 
L 1269 4134 
L 1269 2991 
Q 1406 3038 1543 3061 
Q 1681 3084 1819 3084 
Q 2600 3084 3056 2656 
Q 3513 2228 3513 1497 
Q 3513 744 3044 326 
Q 2575 -91 1722 -91 
Q 1428 -91 1123 -41 
Q 819 9 494 109 
L 494 744 
Q 775 591 1075 516 
Q 1375 441 1709 441 
Q 2250 441 2565 725 
Q 2881 1009 2881 1497 
Q 2881 1984 2565 2268 
Q 2250 2553 1709 2553 
Q 1456 2553 1204 2497 
Q 953 2441 691 2322 
L 691 4666 
z
" transform="scale(0.015625)"/>
       </defs>
       <use xlink:href="#DejaVuSans-35"/>
      </g>
     </g>
    </g>
    <g id="ytick_7">
     <g id="line2d_28">
      <defs>
       <path id="m36116c280d" d="M 0 0 
L -2 0 
" style="stroke: #000000; stroke-width: 0.6"/>
      </defs>
      <g>
       <use xlink:href="#m36116c280d" x="20.5625" y="302.144909" style="stroke: #000000; stroke-width: 0.6"/>
      </g>
     </g>
    </g>
    <g id="ytick_8">
     <g id="line2d_29">
      <g>
       <use xlink:href="#m36116c280d" x="20.5625" y="291.053002" style="stroke: #000000; stroke-width: 0.6"/>
      </g>
     </g>
    </g>
    <g id="ytick_9">
     <g id="line2d_30">
      <g>
       <use xlink:href="#m36116c280d" x="20.5625" y="279.961094" style="stroke: #000000; stroke-width: 0.6"/>
      </g>
     </g>
    </g>
    <g id="ytick_10">
     <g id="line2d_31">
      <g>
       <use xlink:href="#m36116c280d" x="20.5625" y="268.869187" style="stroke: #000000; stroke-width: 0.6"/>
      </g>
     </g>
    </g>
    <g id="ytick_11">
     <g id="line2d_32">
      <g>
       <use xlink:href="#m36116c280d" x="20.5625" y="246.685372" style="stroke: #000000; stroke-width: 0.6"/>
      </g>
     </g>
    </g>
    <g id="ytick_12">
     <g id="line2d_33">
      <g>
       <use xlink:href="#m36116c280d" x="20.5625" y="235.593465" style="stroke: #000000; stroke-width: 0.6"/>
      </g>
     </g>
    </g>
    <g id="ytick_13">
     <g id="line2d_34">
      <g>
       <use xlink:href="#m36116c280d" x="20.5625" y="224.501558" style="stroke: #000000; stroke-width: 0.6"/>
      </g>
     </g>
    </g>
    <g id="ytick_14">
     <g id="line2d_35">
      <g>
       <use xlink:href="#m36116c280d" x="20.5625" y="213.40965" style="stroke: #000000; stroke-width: 0.6"/>
      </g>
     </g>
    </g>
    <g id="ytick_15">
     <g id="line2d_36">
      <g>
       <use xlink:href="#m36116c280d" x="20.5625" y="191.225835" style="stroke: #000000; stroke-width: 0.6"/>
      </g>
     </g>
    </g>
    <g id="ytick_16">
     <g id="line2d_37">
      <g>
       <use xlink:href="#m36116c280d" x="20.5625" y="180.133928" style="stroke: #000000; stroke-width: 0.6"/>
      </g>
     </g>
    </g>
    <g id="ytick_17">
     <g id="line2d_38">
      <g>
       <use xlink:href="#m36116c280d" x="20.5625" y="169.042021" style="stroke: #000000; stroke-width: 0.6"/>
      </g>
     </g>
    </g>
    <g id="ytick_18">
     <g id="line2d_39">
      <g>
       <use xlink:href="#m36116c280d" x="20.5625" y="157.950113" style="stroke: #000000; stroke-width: 0.6"/>
      </g>
     </g>
    </g>
    <g id="ytick_19">
     <g id="line2d_40">
      <g>
       <use xlink:href="#m36116c280d" x="20.5625" y="135.766298" style="stroke: #000000; stroke-width: 0.6"/>
      </g>
     </g>
    </g>
    <g id="ytick_20">
     <g id="line2d_41">
      <g>
       <use xlink:href="#m36116c280d" x="20.5625" y="124.674391" style="stroke: #000000; stroke-width: 0.6"/>
      </g>
     </g>
    </g>
    <g id="ytick_21">
     <g id="line2d_42">
      <g>
       <use xlink:href="#m36116c280d" x="20.5625" y="113.582484" style="stroke: #000000; stroke-width: 0.6"/>
      </g>
     </g>
    </g>
    <g id="ytick_22">
     <g id="line2d_43">
      <g>
       <use xlink:href="#m36116c280d" x="20.5625" y="102.490576" style="stroke: #000000; stroke-width: 0.6"/>
      </g>
     </g>
    </g>
    <g id="ytick_23">
     <g id="line2d_44">
      <g>
       <use xlink:href="#m36116c280d" x="20.5625" y="80.306762" style="stroke: #000000; stroke-width: 0.6"/>
      </g>
     </g>
    </g>
    <g id="ytick_24">
     <g id="line2d_45">
      <g>
       <use xlink:href="#m36116c280d" x="20.5625" y="69.214854" style="stroke: #000000; stroke-width: 0.6"/>
      </g>
     </g>
    </g>
    <g id="ytick_25">
     <g id="line2d_46">
      <g>
       <use xlink:href="#m36116c280d" x="20.5625" y="58.122947" style="stroke: #000000; stroke-width: 0.6"/>
      </g>
     </g>
    </g>
    <g id="ytick_26">
     <g id="line2d_47">
      <g>
       <use xlink:href="#m36116c280d" x="20.5625" y="47.031039" style="stroke: #000000; stroke-width: 0.6"/>
      </g>
     </g>
    </g>
    <g id="ytick_27">
     <g id="line2d_48">
      <g>
       <use xlink:href="#m36116c280d" x="20.5625" y="24.847225" style="stroke: #000000; stroke-width: 0.6"/>
      </g>
     </g>
    </g>
    <g id="ytick_28">
     <g id="line2d_49">
      <g>
       <use xlink:href="#m36116c280d" x="20.5625" y="13.755317" style="stroke: #000000; stroke-width: 0.6"/>
      </g>
     </g>
    </g>
   </g>
   <g id="line2d_50">
    <path d="M 24.704806 313.236817 
L 25.860337 297.8173 
L 27.015867 285.452435 
L 28.025496 276.343149 
L 29.965126 261.864537 
L 32.025283 249.448717 
L 34.256816 238.3014 
L 36.846059 227.448639 
L 39.809176 216.971438 
L 43.069535 207.164351 
L 44.76091 202.623398 
L 47.160053 196.699129 
L 51.126612 187.987642 
L 52.640686 184.957599 
L 55.38281 179.817176 
L 60.268333 171.588872 
L 63.694497 166.401924 
L 65.926225 163.240404 
L 70.651145 157.031035 
L 75.164417 151.624265 
L 79.089264 147.274067 
L 83.611192 142.610021 
L 90.186853 136.392785 
L 95.957348 131.402773 
L 102.800631 125.958058 
L 109.444633 121.089152 
L 116.382173 116.379125 
L 122.574239 112.454783 
L 129.796762 108.167773 
L 135.094535 105.199769 
L 144.565781 100.220478 
L 151.629358 96.748629 
L 160.805761 92.507741 
L 170.282415 88.409933 
L 179.776272 84.556934 
L 189.001565 81.027007 
L 201.194021 76.647358 
L 211.90568 73.037018 
L 225.199839 68.827475 
L 238.013221 65.021387 
L 253.319057 60.758571 
L 268.268204 56.857516 
L 281.798104 53.52468 
L 299.271533 49.467118 
L 316.707795 45.66423 
L 335.338657 41.840678 
L 355.530252 37.944373 
L 374.590627 34.476124 
L 395.454766 30.887535 
L 417.917583 27.240709 
L 434.793127 24.634132 
L 434.793127 24.634132 
" clip-path="url(#p59b4f253fe)" style="fill: none; stroke: #0000ff; stroke-linecap: square"/>
   </g>
   <g id="patch_4">
    <path d="M 20.5625 319.237538 
L 20.5625 7.2 
" style="fill: none; stroke: #000000; stroke-width: 0.8; stroke-linejoin: miter; stroke-linecap: square"/>
   </g>
   <g id="patch_5">
    <path d="M 16.50304 313.236817 
L 442.994893 313.236817 
" style="fill: none; stroke: #000000; stroke-width: 0.8; stroke-linejoin: miter; stroke-linecap: square"/>
   </g>
  </g>
 </g>
 <defs>
  <clipPath id="p59b4f253fe">
   <rect x="16.50304" y="7.2" width="426.491853" height="312.037538"/>
  </clipPath>
 </defs>
</svg>
