<?xml version="1.0" encoding="utf-8" standalone="no"?>
<!DOCTYPE svg PUBLIC "-//W3C//DTD SVG 1.1//EN"
  "http://www.w3.org/Graphics/SVG/1.1/DTD/svg11.dtd">
<svg xmlns:xlink="http://www.w3.org/1999/xlink" width="452.502692pt" height="338.4pt" viewBox="0 0 452.502692 338.4" xmlns="http://www.w3.org/2000/svg" version="1.1">
 <metadata>
  <rdf:RDF xmlns:dc="http://purl.org/dc/elements/1.1/" xmlns:cc="http://creativecommons.org/ns#" xmlns:rdf="http://www.w3.org/1999/02/22-rdf-syntax-ns#">
   <cc:Work>
    <dc:type rdf:resource="http://purl.org/dc/dcmitype/StillImage"/>
    <dc:date>2022-12-21T16:28:55.366298</dc:date>
    <dc:format>image/svg+xml</dc:format>
    <dc:creator>
     <cc:Agent>
      <dc:title>Matplotlib v3.5.2, https://matplotlib.org/</dc:title>
     </cc:Agent>
    </dc:creator>
   </cc:Work>
  </rdf:RDF>
 </metadata>
 <defs>
  <style type="text/css">*{stroke-linejoin: round; stroke-linecap: butt}</style>
 </defs>
 <g id="figure_1">
  <g id="patch_1">
   <path d="M 0 338.4 
L 452.502692 338.4 
L 452.502692 0 
L 0 0 
L 0 338.4 
z
" style="fill: none"/>
  </g>
  <g id="axes_1">
   <g id="patch_2">
    <path d="M 7.2 331.2 
L 445.302692 331.2 
L 445.302692 7.2 
L 7.2 7.2 
L 7.2 331.2 
z
" style="fill: none"/>
   </g>
   <g id="patch_3">
    <path d="M 436.877641 13.430769 
L 434.469403 16.977533 
L 431.809553 20.859364 
L 430.180293 23.218731 
L 427.659568 26.8415 
L 426.761006 28.124817 
L 424.155727 31.821609 
L 422.634192 33.964075 
L 420.303928 37.22167 
L 417.130636 41.611786 
L 415.908755 43.288065 
L 413.261156 46.893285 
L 411.353795 49.467648 
L 408.963442 52.666851 
L 407.630012 54.438413 
L 404.706802 58.289349 
L 403.321093 60.09911 
L 399.951379 64.45782 
L 399.346311 65.234139 
L 396.456774 68.914905 
L 393.863244 72.181162 
L 392.177529 74.285132 
L 391.222271 75.470762 
L 387.842532 79.626985 
L 385.212795 82.81928 
L 383.14354 85.305587 
L 381.057967 87.788682 
L 380.651891 88.269494 
L 377.054344 92.491219 
L 375.56045 94.224275 
L 373.636984 96.438366 
L 371.835178 98.494738 
L 368.51458 102.23969 
L 367.670211 103.182703 
L 365.956788 105.084758 
L 363.634345 107.638198 
L 361.504489 109.954922 
L 358.2116 113.489699 
L 356.012511 115.818524 
L 353.921164 118.00962 
L 351.796353 120.212186 
L 349.261841 122.808347 
L 346.916017 125.181082 
L 345.399225 126.699845 
L 344.650255 127.445321 
L 341.486658 130.561559 
L 338.773986 133.191645 
L 336.537033 135.331337 
L 335.696643 136.128377 
L 332.970439 138.68835 
L 331.046942 140.47101 
L 329.417309 141.966073 
L 327.17599 143.999464 
L 324.922865 146.016899 
L 322.276235 148.352525 
L 320.105236 150.24087 
L 319.367691 150.87674 
L 317.170709 152.753879 
L 314.614299 154.906119 
L 312.099313 156.989896 
L 309.074358 159.452075 
L 306.965588 161.140011 
L 305.255495 162.491634 
L 303.54766 163.826099 
L 302.04089 164.990702 
L 298.358199 167.786777 
L 297.107857 168.719853 
L 295.680143 169.775225 
L 292.433444 172.135234 
L 290.980866 173.17313 
L 288.902174 174.639066 
L 286.712447 176.158692 
L 284.644337 177.57073 
L 282.405543 179.073914 
L 280.77848 180.149801 
L 278.097917 181.891903 
L 275.855503 183.32018 
L 274.6881 184.05326 
L 272.116317 185.642907 
L 268.962541 187.544739 
L 267.083545 188.652933 
L 265.622654 189.501689 
L 264.00327 190.42939 
L 261.593145 191.784511 
L 258.764209 193.336084 
L 257.943596 193.778275 
L 255.88599 194.87143 
L 252.630905 196.555234 
L 250.248573 197.75221 
L 248.244662 198.735906 
L 245.759436 199.926494 
L 244.177883 200.667226 
L 241.814443 201.749606 
L 240.68157 202.257995 
L 237.225377 203.767232 
L 235.097171 204.665271 
L 234.095388 205.079736 
L 231.658531 206.065864 
L 229.363776 206.965895 
L 227.743991 207.584496 
L 225.910005 208.268221 
L 223.391513 209.178269 
L 220.840137 210.066135 
L 218.206491 210.946671 
L 215.916199 211.682712 
L 213.81259 212.334418 
L 212.270886 212.797243 
L 209.673178 213.548768 
L 207.580679 214.128289 
L 205.977 214.556822 
L 204.496817 214.940333 
L 202.258483 215.498361 
L 199.971846 216.041183 
L 198.665862 216.338853 
L 194.59401 217.209276 
L 192.922443 217.541318 
L 191.120612 217.882755 
L 189.052531 218.253569 
L 186.640639 218.657574 
L 184.64606 218.968532 
L 182.004598 219.348092 
L 181.200187 219.456381 
L 178.00368 219.853012 
L 176.860438 219.981803 
L 174.569374 220.219181 
L 172.186118 220.436775 
L 170.793922 220.550042 
L 169.03783 220.678357 
L 165.163337 220.904009 
L 164.270551 220.944797 
L 160.965687 221.059251 
L 158.57491 221.10619 
L 156.455418 221.122628 
L 156.195624 221.123015 
L 153.853373 221.110456 
L 150.321888 221.036895 
L 148.310885 220.965654 
L 146.294753 220.87285 
L 145.514019 220.831162 
L 142.9774 220.673557 
L 140.332594 220.473143 
L 139.061898 220.363751 
L 136.28069 220.094647 
L 134.992057 219.95615 
L 131.231998 219.502044 
L 130.742912 219.437504 
L 126.885189 218.884278 
L 125.17262 218.613561 
L 122.53877 218.167065 
L 120.842512 217.860169 
L 118.928238 217.495628 
L 118.03947 217.319816 
L 114.663234 216.614027 
L 113.389471 216.332154 
L 111.123343 215.809554 
L 107.971009 215.037603 
L 106.126533 214.561652 
L 104.092305 214.01596 
L 101.59413 213.315993 
L 99.417212 212.679239 
L 98.124011 212.289158 
L 96.727909 211.858149 
L 93.947687 210.969255 
L 92.191178 210.386678 
L 89.765266 209.555362 
L 87.543539 208.766825 
L 84.516245 207.65053 
L 83.272732 207.178006 
L 81.320448 206.419727 
L 79.901262 205.855906 
L 77.230654 204.766152 
L 75.620758 204.091079 
L 73.631713 203.238168 
L 70.63255 201.912716 
L 68.428069 200.908258 
L 66.226316 199.879495 
L 63.280985 198.463375 
L 61.425635 197.547864 
L 59.838509 196.750319 
L 58.355091 195.992893 
L 56.693886 195.130933 
L 53.963308 193.682521 
L 52.534107 192.908757 
L 49.738925 191.364362 
L 46.382403 189.455439 
L 46.162919 189.328548 
L 42.87628 187.398073 
L 41.545366 186.60015 
L 39.88628 185.592414 
L 37.481292 184.105875 
L 33.820066 181.78436 
L 32.686792 181.051463 
L 29.569321 179.000474 
L 29.37375 178.870102 
L 25.848007 176.485199 
L 24.124673 175.295671 
L 22.957636 174.481242 
L 19.091135 171.731714 
L 18.217171 171.099315 
L 15.625052 169.2 
L 15.625052 324.969231 
L 17.33155 323.707186 
L 19.313894 322.241138 
L 22.220722 320.091385 
L 23.806038 318.918961 
L 26.456224 316.959009 
L 28.495015 315.451216 
L 30.584695 313.905787 
L 31.886339 312.943153 
L 34.811901 310.779546 
L 36.87116 309.256616 
L 38.146773 308.313233 
L 40.020654 306.927399 
L 42.69318 304.950925 
L 44.89849 303.319982 
L 46.893985 301.844209 
L 49.38097 300.004953 
L 50.674495 299.048323 
L 54.236622 296.413942 
L 54.970987 295.87084 
L 57.833701 293.753713 
L 59.72354 292.356078 
L 62.284621 290.462023 
L 63.702209 289.413642 
L 66.718467 287.182961 
L 69.488758 285.134185 
L 71.714021 283.488486 
L 71.7265 283.479257 
L 74.13735 281.696307 
L 77.942777 278.881993 
L 78.323378 278.600518 
L 81.100415 276.546754 
L 83.565534 274.723668 
L 85.854572 273.030804 
L 87.175672 272.053781 
L 89.823002 270.095941 
L 90.903806 269.29663 
L 94.488396 266.645637 
L 95.207753 266.113634 
L 99.106814 263.230074 
L 99.330776 263.064442 
L 102.838416 260.470357 
L 104.698829 259.094484 
L 106.031537 258.108877 
L 109.369702 255.640128 
L 110.465619 254.829639 
L 113.312276 252.724387 
L 115.409547 251.173345 
L 118.287151 249.045205 
L 119.390217 248.22943 
L 122.12058 246.210182 
L 123.445836 245.230086 
L 125.664956 243.58893 
L 127.434327 242.280387 
L 129.848969 240.494632 
L 132.583227 238.472504 
L 133.906407 237.493943 
L 135.888355 236.028188 
L 138.193232 234.323611 
L 140.210541 232.831704 
L 142.447634 231.177256 
L 145.627147 228.825839 
L 147.516105 227.428855 
L 148.22155 226.907141 
L 151.285538 224.641161 
L 153.137661 223.271419 
L 154.657606 222.147339 
L 157.462806 220.072746 
L 159.920778 218.254946 
L 161.617053 217.000462 
L 164.347963 214.98081 
L 164.993377 214.503493 
L 168.200528 212.131635 
L 171.089335 209.995211 
L 171.749623 209.506893 
L 173.5794 208.153677 
L 175.798098 206.512833 
L 178.513494 204.504654 
L 181.132485 202.567773 
L 183.668001 200.692625 
L 184.606236 199.998751 
L 187.055678 198.187259 
L 189.525496 196.360699 
L 191.307183 195.043048 
L 194.205452 192.899626 
L 194.594011 192.612266 
L 198.437428 189.769856 
L 198.76542 189.527289 
L 201.106509 187.79593 
L 204.504055 185.283267 
L 205.56413 184.499285 
L 208.37649 182.419397 
L 210.859437 180.583127 
L 212.696838 179.224272 
L 214.796282 177.671623 
L 216.249221 176.597098 
L 218.349651 175.043719 
L 220.169218 173.698054 
L 222.853967 171.712541 
L 224.80904 170.266662 
L 226.376019 169.107798 
L 228.932539 167.217117 
L 230.894858 165.765879 
L 234.702328 162.950054 
L 236.393352 161.699453 
L 238.061935 160.465448 
L 240.936771 158.339355 
L 241.079678 158.233668 
L 244.532717 155.679964 
L 247.278048 153.649647 
L 248.03584 153.08922 
L 250.096514 151.565243 
L 253.194054 149.27445 
L 255.391412 147.649387 
L 256.658937 146.711986 
L 258.095441 145.649616 
L 261.214847 143.342651 
L 263.217696 141.861438 
L 265.006388 140.538607 
L 268.139673 138.221377 
L 269.080848 137.525329 
L 272.538305 134.968358 
L 272.874294 134.719876 
L 275.583148 132.716536 
L 277.968214 130.952654 
L 280.142721 129.344492 
L 281.439536 128.385429 
L 285.436008 125.429827 
L 286.888076 124.355947 
L 289.021337 122.778288 
L 291.80767 120.717648 
L 293.865639 119.195672 
L 294.206325 118.943717 
L 298.028067 116.117337 
L 299.276524 115.194037 
L 301.930934 113.230961 
L 304.518618 111.317233 
L 304.643952 111.224542 
L 307.148955 109.37196 
L 310.22161 107.09957 
L 311.1441 106.41734 
L 314.299835 104.083508 
L 316.046391 102.791838 
L 317.806394 101.490223 
L 321.164906 99.006427 
L 322.204571 98.23754 
L 323.66047 97.160826 
L 326.18466 95.294054 
L 328.643794 93.475396 
L 330.401793 92.175263 
L 333.224896 90.08743 
L 335.663615 88.283869 
L 336.885814 87.379988 
L 338.89583 85.893475 
L 341.097487 84.265234 
L 342.830926 82.983265 
L 344.918651 81.439282 
L 347.380179 79.618853 
L 350.216376 77.521336 
L 351.223837 76.776265 
L 354.380007 74.442111 
L 357.398218 72.209986 
L 357.638896 72.031992 
L 361.634938 69.076708 
L 363.009638 68.060045 
L 364.726387 66.790419 
L 366.787577 65.26606 
L 369.617155 63.173439 
L 370.864259 62.251139 
L 373.801495 60.078899 
L 376.418364 58.143586 
L 377.284281 57.503195 
L 380.415239 55.187687 
L 382.156241 53.900124 
L 383.076368 53.219642 
L 386.438816 50.732935 
L 388.537546 49.180813 
L 391.084983 47.29685 
L 391.668684 46.865172 
L 393.70575 45.358655 
L 396.054255 43.621812 
L 398.987998 41.452154 
L 400.97402 39.983387 
L 402.871948 38.579769 
L 404.689999 37.235224 
L 407.450312 35.193828 
L 408.499685 34.417761 
L 411.418878 32.258864 
L 413.263131 30.894942 
L 416.693156 28.358258 
L 418.406961 27.090809 
L 420.482362 25.555941 
L 422.684902 23.927047 
L 424.619086 22.496616 
L 427.095185 20.66541 
L 429.048275 19.220997 
L 429.88577 18.601626 
L 433.03108 16.275503 
L 434.069721 15.507373 
z
" clip-path="url(#p35d64ab40b)" style="fill: #b2b3ff; opacity: 0.5"/>
   </g>
   <g id="matplotlib.axis_1">
    <g id="xtick_1">
     <g id="line2d_1">
      <defs>
       <path id="m780f82534b" d="M 0 0 
L 0 3.5 
" style="stroke: #000000; stroke-width: 0.8"/>
      </defs>
      <g>
       <use xlink:href="#m780f82534b" x="43.708558" y="221.123077" style="stroke: #000000; stroke-width: 0.8"/>
      </g>
     </g>
     <g id="text_1">
      <!-- −0.4 -->
      <g transform="translate(31.567151 235.721514)scale(0.1 -0.1)">
       <defs>
        <path id="DejaVuSans-2212" d="M 678 2272 
L 4684 2272 
L 4684 1741 
L 678 1741 
L 678 2272 
z
" transform="scale(0.015625)"/>
        <path id="DejaVuSans-30" d="M 2034 4250 
Q 1547 4250 1301 3770 
Q 1056 3291 1056 2328 
Q 1056 1369 1301 889 
Q 1547 409 2034 409 
Q 2525 409 2770 889 
Q 3016 1369 3016 2328 
Q 3016 3291 2770 3770 
Q 2525 4250 2034 4250 
z
M 2034 4750 
Q 2819 4750 3233 4129 
Q 3647 3509 3647 2328 
Q 3647 1150 3233 529 
Q 2819 -91 2034 -91 
Q 1250 -91 836 529 
Q 422 1150 422 2328 
Q 422 3509 836 4129 
Q 1250 4750 2034 4750 
z
" transform="scale(0.015625)"/>
        <path id="DejaVuSans-2e" d="M 684 794 
L 1344 794 
L 1344 0 
L 684 0 
L 684 794 
z
" transform="scale(0.015625)"/>
        <path id="DejaVuSans-34" d="M 2419 4116 
L 825 1625 
L 2419 1625 
L 2419 4116 
z
M 2253 4666 
L 3047 4666 
L 3047 1625 
L 3713 1625 
L 3713 1100 
L 3047 1100 
L 3047 0 
L 2419 0 
L 2419 1100 
L 313 1100 
L 313 1709 
L 2253 4666 
z
" transform="scale(0.015625)"/>
       </defs>
       <use xlink:href="#DejaVuSans-2212"/>
       <use xlink:href="#DejaVuSans-30" x="83.789062"/>
       <use xlink:href="#DejaVuSans-2e" x="147.412109"/>
       <use xlink:href="#DejaVuSans-34" x="179.199219"/>
      </g>
     </g>
    </g>
    <g id="xtick_2">
     <g id="line2d_2">
      <g>
       <use xlink:href="#m780f82534b" x="99.87557" y="221.123077" style="stroke: #000000; stroke-width: 0.8"/>
      </g>
     </g>
     <g id="text_2">
      <!-- −0.2 -->
      <g transform="translate(87.734163 235.721514)scale(0.1 -0.1)">
       <defs>
        <path id="DejaVuSans-32" d="M 1228 531 
L 3431 531 
L 3431 0 
L 469 0 
L 469 531 
Q 828 903 1448 1529 
Q 2069 2156 2228 2338 
Q 2531 2678 2651 2914 
Q 2772 3150 2772 3378 
Q 2772 3750 2511 3984 
Q 2250 4219 1831 4219 
Q 1534 4219 1204 4116 
Q 875 4013 500 3803 
L 500 4441 
Q 881 4594 1212 4672 
Q 1544 4750 1819 4750 
Q 2544 4750 2975 4387 
Q 3406 4025 3406 3419 
Q 3406 3131 3298 2873 
Q 3191 2616 2906 2266 
Q 2828 2175 2409 1742 
Q 1991 1309 1228 531 
z
" transform="scale(0.015625)"/>
       </defs>
       <use xlink:href="#DejaVuSans-2212"/>
       <use xlink:href="#DejaVuSans-30" x="83.789062"/>
       <use xlink:href="#DejaVuSans-2e" x="147.412109"/>
       <use xlink:href="#DejaVuSans-32" x="179.199219"/>
      </g>
     </g>
    </g>
    <g id="xtick_3">
     <g id="line2d_3">
      <g>
       <use xlink:href="#m780f82534b" x="156.042581" y="221.123077" style="stroke: #000000; stroke-width: 0.8"/>
      </g>
     </g>
    </g>
    <g id="xtick_4">
     <g id="line2d_4">
      <g>
       <use xlink:href="#m780f82534b" x="212.209593" y="221.123077" style="stroke: #000000; stroke-width: 0.8"/>
      </g>
     </g>
     <g id="text_3">
      <!-- 0.2 -->
      <g transform="translate(204.258031 235.721514)scale(0.1 -0.1)">
       <use xlink:href="#DejaVuSans-30"/>
       <use xlink:href="#DejaVuSans-2e" x="63.623047"/>
       <use xlink:href="#DejaVuSans-32" x="95.410156"/>
      </g>
     </g>
    </g>
    <g id="xtick_5">
     <g id="line2d_5">
      <g>
       <use xlink:href="#m780f82534b" x="268.376605" y="221.123077" style="stroke: #000000; stroke-width: 0.8"/>
      </g>
     </g>
     <g id="text_4">
      <!-- 0.4 -->
      <g transform="translate(260.425043 235.721514)scale(0.1 -0.1)">
       <use xlink:href="#DejaVuSans-30"/>
       <use xlink:href="#DejaVuSans-2e" x="63.623047"/>
       <use xlink:href="#DejaVuSans-34" x="95.410156"/>
      </g>
     </g>
    </g>
    <g id="xtick_6">
     <g id="line2d_6">
      <g>
       <use xlink:href="#m780f82534b" x="324.543617" y="221.123077" style="stroke: #000000; stroke-width: 0.8"/>
      </g>
     </g>
     <g id="text_5">
      <!-- 0.6 -->
      <g transform="translate(316.592054 235.721514)scale(0.1 -0.1)">
       <defs>
        <path id="DejaVuSans-36" d="M 2113 2584 
Q 1688 2584 1439 2293 
Q 1191 2003 1191 1497 
Q 1191 994 1439 701 
Q 1688 409 2113 409 
Q 2538 409 2786 701 
Q 3034 994 3034 1497 
Q 3034 2003 2786 2293 
Q 2538 2584 2113 2584 
z
M 3366 4563 
L 3366 3988 
Q 3128 4100 2886 4159 
Q 2644 4219 2406 4219 
Q 1781 4219 1451 3797 
Q 1122 3375 1075 2522 
Q 1259 2794 1537 2939 
Q 1816 3084 2150 3084 
Q 2853 3084 3261 2657 
Q 3669 2231 3669 1497 
Q 3669 778 3244 343 
Q 2819 -91 2113 -91 
Q 1303 -91 875 529 
Q 447 1150 447 2328 
Q 447 3434 972 4092 
Q 1497 4750 2381 4750 
Q 2619 4750 2861 4703 
Q 3103 4656 3366 4563 
z
" transform="scale(0.015625)"/>
       </defs>
       <use xlink:href="#DejaVuSans-30"/>
       <use xlink:href="#DejaVuSans-2e" x="63.623047"/>
       <use xlink:href="#DejaVuSans-36" x="95.410156"/>
      </g>
     </g>
    </g>
    <g id="xtick_7">
     <g id="line2d_7">
      <g>
       <use xlink:href="#m780f82534b" x="380.710629" y="221.123077" style="stroke: #000000; stroke-width: 0.8"/>
      </g>
     </g>
     <g id="text_6">
      <!-- 0.8 -->
      <g transform="translate(372.759066 235.721514)scale(0.1 -0.1)">
       <defs>
        <path id="DejaVuSans-38" d="M 2034 2216 
Q 1584 2216 1326 1975 
Q 1069 1734 1069 1313 
Q 1069 891 1326 650 
Q 1584 409 2034 409 
Q 2484 409 2743 651 
Q 3003 894 3003 1313 
Q 3003 1734 2745 1975 
Q 2488 2216 2034 2216 
z
M 1403 2484 
Q 997 2584 770 2862 
Q 544 3141 544 3541 
Q 544 4100 942 4425 
Q 1341 4750 2034 4750 
Q 2731 4750 3128 4425 
Q 3525 4100 3525 3541 
Q 3525 3141 3298 2862 
Q 3072 2584 2669 2484 
Q 3125 2378 3379 2068 
Q 3634 1759 3634 1313 
Q 3634 634 3220 271 
Q 2806 -91 2034 -91 
Q 1263 -91 848 271 
Q 434 634 434 1313 
Q 434 1759 690 2068 
Q 947 2378 1403 2484 
z
M 1172 3481 
Q 1172 3119 1398 2916 
Q 1625 2713 2034 2713 
Q 2441 2713 2670 2916 
Q 2900 3119 2900 3481 
Q 2900 3844 2670 4047 
Q 2441 4250 2034 4250 
Q 1625 4250 1398 4047 
Q 1172 3844 1172 3481 
z
" transform="scale(0.015625)"/>
       </defs>
       <use xlink:href="#DejaVuSans-30"/>
       <use xlink:href="#DejaVuSans-2e" x="63.623047"/>
       <use xlink:href="#DejaVuSans-38" x="95.410156"/>
      </g>
     </g>
    </g>
    <g id="xtick_8">
     <g id="line2d_8">
      <g>
       <use xlink:href="#m780f82534b" x="436.877641" y="221.123077" style="stroke: #000000; stroke-width: 0.8"/>
      </g>
     </g>
     <g id="text_7">
      <!-- 1.0 -->
      <g transform="translate(428.926078 235.721514)scale(0.1 -0.1)">
       <defs>
        <path id="DejaVuSans-31" d="M 794 531 
L 1825 531 
L 1825 4091 
L 703 3866 
L 703 4441 
L 1819 4666 
L 2450 4666 
L 2450 531 
L 3481 531 
L 3481 0 
L 794 0 
L 794 531 
z
" transform="scale(0.015625)"/>
       </defs>
       <use xlink:href="#DejaVuSans-31"/>
       <use xlink:href="#DejaVuSans-2e" x="63.623047"/>
       <use xlink:href="#DejaVuSans-30" x="95.410156"/>
      </g>
     </g>
    </g>
    <g id="xtick_9">
     <g id="line2d_9">
      <defs>
       <path id="m08234b4129" d="M 0 0 
L 0 2 
" style="stroke: #000000; stroke-width: 0.6"/>
      </defs>
      <g>
       <use xlink:href="#m08234b4129" x="15.625052" y="221.123077" style="stroke: #000000; stroke-width: 0.6"/>
      </g>
     </g>
    </g>
    <g id="xtick_10">
     <g id="line2d_10">
      <g>
       <use xlink:href="#m08234b4129" x="29.666805" y="221.123077" style="stroke: #000000; stroke-width: 0.6"/>
      </g>
     </g>
    </g>
    <g id="xtick_11">
     <g id="line2d_11">
      <g>
       <use xlink:href="#m08234b4129" x="57.750311" y="221.123077" style="stroke: #000000; stroke-width: 0.6"/>
      </g>
     </g>
    </g>
    <g id="xtick_12">
     <g id="line2d_12">
      <g>
       <use xlink:href="#m08234b4129" x="71.792064" y="221.123077" style="stroke: #000000; stroke-width: 0.6"/>
      </g>
     </g>
    </g>
    <g id="xtick_13">
     <g id="line2d_13">
      <g>
       <use xlink:href="#m08234b4129" x="85.833817" y="221.123077" style="stroke: #000000; stroke-width: 0.6"/>
      </g>
     </g>
    </g>
    <g id="xtick_14">
     <g id="line2d_14">
      <g>
       <use xlink:href="#m08234b4129" x="113.917322" y="221.123077" style="stroke: #000000; stroke-width: 0.6"/>
      </g>
     </g>
    </g>
    <g id="xtick_15">
     <g id="line2d_15">
      <g>
       <use xlink:href="#m08234b4129" x="127.959075" y="221.123077" style="stroke: #000000; stroke-width: 0.6"/>
      </g>
     </g>
    </g>
    <g id="xtick_16">
     <g id="line2d_16">
      <g>
       <use xlink:href="#m08234b4129" x="142.000828" y="221.123077" style="stroke: #000000; stroke-width: 0.6"/>
      </g>
     </g>
    </g>
    <g id="xtick_17">
     <g id="line2d_17">
      <g>
       <use xlink:href="#m08234b4129" x="170.084334" y="221.123077" style="stroke: #000000; stroke-width: 0.6"/>
      </g>
     </g>
    </g>
    <g id="xtick_18">
     <g id="line2d_18">
      <g>
       <use xlink:href="#m08234b4129" x="184.126087" y="221.123077" style="stroke: #000000; stroke-width: 0.6"/>
      </g>
     </g>
    </g>
    <g id="xtick_19">
     <g id="line2d_19">
      <g>
       <use xlink:href="#m08234b4129" x="198.16784" y="221.123077" style="stroke: #000000; stroke-width: 0.6"/>
      </g>
     </g>
    </g>
    <g id="xtick_20">
     <g id="line2d_20">
      <g>
       <use xlink:href="#m08234b4129" x="226.251346" y="221.123077" style="stroke: #000000; stroke-width: 0.6"/>
      </g>
     </g>
    </g>
    <g id="xtick_21">
     <g id="line2d_21">
      <g>
       <use xlink:href="#m08234b4129" x="240.293099" y="221.123077" style="stroke: #000000; stroke-width: 0.6"/>
      </g>
     </g>
    </g>
    <g id="xtick_22">
     <g id="line2d_22">
      <g>
       <use xlink:href="#m08234b4129" x="254.334852" y="221.123077" style="stroke: #000000; stroke-width: 0.6"/>
      </g>
     </g>
    </g>
    <g id="xtick_23">
     <g id="line2d_23">
      <g>
       <use xlink:href="#m08234b4129" x="282.418358" y="221.123077" style="stroke: #000000; stroke-width: 0.6"/>
      </g>
     </g>
    </g>
    <g id="xtick_24">
     <g id="line2d_24">
      <g>
       <use xlink:href="#m08234b4129" x="296.460111" y="221.123077" style="stroke: #000000; stroke-width: 0.6"/>
      </g>
     </g>
    </g>
    <g id="xtick_25">
     <g id="line2d_25">
      <g>
       <use xlink:href="#m08234b4129" x="310.501864" y="221.123077" style="stroke: #000000; stroke-width: 0.6"/>
      </g>
     </g>
    </g>
    <g id="xtick_26">
     <g id="line2d_26">
      <g>
       <use xlink:href="#m08234b4129" x="338.58537" y="221.123077" style="stroke: #000000; stroke-width: 0.6"/>
      </g>
     </g>
    </g>
    <g id="xtick_27">
     <g id="line2d_27">
      <g>
       <use xlink:href="#m08234b4129" x="352.627123" y="221.123077" style="stroke: #000000; stroke-width: 0.6"/>
      </g>
     </g>
    </g>
    <g id="xtick_28">
     <g id="line2d_28">
      <g>
       <use xlink:href="#m08234b4129" x="366.668876" y="221.123077" style="stroke: #000000; stroke-width: 0.6"/>
      </g>
     </g>
    </g>
    <g id="xtick_29">
     <g id="line2d_29">
      <g>
       <use xlink:href="#m08234b4129" x="394.752382" y="221.123077" style="stroke: #000000; stroke-width: 0.6"/>
      </g>
     </g>
    </g>
    <g id="xtick_30">
     <g id="line2d_30">
      <g>
       <use xlink:href="#m08234b4129" x="408.794135" y="221.123077" style="stroke: #000000; stroke-width: 0.6"/>
      </g>
     </g>
    </g>
    <g id="xtick_31">
     <g id="line2d_31">
      <g>
       <use xlink:href="#m08234b4129" x="422.835888" y="221.123077" style="stroke: #000000; stroke-width: 0.6"/>
      </g>
     </g>
    </g>
   </g>
   <g id="matplotlib.axis_2">
    <g id="ytick_1">
     <g id="line2d_32">
      <defs>
       <path id="m562732ff2c" d="M 0 0 
L -3.5 0 
" style="stroke: #000000; stroke-width: 0.8"/>
      </defs>
      <g>
       <use xlink:href="#m562732ff2c" x="156.042581" y="304.2" style="stroke: #000000; stroke-width: 0.8"/>
      </g>
     </g>
     <g id="text_8">
      <!-- −0.4 -->
      <g transform="translate(124.759769 307.999219)scale(0.1 -0.1)">
       <use xlink:href="#DejaVuSans-2212"/>
       <use xlink:href="#DejaVuSans-30" x="83.789062"/>
       <use xlink:href="#DejaVuSans-2e" x="147.412109"/>
       <use xlink:href="#DejaVuSans-34" x="179.199219"/>
      </g>
     </g>
    </g>
    <g id="ytick_2">
     <g id="line2d_33">
      <g>
       <use xlink:href="#m562732ff2c" x="156.042581" y="262.661538" style="stroke: #000000; stroke-width: 0.8"/>
      </g>
     </g>
     <g id="text_9">
      <!-- −0.2 -->
      <g transform="translate(124.759769 266.460757)scale(0.1 -0.1)">
       <use xlink:href="#DejaVuSans-2212"/>
       <use xlink:href="#DejaVuSans-30" x="83.789062"/>
       <use xlink:href="#DejaVuSans-2e" x="147.412109"/>
       <use xlink:href="#DejaVuSans-32" x="179.199219"/>
      </g>
     </g>
    </g>
    <g id="ytick_3">
     <g id="line2d_34">
      <g>
       <use xlink:href="#m562732ff2c" x="156.042581" y="221.123077" style="stroke: #000000; stroke-width: 0.8"/>
      </g>
     </g>
    </g>
    <g id="ytick_4">
     <g id="line2d_35">
      <g>
       <use xlink:href="#m562732ff2c" x="156.042581" y="179.584615" style="stroke: #000000; stroke-width: 0.8"/>
      </g>
     </g>
     <g id="text_10">
      <!-- 0.2 -->
      <g transform="translate(133.139456 183.383834)scale(0.1 -0.1)">
       <use xlink:href="#DejaVuSans-30"/>
       <use xlink:href="#DejaVuSans-2e" x="63.623047"/>
       <use xlink:href="#DejaVuSans-32" x="95.410156"/>
      </g>
     </g>
    </g>
    <g id="ytick_5">
     <g id="line2d_36">
      <g>
       <use xlink:href="#m562732ff2c" x="156.042581" y="138.046154" style="stroke: #000000; stroke-width: 0.8"/>
      </g>
     </g>
     <g id="text_11">
      <!-- 0.4 -->
      <g transform="translate(133.139456 141.845373)scale(0.1 -0.1)">
       <use xlink:href="#DejaVuSans-30"/>
       <use xlink:href="#DejaVuSans-2e" x="63.623047"/>
       <use xlink:href="#DejaVuSans-34" x="95.410156"/>
      </g>
     </g>
    </g>
    <g id="ytick_6">
     <g id="line2d_37">
      <g>
       <use xlink:href="#m562732ff2c" x="156.042581" y="96.507692" style="stroke: #000000; stroke-width: 0.8"/>
      </g>
     </g>
     <g id="text_12">
      <!-- 0.6 -->
      <g transform="translate(133.139456 100.306911)scale(0.1 -0.1)">
       <use xlink:href="#DejaVuSans-30"/>
       <use xlink:href="#DejaVuSans-2e" x="63.623047"/>
       <use xlink:href="#DejaVuSans-36" x="95.410156"/>
      </g>
     </g>
    </g>
    <g id="ytick_7">
     <g id="line2d_38">
      <g>
       <use xlink:href="#m562732ff2c" x="156.042581" y="54.969231" style="stroke: #000000; stroke-width: 0.8"/>
      </g>
     </g>
     <g id="text_13">
      <!-- 0.8 -->
      <g transform="translate(133.139456 58.76845)scale(0.1 -0.1)">
       <use xlink:href="#DejaVuSans-30"/>
       <use xlink:href="#DejaVuSans-2e" x="63.623047"/>
       <use xlink:href="#DejaVuSans-38" x="95.410156"/>
      </g>
     </g>
    </g>
    <g id="ytick_8">
     <g id="line2d_39">
      <g>
       <use xlink:href="#m562732ff2c" x="156.042581" y="13.430769" style="stroke: #000000; stroke-width: 0.8"/>
      </g>
     </g>
     <g id="text_14">
      <!-- 1.0 -->
      <g transform="translate(133.139456 17.229988)scale(0.1 -0.1)">
       <use xlink:href="#DejaVuSans-31"/>
       <use xlink:href="#DejaVuSans-2e" x="63.623047"/>
       <use xlink:href="#DejaVuSans-30" x="95.410156"/>
      </g>
     </g>
    </g>
    <g id="ytick_9">
     <g id="line2d_40">
      <defs>
       <path id="me4d4e74913" d="M 0 0 
L -2 0 
" style="stroke: #000000; stroke-width: 0.6"/>
      </defs>
      <g>
       <use xlink:href="#me4d4e74913" x="156.042581" y="324.969231" style="stroke: #000000; stroke-width: 0.6"/>
      </g>
     </g>
    </g>
    <g id="ytick_10">
     <g id="line2d_41">
      <g>
       <use xlink:href="#me4d4e74913" x="156.042581" y="314.584615" style="stroke: #000000; stroke-width: 0.6"/>
      </g>
     </g>
    </g>
    <g id="ytick_11">
     <g id="line2d_42">
      <g>
       <use xlink:href="#me4d4e74913" x="156.042581" y="293.815385" style="stroke: #000000; stroke-width: 0.6"/>
      </g>
     </g>
    </g>
    <g id="ytick_12">
     <g id="line2d_43">
      <g>
       <use xlink:href="#me4d4e74913" x="156.042581" y="283.430769" style="stroke: #000000; stroke-width: 0.6"/>
      </g>
     </g>
    </g>
    <g id="ytick_13">
     <g id="line2d_44">
      <g>
       <use xlink:href="#me4d4e74913" x="156.042581" y="273.046154" style="stroke: #000000; stroke-width: 0.6"/>
      </g>
     </g>
    </g>
    <g id="ytick_14">
     <g id="line2d_45">
      <g>
       <use xlink:href="#me4d4e74913" x="156.042581" y="252.276923" style="stroke: #000000; stroke-width: 0.6"/>
      </g>
     </g>
    </g>
    <g id="ytick_15">
     <g id="line2d_46">
      <g>
       <use xlink:href="#me4d4e74913" x="156.042581" y="241.892308" style="stroke: #000000; stroke-width: 0.6"/>
      </g>
     </g>
    </g>
    <g id="ytick_16">
     <g id="line2d_47">
      <g>
       <use xlink:href="#me4d4e74913" x="156.042581" y="231.507692" style="stroke: #000000; stroke-width: 0.6"/>
      </g>
     </g>
    </g>
    <g id="ytick_17">
     <g id="line2d_48">
      <g>
       <use xlink:href="#me4d4e74913" x="156.042581" y="210.738462" style="stroke: #000000; stroke-width: 0.6"/>
      </g>
     </g>
    </g>
    <g id="ytick_18">
     <g id="line2d_49">
      <g>
       <use xlink:href="#me4d4e74913" x="156.042581" y="200.353846" style="stroke: #000000; stroke-width: 0.6"/>
      </g>
     </g>
    </g>
    <g id="ytick_19">
     <g id="line2d_50">
      <g>
       <use xlink:href="#me4d4e74913" x="156.042581" y="189.969231" style="stroke: #000000; stroke-width: 0.6"/>
      </g>
     </g>
    </g>
    <g id="ytick_20">
     <g id="line2d_51">
      <g>
       <use xlink:href="#me4d4e74913" x="156.042581" y="169.2" style="stroke: #000000; stroke-width: 0.6"/>
      </g>
     </g>
    </g>
    <g id="ytick_21">
     <g id="line2d_52">
      <g>
       <use xlink:href="#me4d4e74913" x="156.042581" y="158.815385" style="stroke: #000000; stroke-width: 0.6"/>
      </g>
     </g>
    </g>
    <g id="ytick_22">
     <g id="line2d_53">
      <g>
       <use xlink:href="#me4d4e74913" x="156.042581" y="148.430769" style="stroke: #000000; stroke-width: 0.6"/>
      </g>
     </g>
    </g>
    <g id="ytick_23">
     <g id="line2d_54">
      <g>
       <use xlink:href="#me4d4e74913" x="156.042581" y="127.661538" style="stroke: #000000; stroke-width: 0.6"/>
      </g>
     </g>
    </g>
    <g id="ytick_24">
     <g id="line2d_55">
      <g>
       <use xlink:href="#me4d4e74913" x="156.042581" y="117.276923" style="stroke: #000000; stroke-width: 0.6"/>
      </g>
     </g>
    </g>
    <g id="ytick_25">
     <g id="line2d_56">
      <g>
       <use xlink:href="#me4d4e74913" x="156.042581" y="106.892308" style="stroke: #000000; stroke-width: 0.6"/>
      </g>
     </g>
    </g>
    <g id="ytick_26">
     <g id="line2d_57">
      <g>
       <use xlink:href="#me4d4e74913" x="156.042581" y="86.123077" style="stroke: #000000; stroke-width: 0.6"/>
      </g>
     </g>
    </g>
    <g id="ytick_27">
     <g id="line2d_58">
      <g>
       <use xlink:href="#me4d4e74913" x="156.042581" y="75.738462" style="stroke: #000000; stroke-width: 0.6"/>
      </g>
     </g>
    </g>
    <g id="ytick_28">
     <g id="line2d_59">
      <g>
       <use xlink:href="#me4d4e74913" x="156.042581" y="65.353846" style="stroke: #000000; stroke-width: 0.6"/>
      </g>
     </g>
    </g>
    <g id="ytick_29">
     <g id="line2d_60">
      <g>
       <use xlink:href="#me4d4e74913" x="156.042581" y="44.584615" style="stroke: #000000; stroke-width: 0.6"/>
      </g>
     </g>
    </g>
    <g id="ytick_30">
     <g id="line2d_61">
      <g>
       <use xlink:href="#me4d4e74913" x="156.042581" y="34.2" style="stroke: #000000; stroke-width: 0.6"/>
      </g>
     </g>
    </g>
    <g id="ytick_31">
     <g id="line2d_62">
      <g>
       <use xlink:href="#me4d4e74913" x="156.042581" y="23.815385" style="stroke: #000000; stroke-width: 0.6"/>
      </g>
     </g>
    </g>
   </g>
   <g id="line2d_63">
    <path d="M 15.625052 324.969231 
L 436.877641 13.430769 
L 436.877641 13.430769 
" clip-path="url(#p35d64ab40b)" style="fill: none; stroke: #0000cc; stroke-linecap: square"/>
   </g>
   <g id="line2d_64">
    <path d="M 15.625052 169.2 
L 23.252589 174.687756 
L 31.457831 180.24904 
L 38.611907 184.808509 
L 46.663315 189.617475 
L 55.29049 194.391419 
L 62.698028 198.177672 
L 69.967607 201.612434 
L 76.811339 204.591637 
L 83.844125 207.396141 
L 89.580273 209.490696 
L 96.333438 211.734507 
L 101.654513 213.3333 
L 107.711298 214.97167 
L 114.608501 216.602091 
L 121.192197 217.924676 
L 129.051744 219.204627 
L 136.448203 220.112008 
L 143.909052 220.73538 
L 148.550537 220.975262 
L 155.235876 221.121363 
L 160.93988 221.059919 
L 168.072737 220.741958 
L 173.869543 220.286179 
L 180.762742 219.513839 
L 187.577076 218.504354 
L 192.898623 217.545943 
L 200.744576 215.860826 
L 207.857198 214.053029 
L 214.736285 212.051124 
L 220.15171 210.299831 
L 226.300069 208.124285 
L 234.183173 205.043628 
L 240.219782 202.463288 
L 246.556423 199.548228 
L 251.665441 197.043923 
L 260.283808 192.507877 
L 266.131286 189.207457 
L 271.594793 185.961019 
L 280.208304 180.523528 
L 288.830659 174.689094 
L 297.058013 168.756879 
L 303.466828 163.888879 
L 312.394842 156.746764 
L 320.0448 150.293082 
L 328.909804 142.428814 
L 335.599125 136.220624 
L 344.022997 128.067378 
L 351.75953 120.250147 
L 359.729787 111.867085 
L 368.322054 102.455038 
L 375.956586 93.765867 
L 384.796264 83.321574 
L 392.8332 73.468557 
L 401.594309 62.340169 
L 408.445608 53.355945 
L 418.421997 39.831642 
L 427.469518 27.113283 
L 436.877641 13.430769 
L 436.877641 13.430769 
" clip-path="url(#p35d64ab40b)" style="fill: none; stroke: #3ccc00; stroke-linecap: square"/>
   </g>
   <g id="patch_4">
    <path d="M 156.042581 331.2 
L 156.042581 7.2 
" style="fill: none; stroke: #000000; stroke-width: 0.8; stroke-linejoin: miter; stroke-linecap: square"/>
   </g>
   <g id="patch_5">
    <path d="M 7.2 221.123077 
L 445.302692 221.123077 
" style="fill: none; stroke: #000000; stroke-width: 0.8; stroke-linejoin: miter; stroke-linecap: square"/>
   </g>
  </g>
 </g>
 <defs>
  <clipPath id="p35d64ab40b">
   <rect x="7.2" y="7.2" width="438.102692" height="324"/>
  </clipPath>
 </defs>
</svg>
