<?xml version="1.0" encoding="utf-8" standalone="no"?>
<!DOCTYPE svg PUBLIC "-//W3C//DTD SVG 1.1//EN"
  "http://www.w3.org/Graphics/SVG/1.1/DTD/svg11.dtd">
<svg xmlns:xlink="http://www.w3.org/1999/xlink" width="452.05977pt" height="338.121062pt" viewBox="0 0 452.05977 338.121062" xmlns="http://www.w3.org/2000/svg" version="1.1">
 <metadata>
  <rdf:RDF xmlns:dc="http://purl.org/dc/elements/1.1/" xmlns:cc="http://creativecommons.org/ns#" xmlns:rdf="http://www.w3.org/1999/02/22-rdf-syntax-ns#">
   <cc:Work>
    <dc:type rdf:resource="http://purl.org/dc/dcmitype/StillImage"/>
    <dc:date>2022-10-23T21:59:20.788877</dc:date>
    <dc:format>image/svg+xml</dc:format>
    <dc:creator>
     <cc:Agent>
      <dc:title>Matplotlib v3.5.2, https://matplotlib.org/</dc:title>
     </cc:Agent>
    </dc:creator>
   </cc:Work>
  </rdf:RDF>
 </metadata>
 <defs>
  <style type="text/css">*{stroke-linejoin: round; stroke-linecap: butt}</style>
 </defs>
 <g id="figure_1">
  <g id="patch_1">
   <path d="M 0 338.121062 
L 452.05977 338.121062 
L 452.05977 0 
L 0 0 
L 0 338.121062 
z
" style="fill: none"/>
  </g>
  <g id="axes_1">
   <g id="patch_2">
    <path d="M 7.647784 330.921062 
L 444.85977 330.921062 
L 444.85977 7.2 
L 7.647784 7.2 
L 7.647784 330.921062 
z
" style="fill: none"/>
   </g>
   <g id="matplotlib.axis_1">
    <g id="xtick_1">
     <g id="line2d_1">
      <defs>
       <path id="ma715192344" d="M 0 0 
L 0 3.5 
" style="stroke: #000000; stroke-width: 0.8"/>
      </defs>
      <g>
       <use xlink:href="#ma715192344" x="16.055707" y="169.044086" style="stroke: #000000; stroke-width: 0.8"/>
      </g>
     </g>
     <g id="text_1">
      <!-- $\mathdefault{−10}$ -->
      <g transform="translate(7.2 182.962585)scale(0.1 -0.1)">
       <defs>
        <path id="CMSY10-0" d="M 4218 1472 
C 4326 1472 4442 1472 4442 1600 
C 4442 1728 4326 1728 4218 1728 
L 755 1728 
C 646 1728 531 1728 531 1600 
C 531 1472 646 1472 755 1472 
L 4218 1472 
z
" transform="scale(0.015625)"/>
        <path id="CMR17-31" d="M 1702 4083 
C 1702 4217 1696 4224 1606 4224 
C 1357 3927 979 3833 621 3820 
C 602 3820 570 3820 563 3808 
C 557 3795 557 3782 557 3648 
C 755 3648 1088 3686 1344 3839 
L 1344 467 
C 1344 243 1331 166 781 166 
L 589 166 
L 589 0 
C 896 6 1216 12 1523 12 
C 1830 12 2150 6 2458 0 
L 2458 166 
L 2266 166 
C 1715 166 1702 236 1702 467 
L 1702 4083 
z
" transform="scale(0.015625)"/>
        <path id="CMR17-30" d="M 2688 2038 
C 2688 2430 2682 3099 2413 3613 
C 2176 4063 1798 4224 1466 4224 
C 1158 4224 768 4082 525 3620 
C 269 3137 243 2539 243 2038 
C 243 1671 250 1112 448 623 
C 723 -39 1216 -128 1466 -128 
C 1760 -128 2208 -7 2470 604 
C 2662 1048 2688 1568 2688 2038 
z
M 1466 -26 
C 1056 -26 813 328 723 816 
C 653 1196 653 1749 653 2109 
C 653 2604 653 3015 736 3407 
C 858 3954 1216 4121 1466 4121 
C 1728 4121 2067 3947 2189 3420 
C 2272 3054 2278 2623 2278 2109 
C 2278 1691 2278 1176 2202 797 
C 2067 96 1690 -26 1466 -26 
z
" transform="scale(0.015625)"/>
       </defs>
       <use xlink:href="#CMSY10-0" transform="scale(0.996264)"/>
       <use xlink:href="#CMR17-31" transform="translate(77.487468 0)scale(0.996264)"/>
       <use xlink:href="#CMR17-30" transform="translate(123.177945 0)scale(0.996264)"/>
      </g>
     </g>
    </g>
    <g id="xtick_2">
     <g id="line2d_2">
      <g>
       <use xlink:href="#ma715192344" x="121.154742" y="169.044086" style="stroke: #000000; stroke-width: 0.8"/>
      </g>
     </g>
     <g id="text_2">
      <!-- $\mathdefault{−5}$ -->
      <g transform="translate(114.789703 182.962585)scale(0.1 -0.1)">
       <defs>
        <path id="CMR17-35" d="M 730 3750 
C 794 3724 1056 3641 1325 3641 
C 1920 3641 2246 3961 2432 4140 
C 2432 4191 2432 4224 2394 4224 
C 2387 4224 2374 4224 2323 4198 
C 2099 4102 1837 4032 1517 4032 
C 1325 4032 1037 4055 723 4191 
C 653 4224 640 4224 634 4224 
C 602 4224 595 4217 595 4090 
L 595 2231 
C 595 2113 595 2080 659 2080 
C 691 2080 704 2093 736 2139 
C 941 2435 1222 2560 1542 2560 
C 1766 2560 2246 2415 2246 1293 
C 2246 1087 2246 716 2054 422 
C 1894 159 1645 25 1370 25 
C 947 25 518 319 403 812 
C 429 806 480 793 506 793 
C 589 793 749 838 749 1036 
C 749 1209 627 1280 506 1280 
C 358 1280 262 1190 262 1011 
C 262 454 704 -128 1382 -128 
C 2042 -128 2669 441 2669 1267 
C 2669 2054 2170 2662 1549 2662 
C 1222 2662 947 2540 730 2304 
L 730 3750 
z
" transform="scale(0.015625)"/>
       </defs>
       <use xlink:href="#CMSY10-0" transform="scale(0.996264)"/>
       <use xlink:href="#CMR17-35" transform="translate(77.487468 0)scale(0.996264)"/>
      </g>
     </g>
    </g>
    <g id="xtick_3">
     <g id="line2d_3">
      <g>
       <use xlink:href="#ma715192344" x="226.253777" y="169.044086" style="stroke: #000000; stroke-width: 0.8"/>
      </g>
     </g>
    </g>
    <g id="xtick_4">
     <g id="line2d_4">
      <g>
       <use xlink:href="#ma715192344" x="331.352812" y="169.044086" style="stroke: #000000; stroke-width: 0.8"/>
      </g>
     </g>
     <g id="text_3">
      <!-- $\mathdefault{5}$ -->
      <g transform="translate(328.862144 182.962585)scale(0.1 -0.1)">
       <use xlink:href="#CMR17-35" transform="scale(0.996264)"/>
      </g>
     </g>
    </g>
    <g id="xtick_5">
     <g id="line2d_5">
      <g>
       <use xlink:href="#ma715192344" x="436.451847" y="169.044086" style="stroke: #000000; stroke-width: 0.8"/>
      </g>
     </g>
     <g id="text_4">
      <!-- $\mathdefault{10}$ -->
      <g transform="translate(431.470511 182.962585)scale(0.1 -0.1)">
       <use xlink:href="#CMR17-31" transform="scale(0.996264)"/>
       <use xlink:href="#CMR17-30" transform="translate(45.690477 0)scale(0.996264)"/>
      </g>
     </g>
    </g>
    <g id="xtick_6">
     <g id="line2d_6">
      <defs>
       <path id="m3b699effe3" d="M 0 0 
L 0 2 
" style="stroke: #000000; stroke-width: 0.6"/>
      </defs>
      <g>
       <use xlink:href="#m3b699effe3" x="37.075514" y="169.044086" style="stroke: #000000; stroke-width: 0.6"/>
      </g>
     </g>
    </g>
    <g id="xtick_7">
     <g id="line2d_7">
      <g>
       <use xlink:href="#m3b699effe3" x="58.095321" y="169.044086" style="stroke: #000000; stroke-width: 0.6"/>
      </g>
     </g>
    </g>
    <g id="xtick_8">
     <g id="line2d_8">
      <g>
       <use xlink:href="#m3b699effe3" x="79.115128" y="169.044086" style="stroke: #000000; stroke-width: 0.6"/>
      </g>
     </g>
    </g>
    <g id="xtick_9">
     <g id="line2d_9">
      <g>
       <use xlink:href="#m3b699effe3" x="100.134935" y="169.044086" style="stroke: #000000; stroke-width: 0.6"/>
      </g>
     </g>
    </g>
    <g id="xtick_10">
     <g id="line2d_10">
      <g>
       <use xlink:href="#m3b699effe3" x="142.174549" y="169.044086" style="stroke: #000000; stroke-width: 0.6"/>
      </g>
     </g>
    </g>
    <g id="xtick_11">
     <g id="line2d_11">
      <g>
       <use xlink:href="#m3b699effe3" x="163.194356" y="169.044086" style="stroke: #000000; stroke-width: 0.6"/>
      </g>
     </g>
    </g>
    <g id="xtick_12">
     <g id="line2d_12">
      <g>
       <use xlink:href="#m3b699effe3" x="184.214163" y="169.044086" style="stroke: #000000; stroke-width: 0.6"/>
      </g>
     </g>
    </g>
    <g id="xtick_13">
     <g id="line2d_13">
      <g>
       <use xlink:href="#m3b699effe3" x="205.23397" y="169.044086" style="stroke: #000000; stroke-width: 0.6"/>
      </g>
     </g>
    </g>
    <g id="xtick_14">
     <g id="line2d_14">
      <g>
       <use xlink:href="#m3b699effe3" x="247.273584" y="169.044086" style="stroke: #000000; stroke-width: 0.6"/>
      </g>
     </g>
    </g>
    <g id="xtick_15">
     <g id="line2d_15">
      <g>
       <use xlink:href="#m3b699effe3" x="268.293391" y="169.044086" style="stroke: #000000; stroke-width: 0.6"/>
      </g>
     </g>
    </g>
    <g id="xtick_16">
     <g id="line2d_16">
      <g>
       <use xlink:href="#m3b699effe3" x="289.313198" y="169.044086" style="stroke: #000000; stroke-width: 0.6"/>
      </g>
     </g>
    </g>
    <g id="xtick_17">
     <g id="line2d_17">
      <g>
       <use xlink:href="#m3b699effe3" x="310.333005" y="169.044086" style="stroke: #000000; stroke-width: 0.6"/>
      </g>
     </g>
    </g>
    <g id="xtick_18">
     <g id="line2d_18">
      <g>
       <use xlink:href="#m3b699effe3" x="352.372619" y="169.044086" style="stroke: #000000; stroke-width: 0.6"/>
      </g>
     </g>
    </g>
    <g id="xtick_19">
     <g id="line2d_19">
      <g>
       <use xlink:href="#m3b699effe3" x="373.392426" y="169.044086" style="stroke: #000000; stroke-width: 0.6"/>
      </g>
     </g>
    </g>
    <g id="xtick_20">
     <g id="line2d_20">
      <g>
       <use xlink:href="#m3b699effe3" x="394.412233" y="169.044086" style="stroke: #000000; stroke-width: 0.6"/>
      </g>
     </g>
    </g>
    <g id="xtick_21">
     <g id="line2d_21">
      <g>
       <use xlink:href="#m3b699effe3" x="415.43204" y="169.044086" style="stroke: #000000; stroke-width: 0.6"/>
      </g>
     </g>
    </g>
   </g>
   <g id="matplotlib.axis_2">
    <g id="ytick_1">
     <g id="line2d_22">
      <defs>
       <path id="m5d5564f27f" d="M 0 0 
L -3.5 0 
" style="stroke: #000000; stroke-width: 0.8"/>
      </defs>
      <g>
       <use xlink:href="#m5d5564f27f" x="226.253777" y="324.695717" style="stroke: #000000; stroke-width: 0.8"/>
      </g>
     </g>
     <g id="text_5">
      <!-- $\mathdefault{−1.0}$ -->
      <g transform="translate(198.774954 328.154966)scale(0.1 -0.1)">
       <defs>
        <path id="CMMI12-3a" d="M 1178 307 
C 1178 492 1024 620 870 620 
C 685 620 557 467 557 313 
C 557 128 710 0 864 0 
C 1050 0 1178 153 1178 307 
z
" transform="scale(0.015625)"/>
       </defs>
       <use xlink:href="#CMSY10-0" transform="scale(0.996264)"/>
       <use xlink:href="#CMR17-31" transform="translate(77.487468 0)scale(0.996264)"/>
       <use xlink:href="#CMMI12-3a" transform="translate(123.177945 0)scale(0.996264)"/>
       <use xlink:href="#CMR17-30" transform="translate(150.275122 0)scale(0.996264)"/>
      </g>
     </g>
    </g>
    <g id="ytick_2">
     <g id="line2d_23">
      <g>
       <use xlink:href="#m5d5564f27f" x="226.253777" y="246.869901" style="stroke: #000000; stroke-width: 0.8"/>
      </g>
     </g>
     <g id="text_6">
      <!-- $\mathdefault{−0.5}$ -->
      <g transform="translate(198.774954 250.329151)scale(0.1 -0.1)">
       <use xlink:href="#CMSY10-0" transform="scale(0.996264)"/>
       <use xlink:href="#CMR17-30" transform="translate(77.487468 0)scale(0.996264)"/>
       <use xlink:href="#CMMI12-3a" transform="translate(123.177945 0)scale(0.996264)"/>
       <use xlink:href="#CMR17-35" transform="translate(150.275122 0)scale(0.996264)"/>
      </g>
     </g>
    </g>
    <g id="ytick_3">
     <g id="line2d_24">
      <g>
       <use xlink:href="#m5d5564f27f" x="226.253777" y="169.044086" style="stroke: #000000; stroke-width: 0.8"/>
      </g>
     </g>
    </g>
    <g id="ytick_4">
     <g id="line2d_25">
      <g>
       <use xlink:href="#m5d5564f27f" x="226.253777" y="91.218271" style="stroke: #000000; stroke-width: 0.8"/>
      </g>
     </g>
     <g id="text_7">
      <!-- $\mathdefault{0.5}$ -->
      <g transform="translate(206.523698 94.67752)scale(0.1 -0.1)">
       <use xlink:href="#CMR17-30" transform="scale(0.996264)"/>
       <use xlink:href="#CMMI12-3a" transform="translate(45.690477 0)scale(0.996264)"/>
       <use xlink:href="#CMR17-35" transform="translate(72.787654 0)scale(0.996264)"/>
      </g>
     </g>
    </g>
    <g id="ytick_5">
     <g id="line2d_26">
      <g>
       <use xlink:href="#m5d5564f27f" x="226.253777" y="13.392456" style="stroke: #000000; stroke-width: 0.8"/>
      </g>
     </g>
     <g id="text_8">
      <!-- $\mathdefault{1.0}$ -->
      <g transform="translate(206.523698 16.851705)scale(0.1 -0.1)">
       <use xlink:href="#CMR17-31" transform="scale(0.996264)"/>
       <use xlink:href="#CMMI12-3a" transform="translate(45.690477 0)scale(0.996264)"/>
       <use xlink:href="#CMR17-30" transform="translate(72.787654 0)scale(0.996264)"/>
      </g>
     </g>
    </g>
    <g id="ytick_6">
     <g id="line2d_27">
      <defs>
       <path id="mff4eebadd6" d="M 0 0 
L -2 0 
" style="stroke: #000000; stroke-width: 0.6"/>
      </defs>
      <g>
       <use xlink:href="#mff4eebadd6" x="226.253777" y="309.130554" style="stroke: #000000; stroke-width: 0.6"/>
      </g>
     </g>
    </g>
    <g id="ytick_7">
     <g id="line2d_28">
      <g>
       <use xlink:href="#mff4eebadd6" x="226.253777" y="293.56539" style="stroke: #000000; stroke-width: 0.6"/>
      </g>
     </g>
    </g>
    <g id="ytick_8">
     <g id="line2d_29">
      <g>
       <use xlink:href="#mff4eebadd6" x="226.253777" y="278.000227" style="stroke: #000000; stroke-width: 0.6"/>
      </g>
     </g>
    </g>
    <g id="ytick_9">
     <g id="line2d_30">
      <g>
       <use xlink:href="#mff4eebadd6" x="226.253777" y="262.435064" style="stroke: #000000; stroke-width: 0.6"/>
      </g>
     </g>
    </g>
    <g id="ytick_10">
     <g id="line2d_31">
      <g>
       <use xlink:href="#mff4eebadd6" x="226.253777" y="231.304738" style="stroke: #000000; stroke-width: 0.6"/>
      </g>
     </g>
    </g>
    <g id="ytick_11">
     <g id="line2d_32">
      <g>
       <use xlink:href="#mff4eebadd6" x="226.253777" y="215.739575" style="stroke: #000000; stroke-width: 0.6"/>
      </g>
     </g>
    </g>
    <g id="ytick_12">
     <g id="line2d_33">
      <g>
       <use xlink:href="#mff4eebadd6" x="226.253777" y="200.174412" style="stroke: #000000; stroke-width: 0.6"/>
      </g>
     </g>
    </g>
    <g id="ytick_13">
     <g id="line2d_34">
      <g>
       <use xlink:href="#mff4eebadd6" x="226.253777" y="184.609249" style="stroke: #000000; stroke-width: 0.6"/>
      </g>
     </g>
    </g>
    <g id="ytick_14">
     <g id="line2d_35">
      <g>
       <use xlink:href="#mff4eebadd6" x="226.253777" y="153.478923" style="stroke: #000000; stroke-width: 0.6"/>
      </g>
     </g>
    </g>
    <g id="ytick_15">
     <g id="line2d_36">
      <g>
       <use xlink:href="#mff4eebadd6" x="226.253777" y="137.91376" style="stroke: #000000; stroke-width: 0.6"/>
      </g>
     </g>
    </g>
    <g id="ytick_16">
     <g id="line2d_37">
      <g>
       <use xlink:href="#mff4eebadd6" x="226.253777" y="122.348597" style="stroke: #000000; stroke-width: 0.6"/>
      </g>
     </g>
    </g>
    <g id="ytick_17">
     <g id="line2d_38">
      <g>
       <use xlink:href="#mff4eebadd6" x="226.253777" y="106.783434" style="stroke: #000000; stroke-width: 0.6"/>
      </g>
     </g>
    </g>
    <g id="ytick_18">
     <g id="line2d_39">
      <g>
       <use xlink:href="#mff4eebadd6" x="226.253777" y="75.653108" style="stroke: #000000; stroke-width: 0.6"/>
      </g>
     </g>
    </g>
    <g id="ytick_19">
     <g id="line2d_40">
      <g>
       <use xlink:href="#mff4eebadd6" x="226.253777" y="60.087945" style="stroke: #000000; stroke-width: 0.6"/>
      </g>
     </g>
    </g>
    <g id="ytick_20">
     <g id="line2d_41">
      <g>
       <use xlink:href="#mff4eebadd6" x="226.253777" y="44.522782" style="stroke: #000000; stroke-width: 0.6"/>
      </g>
     </g>
    </g>
    <g id="ytick_21">
     <g id="line2d_42">
      <g>
       <use xlink:href="#mff4eebadd6" x="226.253777" y="28.957619" style="stroke: #000000; stroke-width: 0.6"/>
      </g>
     </g>
    </g>
   </g>
   <g id="line2d_43">
    <path d="M 16.055707 299.646938 
L 17.557677 305.359162 
L 19.059646 310.375684 
L 20.394819 314.230224 
L 22.231891 318.573773 
L 23.547309 320.984252 
L 24.862727 322.79989 
L 26.159051 324.000292 
L 27.557857 324.634632 
L 28.956664 324.580191 
L 30.155719 323.98536 
L 31.354774 322.886483 
L 32.529694 321.324231 
L 34.244608 318.191858 
L 35.959523 314.067276 
L 36.774588 311.766781 
L 38.409145 306.51049 
L 40.511601 298.53297 
L 42.696313 288.873227 
L 45.0286 277.136543 
L 47.343677 264.171358 
L 51.214691 240.002272 
L 55.320969 211.760907 
L 70.3263 103.329447 
L 74.122327 79.054896 
L 77.086578 62.097553 
L 80.020598 47.403093 
L 82.238156 37.853133 
L 83.818508 31.931987 
L 85.035459 27.898773 
L 87.161485 21.994793 
L 88.141595 19.776114 
L 89.121706 17.88191 
L 90.690747 15.535042 
L 92.259788 14.043128 
L 93.51525 13.470857 
L 94.770711 13.45341 
L 95.809846 13.858733 
L 96.848982 14.64324 
L 98.019607 15.978778 
L 99.190233 17.788932 
L 100.256006 19.844998 
L 101.826528 23.571961 
L 103.39705 28.110648 
L 105.154987 34.122355 
L 106.430315 39.076625 
L 107.988429 45.776593 
L 110.815162 59.631949 
L 113.798977 76.395113 
L 116.861163 95.533089 
L 120.540243 120.547641 
L 124.810299 151.384464 
L 133.367961 214.063275 
L 136.827177 237.865159 
L 138.137526 246.428986 
L 141.850359 268.955956 
L 144.947785 285.397084 
L 147.524319 297.165495 
L 149.994092 306.643526 
L 151.178391 310.52239 
L 152.547497 314.446256 
L 153.916603 317.75348 
L 154.945997 319.825402 
L 155.975391 321.535776 
L 156.970465 322.841596 
L 157.965539 323.80281 
L 158.736181 324.309048 
L 159.680819 324.644871 
L 160.625458 324.666489 
L 161.570097 324.373859 
L 162.514736 323.767571 
L 163.255271 323.07373 
L 164.296035 321.775716 
L 165.336798 320.103344 
L 166.784002 317.163548 
L 168.231205 313.521905 
L 169.610295 309.414353 
L 170.989384 304.702786 
L 173.290573 295.552456 
L 175.788551 283.909059 
L 177.527456 274.836467 
L 179.266362 265.040272 
L 181.400738 252.12593 
L 184.996945 228.503584 
L 188.485729 203.92076 
L 201.808013 107.312773 
L 205.275812 84.684597 
L 207.285205 72.584112 
L 209.294599 61.364451 
L 212.325552 46.331329 
L 213.544927 40.98605 
L 215.418203 33.619456 
L 217.604121 26.385977 
L 219.963594 20.309959 
L 221.542568 17.285705 
L 223.121541 15.117386 
L 224.529835 13.915656 
L 225.821268 13.425405 
L 227.112701 13.522388 
L 228.601082 14.36197 
L 230.089463 15.976779 
L 230.670477 16.815902 
L 231.821075 18.820144 
L 232.971673 21.274394 
L 234.358686 24.820584 
L 235.745699 28.994518 
L 237.973244 36.964781 
L 240.409439 47.374575 
L 242.930785 59.865412 
L 244.916941 70.819443 
L 246.626825 80.955579 
L 249.071942 96.444822 
L 252.262979 118.101484 
L 255.895607 144.152115 
L 265.282043 212.947285 
L 269.617463 242.599095 
L 272.634003 261.461419 
L 274.881313 274.298735 
L 277.338674 286.955321 
L 279.036468 294.769053 
L 281.785698 305.663084 
L 283.357669 310.853753 
L 284.393661 313.842852 
L 285.429654 316.480282 
L 286.465646 318.75964 
L 287.501638 320.675388 
L 288.797364 322.552646 
L 290.047207 323.81097 
L 291.29705 324.522273 
L 292.307862 324.695657 
L 293.318674 324.509164 
L 295.149039 323.257567 
L 296.30028 321.870725 
L 297.451522 320.025567 
L 299.313715 316.085324 
L 300.695539 312.414014 
L 302.077363 308.123335 
L 304.152136 300.559187 
L 306.265868 291.536972 
L 308.506484 280.624079 
L 310.244572 271.279468 
L 313.186169 253.908537 
L 316.897597 229.669717 
L 320.01234 207.839781 
L 334.537444 102.870249 
L 338.273029 79.006459 
L 340.935493 63.688506 
L 343.490217 50.574523 
L 345.184057 42.832314 
L 346.61365 36.933457 
L 348.043243 31.645454 
L 349.451816 27.056459 
L 350.860389 23.104829 
L 351.896954 20.614381 
L 353.050776 18.266878 
L 354.844497 15.521514 
L 356.638218 13.893427 
L 357.714168 13.458199 
L 358.857581 13.442393 
L 360.000995 13.886903 
L 361.276809 14.92458 
L 362.552624 16.529857 
L 364.029336 19.088736 
L 365.378509 22.073722 
L 366.727682 25.66399 
L 367.895161 29.247919 
L 369.062639 33.262993 
L 371.399041 42.541989 
L 373.867174 54.037348 
L 376.291852 66.873538 
L 378.895779 82.165884 
L 380.757773 93.932004 
L 384.333598 118.096423 
L 386.834685 135.915712 
L 398.480406 220.88708 
L 402.344238 246.840002 
L 404.801554 262.033704 
L 406.989718 274.500756 
L 408.773399 283.824336 
L 410.219225 290.778675 
L 411.665051 297.157286 
L 414.333865 307.319678 
L 415.769574 311.874735 
L 417.205283 315.763709 
L 418.687819 319.061289 
L 419.687684 320.864928 
L 420.687549 322.325108 
L 422.091418 323.78945 
L 423.495288 324.563787 
L 424.789085 324.663407 
L 426.082882 324.173638 
L 427.200562 323.277403 
L 428.318242 321.945201 
L 429.481705 320.099377 
L 430.645168 317.790881 
L 431.480988 315.850802 
L 433.386974 310.564137 
L 434.91941 305.467927 
L 436.451847 299.646938 
L 436.451847 299.646938 
" clip-path="url(#p697ff0e792)" style="fill: none; stroke: #0000ff; stroke-linecap: square"/>
   </g>
   <g id="patch_3">
    <path d="M 226.253777 330.921062 
L 226.253777 7.2 
" style="fill: none; stroke: #000000; stroke-width: 0.8; stroke-linejoin: miter; stroke-linecap: square"/>
   </g>
   <g id="patch_4">
    <path d="M 7.647784 169.044086 
L 444.85977 169.044086 
" style="fill: none; stroke: #000000; stroke-width: 0.8; stroke-linejoin: miter; stroke-linecap: square"/>
   </g>
  </g>
 </g>
 <defs>
  <clipPath id="p697ff0e792">
   <rect x="7.647784" y="7.2" width="437.211985" height="323.721062"/>
  </clipPath>
 </defs>
</svg>
