<?xml version="1.0" encoding="utf-8" standalone="no"?>
<!DOCTYPE svg PUBLIC "-//W3C//DTD SVG 1.1//EN"
  "http://www.w3.org/Graphics/SVG/1.1/DTD/svg11.dtd">
<svg xmlns:xlink="http://www.w3.org/1999/xlink" width="452.05977pt" height="338.117875pt" viewBox="0 0 452.05977 338.117875" xmlns="http://www.w3.org/2000/svg" version="1.1">
 <metadata>
  <rdf:RDF xmlns:dc="http://purl.org/dc/elements/1.1/" xmlns:cc="http://creativecommons.org/ns#" xmlns:rdf="http://www.w3.org/1999/02/22-rdf-syntax-ns#">
   <cc:Work>
    <dc:type rdf:resource="http://purl.org/dc/dcmitype/StillImage"/>
    <dc:date>2022-09-15T18:34:49.090223</dc:date>
    <dc:format>image/svg+xml</dc:format>
    <dc:creator>
     <cc:Agent>
      <dc:title>Matplotlib v3.5.1, https://matplotlib.org/</dc:title>
     </cc:Agent>
    </dc:creator>
   </cc:Work>
  </rdf:RDF>
 </metadata>
 <defs>
  <style type="text/css">*{stroke-linejoin: round; stroke-linecap: butt}</style>
 </defs>
 <g id="figure_1">
  <g id="patch_1">
   <path d="M 0 338.117875 
L 452.05977 338.117875 
L 452.05977 0 
L 0 0 
L 0 338.117875 
z
" style="fill: none"/>
  </g>
  <g id="axes_1">
   <g id="patch_2">
    <path d="M 7.647784 330.917875 
L 444.85977 330.917875 
L 444.85977 7.2 
L 7.647784 7.2 
L 7.647784 330.917875 
z
" style="fill: none"/>
   </g>
   <g id="matplotlib.axis_1">
    <g id="xtick_1">
     <g id="line2d_1">
      <defs>
       <path id="m9127032afa" d="M 0 0 
L 0 3.5 
" style="stroke: #000000; stroke-width: 0.8"/>
      </defs>
      <g>
       <use xlink:href="#m9127032afa" x="16.055707" y="169.044625" style="stroke: #000000; stroke-width: 0.8"/>
      </g>
     </g>
     <g id="text_1">
      <!-- $\mathdefault{−10}$ -->
      <g transform="translate(7.2 182.963123)scale(0.1 -0.1)">
       <defs>
        <path id="CMSY10-0" d="M 4218 1472 
C 4326 1472 4442 1472 4442 1600 
C 4442 1728 4326 1728 4218 1728 
L 755 1728 
C 646 1728 531 1728 531 1600 
C 531 1472 646 1472 755 1472 
L 4218 1472 
z
" transform="scale(0.015625)"/>
        <path id="CMR17-31" d="M 1702 4083 
C 1702 4217 1696 4224 1606 4224 
C 1357 3927 979 3833 621 3820 
C 602 3820 570 3820 563 3808 
C 557 3795 557 3782 557 3648 
C 755 3648 1088 3686 1344 3839 
L 1344 467 
C 1344 243 1331 166 781 166 
L 589 166 
L 589 0 
C 896 6 1216 12 1523 12 
C 1830 12 2150 6 2458 0 
L 2458 166 
L 2266 166 
C 1715 166 1702 236 1702 467 
L 1702 4083 
z
" transform="scale(0.015625)"/>
        <path id="CMR17-30" d="M 2688 2038 
C 2688 2430 2682 3099 2413 3613 
C 2176 4063 1798 4224 1466 4224 
C 1158 4224 768 4082 525 3620 
C 269 3137 243 2539 243 2038 
C 243 1671 250 1112 448 623 
C 723 -39 1216 -128 1466 -128 
C 1760 -128 2208 -7 2470 604 
C 2662 1048 2688 1568 2688 2038 
z
M 1466 -26 
C 1056 -26 813 328 723 816 
C 653 1196 653 1749 653 2109 
C 653 2604 653 3015 736 3407 
C 858 3954 1216 4121 1466 4121 
C 1728 4121 2067 3947 2189 3420 
C 2272 3054 2278 2623 2278 2109 
C 2278 1691 2278 1176 2202 797 
C 2067 96 1690 -26 1466 -26 
z
" transform="scale(0.015625)"/>
       </defs>
       <use xlink:href="#CMSY10-0" transform="scale(0.996264)"/>
       <use xlink:href="#CMR17-31" transform="translate(77.487468 0)scale(0.996264)"/>
       <use xlink:href="#CMR17-30" transform="translate(123.177945 0)scale(0.996264)"/>
      </g>
     </g>
    </g>
    <g id="xtick_2">
     <g id="line2d_2">
      <g>
       <use xlink:href="#m9127032afa" x="121.154742" y="169.044625" style="stroke: #000000; stroke-width: 0.8"/>
      </g>
     </g>
     <g id="text_2">
      <!-- $\mathdefault{−5}$ -->
      <g transform="translate(114.789703 182.963123)scale(0.1 -0.1)">
       <defs>
        <path id="CMR17-35" d="M 730 3750 
C 794 3724 1056 3641 1325 3641 
C 1920 3641 2246 3961 2432 4140 
C 2432 4191 2432 4224 2394 4224 
C 2387 4224 2374 4224 2323 4198 
C 2099 4102 1837 4032 1517 4032 
C 1325 4032 1037 4055 723 4191 
C 653 4224 640 4224 634 4224 
C 602 4224 595 4217 595 4090 
L 595 2231 
C 595 2113 595 2080 659 2080 
C 691 2080 704 2093 736 2139 
C 941 2435 1222 2560 1542 2560 
C 1766 2560 2246 2415 2246 1293 
C 2246 1087 2246 716 2054 422 
C 1894 159 1645 25 1370 25 
C 947 25 518 319 403 812 
C 429 806 480 793 506 793 
C 589 793 749 838 749 1036 
C 749 1209 627 1280 506 1280 
C 358 1280 262 1190 262 1011 
C 262 454 704 -128 1382 -128 
C 2042 -128 2669 441 2669 1267 
C 2669 2054 2170 2662 1549 2662 
C 1222 2662 947 2540 730 2304 
L 730 3750 
z
" transform="scale(0.015625)"/>
       </defs>
       <use xlink:href="#CMSY10-0" transform="scale(0.996264)"/>
       <use xlink:href="#CMR17-35" transform="translate(77.487468 0)scale(0.996264)"/>
      </g>
     </g>
    </g>
    <g id="xtick_3">
     <g id="line2d_3">
      <g>
       <use xlink:href="#m9127032afa" x="226.253777" y="169.044625" style="stroke: #000000; stroke-width: 0.8"/>
      </g>
     </g>
    </g>
    <g id="xtick_4">
     <g id="line2d_4">
      <g>
       <use xlink:href="#m9127032afa" x="331.352812" y="169.044625" style="stroke: #000000; stroke-width: 0.8"/>
      </g>
     </g>
     <g id="text_3">
      <!-- $\mathdefault{5}$ -->
      <g transform="translate(328.862144 182.963123)scale(0.1 -0.1)">
       <use xlink:href="#CMR17-35" transform="scale(0.996264)"/>
      </g>
     </g>
    </g>
    <g id="xtick_5">
     <g id="line2d_5">
      <g>
       <use xlink:href="#m9127032afa" x="436.451847" y="169.044625" style="stroke: #000000; stroke-width: 0.8"/>
      </g>
     </g>
     <g id="text_4">
      <!-- $\mathdefault{10}$ -->
      <g transform="translate(431.470511 182.963123)scale(0.1 -0.1)">
       <use xlink:href="#CMR17-31" transform="scale(0.996264)"/>
       <use xlink:href="#CMR17-30" transform="translate(45.690477 0)scale(0.996264)"/>
      </g>
     </g>
    </g>
    <g id="xtick_6">
     <g id="line2d_6">
      <defs>
       <path id="m735840d717" d="M 0 0 
L 0 2 
" style="stroke: #000000; stroke-width: 0.6"/>
      </defs>
      <g>
       <use xlink:href="#m735840d717" x="37.075514" y="169.044625" style="stroke: #000000; stroke-width: 0.6"/>
      </g>
     </g>
    </g>
    <g id="xtick_7">
     <g id="line2d_7">
      <g>
       <use xlink:href="#m735840d717" x="58.095321" y="169.044625" style="stroke: #000000; stroke-width: 0.6"/>
      </g>
     </g>
    </g>
    <g id="xtick_8">
     <g id="line2d_8">
      <g>
       <use xlink:href="#m735840d717" x="79.115128" y="169.044625" style="stroke: #000000; stroke-width: 0.6"/>
      </g>
     </g>
    </g>
    <g id="xtick_9">
     <g id="line2d_9">
      <g>
       <use xlink:href="#m735840d717" x="100.134935" y="169.044625" style="stroke: #000000; stroke-width: 0.6"/>
      </g>
     </g>
    </g>
    <g id="xtick_10">
     <g id="line2d_10">
      <g>
       <use xlink:href="#m735840d717" x="142.174549" y="169.044625" style="stroke: #000000; stroke-width: 0.6"/>
      </g>
     </g>
    </g>
    <g id="xtick_11">
     <g id="line2d_11">
      <g>
       <use xlink:href="#m735840d717" x="163.194356" y="169.044625" style="stroke: #000000; stroke-width: 0.6"/>
      </g>
     </g>
    </g>
    <g id="xtick_12">
     <g id="line2d_12">
      <g>
       <use xlink:href="#m735840d717" x="184.214163" y="169.044625" style="stroke: #000000; stroke-width: 0.6"/>
      </g>
     </g>
    </g>
    <g id="xtick_13">
     <g id="line2d_13">
      <g>
       <use xlink:href="#m735840d717" x="205.23397" y="169.044625" style="stroke: #000000; stroke-width: 0.6"/>
      </g>
     </g>
    </g>
    <g id="xtick_14">
     <g id="line2d_14">
      <g>
       <use xlink:href="#m735840d717" x="247.273584" y="169.044625" style="stroke: #000000; stroke-width: 0.6"/>
      </g>
     </g>
    </g>
    <g id="xtick_15">
     <g id="line2d_15">
      <g>
       <use xlink:href="#m735840d717" x="268.293391" y="169.044625" style="stroke: #000000; stroke-width: 0.6"/>
      </g>
     </g>
    </g>
    <g id="xtick_16">
     <g id="line2d_16">
      <g>
       <use xlink:href="#m735840d717" x="289.313198" y="169.044625" style="stroke: #000000; stroke-width: 0.6"/>
      </g>
     </g>
    </g>
    <g id="xtick_17">
     <g id="line2d_17">
      <g>
       <use xlink:href="#m735840d717" x="310.333005" y="169.044625" style="stroke: #000000; stroke-width: 0.6"/>
      </g>
     </g>
    </g>
    <g id="xtick_18">
     <g id="line2d_18">
      <g>
       <use xlink:href="#m735840d717" x="352.372619" y="169.044625" style="stroke: #000000; stroke-width: 0.6"/>
      </g>
     </g>
    </g>
    <g id="xtick_19">
     <g id="line2d_19">
      <g>
       <use xlink:href="#m735840d717" x="373.392426" y="169.044625" style="stroke: #000000; stroke-width: 0.6"/>
      </g>
     </g>
    </g>
    <g id="xtick_20">
     <g id="line2d_20">
      <g>
       <use xlink:href="#m735840d717" x="394.412233" y="169.044625" style="stroke: #000000; stroke-width: 0.6"/>
      </g>
     </g>
    </g>
    <g id="xtick_21">
     <g id="line2d_21">
      <g>
       <use xlink:href="#m735840d717" x="415.43204" y="169.044625" style="stroke: #000000; stroke-width: 0.6"/>
      </g>
     </g>
    </g>
   </g>
   <g id="matplotlib.axis_2">
    <g id="ytick_1">
     <g id="line2d_22">
      <defs>
       <path id="m560306ad02" d="M 0 0 
L -3.5 0 
" style="stroke: #000000; stroke-width: 0.8"/>
      </defs>
      <g>
       <use xlink:href="#m560306ad02" x="226.253777" y="324.696468" style="stroke: #000000; stroke-width: 0.8"/>
      </g>
     </g>
     <g id="text_5">
      <!-- $\mathdefault{−1.0}$ -->
      <g transform="translate(198.774954 328.155717)scale(0.1 -0.1)">
       <defs>
        <path id="CMMI12-3a" d="M 1178 307 
C 1178 492 1024 620 870 620 
C 685 620 557 467 557 313 
C 557 128 710 0 864 0 
C 1050 0 1178 153 1178 307 
z
" transform="scale(0.015625)"/>
       </defs>
       <use xlink:href="#CMSY10-0" transform="scale(0.996264)"/>
       <use xlink:href="#CMR17-31" transform="translate(77.487468 0)scale(0.996264)"/>
       <use xlink:href="#CMMI12-3a" transform="translate(123.177945 0)scale(0.996264)"/>
       <use xlink:href="#CMR17-30" transform="translate(150.275122 0)scale(0.996264)"/>
      </g>
     </g>
    </g>
    <g id="ytick_2">
     <g id="line2d_23">
      <g>
       <use xlink:href="#m560306ad02" x="226.253777" y="246.870546" style="stroke: #000000; stroke-width: 0.8"/>
      </g>
     </g>
     <g id="text_6">
      <!-- $\mathdefault{−0.5}$ -->
      <g transform="translate(198.774954 250.329795)scale(0.1 -0.1)">
       <use xlink:href="#CMSY10-0" transform="scale(0.996264)"/>
       <use xlink:href="#CMR17-30" transform="translate(77.487468 0)scale(0.996264)"/>
       <use xlink:href="#CMMI12-3a" transform="translate(123.177945 0)scale(0.996264)"/>
       <use xlink:href="#CMR17-35" transform="translate(150.275122 0)scale(0.996264)"/>
      </g>
     </g>
    </g>
    <g id="ytick_3">
     <g id="line2d_24">
      <g>
       <use xlink:href="#m560306ad02" x="226.253777" y="169.044625" style="stroke: #000000; stroke-width: 0.8"/>
      </g>
     </g>
    </g>
    <g id="ytick_4">
     <g id="line2d_25">
      <g>
       <use xlink:href="#m560306ad02" x="226.253777" y="91.218703" style="stroke: #000000; stroke-width: 0.8"/>
      </g>
     </g>
     <g id="text_7">
      <!-- $\mathdefault{0.5}$ -->
      <g transform="translate(206.523698 94.677953)scale(0.1 -0.1)">
       <use xlink:href="#CMR17-30" transform="scale(0.996264)"/>
       <use xlink:href="#CMMI12-3a" transform="translate(45.690477 0)scale(0.996264)"/>
       <use xlink:href="#CMR17-35" transform="translate(72.787654 0)scale(0.996264)"/>
      </g>
     </g>
    </g>
    <g id="ytick_5">
     <g id="line2d_26">
      <g>
       <use xlink:href="#m560306ad02" x="226.253777" y="13.392782" style="stroke: #000000; stroke-width: 0.8"/>
      </g>
     </g>
     <g id="text_8">
      <!-- $\mathdefault{1.0}$ -->
      <g transform="translate(206.523698 16.852031)scale(0.1 -0.1)">
       <use xlink:href="#CMR17-31" transform="scale(0.996264)"/>
       <use xlink:href="#CMMI12-3a" transform="translate(45.690477 0)scale(0.996264)"/>
       <use xlink:href="#CMR17-30" transform="translate(72.787654 0)scale(0.996264)"/>
      </g>
     </g>
    </g>
    <g id="ytick_6">
     <g id="line2d_27">
      <defs>
       <path id="m9cbb456cf2" d="M 0 0 
L -2 0 
" style="stroke: #000000; stroke-width: 0.6"/>
      </defs>
      <g>
       <use xlink:href="#m9cbb456cf2" x="226.253777" y="309.131283" style="stroke: #000000; stroke-width: 0.6"/>
      </g>
     </g>
    </g>
    <g id="ytick_7">
     <g id="line2d_28">
      <g>
       <use xlink:href="#m9cbb456cf2" x="226.253777" y="293.566099" style="stroke: #000000; stroke-width: 0.6"/>
      </g>
     </g>
    </g>
    <g id="ytick_8">
     <g id="line2d_29">
      <g>
       <use xlink:href="#m9cbb456cf2" x="226.253777" y="278.000915" style="stroke: #000000; stroke-width: 0.6"/>
      </g>
     </g>
    </g>
    <g id="ytick_9">
     <g id="line2d_30">
      <g>
       <use xlink:href="#m9cbb456cf2" x="226.253777" y="262.43573" style="stroke: #000000; stroke-width: 0.6"/>
      </g>
     </g>
    </g>
    <g id="ytick_10">
     <g id="line2d_31">
      <g>
       <use xlink:href="#m9cbb456cf2" x="226.253777" y="231.305362" style="stroke: #000000; stroke-width: 0.6"/>
      </g>
     </g>
    </g>
    <g id="ytick_11">
     <g id="line2d_32">
      <g>
       <use xlink:href="#m9cbb456cf2" x="226.253777" y="215.740178" style="stroke: #000000; stroke-width: 0.6"/>
      </g>
     </g>
    </g>
    <g id="ytick_12">
     <g id="line2d_33">
      <g>
       <use xlink:href="#m9cbb456cf2" x="226.253777" y="200.174993" style="stroke: #000000; stroke-width: 0.6"/>
      </g>
     </g>
    </g>
    <g id="ytick_13">
     <g id="line2d_34">
      <g>
       <use xlink:href="#m9cbb456cf2" x="226.253777" y="184.609809" style="stroke: #000000; stroke-width: 0.6"/>
      </g>
     </g>
    </g>
    <g id="ytick_14">
     <g id="line2d_35">
      <g>
       <use xlink:href="#m9cbb456cf2" x="226.253777" y="153.47944" style="stroke: #000000; stroke-width: 0.6"/>
      </g>
     </g>
    </g>
    <g id="ytick_15">
     <g id="line2d_36">
      <g>
       <use xlink:href="#m9cbb456cf2" x="226.253777" y="137.914256" style="stroke: #000000; stroke-width: 0.6"/>
      </g>
     </g>
    </g>
    <g id="ytick_16">
     <g id="line2d_37">
      <g>
       <use xlink:href="#m9cbb456cf2" x="226.253777" y="122.349072" style="stroke: #000000; stroke-width: 0.6"/>
      </g>
     </g>
    </g>
    <g id="ytick_17">
     <g id="line2d_38">
      <g>
       <use xlink:href="#m9cbb456cf2" x="226.253777" y="106.783888" style="stroke: #000000; stroke-width: 0.6"/>
      </g>
     </g>
    </g>
    <g id="ytick_18">
     <g id="line2d_39">
      <g>
       <use xlink:href="#m9cbb456cf2" x="226.253777" y="75.653519" style="stroke: #000000; stroke-width: 0.6"/>
      </g>
     </g>
    </g>
    <g id="ytick_19">
     <g id="line2d_40">
      <g>
       <use xlink:href="#m9cbb456cf2" x="226.253777" y="60.088335" style="stroke: #000000; stroke-width: 0.6"/>
      </g>
     </g>
    </g>
    <g id="ytick_20">
     <g id="line2d_41">
      <g>
       <use xlink:href="#m9cbb456cf2" x="226.253777" y="44.52315" style="stroke: #000000; stroke-width: 0.6"/>
      </g>
     </g>
    </g>
    <g id="ytick_21">
     <g id="line2d_42">
      <g>
       <use xlink:href="#m9cbb456cf2" x="226.253777" y="28.957966" style="stroke: #000000; stroke-width: 0.6"/>
      </g>
     </g>
    </g>
   </g>
   <g id="line2d_43">
    <path d="M 16.055707 299.647655 
L 17.739253 306.003855 
L 19.124711 310.577602 
L 20.51017 314.536695 
L 21.649527 317.319744 
L 23.074897 320.187321 
L 24.500266 322.360164 
L 26.189986 324.022505 
L 27.638581 324.650981 
L 29.087175 324.540717 
L 30.453668 323.760006 
L 31.82016 322.325657 
L 32.770563 320.945762 
L 34.221507 318.241443 
L 35.672451 314.826515 
L 36.960839 311.211577 
L 38.503887 306.180746 
L 40.544512 298.398293 
L 42.526216 289.673878 
L 45.304713 275.65676 
L 47.867408 261.073151 
L 49.856312 248.801325 
L 53.111248 227.231453 
L 56.799868 201.133727 
L 68.442858 116.219581 
L 72.347326 90.087778 
L 74.789158 75.072274 
L 77.043368 62.330653 
L 78.552357 54.477956 
L 81.297815 41.730755 
L 82.534284 36.686481 
L 84.836619 28.526125 
L 86.799964 22.894485 
L 87.781636 20.553831 
L 88.763308 18.536991 
L 89.85627 16.677812 
L 90.949231 15.23049 
L 91.960401 14.26167 
L 93.22564 13.554006 
L 94.612395 13.425344 
L 95.999151 13.973774 
L 97.111256 14.901298 
L 98.223362 16.260199 
L 99.546773 18.434062 
L 100.832282 21.117185 
L 102.11779 24.353412 
L 103.770257 29.306212 
L 105.422723 35.12219 
L 107.076295 41.770133 
L 110.22816 56.583735 
L 112.246885 67.420933 
L 114.308063 79.451621 
L 116.652179 94.173115 
L 119.158318 110.936094 
L 124.978378 152.622117 
L 133.904493 217.852015 
L 137.049429 239.338082 
L 139.714988 256.337489 
L 142.622893 273.274704 
L 144.169581 281.491187 
L 146.357005 292.062704 
L 147.90629 298.751142 
L 149.455575 304.735259 
L 151.315722 310.944084 
L 152.389738 314.025995 
L 153.463753 316.72948 
L 154.537054 319.04607 
L 155.545462 320.866431 
L 156.553871 322.337438 
L 157.562279 323.455705 
L 158.570687 324.21866 
L 160.367591 324.692532 
L 160.918966 324.609953 
L 162.745506 323.572661 
L 164.572045 321.369273 
L 165.58116 319.657588 
L 166.590276 317.598844 
L 167.838802 314.578487 
L 168.947305 311.466308 
L 170.055809 307.958132 
L 172.362217 299.433509 
L 175.067138 287.446455 
L 177.650474 274.167149 
L 180.196547 259.526689 
L 183.944002 235.632335 
L 187.194673 213.166919 
L 191.34993 182.991823 
L 197.824865 135.332896 
L 201.481691 109.538834 
L 205.601289 82.669729 
L 207.955447 68.739013 
L 210.037528 57.460414 
L 211.674913 49.353973 
L 214.102593 38.684351 
L 216.448719 30.022233 
L 217.926861 25.447254 
L 219.405003 21.582085 
L 221.212438 17.84807 
L 222.148463 16.352012 
L 223.264316 14.964304 
L 224.380169 14.010708 
L 225.766329 13.434633 
L 227.152488 13.535028 
L 228.27719 14.113392 
L 229.401891 15.135214 
L 230.919017 17.210741 
L 232.436143 20.076886 
L 233.468169 22.470961 
L 234.500194 25.218295 
L 236.562672 31.739927 
L 238.048797 37.26201 
L 239.564437 43.571765 
L 241.64995 53.312579 
L 243.455621 62.669545 
L 245.261292 72.81101 
L 249.025506 96.141272 
L 250.566038 106.406967 
L 254.209227 131.918966 
L 267.957638 231.549733 
L 271.472757 254.405363 
L 274.377463 271.520807 
L 276.916018 284.889218 
L 278.901523 294.17806 
L 280.522832 300.939047 
L 282.386036 307.737949 
L 284.524213 314.195453 
L 286.400217 318.627132 
L 287.79665 321.154484 
L 289.193083 323.010746 
L 290.029044 323.797342 
L 291.347434 324.540186 
L 292.665824 324.671516 
L 293.930111 324.222569 
L 295.194398 323.212403 
L 296.621905 321.401909 
L 297.972619 319.04188 
L 299.323332 316.062691 
L 301.048559 311.376802 
L 302.25102 307.541931 
L 303.453482 303.253945 
L 306.171893 291.965806 
L 307.310479 286.615744 
L 309.160979 277.192124 
L 311.032691 266.808691 
L 314.558261 245.217149 
L 318.23721 220.416988 
L 321.806765 194.846345 
L 332.465109 117.059324 
L 336.557712 89.656152 
L 339.169832 73.673436 
L 342.134441 57.328485 
L 344.028844 48.027067 
L 345.475415 41.582184 
L 346.907611 35.795728 
L 349.105094 28.128004 
L 350.675689 23.586361 
L 352.246285 19.856442 
L 353.013883 18.335276 
L 354.630504 15.790989 
L 356.247126 14.152761 
L 357.607877 13.483388 
L 358.968629 13.465718 
L 360.763951 14.439292 
L 362.250448 16.09896 
L 363.862418 18.762479 
L 365.474389 22.309385 
L 366.594166 25.282445 
L 367.719589 28.681467 
L 368.845013 32.482765 
L 369.99304 36.763579 
L 371.570275 43.285333 
L 374.471427 57.099947 
L 377.480229 73.672398 
L 380.802186 94.220659 
L 384.169268 116.948629 
L 387.663272 141.935503 
L 398.545815 221.344143 
L 402.079006 245.13337 
L 403.475206 253.978311 
L 405.616099 266.800344 
L 408.644727 283.179317 
L 411.45599 296.272465 
L 412.768969 301.621787 
L 414.759298 308.738417 
L 416.837285 314.832177 
L 417.976787 317.572661 
L 419.116289 319.876754 
L 420.481854 322.053697 
L 421.847419 323.585087 
L 422.864521 324.30228 
L 423.892588 324.657856 
L 424.920654 324.641259 
L 426.067206 324.183845 
L 427.213758 323.26496 
L 428.237718 322.056426 
L 429.261678 320.484859 
L 430.445053 318.221339 
L 431.628428 315.485132 
L 432.985357 311.777138 
L 434.342286 307.474538 
L 436.451847 299.647655 
L 436.451847 299.647655 
" clip-path="url(#pe94116d0f5)" style="fill: none; stroke: #0000ff; stroke-linecap: square"/>
   </g>
   <g id="patch_3">
    <path d="M 226.253777 330.917875 
L 226.253777 7.2 
" style="fill: none; stroke: #000000; stroke-width: 0.8; stroke-linejoin: miter; stroke-linecap: square"/>
   </g>
   <g id="patch_4">
    <path d="M 7.647784 169.044625 
L 444.85977 169.044625 
" style="fill: none; stroke: #000000; stroke-width: 0.8; stroke-linejoin: miter; stroke-linecap: square"/>
   </g>
  </g>
 </g>
 <defs>
  <clipPath id="pe94116d0f5">
   <rect x="7.647784" y="7.2" width="437.211985" height="323.717875"/>
  </clipPath>
 </defs>
</svg>
