<?xml version="1.0" encoding="utf-8" standalone="no"?>
<!DOCTYPE svg PUBLIC "-//W3C//DTD SVG 1.1//EN"
  "http://www.w3.org/Graphics/SVG/1.1/DTD/svg11.dtd">
<svg xmlns:xlink="http://www.w3.org/1999/xlink" width="453.6pt" height="338.112092pt" viewBox="0 0 453.6 338.112092" xmlns="http://www.w3.org/2000/svg" version="1.1">
 <metadata>
  <rdf:RDF xmlns:dc="http://purl.org/dc/elements/1.1/" xmlns:cc="http://creativecommons.org/ns#" xmlns:rdf="http://www.w3.org/1999/02/22-rdf-syntax-ns#">
   <cc:Work>
    <dc:type rdf:resource="http://purl.org/dc/dcmitype/StillImage"/>
    <dc:date>2022-09-15T00:09:58.010028</dc:date>
    <dc:format>image/svg+xml</dc:format>
    <dc:creator>
     <cc:Agent>
      <dc:title>Matplotlib v3.5.1, https://matplotlib.org/</dc:title>
     </cc:Agent>
    </dc:creator>
   </cc:Work>
  </rdf:RDF>
 </metadata>
 <defs>
  <style type="text/css">*{stroke-linejoin: round; stroke-linecap: butt}</style>
 </defs>
 <g id="figure_1">
  <g id="patch_1">
   <path d="M 0 338.112092 
L 453.6 338.112092 
L 453.6 0 
L 0 0 
L 0 338.112092 
z
" style="fill: none"/>
  </g>
  <g id="axes_1">
   <g id="patch_2">
    <path d="M 34.162671 330.912092 
L 446.4 330.912092 
L 446.4 8.998343 
L 34.162671 8.998343 
L 34.162671 330.912092 
z
" style="fill: none"/>
   </g>
   <g id="patch_3">
    <path d="M 94.941251 292.509936 
L 94.941251 191.848977 
L 95.39333 191.059469 
L 95.84541 190.27525 
L 96.411878 189.300041 
L 96.978347 188.333081 
L 97.544815 187.37434 
L 98.111284 186.423789 
L 98.712827 185.423313 
L 99.31437 184.432004 
L 99.915913 183.449824 
L 100.517456 182.47674 
L 100.853334 181.93735 
L 101.189213 181.400779 
L 101.525091 180.867019 
L 101.860969 180.336066 
L 102.484538 179.357751 
L 102.890746 178.725624 
L 103.296954 178.097564 
L 103.703162 177.47356 
L 104.10937 176.8536 
L 104.442628 176.34799 
L 104.775886 175.845089 
L 105.109144 175.344891 
L 105.442403 174.84739 
L 105.775661 174.35258 
L 106.108919 173.860454 
L 106.442178 173.371007 
L 106.775436 172.884233 
L 107.227469 172.22823 
L 107.679503 171.577118 
L 108.108495 170.963704 
L 108.537488 170.354669 
L 108.96648 169.75 
L 109.395472 169.149684 
L 109.842836 168.528281 
L 110.2902 167.911583 
L 110.737564 167.299576 
L 111.184927 166.692244 
L 111.535645 166.219377 
L 111.886363 165.749367 
L 112.237081 165.282207 
L 112.587799 164.817891 
L 112.993356 164.284509 
L 113.398913 163.754909 
L 113.80447 163.22908 
L 114.210027 162.707011 
L 114.560286 162.259144 
L 114.910544 161.814067 
L 115.260803 161.371772 
L 115.611061 160.932253 
L 115.999469 160.448098 
L 116.387877 159.967338 
L 116.776284 159.489963 
L 117.164692 159.015964 
L 117.739344 158.320849 
L 118.313996 157.63307 
L 118.888648 156.952597 
L 119.4633 156.279398 
L 119.827036 155.857029 
L 120.190773 155.437555 
L 120.554509 155.020967 
L 120.918246 154.607257 
L 121.255407 154.226337 
L 121.592569 153.847877 
L 121.929731 153.47187 
L 122.266892 153.098311 
L 122.684117 152.639426 
L 123.101341 152.184267 
L 123.507817 151.744406 
L 123.914293 151.30806 
L 124.320769 150.875217 
L 124.727245 150.445867 
L 125.078667 150.077476 
L 125.43009 149.711679 
L 125.781512 149.348471 
L 126.132935 148.987843 
L 126.484357 148.62979 
L 126.83578 148.274304 
L 127.187202 147.921377 
L 127.538625 147.571004 
L 127.938477 147.17544 
L 128.338329 146.783162 
L 129.014868 146.126891 
L 129.691406 145.479943 
L 130.100907 145.092862 
L 130.510408 144.709167 
L 130.919909 144.328847 
L 131.329409 143.95189 
L 131.716733 143.598434 
L 132.104056 143.247968 
L 132.491379 142.900482 
L 132.878702 142.555966 
L 133.26209 142.217867 
L 133.645478 141.88266 
L 134.028866 141.550336 
L 134.412255 141.220886 
L 134.978485 140.739553 
L 135.544716 140.264438 
L 136.110947 139.795512 
L 136.677178 139.332745 
L 137.328381 138.808108 
L 137.979584 138.291533 
L 138.509889 137.876786 
L 139.040194 137.467331 
L 139.570499 137.063143 
L 140.100804 136.664199 
L 140.649529 136.25689 
L 141.198254 135.855142 
L 141.606371 135.55993 
L 142.014488 135.267767 
L 142.65722 134.813805 
L 143.299951 134.367336 
L 143.942682 133.928317 
L 144.585413 133.496703 
L 145.086034 133.165624 
L 145.586656 132.838992 
L 146.087277 132.516785 
L 146.587898 132.198983 
L 146.73726 132.105016 
L 147.161841 131.840029 
L 147.586423 131.578178 
L 148.011005 131.319452 
L 148.435587 131.063838 
L 149.048517 130.700294 
L 149.661448 130.343171 
L 150.274378 129.992433 
L 150.887309 129.64804 
L 151.323652 129.406714 
L 151.759994 129.168572 
L 152.454583 128.796021 
L 153.149171 128.431447 
L 153.84376 128.074796 
L 154.538348 127.726012 
L 154.972949 127.511757 
L 155.40755 127.300547 
L 155.985867 127.024192 
L 156.564184 126.753174 
L 157.013426 126.546307 
L 157.462668 126.342627 
L 157.911911 126.142119 
L 158.361153 125.944767 
L 159.025631 125.658619 
L 159.69011 125.379297 
L 160.354588 125.106753 
L 161.019067 124.840938 
L 161.472143 124.663526 
L 161.925219 124.489206 
L 162.722475 124.189922 
L 163.519731 123.90008 
L 164.066109 123.706854 
L 164.612486 123.517998 
L 165.158864 123.333483 
L 165.705242 123.153285 
L 166.326215 122.953689 
L 166.947189 122.759595 
L 167.371934 122.629982 
L 167.796679 122.502912 
L 168.221425 122.378372 
L 168.64617 122.256349 
L 169.337847 122.062997 
L 170.126401 121.850598 
L 170.914955 121.646683 
L 171.714991 121.448386 
L 172.515026 121.258655 
L 173.270284 121.087328 
L 174.025542 120.92349 
L 174.729281 120.777506 
L 175.43302 120.637905 
L 176.13676 120.504631 
L 176.840499 120.377626 
L 177.560097 120.254183 
L 178.221787 120.146354 
L 178.883477 120.043919 
L 179.613161 119.937153 
L 180.342845 119.836825 
L 181.037814 119.747198 
L 181.732783 119.663297 
L 182.427752 119.585069 
L 183.122721 119.512457 
L 183.486442 119.476676 
L 183.954034 119.432901 
L 184.421625 119.391615 
L 184.889216 119.352801 
L 185.356808 119.316441 
L 186.255216 119.253408 
L 187.153625 119.199257 
L 187.670717 119.172071 
L 188.187809 119.147764 
L 188.85788 119.120515 
L 189.52795 119.098014 
L 190.198021 119.080214 
L 190.868092 119.067064 
L 191.818811 119.056292 
L 192.663154 119.054378 
L 193.507496 119.059561 
L 194.213064 119.069264 
L 194.918632 119.083796 
L 195.550839 119.100873 
L 196.183046 119.12174 
L 196.811072 119.14618 
L 197.439098 119.174279 
L 198.067124 119.205996 
L 198.69515 119.241291 
L 199.385175 119.284146 
L 200.075201 119.331218 
L 200.846753 119.388778 
L 201.618305 119.451466 
L 202.430238 119.522892 
L 203.242171 119.599826 
L 204.018815 119.678491 
L 204.795458 119.76204 
L 205.644074 119.858824 
L 206.492689 119.961247 
L 207.488265 120.088461 
L 208.48384 120.223138 
L 209.338078 120.344521 
L 210.192315 120.471177 
L 210.565417 120.528125 
L 211.371825 120.654539 
L 212.178233 120.785436 
L 212.790926 120.887832 
L 213.403619 120.99273 
L 214.629005 121.209875 
L 215.286772 121.330394 
L 215.944539 121.453617 
L 217.082311 121.673013 
L 218.220082 121.900123 
L 218.916843 122.042908 
L 220.028828 122.27645 
L 221.140812 122.516765 
L 222.037663 122.715366 
L 222.934514 122.918108 
L 223.877757 123.135675 
L 225.090307 123.421676 
L 226.302857 123.71451 
L 227.099914 123.910584 
L 227.896972 124.109402 
L 228.206125 124.187238 
L 229.044995 124.400421 
L 229.883866 124.616419 
L 231.246481 124.973027 
L 232.195933 125.225528 
L 233.145385 125.48117 
L 234.081955 125.736286 
L 235.018526 125.994188 
L 236.712487 126.467297 
L 237.875752 126.796799 
L 239.039018 127.129759 
L 239.554258 127.278275 
L 241.456058 127.831527 
L 242.412196 128.112439 
L 243.685593 128.489111 
L 244.958991 128.868386 
L 246.701793 129.391074 
L 248.39235 129.901328 
L 250.182446 130.44421 
L 250.826485 130.640001 
L 253.08432 131.327536 
L 254.785017 131.845744 
L 255.768081 132.14506 
L 257.118269 132.555538 
L 258.727453 133.043308 
L 260.672302 133.629801 
L 262.70083 134.236776 
L 263.213186 134.389156 
L 264.612213 134.80305 
L 266.01124 135.213382 
L 267.802339 135.732795 
L 268.977551 136.069581 
L 270.148665 136.40171 
L 271.278882 136.7187 
L 272.409098 137.031972 
L 273.037618 137.204488 
L 274.515343 137.605046 
L 275.914719 137.977449 
L 276.938132 138.245277 
L 277.961546 138.509087 
L 279.270148 138.840278 
L 280.57875 139.164246 
L 281.248327 139.327099 
L 282.524091 139.631711 
L 283.927368 139.957826 
L 284.629006 140.117234 
L 285.330645 140.274133 
L 285.884456 140.396167 
L 286.679756 140.568564 
L 287.475057 140.737525 
L 288.643127 140.979281 
L 289.811198 141.21319 
L 290.687217 141.383307 
L 291.563235 141.548753 
L 292.309541 141.685935 
L 293.055847 141.819578 
L 294.249613 142.025825 
L 295.0328 142.155989 
L 295.815987 142.281985 
L 296.694977 142.418328 
L 297.573966 142.54921 
L 298.431766 142.671564 
L 299.289566 142.788507 
L 300.029675 142.884977 
L 300.769785 142.977276 
L 301.793404 143.097933 
L 302.817024 143.210309 
L 303.566628 143.287248 
L 304.316232 143.359582 
L 305.108939 143.43099 
L 305.901646 143.497091 
L 306.275569 143.526405 
L 307.136668 143.589304 
L 307.997766 143.645695 
L 308.567139 143.679355 
L 309.136512 143.710094 
L 309.705884 143.737881 
L 310.275257 143.762685 
L 310.79816 143.782812 
L 311.321063 143.800375 
L 311.843967 143.815351 
L 312.36687 143.827715 
L 313.022295 143.83949 
L 313.67772 143.84708 
L 314.285478 143.850339 
L 314.8686 143.850011 
L 315.451721 143.846269 
L 316.034843 143.839078 
L 316.617965 143.828408 
L 317.502743 143.805499 
L 318.387521 143.774389 
L 319.278681 143.734651 
L 319.923704 143.700562 
L 320.568727 143.66195 
L 321.213749 143.618771 
L 321.858772 143.570981 
L 322.53538 143.515847 
L 323.211989 143.455542 
L 323.93425 143.385402 
L 324.656512 143.309249 
L 325.30327 143.235903 
L 326.002532 143.15107 
L 326.701794 143.060436 
L 327.401056 142.963944 
L 328.100318 142.861538 
L 328.576584 142.788375 
L 329.052849 142.712425 
L 329.858251 142.577596 
L 330.663653 142.434661 
L 331.27205 142.321262 
L 331.880447 142.203151 
L 332.488844 142.080293 
L 333.097241 141.952649 
L 333.693974 141.822768 
L 334.224214 141.70344 
L 334.754455 141.580396 
L 335.284696 141.453614 
L 335.814937 141.323069 
L 336.633099 141.114198 
L 337.451261 140.896219 
L 337.871499 140.780688 
L 338.291736 140.662718 
L 338.867349 140.497151 
L 339.442963 140.326955 
L 340.018576 140.152099 
L 340.59419 139.972551 
L 341.33739 139.733738 
L 342.08059 139.486986 
L 342.587357 139.314145 
L 343.094124 139.13756 
L 343.600891 138.957209 
L 344.107657 138.773071 
L 344.549807 138.609302 
L 345.214646 138.357563 
L 345.879484 138.09919 
L 346.544322 137.834134 
L 347.209161 137.562347 
L 347.883137 137.279905 
L 348.416418 137.051455 
L 348.9497 136.818586 
L 349.482981 136.581275 
L 350.016262 136.339496 
L 350.4582 136.135728 
L 350.900138 135.928861 
L 351.342076 135.71888 
L 351.784014 135.505772 
L 352.283792 135.260987 
L 352.78357 135.012164 
L 353.283348 134.759282 
L 353.783126 134.502321 
L 354.399994 134.179503 
L 354.972462 133.8743 
L 355.54493 133.563655 
L 356.117398 133.247537 
L 356.689865 132.925914 
L 357.444234 132.493641 
L 357.842801 132.261347 
L 358.241369 132.02634 
L 358.639936 131.78861 
L 359.038504 131.548146 
L 359.703122 131.141062 
L 360.367739 130.7263 
L 361.032357 130.303813 
L 361.696975 129.873552 
L 362.240585 129.515817 
L 362.784195 129.152822 
L 363.426072 128.717403 
L 364.06795 128.274571 
L 364.532102 127.94971 
L 364.996253 127.620935 
L 365.460405 127.288228 
L 365.924556 126.951574 
L 366.396357 126.60531 
L 366.868158 126.254933 
L 367.339958 125.900425 
L 367.811759 125.541771 
L 368.341488 125.134117 
L 368.871216 124.72119 
L 369.455405 124.259665 
L 370.039595 123.791664 
L 370.623784 123.317155 
L 371.207973 122.836103 
L 371.850263 122.29962 
L 372.492552 121.755146 
L 373.003615 121.316177 
L 373.514677 120.8721 
L 374.02574 120.422893 
L 374.536803 119.968535 
L 374.906396 119.636726 
L 375.275989 119.302204 
L 375.645582 118.964959 
L 376.015176 118.624984 
L 376.504935 118.170251 
L 376.994695 117.710689 
L 377.574758 117.16012 
L 378.154821 116.602718 
L 378.753941 116.019797 
L 379.353062 115.429518 
L 379.952182 114.831846 
L 380.551303 114.226745 
L 380.920495 113.850153 
L 381.289688 113.470718 
L 381.658881 113.088433 
L 382.028074 112.703289 
L 382.478674 112.229334 
L 382.929274 111.751094 
L 383.284501 111.371046 
L 383.639728 110.988318 
L 383.994955 110.602902 
L 384.350183 110.214791 
L 384.720094 109.807764 
L 385.090006 109.397799 
L 385.459918 108.984886 
L 385.82983 108.569019 
L 386.407406 107.913759 
L 386.984983 107.251243 
L 387.562559 106.581439 
L 388.140136 105.904316 
L 388.73237 105.202377 
L 389.324603 104.492675 
L 389.916837 103.775176 
L 390.509071 103.049848 
L 390.881759 102.589375 
L 391.254446 102.125779 
L 391.627134 101.659052 
L 391.999822 101.189186 
L 392.378574 100.708447 
L 392.757326 100.224449 
L 393.136078 99.737181 
L 393.51483 99.246634 
L 394.102424 98.479096 
L 394.690017 97.703612 
L 395.234372 96.978075 
L 395.778728 96.245664 
L 396.216632 95.651472 
L 396.654537 95.052801 
L 397.092442 94.449637 
L 397.530346 93.841968 
L 397.945758 93.261333 
L 398.361171 92.676618 
L 398.776583 92.087812 
L 399.191995 91.494904 
L 399.695206 90.77117 
L 400.198417 90.041379 
L 400.701627 89.305508 
L 401.204838 88.563537 
L 401.598001 87.979569 
L 401.991164 87.391856 
L 402.384326 86.800386 
L 402.777489 86.205149 
L 403.229388 85.516323 
L 403.681287 84.822493 
L 404.133186 84.123643 
L 404.585085 83.41976 
L 404.925082 82.886848 
L 405.411736 82.119079 
L 405.898391 81.345422 
L 406.385045 80.565858 
L 406.8717 79.780368 
L 407.227015 79.203116 
L 407.582329 78.622688 
L 407.937643 78.039076 
L 408.292958 77.452273 
L 408.828385 76.56197 
L 409.363812 75.664381 
L 409.899238 74.759478 
L 410.434665 73.847238 
L 410.837721 73.15567 
L 411.240777 72.459919 
L 411.643833 71.759974 
L 412.046889 71.055825 
L 412.046889 292.509936 
z
" clip-path="url(#p0665d39dce)" style="fill: #808080; opacity: 0.5"/>
   </g>
   <g id="matplotlib.axis_1">
    <g id="xtick_1">
     <g id="line2d_1">
      <defs>
       <path id="m37a80da3e0" d="M 0 0 
L 0 3.5 
" style="stroke: #000000; stroke-width: 0.8"/>
      </defs>
      <g>
       <use xlink:href="#m37a80da3e0" x="42.090311" y="292.509936" style="stroke: #000000; stroke-width: 0.8"/>
      </g>
     </g>
     <g id="text_1">
      <!-- $\mathdefault{1}$ -->
      <g transform="translate(39.599644 306.428435)scale(0.1 -0.1)">
       <defs>
        <path id="CMR17-31" d="M 1702 4083 
C 1702 4217 1696 4224 1606 4224 
C 1357 3927 979 3833 621 3820 
C 602 3820 570 3820 563 3808 
C 557 3795 557 3782 557 3648 
C 755 3648 1088 3686 1344 3839 
L 1344 467 
C 1344 243 1331 166 781 166 
L 589 166 
L 589 0 
C 896 6 1216 12 1523 12 
C 1830 12 2150 6 2458 0 
L 2458 166 
L 2266 166 
C 1715 166 1702 236 1702 467 
L 1702 4083 
z
" transform="scale(0.015625)"/>
       </defs>
       <use xlink:href="#CMR17-31" transform="scale(0.996264)"/>
      </g>
     </g>
    </g>
    <g id="xtick_2">
     <g id="line2d_2">
      <g>
       <use xlink:href="#m37a80da3e0" x="94.941251" y="292.509936" style="stroke: #000000; stroke-width: 0.8"/>
      </g>
     </g>
     <g id="text_2">
      <!-- $\mathdefault{2}$ -->
      <g transform="translate(92.450584 306.428435)scale(0.1 -0.1)">
       <defs>
        <path id="CMR17-32" d="M 2669 990 
L 2554 990 
C 2490 537 2438 460 2413 422 
C 2381 371 1920 371 1830 371 
L 602 371 
C 832 620 1280 1073 1824 1596 
C 2214 1966 2669 2400 2669 3033 
C 2669 3788 2067 4224 1395 4224 
C 691 4224 262 3603 262 3027 
C 262 2777 448 2745 525 2745 
C 589 2745 781 2783 781 3007 
C 781 3206 614 3264 525 3264 
C 486 3264 448 3257 422 3244 
C 544 3788 915 4057 1306 4057 
C 1862 4057 2227 3616 2227 3033 
C 2227 2477 1901 1998 1536 1583 
L 262 147 
L 262 0 
L 2515 0 
L 2669 990 
z
" transform="scale(0.015625)"/>
       </defs>
       <use xlink:href="#CMR17-32" transform="scale(0.996264)"/>
      </g>
     </g>
    </g>
    <g id="xtick_3">
     <g id="line2d_3">
      <g>
       <use xlink:href="#m37a80da3e0" x="147.792191" y="292.509936" style="stroke: #000000; stroke-width: 0.8"/>
      </g>
     </g>
     <g id="text_3">
      <!-- $\mathdefault{3}$ -->
      <g transform="translate(145.301523 306.428435)scale(0.1 -0.1)">
       <defs>
        <path id="CMR17-33" d="M 1414 2176 
C 1984 2176 2234 1673 2234 1094 
C 2234 322 1824 25 1453 25 
C 1114 25 563 193 390 691 
C 422 678 454 678 486 678 
C 640 678 755 780 755 947 
C 755 1132 614 1216 486 1216 
C 378 1216 211 1164 211 927 
C 211 335 787 -128 1466 -128 
C 2176 -128 2720 432 2720 1087 
C 2720 1718 2208 2176 1600 2246 
C 2086 2347 2554 2776 2554 3353 
C 2554 3856 2048 4224 1472 4224 
C 890 4224 378 3862 378 3347 
C 378 3123 544 3084 627 3084 
C 762 3084 877 3167 877 3334 
C 877 3500 762 3584 627 3584 
C 602 3584 570 3584 544 3571 
C 730 3999 1235 4076 1459 4076 
C 1683 4076 2106 3966 2106 3347 
C 2106 3167 2080 2851 1862 2574 
C 1670 2329 1453 2316 1242 2297 
C 1210 2297 1062 2284 1037 2284 
C 992 2278 966 2272 966 2227 
C 966 2182 973 2176 1101 2176 
L 1414 2176 
z
" transform="scale(0.015625)"/>
       </defs>
       <use xlink:href="#CMR17-33" transform="scale(0.996264)"/>
      </g>
     </g>
    </g>
    <g id="xtick_4">
     <g id="line2d_4">
      <g>
       <use xlink:href="#m37a80da3e0" x="200.64313" y="292.509936" style="stroke: #000000; stroke-width: 0.8"/>
      </g>
     </g>
     <g id="text_4">
      <!-- $\mathdefault{4}$ -->
      <g transform="translate(198.152463 306.428435)scale(0.1 -0.1)">
       <defs>
        <path id="CMR17-34" d="M 2150 4147 
C 2150 4281 2144 4288 2029 4288 
L 128 1254 
L 128 1088 
L 1779 1088 
L 1779 460 
C 1779 230 1766 166 1318 166 
L 1197 166 
L 1197 0 
C 1402 12 1747 12 1965 12 
C 2182 12 2528 12 2733 0 
L 2733 166 
L 2611 166 
C 2163 166 2150 230 2150 460 
L 2150 1088 
L 2803 1088 
L 2803 1254 
L 2150 1254 
L 2150 4147 
z
M 1798 3723 
L 1798 1254 
L 256 1254 
L 1798 3723 
z
" transform="scale(0.015625)"/>
       </defs>
       <use xlink:href="#CMR17-34" transform="scale(0.996264)"/>
      </g>
     </g>
    </g>
    <g id="xtick_5">
     <g id="line2d_5">
      <g>
       <use xlink:href="#m37a80da3e0" x="253.49407" y="292.509936" style="stroke: #000000; stroke-width: 0.8"/>
      </g>
     </g>
     <g id="text_5">
      <!-- $\mathdefault{5}$ -->
      <g transform="translate(251.003403 306.428435)scale(0.1 -0.1)">
       <defs>
        <path id="CMR17-35" d="M 730 3750 
C 794 3724 1056 3641 1325 3641 
C 1920 3641 2246 3961 2432 4140 
C 2432 4191 2432 4224 2394 4224 
C 2387 4224 2374 4224 2323 4198 
C 2099 4102 1837 4032 1517 4032 
C 1325 4032 1037 4055 723 4191 
C 653 4224 640 4224 634 4224 
C 602 4224 595 4217 595 4090 
L 595 2231 
C 595 2113 595 2080 659 2080 
C 691 2080 704 2093 736 2139 
C 941 2435 1222 2560 1542 2560 
C 1766 2560 2246 2415 2246 1293 
C 2246 1087 2246 716 2054 422 
C 1894 159 1645 25 1370 25 
C 947 25 518 319 403 812 
C 429 806 480 793 506 793 
C 589 793 749 838 749 1036 
C 749 1209 627 1280 506 1280 
C 358 1280 262 1190 262 1011 
C 262 454 704 -128 1382 -128 
C 2042 -128 2669 441 2669 1267 
C 2669 2054 2170 2662 1549 2662 
C 1222 2662 947 2540 730 2304 
L 730 3750 
z
" transform="scale(0.015625)"/>
       </defs>
       <use xlink:href="#CMR17-35" transform="scale(0.996264)"/>
      </g>
     </g>
    </g>
    <g id="xtick_6">
     <g id="line2d_6">
      <g>
       <use xlink:href="#m37a80da3e0" x="306.34501" y="292.509936" style="stroke: #000000; stroke-width: 0.8"/>
      </g>
     </g>
     <g id="text_6">
      <!-- $\mathdefault{6}$ -->
      <g transform="translate(303.854342 306.428435)scale(0.1 -0.1)">
       <defs>
        <path id="CMR17-36" d="M 678 2198 
C 678 3712 1395 4076 1811 4076 
C 1946 4076 2272 4049 2400 3782 
C 2298 3782 2106 3782 2106 3558 
C 2106 3385 2246 3328 2336 3328 
C 2394 3328 2566 3353 2566 3571 
C 2566 3987 2246 4224 1805 4224 
C 1043 4224 243 3411 243 2011 
C 243 257 966 -128 1478 -128 
C 2099 -128 2688 431 2688 1295 
C 2688 2101 2170 2688 1517 2688 
C 1126 2688 838 2430 678 1979 
L 678 2198 
z
M 1478 25 
C 691 25 691 1212 691 1450 
C 691 1914 909 2585 1504 2585 
C 1613 2585 1926 2585 2138 2140 
C 2253 1889 2253 1624 2253 1302 
C 2253 954 2253 696 2118 438 
C 1978 173 1773 25 1478 25 
z
" transform="scale(0.015625)"/>
       </defs>
       <use xlink:href="#CMR17-36" transform="scale(0.996264)"/>
      </g>
     </g>
    </g>
    <g id="xtick_7">
     <g id="line2d_7">
      <g>
       <use xlink:href="#m37a80da3e0" x="359.19595" y="292.509936" style="stroke: #000000; stroke-width: 0.8"/>
      </g>
     </g>
     <g id="text_7">
      <!-- $\mathdefault{7}$ -->
      <g transform="translate(356.705282 306.428435)scale(0.1 -0.1)">
       <defs>
        <path id="CMR17-37" d="M 2886 3955 
L 2886 4096 
L 1382 4096 
C 634 4096 621 4166 595 4288 
L 480 4288 
L 294 3104 
L 410 3104 
C 429 3226 474 3552 550 3673 
C 589 3724 1062 3724 1171 3724 
L 2579 3724 
L 1869 2670 
C 1395 1961 1069 1003 1069 166 
C 1069 89 1069 -128 1299 -128 
C 1530 -128 1530 89 1530 172 
L 1530 466 
C 1530 1514 1709 2204 2003 2644 
L 2886 3955 
z
" transform="scale(0.015625)"/>
       </defs>
       <use xlink:href="#CMR17-37" transform="scale(0.996264)"/>
      </g>
     </g>
    </g>
    <g id="xtick_8">
     <g id="line2d_8">
      <g>
       <use xlink:href="#m37a80da3e0" x="412.046889" y="292.509936" style="stroke: #000000; stroke-width: 0.8"/>
      </g>
     </g>
     <g id="text_8">
      <!-- $\mathdefault{8}$ -->
      <g transform="translate(409.556222 306.428435)scale(0.1 -0.1)">
       <defs>
        <path id="CMR17-38" d="M 1741 2289 
C 2144 2494 2554 2803 2554 3298 
C 2554 3884 1990 4224 1472 4224 
C 890 4224 378 3800 378 3215 
C 378 3054 416 2777 666 2533 
C 730 2469 998 2276 1171 2154 
C 883 2006 211 1652 211 945 
C 211 282 838 -128 1459 -128 
C 2144 -128 2720 366 2720 1022 
C 2720 1607 2330 1877 2074 2051 
L 1741 2289 
z
M 902 2855 
C 851 2887 595 3086 595 3388 
C 595 3781 998 4076 1459 4076 
C 1965 4076 2336 3716 2336 3298 
C 2336 2700 1670 2359 1638 2359 
C 1632 2359 1626 2359 1574 2398 
L 902 2855 
z
M 2080 1536 
C 2176 1466 2483 1253 2483 861 
C 2483 385 2010 25 1472 25 
C 890 25 448 443 448 951 
C 448 1459 838 1884 1280 2083 
L 2080 1536 
z
" transform="scale(0.015625)"/>
       </defs>
       <use xlink:href="#CMR17-38" transform="scale(0.996264)"/>
      </g>
     </g>
    </g>
    <g id="xtick_9">
     <g id="line2d_9">
      <defs>
       <path id="m73764afbe8" d="M 0 0 
L 0 2 
" style="stroke: #000000; stroke-width: 0.6"/>
      </defs>
      <g>
       <use xlink:href="#m73764afbe8" x="52.660499" y="292.509936" style="stroke: #000000; stroke-width: 0.6"/>
      </g>
     </g>
    </g>
    <g id="xtick_10">
     <g id="line2d_10">
      <g>
       <use xlink:href="#m73764afbe8" x="63.230687" y="292.509936" style="stroke: #000000; stroke-width: 0.6"/>
      </g>
     </g>
    </g>
    <g id="xtick_11">
     <g id="line2d_11">
      <g>
       <use xlink:href="#m73764afbe8" x="73.800875" y="292.509936" style="stroke: #000000; stroke-width: 0.6"/>
      </g>
     </g>
    </g>
    <g id="xtick_12">
     <g id="line2d_12">
      <g>
       <use xlink:href="#m73764afbe8" x="84.371063" y="292.509936" style="stroke: #000000; stroke-width: 0.6"/>
      </g>
     </g>
    </g>
    <g id="xtick_13">
     <g id="line2d_13">
      <g>
       <use xlink:href="#m73764afbe8" x="105.511439" y="292.509936" style="stroke: #000000; stroke-width: 0.6"/>
      </g>
     </g>
    </g>
    <g id="xtick_14">
     <g id="line2d_14">
      <g>
       <use xlink:href="#m73764afbe8" x="116.081627" y="292.509936" style="stroke: #000000; stroke-width: 0.6"/>
      </g>
     </g>
    </g>
    <g id="xtick_15">
     <g id="line2d_15">
      <g>
       <use xlink:href="#m73764afbe8" x="126.651815" y="292.509936" style="stroke: #000000; stroke-width: 0.6"/>
      </g>
     </g>
    </g>
    <g id="xtick_16">
     <g id="line2d_16">
      <g>
       <use xlink:href="#m73764afbe8" x="137.222003" y="292.509936" style="stroke: #000000; stroke-width: 0.6"/>
      </g>
     </g>
    </g>
    <g id="xtick_17">
     <g id="line2d_17">
      <g>
       <use xlink:href="#m73764afbe8" x="158.362379" y="292.509936" style="stroke: #000000; stroke-width: 0.6"/>
      </g>
     </g>
    </g>
    <g id="xtick_18">
     <g id="line2d_18">
      <g>
       <use xlink:href="#m73764afbe8" x="168.932567" y="292.509936" style="stroke: #000000; stroke-width: 0.6"/>
      </g>
     </g>
    </g>
    <g id="xtick_19">
     <g id="line2d_19">
      <g>
       <use xlink:href="#m73764afbe8" x="179.502755" y="292.509936" style="stroke: #000000; stroke-width: 0.6"/>
      </g>
     </g>
    </g>
    <g id="xtick_20">
     <g id="line2d_20">
      <g>
       <use xlink:href="#m73764afbe8" x="190.072943" y="292.509936" style="stroke: #000000; stroke-width: 0.6"/>
      </g>
     </g>
    </g>
    <g id="xtick_21">
     <g id="line2d_21">
      <g>
       <use xlink:href="#m73764afbe8" x="211.213318" y="292.509936" style="stroke: #000000; stroke-width: 0.6"/>
      </g>
     </g>
    </g>
    <g id="xtick_22">
     <g id="line2d_22">
      <g>
       <use xlink:href="#m73764afbe8" x="221.783506" y="292.509936" style="stroke: #000000; stroke-width: 0.6"/>
      </g>
     </g>
    </g>
    <g id="xtick_23">
     <g id="line2d_23">
      <g>
       <use xlink:href="#m73764afbe8" x="232.353694" y="292.509936" style="stroke: #000000; stroke-width: 0.6"/>
      </g>
     </g>
    </g>
    <g id="xtick_24">
     <g id="line2d_24">
      <g>
       <use xlink:href="#m73764afbe8" x="242.923882" y="292.509936" style="stroke: #000000; stroke-width: 0.6"/>
      </g>
     </g>
    </g>
    <g id="xtick_25">
     <g id="line2d_25">
      <g>
       <use xlink:href="#m73764afbe8" x="264.064258" y="292.509936" style="stroke: #000000; stroke-width: 0.6"/>
      </g>
     </g>
    </g>
    <g id="xtick_26">
     <g id="line2d_26">
      <g>
       <use xlink:href="#m73764afbe8" x="274.634446" y="292.509936" style="stroke: #000000; stroke-width: 0.6"/>
      </g>
     </g>
    </g>
    <g id="xtick_27">
     <g id="line2d_27">
      <g>
       <use xlink:href="#m73764afbe8" x="285.204634" y="292.509936" style="stroke: #000000; stroke-width: 0.6"/>
      </g>
     </g>
    </g>
    <g id="xtick_28">
     <g id="line2d_28">
      <g>
       <use xlink:href="#m73764afbe8" x="295.774822" y="292.509936" style="stroke: #000000; stroke-width: 0.6"/>
      </g>
     </g>
    </g>
    <g id="xtick_29">
     <g id="line2d_29">
      <g>
       <use xlink:href="#m73764afbe8" x="316.915198" y="292.509936" style="stroke: #000000; stroke-width: 0.6"/>
      </g>
     </g>
    </g>
    <g id="xtick_30">
     <g id="line2d_30">
      <g>
       <use xlink:href="#m73764afbe8" x="327.485386" y="292.509936" style="stroke: #000000; stroke-width: 0.6"/>
      </g>
     </g>
    </g>
    <g id="xtick_31">
     <g id="line2d_31">
      <g>
       <use xlink:href="#m73764afbe8" x="338.055574" y="292.509936" style="stroke: #000000; stroke-width: 0.6"/>
      </g>
     </g>
    </g>
    <g id="xtick_32">
     <g id="line2d_32">
      <g>
       <use xlink:href="#m73764afbe8" x="348.625762" y="292.509936" style="stroke: #000000; stroke-width: 0.6"/>
      </g>
     </g>
    </g>
    <g id="xtick_33">
     <g id="line2d_33">
      <g>
       <use xlink:href="#m73764afbe8" x="369.766137" y="292.509936" style="stroke: #000000; stroke-width: 0.6"/>
      </g>
     </g>
    </g>
    <g id="xtick_34">
     <g id="line2d_34">
      <g>
       <use xlink:href="#m73764afbe8" x="380.336325" y="292.509936" style="stroke: #000000; stroke-width: 0.6"/>
      </g>
     </g>
    </g>
    <g id="xtick_35">
     <g id="line2d_35">
      <g>
       <use xlink:href="#m73764afbe8" x="390.906513" y="292.509936" style="stroke: #000000; stroke-width: 0.6"/>
      </g>
     </g>
    </g>
    <g id="xtick_36">
     <g id="line2d_36">
      <g>
       <use xlink:href="#m73764afbe8" x="401.476701" y="292.509936" style="stroke: #000000; stroke-width: 0.6"/>
      </g>
     </g>
    </g>
    <g id="xtick_37">
     <g id="line2d_37">
      <g>
       <use xlink:href="#m73764afbe8" x="422.617077" y="292.509936" style="stroke: #000000; stroke-width: 0.6"/>
      </g>
     </g>
    </g>
    <g id="xtick_38">
     <g id="line2d_38">
      <g>
       <use xlink:href="#m73764afbe8" x="433.187265" y="292.509936" style="stroke: #000000; stroke-width: 0.6"/>
      </g>
     </g>
    </g>
    <g id="xtick_39">
     <g id="line2d_39">
      <g>
       <use xlink:href="#m73764afbe8" x="443.757453" y="292.509936" style="stroke: #000000; stroke-width: 0.6"/>
      </g>
     </g>
    </g>
   </g>
   <g id="matplotlib.axis_2">
    <g id="ytick_1">
     <g id="line2d_40">
      <defs>
       <path id="m88545070f0" d="M 0 0 
L -3.5 0 
" style="stroke: #000000; stroke-width: 0.8"/>
      </defs>
      <g>
       <use xlink:href="#m88545070f0" x="24.162671" y="292.509936" style="stroke: #000000; stroke-width: 0.8"/>
      </g>
     </g>
     <g id="text_9">
      <!-- $\mathdefault{0}$ -->
      <g transform="translate(12.181335 295.969185)scale(0.1 -0.1)">
       <defs>
        <path id="CMR17-30" d="M 2688 2038 
C 2688 2430 2682 3099 2413 3613 
C 2176 4063 1798 4224 1466 4224 
C 1158 4224 768 4082 525 3620 
C 269 3137 243 2539 243 2038 
C 243 1671 250 1112 448 623 
C 723 -39 1216 -128 1466 -128 
C 1760 -128 2208 -7 2470 604 
C 2662 1048 2688 1568 2688 2038 
z
M 1466 -26 
C 1056 -26 813 328 723 816 
C 653 1196 653 1749 653 2109 
C 653 2604 653 3015 736 3407 
C 858 3954 1216 4121 1466 4121 
C 1728 4121 2067 3947 2189 3420 
C 2272 3054 2278 2623 2278 2109 
C 2278 1691 2278 1176 2202 797 
C 2067 96 1690 -26 1466 -26 
z
" transform="scale(0.015625)"/>
       </defs>
       <use xlink:href="#CMR17-30" transform="scale(0.996264)"/>
      </g>
     </g>
    </g>
    <g id="ytick_2">
     <g id="line2d_41">
      <g>
       <use xlink:href="#m88545070f0" x="24.162671" y="252.245552" style="stroke: #000000; stroke-width: 0.8"/>
      </g>
     </g>
     <g id="text_10">
      <!-- $\mathdefault{10}$ -->
      <g transform="translate(7.2 255.704802)scale(0.1 -0.1)">
       <use xlink:href="#CMR17-31" transform="scale(0.996264)"/>
       <use xlink:href="#CMR17-30" transform="translate(45.690477 0)scale(0.996264)"/>
      </g>
     </g>
    </g>
    <g id="ytick_3">
     <g id="line2d_42">
      <g>
       <use xlink:href="#m88545070f0" x="24.162671" y="211.981168" style="stroke: #000000; stroke-width: 0.8"/>
      </g>
     </g>
     <g id="text_11">
      <!-- $\mathdefault{20}$ -->
      <g transform="translate(7.2 215.440418)scale(0.1 -0.1)">
       <use xlink:href="#CMR17-32" transform="scale(0.996264)"/>
       <use xlink:href="#CMR17-30" transform="translate(45.690477 0)scale(0.996264)"/>
      </g>
     </g>
    </g>
    <g id="ytick_4">
     <g id="line2d_43">
      <g>
       <use xlink:href="#m88545070f0" x="24.162671" y="171.716785" style="stroke: #000000; stroke-width: 0.8"/>
      </g>
     </g>
     <g id="text_12">
      <!-- $\mathdefault{30}$ -->
      <g transform="translate(7.2 175.176034)scale(0.1 -0.1)">
       <use xlink:href="#CMR17-33" transform="scale(0.996264)"/>
       <use xlink:href="#CMR17-30" transform="translate(45.690477 0)scale(0.996264)"/>
      </g>
     </g>
    </g>
    <g id="ytick_5">
     <g id="line2d_44">
      <g>
       <use xlink:href="#m88545070f0" x="24.162671" y="131.452401" style="stroke: #000000; stroke-width: 0.8"/>
      </g>
     </g>
     <g id="text_13">
      <!-- $\mathdefault{40}$ -->
      <g transform="translate(7.2 134.91165)scale(0.1 -0.1)">
       <use xlink:href="#CMR17-34" transform="scale(0.996264)"/>
       <use xlink:href="#CMR17-30" transform="translate(45.690477 0)scale(0.996264)"/>
      </g>
     </g>
    </g>
    <g id="ytick_6">
     <g id="line2d_45">
      <g>
       <use xlink:href="#m88545070f0" x="24.162671" y="91.188017" style="stroke: #000000; stroke-width: 0.8"/>
      </g>
     </g>
     <g id="text_14">
      <!-- $\mathdefault{50}$ -->
      <g transform="translate(7.2 94.647266)scale(0.1 -0.1)">
       <use xlink:href="#CMR17-35" transform="scale(0.996264)"/>
       <use xlink:href="#CMR17-30" transform="translate(45.690477 0)scale(0.996264)"/>
      </g>
     </g>
    </g>
    <g id="ytick_7">
     <g id="line2d_46">
      <g>
       <use xlink:href="#m88545070f0" x="24.162671" y="50.923633" style="stroke: #000000; stroke-width: 0.8"/>
      </g>
     </g>
     <g id="text_15">
      <!-- $\mathdefault{60}$ -->
      <g transform="translate(7.2 54.382882)scale(0.1 -0.1)">
       <use xlink:href="#CMR17-36" transform="scale(0.996264)"/>
       <use xlink:href="#CMR17-30" transform="translate(45.690477 0)scale(0.996264)"/>
      </g>
     </g>
    </g>
    <g id="ytick_8">
     <g id="line2d_47">
      <g>
       <use xlink:href="#m88545070f0" x="24.162671" y="10.659249" style="stroke: #000000; stroke-width: 0.8"/>
      </g>
     </g>
     <g id="text_16">
      <!-- $\mathdefault{70}$ -->
      <g transform="translate(7.2 14.118498)scale(0.1 -0.1)">
       <use xlink:href="#CMR17-37" transform="scale(0.996264)"/>
       <use xlink:href="#CMR17-30" transform="translate(45.690477 0)scale(0.996264)"/>
      </g>
     </g>
    </g>
    <g id="ytick_9">
     <g id="line2d_48">
      <defs>
       <path id="mda113a153a" d="M 0 0 
L -2 0 
" style="stroke: #000000; stroke-width: 0.6"/>
      </defs>
      <g>
       <use xlink:href="#mda113a153a" x="24.162671" y="324.721443" style="stroke: #000000; stroke-width: 0.6"/>
      </g>
     </g>
    </g>
    <g id="ytick_10">
     <g id="line2d_49">
      <g>
       <use xlink:href="#mda113a153a" x="24.162671" y="316.668567" style="stroke: #000000; stroke-width: 0.6"/>
      </g>
     </g>
    </g>
    <g id="ytick_11">
     <g id="line2d_50">
      <g>
       <use xlink:href="#mda113a153a" x="24.162671" y="308.61569" style="stroke: #000000; stroke-width: 0.6"/>
      </g>
     </g>
    </g>
    <g id="ytick_12">
     <g id="line2d_51">
      <g>
       <use xlink:href="#mda113a153a" x="24.162671" y="300.562813" style="stroke: #000000; stroke-width: 0.6"/>
      </g>
     </g>
    </g>
    <g id="ytick_13">
     <g id="line2d_52">
      <g>
       <use xlink:href="#mda113a153a" x="24.162671" y="284.457059" style="stroke: #000000; stroke-width: 0.6"/>
      </g>
     </g>
    </g>
    <g id="ytick_14">
     <g id="line2d_53">
      <g>
       <use xlink:href="#mda113a153a" x="24.162671" y="276.404183" style="stroke: #000000; stroke-width: 0.6"/>
      </g>
     </g>
    </g>
    <g id="ytick_15">
     <g id="line2d_54">
      <g>
       <use xlink:href="#mda113a153a" x="24.162671" y="268.351306" style="stroke: #000000; stroke-width: 0.6"/>
      </g>
     </g>
    </g>
    <g id="ytick_16">
     <g id="line2d_55">
      <g>
       <use xlink:href="#mda113a153a" x="24.162671" y="260.298429" style="stroke: #000000; stroke-width: 0.6"/>
      </g>
     </g>
    </g>
    <g id="ytick_17">
     <g id="line2d_56">
      <g>
       <use xlink:href="#mda113a153a" x="24.162671" y="244.192676" style="stroke: #000000; stroke-width: 0.6"/>
      </g>
     </g>
    </g>
    <g id="ytick_18">
     <g id="line2d_57">
      <g>
       <use xlink:href="#mda113a153a" x="24.162671" y="236.139799" style="stroke: #000000; stroke-width: 0.6"/>
      </g>
     </g>
    </g>
    <g id="ytick_19">
     <g id="line2d_58">
      <g>
       <use xlink:href="#mda113a153a" x="24.162671" y="228.086922" style="stroke: #000000; stroke-width: 0.6"/>
      </g>
     </g>
    </g>
    <g id="ytick_20">
     <g id="line2d_59">
      <g>
       <use xlink:href="#mda113a153a" x="24.162671" y="220.034045" style="stroke: #000000; stroke-width: 0.6"/>
      </g>
     </g>
    </g>
    <g id="ytick_21">
     <g id="line2d_60">
      <g>
       <use xlink:href="#mda113a153a" x="24.162671" y="203.928292" style="stroke: #000000; stroke-width: 0.6"/>
      </g>
     </g>
    </g>
    <g id="ytick_22">
     <g id="line2d_61">
      <g>
       <use xlink:href="#mda113a153a" x="24.162671" y="195.875415" style="stroke: #000000; stroke-width: 0.6"/>
      </g>
     </g>
    </g>
    <g id="ytick_23">
     <g id="line2d_62">
      <g>
       <use xlink:href="#mda113a153a" x="24.162671" y="187.822538" style="stroke: #000000; stroke-width: 0.6"/>
      </g>
     </g>
    </g>
    <g id="ytick_24">
     <g id="line2d_63">
      <g>
       <use xlink:href="#mda113a153a" x="24.162671" y="179.769661" style="stroke: #000000; stroke-width: 0.6"/>
      </g>
     </g>
    </g>
    <g id="ytick_25">
     <g id="line2d_64">
      <g>
       <use xlink:href="#mda113a153a" x="24.162671" y="163.663908" style="stroke: #000000; stroke-width: 0.6"/>
      </g>
     </g>
    </g>
    <g id="ytick_26">
     <g id="line2d_65">
      <g>
       <use xlink:href="#mda113a153a" x="24.162671" y="155.611031" style="stroke: #000000; stroke-width: 0.6"/>
      </g>
     </g>
    </g>
    <g id="ytick_27">
     <g id="line2d_66">
      <g>
       <use xlink:href="#mda113a153a" x="24.162671" y="147.558154" style="stroke: #000000; stroke-width: 0.6"/>
      </g>
     </g>
    </g>
    <g id="ytick_28">
     <g id="line2d_67">
      <g>
       <use xlink:href="#mda113a153a" x="24.162671" y="139.505278" style="stroke: #000000; stroke-width: 0.6"/>
      </g>
     </g>
    </g>
    <g id="ytick_29">
     <g id="line2d_68">
      <g>
       <use xlink:href="#mda113a153a" x="24.162671" y="123.399524" style="stroke: #000000; stroke-width: 0.6"/>
      </g>
     </g>
    </g>
    <g id="ytick_30">
     <g id="line2d_69">
      <g>
       <use xlink:href="#mda113a153a" x="24.162671" y="115.346647" style="stroke: #000000; stroke-width: 0.6"/>
      </g>
     </g>
    </g>
    <g id="ytick_31">
     <g id="line2d_70">
      <g>
       <use xlink:href="#mda113a153a" x="24.162671" y="107.29377" style="stroke: #000000; stroke-width: 0.6"/>
      </g>
     </g>
    </g>
    <g id="ytick_32">
     <g id="line2d_71">
      <g>
       <use xlink:href="#mda113a153a" x="24.162671" y="99.240894" style="stroke: #000000; stroke-width: 0.6"/>
      </g>
     </g>
    </g>
    <g id="ytick_33">
     <g id="line2d_72">
      <g>
       <use xlink:href="#mda113a153a" x="24.162671" y="83.13514" style="stroke: #000000; stroke-width: 0.6"/>
      </g>
     </g>
    </g>
    <g id="ytick_34">
     <g id="line2d_73">
      <g>
       <use xlink:href="#mda113a153a" x="24.162671" y="75.082263" style="stroke: #000000; stroke-width: 0.6"/>
      </g>
     </g>
    </g>
    <g id="ytick_35">
     <g id="line2d_74">
      <g>
       <use xlink:href="#mda113a153a" x="24.162671" y="67.029387" style="stroke: #000000; stroke-width: 0.6"/>
      </g>
     </g>
    </g>
    <g id="ytick_36">
     <g id="line2d_75">
      <g>
       <use xlink:href="#mda113a153a" x="24.162671" y="58.97651" style="stroke: #000000; stroke-width: 0.6"/>
      </g>
     </g>
    </g>
    <g id="ytick_37">
     <g id="line2d_76">
      <g>
       <use xlink:href="#mda113a153a" x="24.162671" y="42.870756" style="stroke: #000000; stroke-width: 0.6"/>
      </g>
     </g>
    </g>
    <g id="ytick_38">
     <g id="line2d_77">
      <g>
       <use xlink:href="#mda113a153a" x="24.162671" y="34.81788" style="stroke: #000000; stroke-width: 0.6"/>
      </g>
     </g>
    </g>
    <g id="ytick_39">
     <g id="line2d_78">
      <g>
       <use xlink:href="#mda113a153a" x="24.162671" y="26.765003" style="stroke: #000000; stroke-width: 0.6"/>
      </g>
     </g>
    </g>
    <g id="ytick_40">
     <g id="line2d_79">
      <g>
       <use xlink:href="#mda113a153a" x="24.162671" y="18.712126" style="stroke: #000000; stroke-width: 0.6"/>
      </g>
     </g>
    </g>
   </g>
   <g id="line2d_80">
    <path d="M 94.941251 292.509936 
L 94.941251 191.848977 
" clip-path="url(#p0665d39dce)" style="fill: none; stroke: #000000; stroke-linecap: square"/>
   </g>
   <g id="line2d_81">
    <path d="M 412.046889 292.509936 
L 412.046889 71.055825 
" clip-path="url(#p0665d39dce)" style="fill: none; stroke: #000000; stroke-linecap: square"/>
   </g>
   <g id="line2d_82">
    <path d="M 94.941251 191.848977 
L 99.31437 184.432004 
L 103.703162 177.47356 
L 107.679503 171.577118 
L 111.886363 165.749367 
L 115.999469 160.448098 
L 119.827036 155.857029 
L 123.914293 151.30806 
L 127.938477 147.17544 
L 131.716733 143.598434 
L 135.544716 140.264438 
L 139.570499 137.063143 
L 143.299951 134.367336 
L 147.161841 131.840029 
L 150.887309 129.64804 
L 154.972949 127.511757 
L 159.025631 125.658619 
L 162.722475 124.189922 
L 166.947189 122.759595 
L 170.914955 121.646683 
L 175.43302 120.637905 
L 179.613161 119.937153 
L 183.954034 119.432901 
L 188.187809 119.147764 
L 192.663154 119.054378 
L 197.439098 119.174279 
L 202.430238 119.522892 
L 207.488265 120.088461 
L 213.403619 120.99273 
L 220.028828 122.27645 
L 227.099914 123.910584 
L 235.018526 125.994188 
L 244.958991 128.868386 
L 273.037618 137.204488 
L 281.248327 139.327099 
L 288.643127 140.979281 
L 295.0328 142.155989 
L 300.769785 142.977276 
L 306.275569 143.526405 
L 311.321063 143.800375 
L 316.034843 143.839078 
L 320.568727 143.66195 
L 325.30327 143.235903 
L 329.858251 142.577596 
L 334.224214 141.70344 
L 338.291736 140.662718 
L 342.587357 139.314145 
L 346.544322 137.834134 
L 350.4582 136.135728 
L 354.399994 134.179503 
L 358.241369 132.02634 
L 362.240585 129.515817 
L 365.924556 126.951574 
L 369.455405 124.259665 
L 373.514677 120.8721 
L 377.574758 117.16012 
L 381.658881 113.088433 
L 385.459918 108.984886 
L 389.324603 104.492675 
L 393.51483 99.246634 
L 397.530346 93.841968 
L 401.598001 87.979569 
L 405.411736 82.119079 
L 409.363812 75.664381 
L 412.046889 71.055825 
L 412.046889 71.055825 
" clip-path="url(#p0665d39dce)" style="fill: none; stroke: #0000ff; stroke-linecap: square"/>
   </g>
   <g id="line2d_83">
    <path d="M 42.090311 324.721443 
L 46.887421 309.035958 
L 51.702723 294.073465 
L 56.330149 280.416458 
L 60.854391 267.732068 
L 65.249155 256.028674 
L 69.643692 244.92083 
L 73.929713 234.647078 
L 78.239296 224.861096 
L 82.651505 215.393813 
L 86.874294 206.842887 
L 90.981823 198.991965 
L 95.19532 191.404622 
L 99.649675 183.883406 
L 103.97402 177.059724 
L 107.747048 171.480245 
L 111.786577 165.882804 
L 115.343336 161.267956 
L 119.530518 156.201125 
L 123.534534 151.715618 
L 127.582626 147.527313 
L 131.206308 144.064855 
L 135.001087 140.720469 
L 139.226293 137.324892 
L 143.040158 134.5469 
L 147.224795 131.801006 
L 150.978554 129.597311 
L 155.034818 127.481503 
L 158.541379 125.866478 
L 162.373504 124.319756 
L 166.203848 122.992585 
L 170.538739 121.742917 
L 174.303541 120.865055 
L 178.588962 120.088849 
L 182.354571 119.593041 
L 187.183447 119.197611 
L 191.272324 119.06136 
L 196.031297 119.116387 
L 201.200856 119.416916 
L 206.112946 119.914723 
L 211.96462 120.75033 
L 217.834707 121.82235 
L 224.923417 123.3819 
L 231.975678 125.166667 
L 239.808563 127.351801 
L 252.621375 131.186474 
L 268.256023 135.863207 
L 277.569273 138.408456 
L 284.202102 140.020539 
L 290.419849 141.331876 
L 296.313421 142.359808 
L 301.682698 143.08528 
L 307.21153 143.594467 
L 312.163577 143.82322 
L 316.688922 143.826871 
L 320.959027 143.636371 
L 325.802748 143.175897 
L 329.851398 142.578778 
L 333.832491 141.791952 
L 338.046908 140.731744 
L 342.154086 139.46215 
L 346.017406 138.044755 
L 349.549104 136.551539 
L 353.780541 134.50366 
L 357.708368 132.34 
L 361.605634 129.933147 
L 365.240098 127.446637 
L 369.240483 124.430211 
L 372.803442 121.48872 
L 376.732407 117.957407 
L 380.382363 114.398125 
L 384.459934 110.094334 
L 388.013017 106.053974 
L 392.127757 101.027165 
L 395.971517 95.984619 
L 399.907729 90.463695 
L 403.887696 84.503911 
L 408.086227 77.794078 
L 412.348812 70.525597 
L 416.557367 62.885897 
L 420.826543 54.653184 
L 425.247375 45.601856 
L 429.518254 36.336006 
L 433.858987 26.380137 
L 437.932846 16.530705 
L 438.472359 15.188992 
L 438.472359 15.188992 
" clip-path="url(#p0665d39dce)" style="fill: none; stroke: #0000ff; stroke-width: 2; stroke-linecap: square"/>
   </g>
   <g id="patch_4">
    <path d="M 24.162671 330.912092 
L 24.162671 8.998343 
" style="fill: none; stroke: #000000; stroke-width: 0.8; stroke-linejoin: miter; stroke-linecap: square"/>
   </g>
   <g id="patch_5">
    <path d="M 34.162671 292.509936 
L 446.4 292.509936 
" style="fill: none; stroke: #000000; stroke-width: 0.8; stroke-linejoin: miter; stroke-linecap: square"/>
   </g>
  </g>
 </g>
 <defs>
  <clipPath id="p0665d39dce">
   <rect x="34.162671" y="8.998343" width="412.237329" height="321.913749"/>
  </clipPath>
 </defs>
</svg>
