<?xml version="1.0" encoding="utf-8" standalone="no"?>
<!DOCTYPE svg PUBLIC "-//W3C//DTD SVG 1.1//EN"
  "http://www.w3.org/Graphics/SVG/1.1/DTD/svg11.dtd">
<svg xmlns:xlink="http://www.w3.org/1999/xlink" width="452.070177pt" height="337.359617pt" viewBox="0 0 452.070177 337.359617" xmlns="http://www.w3.org/2000/svg" version="1.1">
 <metadata>
  <rdf:RDF xmlns:dc="http://purl.org/dc/elements/1.1/" xmlns:cc="http://creativecommons.org/ns#" xmlns:rdf="http://www.w3.org/1999/02/22-rdf-syntax-ns#">
   <cc:Work>
    <dc:type rdf:resource="http://purl.org/dc/dcmitype/StillImage"/>
    <dc:date>2022-12-19T17:34:30.982603</dc:date>
    <dc:format>image/svg+xml</dc:format>
    <dc:creator>
     <cc:Agent>
      <dc:title>Matplotlib v3.5.2, https://matplotlib.org/</dc:title>
     </cc:Agent>
    </dc:creator>
   </cc:Work>
  </rdf:RDF>
 </metadata>
 <defs>
  <style type="text/css">*{stroke-linejoin: round; stroke-linecap: butt}</style>
 </defs>
 <g id="figure_1">
  <g id="patch_1">
   <path d="M 0 337.359617 
L 452.070177 337.359617 
L 452.070177 0 
L 0 0 
L 0 337.359617 
z
" style="fill: none"/>
  </g>
  <g id="axes_1">
   <g id="patch_2">
    <path d="M 9.377484 330.159617 
L 444.870177 330.159617 
L 444.870177 7.2 
L 9.377484 7.2 
L 9.377484 330.159617 
z
" style="fill: none"/>
   </g>
   <g id="matplotlib.axis_1">
    <g id="xtick_1">
     <g id="line2d_1">
      <defs>
       <path id="mbdddf45d10" d="M 0 0 
L 0 3.5 
" style="stroke: #000000; stroke-width: 0.8"/>
      </defs>
      <g>
       <use xlink:href="#mbdddf45d10" x="17.752344" y="168.690004" style="stroke: #000000; stroke-width: 0.8"/>
      </g>
     </g>
     <g id="text_1">
      <!-- −10 -->
      <g transform="translate(7.2 183.288442)scale(0.1 -0.1)">
       <defs>
        <path id="DejaVuSans-2212" d="M 678 2272 
L 4684 2272 
L 4684 1741 
L 678 1741 
L 678 2272 
z
" transform="scale(0.015625)"/>
        <path id="DejaVuSans-31" d="M 794 531 
L 1825 531 
L 1825 4091 
L 703 3866 
L 703 4441 
L 1819 4666 
L 2450 4666 
L 2450 531 
L 3481 531 
L 3481 0 
L 794 0 
L 794 531 
z
" transform="scale(0.015625)"/>
        <path id="DejaVuSans-30" d="M 2034 4250 
Q 1547 4250 1301 3770 
Q 1056 3291 1056 2328 
Q 1056 1369 1301 889 
Q 1547 409 2034 409 
Q 2525 409 2770 889 
Q 3016 1369 3016 2328 
Q 3016 3291 2770 3770 
Q 2525 4250 2034 4250 
z
M 2034 4750 
Q 2819 4750 3233 4129 
Q 3647 3509 3647 2328 
Q 3647 1150 3233 529 
Q 2819 -91 2034 -91 
Q 1250 -91 836 529 
Q 422 1150 422 2328 
Q 422 3509 836 4129 
Q 1250 4750 2034 4750 
z
" transform="scale(0.015625)"/>
       </defs>
       <use xlink:href="#DejaVuSans-2212"/>
       <use xlink:href="#DejaVuSans-31" x="83.789062"/>
       <use xlink:href="#DejaVuSans-30" x="147.412109"/>
      </g>
     </g>
    </g>
    <g id="xtick_2">
     <g id="line2d_2">
      <g>
       <use xlink:href="#mbdddf45d10" x="122.438087" y="168.690004" style="stroke: #000000; stroke-width: 0.8"/>
      </g>
     </g>
     <g id="text_2">
      <!-- −5 -->
      <g transform="translate(115.066993 183.288442)scale(0.1 -0.1)">
       <defs>
        <path id="DejaVuSans-35" d="M 691 4666 
L 3169 4666 
L 3169 4134 
L 1269 4134 
L 1269 2991 
Q 1406 3038 1543 3061 
Q 1681 3084 1819 3084 
Q 2600 3084 3056 2656 
Q 3513 2228 3513 1497 
Q 3513 744 3044 326 
Q 2575 -91 1722 -91 
Q 1428 -91 1123 -41 
Q 819 9 494 109 
L 494 744 
Q 775 591 1075 516 
Q 1375 441 1709 441 
Q 2250 441 2565 725 
Q 2881 1009 2881 1497 
Q 2881 1984 2565 2268 
Q 2250 2553 1709 2553 
Q 1456 2553 1204 2497 
Q 953 2441 691 2322 
L 691 4666 
z
" transform="scale(0.015625)"/>
       </defs>
       <use xlink:href="#DejaVuSans-2212"/>
       <use xlink:href="#DejaVuSans-35" x="83.789062"/>
      </g>
     </g>
    </g>
    <g id="xtick_3">
     <g id="line2d_3">
      <g>
       <use xlink:href="#mbdddf45d10" x="227.12383" y="168.690004" style="stroke: #000000; stroke-width: 0.8"/>
      </g>
     </g>
    </g>
    <g id="xtick_4">
     <g id="line2d_4">
      <g>
       <use xlink:href="#mbdddf45d10" x="331.809574" y="168.690004" style="stroke: #000000; stroke-width: 0.8"/>
      </g>
     </g>
     <g id="text_3">
      <!-- 5 -->
      <g transform="translate(328.628324 183.288442)scale(0.1 -0.1)">
       <use xlink:href="#DejaVuSans-35"/>
      </g>
     </g>
    </g>
    <g id="xtick_5">
     <g id="line2d_5">
      <g>
       <use xlink:href="#mbdddf45d10" x="436.495317" y="168.690004" style="stroke: #000000; stroke-width: 0.8"/>
      </g>
     </g>
     <g id="text_4">
      <!-- 10 -->
      <g transform="translate(430.132817 183.288442)scale(0.1 -0.1)">
       <use xlink:href="#DejaVuSans-31"/>
       <use xlink:href="#DejaVuSans-30" x="63.623047"/>
      </g>
     </g>
    </g>
    <g id="xtick_6">
     <g id="line2d_6">
      <defs>
       <path id="md74362aec9" d="M 0 0 
L 0 2 
" style="stroke: #000000; stroke-width: 0.6"/>
      </defs>
      <g>
       <use xlink:href="#md74362aec9" x="38.689492" y="168.690004" style="stroke: #000000; stroke-width: 0.6"/>
      </g>
     </g>
    </g>
    <g id="xtick_7">
     <g id="line2d_7">
      <g>
       <use xlink:href="#md74362aec9" x="59.626641" y="168.690004" style="stroke: #000000; stroke-width: 0.6"/>
      </g>
     </g>
    </g>
    <g id="xtick_8">
     <g id="line2d_8">
      <g>
       <use xlink:href="#md74362aec9" x="80.56379" y="168.690004" style="stroke: #000000; stroke-width: 0.6"/>
      </g>
     </g>
    </g>
    <g id="xtick_9">
     <g id="line2d_9">
      <g>
       <use xlink:href="#md74362aec9" x="101.500938" y="168.690004" style="stroke: #000000; stroke-width: 0.6"/>
      </g>
     </g>
    </g>
    <g id="xtick_10">
     <g id="line2d_10">
      <g>
       <use xlink:href="#md74362aec9" x="143.375236" y="168.690004" style="stroke: #000000; stroke-width: 0.6"/>
      </g>
     </g>
    </g>
    <g id="xtick_11">
     <g id="line2d_11">
      <g>
       <use xlink:href="#md74362aec9" x="164.312384" y="168.690004" style="stroke: #000000; stroke-width: 0.6"/>
      </g>
     </g>
    </g>
    <g id="xtick_12">
     <g id="line2d_12">
      <g>
       <use xlink:href="#md74362aec9" x="185.249533" y="168.690004" style="stroke: #000000; stroke-width: 0.6"/>
      </g>
     </g>
    </g>
    <g id="xtick_13">
     <g id="line2d_13">
      <g>
       <use xlink:href="#md74362aec9" x="206.186682" y="168.690004" style="stroke: #000000; stroke-width: 0.6"/>
      </g>
     </g>
    </g>
    <g id="xtick_14">
     <g id="line2d_14">
      <g>
       <use xlink:href="#md74362aec9" x="248.060979" y="168.690004" style="stroke: #000000; stroke-width: 0.6"/>
      </g>
     </g>
    </g>
    <g id="xtick_15">
     <g id="line2d_15">
      <g>
       <use xlink:href="#md74362aec9" x="268.998128" y="168.690004" style="stroke: #000000; stroke-width: 0.6"/>
      </g>
     </g>
    </g>
    <g id="xtick_16">
     <g id="line2d_16">
      <g>
       <use xlink:href="#md74362aec9" x="289.935276" y="168.690004" style="stroke: #000000; stroke-width: 0.6"/>
      </g>
     </g>
    </g>
    <g id="xtick_17">
     <g id="line2d_17">
      <g>
       <use xlink:href="#md74362aec9" x="310.872425" y="168.690004" style="stroke: #000000; stroke-width: 0.6"/>
      </g>
     </g>
    </g>
    <g id="xtick_18">
     <g id="line2d_18">
      <g>
       <use xlink:href="#md74362aec9" x="352.746722" y="168.690004" style="stroke: #000000; stroke-width: 0.6"/>
      </g>
     </g>
    </g>
    <g id="xtick_19">
     <g id="line2d_19">
      <g>
       <use xlink:href="#md74362aec9" x="373.683871" y="168.690004" style="stroke: #000000; stroke-width: 0.6"/>
      </g>
     </g>
    </g>
    <g id="xtick_20">
     <g id="line2d_20">
      <g>
       <use xlink:href="#md74362aec9" x="394.62102" y="168.690004" style="stroke: #000000; stroke-width: 0.6"/>
      </g>
     </g>
    </g>
    <g id="xtick_21">
     <g id="line2d_21">
      <g>
       <use xlink:href="#md74362aec9" x="415.558168" y="168.690004" style="stroke: #000000; stroke-width: 0.6"/>
      </g>
     </g>
    </g>
   </g>
   <g id="matplotlib.axis_2">
    <g id="ytick_1">
     <g id="line2d_22">
      <defs>
       <path id="m7b5dcce3d4" d="M 0 0 
L -3.5 0 
" style="stroke: #000000; stroke-width: 0.8"/>
      </defs>
      <g>
       <use xlink:href="#m7b5dcce3d4" x="227.12383" y="323.994877" style="stroke: #000000; stroke-width: 0.8"/>
      </g>
     </g>
     <g id="text_5">
      <!-- −1.0 -->
      <g transform="translate(195.841018 327.794096)scale(0.1 -0.1)">
       <defs>
        <path id="DejaVuSans-2e" d="M 684 794 
L 1344 794 
L 1344 0 
L 684 0 
L 684 794 
z
" transform="scale(0.015625)"/>
       </defs>
       <use xlink:href="#DejaVuSans-2212"/>
       <use xlink:href="#DejaVuSans-31" x="83.789062"/>
       <use xlink:href="#DejaVuSans-2e" x="147.412109"/>
       <use xlink:href="#DejaVuSans-30" x="179.199219"/>
      </g>
     </g>
    </g>
    <g id="ytick_2">
     <g id="line2d_23">
      <g>
       <use xlink:href="#m7b5dcce3d4" x="227.12383" y="246.342441" style="stroke: #000000; stroke-width: 0.8"/>
      </g>
     </g>
     <g id="text_6">
      <!-- −0.5 -->
      <g transform="translate(195.841018 250.14166)scale(0.1 -0.1)">
       <use xlink:href="#DejaVuSans-2212"/>
       <use xlink:href="#DejaVuSans-30" x="83.789062"/>
       <use xlink:href="#DejaVuSans-2e" x="147.412109"/>
       <use xlink:href="#DejaVuSans-35" x="179.199219"/>
      </g>
     </g>
    </g>
    <g id="ytick_3">
     <g id="line2d_24">
      <g>
       <use xlink:href="#m7b5dcce3d4" x="227.12383" y="168.690004" style="stroke: #000000; stroke-width: 0.8"/>
      </g>
     </g>
    </g>
    <g id="ytick_4">
     <g id="line2d_25">
      <g>
       <use xlink:href="#m7b5dcce3d4" x="227.12383" y="91.037567" style="stroke: #000000; stroke-width: 0.8"/>
      </g>
     </g>
     <g id="text_7">
      <!-- 0.5 -->
      <g transform="translate(204.220705 94.836786)scale(0.1 -0.1)">
       <use xlink:href="#DejaVuSans-30"/>
       <use xlink:href="#DejaVuSans-2e" x="63.623047"/>
       <use xlink:href="#DejaVuSans-35" x="95.410156"/>
      </g>
     </g>
    </g>
    <g id="ytick_5">
     <g id="line2d_26">
      <g>
       <use xlink:href="#m7b5dcce3d4" x="227.12383" y="13.385131" style="stroke: #000000; stroke-width: 0.8"/>
      </g>
     </g>
     <g id="text_8">
      <!-- 1.0 -->
      <g transform="translate(204.220705 17.184349)scale(0.1 -0.1)">
       <use xlink:href="#DejaVuSans-31"/>
       <use xlink:href="#DejaVuSans-2e" x="63.623047"/>
       <use xlink:href="#DejaVuSans-30" x="95.410156"/>
      </g>
     </g>
    </g>
    <g id="ytick_6">
     <g id="line2d_27">
      <defs>
       <path id="m9f0b42b0d9" d="M 0 0 
L -2 0 
" style="stroke: #000000; stroke-width: 0.6"/>
      </defs>
      <g>
       <use xlink:href="#m9f0b42b0d9" x="227.12383" y="308.46439" style="stroke: #000000; stroke-width: 0.6"/>
      </g>
     </g>
    </g>
    <g id="ytick_7">
     <g id="line2d_28">
      <g>
       <use xlink:href="#m9f0b42b0d9" x="227.12383" y="292.933903" style="stroke: #000000; stroke-width: 0.6"/>
      </g>
     </g>
    </g>
    <g id="ytick_8">
     <g id="line2d_29">
      <g>
       <use xlink:href="#m9f0b42b0d9" x="227.12383" y="277.403415" style="stroke: #000000; stroke-width: 0.6"/>
      </g>
     </g>
    </g>
    <g id="ytick_9">
     <g id="line2d_30">
      <g>
       <use xlink:href="#m9f0b42b0d9" x="227.12383" y="261.872928" style="stroke: #000000; stroke-width: 0.6"/>
      </g>
     </g>
    </g>
    <g id="ytick_10">
     <g id="line2d_31">
      <g>
       <use xlink:href="#m9f0b42b0d9" x="227.12383" y="230.811953" style="stroke: #000000; stroke-width: 0.6"/>
      </g>
     </g>
    </g>
    <g id="ytick_11">
     <g id="line2d_32">
      <g>
       <use xlink:href="#m9f0b42b0d9" x="227.12383" y="215.281466" style="stroke: #000000; stroke-width: 0.6"/>
      </g>
     </g>
    </g>
    <g id="ytick_12">
     <g id="line2d_33">
      <g>
       <use xlink:href="#m9f0b42b0d9" x="227.12383" y="199.750979" style="stroke: #000000; stroke-width: 0.6"/>
      </g>
     </g>
    </g>
    <g id="ytick_13">
     <g id="line2d_34">
      <g>
       <use xlink:href="#m9f0b42b0d9" x="227.12383" y="184.220491" style="stroke: #000000; stroke-width: 0.6"/>
      </g>
     </g>
    </g>
    <g id="ytick_14">
     <g id="line2d_35">
      <g>
       <use xlink:href="#m9f0b42b0d9" x="227.12383" y="153.159517" style="stroke: #000000; stroke-width: 0.6"/>
      </g>
     </g>
    </g>
    <g id="ytick_15">
     <g id="line2d_36">
      <g>
       <use xlink:href="#m9f0b42b0d9" x="227.12383" y="137.629029" style="stroke: #000000; stroke-width: 0.6"/>
      </g>
     </g>
    </g>
    <g id="ytick_16">
     <g id="line2d_37">
      <g>
       <use xlink:href="#m9f0b42b0d9" x="227.12383" y="122.098542" style="stroke: #000000; stroke-width: 0.6"/>
      </g>
     </g>
    </g>
    <g id="ytick_17">
     <g id="line2d_38">
      <g>
       <use xlink:href="#m9f0b42b0d9" x="227.12383" y="106.568055" style="stroke: #000000; stroke-width: 0.6"/>
      </g>
     </g>
    </g>
    <g id="ytick_18">
     <g id="line2d_39">
      <g>
       <use xlink:href="#m9f0b42b0d9" x="227.12383" y="75.50708" style="stroke: #000000; stroke-width: 0.6"/>
      </g>
     </g>
    </g>
    <g id="ytick_19">
     <g id="line2d_40">
      <g>
       <use xlink:href="#m9f0b42b0d9" x="227.12383" y="59.976593" style="stroke: #000000; stroke-width: 0.6"/>
      </g>
     </g>
    </g>
    <g id="ytick_20">
     <g id="line2d_41">
      <g>
       <use xlink:href="#m9f0b42b0d9" x="227.12383" y="44.446105" style="stroke: #000000; stroke-width: 0.6"/>
      </g>
     </g>
    </g>
    <g id="ytick_21">
     <g id="line2d_42">
      <g>
       <use xlink:href="#m9f0b42b0d9" x="227.12383" y="28.915618" style="stroke: #000000; stroke-width: 0.6"/>
      </g>
     </g>
    </g>
   </g>
   <g id="line2d_43">
    <path d="M 17.752344 84.200874 
L 18.902384 91.482503 
L 21.521666 108.89994 
L 25.863916 139.695322 
L 37.737871 226.198628 
L 41.429209 250.610308 
L 42.815729 259.161945 
L 44.893109 271.22112 
L 46.489702 279.809771 
L 48.634228 290.321162 
L 51.267573 301.474167 
L 53.139716 308.13647 
L 54.299393 311.70753 
L 55.459071 314.83994 
L 57.005094 318.317311 
L 58.20332 320.452289 
L 59.401545 322.090347 
L 60.731015 323.319828 
L 62.060486 323.926049 
L 63.28049 323.931823 
L 64.500495 323.410642 
L 65.639099 322.45038 
L 66.89331 320.866569 
L 68.147522 318.736843 
L 69.34643 316.197707 
L 70.545338 313.17503 
L 71.974507 308.953937 
L 74.187573 301.13659 
L 76.27212 292.41935 
L 77.955664 284.480065 
L 79.639207 275.792522 
L 83.069646 256.0135 
L 86.431994 234.353568 
L 90.616857 205.102348 
L 103.8521 108.858408 
L 107.540953 84.664479 
L 110.40454 67.641008 
L 113.210614 52.788357 
L 114.828957 45.151961 
L 116.807838 36.821112 
L 118.290072 31.348455 
L 119.772307 26.563847 
L 120.947909 23.274297 
L 122.195409 20.285006 
L 123.442909 17.822418 
L 124.88724 15.640592 
L 126.473747 14.083354 
L 128.060254 13.413414 
L 129.071327 13.451362 
L 130.0824 13.851257 
L 130.808219 14.361019 
L 132.601318 16.413535 
L 134.394418 19.582249 
L 135.034205 20.978876 
L 136.867789 25.740497 
L 139.399187 34.105629 
L 140.941531 40.174731 
L 143.204412 50.330567 
L 146.361826 66.780114 
L 147.622714 74.018195 
L 149.845269 87.595485 
L 154.096184 115.968643 
L 158.037325 144.235903 
L 168.278407 219.164984 
L 171.590741 241.673798 
L 174.73069 261.336651 
L 176.245122 270.102344 
L 179.382743 286.526674 
L 181.247129 295.056216 
L 182.870315 301.669048 
L 184.493501 307.483026 
L 185.627344 311.051512 
L 186.761186 314.202594 
L 188.567998 318.338989 
L 190.206555 321.127836 
L 191.99944 323.109754 
L 193.372498 323.862864 
L 194.745557 323.948855 
L 195.837396 323.540731 
L 196.929235 322.711593 
L 198.194152 321.227634 
L 199.45907 319.187086 
L 200.558567 316.96696 
L 201.889932 313.732079 
L 203.824695 307.990099 
L 205.759458 301.059445 
L 207.790412 292.57024 
L 210.501796 279.436968 
L 213.735561 261.368896 
L 214.55459 256.42428 
L 218.80352 228.795676 
L 222.190913 204.943172 
L 234.568444 114.624588 
L 239.313525 83.293088 
L 241.19287 72.008791 
L 244.04032 56.422791 
L 245.710194 48.229984 
L 247.380068 40.803029 
L 248.706822 35.479641 
L 250.033576 30.690987 
L 251.286648 26.676642 
L 252.714662 22.722567 
L 253.972356 19.801721 
L 255.23005 17.417962 
L 256.859216 15.142407 
L 258.488382 13.796074 
L 259.631436 13.410762 
L 260.77449 13.488154 
L 261.753195 13.921978 
L 263.36858 15.376851 
L 265.474033 18.640359 
L 266.503604 20.790814 
L 267.533175 23.298835 
L 269.004627 27.49175 
L 270.476078 32.381784 
L 271.552722 36.387614 
L 273.404989 44.091336 
L 275.257255 52.769602 
L 277.677169 65.462089 
L 280.350821 81.07964 
L 283.097648 98.607864 
L 287.573093 129.602948 
L 302.642386 238.377255 
L 304.297499 249.11994 
L 307.111906 266.199332 
L 309.949946 281.639851 
L 311.562256 289.505381 
L 313.174567 296.654817 
L 315.19756 304.547815 
L 316.351046 308.485212 
L 317.504531 311.998408 
L 318.528237 314.752411 
L 319.551942 317.1573 
L 321.315014 320.464447 
L 322.915478 322.535691 
L 324.03735 323.452407 
L 325.159222 323.924888 
L 326.371058 323.934624 
L 327.44036 323.511374 
L 328.509663 322.684384 
L 329.96061 320.920655 
L 331.411557 318.42613 
L 332.449548 316.199684 
L 333.487538 313.610759 
L 334.544628 310.608233 
L 336.035127 305.762099 
L 337.525626 300.221589 
L 338.801433 294.948718 
L 340.350524 287.918379 
L 342.909352 274.896528 
L 345.477215 260.236178 
L 347.174205 249.778455 
L 349.671361 233.442055 
L 354.882413 196.674518 
L 367.283072 106.627432 
L 369.150996 94.189879 
L 372.775555 71.830676 
L 375.93899 54.661366 
L 378.116174 44.332972 
L 379.748411 37.465353 
L 381.166604 32.144153 
L 382.925677 26.416523 
L 384.163584 22.985418 
L 385.401491 20.063511 
L 386.392633 18.098052 
L 387.383775 16.470003 
L 389.142731 14.422312 
L 390.901686 13.462785 
L 392.019872 13.421973 
L 393.138059 13.823925 
L 393.688525 14.184133 
L 394.650998 15.070359 
L 395.61347 16.281157 
L 396.575943 17.813969 
L 397.6789 19.962255 
L 399.060119 23.233638 
L 400.441338 27.13782 
L 402.103715 32.651606 
L 403.962514 39.830124 
L 405.821313 48.023634 
L 408.503649 61.504145 
L 411.015487 75.725348 
L 414.862838 100.022787 
L 418.542655 125.437451 
L 423.404834 160.92713 
L 430.904705 215.801276 
L 434.165805 238.187827 
L 436.495317 253.179134 
L 436.495317 253.179134 
" clip-path="url(#p8f8f990c85)" style="fill: none; stroke: #0000ff; stroke-linecap: square"/>
   </g>
   <g id="patch_3">
    <path d="M 227.12383 330.159617 
L 227.12383 7.2 
" style="fill: none; stroke: #000000; stroke-width: 0.8; stroke-linejoin: miter; stroke-linecap: square"/>
   </g>
   <g id="patch_4">
    <path d="M 9.377484 168.690004 
L 444.870177 168.690004 
" style="fill: none; stroke: #000000; stroke-width: 0.8; stroke-linejoin: miter; stroke-linecap: square"/>
   </g>
  </g>
 </g>
 <defs>
  <clipPath id="p8f8f990c85">
   <rect x="9.377484" y="7.2" width="435.492692" height="322.959617"/>
  </clipPath>
 </defs>
</svg>
