<?xml version="1.0" encoding="utf-8" standalone="no"?>
<!DOCTYPE svg PUBLIC "-//W3C//DTD SVG 1.1//EN"
  "http://www.w3.org/Graphics/SVG/1.1/DTD/svg11.dtd">
<svg xmlns:xlink="http://www.w3.org/1999/xlink" width="452.05977pt" height="338.117421pt" viewBox="0 0 452.05977 338.117421" xmlns="http://www.w3.org/2000/svg" version="1.1">
 <metadata>
  <rdf:RDF xmlns:dc="http://purl.org/dc/elements/1.1/" xmlns:cc="http://creativecommons.org/ns#" xmlns:rdf="http://www.w3.org/1999/02/22-rdf-syntax-ns#">
   <cc:Work>
    <dc:type rdf:resource="http://purl.org/dc/dcmitype/StillImage"/>
    <dc:date>2022-10-23T21:59:31.047329</dc:date>
    <dc:format>image/svg+xml</dc:format>
    <dc:creator>
     <cc:Agent>
      <dc:title>Matplotlib v3.5.2, https://matplotlib.org/</dc:title>
     </cc:Agent>
    </dc:creator>
   </cc:Work>
  </rdf:RDF>
 </metadata>
 <defs>
  <style type="text/css">*{stroke-linejoin: round; stroke-linecap: butt}</style>
 </defs>
 <g id="figure_1">
  <g id="patch_1">
   <path d="M 0 338.117421 
L 452.05977 338.117421 
L 452.05977 0 
L 0 0 
L 0 338.117421 
z
" style="fill: none"/>
  </g>
  <g id="axes_1">
   <g id="patch_2">
    <path d="M 7.647784 330.917421 
L 444.85977 330.917421 
L 444.85977 7.2 
L 7.647784 7.2 
L 7.647784 330.917421 
z
" style="fill: none"/>
   </g>
   <g id="matplotlib.axis_1">
    <g id="xtick_1">
     <g id="line2d_1">
      <defs>
       <path id="mfd6ece5925" d="M 0 0 
L 0 3.5 
" style="stroke: #000000; stroke-width: 0.8"/>
      </defs>
      <g>
       <use xlink:href="#mfd6ece5925" x="16.055707" y="169.041332" style="stroke: #000000; stroke-width: 0.8"/>
      </g>
     </g>
     <g id="text_1">
      <!-- $\mathdefault{−10}$ -->
      <g transform="translate(7.2 182.95983)scale(0.1 -0.1)">
       <defs>
        <path id="CMSY10-0" d="M 4218 1472 
C 4326 1472 4442 1472 4442 1600 
C 4442 1728 4326 1728 4218 1728 
L 755 1728 
C 646 1728 531 1728 531 1600 
C 531 1472 646 1472 755 1472 
L 4218 1472 
z
" transform="scale(0.015625)"/>
        <path id="CMR17-31" d="M 1702 4083 
C 1702 4217 1696 4224 1606 4224 
C 1357 3927 979 3833 621 3820 
C 602 3820 570 3820 563 3808 
C 557 3795 557 3782 557 3648 
C 755 3648 1088 3686 1344 3839 
L 1344 467 
C 1344 243 1331 166 781 166 
L 589 166 
L 589 0 
C 896 6 1216 12 1523 12 
C 1830 12 2150 6 2458 0 
L 2458 166 
L 2266 166 
C 1715 166 1702 236 1702 467 
L 1702 4083 
z
" transform="scale(0.015625)"/>
        <path id="CMR17-30" d="M 2688 2038 
C 2688 2430 2682 3099 2413 3613 
C 2176 4063 1798 4224 1466 4224 
C 1158 4224 768 4082 525 3620 
C 269 3137 243 2539 243 2038 
C 243 1671 250 1112 448 623 
C 723 -39 1216 -128 1466 -128 
C 1760 -128 2208 -7 2470 604 
C 2662 1048 2688 1568 2688 2038 
z
M 1466 -26 
C 1056 -26 813 328 723 816 
C 653 1196 653 1749 653 2109 
C 653 2604 653 3015 736 3407 
C 858 3954 1216 4121 1466 4121 
C 1728 4121 2067 3947 2189 3420 
C 2272 3054 2278 2623 2278 2109 
C 2278 1691 2278 1176 2202 797 
C 2067 96 1690 -26 1466 -26 
z
" transform="scale(0.015625)"/>
       </defs>
       <use xlink:href="#CMSY10-0" transform="scale(0.996264)"/>
       <use xlink:href="#CMR17-31" transform="translate(77.487468 0)scale(0.996264)"/>
       <use xlink:href="#CMR17-30" transform="translate(123.177945 0)scale(0.996264)"/>
      </g>
     </g>
    </g>
    <g id="xtick_2">
     <g id="line2d_2">
      <g>
       <use xlink:href="#mfd6ece5925" x="121.154742" y="169.041332" style="stroke: #000000; stroke-width: 0.8"/>
      </g>
     </g>
     <g id="text_2">
      <!-- $\mathdefault{−5}$ -->
      <g transform="translate(114.789703 182.95983)scale(0.1 -0.1)">
       <defs>
        <path id="CMR17-35" d="M 730 3750 
C 794 3724 1056 3641 1325 3641 
C 1920 3641 2246 3961 2432 4140 
C 2432 4191 2432 4224 2394 4224 
C 2387 4224 2374 4224 2323 4198 
C 2099 4102 1837 4032 1517 4032 
C 1325 4032 1037 4055 723 4191 
C 653 4224 640 4224 634 4224 
C 602 4224 595 4217 595 4090 
L 595 2231 
C 595 2113 595 2080 659 2080 
C 691 2080 704 2093 736 2139 
C 941 2435 1222 2560 1542 2560 
C 1766 2560 2246 2415 2246 1293 
C 2246 1087 2246 716 2054 422 
C 1894 159 1645 25 1370 25 
C 947 25 518 319 403 812 
C 429 806 480 793 506 793 
C 589 793 749 838 749 1036 
C 749 1209 627 1280 506 1280 
C 358 1280 262 1190 262 1011 
C 262 454 704 -128 1382 -128 
C 2042 -128 2669 441 2669 1267 
C 2669 2054 2170 2662 1549 2662 
C 1222 2662 947 2540 730 2304 
L 730 3750 
z
" transform="scale(0.015625)"/>
       </defs>
       <use xlink:href="#CMSY10-0" transform="scale(0.996264)"/>
       <use xlink:href="#CMR17-35" transform="translate(77.487468 0)scale(0.996264)"/>
      </g>
     </g>
    </g>
    <g id="xtick_3">
     <g id="line2d_3">
      <g>
       <use xlink:href="#mfd6ece5925" x="226.253777" y="169.041332" style="stroke: #000000; stroke-width: 0.8"/>
      </g>
     </g>
    </g>
    <g id="xtick_4">
     <g id="line2d_4">
      <g>
       <use xlink:href="#mfd6ece5925" x="331.352812" y="169.041332" style="stroke: #000000; stroke-width: 0.8"/>
      </g>
     </g>
     <g id="text_3">
      <!-- $\mathdefault{5}$ -->
      <g transform="translate(328.862144 182.95983)scale(0.1 -0.1)">
       <use xlink:href="#CMR17-35" transform="scale(0.996264)"/>
      </g>
     </g>
    </g>
    <g id="xtick_5">
     <g id="line2d_5">
      <g>
       <use xlink:href="#mfd6ece5925" x="436.451847" y="169.041332" style="stroke: #000000; stroke-width: 0.8"/>
      </g>
     </g>
     <g id="text_4">
      <!-- $\mathdefault{10}$ -->
      <g transform="translate(431.470511 182.95983)scale(0.1 -0.1)">
       <use xlink:href="#CMR17-31" transform="scale(0.996264)"/>
       <use xlink:href="#CMR17-30" transform="translate(45.690477 0)scale(0.996264)"/>
      </g>
     </g>
    </g>
    <g id="xtick_6">
     <g id="line2d_6">
      <defs>
       <path id="m7cedd45c30" d="M 0 0 
L 0 2 
" style="stroke: #000000; stroke-width: 0.6"/>
      </defs>
      <g>
       <use xlink:href="#m7cedd45c30" x="37.075514" y="169.041332" style="stroke: #000000; stroke-width: 0.6"/>
      </g>
     </g>
    </g>
    <g id="xtick_7">
     <g id="line2d_7">
      <g>
       <use xlink:href="#m7cedd45c30" x="58.095321" y="169.041332" style="stroke: #000000; stroke-width: 0.6"/>
      </g>
     </g>
    </g>
    <g id="xtick_8">
     <g id="line2d_8">
      <g>
       <use xlink:href="#m7cedd45c30" x="79.115128" y="169.041332" style="stroke: #000000; stroke-width: 0.6"/>
      </g>
     </g>
    </g>
    <g id="xtick_9">
     <g id="line2d_9">
      <g>
       <use xlink:href="#m7cedd45c30" x="100.134935" y="169.041332" style="stroke: #000000; stroke-width: 0.6"/>
      </g>
     </g>
    </g>
    <g id="xtick_10">
     <g id="line2d_10">
      <g>
       <use xlink:href="#m7cedd45c30" x="142.174549" y="169.041332" style="stroke: #000000; stroke-width: 0.6"/>
      </g>
     </g>
    </g>
    <g id="xtick_11">
     <g id="line2d_11">
      <g>
       <use xlink:href="#m7cedd45c30" x="163.194356" y="169.041332" style="stroke: #000000; stroke-width: 0.6"/>
      </g>
     </g>
    </g>
    <g id="xtick_12">
     <g id="line2d_12">
      <g>
       <use xlink:href="#m7cedd45c30" x="184.214163" y="169.041332" style="stroke: #000000; stroke-width: 0.6"/>
      </g>
     </g>
    </g>
    <g id="xtick_13">
     <g id="line2d_13">
      <g>
       <use xlink:href="#m7cedd45c30" x="205.23397" y="169.041332" style="stroke: #000000; stroke-width: 0.6"/>
      </g>
     </g>
    </g>
    <g id="xtick_14">
     <g id="line2d_14">
      <g>
       <use xlink:href="#m7cedd45c30" x="247.273584" y="169.041332" style="stroke: #000000; stroke-width: 0.6"/>
      </g>
     </g>
    </g>
    <g id="xtick_15">
     <g id="line2d_15">
      <g>
       <use xlink:href="#m7cedd45c30" x="268.293391" y="169.041332" style="stroke: #000000; stroke-width: 0.6"/>
      </g>
     </g>
    </g>
    <g id="xtick_16">
     <g id="line2d_16">
      <g>
       <use xlink:href="#m7cedd45c30" x="289.313198" y="169.041332" style="stroke: #000000; stroke-width: 0.6"/>
      </g>
     </g>
    </g>
    <g id="xtick_17">
     <g id="line2d_17">
      <g>
       <use xlink:href="#m7cedd45c30" x="310.333005" y="169.041332" style="stroke: #000000; stroke-width: 0.6"/>
      </g>
     </g>
    </g>
    <g id="xtick_18">
     <g id="line2d_18">
      <g>
       <use xlink:href="#m7cedd45c30" x="352.372619" y="169.041332" style="stroke: #000000; stroke-width: 0.6"/>
      </g>
     </g>
    </g>
    <g id="xtick_19">
     <g id="line2d_19">
      <g>
       <use xlink:href="#m7cedd45c30" x="373.392426" y="169.041332" style="stroke: #000000; stroke-width: 0.6"/>
      </g>
     </g>
    </g>
    <g id="xtick_20">
     <g id="line2d_20">
      <g>
       <use xlink:href="#m7cedd45c30" x="394.412233" y="169.041332" style="stroke: #000000; stroke-width: 0.6"/>
      </g>
     </g>
    </g>
    <g id="xtick_21">
     <g id="line2d_21">
      <g>
       <use xlink:href="#m7cedd45c30" x="415.43204" y="169.041332" style="stroke: #000000; stroke-width: 0.6"/>
      </g>
     </g>
    </g>
   </g>
   <g id="matplotlib.axis_2">
    <g id="ytick_1">
     <g id="line2d_22">
      <defs>
       <path id="m94537128c6" d="M 0 0 
L -3.5 0 
" style="stroke: #000000; stroke-width: 0.8"/>
      </defs>
      <g>
       <use xlink:href="#m94537128c6" x="226.253777" y="324.696575" style="stroke: #000000; stroke-width: 0.8"/>
      </g>
     </g>
     <g id="text_5">
      <!-- $\mathdefault{−1.0}$ -->
      <g transform="translate(198.774954 328.155824)scale(0.1 -0.1)">
       <defs>
        <path id="CMMI12-3a" d="M 1178 307 
C 1178 492 1024 620 870 620 
C 685 620 557 467 557 313 
C 557 128 710 0 864 0 
C 1050 0 1178 153 1178 307 
z
" transform="scale(0.015625)"/>
       </defs>
       <use xlink:href="#CMSY10-0" transform="scale(0.996264)"/>
       <use xlink:href="#CMR17-31" transform="translate(77.487468 0)scale(0.996264)"/>
       <use xlink:href="#CMMI12-3a" transform="translate(123.177945 0)scale(0.996264)"/>
       <use xlink:href="#CMR17-30" transform="translate(150.275122 0)scale(0.996264)"/>
      </g>
     </g>
    </g>
    <g id="ytick_2">
     <g id="line2d_23">
      <g>
       <use xlink:href="#m94537128c6" x="226.253777" y="246.868953" style="stroke: #000000; stroke-width: 0.8"/>
      </g>
     </g>
     <g id="text_6">
      <!-- $\mathdefault{−0.5}$ -->
      <g transform="translate(198.774954 250.328202)scale(0.1 -0.1)">
       <use xlink:href="#CMSY10-0" transform="scale(0.996264)"/>
       <use xlink:href="#CMR17-30" transform="translate(77.487468 0)scale(0.996264)"/>
       <use xlink:href="#CMMI12-3a" transform="translate(123.177945 0)scale(0.996264)"/>
       <use xlink:href="#CMR17-35" transform="translate(150.275122 0)scale(0.996264)"/>
      </g>
     </g>
    </g>
    <g id="ytick_3">
     <g id="line2d_24">
      <g>
       <use xlink:href="#m94537128c6" x="226.253777" y="169.041332" style="stroke: #000000; stroke-width: 0.8"/>
      </g>
     </g>
    </g>
    <g id="ytick_4">
     <g id="line2d_25">
      <g>
       <use xlink:href="#m94537128c6" x="226.253777" y="91.21371" style="stroke: #000000; stroke-width: 0.8"/>
      </g>
     </g>
     <g id="text_7">
      <!-- $\mathdefault{0.5}$ -->
      <g transform="translate(206.523698 94.67296)scale(0.1 -0.1)">
       <use xlink:href="#CMR17-30" transform="scale(0.996264)"/>
       <use xlink:href="#CMMI12-3a" transform="translate(45.690477 0)scale(0.996264)"/>
       <use xlink:href="#CMR17-35" transform="translate(72.787654 0)scale(0.996264)"/>
      </g>
     </g>
    </g>
    <g id="ytick_5">
     <g id="line2d_26">
      <g>
       <use xlink:href="#m94537128c6" x="226.253777" y="13.386089" style="stroke: #000000; stroke-width: 0.8"/>
      </g>
     </g>
     <g id="text_8">
      <!-- $\mathdefault{1.0}$ -->
      <g transform="translate(206.523698 16.845338)scale(0.1 -0.1)">
       <use xlink:href="#CMR17-31" transform="scale(0.996264)"/>
       <use xlink:href="#CMMI12-3a" transform="translate(45.690477 0)scale(0.996264)"/>
       <use xlink:href="#CMR17-30" transform="translate(72.787654 0)scale(0.996264)"/>
      </g>
     </g>
    </g>
    <g id="ytick_6">
     <g id="line2d_27">
      <defs>
       <path id="ma0a3f545c6" d="M 0 0 
L -2 0 
" style="stroke: #000000; stroke-width: 0.6"/>
      </defs>
      <g>
       <use xlink:href="#ma0a3f545c6" x="226.253777" y="309.13105" style="stroke: #000000; stroke-width: 0.6"/>
      </g>
     </g>
    </g>
    <g id="ytick_7">
     <g id="line2d_28">
      <g>
       <use xlink:href="#ma0a3f545c6" x="226.253777" y="293.565526" style="stroke: #000000; stroke-width: 0.6"/>
      </g>
     </g>
    </g>
    <g id="ytick_8">
     <g id="line2d_29">
      <g>
       <use xlink:href="#ma0a3f545c6" x="226.253777" y="278.000002" style="stroke: #000000; stroke-width: 0.6"/>
      </g>
     </g>
    </g>
    <g id="ytick_9">
     <g id="line2d_30">
      <g>
       <use xlink:href="#ma0a3f545c6" x="226.253777" y="262.434477" style="stroke: #000000; stroke-width: 0.6"/>
      </g>
     </g>
    </g>
    <g id="ytick_10">
     <g id="line2d_31">
      <g>
       <use xlink:href="#ma0a3f545c6" x="226.253777" y="231.303429" style="stroke: #000000; stroke-width: 0.6"/>
      </g>
     </g>
    </g>
    <g id="ytick_11">
     <g id="line2d_32">
      <g>
       <use xlink:href="#ma0a3f545c6" x="226.253777" y="215.737905" style="stroke: #000000; stroke-width: 0.6"/>
      </g>
     </g>
    </g>
    <g id="ytick_12">
     <g id="line2d_33">
      <g>
       <use xlink:href="#ma0a3f545c6" x="226.253777" y="200.17238" style="stroke: #000000; stroke-width: 0.6"/>
      </g>
     </g>
    </g>
    <g id="ytick_13">
     <g id="line2d_34">
      <g>
       <use xlink:href="#ma0a3f545c6" x="226.253777" y="184.606856" style="stroke: #000000; stroke-width: 0.6"/>
      </g>
     </g>
    </g>
    <g id="ytick_14">
     <g id="line2d_35">
      <g>
       <use xlink:href="#ma0a3f545c6" x="226.253777" y="153.475808" style="stroke: #000000; stroke-width: 0.6"/>
      </g>
     </g>
    </g>
    <g id="ytick_15">
     <g id="line2d_36">
      <g>
       <use xlink:href="#ma0a3f545c6" x="226.253777" y="137.910283" style="stroke: #000000; stroke-width: 0.6"/>
      </g>
     </g>
    </g>
    <g id="ytick_16">
     <g id="line2d_37">
      <g>
       <use xlink:href="#ma0a3f545c6" x="226.253777" y="122.344759" style="stroke: #000000; stroke-width: 0.6"/>
      </g>
     </g>
    </g>
    <g id="ytick_17">
     <g id="line2d_38">
      <g>
       <use xlink:href="#ma0a3f545c6" x="226.253777" y="106.779235" style="stroke: #000000; stroke-width: 0.6"/>
      </g>
     </g>
    </g>
    <g id="ytick_18">
     <g id="line2d_39">
      <g>
       <use xlink:href="#ma0a3f545c6" x="226.253777" y="75.648186" style="stroke: #000000; stroke-width: 0.6"/>
      </g>
     </g>
    </g>
    <g id="ytick_19">
     <g id="line2d_40">
      <g>
       <use xlink:href="#ma0a3f545c6" x="226.253777" y="60.082662" style="stroke: #000000; stroke-width: 0.6"/>
      </g>
     </g>
    </g>
    <g id="ytick_20">
     <g id="line2d_41">
      <g>
       <use xlink:href="#ma0a3f545c6" x="226.253777" y="44.517138" style="stroke: #000000; stroke-width: 0.6"/>
      </g>
     </g>
    </g>
    <g id="ytick_21">
     <g id="line2d_42">
      <g>
       <use xlink:href="#ma0a3f545c6" x="226.253777" y="28.951613" style="stroke: #000000; stroke-width: 0.6"/>
      </g>
     </g>
    </g>
   </g>
   <g id="line2d_43">
    <path d="M 16.055707 84.361594 
L 19.19668 104.749026 
L 22.443349 127.322915 
L 28.484042 171.538828 
L 34.780428 217.353369 
L 38.502125 242.660108 
L 42.197395 265.511493 
L 45.327236 282.565869 
L 47.11262 291.191043 
L 48.955804 299.170849 
L 50.802198 306.161959 
L 52.648592 312.095728 
L 53.599111 314.722863 
L 54.948841 317.940453 
L 56.298571 320.544309 
L 57.88318 322.803719 
L 59.444077 324.175435 
L 61.004974 324.692086 
L 62.023407 324.566675 
L 63.041839 324.076238 
L 63.602383 323.65094 
L 64.610705 322.609391 
L 65.619027 321.21453 
L 66.627349 319.469567 
L 67.635671 317.378514 
L 69.541256 312.499306 
L 71.618974 305.838321 
L 73.368908 299.189076 
L 75.583943 289.486322 
L 77.76736 278.61373 
L 80.5555 263.029761 
L 81.808557 255.470654 
L 85.771031 229.680075 
L 90.305709 197.58667 
L 100.801787 120.830056 
L 104.535635 95.436654 
L 107.718853 75.58807 
L 110.491251 60.029205 
L 113.021861 47.474122 
L 115.88834 35.387113 
L 116.916867 31.644822 
L 118.401284 26.825819 
L 119.8857 22.715774 
L 121.588294 18.900849 
L 123.041881 16.422145 
L 124.255439 14.911148 
L 125.468998 13.913758 
L 126.728241 13.425335 
L 127.987484 13.495236 
L 129.292966 14.156868 
L 130.271356 15.044483 
L 131.249747 16.265678 
L 132.228138 17.817809 
L 133.206528 19.697512 
L 134.593438 22.91527 
L 135.532849 25.457011 
L 137.26501 30.891322 
L 138.99717 37.263247 
L 140.662894 44.234928 
L 142.630634 53.476217 
L 144.341682 62.337675 
L 146.685271 75.609296 
L 150.568932 100.070805 
L 154.669342 128.427349 
L 169.136176 233.117663 
L 171.652279 249.598866 
L 173.543608 261.240865 
L 177.002643 280.539919 
L 179.308103 291.758697 
L 181.665121 301.702806 
L 182.91745 306.315542 
L 184.283919 310.792426 
L 185.650388 314.670463 
L 187.127391 318.169869 
L 188.732801 321.13825 
L 190.338211 323.219834 
L 191.259778 324.009186 
L 192.607072 324.626918 
L 193.607508 324.672256 
L 194.607945 324.365113 
L 195.968143 323.383498 
L 197.328341 321.755812 
L 198.56537 319.720237 
L 199.802399 317.162951 
L 201.168203 313.74415 
L 202.534006 309.714628 
L 203.686672 305.851193 
L 204.839339 301.576458 
L 207.466929 290.364999 
L 209.453181 280.622864 
L 211.439433 269.885138 
L 213.519285 257.678739 
L 215.916303 242.543376 
L 220.122908 213.800474 
L 235.53125 102.549007 
L 238.82839 81.379698 
L 239.953675 74.622784 
L 243.319117 56.101793 
L 246.008092 43.359477 
L 247.621562 36.687701 
L 249.235032 30.795373 
L 251.288372 24.478043 
L 252.093775 22.373595 
L 253.898757 18.443413 
L 255.928141 15.351058 
L 257.217513 14.128721 
L 258.506886 13.48909 
L 259.925556 13.461411 
L 261.344225 14.142157 
L 262.482517 15.198624 
L 263.620808 16.706137 
L 264.808936 18.75595 
L 265.997063 21.285796 
L 267.445769 25.008126 
L 268.621203 28.53179 
L 269.796637 32.494723 
L 271.612608 39.451555 
L 274.124391 50.654923 
L 276.992511 65.502075 
L 279.926665 82.680352 
L 283.061368 102.879907 
L 285.76841 121.522816 
L 293.322316 176.686818 
L 299.034693 218.138144 
L 301.429821 234.614293 
L 304.958566 257.280368 
L 308.36323 276.804313 
L 310.563418 287.949785 
L 312.916202 298.42528 
L 313.954309 302.539507 
L 315.462067 307.932763 
L 316.969825 312.611695 
L 318.797345 317.291047 
L 320.198485 320.121745 
L 321.7565 322.480973 
L 323.314515 323.997594 
L 324.599637 324.608375 
L 326.116094 324.581358 
L 327.414894 323.914779 
L 328.713694 322.657094 
L 330.104317 320.660714 
L 331.933302 317.026805 
L 333.762286 312.27318 
L 335.388557 307.13489 
L 336.728928 302.277306 
L 338.069299 296.878137 
L 339.376102 291.113715 
L 341.207326 282.247812 
L 342.650495 274.652105 
L 344.435417 264.573439 
L 347.841836 243.493378 
L 349.434492 232.932409 
L 355.051424 193.185715 
L 365.08225 119.861005 
L 366.59882 109.343033 
L 370.213412 85.625381 
L 373.441349 66.505074 
L 376.820238 49.082692 
L 379.018705 39.382904 
L 380.555823 33.43708 
L 382.092942 28.216087 
L 383.1542 25.049146 
L 384.271379 22.111959 
L 385.388557 19.58972 
L 386.831167 16.958041 
L 388.273777 15.042426 
L 389.406993 14.045814 
L 390.540209 13.499585 
L 392.246854 13.529985 
L 393.257237 14.031131 
L 394.922872 15.638109 
L 396.588508 18.20783 
L 398.412207 22.106279 
L 399.973465 26.323262 
L 401.982539 32.903996 
L 403.418935 38.374748 
L 404.855331 44.455438 
L 406.617603 52.706921 
L 408.693776 63.471961 
L 411.681275 80.73888 
L 414.491936 98.616238 
L 417.708117 120.595504 
L 422.751076 157.132772 
L 429.786736 208.776639 
L 433.102827 231.927444 
L 436.451847 253.72107 
L 436.451847 253.72107 
" clip-path="url(#pc2e1472533)" style="fill: none; stroke: #0000ff; stroke-linecap: square"/>
   </g>
   <g id="patch_3">
    <path d="M 226.253777 330.917421 
L 226.253777 7.2 
" style="fill: none; stroke: #000000; stroke-width: 0.8; stroke-linejoin: miter; stroke-linecap: square"/>
   </g>
   <g id="patch_4">
    <path d="M 7.647784 169.041332 
L 444.85977 169.041332 
" style="fill: none; stroke: #000000; stroke-width: 0.8; stroke-linejoin: miter; stroke-linecap: square"/>
   </g>
  </g>
 </g>
 <defs>
  <clipPath id="pc2e1472533">
   <rect x="7.647784" y="7.2" width="437.211985" height="323.717421"/>
  </clipPath>
 </defs>
</svg>
