<?xml version="1.0" encoding="utf-8" standalone="no"?>
<!DOCTYPE svg PUBLIC "-//W3C//DTD SVG 1.1//EN"
  "http://www.w3.org/Graphics/SVG/1.1/DTD/svg11.dtd">
<svg xmlns:xlink="http://www.w3.org/1999/xlink" width="453.573125pt" height="337.114942pt" viewBox="0 0 453.573125 337.114942" xmlns="http://www.w3.org/2000/svg" version="1.1">
 <metadata>
  <rdf:RDF xmlns:dc="http://purl.org/dc/elements/1.1/" xmlns:cc="http://creativecommons.org/ns#" xmlns:rdf="http://www.w3.org/1999/02/22-rdf-syntax-ns#">
   <cc:Work>
    <dc:type rdf:resource="http://purl.org/dc/dcmitype/StillImage"/>
    <dc:date>2022-12-19T17:45:17.337032</dc:date>
    <dc:format>image/svg+xml</dc:format>
    <dc:creator>
     <cc:Agent>
      <dc:title>Matplotlib v3.5.2, https://matplotlib.org/</dc:title>
     </cc:Agent>
    </dc:creator>
   </cc:Work>
  </rdf:RDF>
 </metadata>
 <defs>
  <style type="text/css">*{stroke-linejoin: round; stroke-linecap: butt}</style>
 </defs>
 <g id="figure_1">
  <g id="patch_1">
   <path d="M 0 337.114942 
L 453.573125 337.114942 
L 453.573125 0 
L 0 0 
L 0 337.114942 
z
" style="fill: none"/>
  </g>
  <g id="axes_1">
   <g id="patch_2">
    <path d="M 40.103125 319.237538 
L 446.373125 319.237538 
L 446.373125 7.2 
L 40.103125 7.2 
L 40.103125 319.237538 
z
" style="fill: none"/>
   </g>
   <g id="patch_3">
    <path d="M 58.767238 313.236817 
L 58.767238 73.207941 
L 59.843229 77.875553 
L 61.922577 86.399942 
L 63.561651 92.696285 
L 64.763139 97.094091 
L 65.964627 101.319933 
L 67.572248 106.72234 
L 69.179869 111.856148 
L 70.925862 117.150289 
L 72.44047 121.522391 
L 73.711755 125.044376 
L 75.140227 128.850563 
L 77.806294 135.557498 
L 79.898971 140.489662 
L 82.079604 145.34599 
L 84.228488 149.871701 
L 85.785424 153.001215 
L 87.438488 156.19533 
L 88.858881 158.839864 
L 91.403457 163.36126 
L 93.538699 166.955883 
L 94.986136 169.296113 
L 97.573718 173.298347 
L 98.289069 174.365816 
L 99.816341 176.591232 
L 103.289753 181.39618 
L 104.479162 182.964807 
L 106.456436 185.491488 
L 108.208309 187.649632 
L 110.501568 190.366896 
L 112.949266 193.140351 
L 113.739943 194.009695 
L 116.730796 197.187309 
L 118.825305 199.313613 
L 120.098717 200.568688 
L 121.318724 201.74546 
L 124.54018 204.737772 
L 126.205345 206.222385 
L 127.056243 206.965444 
L 129.361531 208.927681 
L 131.338323 210.553494 
L 132.924755 211.822052 
L 134.372688 212.952808 
L 137.183823 215.077675 
L 138.589502 216.106776 
L 140.244649 217.291188 
L 143.241928 219.364094 
L 145.165611 220.647958 
L 146.965283 221.817664 
L 149.357997 223.32781 
L 150.975543 224.320761 
L 152.607734 225.300715 
L 154.068237 226.159457 
L 155.286126 226.862826 
L 158.413002 228.617715 
L 160.358047 229.673802 
L 161.976589 230.532722 
L 163.588462 231.370733 
L 165.729505 232.457946 
L 167.335881 233.254884 
L 169.375834 234.24454 
L 171.906015 235.438511 
L 173.795406 236.306822 
L 176.100349 237.340216 
L 176.841382 237.666577 
L 179.899359 238.98418 
L 180.486035 239.231728 
L 182.370574 240.015861 
L 184.915367 241.04872 
L 187.124626 241.922051 
L 188.994856 242.645015 
L 189.93255 243.002004 
L 191.856186 243.723167 
L 194.063079 244.532492 
L 195.525763 245.058591 
L 197.746135 245.841995 
L 199.359609 246.400068 
L 201.955171 247.278691 
L 202.907487 247.595295 
L 205.969415 248.592968 
L 207.980431 249.231884 
L 209.044849 249.564974 
L 211.486401 250.316069 
L 213.127167 250.81094 
L 214.926128 251.344656 
L 217.384991 252.05956 
L 219.714093 252.721669 
L 221.350613 253.178386 
L 223.552042 253.781992 
L 225.546053 254.318349 
L 226.307329 254.520576 
L 228.446771 255.081541 
L 229.843536 255.442027 
L 232.928283 256.222539 
L 233.91725 256.468326 
L 236.005984 256.980538 
L 238.532077 257.587785 
L 239.724225 257.869835 
L 241.7863 258.35101 
L 243.359019 258.712411 
L 245.063702 259.0988 
L 248.369617 259.832732 
L 249.511747 260.081689 
L 251.15928 260.436748 
L 254.009146 261.039852 
L 254.698519 261.183676 
L 256.527075 261.561359 
L 259.18117 262.099905 
L 261.997674 262.659264 
L 263.867006 263.023806 
L 265.71399 263.378866 
L 266.608899 263.549101 
L 267.770966 263.76843 
L 269.776625 264.142458 
L 271.708909 264.497492 
L 273.734509 264.8642 
L 276.89076 265.424727 
L 278.409513 265.689842 
L 280.353015 266.024844 
L 281.927302 266.292764 
L 284.753067 266.766115 
L 286.708742 267.088164 
L 288.054952 267.307269 
L 290.379297 267.680714 
L 292.452527 268.008726 
L 293.270162 268.136792 
L 295.407953 268.46823 
L 297.691727 268.816962 
L 298.732205 268.974048 
L 300.395429 269.222857 
L 303.63834 269.700023 
L 305.404288 269.955542 
L 307.22503 270.215867 
L 308.295819 270.367508 
L 309.832728 270.583301 
L 313.10654 271.035801 
L 313.932156 271.148405 
L 317.117534 271.577275 
L 318.860941 271.808322 
L 319.778283 271.928867 
L 321.845903 272.198012 
L 323.606646 272.424461 
L 326.808893 272.82996 
L 327.208904 272.880047 
L 329.367352 273.14819 
L 331.348476 273.391187 
L 334.381713 273.757577 
L 335.609383 273.903961 
L 336.80917 274.045976 
L 338.748513 274.273372 
L 342.066794 274.656395 
L 343.912244 274.866171 
L 345.887659 275.088208 
L 346.881383 275.198933 
L 349.62884 275.50175 
L 350.850395 275.634843 
L 352.213618 275.782268 
L 354.340836 276.010019 
L 356.072917 276.193428 
L 358.204848 276.416712 
L 361.164739 276.722284 
L 363.028704 276.912126 
L 363.227832 276.932291 
L 366.599622 277.270361 
L 368.783882 277.486023 
L 369.795381 277.58502 
L 371.83283 277.782772 
L 373.909087 277.982047 
L 376.088697 278.188845 
L 376.82547 278.258202 
L 380.047763 278.558336 
L 381.39799 278.682574 
L 382.62099 278.79434 
L 384.449984 278.960144 
L 387.211422 279.207473 
L 388.765579 279.345108 
L 390.253355 279.475825 
L 392.535202 279.674363 
L 394.48443 279.84212 
L 397.285985 280.080316 
L 398.327765 280.168026 
L 401.015033 280.392146 
L 403.146878 280.567795 
L 404.096139 280.645404 
L 406.105257 280.808454 
L 408.498456 281.000558 
L 410.414105 281.152696 
L 412.689986 281.331587 
L 412.933569 281.350616 
L 414.787514 281.494702 
L 417.620545 281.712384 
L 420.359345 281.920006 
L 421.438293 282.001049 
L 423.266728 282.137435 
L 425.905821 282.332203 
L 426.464441 282.373118 
L 428.646648 282.531913 
L 431.334409 282.725266 
L 432.79185 282.829097 
L 434.5637 282.954379 
L 435.824308 283.042886 
L 438.56024 283.233207 
L 438.56024 313.236817 
z
" clip-path="url(#pb14de91fb5)" style="fill: #808080; opacity: 0.5"/>
   </g>
   <g id="matplotlib.axis_1">
    <g id="xtick_1">
     <g id="line2d_1">
      <defs>
       <path id="mfa63f69e7e" d="M 0 0 
L 0 3.5 
" style="stroke: #000000; stroke-width: 0.8"/>
      </defs>
      <g>
       <use xlink:href="#mfa63f69e7e" x="58.767238" y="313.236817" style="stroke: #000000; stroke-width: 0.8"/>
      </g>
     </g>
     <g id="text_1">
      <!-- 1 -->
      <g transform="translate(55.585988 327.835254)scale(0.1 -0.1)">
       <defs>
        <path id="DejaVuSans-31" d="M 794 531 
L 1825 531 
L 1825 4091 
L 703 3866 
L 703 4441 
L 1819 4666 
L 2450 4666 
L 2450 531 
L 3481 531 
L 3481 0 
L 794 0 
L 794 531 
z
" transform="scale(0.015625)"/>
       </defs>
       <use xlink:href="#DejaVuSans-31"/>
      </g>
     </g>
    </g>
    <g id="xtick_2">
     <g id="line2d_2">
      <g>
       <use xlink:href="#mfa63f69e7e" x="113.023381" y="313.236817" style="stroke: #000000; stroke-width: 0.8"/>
      </g>
     </g>
     <g id="text_2">
      <!-- 2 -->
      <g transform="translate(109.842131 327.835254)scale(0.1 -0.1)">
       <defs>
        <path id="DejaVuSans-32" d="M 1228 531 
L 3431 531 
L 3431 0 
L 469 0 
L 469 531 
Q 828 903 1448 1529 
Q 2069 2156 2228 2338 
Q 2531 2678 2651 2914 
Q 2772 3150 2772 3378 
Q 2772 3750 2511 3984 
Q 2250 4219 1831 4219 
Q 1534 4219 1204 4116 
Q 875 4013 500 3803 
L 500 4441 
Q 881 4594 1212 4672 
Q 1544 4750 1819 4750 
Q 2544 4750 2975 4387 
Q 3406 4025 3406 3419 
Q 3406 3131 3298 2873 
Q 3191 2616 2906 2266 
Q 2828 2175 2409 1742 
Q 1991 1309 1228 531 
z
" transform="scale(0.015625)"/>
       </defs>
       <use xlink:href="#DejaVuSans-32"/>
      </g>
     </g>
    </g>
    <g id="xtick_3">
     <g id="line2d_3">
      <g>
       <use xlink:href="#mfa63f69e7e" x="167.279525" y="313.236817" style="stroke: #000000; stroke-width: 0.8"/>
      </g>
     </g>
     <g id="text_3">
      <!-- 3 -->
      <g transform="translate(164.098275 327.835254)scale(0.1 -0.1)">
       <defs>
        <path id="DejaVuSans-33" d="M 2597 2516 
Q 3050 2419 3304 2112 
Q 3559 1806 3559 1356 
Q 3559 666 3084 287 
Q 2609 -91 1734 -91 
Q 1441 -91 1130 -33 
Q 819 25 488 141 
L 488 750 
Q 750 597 1062 519 
Q 1375 441 1716 441 
Q 2309 441 2620 675 
Q 2931 909 2931 1356 
Q 2931 1769 2642 2001 
Q 2353 2234 1838 2234 
L 1294 2234 
L 1294 2753 
L 1863 2753 
Q 2328 2753 2575 2939 
Q 2822 3125 2822 3475 
Q 2822 3834 2567 4026 
Q 2313 4219 1838 4219 
Q 1578 4219 1281 4162 
Q 984 4106 628 3988 
L 628 4550 
Q 988 4650 1302 4700 
Q 1616 4750 1894 4750 
Q 2613 4750 3031 4423 
Q 3450 4097 3450 3541 
Q 3450 3153 3228 2886 
Q 3006 2619 2597 2516 
z
" transform="scale(0.015625)"/>
       </defs>
       <use xlink:href="#DejaVuSans-33"/>
      </g>
     </g>
    </g>
    <g id="xtick_4">
     <g id="line2d_4">
      <g>
       <use xlink:href="#mfa63f69e7e" x="221.535668" y="313.236817" style="stroke: #000000; stroke-width: 0.8"/>
      </g>
     </g>
     <g id="text_4">
      <!-- 4 -->
      <g transform="translate(218.354418 327.835254)scale(0.1 -0.1)">
       <defs>
        <path id="DejaVuSans-34" d="M 2419 4116 
L 825 1625 
L 2419 1625 
L 2419 4116 
z
M 2253 4666 
L 3047 4666 
L 3047 1625 
L 3713 1625 
L 3713 1100 
L 3047 1100 
L 3047 0 
L 2419 0 
L 2419 1100 
L 313 1100 
L 313 1709 
L 2253 4666 
z
" transform="scale(0.015625)"/>
       </defs>
       <use xlink:href="#DejaVuSans-34"/>
      </g>
     </g>
    </g>
    <g id="xtick_5">
     <g id="line2d_5">
      <g>
       <use xlink:href="#mfa63f69e7e" x="275.791811" y="313.236817" style="stroke: #000000; stroke-width: 0.8"/>
      </g>
     </g>
     <g id="text_5">
      <!-- 5 -->
      <g transform="translate(272.610561 327.835254)scale(0.1 -0.1)">
       <defs>
        <path id="DejaVuSans-35" d="M 691 4666 
L 3169 4666 
L 3169 4134 
L 1269 4134 
L 1269 2991 
Q 1406 3038 1543 3061 
Q 1681 3084 1819 3084 
Q 2600 3084 3056 2656 
Q 3513 2228 3513 1497 
Q 3513 744 3044 326 
Q 2575 -91 1722 -91 
Q 1428 -91 1123 -41 
Q 819 9 494 109 
L 494 744 
Q 775 591 1075 516 
Q 1375 441 1709 441 
Q 2250 441 2565 725 
Q 2881 1009 2881 1497 
Q 2881 1984 2565 2268 
Q 2250 2553 1709 2553 
Q 1456 2553 1204 2497 
Q 953 2441 691 2322 
L 691 4666 
z
" transform="scale(0.015625)"/>
       </defs>
       <use xlink:href="#DejaVuSans-35"/>
      </g>
     </g>
    </g>
    <g id="xtick_6">
     <g id="line2d_6">
      <g>
       <use xlink:href="#mfa63f69e7e" x="330.047954" y="313.236817" style="stroke: #000000; stroke-width: 0.8"/>
      </g>
     </g>
     <g id="text_6">
      <!-- 6 -->
      <g transform="translate(326.866704 327.835254)scale(0.1 -0.1)">
       <defs>
        <path id="DejaVuSans-36" d="M 2113 2584 
Q 1688 2584 1439 2293 
Q 1191 2003 1191 1497 
Q 1191 994 1439 701 
Q 1688 409 2113 409 
Q 2538 409 2786 701 
Q 3034 994 3034 1497 
Q 3034 2003 2786 2293 
Q 2538 2584 2113 2584 
z
M 3366 4563 
L 3366 3988 
Q 3128 4100 2886 4159 
Q 2644 4219 2406 4219 
Q 1781 4219 1451 3797 
Q 1122 3375 1075 2522 
Q 1259 2794 1537 2939 
Q 1816 3084 2150 3084 
Q 2853 3084 3261 2657 
Q 3669 2231 3669 1497 
Q 3669 778 3244 343 
Q 2819 -91 2113 -91 
Q 1303 -91 875 529 
Q 447 1150 447 2328 
Q 447 3434 972 4092 
Q 1497 4750 2381 4750 
Q 2619 4750 2861 4703 
Q 3103 4656 3366 4563 
z
" transform="scale(0.015625)"/>
       </defs>
       <use xlink:href="#DejaVuSans-36"/>
      </g>
     </g>
    </g>
    <g id="xtick_7">
     <g id="line2d_7">
      <g>
       <use xlink:href="#mfa63f69e7e" x="384.304097" y="313.236817" style="stroke: #000000; stroke-width: 0.8"/>
      </g>
     </g>
     <g id="text_7">
      <!-- 7 -->
      <g transform="translate(381.122847 327.835254)scale(0.1 -0.1)">
       <defs>
        <path id="DejaVuSans-37" d="M 525 4666 
L 3525 4666 
L 3525 4397 
L 1831 0 
L 1172 0 
L 2766 4134 
L 525 4134 
L 525 4666 
z
" transform="scale(0.015625)"/>
       </defs>
       <use xlink:href="#DejaVuSans-37"/>
      </g>
     </g>
    </g>
    <g id="xtick_8">
     <g id="line2d_8">
      <g>
       <use xlink:href="#mfa63f69e7e" x="438.56024" y="313.236817" style="stroke: #000000; stroke-width: 0.8"/>
      </g>
     </g>
     <g id="text_8">
      <!-- 8 -->
      <g transform="translate(435.37899 327.835254)scale(0.1 -0.1)">
       <defs>
        <path id="DejaVuSans-38" d="M 2034 2216 
Q 1584 2216 1326 1975 
Q 1069 1734 1069 1313 
Q 1069 891 1326 650 
Q 1584 409 2034 409 
Q 2484 409 2743 651 
Q 3003 894 3003 1313 
Q 3003 1734 2745 1975 
Q 2488 2216 2034 2216 
z
M 1403 2484 
Q 997 2584 770 2862 
Q 544 3141 544 3541 
Q 544 4100 942 4425 
Q 1341 4750 2034 4750 
Q 2731 4750 3128 4425 
Q 3525 4100 3525 3541 
Q 3525 3141 3298 2862 
Q 3072 2584 2669 2484 
Q 3125 2378 3379 2068 
Q 3634 1759 3634 1313 
Q 3634 634 3220 271 
Q 2806 -91 2034 -91 
Q 1263 -91 848 271 
Q 434 634 434 1313 
Q 434 1759 690 2068 
Q 947 2378 1403 2484 
z
M 1172 3481 
Q 1172 3119 1398 2916 
Q 1625 2713 2034 2713 
Q 2441 2713 2670 2916 
Q 2900 3119 2900 3481 
Q 2900 3844 2670 4047 
Q 2441 4250 2034 4250 
Q 1625 4250 1398 4047 
Q 1172 3844 1172 3481 
z
" transform="scale(0.015625)"/>
       </defs>
       <use xlink:href="#DejaVuSans-38"/>
      </g>
     </g>
    </g>
    <g id="xtick_9">
     <g id="line2d_9">
      <defs>
       <path id="me6553d54a4" d="M 0 0 
L 0 2 
" style="stroke: #000000; stroke-width: 0.6"/>
      </defs>
      <g>
       <use xlink:href="#me6553d54a4" x="47.91601" y="313.236817" style="stroke: #000000; stroke-width: 0.6"/>
      </g>
     </g>
    </g>
    <g id="xtick_10">
     <g id="line2d_10">
      <g>
       <use xlink:href="#me6553d54a4" x="69.618467" y="313.236817" style="stroke: #000000; stroke-width: 0.6"/>
      </g>
     </g>
    </g>
    <g id="xtick_11">
     <g id="line2d_11">
      <g>
       <use xlink:href="#me6553d54a4" x="80.469696" y="313.236817" style="stroke: #000000; stroke-width: 0.6"/>
      </g>
     </g>
    </g>
    <g id="xtick_12">
     <g id="line2d_12">
      <g>
       <use xlink:href="#me6553d54a4" x="91.320924" y="313.236817" style="stroke: #000000; stroke-width: 0.6"/>
      </g>
     </g>
    </g>
    <g id="xtick_13">
     <g id="line2d_13">
      <g>
       <use xlink:href="#me6553d54a4" x="102.172153" y="313.236817" style="stroke: #000000; stroke-width: 0.6"/>
      </g>
     </g>
    </g>
    <g id="xtick_14">
     <g id="line2d_14">
      <g>
       <use xlink:href="#me6553d54a4" x="123.87461" y="313.236817" style="stroke: #000000; stroke-width: 0.6"/>
      </g>
     </g>
    </g>
    <g id="xtick_15">
     <g id="line2d_15">
      <g>
       <use xlink:href="#me6553d54a4" x="134.725839" y="313.236817" style="stroke: #000000; stroke-width: 0.6"/>
      </g>
     </g>
    </g>
    <g id="xtick_16">
     <g id="line2d_16">
      <g>
       <use xlink:href="#me6553d54a4" x="145.577067" y="313.236817" style="stroke: #000000; stroke-width: 0.6"/>
      </g>
     </g>
    </g>
    <g id="xtick_17">
     <g id="line2d_17">
      <g>
       <use xlink:href="#me6553d54a4" x="156.428296" y="313.236817" style="stroke: #000000; stroke-width: 0.6"/>
      </g>
     </g>
    </g>
    <g id="xtick_18">
     <g id="line2d_18">
      <g>
       <use xlink:href="#me6553d54a4" x="178.130753" y="313.236817" style="stroke: #000000; stroke-width: 0.6"/>
      </g>
     </g>
    </g>
    <g id="xtick_19">
     <g id="line2d_19">
      <g>
       <use xlink:href="#me6553d54a4" x="188.981982" y="313.236817" style="stroke: #000000; stroke-width: 0.6"/>
      </g>
     </g>
    </g>
    <g id="xtick_20">
     <g id="line2d_20">
      <g>
       <use xlink:href="#me6553d54a4" x="199.83321" y="313.236817" style="stroke: #000000; stroke-width: 0.6"/>
      </g>
     </g>
    </g>
    <g id="xtick_21">
     <g id="line2d_21">
      <g>
       <use xlink:href="#me6553d54a4" x="210.684439" y="313.236817" style="stroke: #000000; stroke-width: 0.6"/>
      </g>
     </g>
    </g>
    <g id="xtick_22">
     <g id="line2d_22">
      <g>
       <use xlink:href="#me6553d54a4" x="232.386896" y="313.236817" style="stroke: #000000; stroke-width: 0.6"/>
      </g>
     </g>
    </g>
    <g id="xtick_23">
     <g id="line2d_23">
      <g>
       <use xlink:href="#me6553d54a4" x="243.238125" y="313.236817" style="stroke: #000000; stroke-width: 0.6"/>
      </g>
     </g>
    </g>
    <g id="xtick_24">
     <g id="line2d_24">
      <g>
       <use xlink:href="#me6553d54a4" x="254.089354" y="313.236817" style="stroke: #000000; stroke-width: 0.6"/>
      </g>
     </g>
    </g>
    <g id="xtick_25">
     <g id="line2d_25">
      <g>
       <use xlink:href="#me6553d54a4" x="264.940582" y="313.236817" style="stroke: #000000; stroke-width: 0.6"/>
      </g>
     </g>
    </g>
    <g id="xtick_26">
     <g id="line2d_26">
      <g>
       <use xlink:href="#me6553d54a4" x="286.64304" y="313.236817" style="stroke: #000000; stroke-width: 0.6"/>
      </g>
     </g>
    </g>
    <g id="xtick_27">
     <g id="line2d_27">
      <g>
       <use xlink:href="#me6553d54a4" x="297.494268" y="313.236817" style="stroke: #000000; stroke-width: 0.6"/>
      </g>
     </g>
    </g>
    <g id="xtick_28">
     <g id="line2d_28">
      <g>
       <use xlink:href="#me6553d54a4" x="308.345497" y="313.236817" style="stroke: #000000; stroke-width: 0.6"/>
      </g>
     </g>
    </g>
    <g id="xtick_29">
     <g id="line2d_29">
      <g>
       <use xlink:href="#me6553d54a4" x="319.196725" y="313.236817" style="stroke: #000000; stroke-width: 0.6"/>
      </g>
     </g>
    </g>
    <g id="xtick_30">
     <g id="line2d_30">
      <g>
       <use xlink:href="#me6553d54a4" x="340.899183" y="313.236817" style="stroke: #000000; stroke-width: 0.6"/>
      </g>
     </g>
    </g>
    <g id="xtick_31">
     <g id="line2d_31">
      <g>
       <use xlink:href="#me6553d54a4" x="351.750411" y="313.236817" style="stroke: #000000; stroke-width: 0.6"/>
      </g>
     </g>
    </g>
    <g id="xtick_32">
     <g id="line2d_32">
      <g>
       <use xlink:href="#me6553d54a4" x="362.60164" y="313.236817" style="stroke: #000000; stroke-width: 0.6"/>
      </g>
     </g>
    </g>
    <g id="xtick_33">
     <g id="line2d_33">
      <g>
       <use xlink:href="#me6553d54a4" x="373.452869" y="313.236817" style="stroke: #000000; stroke-width: 0.6"/>
      </g>
     </g>
    </g>
    <g id="xtick_34">
     <g id="line2d_34">
      <g>
       <use xlink:href="#me6553d54a4" x="395.155326" y="313.236817" style="stroke: #000000; stroke-width: 0.6"/>
      </g>
     </g>
    </g>
    <g id="xtick_35">
     <g id="line2d_35">
      <g>
       <use xlink:href="#me6553d54a4" x="406.006554" y="313.236817" style="stroke: #000000; stroke-width: 0.6"/>
      </g>
     </g>
    </g>
    <g id="xtick_36">
     <g id="line2d_36">
      <g>
       <use xlink:href="#me6553d54a4" x="416.857783" y="313.236817" style="stroke: #000000; stroke-width: 0.6"/>
      </g>
     </g>
    </g>
    <g id="xtick_37">
     <g id="line2d_37">
      <g>
       <use xlink:href="#me6553d54a4" x="427.709012" y="313.236817" style="stroke: #000000; stroke-width: 0.6"/>
      </g>
     </g>
    </g>
   </g>
   <g id="matplotlib.axis_2">
    <g id="ytick_1">
     <g id="line2d_38">
      <defs>
       <path id="md8197c2681" d="M 0 0 
L -3.5 0 
" style="stroke: #000000; stroke-width: 0.8"/>
      </defs>
      <g>
       <use xlink:href="#md8197c2681" x="30.103125" y="313.236817" style="stroke: #000000; stroke-width: 0.8"/>
      </g>
     </g>
     <g id="text_9">
      <!-- 0.0 -->
      <g transform="translate(7.2 317.036035)scale(0.1 -0.1)">
       <defs>
        <path id="DejaVuSans-30" d="M 2034 4250 
Q 1547 4250 1301 3770 
Q 1056 3291 1056 2328 
Q 1056 1369 1301 889 
Q 1547 409 2034 409 
Q 2525 409 2770 889 
Q 3016 1369 3016 2328 
Q 3016 3291 2770 3770 
Q 2525 4250 2034 4250 
z
M 2034 4750 
Q 2819 4750 3233 4129 
Q 3647 3509 3647 2328 
Q 3647 1150 3233 529 
Q 2819 -91 2034 -91 
Q 1250 -91 836 529 
Q 422 1150 422 2328 
Q 422 3509 836 4129 
Q 1250 4750 2034 4750 
z
" transform="scale(0.015625)"/>
        <path id="DejaVuSans-2e" d="M 684 794 
L 1344 794 
L 1344 0 
L 684 0 
L 684 794 
z
" transform="scale(0.015625)"/>
       </defs>
       <use xlink:href="#DejaVuSans-30"/>
       <use xlink:href="#DejaVuSans-2e" x="63.623047"/>
       <use xlink:href="#DejaVuSans-30" x="95.410156"/>
      </g>
     </g>
    </g>
    <g id="ytick_2">
     <g id="line2d_39">
      <g>
       <use xlink:href="#md8197c2681" x="30.103125" y="265.231041" style="stroke: #000000; stroke-width: 0.8"/>
      </g>
     </g>
     <g id="text_10">
      <!-- 0.2 -->
      <g transform="translate(7.2 269.03026)scale(0.1 -0.1)">
       <use xlink:href="#DejaVuSans-30"/>
       <use xlink:href="#DejaVuSans-2e" x="63.623047"/>
       <use xlink:href="#DejaVuSans-32" x="95.410156"/>
      </g>
     </g>
    </g>
    <g id="ytick_3">
     <g id="line2d_40">
      <g>
       <use xlink:href="#md8197c2681" x="30.103125" y="217.225266" style="stroke: #000000; stroke-width: 0.8"/>
      </g>
     </g>
     <g id="text_11">
      <!-- 0.4 -->
      <g transform="translate(7.2 221.024485)scale(0.1 -0.1)">
       <use xlink:href="#DejaVuSans-30"/>
       <use xlink:href="#DejaVuSans-2e" x="63.623047"/>
       <use xlink:href="#DejaVuSans-34" x="95.410156"/>
      </g>
     </g>
    </g>
    <g id="ytick_4">
     <g id="line2d_41">
      <g>
       <use xlink:href="#md8197c2681" x="30.103125" y="169.219491" style="stroke: #000000; stroke-width: 0.8"/>
      </g>
     </g>
     <g id="text_12">
      <!-- 0.6 -->
      <g transform="translate(7.2 173.01871)scale(0.1 -0.1)">
       <use xlink:href="#DejaVuSans-30"/>
       <use xlink:href="#DejaVuSans-2e" x="63.623047"/>
       <use xlink:href="#DejaVuSans-36" x="95.410156"/>
      </g>
     </g>
    </g>
    <g id="ytick_5">
     <g id="line2d_42">
      <g>
       <use xlink:href="#md8197c2681" x="30.103125" y="121.213716" style="stroke: #000000; stroke-width: 0.8"/>
      </g>
     </g>
     <g id="text_13">
      <!-- 0.8 -->
      <g transform="translate(7.2 125.012935)scale(0.1 -0.1)">
       <use xlink:href="#DejaVuSans-30"/>
       <use xlink:href="#DejaVuSans-2e" x="63.623047"/>
       <use xlink:href="#DejaVuSans-38" x="95.410156"/>
      </g>
     </g>
    </g>
    <g id="ytick_6">
     <g id="line2d_43">
      <g>
       <use xlink:href="#md8197c2681" x="30.103125" y="73.207941" style="stroke: #000000; stroke-width: 0.8"/>
      </g>
     </g>
     <g id="text_14">
      <!-- 1.0 -->
      <g transform="translate(7.2 77.00716)scale(0.1 -0.1)">
       <use xlink:href="#DejaVuSans-31"/>
       <use xlink:href="#DejaVuSans-2e" x="63.623047"/>
       <use xlink:href="#DejaVuSans-30" x="95.410156"/>
      </g>
     </g>
    </g>
    <g id="ytick_7">
     <g id="line2d_44">
      <g>
       <use xlink:href="#md8197c2681" x="30.103125" y="25.202166" style="stroke: #000000; stroke-width: 0.8"/>
      </g>
     </g>
     <g id="text_15">
      <!-- 1.2 -->
      <g transform="translate(7.2 29.001384)scale(0.1 -0.1)">
       <use xlink:href="#DejaVuSans-31"/>
       <use xlink:href="#DejaVuSans-2e" x="63.623047"/>
       <use xlink:href="#DejaVuSans-32" x="95.410156"/>
      </g>
     </g>
    </g>
    <g id="ytick_8">
     <g id="line2d_45">
      <defs>
       <path id="m5712193406" d="M 0 0 
L -2 0 
" style="stroke: #000000; stroke-width: 0.6"/>
      </defs>
      <g>
       <use xlink:href="#m5712193406" x="30.103125" y="301.235373" style="stroke: #000000; stroke-width: 0.6"/>
      </g>
     </g>
    </g>
    <g id="ytick_9">
     <g id="line2d_46">
      <g>
       <use xlink:href="#m5712193406" x="30.103125" y="289.233929" style="stroke: #000000; stroke-width: 0.6"/>
      </g>
     </g>
    </g>
    <g id="ytick_10">
     <g id="line2d_47">
      <g>
       <use xlink:href="#m5712193406" x="30.103125" y="277.232485" style="stroke: #000000; stroke-width: 0.6"/>
      </g>
     </g>
    </g>
    <g id="ytick_11">
     <g id="line2d_48">
      <g>
       <use xlink:href="#m5712193406" x="30.103125" y="253.229598" style="stroke: #000000; stroke-width: 0.6"/>
      </g>
     </g>
    </g>
    <g id="ytick_12">
     <g id="line2d_49">
      <g>
       <use xlink:href="#m5712193406" x="30.103125" y="241.228154" style="stroke: #000000; stroke-width: 0.6"/>
      </g>
     </g>
    </g>
    <g id="ytick_13">
     <g id="line2d_50">
      <g>
       <use xlink:href="#m5712193406" x="30.103125" y="229.22671" style="stroke: #000000; stroke-width: 0.6"/>
      </g>
     </g>
    </g>
    <g id="ytick_14">
     <g id="line2d_51">
      <g>
       <use xlink:href="#m5712193406" x="30.103125" y="205.223822" style="stroke: #000000; stroke-width: 0.6"/>
      </g>
     </g>
    </g>
    <g id="ytick_15">
     <g id="line2d_52">
      <g>
       <use xlink:href="#m5712193406" x="30.103125" y="193.222379" style="stroke: #000000; stroke-width: 0.6"/>
      </g>
     </g>
    </g>
    <g id="ytick_16">
     <g id="line2d_53">
      <g>
       <use xlink:href="#m5712193406" x="30.103125" y="181.220935" style="stroke: #000000; stroke-width: 0.6"/>
      </g>
     </g>
    </g>
    <g id="ytick_17">
     <g id="line2d_54">
      <g>
       <use xlink:href="#m5712193406" x="30.103125" y="157.218047" style="stroke: #000000; stroke-width: 0.6"/>
      </g>
     </g>
    </g>
    <g id="ytick_18">
     <g id="line2d_55">
      <g>
       <use xlink:href="#m5712193406" x="30.103125" y="145.216604" style="stroke: #000000; stroke-width: 0.6"/>
      </g>
     </g>
    </g>
    <g id="ytick_19">
     <g id="line2d_56">
      <g>
       <use xlink:href="#m5712193406" x="30.103125" y="133.21516" style="stroke: #000000; stroke-width: 0.6"/>
      </g>
     </g>
    </g>
    <g id="ytick_20">
     <g id="line2d_57">
      <g>
       <use xlink:href="#m5712193406" x="30.103125" y="109.212272" style="stroke: #000000; stroke-width: 0.6"/>
      </g>
     </g>
    </g>
    <g id="ytick_21">
     <g id="line2d_58">
      <g>
       <use xlink:href="#m5712193406" x="30.103125" y="97.210828" style="stroke: #000000; stroke-width: 0.6"/>
      </g>
     </g>
    </g>
    <g id="ytick_22">
     <g id="line2d_59">
      <g>
       <use xlink:href="#m5712193406" x="30.103125" y="85.209385" style="stroke: #000000; stroke-width: 0.6"/>
      </g>
     </g>
    </g>
    <g id="ytick_23">
     <g id="line2d_60">
      <g>
       <use xlink:href="#m5712193406" x="30.103125" y="61.206497" style="stroke: #000000; stroke-width: 0.6"/>
      </g>
     </g>
    </g>
    <g id="ytick_24">
     <g id="line2d_61">
      <g>
       <use xlink:href="#m5712193406" x="30.103125" y="49.205053" style="stroke: #000000; stroke-width: 0.6"/>
      </g>
     </g>
    </g>
    <g id="ytick_25">
     <g id="line2d_62">
      <g>
       <use xlink:href="#m5712193406" x="30.103125" y="37.203609" style="stroke: #000000; stroke-width: 0.6"/>
      </g>
     </g>
    </g>
    <g id="ytick_26">
     <g id="line2d_63">
      <g>
       <use xlink:href="#m5712193406" x="30.103125" y="13.200722" style="stroke: #000000; stroke-width: 0.6"/>
      </g>
     </g>
    </g>
   </g>
   <g id="line2d_64">
    <path d="M 58.767238 313.236817 
L 58.767238 73.207941 
" clip-path="url(#pb14de91fb5)" style="fill: none; stroke: #000000; stroke-linecap: square"/>
   </g>
   <g id="line2d_65">
    <path d="M 58.767238 73.207941 
L 59.843229 77.875553 
L 63.561651 92.696285 
L 65.964627 101.319933 
L 69.179869 111.856148 
L 72.44047 121.522391 
L 75.140227 128.850563 
L 77.806294 135.557498 
L 82.079604 145.34599 
L 85.785424 153.001215 
L 88.858881 158.839864 
L 93.538699 166.955883 
L 97.573718 173.298347 
L 99.816341 176.591232 
L 104.479162 182.964807 
L 108.208309 187.649632 
L 112.949266 193.140351 
L 116.730796 197.187309 
L 121.318724 201.74546 
L 127.056243 206.965444 
L 132.924755 211.822052 
L 138.589502 216.106776 
L 143.241928 219.364094 
L 149.357997 223.32781 
L 155.286126 226.862826 
L 161.976589 230.532722 
L 167.335881 233.254884 
L 173.795406 236.306822 
L 180.486035 239.231728 
L 187.124626 241.922051 
L 195.525763 245.058591 
L 202.907487 247.595295 
L 213.127167 250.81094 
L 221.350613 253.178386 
L 229.843536 255.442027 
L 241.7863 258.35101 
L 251.15928 260.436748 
L 263.867006 263.023806 
L 276.89076 265.424727 
L 290.379297 267.680714 
L 305.404288 269.955542 
L 321.845903 272.198012 
L 338.748513 274.273372 
L 358.204848 276.416712 
L 376.82547 278.258202 
L 398.327765 280.168026 
L 423.266728 282.137435 
L 438.56024 283.233207 
L 438.56024 283.233207 
" clip-path="url(#pb14de91fb5)" style="fill: none; stroke: #0000ff; stroke-linecap: square"/>
   </g>
   <g id="line2d_66">
    <path d="M 47.91601 13.200722 
L 50.473278 29.89429 
L 52.504804 41.887896 
L 54.659159 53.545018 
L 57.383622 66.926646 
L 60.604158 81.068339 
L 62.945584 90.371154 
L 66.778407 104.089503 
L 69.569298 113.061583 
L 72.13813 120.665294 
L 75.093256 128.727858 
L 78.987239 138.374904 
L 82.275625 145.769192 
L 87.210809 155.762983 
L 90.158324 161.182382 
L 92.418981 165.092644 
L 96.763451 172.069244 
L 100.64099 177.763445 
L 104.860164 183.459419 
L 108.716332 188.261897 
L 112.536824 192.681823 
L 117.976053 198.46093 
L 122.330554 202.702944 
L 127.00202 206.918401 
L 131.658956 210.812434 
L 135.856502 214.08572 
L 142.128998 218.604935 
L 148.366361 222.708041 
L 153.518569 225.838241 
L 158.838205 228.850858 
L 165.102382 232.142497 
L 172.736655 235.822653 
L 179.653293 238.879859 
L 186.967746 241.860734 
L 194.096869 244.544737 
L 201.113609 246.996356 
L 210.769483 250.097367 
L 218.949752 252.505971 
L 229.515309 255.357718 
L 240.343397 258.0152 
L 251.177489 260.440646 
L 262.14281 262.687757 
L 275.920543 265.253811 
L 288.827442 267.43206 
L 304.523186 269.828429 
L 320.255489 271.991299 
L 337.578119 274.136455 
L 355.820996 276.166865 
L 376.436407 278.221612 
L 397.767619 280.120923 
L 420.396889 281.922833 
L 438.56024 283.233207 
L 438.56024 283.233207 
" clip-path="url(#pb14de91fb5)" style="fill: none; stroke: #0000ff; stroke-width: 2; stroke-linecap: square"/>
   </g>
   <g id="patch_4">
    <path d="M 30.103125 319.237538 
L 30.103125 7.2 
" style="fill: none; stroke: #000000; stroke-width: 0.8; stroke-linejoin: miter; stroke-linecap: square"/>
   </g>
   <g id="patch_5">
    <path d="M 40.103125 313.236817 
L 446.373125 313.236817 
" style="fill: none; stroke: #000000; stroke-width: 0.8; stroke-linejoin: miter; stroke-linecap: square"/>
   </g>
  </g>
 </g>
 <defs>
  <clipPath id="pb14de91fb5">
   <rect x="40.103125" y="7.2" width="406.27" height="312.037538"/>
  </clipPath>
 </defs>
</svg>
