<?xml version="1.0" encoding="UTF-8" standalone="no"?>
<svg
   width="204.803pt"
   height="47.741pt"
   viewBox="0 0 204.803 47.741"
   version="1.1"
   id="svg39"
   xmlns="http://www.w3.org/2000/svg"
   xmlns:svg="http://www.w3.org/2000/svg">
  <defs
     id="defs17">
    <clipPath
       id="clip-0">
      <path
         clip-rule="nonzero"
         d="M 0 21 L 26 21 L 26 47.742188 L 0 47.742188 Z M 0 21 "
         id="path2" />
    </clipPath>
    <clipPath
       id="clip-1">
      <path
         clip-rule="nonzero"
         d="M 23 7 L 80 7 L 80 47.742188 L 23 47.742188 Z M 23 7 "
         id="path5" />
    </clipPath>
    <clipPath
       id="clip-2">
      <path
         clip-rule="nonzero"
         d="M 18 2 L 86 2 L 86 47.742188 L 18 47.742188 Z M 18 2 "
         id="path8" />
    </clipPath>
    <clipPath
       id="clip-3">
      <path
         clip-rule="nonzero"
         d="M 8 0 L 204.804688 0 L 204.804688 47.742188 L 8 47.742188 Z M 8 0 "
         id="path11" />
    </clipPath>
    <clipPath
       id="clip-4">
      <path
         clip-rule="nonzero"
         d="M 148 19 L 204.804688 19 L 204.804688 47.742188 L 148 47.742188 Z M 148 19 "
         id="path14" />
    </clipPath>
  </defs>
  <g
     clip-path="url(#clip-0)"
     id="g21">
    <path
       fill="none"
       stroke-width="0.3985"
       stroke-linecap="butt"
       stroke-linejoin="miter"
       stroke="#000000"
       stroke-opacity="1"
       stroke-miterlimit="10"
       d="M 10.000219,-9.6875e-4 C 10.000219,5.522469 5.523656,9.999031 2.1875e-4,9.999031 -5.523219,9.999031 -9.999781,5.522469 -9.999781,-9.6875e-4 c 0,-5.52343725 4.476562,-10.00000025 9.99999975,-10.00000025 5.52343725,0 10.00000025,4.476563 10.00000025,10.00000025 z m 0,0"
       transform="matrix(1,0,0,-1,10.199,37.542)"
       id="path19" />
  </g>
  <g
     clip-path="url(#clip-1)"
     id="g25">
    <path
       fill-rule="nonzero"
       fill="#d9d9d9"
       fill-opacity="1"
       d="m 79.710938,27.617188 c 0,-11.007813 -12.492188,-19.925782 -27.898438,-19.925782 -15.40625,0 -27.894531,8.917969 -27.894531,19.925782 0,11.003906 12.488281,19.925781 27.894531,19.925781 15.40625,0 27.898438,-8.921875 27.898438,-19.925781 z m 0,0"
       id="path23" />
  </g>
  <g
     clip-path="url(#clip-2)"
     id="g29">
    <path
       fill="none"
       stroke-width="0.3985"
       stroke-linecap="butt"
       stroke-linejoin="miter"
       stroke="#000000"
       stroke-opacity="1"
       stroke-miterlimit="10"
       d="m 27.896937,-0.0011875 c 0,11.0078125 -12.492187,19.9257815 -27.898437,19.9257815 -15.40625,0 -27.894531,-8.917969 -27.894531,-19.9257815 0,-11.0039065 12.488281,-19.9257815 27.894531,-19.9257815 15.40625,0 27.898437,8.921875 27.898437,19.9257815 z m 0,0"
       transform="matrix(1,0,0,-1,51.814,27.616)"
       id="path27" />
  </g>
  <g
     clip-path="url(#clip-3)"
     id="g33">
    <path
       fill="none"
       stroke-width="5.66934"
       stroke-linecap="butt"
       stroke-linejoin="miter"
       stroke="#000000"
       stroke-opacity="1"
       stroke-miterlimit="10"
       d="M -0.001875,-0.0010625 C -7.826094,13.557531 -25.165938,18.202063 -38.720625,10.373938 -50.634688,3.498938 -55.8925,-10.942469 -51.185469,-23.86825"
       transform="matrix(1,0,0,-1,141.955,21.038)"
       id="path31" />
  </g>
  <g
     clip-path="url(#clip-4)"
     id="g37">
    <path
       fill-rule="nonzero"
       fill="#ff0000"
       fill-opacity="1"
       d="M 148.10937,47.742188 V 19.394531 h 56.69532 v 28.347657 z m 0,0"
       id="path35" />
  </g>
</svg>
