<?xml version="1.0" encoding="utf-8" standalone="no"?>
<!DOCTYPE svg PUBLIC "-//W3C//DTD SVG 1.1//EN"
  "http://www.w3.org/Graphics/SVG/1.1/DTD/svg11.dtd">
<svg xmlns:xlink="http://www.w3.org/1999/xlink" width="345.290782pt" height="337.114942pt" viewBox="0 0 345.290782 337.114942" xmlns="http://www.w3.org/2000/svg" version="1.1">
 <metadata>
  <rdf:RDF xmlns:dc="http://purl.org/dc/elements/1.1/" xmlns:cc="http://creativecommons.org/ns#" xmlns:rdf="http://www.w3.org/1999/02/22-rdf-syntax-ns#">
   <cc:Work>
    <dc:type rdf:resource="http://purl.org/dc/dcmitype/StillImage"/>
    <dc:date>2022-12-19T17:45:33.398264</dc:date>
    <dc:format>image/svg+xml</dc:format>
    <dc:creator>
     <cc:Agent>
      <dc:title>Matplotlib v3.5.2, https://matplotlib.org/</dc:title>
     </cc:Agent>
    </dc:creator>
   </cc:Work>
  </rdf:RDF>
 </metadata>
 <defs>
  <style type="text/css">*{stroke-linejoin: round; stroke-linecap: butt}</style>
 </defs>
 <g id="figure_1">
  <g id="patch_1">
   <path d="M 0 337.114942 
L 345.290782 337.114942 
L 345.290782 0 
L 0 0 
L 0 337.114942 
z
" style="fill: none"/>
  </g>
  <g id="axes_1">
   <g id="patch_2">
    <path d="M 24.102403 319.237538 
L 336.139942 319.237538 
L 336.139942 7.2 
L 24.102403 7.2 
L 24.102403 319.237538 
z
" style="fill: none"/>
   </g>
   <g id="patch_3">
    <path d="M 30.103125 313.236817 
L 30.103125 13.200722 
L 34.389355 13.200722 
L 34.389355 313.236817 
L 30.103125 313.236817 
z
" clip-path="url(#p1902bd63d4)" style="fill: none; stroke: #0000ff; stroke-linejoin: miter"/>
   </g>
   <g id="patch_4">
    <path d="M 34.389355 313.236817 
L 34.389355 17.456481 
L 38.675585 17.456481 
L 38.675585 313.236817 
L 34.389355 313.236817 
z
" clip-path="url(#p1902bd63d4)" style="fill: none; stroke: #0000ff; stroke-linejoin: miter"/>
   </g>
   <g id="patch_5">
    <path d="M 38.675585 313.236817 
L 38.675585 21.651876 
L 42.961815 21.651876 
L 42.961815 313.236817 
L 38.675585 313.236817 
z
" clip-path="url(#p1902bd63d4)" style="fill: none; stroke: #0000ff; stroke-linejoin: miter"/>
   </g>
   <g id="patch_6">
    <path d="M 42.961815 313.236817 
L 42.961815 25.787763 
L 47.248045 25.787763 
L 47.248045 313.236817 
L 42.961815 313.236817 
z
" clip-path="url(#p1902bd63d4)" style="fill: none; stroke: #0000ff; stroke-linejoin: miter"/>
   </g>
   <g id="patch_7">
    <path d="M 47.248045 313.236817 
L 47.248045 29.864986 
L 51.534275 29.864986 
L 51.534275 313.236817 
L 47.248045 313.236817 
z
" clip-path="url(#p1902bd63d4)" style="fill: none; stroke: #0000ff; stroke-linejoin: miter"/>
   </g>
   <g id="patch_8">
    <path d="M 51.534275 313.236817 
L 51.534275 33.884376 
L 55.820505 33.884376 
L 55.820505 313.236817 
L 51.534275 313.236817 
z
" clip-path="url(#p1902bd63d4)" style="fill: none; stroke: #0000ff; stroke-linejoin: miter"/>
   </g>
   <g id="patch_9">
    <path d="M 55.820505 313.236817 
L 55.820505 37.846755 
L 60.106734 37.846755 
L 60.106734 313.236817 
L 55.820505 313.236817 
z
" clip-path="url(#p1902bd63d4)" style="fill: none; stroke: #0000ff; stroke-linejoin: miter"/>
   </g>
   <g id="patch_10">
    <path d="M 60.106734 313.236817 
L 60.106734 41.752931 
L 64.392964 41.752931 
L 64.392964 313.236817 
L 60.106734 313.236817 
z
" clip-path="url(#p1902bd63d4)" style="fill: none; stroke: #0000ff; stroke-linejoin: miter"/>
   </g>
   <g id="patch_11">
    <path d="M 64.392964 313.236817 
L 64.392964 45.603702 
L 68.679194 45.603702 
L 68.679194 313.236817 
L 64.392964 313.236817 
z
" clip-path="url(#p1902bd63d4)" style="fill: none; stroke: #0000ff; stroke-linejoin: miter"/>
   </g>
   <g id="patch_12">
    <path d="M 68.679194 313.236817 
L 68.679194 49.399852 
L 72.965424 49.399852 
L 72.965424 313.236817 
L 68.679194 313.236817 
z
" clip-path="url(#p1902bd63d4)" style="fill: none; stroke: #0000ff; stroke-linejoin: miter"/>
   </g>
   <g id="patch_13">
    <path d="M 72.965424 313.236817 
L 72.965424 53.142157 
L 77.251654 53.142157 
L 77.251654 313.236817 
L 72.965424 313.236817 
z
" clip-path="url(#p1902bd63d4)" style="fill: none; stroke: #0000ff; stroke-linejoin: miter"/>
   </g>
   <g id="patch_14">
    <path d="M 77.251654 313.236817 
L 77.251654 56.831381 
L 81.537884 56.831381 
L 81.537884 313.236817 
L 77.251654 313.236817 
z
" clip-path="url(#p1902bd63d4)" style="fill: none; stroke: #0000ff; stroke-linejoin: miter"/>
   </g>
   <g id="patch_15">
    <path d="M 81.537884 313.236817 
L 81.537884 60.468276 
L 85.824114 60.468276 
L 85.824114 313.236817 
L 81.537884 313.236817 
z
" clip-path="url(#p1902bd63d4)" style="fill: none; stroke: #0000ff; stroke-linejoin: miter"/>
   </g>
   <g id="patch_16">
    <path d="M 85.824114 313.236817 
L 85.824114 64.053585 
L 90.110344 64.053585 
L 90.110344 313.236817 
L 85.824114 313.236817 
z
" clip-path="url(#p1902bd63d4)" style="fill: none; stroke: #0000ff; stroke-linejoin: miter"/>
   </g>
   <g id="patch_17">
    <path d="M 90.110344 313.236817 
L 90.110344 67.588039 
L 94.396574 67.588039 
L 94.396574 313.236817 
L 90.110344 313.236817 
z
" clip-path="url(#p1902bd63d4)" style="fill: none; stroke: #0000ff; stroke-linejoin: miter"/>
   </g>
   <g id="patch_18">
    <path d="M 94.396574 313.236817 
L 94.396574 71.07236 
L 98.682804 71.07236 
L 98.682804 313.236817 
L 94.396574 313.236817 
z
" clip-path="url(#p1902bd63d4)" style="fill: none; stroke: #0000ff; stroke-linejoin: miter"/>
   </g>
   <g id="patch_19">
    <path d="M 98.682804 313.236817 
L 98.682804 74.507259 
L 102.969034 74.507259 
L 102.969034 313.236817 
L 98.682804 313.236817 
z
" clip-path="url(#p1902bd63d4)" style="fill: none; stroke: #0000ff; stroke-linejoin: miter"/>
   </g>
   <g id="patch_20">
    <path d="M 102.969034 313.236817 
L 102.969034 77.893436 
L 107.255264 77.893436 
L 107.255264 313.236817 
L 102.969034 313.236817 
z
" clip-path="url(#p1902bd63d4)" style="fill: none; stroke: #0000ff; stroke-linejoin: miter"/>
   </g>
   <g id="patch_21">
    <path d="M 107.255264 313.236817 
L 107.255264 81.231584 
L 111.541494 81.231584 
L 111.541494 313.236817 
L 107.255264 313.236817 
z
" clip-path="url(#p1902bd63d4)" style="fill: none; stroke: #0000ff; stroke-linejoin: miter"/>
   </g>
   <g id="patch_22">
    <path d="M 111.541494 313.236817 
L 111.541494 84.522383 
L 115.827723 84.522383 
L 115.827723 313.236817 
L 111.541494 313.236817 
z
" clip-path="url(#p1902bd63d4)" style="fill: none; stroke: #0000ff; stroke-linejoin: miter"/>
   </g>
   <g id="patch_23">
    <path d="M 115.827723 313.236817 
L 115.827723 87.766504 
L 120.113953 87.766504 
L 120.113953 313.236817 
L 115.827723 313.236817 
z
" clip-path="url(#p1902bd63d4)" style="fill: none; stroke: #0000ff; stroke-linejoin: miter"/>
   </g>
   <g id="patch_24">
    <path d="M 120.113953 313.236817 
L 120.113953 90.964611 
L 124.400183 90.964611 
L 124.400183 313.236817 
L 120.113953 313.236817 
z
" clip-path="url(#p1902bd63d4)" style="fill: none; stroke: #0000ff; stroke-linejoin: miter"/>
   </g>
   <g id="patch_25">
    <path d="M 124.400183 313.236817 
L 124.400183 94.117355 
L 128.686413 94.117355 
L 128.686413 313.236817 
L 124.400183 313.236817 
z
" clip-path="url(#p1902bd63d4)" style="fill: none; stroke: #0000ff; stroke-linejoin: miter"/>
   </g>
   <g id="patch_26">
    <path d="M 128.686413 313.236817 
L 128.686413 97.22538 
L 132.972643 97.22538 
L 132.972643 313.236817 
L 128.686413 313.236817 
z
" clip-path="url(#p1902bd63d4)" style="fill: none; stroke: #0000ff; stroke-linejoin: miter"/>
   </g>
   <g id="patch_27">
    <path d="M 132.972643 313.236817 
L 132.972643 100.28932 
L 137.258873 100.28932 
L 137.258873 313.236817 
L 132.972643 313.236817 
z
" clip-path="url(#p1902bd63d4)" style="fill: none; stroke: #0000ff; stroke-linejoin: miter"/>
   </g>
   <g id="patch_28">
    <path d="M 137.258873 313.236817 
L 137.258873 103.309801 
L 141.545103 103.309801 
L 141.545103 313.236817 
L 137.258873 313.236817 
z
" clip-path="url(#p1902bd63d4)" style="fill: none; stroke: #0000ff; stroke-linejoin: miter"/>
   </g>
   <g id="patch_29">
    <path d="M 141.545103 313.236817 
L 141.545103 106.287439 
L 145.831333 106.287439 
L 145.831333 313.236817 
L 141.545103 313.236817 
z
" clip-path="url(#p1902bd63d4)" style="fill: none; stroke: #0000ff; stroke-linejoin: miter"/>
   </g>
   <g id="patch_30">
    <path d="M 145.831333 313.236817 
L 145.831333 109.222841 
L 150.117563 109.222841 
L 150.117563 313.236817 
L 145.831333 313.236817 
z
" clip-path="url(#p1902bd63d4)" style="fill: none; stroke: #0000ff; stroke-linejoin: miter"/>
   </g>
   <g id="patch_31">
    <path d="M 150.117563 313.236817 
L 150.117563 112.116608 
L 154.403793 112.116608 
L 154.403793 313.236817 
L 150.117563 313.236817 
z
" clip-path="url(#p1902bd63d4)" style="fill: none; stroke: #0000ff; stroke-linejoin: miter"/>
   </g>
   <g id="patch_32">
    <path d="M 154.403793 313.236817 
L 154.403793 114.969329 
L 158.690023 114.969329 
L 158.690023 313.236817 
L 154.403793 313.236817 
z
" clip-path="url(#p1902bd63d4)" style="fill: none; stroke: #0000ff; stroke-linejoin: miter"/>
   </g>
   <g id="patch_33">
    <path d="M 158.690023 313.236817 
L 158.690023 117.781586 
L 162.976253 117.781586 
L 162.976253 313.236817 
L 158.690023 313.236817 
z
" clip-path="url(#p1902bd63d4)" style="fill: none; stroke: #0000ff; stroke-linejoin: miter"/>
   </g>
   <g id="patch_34">
    <path d="M 162.976253 313.236817 
L 162.976253 120.553954 
L 167.262483 120.553954 
L 167.262483 313.236817 
L 162.976253 313.236817 
z
" clip-path="url(#p1902bd63d4)" style="fill: none; stroke: #0000ff; stroke-linejoin: miter"/>
   </g>
   <g id="patch_35">
    <path d="M 167.262483 313.236817 
L 167.262483 123.286998 
L 171.548712 123.286998 
L 171.548712 313.236817 
L 167.262483 313.236817 
z
" clip-path="url(#p1902bd63d4)" style="fill: none; stroke: #0000ff; stroke-linejoin: miter"/>
   </g>
   <g id="patch_36">
    <path d="M 171.548712 313.236817 
L 171.548712 125.981276 
L 175.834942 125.981276 
L 175.834942 313.236817 
L 171.548712 313.236817 
z
" clip-path="url(#p1902bd63d4)" style="fill: none; stroke: #0000ff; stroke-linejoin: miter"/>
   </g>
   <g id="patch_37">
    <path d="M 175.834942 313.236817 
L 175.834942 128.637338 
L 180.121172 128.637338 
L 180.121172 313.236817 
L 175.834942 313.236817 
z
" clip-path="url(#p1902bd63d4)" style="fill: none; stroke: #0000ff; stroke-linejoin: miter"/>
   </g>
   <g id="patch_38">
    <path d="M 180.121172 313.236817 
L 180.121172 131.255726 
L 184.407402 131.255726 
L 184.407402 313.236817 
L 180.121172 313.236817 
z
" clip-path="url(#p1902bd63d4)" style="fill: none; stroke: #0000ff; stroke-linejoin: miter"/>
   </g>
   <g id="patch_39">
    <path d="M 184.407402 313.236817 
L 184.407402 133.836975 
L 188.693632 133.836975 
L 188.693632 313.236817 
L 184.407402 313.236817 
z
" clip-path="url(#p1902bd63d4)" style="fill: none; stroke: #0000ff; stroke-linejoin: miter"/>
   </g>
   <g id="patch_40">
    <path d="M 188.693632 313.236817 
L 188.693632 136.38161 
L 192.979862 136.38161 
L 192.979862 313.236817 
L 188.693632 313.236817 
z
" clip-path="url(#p1902bd63d4)" style="fill: none; stroke: #0000ff; stroke-linejoin: miter"/>
   </g>
   <g id="patch_41">
    <path d="M 192.979862 313.236817 
L 192.979862 138.890152 
L 197.266092 138.890152 
L 197.266092 313.236817 
L 192.979862 313.236817 
z
" clip-path="url(#p1902bd63d4)" style="fill: none; stroke: #0000ff; stroke-linejoin: miter"/>
   </g>
   <g id="patch_42">
    <path d="M 197.266092 313.236817 
L 197.266092 141.363113 
L 201.552322 141.363113 
L 201.552322 313.236817 
L 197.266092 313.236817 
z
" clip-path="url(#p1902bd63d4)" style="fill: none; stroke: #0000ff; stroke-linejoin: miter"/>
   </g>
   <g id="patch_43">
    <path d="M 201.552322 313.236817 
L 201.552322 143.800997 
L 205.838552 143.800997 
L 205.838552 313.236817 
L 201.552322 313.236817 
z
" clip-path="url(#p1902bd63d4)" style="fill: none; stroke: #0000ff; stroke-linejoin: miter"/>
   </g>
   <g id="patch_44">
    <path d="M 205.838552 313.236817 
L 205.838552 146.204301 
L 210.124782 146.204301 
L 210.124782 313.236817 
L 205.838552 313.236817 
z
" clip-path="url(#p1902bd63d4)" style="fill: none; stroke: #0000ff; stroke-linejoin: miter"/>
   </g>
   <g id="patch_45">
    <path d="M 210.124782 313.236817 
L 210.124782 148.573517 
L 214.411012 148.573517 
L 214.411012 313.236817 
L 210.124782 313.236817 
z
" clip-path="url(#p1902bd63d4)" style="fill: none; stroke: #0000ff; stroke-linejoin: miter"/>
   </g>
   <g id="patch_46">
    <path d="M 214.411012 313.236817 
L 214.411012 150.909127 
L 218.697242 150.909127 
L 218.697242 313.236817 
L 214.411012 313.236817 
z
" clip-path="url(#p1902bd63d4)" style="fill: none; stroke: #0000ff; stroke-linejoin: miter"/>
   </g>
   <g id="patch_47">
    <path d="M 218.697242 313.236817 
L 218.697242 153.211608 
L 222.983472 153.211608 
L 222.983472 313.236817 
L 218.697242 313.236817 
z
" clip-path="url(#p1902bd63d4)" style="fill: none; stroke: #0000ff; stroke-linejoin: miter"/>
   </g>
   <g id="patch_48">
    <path d="M 222.983472 313.236817 
L 222.983472 155.481431 
L 227.269702 155.481431 
L 227.269702 313.236817 
L 222.983472 313.236817 
z
" clip-path="url(#p1902bd63d4)" style="fill: none; stroke: #0000ff; stroke-linejoin: miter"/>
   </g>
   <g id="patch_49">
    <path d="M 227.269702 313.236817 
L 227.269702 157.719058 
L 231.555931 157.719058 
L 231.555931 313.236817 
L 227.269702 313.236817 
z
" clip-path="url(#p1902bd63d4)" style="fill: none; stroke: #0000ff; stroke-linejoin: miter"/>
   </g>
   <g id="patch_50">
    <path d="M 231.555931 313.236817 
L 231.555931 159.924947 
L 235.842161 159.924947 
L 235.842161 313.236817 
L 231.555931 313.236817 
z
" clip-path="url(#p1902bd63d4)" style="fill: none; stroke: #0000ff; stroke-linejoin: miter"/>
   </g>
   <g id="patch_51">
    <path d="M 235.842161 313.236817 
L 235.842161 162.099546 
L 240.128391 162.099546 
L 240.128391 313.236817 
L 235.842161 313.236817 
z
" clip-path="url(#p1902bd63d4)" style="fill: none; stroke: #0000ff; stroke-linejoin: miter"/>
   </g>
   <g id="patch_52">
    <path d="M 240.128391 313.236817 
L 240.128391 164.243301 
L 244.414621 164.243301 
L 244.414621 313.236817 
L 240.128391 313.236817 
z
" clip-path="url(#p1902bd63d4)" style="fill: none; stroke: #0000ff; stroke-linejoin: miter"/>
   </g>
   <g id="patch_53">
    <path d="M 244.414621 313.236817 
L 244.414621 166.356649 
L 248.700851 166.356649 
L 248.700851 313.236817 
L 244.414621 313.236817 
z
" clip-path="url(#p1902bd63d4)" style="fill: none; stroke: #0000ff; stroke-linejoin: miter"/>
   </g>
   <g id="patch_54">
    <path d="M 248.700851 313.236817 
L 248.700851 168.44002 
L 252.987081 168.44002 
L 252.987081 313.236817 
L 248.700851 313.236817 
z
" clip-path="url(#p1902bd63d4)" style="fill: none; stroke: #0000ff; stroke-linejoin: miter"/>
   </g>
   <g id="patch_55">
    <path d="M 252.987081 313.236817 
L 252.987081 170.493841 
L 257.273311 170.493841 
L 257.273311 313.236817 
L 252.987081 313.236817 
z
" clip-path="url(#p1902bd63d4)" style="fill: none; stroke: #0000ff; stroke-linejoin: miter"/>
   </g>
   <g id="patch_56">
    <path d="M 257.273311 313.236817 
L 257.273311 172.51853 
L 261.559541 172.51853 
L 261.559541 313.236817 
L 257.273311 313.236817 
z
" clip-path="url(#p1902bd63d4)" style="fill: none; stroke: #0000ff; stroke-linejoin: miter"/>
   </g>
   <g id="patch_57">
    <path d="M 261.559541 313.236817 
L 261.559541 174.5145 
L 265.845771 174.5145 
L 265.845771 313.236817 
L 261.559541 313.236817 
z
" clip-path="url(#p1902bd63d4)" style="fill: none; stroke: #0000ff; stroke-linejoin: miter"/>
   </g>
   <g id="patch_58">
    <path d="M 265.845771 313.236817 
L 265.845771 176.482159 
L 270.132001 176.482159 
L 270.132001 313.236817 
L 265.845771 313.236817 
z
" clip-path="url(#p1902bd63d4)" style="fill: none; stroke: #0000ff; stroke-linejoin: miter"/>
   </g>
   <g id="patch_59">
    <path d="M 270.132001 313.236817 
L 270.132001 178.421909 
L 274.418231 178.421909 
L 274.418231 313.236817 
L 270.132001 313.236817 
z
" clip-path="url(#p1902bd63d4)" style="fill: none; stroke: #0000ff; stroke-linejoin: miter"/>
   </g>
   <g id="patch_60">
    <path d="M 274.418231 313.236817 
L 274.418231 180.334145 
L 278.704461 180.334145 
L 278.704461 313.236817 
L 274.418231 313.236817 
z
" clip-path="url(#p1902bd63d4)" style="fill: none; stroke: #0000ff; stroke-linejoin: miter"/>
   </g>
   <g id="patch_61">
    <path d="M 278.704461 313.236817 
L 278.704461 182.219257 
L 282.990691 182.219257 
L 282.990691 313.236817 
L 278.704461 313.236817 
z
" clip-path="url(#p1902bd63d4)" style="fill: none; stroke: #0000ff; stroke-linejoin: miter"/>
   </g>
   <g id="patch_62">
    <path d="M 282.990691 313.236817 
L 282.990691 184.077631 
L 287.27692 184.077631 
L 287.27692 313.236817 
L 282.990691 313.236817 
z
" clip-path="url(#p1902bd63d4)" style="fill: none; stroke: #0000ff; stroke-linejoin: miter"/>
   </g>
   <g id="patch_63">
    <path d="M 287.27692 313.236817 
L 287.27692 185.909645 
L 291.56315 185.909645 
L 291.56315 313.236817 
L 287.27692 313.236817 
z
" clip-path="url(#p1902bd63d4)" style="fill: none; stroke: #0000ff; stroke-linejoin: miter"/>
   </g>
   <g id="patch_64">
    <path d="M 291.56315 313.236817 
L 291.56315 187.715674 
L 295.84938 187.715674 
L 295.84938 313.236817 
L 291.56315 313.236817 
z
" clip-path="url(#p1902bd63d4)" style="fill: none; stroke: #0000ff; stroke-linejoin: miter"/>
   </g>
   <g id="patch_65">
    <path d="M 295.84938 313.236817 
L 295.84938 189.496086 
L 300.13561 189.496086 
L 300.13561 313.236817 
L 295.84938 313.236817 
z
" clip-path="url(#p1902bd63d4)" style="fill: none; stroke: #0000ff; stroke-linejoin: miter"/>
   </g>
   <g id="patch_66">
    <path d="M 300.13561 313.236817 
L 300.13561 191.251244 
L 304.42184 191.251244 
L 304.42184 313.236817 
L 300.13561 313.236817 
z
" clip-path="url(#p1902bd63d4)" style="fill: none; stroke: #0000ff; stroke-linejoin: miter"/>
   </g>
   <g id="patch_67">
    <path d="M 304.42184 313.236817 
L 304.42184 192.981506 
L 308.70807 192.981506 
L 308.70807 313.236817 
L 304.42184 313.236817 
z
" clip-path="url(#p1902bd63d4)" style="fill: none; stroke: #0000ff; stroke-linejoin: miter"/>
   </g>
   <g id="patch_68">
    <path d="M 308.70807 313.236817 
L 308.70807 194.687227 
L 312.9943 194.687227 
L 312.9943 313.236817 
L 308.70807 313.236817 
z
" clip-path="url(#p1902bd63d4)" style="fill: none; stroke: #0000ff; stroke-linejoin: miter"/>
   </g>
   <g id="patch_69">
    <path d="M 312.9943 313.236817 
L 312.9943 196.368753 
L 317.28053 196.368753 
L 317.28053 313.236817 
L 312.9943 313.236817 
z
" clip-path="url(#p1902bd63d4)" style="fill: none; stroke: #0000ff; stroke-linejoin: miter"/>
   </g>
   <g id="patch_70">
    <path d="M 317.28053 313.236817 
L 317.28053 198.026428 
L 321.56676 198.026428 
L 321.56676 313.236817 
L 317.28053 313.236817 
z
" clip-path="url(#p1902bd63d4)" style="fill: none; stroke: #0000ff; stroke-linejoin: miter"/>
   </g>
   <g id="patch_71">
    <path d="M 321.56676 313.236817 
L 321.56676 199.66059 
L 325.85299 199.66059 
L 325.85299 313.236817 
L 321.56676 313.236817 
z
" clip-path="url(#p1902bd63d4)" style="fill: none; stroke: #0000ff; stroke-linejoin: miter"/>
   </g>
   <g id="patch_72">
    <path d="M 325.85299 313.236817 
L 325.85299 201.271573 
L 330.13922 201.271573 
L 330.13922 313.236817 
L 325.85299 313.236817 
z
" clip-path="url(#p1902bd63d4)" style="fill: none; stroke: #0000ff; stroke-linejoin: miter"/>
   </g>
   <g id="patch_73">
    <path d="M 30.103125 313.236817 
L 30.103125 13.200722 
L 31.013385 14.109603 
L 33.243606 16.324824 
L 34.319672 17.387779 
L 36.418676 19.450268 
L 37.846952 20.84547 
L 39.163571 22.125732 
L 41.174287 24.070114 
L 41.67676 24.553978 
L 42.91908 25.746818 
L 45.343674 28.060665 
L 47.337018 29.949004 
L 48.114561 30.682194 
L 49.077339 31.587423 
L 50.97543 33.363572 
L 52.340342 34.633868 
L 53.869972 36.050614 
L 55.240823 37.314177 
L 56.910302 38.845218 
L 59.316888 41.037307 
L 60.403204 42.021056 
L 61.994124 43.455352 
L 63.024451 44.380195 
L 65.116375 46.248209 
L 65.913558 46.956645 
L 67.286874 48.172669 
L 69.82654 50.406845 
L 70.376866 50.888485 
L 71.632209 51.983851 
L 73.456692 53.567677 
L 76.055974 55.807535 
L 77.084309 56.68833 
L 78.510615 57.905012 
L 79.99893 59.168437 
L 82.05919 60.907074 
L 82.398305 61.192108 
L 84.032642 62.561297 
L 86.335457 64.477899 
L 88.129534 65.960924 
L 88.439814 66.21651 
L 90.044699 67.534287 
L 91.710518 68.894663 
L 93.047202 69.980805 
L 94.940917 71.51131 
L 96.40973 72.691775 
L 98.274078 74.181827 
L 99.292188 74.991635 
L 100.685001 76.095042 
L 102.32013 77.383896 
L 103.976119 78.682053 
L 105.921585 80.198011 
L 106.951389 80.996492 
L 108.246686 81.996944 
L 109.316249 82.819796 
L 111.555337 84.532935 
L 113.470649 85.988241 
L 114.820329 87.008198 
L 115.957194 87.863777 
L 117.956797 89.360791 
L 119.401011 90.435822 
L 120.243864 91.06083 
L 122.055713 92.398457 
L 123.413799 93.395803 
L 124.479734 94.175443 
L 126.786767 95.853388 
L 128.0962 96.800037 
L 129.679817 97.9394 
L 131.510378 99.248959 
L 133.181562 100.437546 
L 134.597355 101.439326 
L 136.088323 102.4892 
L 136.688144 102.910098 
L 139.130639 104.615347 
L 140.36496 105.471834 
L 141.46932 106.235161 
L 143.514051 107.641071 
L 144.336911 108.204153 
L 146.143394 109.434922 
L 147.549708 110.387936 
L 149.507101 111.706986 
L 151.41326 112.983267 
L 152.448718 113.673173 
L 153.263167 114.214155 
L 154.543084 115.061352 
L 156.207144 116.157431 
L 157.866019 117.24406 
L 160.468542 118.936755 
L 161.380407 119.526373 
L 163.129974 120.652648 
L 164.526624 121.547033 
L 166.183579 122.602725 
L 166.627299 122.884444 
L 168.104703 123.819451 
L 169.957374 124.985467 
L 171.42765 125.905704 
L 173.131703 126.966634 
L 175.451465 128.40125 
L 176.397928 128.983394 
L 177.97268 129.947923 
L 179.373216 130.801502 
L 180.919413 131.73924 
L 182.501448 132.693725 
L 183.294078 133.170051 
L 185.353834 134.401981 
L 187.023446 135.39438 
L 188.198793 136.089689 
L 190.590041 137.495916 
L 191.089099 137.787988 
L 192.266548 138.475163 
L 194.023924 139.495787 
L 196.578069 140.968531 
L 197.395919 141.437467 
L 199.104173 142.412827 
L 200.796929 143.373875 
L 201.527258 143.786842 
L 203.554715 144.928019 
L 204.460014 145.435092 
L 205.772655 146.167612 
L 207.380303 147.060405 
L 209.843314 148.418971 
L 211.020441 149.064332 
L 211.998701 149.59874 
L 214.443655 150.926787 
L 214.888562 151.167289 
L 217.35633 152.494828 
L 218.599631 153.159539 
L 219.589895 153.687 
L 221.417989 154.656168 
L 222.390127 155.169149 
L 224.141415 156.08909 
L 225.541236 156.820557 
L 227.055722 157.608107 
L 229.105776 158.667845 
L 231.146658 159.715674 
L 232.456741 160.38455 
L 233.162143 160.743493 
L 235.638723 161.997034 
L 236.177587 162.268416 
L 238.67922 163.521924 
L 239.352061 163.857288 
L 241.304328 164.826111 
L 243.008825 165.666839 
L 244.791407 166.540985 
L 245.855982 167.060563 
L 247.56823 167.892387 
L 248.897222 168.534757 
L 250.392359 169.254042 
L 251.100634 169.593531 
L 253.424929 170.701996 
L 254.72839 171.319874 
L 256.818682 172.305145 
L 258.389357 173.040988 
L 258.686455 173.179742 
L 261.121279 174.311721 
L 262.052611 174.742285 
L 263.458916 175.389906 
L 264.850503 176.027769 
L 267.091248 177.048664 
L 268.098813 177.505236 
L 269.749134 178.249766 
L 270.95364 178.79059 
L 272.96207 179.687563 
L 274.806984 180.506234 
L 276.117367 181.08466 
L 276.762629 181.368563 
L 278.450768 182.10843 
L 281.086164 183.255165 
L 282.563448 183.893581 
L 283.743813 184.401428 
L 285.125762 184.993472 
L 285.980872 185.358448 
L 287.38394 185.955053 
L 289.239948 186.739982 
L 290.319648 187.194371 
L 291.765348 187.800235 
L 294.471472 188.926502 
L 295.742876 189.452153 
L 296.788693 189.882871 
L 298.657551 190.648827 
L 300.471188 191.387603 
L 301.736111 191.900226 
L 302.85566 192.352136 
L 304.522542 193.021861 
L 306.644275 193.868974 
L 307.235272 194.103867 
L 308.65978 194.668145 
L 310.470452 195.381534 
L 311.542339 195.801824 
L 312.823745 196.3023 
L 314.423579 196.924152 
L 316.276451 197.640227 
L 318.003741 198.303798 
L 319.275618 198.789977 
L 321.46936 199.623714 
L 321.849841 199.767698 
L 323.358789 200.336926 
L 326.356197 201.459199 
L 326.458274 201.497221 
L 328.218304 202.150774 
L 330.13922 202.859706 
L 330.13922 313.236817 
z
" clip-path="url(#p1902bd63d4)" style="fill: #808080; opacity: 0.5"/>
   </g>
   <g id="matplotlib.axis_1">
    <g id="xtick_1">
     <g id="line2d_1">
      <defs>
       <path id="m96f46e845b" d="M 0 0 
L 0 3.5 
" style="stroke: #000000; stroke-width: 0.8"/>
      </defs>
      <g>
       <use xlink:href="#m96f46e845b" x="30.103125" y="313.236817" style="stroke: #000000; stroke-width: 0.8"/>
      </g>
     </g>
    </g>
    <g id="xtick_2">
     <g id="line2d_2">
      <g>
       <use xlink:href="#m96f46e845b" x="90.110344" y="313.236817" style="stroke: #000000; stroke-width: 0.8"/>
      </g>
     </g>
     <g id="text_1">
      <!-- 0.2 -->
      <g transform="translate(82.158781 327.835254)scale(0.1 -0.1)">
       <defs>
        <path id="DejaVuSans-30" d="M 2034 4250 
Q 1547 4250 1301 3770 
Q 1056 3291 1056 2328 
Q 1056 1369 1301 889 
Q 1547 409 2034 409 
Q 2525 409 2770 889 
Q 3016 1369 3016 2328 
Q 3016 3291 2770 3770 
Q 2525 4250 2034 4250 
z
M 2034 4750 
Q 2819 4750 3233 4129 
Q 3647 3509 3647 2328 
Q 3647 1150 3233 529 
Q 2819 -91 2034 -91 
Q 1250 -91 836 529 
Q 422 1150 422 2328 
Q 422 3509 836 4129 
Q 1250 4750 2034 4750 
z
" transform="scale(0.015625)"/>
        <path id="DejaVuSans-2e" d="M 684 794 
L 1344 794 
L 1344 0 
L 684 0 
L 684 794 
z
" transform="scale(0.015625)"/>
        <path id="DejaVuSans-32" d="M 1228 531 
L 3431 531 
L 3431 0 
L 469 0 
L 469 531 
Q 828 903 1448 1529 
Q 2069 2156 2228 2338 
Q 2531 2678 2651 2914 
Q 2772 3150 2772 3378 
Q 2772 3750 2511 3984 
Q 2250 4219 1831 4219 
Q 1534 4219 1204 4116 
Q 875 4013 500 3803 
L 500 4441 
Q 881 4594 1212 4672 
Q 1544 4750 1819 4750 
Q 2544 4750 2975 4387 
Q 3406 4025 3406 3419 
Q 3406 3131 3298 2873 
Q 3191 2616 2906 2266 
Q 2828 2175 2409 1742 
Q 1991 1309 1228 531 
z
" transform="scale(0.015625)"/>
       </defs>
       <use xlink:href="#DejaVuSans-30"/>
       <use xlink:href="#DejaVuSans-2e" x="63.623047"/>
       <use xlink:href="#DejaVuSans-32" x="95.410156"/>
      </g>
     </g>
    </g>
    <g id="xtick_3">
     <g id="line2d_3">
      <g>
       <use xlink:href="#m96f46e845b" x="150.117563" y="313.236817" style="stroke: #000000; stroke-width: 0.8"/>
      </g>
     </g>
     <g id="text_2">
      <!-- 0.4 -->
      <g transform="translate(142.166 327.835254)scale(0.1 -0.1)">
       <defs>
        <path id="DejaVuSans-34" d="M 2419 4116 
L 825 1625 
L 2419 1625 
L 2419 4116 
z
M 2253 4666 
L 3047 4666 
L 3047 1625 
L 3713 1625 
L 3713 1100 
L 3047 1100 
L 3047 0 
L 2419 0 
L 2419 1100 
L 313 1100 
L 313 1709 
L 2253 4666 
z
" transform="scale(0.015625)"/>
       </defs>
       <use xlink:href="#DejaVuSans-30"/>
       <use xlink:href="#DejaVuSans-2e" x="63.623047"/>
       <use xlink:href="#DejaVuSans-34" x="95.410156"/>
      </g>
     </g>
    </g>
    <g id="xtick_4">
     <g id="line2d_4">
      <g>
       <use xlink:href="#m96f46e845b" x="210.124782" y="313.236817" style="stroke: #000000; stroke-width: 0.8"/>
      </g>
     </g>
     <g id="text_3">
      <!-- 0.6 -->
      <g transform="translate(202.173219 327.835254)scale(0.1 -0.1)">
       <defs>
        <path id="DejaVuSans-36" d="M 2113 2584 
Q 1688 2584 1439 2293 
Q 1191 2003 1191 1497 
Q 1191 994 1439 701 
Q 1688 409 2113 409 
Q 2538 409 2786 701 
Q 3034 994 3034 1497 
Q 3034 2003 2786 2293 
Q 2538 2584 2113 2584 
z
M 3366 4563 
L 3366 3988 
Q 3128 4100 2886 4159 
Q 2644 4219 2406 4219 
Q 1781 4219 1451 3797 
Q 1122 3375 1075 2522 
Q 1259 2794 1537 2939 
Q 1816 3084 2150 3084 
Q 2853 3084 3261 2657 
Q 3669 2231 3669 1497 
Q 3669 778 3244 343 
Q 2819 -91 2113 -91 
Q 1303 -91 875 529 
Q 447 1150 447 2328 
Q 447 3434 972 4092 
Q 1497 4750 2381 4750 
Q 2619 4750 2861 4703 
Q 3103 4656 3366 4563 
z
" transform="scale(0.015625)"/>
       </defs>
       <use xlink:href="#DejaVuSans-30"/>
       <use xlink:href="#DejaVuSans-2e" x="63.623047"/>
       <use xlink:href="#DejaVuSans-36" x="95.410156"/>
      </g>
     </g>
    </g>
    <g id="xtick_5">
     <g id="line2d_5">
      <g>
       <use xlink:href="#m96f46e845b" x="270.132001" y="313.236817" style="stroke: #000000; stroke-width: 0.8"/>
      </g>
     </g>
     <g id="text_4">
      <!-- 0.8 -->
      <g transform="translate(262.180438 327.835254)scale(0.1 -0.1)">
       <defs>
        <path id="DejaVuSans-38" d="M 2034 2216 
Q 1584 2216 1326 1975 
Q 1069 1734 1069 1313 
Q 1069 891 1326 650 
Q 1584 409 2034 409 
Q 2484 409 2743 651 
Q 3003 894 3003 1313 
Q 3003 1734 2745 1975 
Q 2488 2216 2034 2216 
z
M 1403 2484 
Q 997 2584 770 2862 
Q 544 3141 544 3541 
Q 544 4100 942 4425 
Q 1341 4750 2034 4750 
Q 2731 4750 3128 4425 
Q 3525 4100 3525 3541 
Q 3525 3141 3298 2862 
Q 3072 2584 2669 2484 
Q 3125 2378 3379 2068 
Q 3634 1759 3634 1313 
Q 3634 634 3220 271 
Q 2806 -91 2034 -91 
Q 1263 -91 848 271 
Q 434 634 434 1313 
Q 434 1759 690 2068 
Q 947 2378 1403 2484 
z
M 1172 3481 
Q 1172 3119 1398 2916 
Q 1625 2713 2034 2713 
Q 2441 2713 2670 2916 
Q 2900 3119 2900 3481 
Q 2900 3844 2670 4047 
Q 2441 4250 2034 4250 
Q 1625 4250 1398 4047 
Q 1172 3844 1172 3481 
z
" transform="scale(0.015625)"/>
       </defs>
       <use xlink:href="#DejaVuSans-30"/>
       <use xlink:href="#DejaVuSans-2e" x="63.623047"/>
       <use xlink:href="#DejaVuSans-38" x="95.410156"/>
      </g>
     </g>
    </g>
    <g id="xtick_6">
     <g id="line2d_6">
      <g>
       <use xlink:href="#m96f46e845b" x="330.13922" y="313.236817" style="stroke: #000000; stroke-width: 0.8"/>
      </g>
     </g>
     <g id="text_5">
      <!-- 1.0 -->
      <g transform="translate(322.187657 327.835254)scale(0.1 -0.1)">
       <defs>
        <path id="DejaVuSans-31" d="M 794 531 
L 1825 531 
L 1825 4091 
L 703 3866 
L 703 4441 
L 1819 4666 
L 2450 4666 
L 2450 531 
L 3481 531 
L 3481 0 
L 794 0 
L 794 531 
z
" transform="scale(0.015625)"/>
       </defs>
       <use xlink:href="#DejaVuSans-31"/>
       <use xlink:href="#DejaVuSans-2e" x="63.623047"/>
       <use xlink:href="#DejaVuSans-30" x="95.410156"/>
      </g>
     </g>
    </g>
    <g id="xtick_7">
     <g id="line2d_7">
      <defs>
       <path id="mddb0618b58" d="M 0 0 
L 0 2 
" style="stroke: #000000; stroke-width: 0.6"/>
      </defs>
      <g>
       <use xlink:href="#mddb0618b58" x="45.10493" y="313.236817" style="stroke: #000000; stroke-width: 0.6"/>
      </g>
     </g>
    </g>
    <g id="xtick_8">
     <g id="line2d_8">
      <g>
       <use xlink:href="#mddb0618b58" x="60.106734" y="313.236817" style="stroke: #000000; stroke-width: 0.6"/>
      </g>
     </g>
    </g>
    <g id="xtick_9">
     <g id="line2d_9">
      <g>
       <use xlink:href="#mddb0618b58" x="75.108539" y="313.236817" style="stroke: #000000; stroke-width: 0.6"/>
      </g>
     </g>
    </g>
    <g id="xtick_10">
     <g id="line2d_10">
      <g>
       <use xlink:href="#mddb0618b58" x="105.112149" y="313.236817" style="stroke: #000000; stroke-width: 0.6"/>
      </g>
     </g>
    </g>
    <g id="xtick_11">
     <g id="line2d_11">
      <g>
       <use xlink:href="#mddb0618b58" x="120.113953" y="313.236817" style="stroke: #000000; stroke-width: 0.6"/>
      </g>
     </g>
    </g>
    <g id="xtick_12">
     <g id="line2d_12">
      <g>
       <use xlink:href="#mddb0618b58" x="135.115758" y="313.236817" style="stroke: #000000; stroke-width: 0.6"/>
      </g>
     </g>
    </g>
    <g id="xtick_13">
     <g id="line2d_13">
      <g>
       <use xlink:href="#mddb0618b58" x="165.119368" y="313.236817" style="stroke: #000000; stroke-width: 0.6"/>
      </g>
     </g>
    </g>
    <g id="xtick_14">
     <g id="line2d_14">
      <g>
       <use xlink:href="#mddb0618b58" x="180.121172" y="313.236817" style="stroke: #000000; stroke-width: 0.6"/>
      </g>
     </g>
    </g>
    <g id="xtick_15">
     <g id="line2d_15">
      <g>
       <use xlink:href="#mddb0618b58" x="195.122977" y="313.236817" style="stroke: #000000; stroke-width: 0.6"/>
      </g>
     </g>
    </g>
    <g id="xtick_16">
     <g id="line2d_16">
      <g>
       <use xlink:href="#mddb0618b58" x="225.126587" y="313.236817" style="stroke: #000000; stroke-width: 0.6"/>
      </g>
     </g>
    </g>
    <g id="xtick_17">
     <g id="line2d_17">
      <g>
       <use xlink:href="#mddb0618b58" x="240.128391" y="313.236817" style="stroke: #000000; stroke-width: 0.6"/>
      </g>
     </g>
    </g>
    <g id="xtick_18">
     <g id="line2d_18">
      <g>
       <use xlink:href="#mddb0618b58" x="255.130196" y="313.236817" style="stroke: #000000; stroke-width: 0.6"/>
      </g>
     </g>
    </g>
    <g id="xtick_19">
     <g id="line2d_19">
      <g>
       <use xlink:href="#mddb0618b58" x="285.133805" y="313.236817" style="stroke: #000000; stroke-width: 0.6"/>
      </g>
     </g>
    </g>
    <g id="xtick_20">
     <g id="line2d_20">
      <g>
       <use xlink:href="#mddb0618b58" x="300.13561" y="313.236817" style="stroke: #000000; stroke-width: 0.6"/>
      </g>
     </g>
    </g>
    <g id="xtick_21">
     <g id="line2d_21">
      <g>
       <use xlink:href="#mddb0618b58" x="315.137415" y="313.236817" style="stroke: #000000; stroke-width: 0.6"/>
      </g>
     </g>
    </g>
   </g>
   <g id="matplotlib.axis_2">
    <g id="ytick_1">
     <g id="line2d_22">
      <defs>
       <path id="mdd911fb9c2" d="M 0 0 
L -3.5 0 
" style="stroke: #000000; stroke-width: 0.8"/>
      </defs>
      <g>
       <use xlink:href="#mdd911fb9c2" x="30.103125" y="313.236817" style="stroke: #000000; stroke-width: 0.8"/>
      </g>
     </g>
    </g>
    <g id="ytick_2">
     <g id="line2d_23">
      <g>
       <use xlink:href="#mdd911fb9c2" x="30.103125" y="253.229598" style="stroke: #000000; stroke-width: 0.8"/>
      </g>
     </g>
     <g id="text_6">
      <!-- 0.2 -->
      <g transform="translate(7.2 257.028816)scale(0.1 -0.1)">
       <use xlink:href="#DejaVuSans-30"/>
       <use xlink:href="#DejaVuSans-2e" x="63.623047"/>
       <use xlink:href="#DejaVuSans-32" x="95.410156"/>
      </g>
     </g>
    </g>
    <g id="ytick_3">
     <g id="line2d_24">
      <g>
       <use xlink:href="#mdd911fb9c2" x="30.103125" y="193.222379" style="stroke: #000000; stroke-width: 0.8"/>
      </g>
     </g>
     <g id="text_7">
      <!-- 0.4 -->
      <g transform="translate(7.2 197.021597)scale(0.1 -0.1)">
       <use xlink:href="#DejaVuSans-30"/>
       <use xlink:href="#DejaVuSans-2e" x="63.623047"/>
       <use xlink:href="#DejaVuSans-34" x="95.410156"/>
      </g>
     </g>
    </g>
    <g id="ytick_4">
     <g id="line2d_25">
      <g>
       <use xlink:href="#mdd911fb9c2" x="30.103125" y="133.21516" style="stroke: #000000; stroke-width: 0.8"/>
      </g>
     </g>
     <g id="text_8">
      <!-- 0.6 -->
      <g transform="translate(7.2 137.014379)scale(0.1 -0.1)">
       <use xlink:href="#DejaVuSans-30"/>
       <use xlink:href="#DejaVuSans-2e" x="63.623047"/>
       <use xlink:href="#DejaVuSans-36" x="95.410156"/>
      </g>
     </g>
    </g>
    <g id="ytick_5">
     <g id="line2d_26">
      <g>
       <use xlink:href="#mdd911fb9c2" x="30.103125" y="73.207941" style="stroke: #000000; stroke-width: 0.8"/>
      </g>
     </g>
     <g id="text_9">
      <!-- 0.8 -->
      <g transform="translate(7.2 77.00716)scale(0.1 -0.1)">
       <use xlink:href="#DejaVuSans-30"/>
       <use xlink:href="#DejaVuSans-2e" x="63.623047"/>
       <use xlink:href="#DejaVuSans-38" x="95.410156"/>
      </g>
     </g>
    </g>
    <g id="ytick_6">
     <g id="line2d_27">
      <g>
       <use xlink:href="#mdd911fb9c2" x="30.103125" y="13.200722" style="stroke: #000000; stroke-width: 0.8"/>
      </g>
     </g>
     <g id="text_10">
      <!-- 1.0 -->
      <g transform="translate(7.2 16.999941)scale(0.1 -0.1)">
       <use xlink:href="#DejaVuSans-31"/>
       <use xlink:href="#DejaVuSans-2e" x="63.623047"/>
       <use xlink:href="#DejaVuSans-30" x="95.410156"/>
      </g>
     </g>
    </g>
    <g id="ytick_7">
     <g id="line2d_28">
      <defs>
       <path id="mdf6b732d8a" d="M 0 0 
L -2 0 
" style="stroke: #000000; stroke-width: 0.6"/>
      </defs>
      <g>
       <use xlink:href="#mdf6b732d8a" x="30.103125" y="298.235012" style="stroke: #000000; stroke-width: 0.6"/>
      </g>
     </g>
    </g>
    <g id="ytick_8">
     <g id="line2d_29">
      <g>
       <use xlink:href="#mdf6b732d8a" x="30.103125" y="283.233207" style="stroke: #000000; stroke-width: 0.6"/>
      </g>
     </g>
    </g>
    <g id="ytick_9">
     <g id="line2d_30">
      <g>
       <use xlink:href="#mdf6b732d8a" x="30.103125" y="268.231402" style="stroke: #000000; stroke-width: 0.6"/>
      </g>
     </g>
    </g>
    <g id="ytick_10">
     <g id="line2d_31">
      <g>
       <use xlink:href="#mdf6b732d8a" x="30.103125" y="238.227793" style="stroke: #000000; stroke-width: 0.6"/>
      </g>
     </g>
    </g>
    <g id="ytick_11">
     <g id="line2d_32">
      <g>
       <use xlink:href="#mdf6b732d8a" x="30.103125" y="223.225988" style="stroke: #000000; stroke-width: 0.6"/>
      </g>
     </g>
    </g>
    <g id="ytick_12">
     <g id="line2d_33">
      <g>
       <use xlink:href="#mdf6b732d8a" x="30.103125" y="208.224183" style="stroke: #000000; stroke-width: 0.6"/>
      </g>
     </g>
    </g>
    <g id="ytick_13">
     <g id="line2d_34">
      <g>
       <use xlink:href="#mdf6b732d8a" x="30.103125" y="178.220574" style="stroke: #000000; stroke-width: 0.6"/>
      </g>
     </g>
    </g>
    <g id="ytick_14">
     <g id="line2d_35">
      <g>
       <use xlink:href="#mdf6b732d8a" x="30.103125" y="163.218769" style="stroke: #000000; stroke-width: 0.6"/>
      </g>
     </g>
    </g>
    <g id="ytick_15">
     <g id="line2d_36">
      <g>
       <use xlink:href="#mdf6b732d8a" x="30.103125" y="148.216964" style="stroke: #000000; stroke-width: 0.6"/>
      </g>
     </g>
    </g>
    <g id="ytick_16">
     <g id="line2d_37">
      <g>
       <use xlink:href="#mdf6b732d8a" x="30.103125" y="118.213355" style="stroke: #000000; stroke-width: 0.6"/>
      </g>
     </g>
    </g>
    <g id="ytick_17">
     <g id="line2d_38">
      <g>
       <use xlink:href="#mdf6b732d8a" x="30.103125" y="103.21155" style="stroke: #000000; stroke-width: 0.6"/>
      </g>
     </g>
    </g>
    <g id="ytick_18">
     <g id="line2d_39">
      <g>
       <use xlink:href="#mdf6b732d8a" x="30.103125" y="88.209746" style="stroke: #000000; stroke-width: 0.6"/>
      </g>
     </g>
    </g>
    <g id="ytick_19">
     <g id="line2d_40">
      <g>
       <use xlink:href="#mdf6b732d8a" x="30.103125" y="58.206136" style="stroke: #000000; stroke-width: 0.6"/>
      </g>
     </g>
    </g>
    <g id="ytick_20">
     <g id="line2d_41">
      <g>
       <use xlink:href="#mdf6b732d8a" x="30.103125" y="43.204331" style="stroke: #000000; stroke-width: 0.6"/>
      </g>
     </g>
    </g>
    <g id="ytick_21">
     <g id="line2d_42">
      <g>
       <use xlink:href="#mdf6b732d8a" x="30.103125" y="28.202527" style="stroke: #000000; stroke-width: 0.6"/>
      </g>
     </g>
    </g>
   </g>
   <g id="line2d_43">
    <path d="M 30.103125 13.200722 
L 39.163571 22.125732 
L 49.077339 31.587423 
L 59.316888 41.037307 
L 69.82654 50.406845 
L 79.99893 59.168437 
L 90.044699 67.534287 
L 100.685001 76.095042 
L 111.555337 84.532935 
L 122.055713 92.398457 
L 133.181562 100.437546 
L 144.336911 108.204153 
L 156.207144 116.157431 
L 168.104703 123.819451 
L 179.373216 130.801502 
L 191.089099 137.787988 
L 201.527258 143.786842 
L 211.998701 149.59874 
L 224.141415 156.08909 
L 236.177587 162.268416 
L 248.897222 168.534757 
L 262.052611 174.742285 
L 274.806984 180.506234 
L 287.38394 185.955053 
L 300.471188 191.387603 
L 314.423579 196.924152 
L 328.218304 202.150774 
L 330.13922 202.859706 
L 330.13922 202.859706 
" clip-path="url(#p1902bd63d4)" style="fill: none; stroke: #ff0000; stroke-linecap: square"/>
   </g>
   <g id="patch_74">
    <path d="M 30.103125 319.237538 
L 30.103125 7.2 
" style="fill: none; stroke: #000000; stroke-width: 0.8; stroke-linejoin: miter; stroke-linecap: square"/>
   </g>
   <g id="patch_75">
    <path d="M 24.102403 313.236817 
L 336.139942 313.236817 
" style="fill: none; stroke: #000000; stroke-width: 0.8; stroke-linejoin: miter; stroke-linecap: square"/>
   </g>
  </g>
 </g>
 <defs>
  <clipPath id="p1902bd63d4">
   <rect x="24.102403" y="7.2" width="312.037538" height="312.037538"/>
  </clipPath>
 </defs>
</svg>
