<?xml version="1.0" encoding="utf-8" standalone="no"?>
<!DOCTYPE svg PUBLIC "-//W3C//DTD SVG 1.1//EN"
  "http://www.w3.org/Graphics/SVG/1.1/DTD/svg11.dtd">
<svg xmlns:xlink="http://www.w3.org/1999/xlink" width="453.6pt" height="338.4pt" viewBox="0 0 453.6 338.4" xmlns="http://www.w3.org/2000/svg" version="1.1">
 <metadata>
  <rdf:RDF xmlns:dc="http://purl.org/dc/elements/1.1/" xmlns:cc="http://creativecommons.org/ns#" xmlns:rdf="http://www.w3.org/1999/02/22-rdf-syntax-ns#">
   <cc:Work>
    <dc:type rdf:resource="http://purl.org/dc/dcmitype/StillImage"/>
    <dc:date>2023-02-10T21:07:34.784442</dc:date>
    <dc:format>image/svg+xml</dc:format>
    <dc:creator>
     <cc:Agent>
      <dc:title>Matplotlib v3.5.2, https://matplotlib.org/</dc:title>
     </cc:Agent>
    </dc:creator>
   </cc:Work>
  </rdf:RDF>
 </metadata>
 <defs>
  <style type="text/css">*{stroke-linejoin: round; stroke-linecap: butt}</style>
 </defs>
 <g id="figure_1">
  <g id="patch_1">
   <path d="M 0 338.4 
L 453.6 338.4 
L 453.6 0 
L 0 0 
L 0 338.4 
z
" style="fill: none"/>
  </g>
  <g id="axes_1">
   <g id="patch_2">
    <path d="M 7.2 331.2 
L 446.4 331.2 
L 446.4 7.2 
L 7.2 7.2 
L 7.2 331.2 
z
" style="fill: none"/>
   </g>
   <g id="patch_3">
    <path d="M 437.953846 83.415271 
L 434.79915 85.157918 
L 434.615205 85.259528 
L 431.473006 86.99527 
L 429.202273 88.249618 
L 427.746309 89.053889 
L 425.459952 90.316866 
L 423.109276 91.615374 
L 421.700213 92.393736 
L 418.409581 94.211473 
L 417.325309 94.810422 
L 414.361088 96.44785 
L 413.047091 97.173698 
L 410.319002 98.680688 
L 407.321446 100.33653 
L 405.786436 101.184466 
L 403.034734 102.704499 
L 402.573781 102.959127 
L 399.794204 104.494559 
L 396.814963 106.140284 
L 395.58909 106.817453 
L 392.688963 108.419475 
L 390.727522 109.50297 
L 390.046077 109.879399 
L 388.055887 110.978775 
L 384.559609 112.91011 
L 382.002476 114.322663 
L 380.496828 115.154379 
L 377.566788 116.772926 
L 375.934017 117.674864 
L 373.446309 119.049068 
L 372.221357 119.725728 
L 369.31628 121.330485 
L 367.16956 122.516328 
L 366.820053 122.709394 
L 364.643815 123.911543 
L 360.745439 126.064995 
L 359.607055 126.693836 
L 356.996379 128.135967 
L 355.057709 129.206883 
L 353.039884 130.321524 
L 350.216851 131.88096 
L 349.473763 132.29144 
L 345.938611 134.244249 
L 343.664757 135.50032 
L 342.600059 136.088456 
L 339.699642 137.690639 
L 337.601309 138.849753 
L 335.911791 139.783038 
L 333.40896 141.165595 
L 331.652256 142.135994 
L 328.811139 143.70542 
L 328.114159 144.09043 
L 325.600247 145.479108 
L 322.482577 147.201301 
L 321.29204 147.858951 
L 319.706379 148.734866 
L 317.977328 149.689989 
L 315.904433 150.835051 
L 313.749262 152.025562 
L 309.6451 154.29269 
L 309.508824 154.367969 
L 305.48753 156.589321 
L 304.185628 157.308488 
L 303.126756 157.893407 
L 299.160836 160.08417 
L 298.045753 160.700139 
L 295.086236 162.334969 
L 294.01002 162.929468 
L 291.12278 164.524371 
L 290.369095 164.940705 
L 287.137454 166.725855 
L 284.345831 168.267941 
L 282.848863 169.094862 
L 280.721345 170.270097 
L 279.278668 171.067028 
L 276.90832 172.376402 
L 274.604198 173.649194 
L 272.707198 174.697091 
L 269.581875 176.423512 
L 267.774649 177.421819 
L 265.282579 178.798432 
L 264.377973 179.298133 
L 260.775338 181.28822 
L 258.820884 182.367855 
L 257.613959 183.034557 
L 255.362576 184.278215 
L 253.950853 185.058048 
L 250.78119 186.808961 
L 249.996551 187.242394 
L 246.803851 189.006033 
L 244.93733 190.037095 
L 242.604456 191.325768 
L 241.24193 192.078424 
L 237.470975 194.16149 
L 235.363546 195.325628 
L 233.704606 196.242022 
L 232.148508 197.101606 
L 230.441808 198.044383 
L 228.344954 199.20268 
L 225.84731 200.582372 
L 224.30171 201.436157 
L 220.916409 203.306189 
L 220.345787 203.621399 
L 216.393526 205.804618 
L 214.78262 206.694478 
L 212.571524 207.915881 
L 211.666782 208.415659 
L 207.934347 210.477446 
L 207.493911 210.720742 
L 204.706778 212.260347 
L 203.013212 213.195869 
L 199.994515 214.863389 
L 197.515339 216.232879 
L 195.338588 217.435311 
L 192.949409 218.755087 
L 191.722 219.433105 
L 189.823691 220.481726 
L 186.867263 222.114849 
L 184.717832 223.302189 
L 183.07595 224.20916 
L 180.86338 225.431378 
L 178.474815 226.750815 
L 176.479929 227.852785 
L 174.220829 229.100706 
L 173.557595 229.467075 
L 170.889508 230.940919 
L 167.859853 232.614493 
L 166.52098 233.354083 
L 163.864371 234.821587 
L 162.307676 235.681501 
L 159.356947 237.311476 
L 158.166875 237.968869 
L 154.894503 239.776518 
L 153.633809 240.472923 
L 151.796784 241.487691 
L 149.37463 242.825682 
L 148.072355 243.545056 
L 145.345812 245.051191 
L 142.834873 246.438227 
L 141.037956 247.430839 
L 139.60087 248.224682 
L 137.605477 249.326932 
L 134.851849 250.848028 
L 131.38364 252.763858 
L 129.36263 253.880259 
L 128.970331 254.096964 
L 126.592754 255.410331 
L 123.70199 257.007182 
L 122.10114 257.891487 
L 118.757616 259.738441 
L 117.452532 260.459366 
L 115.863997 261.336869 
L 113.979532 262.377842 
L 111.78124 263.592173 
L 109.719727 264.730948 
L 107.211806 266.116317 
L 103.858425 267.968716 
L 102.89516 268.500821 
L 99.695171 270.268486 
L 98.107746 271.145376 
L 96.711118 271.916869 
L 93.968949 273.431637 
L 91.685524 274.692995 
L 88.860465 276.25355 
L 87.824796 276.825651 
L 84.937824 278.420406 
L 84.184767 278.836394 
L 82.455936 279.791395 
L 78.377399 282.044368 
L 77.947218 282.281999 
L 75.052757 283.880892 
L 72.87263 285.085188 
L 69.907403 286.723172 
L 68.284054 287.619906 
L 67.381779 288.11832 
L 64.383017 289.774828 
L 62.889932 290.599605 
L 60.716436 291.800239 
L 57.823021 293.398553 
L 56.384835 294.193003 
L 54.150393 295.427303 
L 51.348589 296.975013 
L 50.099734 297.664877 
L 46.590746 299.603233 
L 45.664714 300.11477 
L 42.235187 302.009233 
L 41.855147 302.219166 
L 39.894883 303.30201 
L 36.279582 305.299093 
L 34.408617 306.332609 
L 33.486792 306.841823 
L 31.113646 308.152743 
L 28.704085 309.483778 
L 25.450299 311.281161 
L 25.040431 311.507571 
L 21.241864 313.60589 
L 20.648153 313.933854 
L 16.816277 316.050573 
L 15.646154 316.696945 
L 15.646154 316.696945 
L 18.33051 318.10946 
L 19.94105 318.890006 
L 22.477164 320.018772 
L 23.973444 320.627812 
L 25.706403 321.281021 
L 28.585759 322.244113 
L 29.552859 322.533754 
L 31.319381 323.019419 
L 33.085903 323.449536 
L 34.1985 323.692213 
L 35.939611 324.028649 
L 37.657083 324.309242 
L 39.374556 324.5395 
L 41.784591 324.778863 
L 42.381547 324.823205 
L 44.335128 324.9273 
L 46.288709 324.969231 
L 47.575725 324.963307 
L 49.654929 324.89816 
L 51.350053 324.79487 
L 54.673396 324.463858 
L 55.694266 324.328524 
L 58.663723 323.846632 
L 60.244463 323.537318 
L 63.300795 322.837342 
L 63.718847 322.731294 
L 65.624588 322.216908 
L 67.530328 321.652345 
L 69.707771 320.946907 
L 70.161181 320.792016 
L 73.750263 319.470419 
L 75.152598 318.908696 
L 76.406674 318.385182 
L 78.699489 317.377124 
L 80.568284 316.50761 
L 83.303314 315.159211 
L 85.015143 314.270342 
L 88.647772 312.27257 
L 90.300601 311.314592 
L 92.900784 309.74719 
L 94.087588 309.007729 
L 97.185252 307.008421 
L 98.63275 306.040571 
L 100.513163 304.752081 
L 101.608658 303.985465 
L 104.417156 301.967644 
L 106.951726 300.083523 
L 108.171268 299.156198 
L 110.542828 297.315298 
L 113.585413 294.882914 
L 115.644379 293.19338 
L 116.945115 292.108472 
L 118.764171 290.569018 
L 122.646122 287.200056 
L 124.315756 285.717328 
L 125.303129 284.831272 
L 128.197929 282.195247 
L 129.317653 281.160748 
L 132.413358 278.25929 
L 135.172669 275.624077 
L 136.963217 273.890535 
L 139.600125 271.30549 
L 140.537293 270.377897 
L 141.968781 268.952396 
L 144.416681 266.491426 
L 148.158268 262.676438 
L 148.589162 262.233175 
L 150.673744 260.077959 
L 153.789487 256.825071 
L 155.03189 255.518106 
L 158.27882 252.07801 
L 160.055159 250.182114 
L 161.639126 248.483941 
L 163.373444 246.61693 
L 165.673227 244.129871 
L 169.370778 240.107485 
L 170.30175 239.090692 
L 171.930068 237.30887 
L 175.127645 233.798998 
L 177.266969 231.444239 
L 178.309287 230.295481 
L 180.958625 227.372343 
L 182.270279 225.923911 
L 184.572035 223.381178 
L 187.021725 220.675059 
L 189.299861 218.159949 
L 190.774486 216.533367 
L 193.736305 213.271452 
L 195.514006 211.317925 
L 197.349862 209.304715 
L 200.259961 206.124021 
L 203.249532 202.872566 
L 204.406072 201.619746 
L 205.98743 199.911766 
L 208.193971 197.53904 
L 211.31235 194.208879 
L 212.042581 193.43329 
L 214.937228 190.376023 
L 216.685857 188.543297 
L 219.677109 185.434972 
L 222.250101 182.790352 
L 224.629407 180.37055 
L 225.28653 179.706819 
L 228.134744 176.853994 
L 229.452904 175.547433 
L 231.451882 173.583415 
L 234.262134 170.859324 
L 236.98624 168.262221 
L 239.206024 166.179227 
L 240.39208 165.078998 
L 243.154919 162.551787 
L 244.805265 161.066815 
L 246.68894 159.395212 
L 249.159675 157.24158 
L 250.244326 156.310498 
L 253.810553 153.313251 
L 256.082898 151.456471 
L 258.01733 149.90955 
L 260.68172 147.831337 
L 262.744868 146.265092 
L 262.946604 146.114001 
L 265.83443 143.992233 
L 268.350593 142.207613 
L 270.051698 141.035875 
L 272.909313 139.132486 
L 273.927884 138.474156 
L 275.847334 137.262927 
L 279.711921 134.943595 
L 279.912226 134.827823 
L 283.278256 132.949538 
L 285.249212 131.909738 
L 287.561584 130.747798 
L 288.95275 130.079479 
L 290.766432 129.243467 
L 293.535835 128.045433 
L 296.078322 127.030969 
L 297.218056 126.603274 
L 299.824758 125.689254 
L 301.824074 125.04974 
L 304.151567 124.373896 
L 307.041826 123.639536 
L 307.506893 123.532397 
L 310.987852 122.82935 
L 313.278919 122.463409 
L 315.007511 122.239172 
L 317.245133 122.016221 
L 320.080287 121.844716 
L 322.158203 121.799213 
L 322.705877 121.798667 
L 324.66232 121.836154 
L 327.677994 122.016238 
L 330.612474 122.336564 
L 332.314185 122.589048 
L 333.870777 122.863505 
L 335.342639 123.161665 
L 337.835841 123.753479 
L 339.470993 124.201591 
L 341.106146 124.697809 
L 342.559349 125.179596 
L 343.926452 125.668208 
L 346.593117 126.721115 
L 348.919025 127.748667 
L 350.436806 128.474793 
L 352.996523 129.800145 
L 355.627261 131.295853 
L 357.969349 132.743087 
L 359.279775 133.600936 
L 360.590784 134.494037 
L 363.446784 136.56165 
L 365.301643 137.995088 
L 366.949627 139.32922 
L 368.597612 140.720885 
L 370.279257 142.200821 
L 371.321636 143.148757 
L 373.041227 144.764124 
L 374.760819 146.444223 
L 377.188544 148.927543 
L 378.322574 150.132625 
L 381.077742 153.181327 
L 382.302067 154.59155 
L 384.811771 157.590167 
L 386.048339 159.121389 
L 388.54466 162.321805 
L 390.2686 164.618064 
L 391.681548 166.553009 
L 393.094497 168.535981 
L 395.04009 171.345683 
L 396.56509 173.612641 
L 398.090089 175.936863 
L 398.747136 176.95601 
L 400.752899 180.133727 
L 402.758663 183.412465 
L 403.554046 184.740825 
L 405.83461 188.638981 
L 408.120538 192.680445 
L 409.66783 195.492937 
L 411.181211 198.30434 
L 412.694592 201.176028 
L 414.23439 204.160128 
L 416.843933 209.362023 
L 418.665672 213.102273 
L 420.863431 217.734701 
L 422.257848 220.742508 
L 423.652265 223.803996 
L 425.114584 227.072575 
L 427.473653 232.471664 
L 428.871583 235.745031 
L 430.269513 239.073852 
L 432.455153 244.390287 
L 434.252214 248.864511 
L 436.117455 253.607549 
L 437.953846 258.376527 
z
" clip-path="url(#pbd36b09f84)" style="fill: #b2b3ff; opacity: 0.5"/>
   </g>
   <g id="patch_4">
    <path d="M 437.953846 13.430769 
L 435.122409 18.096789 
L 432.919624 21.690568 
L 431.553423 23.903539 
L 429.227294 27.643316 
L 426.905751 31.340435 
L 425.120598 34.159366 
L 423.328941 36.96761 
L 420.125961 41.935651 
L 418.86921 43.866628 
L 417.209307 46.401212 
L 413.963513 51.305296 
L 413.032216 52.699675 
L 409.882184 57.374001 
L 407.400211 61.011286 
L 405.968444 63.091189 
L 404.669237 64.966921 
L 401.928482 68.887684 
L 400.329912 71.151819 
L 398.120525 74.253574 
L 394.985239 78.600399 
L 394.246879 79.614723 
L 391.419466 83.465922 
L 388.274197 87.68864 
L 386.738875 89.726405 
L 384.635721 92.492803 
L 382.953057 94.685276 
L 381.250303 96.885075 
L 379.263551 99.427803 
L 376.369701 103.085285 
L 374.847078 104.98771 
L 371.339145 109.312951 
L 370.875582 109.878498 
L 367.679184 113.739851 
L 366.66204 114.95458 
L 362.935786 119.346874 
L 361.775 120.696591 
L 359.896369 122.862319 
L 358.276072 124.711693 
L 355.780101 127.526948 
L 353.727387 129.811711 
L 350.301212 133.563812 
L 348.076285 135.959277 
L 347.703019 136.357982 
L 343.528818 140.75459 
L 343.444617 140.842105 
L 340.500744 143.872686 
L 338.747015 145.651129 
L 335.611982 148.780223 
L 333.878684 150.482643 
L 332.638584 151.688593 
L 330.268385 153.965539 
L 327.989456 156.120159 
L 325.828857 158.131536 
L 323.089929 160.637417 
L 321.761588 161.835065 
L 319.126514 164.176729 
L 316.180966 166.740541 
L 314.242238 168.39705 
L 311.995241 170.286196 
L 310.754186 171.315447 
L 308.721658 172.979339 
L 305.492547 175.56723 
L 304.070148 176.68554 
L 301.617931 178.582437 
L 300.576906 179.375824 
L 297.702699 181.529516 
L 295.156002 183.392656 
L 293.036359 184.911021 
L 290.724999 186.533228 
L 288.923181 187.773582 
L 286.981858 189.086207 
L 286.028414 189.721853 
L 283.735459 191.226187 
L 279.924886 193.650124 
L 278.303268 194.652843 
L 275.776955 196.180707 
L 275.34805 196.435955 
L 271.841699 198.47752 
L 269.532574 199.778089 
L 268.28453 200.466508 
L 265.923872 201.740785 
L 264.782175 202.343994 
L 261.64913 203.955523 
L 260.276961 204.641104 
L 257.074302 206.193344 
L 255.611362 206.880071 
L 252.67253 208.217301 
L 251.558833 208.709299 
L 248.658069 209.952685 
L 246.910224 210.675314 
L 244.835494 211.507155 
L 241.999095 212.598827 
L 241.23113 212.885349 
L 237.431386 214.24625 
L 236.011194 214.730658 
L 234.347334 215.281397 
L 231.935517 216.047567 
L 231.043601 216.321268 
L 227.931937 217.235404 
L 226.171798 217.724452 
L 222.743554 218.61881 
L 222.41556 218.700348 
L 218.379162 219.646173 
L 216.189692 220.114642 
L 215.870666 220.180286 
L 212.98173 220.744412 
L 209.891538 221.287417 
L 209.050161 221.424445 
L 207.423989 221.676165 
L 204.456068 222.090991 
L 201.506185 222.44621 
L 200.617048 222.542116 
L 198.030909 222.791677 
L 195.586912 222.987319 
L 194.953763 223.031632 
L 192.431753 223.18212 
L 188.644452 223.329968 
L 187.326587 223.359413 
L 185.845313 223.378951 
L 182.961972 223.375828 
L 180.287496 223.324324 
L 179.021037 223.283614 
L 176.470369 223.169784 
L 175.041264 223.087408 
L 173.355436 222.973062 
L 170.494186 222.736444 
L 168.583465 222.548616 
L 166.617294 222.33041 
L 165.169111 222.153521 
L 162.844325 221.840876 
L 160.371058 221.469457 
L 158.699539 221.195783 
L 156.094192 220.732778 
L 154.643594 220.455747 
L 150.90438 219.678185 
L 148.568644 219.146072 
L 146.774403 218.713088 
L 144.639021 218.170338 
L 142.549517 217.610381 
L 139.937058 216.870112 
L 139.474043 216.734254 
L 137.543348 216.15264 
L 133.735042 214.933931 
L 132.583875 214.546872 
L 131.117631 214.041325 
L 127.355177 212.679734 
L 127.015775 212.552355 
L 124.137616 211.441892 
L 121.550977 210.397678 
L 119.068345 209.354298 
L 117.50911 208.678386 
L 115.594654 207.826743 
L 113.895351 207.050729 
L 112.120833 206.220208 
L 109.176282 204.796642 
L 107.13073 203.774325 
L 104.036928 202.176121 
L 102.671246 201.450718 
L 101.379126 200.753159 
L 99.149717 199.523924 
L 97.256619 198.454601 
L 93.397822 196.202365 
L 91.436571 195.020329 
L 89.508675 193.833877 
L 87.904469 192.828099 
L 86.064602 191.653848 
L 83.899709 190.243806 
L 81.849964 188.880512 
L 78.776076 186.784554 
L 77.785789 186.096157 
L 74.791446 183.975624 
L 73.987546 183.396334 
L 70.612445 180.918112 
L 69.237908 179.887487 
L 66.937537 178.13503 
L 65.303908 176.86949 
L 63.349859 175.332802 
L 59.294859 172.064221 
L 58.004698 171.001719 
L 54.928675 168.424568 
L 53.669496 167.351752 
L 52.083743 165.985945 
L 48.825042 163.127604 
L 48.213721 162.583653 
L 44.666654 159.37925 
L 43.627627 158.425016 
L 41.157246 156.127888 
L 38.689323 153.793191 
L 36.423798 151.614898 
L 33.931698 149.179982 
L 31.583089 146.848087 
L 30.988582 146.252089 
L 27.80356 143.019714 
L 26.882048 142.072128 
L 25.098294 140.22212 
L 22.639021 137.637381 
L 20.31473 135.158151 
L 17.329644 131.92225 
L 15.646154 130.071606 
L 15.646154 316.696945 
L 17.676038 315.575643 
L 20.045506 314.266755 
L 23.062549 312.600148 
L 23.9929 312.086224 
L 26.29106 310.816727 
L 27.863073 309.948351 
L 30.489315 308.497622 
L 32.25274 307.52351 
L 34.212781 306.440789 
L 36.876182 304.969533 
L 38.498318 304.073469 
L 41.783862 302.258543 
L 42.93848 301.620735 
L 45.500756 300.20534 
L 47.256685 299.23537 
L 50.381136 297.509431 
L 52.71746 296.218852 
L 53.772555 295.63602 
L 57.010439 293.847422 
L 57.440936 293.609616 
L 59.461382 292.493527 
L 62.674758 290.718467 
L 64.322891 289.808042 
L 66.077655 288.838715 
L 69.549262 286.921008 
L 70.531331 286.378516 
L 73.395281 284.796477 
L 75.700172 283.523261 
L 78.025891 282.23854 
L 78.446328 282.006292 
L 80.959802 280.617856 
L 83.949003 278.966629 
L 84.917454 278.431659 
L 87.951308 276.755766 
L 89.042002 276.153269 
L 92.765696 274.096311 
L 95.218618 272.741322 
L 95.766652 272.43859 
L 98.171739 271.110026 
L 101.203474 269.435304 
L 102.743508 268.584593 
L 104.395551 267.672008 
L 107.450809 265.984292 
L 107.969512 265.697762 
L 111.527226 263.73249 
L 113.466241 262.661383 
L 115.038016 261.793139 
L 117.58593 260.385677 
L 120.223124 258.928898 
L 122.440709 257.70391 
L 123.838467 256.931792 
L 126.592951 255.410222 
L 128.543376 254.332813 
L 131.292456 252.814228 
L 131.449974 252.727215 
L 134.534687 251.023228 
L 137.136401 249.586048 
L 138.382247 248.897846 
L 141.136818 247.376228 
L 143.988474 245.800981 
L 144.779415 245.364067 
L 146.470767 244.429768 
L 149.762555 242.611393 
L 151.061975 241.893597 
L 153.463992 240.566729 
L 155.256556 239.576521 
L 157.005329 238.610504 
L 159.663816 237.141962 
L 161.79553 235.964409 
L 163.874462 234.816012 
L 166.515107 233.357327 
L 167.476953 232.826006 
L 170.8493 230.96313 
L 173.598409 229.444529 
L 174.266627 229.075407 
L 177.037943 227.544539 
L 179.995564 225.910758 
L 180.460858 225.65373 
L 183.834713 223.790021 
L 185.04944 223.119009 
L 186.995241 222.044154 
L 190.676546 220.010611 
L 190.738694 219.97628 
L 194.657678 217.811444 
L 196.776649 216.64093 
L 198.843628 215.499136 
L 199.396627 215.193661 
L 201.43919 214.065354 
L 204.951568 212.125126 
L 207.161753 210.904225 
L 208.996098 209.890938 
L 210.60872 209.00013 
L 213.537206 207.382442 
L 214.445134 206.880905 
L 216.435653 205.781347 
L 218.36629 204.714868 
L 221.301619 203.0934 
L 224.478625 201.33843 
L 226.246983 200.361593 
L 226.943002 199.977115 
L 229.586949 198.516605 
L 233.038969 196.609718 
L 233.758918 196.21202 
L 235.78027 195.095431 
L 238.895814 193.374412 
L 240.16184 192.675063 
L 243.064122 191.07185 
L 245.613141 189.663778 
L 247.462205 188.64236 
L 249.13872 187.716257 
L 251.683007 186.3108 
L 254.10143 184.974869 
L 256.010721 183.920182 
L 256.816086 183.4753 
L 259.389747 182.053617 
L 261.406712 180.93945 
L 263.253618 179.919224 
L 266.605758 178.067511 
L 268.53376 177.002488 
L 270.52374 175.903228 
L 273.4618 174.280251 
L 275.193357 173.323744 
L 276.844326 172.411752 
L 279.817346 170.769464 
L 281.508183 169.83545 
L 284.011373 168.452694 
L 285.873262 167.424192 
L 287.522235 166.513304 
L 288.918622 165.741942 
L 290.877167 164.660048 
L 292.91813 163.532625 
L 294.965109 162.401879 
L 296.91053 161.327233 
L 301.071271 159.028851 
L 301.773031 158.6412 
L 304.048012 157.384507 
L 306.177212 156.208342 
L 308.750151 154.787058 
L 309.968476 154.114058 
L 313.278984 152.285342 
L 314.645816 151.530308 
L 315.994445 150.785328 
L 318.10566 149.619098 
L 320.309389 148.401765 
L 322.584176 147.145178 
L 325.488686 145.540734 
L 327.846509 144.238279 
L 330.233602 142.919655 
L 331.192137 142.390163 
L 335.001251 140.286018 
L 337.027865 139.166521 
L 338.807229 138.183605 
L 341.293512 136.81019 
L 341.520224 136.684954 
L 344.962674 134.783354 
L 347.421246 133.425245 
L 349.846023 132.085805 
L 349.900714 132.055594 
L 352.667462 130.527249 
L 355.442726 128.9942 
L 356.841161 128.221708 
L 359.163853 126.938659 
L 361.611292 125.5867 
L 363.696831 124.434654 
L 366.446883 122.915532 
L 367.783783 122.177033 
L 370.226332 120.827775 
L 372.803506 119.404151 
L 375.183345 118.089534 
L 376.673306 117.266483 
L 378.814212 116.083852 
L 380.745854 115.016818 
L 383.429457 113.534402 
L 385.623148 112.322614 
L 386.863704 111.637334 
L 389.580354 110.136663 
L 390.278995 109.750736 
L 392.841661 108.335126 
L 395.502925 106.86505 
L 396.812432 106.141682 
L 400.394088 104.163185 
L 401.428298 103.591889 
L 404.420433 101.939042 
L 405.674257 101.246433 
L 407.74942 100.100118 
L 410.613744 98.517873 
L 411.954771 97.777093 
L 414.479647 96.382358 
L 416.598894 95.211692 
L 417.840736 94.525701 
L 421.017469 92.770882 
L 423.083329 91.629706 
L 424.217999 91.002918 
L 426.978581 89.47798 
L 430.172997 87.713392 
L 430.981462 87.266798 
L 432.779673 86.273471 
L 434.858827 85.124952 
L 437.953846 83.415271 
z
" clip-path="url(#pbd36b09f84)" style="fill: #c9ffb2; opacity: 0.5"/>
   </g>
   <g id="patch_5">
    <path d="M 15.646154 223.384276 
L 15.646154 130.071606 
L 16.784649 131.325171 
L 20.267229 135.107115 
L 22.11635 137.082947 
L 23.939908 139.009564 
L 25.454613 140.593337 
L 27.820246 143.036822 
L 29.762613 145.015748 
L 31.69731 146.96233 
L 35.315211 150.536764 
L 37.620261 152.769475 
L 39.21314 154.292061 
L 41.593766 156.536697 
L 43.245484 158.072283 
L 45.601419 160.231698 
L 46.942686 161.444866 
L 49.0849 163.358085 
L 51.536898 165.511134 
L 54.39607 167.972056 
L 57.02779 170.189953 
L 57.616214 170.679654 
L 60.698262 173.207619 
L 61.737077 174.04568 
L 64.941994 176.586761 
L 66.385493 177.709325 
L 69.18782 179.849698 
L 70.377531 180.742849 
L 72.751641 182.497496 
L 74.680161 183.895684 
L 77.140694 185.64427 
L 80.139714 187.721989 
L 81.954899 188.950973 
L 84.255235 190.477471 
L 86.431412 191.889723 
L 87.03641 192.27684 
L 90.237309 194.285146 
L 91.1623 194.853022 
L 93.860423 196.477506 
L 96.543657 198.045807 
L 99.247091 199.578293 
L 101.426322 200.77883 
L 103.581156 201.935387 
L 104.639521 202.492319 
L 107.055702 203.736307 
L 109.575559 204.992999 
L 112.062706 206.192655 
L 113.49757 206.866348 
L 115.694821 207.871896 
L 116.706865 208.324426 
L 119.822646 209.675572 
L 120.769051 210.073405 
L 124.282253 211.498989 
L 126.334288 212.294316 
L 127.167493 212.609389 
L 129.533391 213.47929 
L 132.649921 214.569314 
L 135.38436 215.473379 
L 136.077362 215.694733 
L 138.736745 216.515024 
L 141.193068 217.231588 
L 142.472685 217.589248 
L 144.235873 218.064524 
L 146.919143 218.748797 
L 148.827809 219.206874 
L 152.209267 219.959921 
L 153.406347 220.208587 
L 156.158832 220.744802 
L 157.649757 221.014563 
L 159.697604 221.361392 
L 161.390138 221.627342 
L 164.419988 222.056636 
L 166.111738 222.270217 
L 168.504349 222.540324 
L 170.079324 222.697692 
L 172.174953 222.881927 
L 175.051324 223.088035 
L 177.220962 223.207699 
L 179.937658 223.314127 
L 180.340535 223.3258 
L 182.591748 223.371488 
L 185.109407 223.383322 
L 187.987586 223.346064 
L 189.819962 223.294118 
L 191.365587 223.233228 
L 193.271846 223.136612 
L 196.161498 222.944836 
L 198.815747 222.720563 
L 201.30821 222.468012 
L 202.055863 222.384333 
L 204.252374 222.117349 
L 207.0646 221.729463 
L 208.044797 221.58211 
L 210.312432 221.217132 
L 213.384857 220.66897 
L 215.217883 220.312529 
L 217.191843 219.904109 
L 218.413794 219.638511 
L 221.992276 218.804535 
L 224.002162 218.299395 
L 225.039993 218.028216 
L 228.74557 217.002492 
L 230.537816 216.474166 
L 231.872723 216.067006 
L 235.225219 214.993073 
L 235.400582 214.934874 
L 238.124724 214.00497 
L 240.051754 213.317856 
L 242.828383 212.285094 
L 243.949446 211.853828 
L 246.618184 210.794107 
L 248.320346 210.093871 
L 251.306486 208.81965 
L 253.249941 207.959026 
L 255.966444 206.714676 
L 257.142463 206.161007 
L 260.611583 204.475051 
L 261.047784 204.257491 
L 263.209289 203.161056 
L 265.364383 202.037453 
L 268.602589 200.292034 
L 270.289159 199.355799 
L 272.853804 197.896479 
L 274.231883 197.094565 
L 277.137615 195.362993 
L 278.587488 194.47834 
L 280.668421 193.184612 
L 282.172506 192.231882 
L 285.502706 190.069791 
L 287.241246 188.912249 
L 289.292974 187.520752 
L 292.445453 185.329067 
L 293.728782 184.418249 
L 296.08722 182.716305 
L 298.008747 181.30276 
L 299.902886 179.885728 
L 302.852498 177.632362 
L 303.306935 177.280134 
L 306.907244 174.44185 
L 308.498992 173.159978 
L 310.947239 171.156003 
L 313.317446 169.17856 
L 314.915553 167.824535 
L 318.034571 165.133777 
L 319.135704 164.168641 
L 321.89878 161.711907 
L 323.992254 159.817287 
L 326.421604 157.582766 
L 326.901075 157.137187 
L 329.244254 154.938008 
L 331.447662 152.837251 
L 334.824018 149.556586 
L 335.832666 148.56206 
L 337.955691 146.447019 
L 339.482927 144.907296 
L 343.490549 140.794371 
L 345.255882 138.949327 
L 346.922006 137.189274 
L 349.809166 134.096361 
L 350.498651 133.349676 
L 353.580119 129.974568 
L 354.232715 129.251815 
L 356.347058 126.891043 
L 360.319711 122.376295 
L 361.165833 121.401381 
L 363.171052 119.072241 
L 365.575009 116.245291 
L 368.698294 112.51599 
L 369.039279 112.104979 
L 373.022334 107.247642 
L 375.072154 104.707446 
L 375.630641 104.01059 
L 377.676956 101.439853 
L 380.923152 97.305552 
L 382.770382 94.922183 
L 384.577123 92.569466 
L 386.781994 89.669384 
L 388.359973 87.574339 
L 390.676561 84.469155 
L 394.053867 79.879286 
L 396.48365 76.530991 
L 396.850612 76.021954 
L 400.600785 70.769344 
L 402.705465 67.781166 
L 404.56519 65.116662 
L 405.892036 63.201809 
L 408.108302 59.977699 
L 410.066814 57.10182 
L 413.235373 52.395982 
L 414.319904 50.77019 
L 416.044811 48.168579 
L 419.351761 43.126418 
L 419.963929 42.18519 
L 422.232777 38.675389 
L 424.249375 35.527545 
L 426.85668 31.418201 
L 430.172351 26.128191 
L 430.770236 25.16664 
L 434.405042 19.270637 
L 436.569067 15.719344 
L 437.953846 13.430769 
L 437.953846 223.384276 
z
" clip-path="url(#pbd36b09f84)" style="fill: #ffb2df; opacity: 0.5"/>
   </g>
   <g id="matplotlib.axis_1">
    <g id="xtick_1">
     <g id="line2d_1">
      <defs>
       <path id="mad4a75fd73" d="M 0 0 
L 0 3.5 
" style="stroke: #000000; stroke-width: 0.8"/>
      </defs>
      <g>
       <use xlink:href="#mad4a75fd73" x="15.646154" y="223.384276" style="stroke: #000000; stroke-width: 0.8"/>
      </g>
     </g>
     <g id="text_1">
      <!-- $\mathdefault{−2}$ -->
      <g transform="translate(9.281114 237.302774)scale(0.1 -0.1)">
       <defs>
        <path id="CMSY10-0" d="M 4218 1472 
C 4326 1472 4442 1472 4442 1600 
C 4442 1728 4326 1728 4218 1728 
L 755 1728 
C 646 1728 531 1728 531 1600 
C 531 1472 646 1472 755 1472 
L 4218 1472 
z
" transform="scale(0.015625)"/>
        <path id="CMR17-32" d="M 2669 990 
L 2554 990 
C 2490 537 2438 460 2413 422 
C 2381 371 1920 371 1830 371 
L 602 371 
C 832 620 1280 1073 1824 1596 
C 2214 1966 2669 2400 2669 3033 
C 2669 3788 2067 4224 1395 4224 
C 691 4224 262 3603 262 3027 
C 262 2777 448 2745 525 2745 
C 589 2745 781 2783 781 3007 
C 781 3206 614 3264 525 3264 
C 486 3264 448 3257 422 3244 
C 544 3788 915 4057 1306 4057 
C 1862 4057 2227 3616 2227 3033 
C 2227 2477 1901 1998 1536 1583 
L 262 147 
L 262 0 
L 2515 0 
L 2669 990 
z
" transform="scale(0.015625)"/>
       </defs>
       <use xlink:href="#CMSY10-0" transform="scale(0.996264)"/>
       <use xlink:href="#CMR17-32" transform="translate(77.487468 0)scale(0.996264)"/>
      </g>
     </g>
    </g>
    <g id="xtick_2">
     <g id="line2d_2">
      <g>
       <use xlink:href="#mad4a75fd73" x="100.107692" y="223.384276" style="stroke: #000000; stroke-width: 0.8"/>
      </g>
     </g>
     <g id="text_2">
      <!-- $\mathdefault{−1}$ -->
      <g transform="translate(93.742653 237.302774)scale(0.1 -0.1)">
       <defs>
        <path id="CMR17-31" d="M 1702 4083 
C 1702 4217 1696 4224 1606 4224 
C 1357 3927 979 3833 621 3820 
C 602 3820 570 3820 563 3808 
C 557 3795 557 3782 557 3648 
C 755 3648 1088 3686 1344 3839 
L 1344 467 
C 1344 243 1331 166 781 166 
L 589 166 
L 589 0 
C 896 6 1216 12 1523 12 
C 1830 12 2150 6 2458 0 
L 2458 166 
L 2266 166 
C 1715 166 1702 236 1702 467 
L 1702 4083 
z
" transform="scale(0.015625)"/>
       </defs>
       <use xlink:href="#CMSY10-0" transform="scale(0.996264)"/>
       <use xlink:href="#CMR17-31" transform="translate(77.487468 0)scale(0.996264)"/>
      </g>
     </g>
    </g>
    <g id="xtick_3">
     <g id="line2d_3">
      <g>
       <use xlink:href="#mad4a75fd73" x="184.569231" y="223.384276" style="stroke: #000000; stroke-width: 0.8"/>
      </g>
     </g>
    </g>
    <g id="xtick_4">
     <g id="line2d_4">
      <g>
       <use xlink:href="#mad4a75fd73" x="269.030769" y="223.384276" style="stroke: #000000; stroke-width: 0.8"/>
      </g>
     </g>
     <g id="text_3">
      <!-- $\mathdefault{1}$ -->
      <g transform="translate(266.540102 237.302774)scale(0.1 -0.1)">
       <use xlink:href="#CMR17-31" transform="scale(0.996264)"/>
      </g>
     </g>
    </g>
    <g id="xtick_5">
     <g id="line2d_5">
      <g>
       <use xlink:href="#mad4a75fd73" x="353.492308" y="223.384276" style="stroke: #000000; stroke-width: 0.8"/>
      </g>
     </g>
     <g id="text_4">
      <!-- $\mathdefault{2}$ -->
      <g transform="translate(351.00164 237.302774)scale(0.1 -0.1)">
       <use xlink:href="#CMR17-32" transform="scale(0.996264)"/>
      </g>
     </g>
    </g>
    <g id="xtick_6">
     <g id="line2d_6">
      <g>
       <use xlink:href="#mad4a75fd73" x="437.953846" y="223.384276" style="stroke: #000000; stroke-width: 0.8"/>
      </g>
     </g>
     <g id="text_5">
      <!-- $\mathdefault{3}$ -->
      <g transform="translate(435.463179 237.302774)scale(0.1 -0.1)">
       <defs>
        <path id="CMR17-33" d="M 1414 2176 
C 1984 2176 2234 1673 2234 1094 
C 2234 322 1824 25 1453 25 
C 1114 25 563 193 390 691 
C 422 678 454 678 486 678 
C 640 678 755 780 755 947 
C 755 1132 614 1216 486 1216 
C 378 1216 211 1164 211 927 
C 211 335 787 -128 1466 -128 
C 2176 -128 2720 432 2720 1087 
C 2720 1718 2208 2176 1600 2246 
C 2086 2347 2554 2776 2554 3353 
C 2554 3856 2048 4224 1472 4224 
C 890 4224 378 3862 378 3347 
C 378 3123 544 3084 627 3084 
C 762 3084 877 3167 877 3334 
C 877 3500 762 3584 627 3584 
C 602 3584 570 3584 544 3571 
C 730 3999 1235 4076 1459 4076 
C 1683 4076 2106 3966 2106 3347 
C 2106 3167 2080 2851 1862 2574 
C 1670 2329 1453 2316 1242 2297 
C 1210 2297 1062 2284 1037 2284 
C 992 2278 966 2272 966 2227 
C 966 2182 973 2176 1101 2176 
L 1414 2176 
z
" transform="scale(0.015625)"/>
       </defs>
       <use xlink:href="#CMR17-33" transform="scale(0.996264)"/>
      </g>
     </g>
    </g>
    <g id="xtick_7">
     <g id="line2d_7">
      <defs>
       <path id="md4119559ca" d="M 0 0 
L 0 2 
" style="stroke: #000000; stroke-width: 0.6"/>
      </defs>
      <g>
       <use xlink:href="#md4119559ca" x="32.538462" y="223.384276" style="stroke: #000000; stroke-width: 0.6"/>
      </g>
     </g>
    </g>
    <g id="xtick_8">
     <g id="line2d_8">
      <g>
       <use xlink:href="#md4119559ca" x="49.430769" y="223.384276" style="stroke: #000000; stroke-width: 0.6"/>
      </g>
     </g>
    </g>
    <g id="xtick_9">
     <g id="line2d_9">
      <g>
       <use xlink:href="#md4119559ca" x="66.323077" y="223.384276" style="stroke: #000000; stroke-width: 0.6"/>
      </g>
     </g>
    </g>
    <g id="xtick_10">
     <g id="line2d_10">
      <g>
       <use xlink:href="#md4119559ca" x="83.215385" y="223.384276" style="stroke: #000000; stroke-width: 0.6"/>
      </g>
     </g>
    </g>
    <g id="xtick_11">
     <g id="line2d_11">
      <g>
       <use xlink:href="#md4119559ca" x="117" y="223.384276" style="stroke: #000000; stroke-width: 0.6"/>
      </g>
     </g>
    </g>
    <g id="xtick_12">
     <g id="line2d_12">
      <g>
       <use xlink:href="#md4119559ca" x="133.892308" y="223.384276" style="stroke: #000000; stroke-width: 0.6"/>
      </g>
     </g>
    </g>
    <g id="xtick_13">
     <g id="line2d_13">
      <g>
       <use xlink:href="#md4119559ca" x="150.784615" y="223.384276" style="stroke: #000000; stroke-width: 0.6"/>
      </g>
     </g>
    </g>
    <g id="xtick_14">
     <g id="line2d_14">
      <g>
       <use xlink:href="#md4119559ca" x="167.676923" y="223.384276" style="stroke: #000000; stroke-width: 0.6"/>
      </g>
     </g>
    </g>
    <g id="xtick_15">
     <g id="line2d_15">
      <g>
       <use xlink:href="#md4119559ca" x="201.461538" y="223.384276" style="stroke: #000000; stroke-width: 0.6"/>
      </g>
     </g>
    </g>
    <g id="xtick_16">
     <g id="line2d_16">
      <g>
       <use xlink:href="#md4119559ca" x="218.353846" y="223.384276" style="stroke: #000000; stroke-width: 0.6"/>
      </g>
     </g>
    </g>
    <g id="xtick_17">
     <g id="line2d_17">
      <g>
       <use xlink:href="#md4119559ca" x="235.246154" y="223.384276" style="stroke: #000000; stroke-width: 0.6"/>
      </g>
     </g>
    </g>
    <g id="xtick_18">
     <g id="line2d_18">
      <g>
       <use xlink:href="#md4119559ca" x="252.138462" y="223.384276" style="stroke: #000000; stroke-width: 0.6"/>
      </g>
     </g>
    </g>
    <g id="xtick_19">
     <g id="line2d_19">
      <g>
       <use xlink:href="#md4119559ca" x="285.923077" y="223.384276" style="stroke: #000000; stroke-width: 0.6"/>
      </g>
     </g>
    </g>
    <g id="xtick_20">
     <g id="line2d_20">
      <g>
       <use xlink:href="#md4119559ca" x="302.815385" y="223.384276" style="stroke: #000000; stroke-width: 0.6"/>
      </g>
     </g>
    </g>
    <g id="xtick_21">
     <g id="line2d_21">
      <g>
       <use xlink:href="#md4119559ca" x="319.707692" y="223.384276" style="stroke: #000000; stroke-width: 0.6"/>
      </g>
     </g>
    </g>
    <g id="xtick_22">
     <g id="line2d_22">
      <g>
       <use xlink:href="#md4119559ca" x="336.6" y="223.384276" style="stroke: #000000; stroke-width: 0.6"/>
      </g>
     </g>
    </g>
    <g id="xtick_23">
     <g id="line2d_23">
      <g>
       <use xlink:href="#md4119559ca" x="370.384615" y="223.384276" style="stroke: #000000; stroke-width: 0.6"/>
      </g>
     </g>
    </g>
    <g id="xtick_24">
     <g id="line2d_24">
      <g>
       <use xlink:href="#md4119559ca" x="387.276923" y="223.384276" style="stroke: #000000; stroke-width: 0.6"/>
      </g>
     </g>
    </g>
    <g id="xtick_25">
     <g id="line2d_25">
      <g>
       <use xlink:href="#md4119559ca" x="404.169231" y="223.384276" style="stroke: #000000; stroke-width: 0.6"/>
      </g>
     </g>
    </g>
    <g id="xtick_26">
     <g id="line2d_26">
      <g>
       <use xlink:href="#md4119559ca" x="421.061538" y="223.384276" style="stroke: #000000; stroke-width: 0.6"/>
      </g>
     </g>
    </g>
   </g>
   <g id="matplotlib.axis_2">
    <g id="ytick_1">
     <g id="line2d_27">
      <defs>
       <path id="m223b547aab" d="M 0 0 
L -3.5 0 
" style="stroke: #000000; stroke-width: 0.8"/>
      </defs>
      <g>
       <use xlink:href="#m223b547aab" x="184.569231" y="316.696945" style="stroke: #000000; stroke-width: 0.8"/>
      </g>
     </g>
     <g id="text_6">
      <!-- $\mathdefault{−1.0}$ -->
      <g transform="translate(157.090408 320.156195)scale(0.1 -0.1)">
       <defs>
        <path id="CMMI12-3a" d="M 1178 307 
C 1178 492 1024 620 870 620 
C 685 620 557 467 557 313 
C 557 128 710 0 864 0 
C 1050 0 1178 153 1178 307 
z
" transform="scale(0.015625)"/>
        <path id="CMR17-30" d="M 2688 2038 
C 2688 2430 2682 3099 2413 3613 
C 2176 4063 1798 4224 1466 4224 
C 1158 4224 768 4082 525 3620 
C 269 3137 243 2539 243 2038 
C 243 1671 250 1112 448 623 
C 723 -39 1216 -128 1466 -128 
C 1760 -128 2208 -7 2470 604 
C 2662 1048 2688 1568 2688 2038 
z
M 1466 -26 
C 1056 -26 813 328 723 816 
C 653 1196 653 1749 653 2109 
C 653 2604 653 3015 736 3407 
C 858 3954 1216 4121 1466 4121 
C 1728 4121 2067 3947 2189 3420 
C 2272 3054 2278 2623 2278 2109 
C 2278 1691 2278 1176 2202 797 
C 2067 96 1690 -26 1466 -26 
z
" transform="scale(0.015625)"/>
       </defs>
       <use xlink:href="#CMSY10-0" transform="scale(0.996264)"/>
       <use xlink:href="#CMR17-31" transform="translate(77.487468 0)scale(0.996264)"/>
       <use xlink:href="#CMMI12-3a" transform="translate(123.177945 0)scale(0.996264)"/>
       <use xlink:href="#CMR17-30" transform="translate(150.275122 0)scale(0.996264)"/>
      </g>
     </g>
    </g>
    <g id="ytick_2">
     <g id="line2d_28">
      <g>
       <use xlink:href="#m223b547aab" x="184.569231" y="270.040611" style="stroke: #000000; stroke-width: 0.8"/>
      </g>
     </g>
     <g id="text_7">
      <!-- $\mathdefault{−0.5}$ -->
      <g transform="translate(157.090408 273.49986)scale(0.1 -0.1)">
       <defs>
        <path id="CMR17-35" d="M 730 3750 
C 794 3724 1056 3641 1325 3641 
C 1920 3641 2246 3961 2432 4140 
C 2432 4191 2432 4224 2394 4224 
C 2387 4224 2374 4224 2323 4198 
C 2099 4102 1837 4032 1517 4032 
C 1325 4032 1037 4055 723 4191 
C 653 4224 640 4224 634 4224 
C 602 4224 595 4217 595 4090 
L 595 2231 
C 595 2113 595 2080 659 2080 
C 691 2080 704 2093 736 2139 
C 941 2435 1222 2560 1542 2560 
C 1766 2560 2246 2415 2246 1293 
C 2246 1087 2246 716 2054 422 
C 1894 159 1645 25 1370 25 
C 947 25 518 319 403 812 
C 429 806 480 793 506 793 
C 589 793 749 838 749 1036 
C 749 1209 627 1280 506 1280 
C 358 1280 262 1190 262 1011 
C 262 454 704 -128 1382 -128 
C 2042 -128 2669 441 2669 1267 
C 2669 2054 2170 2662 1549 2662 
C 1222 2662 947 2540 730 2304 
L 730 3750 
z
" transform="scale(0.015625)"/>
       </defs>
       <use xlink:href="#CMSY10-0" transform="scale(0.996264)"/>
       <use xlink:href="#CMR17-30" transform="translate(77.487468 0)scale(0.996264)"/>
       <use xlink:href="#CMMI12-3a" transform="translate(123.177945 0)scale(0.996264)"/>
       <use xlink:href="#CMR17-35" transform="translate(150.275122 0)scale(0.996264)"/>
      </g>
     </g>
    </g>
    <g id="ytick_3">
     <g id="line2d_29">
      <g>
       <use xlink:href="#m223b547aab" x="184.569231" y="223.384276" style="stroke: #000000; stroke-width: 0.8"/>
      </g>
     </g>
    </g>
    <g id="ytick_4">
     <g id="line2d_30">
      <g>
       <use xlink:href="#m223b547aab" x="184.569231" y="176.727941" style="stroke: #000000; stroke-width: 0.8"/>
      </g>
     </g>
     <g id="text_8">
      <!-- $\mathdefault{0.5}$ -->
      <g transform="translate(164.839152 180.18719)scale(0.1 -0.1)">
       <use xlink:href="#CMR17-30" transform="scale(0.996264)"/>
       <use xlink:href="#CMMI12-3a" transform="translate(45.690477 0)scale(0.996264)"/>
       <use xlink:href="#CMR17-35" transform="translate(72.787654 0)scale(0.996264)"/>
      </g>
     </g>
    </g>
    <g id="ytick_5">
     <g id="line2d_31">
      <g>
       <use xlink:href="#m223b547aab" x="184.569231" y="130.071606" style="stroke: #000000; stroke-width: 0.8"/>
      </g>
     </g>
     <g id="text_9">
      <!-- $\mathdefault{1.0}$ -->
      <g transform="translate(164.839152 133.530855)scale(0.1 -0.1)">
       <use xlink:href="#CMR17-31" transform="scale(0.996264)"/>
       <use xlink:href="#CMMI12-3a" transform="translate(45.690477 0)scale(0.996264)"/>
       <use xlink:href="#CMR17-30" transform="translate(72.787654 0)scale(0.996264)"/>
      </g>
     </g>
    </g>
    <g id="ytick_6">
     <g id="line2d_32">
      <g>
       <use xlink:href="#m223b547aab" x="184.569231" y="83.415271" style="stroke: #000000; stroke-width: 0.8"/>
      </g>
     </g>
     <g id="text_10">
      <!-- $\mathdefault{1.5}$ -->
      <g transform="translate(164.839152 86.874521)scale(0.1 -0.1)">
       <use xlink:href="#CMR17-31" transform="scale(0.996264)"/>
       <use xlink:href="#CMMI12-3a" transform="translate(45.690477 0)scale(0.996264)"/>
       <use xlink:href="#CMR17-35" transform="translate(72.787654 0)scale(0.996264)"/>
      </g>
     </g>
    </g>
    <g id="ytick_7">
     <g id="line2d_33">
      <g>
       <use xlink:href="#m223b547aab" x="184.569231" y="36.758937" style="stroke: #000000; stroke-width: 0.8"/>
      </g>
     </g>
     <g id="text_11">
      <!-- $\mathdefault{2.0}$ -->
      <g transform="translate(164.839152 40.218186)scale(0.1 -0.1)">
       <use xlink:href="#CMR17-32" transform="scale(0.996264)"/>
       <use xlink:href="#CMMI12-3a" transform="translate(45.690477 0)scale(0.996264)"/>
       <use xlink:href="#CMR17-30" transform="translate(72.787654 0)scale(0.996264)"/>
      </g>
     </g>
    </g>
    <g id="ytick_8">
     <g id="line2d_34">
      <defs>
       <path id="m34c2a360fa" d="M 0 0 
L -2 0 
" style="stroke: #000000; stroke-width: 0.6"/>
      </defs>
      <g>
       <use xlink:href="#m34c2a360fa" x="184.569231" y="326.028212" style="stroke: #000000; stroke-width: 0.6"/>
      </g>
     </g>
    </g>
    <g id="ytick_9">
     <g id="line2d_35">
      <g>
       <use xlink:href="#m34c2a360fa" x="184.569231" y="307.365678" style="stroke: #000000; stroke-width: 0.6"/>
      </g>
     </g>
    </g>
    <g id="ytick_10">
     <g id="line2d_36">
      <g>
       <use xlink:href="#m34c2a360fa" x="184.569231" y="298.034412" style="stroke: #000000; stroke-width: 0.6"/>
      </g>
     </g>
    </g>
    <g id="ytick_11">
     <g id="line2d_37">
      <g>
       <use xlink:href="#m34c2a360fa" x="184.569231" y="288.703145" style="stroke: #000000; stroke-width: 0.6"/>
      </g>
     </g>
    </g>
    <g id="ytick_12">
     <g id="line2d_38">
      <g>
       <use xlink:href="#m34c2a360fa" x="184.569231" y="279.371878" style="stroke: #000000; stroke-width: 0.6"/>
      </g>
     </g>
    </g>
    <g id="ytick_13">
     <g id="line2d_39">
      <g>
       <use xlink:href="#m34c2a360fa" x="184.569231" y="260.709344" style="stroke: #000000; stroke-width: 0.6"/>
      </g>
     </g>
    </g>
    <g id="ytick_14">
     <g id="line2d_40">
      <g>
       <use xlink:href="#m34c2a360fa" x="184.569231" y="251.378077" style="stroke: #000000; stroke-width: 0.6"/>
      </g>
     </g>
    </g>
    <g id="ytick_15">
     <g id="line2d_41">
      <g>
       <use xlink:href="#m34c2a360fa" x="184.569231" y="242.04681" style="stroke: #000000; stroke-width: 0.6"/>
      </g>
     </g>
    </g>
    <g id="ytick_16">
     <g id="line2d_42">
      <g>
       <use xlink:href="#m34c2a360fa" x="184.569231" y="232.715543" style="stroke: #000000; stroke-width: 0.6"/>
      </g>
     </g>
    </g>
    <g id="ytick_17">
     <g id="line2d_43">
      <g>
       <use xlink:href="#m34c2a360fa" x="184.569231" y="214.053009" style="stroke: #000000; stroke-width: 0.6"/>
      </g>
     </g>
    </g>
    <g id="ytick_18">
     <g id="line2d_44">
      <g>
       <use xlink:href="#m34c2a360fa" x="184.569231" y="204.721742" style="stroke: #000000; stroke-width: 0.6"/>
      </g>
     </g>
    </g>
    <g id="ytick_19">
     <g id="line2d_45">
      <g>
       <use xlink:href="#m34c2a360fa" x="184.569231" y="195.390475" style="stroke: #000000; stroke-width: 0.6"/>
      </g>
     </g>
    </g>
    <g id="ytick_20">
     <g id="line2d_46">
      <g>
       <use xlink:href="#m34c2a360fa" x="184.569231" y="186.059208" style="stroke: #000000; stroke-width: 0.6"/>
      </g>
     </g>
    </g>
    <g id="ytick_21">
     <g id="line2d_47">
      <g>
       <use xlink:href="#m34c2a360fa" x="184.569231" y="167.396674" style="stroke: #000000; stroke-width: 0.6"/>
      </g>
     </g>
    </g>
    <g id="ytick_22">
     <g id="line2d_48">
      <g>
       <use xlink:href="#m34c2a360fa" x="184.569231" y="158.065407" style="stroke: #000000; stroke-width: 0.6"/>
      </g>
     </g>
    </g>
    <g id="ytick_23">
     <g id="line2d_49">
      <g>
       <use xlink:href="#m34c2a360fa" x="184.569231" y="148.73414" style="stroke: #000000; stroke-width: 0.6"/>
      </g>
     </g>
    </g>
    <g id="ytick_24">
     <g id="line2d_50">
      <g>
       <use xlink:href="#m34c2a360fa" x="184.569231" y="139.402873" style="stroke: #000000; stroke-width: 0.6"/>
      </g>
     </g>
    </g>
    <g id="ytick_25">
     <g id="line2d_51">
      <g>
       <use xlink:href="#m34c2a360fa" x="184.569231" y="120.740339" style="stroke: #000000; stroke-width: 0.6"/>
      </g>
     </g>
    </g>
    <g id="ytick_26">
     <g id="line2d_52">
      <g>
       <use xlink:href="#m34c2a360fa" x="184.569231" y="111.409072" style="stroke: #000000; stroke-width: 0.6"/>
      </g>
     </g>
    </g>
    <g id="ytick_27">
     <g id="line2d_53">
      <g>
       <use xlink:href="#m34c2a360fa" x="184.569231" y="102.077805" style="stroke: #000000; stroke-width: 0.6"/>
      </g>
     </g>
    </g>
    <g id="ytick_28">
     <g id="line2d_54">
      <g>
       <use xlink:href="#m34c2a360fa" x="184.569231" y="92.746538" style="stroke: #000000; stroke-width: 0.6"/>
      </g>
     </g>
    </g>
    <g id="ytick_29">
     <g id="line2d_55">
      <g>
       <use xlink:href="#m34c2a360fa" x="184.569231" y="74.084004" style="stroke: #000000; stroke-width: 0.6"/>
      </g>
     </g>
    </g>
    <g id="ytick_30">
     <g id="line2d_56">
      <g>
       <use xlink:href="#m34c2a360fa" x="184.569231" y="64.752738" style="stroke: #000000; stroke-width: 0.6"/>
      </g>
     </g>
    </g>
    <g id="ytick_31">
     <g id="line2d_57">
      <g>
       <use xlink:href="#m34c2a360fa" x="184.569231" y="55.421471" style="stroke: #000000; stroke-width: 0.6"/>
      </g>
     </g>
    </g>
    <g id="ytick_32">
     <g id="line2d_58">
      <g>
       <use xlink:href="#m34c2a360fa" x="184.569231" y="46.090204" style="stroke: #000000; stroke-width: 0.6"/>
      </g>
     </g>
    </g>
    <g id="ytick_33">
     <g id="line2d_59">
      <g>
       <use xlink:href="#m34c2a360fa" x="184.569231" y="27.42767" style="stroke: #000000; stroke-width: 0.6"/>
      </g>
     </g>
    </g>
    <g id="ytick_34">
     <g id="line2d_60">
      <g>
       <use xlink:href="#m34c2a360fa" x="184.569231" y="18.096403" style="stroke: #000000; stroke-width: 0.6"/>
      </g>
     </g>
    </g>
    <g id="ytick_35">
     <g id="line2d_61">
      <g>
       <use xlink:href="#m34c2a360fa" x="184.569231" y="8.765136" style="stroke: #000000; stroke-width: 0.6"/>
      </g>
     </g>
    </g>
   </g>
   <g id="line2d_62">
    <path d="M 15.646154 316.696945 
L 19.94105 318.890006 
L 23.973444 320.627812 
L 25.706403 321.281021 
L 29.552859 322.533754 
L 33.085903 323.449536 
L 35.939611 324.028649 
L 39.374556 324.5395 
L 44.335128 324.9273 
L 47.575725 324.963307 
L 51.350053 324.79487 
L 55.694266 324.328524 
L 60.244463 323.537318 
L 65.624588 322.216908 
L 70.161181 320.792016 
L 76.406674 318.385182 
L 80.568284 316.50761 
L 85.015143 314.270342 
L 90.300601 311.314592 
L 94.087588 309.007729 
L 100.513163 304.752081 
L 104.417156 301.967644 
L 110.542828 297.315298 
L 116.945115 292.108472 
L 122.646122 287.200056 
L 129.317653 281.160748 
L 136.963217 273.890535 
L 144.416681 266.491426 
L 155.03189 255.518106 
L 165.673227 244.129871 
L 182.270279 225.923911 
L 204.406072 201.619746 
L 214.937228 190.376023 
L 224.629407 180.37055 
L 231.451882 173.583415 
L 239.206024 166.179227 
L 244.805265 161.066815 
L 250.244326 156.310498 
L 258.01733 149.90955 
L 262.946604 146.114001 
L 268.350593 142.207613 
L 273.927884 138.474156 
L 279.912226 134.827823 
L 285.249212 131.909738 
L 290.766432 129.243467 
L 296.078322 127.030969 
L 299.824758 125.689254 
L 304.151567 124.373896 
L 307.506893 123.532397 
L 313.278919 122.463409 
L 317.245133 122.016221 
L 322.158203 121.799213 
L 324.66232 121.836154 
L 327.677994 122.016238 
L 332.314185 122.589048 
L 335.342639 123.161665 
L 339.470993 124.201591 
L 343.926452 125.668208 
L 348.919025 127.748667 
L 352.996523 129.800145 
L 357.969349 132.743087 
L 360.590784 134.494037 
L 365.301643 137.995088 
L 368.597612 140.720885 
L 373.041227 144.764124 
L 377.188544 148.927543 
L 381.077742 153.181327 
L 384.811771 157.590167 
L 388.54466 162.321805 
L 393.094497 168.535981 
L 398.090089 175.936863 
L 400.752899 180.133727 
L 405.83461 188.638981 
L 411.181211 198.30434 
L 414.23439 204.160128 
L 418.665672 213.102273 
L 423.652265 223.803996 
L 427.473653 232.471664 
L 432.455153 244.390287 
L 437.953846 258.376527 
L 437.953846 258.376527 
" clip-path="url(#pbd36b09f84)" style="fill: none; stroke: #0000cc; stroke-linecap: square"/>
   </g>
   <g id="line2d_63">
    <path d="M 15.646154 316.696945 
L 437.953846 83.415271 
L 437.953846 83.415271 
" clip-path="url(#pbd36b09f84)" style="fill: none; stroke: #3ccc00; stroke-linecap: square"/>
   </g>
   <g id="line2d_64">
    <path d="M 15.646154 130.071606 
L 22.11635 137.082947 
L 29.762613 145.015748 
L 37.620261 152.769475 
L 43.245484 158.072283 
L 49.0849 163.358085 
L 57.02779 170.189953 
L 61.737077 174.04568 
L 69.18782 179.849698 
L 74.680161 183.895684 
L 81.954899 188.950973 
L 87.03641 192.27684 
L 93.860423 196.477506 
L 101.426322 200.77883 
L 107.055702 203.736307 
L 113.49757 206.866348 
L 120.769051 210.073405 
L 127.167493 212.609389 
L 132.649921 214.569314 
L 138.736745 216.515024 
L 144.235873 218.064524 
L 148.827809 219.206874 
L 156.158832 220.744802 
L 161.390138 221.627342 
L 168.504349 222.540324 
L 175.051324 223.088035 
L 180.340535 223.3258 
L 185.109407 223.383322 
L 191.365587 223.233228 
L 196.161498 222.944836 
L 202.055863 222.384333 
L 208.044797 221.58211 
L 213.384857 220.66897 
L 218.413794 219.638511 
L 225.039993 218.028216 
L 231.872723 216.067006 
L 238.124724 214.00497 
L 243.949446 211.853828 
L 251.306486 208.81965 
L 257.142463 206.161007 
L 263.209289 203.161056 
L 270.289159 199.355799 
L 277.137615 195.362993 
L 282.172506 192.231882 
L 289.292974 187.520752 
L 296.08722 182.716305 
L 303.306935 177.280134 
L 310.947239 171.156003 
L 318.034571 165.133777 
L 323.992254 159.817287 
L 331.447662 152.837251 
L 339.482927 144.907296 
L 346.922006 137.189274 
L 354.232715 129.251815 
L 361.165833 121.401381 
L 369.039279 112.104979 
L 377.676956 101.439853 
L 386.781994 89.669384 
L 394.053867 79.879286 
L 402.705465 67.781166 
L 410.066814 57.10182 
L 419.351761 43.126418 
L 426.85668 31.418201 
L 436.569067 15.719344 
L 437.953846 13.430769 
L 437.953846 13.430769 
" clip-path="url(#pbd36b09f84)" style="fill: none; stroke: #cc0077; stroke-linecap: square"/>
   </g>
   <g id="patch_6">
    <path d="M 184.569231 331.2 
L 184.569231 7.2 
" style="fill: none; stroke: #000000; stroke-width: 0.8; stroke-linejoin: miter; stroke-linecap: square"/>
   </g>
   <g id="patch_7">
    <path d="M 7.2 223.384276 
L 446.4 223.384276 
" style="fill: none; stroke: #000000; stroke-width: 0.8; stroke-linejoin: miter; stroke-linecap: square"/>
   </g>
  </g>
 </g>
 <defs>
  <clipPath id="pbd36b09f84">
   <rect x="7.2" y="7.2" width="439.2" height="324"/>
  </clipPath>
 </defs>
</svg>
