<?xml version="1.0" encoding="utf-8" standalone="no"?>
<!DOCTYPE svg PUBLIC "-//W3C//DTD SVG 1.1//EN"
  "http://www.w3.org/Graphics/SVG/1.1/DTD/svg11.dtd">
<svg xmlns:xlink="http://www.w3.org/1999/xlink" width="453.087692pt" height="338.4pt" viewBox="0 0 453.087692 338.4" xmlns="http://www.w3.org/2000/svg" version="1.1">
 <metadata>
  <rdf:RDF xmlns:dc="http://purl.org/dc/elements/1.1/" xmlns:cc="http://creativecommons.org/ns#" xmlns:rdf="http://www.w3.org/1999/02/22-rdf-syntax-ns#">
   <cc:Work>
    <dc:type rdf:resource="http://purl.org/dc/dcmitype/StillImage"/>
    <dc:date>2022-12-21T16:28:40.772986</dc:date>
    <dc:format>image/svg+xml</dc:format>
    <dc:creator>
     <cc:Agent>
      <dc:title>Matplotlib v3.5.2, https://matplotlib.org/</dc:title>
     </cc:Agent>
    </dc:creator>
   </cc:Work>
  </rdf:RDF>
 </metadata>
 <defs>
  <style type="text/css">*{stroke-linejoin: round; stroke-linecap: butt}</style>
 </defs>
 <g id="figure_1">
  <g id="patch_1">
   <path d="M 0 338.4 
L 453.087692 338.4 
L 453.087692 0 
L 0 0 
L 0 338.4 
z
" style="fill: none"/>
  </g>
  <g id="axes_1">
   <g id="patch_2">
    <path d="M 7.2 331.2 
L 445.887692 331.2 
L 445.887692 7.2 
L 7.2 7.2 
L 7.2 331.2 
z
" style="fill: none"/>
   </g>
   <g id="patch_3">
    <path d="M 437.451391 83.416569 
L 434.534413 85.029811 
L 432.723676 86.031244 
L 431.369606 86.780117 
L 429.782121 87.65808 
L 426.001566 89.748926 
L 424.719225 90.458128 
L 423.107544 91.349473 
L 420.637354 92.715618 
L 418.793239 93.735511 
L 416.41866 95.048779 
L 414.324272 96.207086 
L 412.773793 97.064582 
L 409.425018 98.916632 
L 408.165962 99.612956 
L 405.750243 100.948976 
L 403.9069 101.968442 
L 401.635445 103.224677 
L 398.861468 104.758832 
L 397.790297 105.351246 
L 394.932489 106.931765 
L 393.983724 107.456482 
L 389.848725 109.743355 
L 389.483148 109.945538 
L 385.657522 112.061311 
L 385.118582 112.359373 
L 382.155109 113.99833 
L 380.239074 115.057999 
L 378.921618 115.786621 
L 376.844362 116.935454 
L 372.849371 119.144894 
L 371.418806 119.936072 
L 370.147682 120.639071 
L 368.230505 121.699371 
L 364.483386 123.771725 
L 363.279116 124.43775 
L 360.193323 126.144356 
L 358.770252 126.93139 
L 356.258139 128.320721 
L 354.033105 129.551282 
L 351.609419 130.891708 
L 350.495585 131.507717 
L 347.535494 133.144804 
L 346.423525 133.759781 
L 345.071367 134.507596 
L 341.307316 136.589315 
L 339.112286 137.803282 
L 337.662371 138.605162 
L 336.559098 139.21533 
L 334.479219 140.365613 
L 331.07077 142.250664 
L 330.164916 142.75165 
L 326.346655 144.863349 
L 324.058312 146.128924 
L 323.245423 146.578495 
L 321.397456 147.600518 
L 317.898011 149.535895 
L 316.421746 150.352348 
L 313.954303 151.716974 
L 312.138326 152.721305 
L 309.337978 154.270045 
L 307.438963 155.320301 
L 306.535785 155.819806 
L 303.237379 157.643999 
L 302.541854 158.02866 
L 299.595776 159.657997 
L 296.505245 161.367224 
L 295.89637 161.703964 
L 292.621895 163.514921 
L 291.919297 163.903495 
L 289.743958 165.106572 
L 287.811313 166.175427 
L 284.25498 168.142267 
L 283.300362 168.67022 
L 281.638616 169.589254 
L 278.021729 171.589583 
L 276.464557 172.450781 
L 274.758925 173.394086 
L 271.210621 175.356485 
L 270.557056 175.717941 
L 267.060717 177.651601 
L 265.931506 178.276115 
L 262.66356 180.083461 
L 260.53875 181.258593 
L 259.604061 181.775525 
L 257.683714 182.837578 
L 255.051209 184.293493 
L 252.347245 185.788928 
L 250.416124 186.856939 
L 248.650815 187.833248 
L 246.637515 188.946709 
L 244.852606 189.933858 
L 242.234881 191.381598 
L 239.354219 192.974756 
L 238.501579 193.446312 
L 235.563492 195.071228 
L 233.759878 196.068722 
L 231.064819 197.559232 
L 228.960126 198.723238 
L 227.817449 199.355199 
L 225.863967 200.435577 
L 222.697941 202.186557 
L 220.533259 203.38374 
L 219.702184 203.843369 
L 217.524341 205.04783 
L 215.475583 206.180902 
L 212.371476 207.897637 
L 211.364485 208.454556 
L 208.968651 209.779579 
L 206.612723 211.082531 
L 204.166418 212.435467 
L 202.185688 213.530915 
L 199.960942 214.761317 
L 197.389673 216.183364 
L 196.248916 216.814263 
L 193.971742 218.073661 
L 191.464536 219.460278 
L 189.255188 220.682164 
L 187.098903 221.874703 
L 185.921755 222.525728 
L 182.181867 224.594083 
L 181.97092 224.710748 
L 178.392702 226.689691 
L 176.779331 227.581971 
L 175.552471 228.260489 
L 172.404365 230.001558 
L 169.577852 231.564769 
L 169.128433 231.813321 
L 167.014475 232.982451 
L 163.799476 234.760516 
L 162.699438 235.368895 
L 159.827253 236.957364 
L 158.652973 237.606803 
L 155.033075 239.608798 
L 153.873947 240.249857 
L 150.56504 242.079857 
L 148.548369 243.195182 
L 146.905379 244.103843 
L 144.045209 245.685668 
L 143.37503 246.056312 
L 140.591376 247.595819 
L 138.64626 248.671571 
L 135.478927 250.423274 
L 134.117115 251.176427 
L 132.997972 251.795372 
L 129.336763 253.820214 
L 126.931795 255.150288 
L 125.216554 256.098907 
L 123.234856 257.19489 
L 121.981018 257.888329 
L 119.695058 259.152586 
L 116.671552 260.824744 
L 115.305098 261.580465 
L 113.120417 262.788709 
L 111.477635 263.697254 
L 109.051132 265.039238 
L 106.79463 266.287203 
L 104.391198 267.616428 
L 102.190405 268.833582 
L 101.386145 269.278381 
L 98.231998 271.02279 
L 95.41956 272.578217 
L 95.06242 272.775734 
L 92.622456 274.125163 
L 90.499628 275.299199 
L 87.522409 276.945758 
L 86.549655 277.483743 
L 83.00584 279.443659 
L 82.316644 279.824821 
L 78.329477 282.029934 
L 78.021267 282.200391 
L 74.405523 284.200088 
L 71.997161 285.532039 
L 71.505613 285.803891 
L 69.346113 286.998208 
L 66.534658 288.553091 
L 64.428526 289.717894 
L 61.76403 291.1915 
L 59.221419 292.597699 
L 58.644842 292.916576 
L 55.738812 294.523764 
L 54.271289 295.335382 
L 52.567918 296.277436 
L 50.191587 297.591672 
L 46.636907 299.557598 
L 44.67162 300.644505 
L 44.034019 300.997132 
L 42.051868 302.093366 
L 38.967873 303.798978 
L 37.271974 304.7369 
L 34.128459 306.475429 
L 31.693801 307.821924 
L 30.090247 308.708774 
L 27.948055 309.893519 
L 25.606849 311.188329 
L 24.831426 311.617179 
L 20.989259 313.7421 
L 19.558124 314.533593 
L 17.282726 315.792008 
L 15.636302 316.702568 
L 15.636302 316.702568 
L 18.20624 318.059264 
L 20.865352 319.328411 
L 21.328216 319.535497 
L 23.085517 320.284741 
L 24.842817 320.975934 
L 25.652162 321.27492 
L 28.573313 322.253694 
L 31.078775 322.96963 
L 32.228169 323.26043 
L 34.152348 323.694905 
L 35.890787 324.031676 
L 38.521518 324.442044 
L 41.429803 324.758873 
L 42.181373 324.81772 
L 45.165785 324.95949 
L 47.518649 324.969231 
L 50.11672 324.877462 
L 51.734046 324.766864 
L 52.902664 324.661756 
L 54.826059 324.443285 
L 56.749455 324.168957 
L 58.162903 323.932236 
L 59.994447 323.581829 
L 61.331642 323.295246 
L 64.437577 322.531118 
L 67.346514 321.693097 
L 68.743112 321.249574 
L 70.525167 320.645513 
L 72.909578 319.771477 
L 74.887666 318.990263 
L 76.178558 318.453466 
L 79.963089 316.759552 
L 80.895435 316.315243 
L 83.161515 315.191824 
L 86.642904 313.34837 
L 88.122388 312.522873 
L 89.683065 311.625468 
L 91.52257 310.533255 
L 93.312128 309.435552 
L 96.667153 307.286537 
L 99.317907 305.50705 
L 99.99869 305.038703 
L 102.692219 303.141348 
L 104.985159 301.471663 
L 106.146913 300.607035 
L 108.739597 298.633345 
L 110.351554 297.376237 
L 114.139454 294.334825 
L 114.289682 294.21174 
L 116.980077 291.976602 
L 119.015281 290.247895 
L 120.997553 288.533811 
L 122.860357 286.896564 
L 126.190061 283.908557 
L 127.347759 282.85183 
L 130.711844 279.731259 
L 132.233415 278.296319 
L 133.423051 277.164596 
L 136.84575 273.862334 
L 139.280917 271.473078 
L 140.029411 270.732357 
L 141.979862 268.788682 
L 145.033564 265.70817 
L 147.779528 262.901499 
L 148.444695 262.216698 
L 151.734775 258.802924 
L 153.910299 256.522741 
L 154.532657 255.8673 
L 157.577485 252.641731 
L 160.018918 250.034308 
L 162.711474 247.139144 
L 164.8085 244.871532 
L 165.477294 244.146174 
L 167.420113 242.033582 
L 170.233126 238.96177 
L 172.744253 236.20853 
L 174.684592 234.075168 
L 177.48495 230.988965 
L 178.250297 230.144295 
L 181.004761 227.101267 
L 183.087677 224.798037 
L 184.881703 222.813698 
L 186.571024 220.945337 
L 190.366909 216.750684 
L 190.956746 216.099627 
L 192.800045 214.066844 
L 196.722116 209.75363 
L 197.414746 208.994026 
L 199.583764 206.620176 
L 201.793754 204.210078 
L 204.577684 201.188351 
L 205.657049 200.021564 
L 209.043235 196.38056 
L 211.054001 194.2338 
L 212.345867 192.861138 
L 214.143741 190.959936 
L 217.528101 187.41205 
L 219.407414 185.460764 
L 220.797585 184.026593 
L 224.313231 180.437009 
L 226.01712 178.71768 
L 227.752021 176.981545 
L 230.584509 174.180032 
L 231.706876 173.081749 
L 234.670617 170.215453 
L 235.071145 169.831977 
L 238.498698 166.589902 
L 240.047394 165.149047 
L 243.354641 162.124762 
L 243.593765 161.908961 
L 246.261289 159.528758 
L 247.961916 158.037964 
L 250.185052 156.121555 
L 253.208233 153.576573 
L 254.997426 152.104732 
L 256.605823 150.804095 
L 259.350705 148.63501 
L 260.553451 147.705173 
L 262.877775 145.944833 
L 265.137258 144.28098 
L 267.132274 142.851791 
L 271.009722 140.184738 
L 271.877227 139.608582 
L 273.544928 138.522603 
L 277.349058 136.154472 
L 277.455753 136.090284 
L 280.178747 134.494321 
L 283.419824 132.702844 
L 285.868125 131.429767 
L 286.85142 130.938335 
L 288.460175 130.15927 
L 291.543995 128.754088 
L 293.587584 127.888143 
L 295.734945 127.035532 
L 297.105634 126.522527 
L 298.813984 125.917742 
L 301.896795 124.925292 
L 303.801354 124.377005 
L 305.143892 124.020812 
L 306.98854 123.572844 
L 308.833188 123.173513 
L 311.267149 122.722272 
L 312.046368 122.596247 
L 314.024739 122.317005 
L 315.826319 122.114154 
L 317.627899 121.961039 
L 319.339819 121.86225 
L 321.908769 121.800698 
L 321.956461 121.80055 
L 324.279648 121.837732 
L 325.984014 121.920903 
L 327.68838 122.052026 
L 329.498325 122.244417 
L 331.720049 122.556416 
L 333.549911 122.876999 
L 334.71581 123.111583 
L 336.62153 123.5464 
L 338.527251 124.045672 
L 340.554153 124.648328 
L 342.087605 125.153914 
L 344.813652 126.159711 
L 347.116156 127.117413 
L 347.91811 127.47452 
L 349.680835 128.302631 
L 351.443559 129.190617 
L 352.393719 129.694327 
L 353.934968 130.54904 
L 356.515016 132.085128 
L 358.34594 133.25612 
L 360.38908 134.643131 
L 362.813369 136.400076 
L 364.506351 137.69942 
L 366.090083 138.969388 
L 367.673816 140.292486 
L 369.143531 141.568265 
L 370.881853 143.137291 
L 372.620174 144.772012 
L 374.704622 146.819713 
L 375.351003 147.474231 
L 377.155504 149.350774 
L 378.960004 151.300491 
L 379.359189 151.741753 
L 380.841879 153.412497 
L 382.324568 155.133588 
L 383.556181 156.601785 
L 385.076418 158.462637 
L 386.596655 160.377559 
L 389.220692 163.811258 
L 390.987235 166.215351 
L 392.446042 168.257279 
L 393.90485 170.350823 
L 395.41842 172.577904 
L 397.164747 175.217517 
L 398.455094 177.216466 
L 400.441263 180.374641 
L 402.427433 183.632174 
L 402.658857 184.01824 
L 404.169328 186.57157 
L 405.679799 189.183356 
L 407.06622 191.632438 
L 408.45264 194.131416 
L 409.236925 195.567278 
L 411.660673 200.106809 
L 413.575971 203.804053 
L 415.025144 206.666588 
L 416.474316 209.585587 
L 418.496109 213.752996 
L 419.951693 216.822325 
L 421.407278 219.949835 
L 422.622701 222.606161 
L 423.789676 225.195207 
L 425.117347 228.187 
L 426.445019 231.228259 
L 428.631946 236.346361 
L 431.043706 242.148584 
L 433.534864 248.31744 
L 434.857771 251.666511 
L 436.154581 254.999111 
L 437.451391 258.381068 
z
" clip-path="url(#pf806833757)" style="fill: #b2b3ff; opacity: 0.5"/>
   </g>
   <g id="patch_4">
    <path d="M 437.451391 13.430769 
L 434.770679 17.854939 
L 432.885704 20.937638 
L 431.778981 22.736727 
L 428.26503 28.395783 
L 426.16266 31.74285 
L 425.715433 32.451118 
L 422.95718 36.790348 
L 420.358854 40.832363 
L 419.082553 42.801596 
L 417.304072 45.527846 
L 414.449641 49.860085 
L 411.191552 54.739685 
L 410.061925 56.415267 
L 406.954898 60.980791 
L 406.258649 61.995193 
L 403.184054 66.436728 
L 402.142592 67.927166 
L 400.129336 70.788178 
L 396.340923 76.099803 
L 396.050754 76.502762 
L 393.887795 79.489075 
L 391.235899 83.108592 
L 388.345641 87.00094 
L 387.078015 88.690792 
L 385.282939 91.065759 
L 383.39437 93.541618 
L 381.015364 96.627146 
L 377.990619 100.496612 
L 376.090722 102.896425 
L 374.91036 104.375456 
L 371.884816 108.124847 
L 370.053435 110.36522 
L 366.728524 114.376473 
L 365.557859 115.77154 
L 362.609357 119.245424 
L 361.830566 120.153471 
L 358.135795 124.40728 
L 357.162423 125.513034 
L 354.60935 128.383824 
L 353.675472 129.423245 
L 349.582562 133.911279 
L 348.615846 134.955287 
L 346.520148 137.197508 
L 344.98841 138.818126 
L 342.297885 141.627536 
L 339.0633 144.942225 
L 338.269499 145.745202 
L 335.399429 148.613982 
L 334.288319 149.710094 
L 331.966224 151.974712 
L 329.877863 153.981191 
L 327.119206 156.587857 
L 325.373169 158.211912 
L 323.247505 160.162097 
L 320.126166 162.972078 
L 318.013767 164.837524 
L 315.712076 166.83683 
L 314.258672 168.081404 
L 311.982951 170.002324 
L 311.03159 170.795298 
L 307.60796 173.599849 
L 305.416205 175.354937 
L 303.0151 177.241519 
L 301.083011 178.732147 
L 300.541713 179.145375 
L 298.37484 180.780338 
L 295.019929 183.250985 
L 293.311454 184.480797 
L 292.041644 185.382449 
L 289.780453 186.961877 
L 286.600067 189.12663 
L 283.804879 190.974447 
L 282.577275 191.769793 
L 281.565921 192.417612 
L 277.432386 194.995622 
L 275.637493 196.080185 
L 275.041897 196.435407 
L 273.035811 197.614757 
L 270.275626 199.194309 
L 267.209596 200.890332 
L 266.651219 201.192574 
L 262.688851 203.278632 
L 260.778485 204.247604 
L 260.066228 204.602751 
L 256.49719 206.332264 
L 255.650891 206.730122 
L 252.575783 208.136251 
L 251.372411 208.669631 
L 249.163391 209.624044 
L 246.827608 210.598428 
L 244.469836 211.545712 
L 242.696979 212.233991 
L 240.956411 212.88969 
L 238.90297 213.637715 
L 236.32189 214.538739 
L 234.563065 215.127703 
L 231.269705 216.175988 
L 229.92315 216.58412 
L 228.072678 217.125595 
L 224.658507 218.065713 
L 223.205758 218.442564 
L 221.364667 218.900274 
L 218.52715 219.56219 
L 216.082893 220.090051 
L 215.1834 220.274448 
L 211.914094 220.899981 
L 211.156201 221.034988 
L 207.526679 221.629336 
L 207.058117 221.699771 
L 204.272575 222.088785 
L 202.061614 222.361346 
L 200.920265 222.489506 
L 198.911122 222.694363 
L 195.37921 222.990335 
L 194.112775 223.076543 
L 191.612055 223.215892 
L 188.570869 223.330113 
L 187.349073 223.358928 
L 185.716561 223.382157 
L 183.403739 223.385156 
L 181.524829 223.361777 
L 179.502271 223.310746 
L 176.072838 223.162931 
L 173.945789 223.032511 
L 171.516542 222.847282 
L 169.897174 222.702315 
L 169.049538 222.61958 
L 166.531121 222.34598 
L 163.5847 221.973102 
L 162.430261 221.811487 
L 160.112962 221.460708 
L 157.858499 221.085656 
L 154.967733 220.555996 
L 154.02628 220.371673 
L 151.095101 219.760581 
L 148.447954 219.160302 
L 148.017673 219.058389 
L 144.235946 218.110469 
L 142.008902 217.508379 
L 140.005431 216.938952 
L 138.629641 216.532685 
L 136.768876 215.963466 
L 133.465871 214.897151 
L 131.924454 214.375056 
L 130.208954 213.775684 
L 127.798372 212.900857 
L 126.074372 212.251834 
L 124.389679 211.598786 
L 122.078911 210.672785 
L 120.544868 210.038711 
L 116.32276 208.213903 
L 114.499796 207.389891 
L 112.930721 206.663196 
L 110.830263 205.665134 
L 108.243638 204.396322 
L 106.680554 203.608326 
L 104.971486 202.728403 
L 102.662088 201.508979 
L 99.611218 199.844434 
L 97.71087 198.776769 
L 95.203978 197.332117 
L 93.587864 196.378955 
L 91.726514 195.259939 
L 88.971394 193.561912 
L 88.69403 193.388211 
L 85.750253 191.513569 
L 83.830598 190.260501 
L 82.241204 189.204733 
L 79.052333 187.036552 
L 76.284783 185.100804 
L 74.095531 183.533972 
L 73.834729 183.345223 
L 69.967931 180.494416 
L 68.633266 179.487675 
L 66.99722 178.237672 
L 64.333145 176.164662 
L 61.359956 173.796182 
L 59.844628 172.566758 
L 57.743311 170.836997 
L 56.883798 170.121122 
L 54.829134 168.390197 
L 51.781764 165.772017 
L 50.581504 164.72409 
L 47.762552 162.225772 
L 46.076917 160.706976 
L 43.835825 158.658855 
L 40.421699 155.475419 
L 39.51511 154.617249 
L 37.468688 152.660311 
L 34.046724 149.326644 
L 33.323586 148.61234 
L 31.453891 146.749595 
L 27.481271 142.715667 
L 25.599165 140.768395 
L 23.308954 138.367568 
L 22.389338 137.393859 
L 19.083302 133.847568 
L 17.391093 132.00466 
L 15.636302 130.073769 
L 15.636302 316.702568 
L 17.626118 315.602095 
L 19.399213 314.62148 
L 21.888864 313.244571 
L 23.27326 312.478927 
L 26.616666 310.629847 
L 29.263516 309.166 
L 30.383413 308.546637 
L 32.545372 307.35096 
L 35.293261 305.831232 
L 37.757582 304.468333 
L 38.802061 303.890681 
L 41.061963 302.640836 
L 42.630618 301.773287 
L 44.990692 300.468041 
L 46.411576 299.682218 
L 49.584039 297.927678 
L 51.47533 296.881694 
L 52.923688 296.080676 
L 55.611746 294.594038 
L 57.289394 293.66621 
L 59.660716 292.354744 
L 62.123258 290.992829 
L 63.868534 290.027599 
L 65.838718 288.937983 
L 67.934404 287.778958 
L 71.532296 285.789134 
L 72.337963 285.343558 
L 75.219002 283.750191 
L 77.220357 282.643336 
L 79.346444 281.467498 
L 80.799791 280.663721 
L 83.970405 278.910203 
L 85.68433 277.962313 
L 86.702906 277.398987 
L 89.956369 275.59965 
L 92.106278 274.410637 
L 94.093469 273.311615 
L 96.682501 271.879744 
L 97.641152 271.349559 
L 100.899899 269.5473 
L 103.13228 268.312676 
L 104.627015 267.486008 
L 106.567483 266.412827 
L 107.866191 265.694573 
L 111.360692 263.76193 
L 112.627319 263.061418 
L 115.093773 261.697339 
L 116.989096 260.649125 
L 119.031627 259.519498 
L 121.901874 257.9321 
L 124.165045 256.680447 
L 125.578851 255.898538 
L 128.018046 254.549534 
L 131.076863 252.857847 
L 132.494319 252.073919 
L 135.025133 250.674246 
L 136.947138 249.611275 
L 137.725322 249.180898 
L 140.499988 247.646362 
L 142.361279 246.61697 
L 143.909386 245.760785 
L 147.995499 243.500948 
L 148.462789 243.242512 
L 151.114518 241.775967 
L 152.517233 241.000191 
L 155.510097 239.34498 
L 158.367468 237.764703 
L 159.659398 237.050197 
L 162.621973 235.411737 
L 163.232298 235.074195 
L 166.203476 233.430977 
L 168.458841 232.183641 
L 171.231598 230.65016 
L 172.998536 229.67295 
L 173.582582 229.349942 
L 176.481273 227.746813 
L 179.416692 226.123371 
L 181.342186 225.058472 
L 183.92823 223.628253 
L 186.041214 222.459661 
L 188.308865 221.20553 
L 188.755296 220.95863 
L 191.527315 219.425558 
L 194.115782 217.993999 
L 196.642804 216.596422 
L 198.831962 215.385702 
L 200.974147 214.200961 
L 201.655575 213.824096 
L 203.675777 212.706817 
L 205.92337 211.46378 
L 207.540769 210.569273 
L 211.139149 208.579179 
L 213.797819 207.108794 
L 215.530771 206.15038 
L 217.253335 205.197711 
L 218.678513 204.409513 
L 220.837852 203.215284 
L 222.597812 202.241933 
L 224.866018 200.987496 
L 227.583601 199.484529 
L 230.296659 197.984065 
L 231.686748 197.215272 
L 234.622884 195.591434 
L 236.645429 194.47286 
L 237.519081 193.989685 
L 241.269873 191.915299 
L 242.431202 191.273023 
L 244.05855 190.373013 
L 246.488738 189.028991 
L 249.690035 187.258505 
L 250.80539 186.641655 
L 252.566431 185.667706 
L 254.179544 184.775569 
L 257.472886 182.954177 
L 259.752263 181.693562 
L 262.103453 180.39323 
L 263.762575 179.475648 
L 266.539223 177.940015 
L 266.938031 177.719453 
L 269.438573 176.336521 
L 272.68776 174.53955 
L 274.957884 173.284051 
L 276.882808 172.219467 
L 278.179224 171.50248 
L 280.658037 170.131566 
L 281.664208 169.5751 
L 284.506637 168.003087 
L 286.262305 167.03211 
L 288.264534 165.924772 
L 291.503185 164.133627 
L 294.098743 162.698146 
L 295.921228 161.690216 
L 298.209985 160.424413 
L 299.65796 159.623606 
L 302.608465 157.991821 
L 303.866483 157.296071 
L 306.878128 155.630472 
L 308.96896 154.474132 
L 309.355956 154.260103 
L 312.46306 152.54171 
L 314.643617 151.335747 
L 317.212062 149.915262 
L 319.006912 148.922615 
L 321.028501 147.804569 
L 323.933629 146.19788 
L 324.563114 145.849742 
L 327.638705 144.148778 
L 329.415216 143.166273 
L 332.115288 141.672991 
L 333.76933 140.758219 
L 335.164512 139.98661 
L 337.660382 138.606262 
L 340.940687 136.79208 
L 342.767042 135.782009 
L 345.039901 134.524998 
L 346.901209 133.495597 
L 349.031719 132.317312 
L 349.593468 132.006636 
L 351.988367 130.68213 
L 355.179066 128.917505 
L 357.729882 127.506769 
L 358.698069 126.971311 
L 360.946836 125.727624 
L 363.336406 124.406066 
L 364.750602 123.623941 
L 366.587142 122.608237 
L 370.419033 120.488999 
L 370.829304 120.262098 
L 373.491348 118.789847 
L 376.865989 116.923493 
L 378.064742 116.260519 
L 379.788617 115.307125 
L 383.340513 113.342739 
L 385.231089 112.297151 
L 386.304899 111.703277 
L 387.82233 110.864058 
L 390.005152 109.656842 
L 392.572207 108.237125 
L 395.797947 106.453121 
L 398.044564 105.210623 
L 398.75014 104.820402 
L 401.952439 103.049362 
L 404.252422 101.77735 
L 406.377653 100.601986 
L 408.806106 99.258922 
L 409.823794 98.696087 
L 412.177572 97.394324 
L 413.600706 96.607256 
L 415.241312 95.699914 
L 417.642121 94.37214 
L 421.537968 92.217531 
L 423.33456 91.223921 
L 425.761109 89.881911 
L 427.910432 88.693222 
L 428.090896 88.593416 
L 430.081193 87.492677 
L 433.950767 85.352598 
L 436.106553 84.160335 
L 437.451391 83.416569 
z
" clip-path="url(#pf806833757)" style="fill: #c9ffb2; opacity: 0.5"/>
   </g>
   <g id="patch_5">
    <path d="M 15.636302 223.388168 
L 15.636302 130.073769 
L 16.835042 131.394992 
L 20.539496 135.418416 
L 22.400824 137.406055 
L 24.671573 139.800144 
L 26.836259 142.050938 
L 27.865959 143.110816 
L 29.52644 144.805319 
L 33.533189 148.819735 
L 34.482339 149.755282 
L 37.659382 152.843827 
L 40.01184 155.088117 
L 40.123392 155.193638 
L 42.703371 157.61139 
L 44.760498 159.507899 
L 47.487187 161.978934 
L 49.315759 163.608757 
L 51.484987 165.513784 
L 52.795369 166.649623 
L 56.632206 169.910658 
L 57.64577 170.756 
L 59.306212 172.126304 
L 62.555489 174.755525 
L 65.389838 176.992479 
L 65.973399 177.446505 
L 68.736764 179.566161 
L 71.645019 181.742891 
L 72.838603 182.6202 
L 75.714396 184.695608 
L 76.916357 185.546976 
L 78.238033 186.472207 
L 81.333434 188.594308 
L 84.446014 190.664849 
L 86.420613 191.94546 
L 87.967714 192.930961 
L 89.427286 193.846322 
L 91.604732 195.185934 
L 93.158098 196.122603 
L 97.013918 198.37927 
L 97.76707 198.808683 
L 99.754537 199.923995 
L 103.346984 201.87427 
L 104.562986 202.51525 
L 107.085884 203.814203 
L 109.328463 204.933799 
L 110.406213 205.460131 
L 113.761225 207.049843 
L 114.923106 207.583177 
L 116.88533 208.463796 
L 118.595367 209.210653 
L 121.233589 210.325292 
L 123.065966 211.072613 
L 125.231698 211.927509 
L 127.636293 212.84067 
L 130.99816 214.053818 
L 132.797025 214.672519 
L 134.698335 215.303394 
L 136.051562 215.737974 
L 139.269768 216.723256 
L 139.697681 216.849152 
L 143.498352 217.914659 
L 144.68665 218.228362 
L 147.125871 218.843299 
L 149.136654 219.320896 
L 151.927115 219.939764 
L 152.833027 220.129701 
L 154.696225 220.503435 
L 158.48177 221.192675 
L 160.072339 221.454244 
L 162.119237 221.766451 
L 163.291442 221.932875 
L 165.979528 222.280504 
L 168.632745 222.577171 
L 169.37018 222.651431 
L 173.345224 222.990318 
L 174.899666 223.094666 
L 177.508823 223.234207 
L 178.136949 223.261135 
L 180.243623 223.332564 
L 184.035158 223.387817 
L 185.459796 223.384221 
L 187.837082 223.348593 
L 190.033854 223.282734 
L 191.246785 223.232814 
L 193.837544 223.093888 
L 195.708044 222.966231 
L 198.800894 222.704836 
L 200.305121 222.555038 
L 202.670804 222.289445 
L 204.805019 222.018359 
L 207.006507 221.707441 
L 207.472856 221.6375 
L 210.63301 221.12599 
L 213.367554 220.630534 
L 214.479974 220.414954 
L 217.565175 219.774612 
L 219.057188 219.442555 
L 220.868902 219.019728 
L 223.550152 218.354477 
L 225.734683 217.777627 
L 228.035759 217.136169 
L 230.184377 216.505873 
L 231.905228 215.979236 
L 234.970588 214.993044 
L 235.267544 214.894235 
L 237.253474 214.218571 
L 239.518946 213.41623 
L 243.349431 211.983085 
L 244.125579 211.680976 
L 246.755447 210.627961 
L 249.332672 209.552037 
L 250.811346 208.915071 
L 253.198732 207.856408 
L 254.873496 207.09145 
L 256.748046 206.21343 
L 260.415043 204.429239 
L 261.578272 203.844849 
L 263.12472 203.0542 
L 264.865545 202.145414 
L 266.850417 201.084986 
L 269.625825 199.558903 
L 271.662332 198.406992 
L 273.344626 197.434927 
L 275.69643 196.044908 
L 279.179786 193.919468 
L 279.745598 193.566716 
L 282.655489 191.719414 
L 285.158521 190.08599 
L 287.325838 188.638468 
L 288.806622 187.631766 
L 291.183243 185.985983 
L 293.065316 184.656397 
L 294.409973 183.692246 
L 296.578075 182.112701 
L 299.86263 179.661073 
L 301.776988 178.199552 
L 304.919292 175.748471 
L 306.637992 174.380453 
L 307.931089 173.338433 
L 309.340693 172.190041 
L 312.781586 169.332068 
L 315.20821 167.269867 
L 317.140333 165.6003 
L 318.821899 164.127323 
L 320.573737 162.573076 
L 323.36638 160.053817 
L 325.518909 158.077118 
L 327.855579 155.896937 
L 329.996698 153.867783 
L 331.651983 152.27846 
L 333.760673 150.227783 
L 336.01438 148.003854 
L 336.80219 147.218599 
L 339.669471 144.326264 
L 342.633445 141.279738 
L 344.05222 139.801067 
L 346.939863 136.750754 
L 348.027435 135.587745 
L 349.619845 133.870892 
L 353.711456 129.3833 
L 354.570449 128.427236 
L 356.456723 126.310829 
L 359.278054 123.101748 
L 361.413859 120.637705 
L 364.275645 117.28923 
L 366.187412 115.022426 
L 367.491115 113.462869 
L 370.324795 110.034647 
L 371.720679 108.326537 
L 373.250785 106.439507 
L 375.025216 104.231939 
L 377.211357 101.483782 
L 380.652738 97.094208 
L 381.34535 96.201376 
L 383.726107 93.108412 
L 386.952413 88.857656 
L 389.718599 85.158788 
L 390.523686 84.072824 
L 392.20045 81.797432 
L 394.011377 79.319276 
L 397.913911 73.905785 
L 399.001144 72.379822 
L 401.089048 69.427658 
L 403.083317 66.581204 
L 405.145193 63.610841 
L 408.033766 59.402654 
L 409.231127 57.642256 
L 411.648032 54.060212 
L 413.216948 51.714458 
L 415.344178 48.508171 
L 418.250906 44.079017 
L 420.615468 40.435138 
L 423.431772 36.047282 
L 424.403374 34.521444 
L 427.266087 29.989758 
L 429.936822 25.713534 
L 430.675623 24.522351 
L 432.488206 21.584734 
L 435.631147 16.439981 
L 437.451391 13.430769 
L 437.451391 223.388168 
z
" clip-path="url(#pf806833757)" style="fill: #ffb2df; opacity: 0.5"/>
   </g>
   <g id="matplotlib.axis_1">
    <g id="xtick_1">
     <g id="line2d_1">
      <defs>
       <path id="mc23072f01a" d="M 0 0 
L 0 3.5 
" style="stroke: #000000; stroke-width: 0.8"/>
      </defs>
      <g>
       <use xlink:href="#mc23072f01a" x="15.636302" y="223.388168" style="stroke: #000000; stroke-width: 0.8"/>
      </g>
     </g>
     <g id="text_1">
      <!-- −2 -->
      <g transform="translate(8.265208 237.986606)scale(0.1 -0.1)">
       <defs>
        <path id="DejaVuSans-2212" d="M 678 2272 
L 4684 2272 
L 4684 1741 
L 678 1741 
L 678 2272 
z
" transform="scale(0.015625)"/>
        <path id="DejaVuSans-32" d="M 1228 531 
L 3431 531 
L 3431 0 
L 469 0 
L 469 531 
Q 828 903 1448 1529 
Q 2069 2156 2228 2338 
Q 2531 2678 2651 2914 
Q 2772 3150 2772 3378 
Q 2772 3750 2511 3984 
Q 2250 4219 1831 4219 
Q 1534 4219 1204 4116 
Q 875 4013 500 3803 
L 500 4441 
Q 881 4594 1212 4672 
Q 1544 4750 1819 4750 
Q 2544 4750 2975 4387 
Q 3406 4025 3406 3419 
Q 3406 3131 3298 2873 
Q 3191 2616 2906 2266 
Q 2828 2175 2409 1742 
Q 1991 1309 1228 531 
z
" transform="scale(0.015625)"/>
       </defs>
       <use xlink:href="#DejaVuSans-2212"/>
       <use xlink:href="#DejaVuSans-32" x="83.789062"/>
      </g>
     </g>
    </g>
    <g id="xtick_2">
     <g id="line2d_2">
      <g>
       <use xlink:href="#mc23072f01a" x="99.99932" y="223.388168" style="stroke: #000000; stroke-width: 0.8"/>
      </g>
     </g>
     <g id="text_2">
      <!-- −1 -->
      <g transform="translate(92.628226 237.986606)scale(0.1 -0.1)">
       <defs>
        <path id="DejaVuSans-31" d="M 794 531 
L 1825 531 
L 1825 4091 
L 703 3866 
L 703 4441 
L 1819 4666 
L 2450 4666 
L 2450 531 
L 3481 531 
L 3481 0 
L 794 0 
L 794 531 
z
" transform="scale(0.015625)"/>
       </defs>
       <use xlink:href="#DejaVuSans-2212"/>
       <use xlink:href="#DejaVuSans-31" x="83.789062"/>
      </g>
     </g>
    </g>
    <g id="xtick_3">
     <g id="line2d_3">
      <g>
       <use xlink:href="#mc23072f01a" x="184.362337" y="223.388168" style="stroke: #000000; stroke-width: 0.8"/>
      </g>
     </g>
    </g>
    <g id="xtick_4">
     <g id="line2d_4">
      <g>
       <use xlink:href="#mc23072f01a" x="268.725355" y="223.388168" style="stroke: #000000; stroke-width: 0.8"/>
      </g>
     </g>
     <g id="text_3">
      <!-- 1 -->
      <g transform="translate(265.544105 237.986606)scale(0.1 -0.1)">
       <use xlink:href="#DejaVuSans-31"/>
      </g>
     </g>
    </g>
    <g id="xtick_5">
     <g id="line2d_5">
      <g>
       <use xlink:href="#mc23072f01a" x="353.088373" y="223.388168" style="stroke: #000000; stroke-width: 0.8"/>
      </g>
     </g>
     <g id="text_4">
      <!-- 2 -->
      <g transform="translate(349.907123 237.986606)scale(0.1 -0.1)">
       <use xlink:href="#DejaVuSans-32"/>
      </g>
     </g>
    </g>
    <g id="xtick_6">
     <g id="line2d_6">
      <g>
       <use xlink:href="#mc23072f01a" x="437.451391" y="223.388168" style="stroke: #000000; stroke-width: 0.8"/>
      </g>
     </g>
     <g id="text_5">
      <!-- 3 -->
      <g transform="translate(434.270141 237.986606)scale(0.1 -0.1)">
       <defs>
        <path id="DejaVuSans-33" d="M 2597 2516 
Q 3050 2419 3304 2112 
Q 3559 1806 3559 1356 
Q 3559 666 3084 287 
Q 2609 -91 1734 -91 
Q 1441 -91 1130 -33 
Q 819 25 488 141 
L 488 750 
Q 750 597 1062 519 
Q 1375 441 1716 441 
Q 2309 441 2620 675 
Q 2931 909 2931 1356 
Q 2931 1769 2642 2001 
Q 2353 2234 1838 2234 
L 1294 2234 
L 1294 2753 
L 1863 2753 
Q 2328 2753 2575 2939 
Q 2822 3125 2822 3475 
Q 2822 3834 2567 4026 
Q 2313 4219 1838 4219 
Q 1578 4219 1281 4162 
Q 984 4106 628 3988 
L 628 4550 
Q 988 4650 1302 4700 
Q 1616 4750 1894 4750 
Q 2613 4750 3031 4423 
Q 3450 4097 3450 3541 
Q 3450 3153 3228 2886 
Q 3006 2619 2597 2516 
z
" transform="scale(0.015625)"/>
       </defs>
       <use xlink:href="#DejaVuSans-33"/>
      </g>
     </g>
    </g>
    <g id="xtick_7">
     <g id="line2d_7">
      <defs>
       <path id="m86e57efe8b" d="M 0 0 
L 0 2 
" style="stroke: #000000; stroke-width: 0.6"/>
      </defs>
      <g>
       <use xlink:href="#m86e57efe8b" x="32.508905" y="223.388168" style="stroke: #000000; stroke-width: 0.6"/>
      </g>
     </g>
    </g>
    <g id="xtick_8">
     <g id="line2d_8">
      <g>
       <use xlink:href="#m86e57efe8b" x="49.381509" y="223.388168" style="stroke: #000000; stroke-width: 0.6"/>
      </g>
     </g>
    </g>
    <g id="xtick_9">
     <g id="line2d_9">
      <g>
       <use xlink:href="#m86e57efe8b" x="66.254112" y="223.388168" style="stroke: #000000; stroke-width: 0.6"/>
      </g>
     </g>
    </g>
    <g id="xtick_10">
     <g id="line2d_10">
      <g>
       <use xlink:href="#m86e57efe8b" x="83.126716" y="223.388168" style="stroke: #000000; stroke-width: 0.6"/>
      </g>
     </g>
    </g>
    <g id="xtick_11">
     <g id="line2d_11">
      <g>
       <use xlink:href="#m86e57efe8b" x="116.871923" y="223.388168" style="stroke: #000000; stroke-width: 0.6"/>
      </g>
     </g>
    </g>
    <g id="xtick_12">
     <g id="line2d_12">
      <g>
       <use xlink:href="#m86e57efe8b" x="133.744527" y="223.388168" style="stroke: #000000; stroke-width: 0.6"/>
      </g>
     </g>
    </g>
    <g id="xtick_13">
     <g id="line2d_13">
      <g>
       <use xlink:href="#m86e57efe8b" x="150.61713" y="223.388168" style="stroke: #000000; stroke-width: 0.6"/>
      </g>
     </g>
    </g>
    <g id="xtick_14">
     <g id="line2d_14">
      <g>
       <use xlink:href="#m86e57efe8b" x="167.489734" y="223.388168" style="stroke: #000000; stroke-width: 0.6"/>
      </g>
     </g>
    </g>
    <g id="xtick_15">
     <g id="line2d_15">
      <g>
       <use xlink:href="#m86e57efe8b" x="201.234941" y="223.388168" style="stroke: #000000; stroke-width: 0.6"/>
      </g>
     </g>
    </g>
    <g id="xtick_16">
     <g id="line2d_16">
      <g>
       <use xlink:href="#m86e57efe8b" x="218.107544" y="223.388168" style="stroke: #000000; stroke-width: 0.6"/>
      </g>
     </g>
    </g>
    <g id="xtick_17">
     <g id="line2d_17">
      <g>
       <use xlink:href="#m86e57efe8b" x="234.980148" y="223.388168" style="stroke: #000000; stroke-width: 0.6"/>
      </g>
     </g>
    </g>
    <g id="xtick_18">
     <g id="line2d_18">
      <g>
       <use xlink:href="#m86e57efe8b" x="251.852751" y="223.388168" style="stroke: #000000; stroke-width: 0.6"/>
      </g>
     </g>
    </g>
    <g id="xtick_19">
     <g id="line2d_19">
      <g>
       <use xlink:href="#m86e57efe8b" x="285.597959" y="223.388168" style="stroke: #000000; stroke-width: 0.6"/>
      </g>
     </g>
    </g>
    <g id="xtick_20">
     <g id="line2d_20">
      <g>
       <use xlink:href="#m86e57efe8b" x="302.470562" y="223.388168" style="stroke: #000000; stroke-width: 0.6"/>
      </g>
     </g>
    </g>
    <g id="xtick_21">
     <g id="line2d_21">
      <g>
       <use xlink:href="#m86e57efe8b" x="319.343166" y="223.388168" style="stroke: #000000; stroke-width: 0.6"/>
      </g>
     </g>
    </g>
    <g id="xtick_22">
     <g id="line2d_22">
      <g>
       <use xlink:href="#m86e57efe8b" x="336.215769" y="223.388168" style="stroke: #000000; stroke-width: 0.6"/>
      </g>
     </g>
    </g>
    <g id="xtick_23">
     <g id="line2d_23">
      <g>
       <use xlink:href="#m86e57efe8b" x="369.960976" y="223.388168" style="stroke: #000000; stroke-width: 0.6"/>
      </g>
     </g>
    </g>
    <g id="xtick_24">
     <g id="line2d_24">
      <g>
       <use xlink:href="#m86e57efe8b" x="386.83358" y="223.388168" style="stroke: #000000; stroke-width: 0.6"/>
      </g>
     </g>
    </g>
    <g id="xtick_25">
     <g id="line2d_25">
      <g>
       <use xlink:href="#m86e57efe8b" x="403.706183" y="223.388168" style="stroke: #000000; stroke-width: 0.6"/>
      </g>
     </g>
    </g>
    <g id="xtick_26">
     <g id="line2d_26">
      <g>
       <use xlink:href="#m86e57efe8b" x="420.578787" y="223.388168" style="stroke: #000000; stroke-width: 0.6"/>
      </g>
     </g>
    </g>
   </g>
   <g id="matplotlib.axis_2">
    <g id="ytick_1">
     <g id="line2d_27">
      <defs>
       <path id="m6347919614" d="M 0 0 
L -3.5 0 
" style="stroke: #000000; stroke-width: 0.8"/>
      </defs>
      <g>
       <use xlink:href="#m6347919614" x="184.362337" y="316.702568" style="stroke: #000000; stroke-width: 0.8"/>
      </g>
     </g>
     <g id="text_6">
      <!-- −1.0 -->
      <g transform="translate(153.079525 320.501787)scale(0.1 -0.1)">
       <defs>
        <path id="DejaVuSans-2e" d="M 684 794 
L 1344 794 
L 1344 0 
L 684 0 
L 684 794 
z
" transform="scale(0.015625)"/>
        <path id="DejaVuSans-30" d="M 2034 4250 
Q 1547 4250 1301 3770 
Q 1056 3291 1056 2328 
Q 1056 1369 1301 889 
Q 1547 409 2034 409 
Q 2525 409 2770 889 
Q 3016 1369 3016 2328 
Q 3016 3291 2770 3770 
Q 2525 4250 2034 4250 
z
M 2034 4750 
Q 2819 4750 3233 4129 
Q 3647 3509 3647 2328 
Q 3647 1150 3233 529 
Q 2819 -91 2034 -91 
Q 1250 -91 836 529 
Q 422 1150 422 2328 
Q 422 3509 836 4129 
Q 1250 4750 2034 4750 
z
" transform="scale(0.015625)"/>
       </defs>
       <use xlink:href="#DejaVuSans-2212"/>
       <use xlink:href="#DejaVuSans-31" x="83.789062"/>
       <use xlink:href="#DejaVuSans-2e" x="147.412109"/>
       <use xlink:href="#DejaVuSans-30" x="179.199219"/>
      </g>
     </g>
    </g>
    <g id="ytick_2">
     <g id="line2d_28">
      <g>
       <use xlink:href="#m6347919614" x="184.362337" y="270.045368" style="stroke: #000000; stroke-width: 0.8"/>
      </g>
     </g>
     <g id="text_7">
      <!-- −0.5 -->
      <g transform="translate(153.079525 273.844587)scale(0.1 -0.1)">
       <defs>
        <path id="DejaVuSans-35" d="M 691 4666 
L 3169 4666 
L 3169 4134 
L 1269 4134 
L 1269 2991 
Q 1406 3038 1543 3061 
Q 1681 3084 1819 3084 
Q 2600 3084 3056 2656 
Q 3513 2228 3513 1497 
Q 3513 744 3044 326 
Q 2575 -91 1722 -91 
Q 1428 -91 1123 -41 
Q 819 9 494 109 
L 494 744 
Q 775 591 1075 516 
Q 1375 441 1709 441 
Q 2250 441 2565 725 
Q 2881 1009 2881 1497 
Q 2881 1984 2565 2268 
Q 2250 2553 1709 2553 
Q 1456 2553 1204 2497 
Q 953 2441 691 2322 
L 691 4666 
z
" transform="scale(0.015625)"/>
       </defs>
       <use xlink:href="#DejaVuSans-2212"/>
       <use xlink:href="#DejaVuSans-30" x="83.789062"/>
       <use xlink:href="#DejaVuSans-2e" x="147.412109"/>
       <use xlink:href="#DejaVuSans-35" x="179.199219"/>
      </g>
     </g>
    </g>
    <g id="ytick_3">
     <g id="line2d_29">
      <g>
       <use xlink:href="#m6347919614" x="184.362337" y="223.388168" style="stroke: #000000; stroke-width: 0.8"/>
      </g>
     </g>
    </g>
    <g id="ytick_4">
     <g id="line2d_30">
      <g>
       <use xlink:href="#m6347919614" x="184.362337" y="176.730969" style="stroke: #000000; stroke-width: 0.8"/>
      </g>
     </g>
     <g id="text_8">
      <!-- 0.5 -->
      <g transform="translate(161.459212 180.530187)scale(0.1 -0.1)">
       <use xlink:href="#DejaVuSans-30"/>
       <use xlink:href="#DejaVuSans-2e" x="63.623047"/>
       <use xlink:href="#DejaVuSans-35" x="95.410156"/>
      </g>
     </g>
    </g>
    <g id="ytick_5">
     <g id="line2d_31">
      <g>
       <use xlink:href="#m6347919614" x="184.362337" y="130.073769" style="stroke: #000000; stroke-width: 0.8"/>
      </g>
     </g>
     <g id="text_9">
      <!-- 1.0 -->
      <g transform="translate(161.459212 133.872988)scale(0.1 -0.1)">
       <use xlink:href="#DejaVuSans-31"/>
       <use xlink:href="#DejaVuSans-2e" x="63.623047"/>
       <use xlink:href="#DejaVuSans-30" x="95.410156"/>
      </g>
     </g>
    </g>
    <g id="ytick_6">
     <g id="line2d_32">
      <g>
       <use xlink:href="#m6347919614" x="184.362337" y="83.416569" style="stroke: #000000; stroke-width: 0.8"/>
      </g>
     </g>
     <g id="text_10">
      <!-- 1.5 -->
      <g transform="translate(161.459212 87.215788)scale(0.1 -0.1)">
       <use xlink:href="#DejaVuSans-31"/>
       <use xlink:href="#DejaVuSans-2e" x="63.623047"/>
       <use xlink:href="#DejaVuSans-35" x="95.410156"/>
      </g>
     </g>
    </g>
    <g id="ytick_7">
     <g id="line2d_33">
      <g>
       <use xlink:href="#m6347919614" x="184.362337" y="36.759369" style="stroke: #000000; stroke-width: 0.8"/>
      </g>
     </g>
     <g id="text_11">
      <!-- 2.0 -->
      <g transform="translate(161.459212 40.558588)scale(0.1 -0.1)">
       <use xlink:href="#DejaVuSans-32"/>
       <use xlink:href="#DejaVuSans-2e" x="63.623047"/>
       <use xlink:href="#DejaVuSans-30" x="95.410156"/>
      </g>
     </g>
    </g>
    <g id="ytick_8">
     <g id="line2d_34">
      <defs>
       <path id="mbc81a4cfad" d="M 0 0 
L -2 0 
" style="stroke: #000000; stroke-width: 0.6"/>
      </defs>
      <g>
       <use xlink:href="#mbc81a4cfad" x="184.362337" y="326.034008" style="stroke: #000000; stroke-width: 0.6"/>
      </g>
     </g>
    </g>
    <g id="ytick_9">
     <g id="line2d_35">
      <g>
       <use xlink:href="#mbc81a4cfad" x="184.362337" y="307.371128" style="stroke: #000000; stroke-width: 0.6"/>
      </g>
     </g>
    </g>
    <g id="ytick_10">
     <g id="line2d_36">
      <g>
       <use xlink:href="#mbc81a4cfad" x="184.362337" y="298.039688" style="stroke: #000000; stroke-width: 0.6"/>
      </g>
     </g>
    </g>
    <g id="ytick_11">
     <g id="line2d_37">
      <g>
       <use xlink:href="#mbc81a4cfad" x="184.362337" y="288.708248" style="stroke: #000000; stroke-width: 0.6"/>
      </g>
     </g>
    </g>
    <g id="ytick_12">
     <g id="line2d_38">
      <g>
       <use xlink:href="#mbc81a4cfad" x="184.362337" y="279.376808" style="stroke: #000000; stroke-width: 0.6"/>
      </g>
     </g>
    </g>
    <g id="ytick_13">
     <g id="line2d_39">
      <g>
       <use xlink:href="#mbc81a4cfad" x="184.362337" y="260.713928" style="stroke: #000000; stroke-width: 0.6"/>
      </g>
     </g>
    </g>
    <g id="ytick_14">
     <g id="line2d_40">
      <g>
       <use xlink:href="#mbc81a4cfad" x="184.362337" y="251.382488" style="stroke: #000000; stroke-width: 0.6"/>
      </g>
     </g>
    </g>
    <g id="ytick_15">
     <g id="line2d_41">
      <g>
       <use xlink:href="#mbc81a4cfad" x="184.362337" y="242.051048" style="stroke: #000000; stroke-width: 0.6"/>
      </g>
     </g>
    </g>
    <g id="ytick_16">
     <g id="line2d_42">
      <g>
       <use xlink:href="#mbc81a4cfad" x="184.362337" y="232.719608" style="stroke: #000000; stroke-width: 0.6"/>
      </g>
     </g>
    </g>
    <g id="ytick_17">
     <g id="line2d_43">
      <g>
       <use xlink:href="#mbc81a4cfad" x="184.362337" y="214.056728" style="stroke: #000000; stroke-width: 0.6"/>
      </g>
     </g>
    </g>
    <g id="ytick_18">
     <g id="line2d_44">
      <g>
       <use xlink:href="#mbc81a4cfad" x="184.362337" y="204.725288" style="stroke: #000000; stroke-width: 0.6"/>
      </g>
     </g>
    </g>
    <g id="ytick_19">
     <g id="line2d_45">
      <g>
       <use xlink:href="#mbc81a4cfad" x="184.362337" y="195.393848" style="stroke: #000000; stroke-width: 0.6"/>
      </g>
     </g>
    </g>
    <g id="ytick_20">
     <g id="line2d_46">
      <g>
       <use xlink:href="#mbc81a4cfad" x="184.362337" y="186.062409" style="stroke: #000000; stroke-width: 0.6"/>
      </g>
     </g>
    </g>
    <g id="ytick_21">
     <g id="line2d_47">
      <g>
       <use xlink:href="#mbc81a4cfad" x="184.362337" y="167.399529" style="stroke: #000000; stroke-width: 0.6"/>
      </g>
     </g>
    </g>
    <g id="ytick_22">
     <g id="line2d_48">
      <g>
       <use xlink:href="#mbc81a4cfad" x="184.362337" y="158.068089" style="stroke: #000000; stroke-width: 0.6"/>
      </g>
     </g>
    </g>
    <g id="ytick_23">
     <g id="line2d_49">
      <g>
       <use xlink:href="#mbc81a4cfad" x="184.362337" y="148.736649" style="stroke: #000000; stroke-width: 0.6"/>
      </g>
     </g>
    </g>
    <g id="ytick_24">
     <g id="line2d_50">
      <g>
       <use xlink:href="#mbc81a4cfad" x="184.362337" y="139.405209" style="stroke: #000000; stroke-width: 0.6"/>
      </g>
     </g>
    </g>
    <g id="ytick_25">
     <g id="line2d_51">
      <g>
       <use xlink:href="#mbc81a4cfad" x="184.362337" y="120.742329" style="stroke: #000000; stroke-width: 0.6"/>
      </g>
     </g>
    </g>
    <g id="ytick_26">
     <g id="line2d_52">
      <g>
       <use xlink:href="#mbc81a4cfad" x="184.362337" y="111.410889" style="stroke: #000000; stroke-width: 0.6"/>
      </g>
     </g>
    </g>
    <g id="ytick_27">
     <g id="line2d_53">
      <g>
       <use xlink:href="#mbc81a4cfad" x="184.362337" y="102.079449" style="stroke: #000000; stroke-width: 0.6"/>
      </g>
     </g>
    </g>
    <g id="ytick_28">
     <g id="line2d_54">
      <g>
       <use xlink:href="#mbc81a4cfad" x="184.362337" y="92.748009" style="stroke: #000000; stroke-width: 0.6"/>
      </g>
     </g>
    </g>
    <g id="ytick_29">
     <g id="line2d_55">
      <g>
       <use xlink:href="#mbc81a4cfad" x="184.362337" y="74.085129" style="stroke: #000000; stroke-width: 0.6"/>
      </g>
     </g>
    </g>
    <g id="ytick_30">
     <g id="line2d_56">
      <g>
       <use xlink:href="#mbc81a4cfad" x="184.362337" y="64.753689" style="stroke: #000000; stroke-width: 0.6"/>
      </g>
     </g>
    </g>
    <g id="ytick_31">
     <g id="line2d_57">
      <g>
       <use xlink:href="#mbc81a4cfad" x="184.362337" y="55.422249" style="stroke: #000000; stroke-width: 0.6"/>
      </g>
     </g>
    </g>
    <g id="ytick_32">
     <g id="line2d_58">
      <g>
       <use xlink:href="#mbc81a4cfad" x="184.362337" y="46.090809" style="stroke: #000000; stroke-width: 0.6"/>
      </g>
     </g>
    </g>
    <g id="ytick_33">
     <g id="line2d_59">
      <g>
       <use xlink:href="#mbc81a4cfad" x="184.362337" y="27.427929" style="stroke: #000000; stroke-width: 0.6"/>
      </g>
     </g>
    </g>
    <g id="ytick_34">
     <g id="line2d_60">
      <g>
       <use xlink:href="#mbc81a4cfad" x="184.362337" y="18.096489" style="stroke: #000000; stroke-width: 0.6"/>
      </g>
     </g>
    </g>
    <g id="ytick_35">
     <g id="line2d_61">
      <g>
       <use xlink:href="#mbc81a4cfad" x="184.362337" y="8.765049" style="stroke: #000000; stroke-width: 0.6"/>
      </g>
     </g>
    </g>
   </g>
   <g id="line2d_62">
    <path d="M 15.636302 316.702568 
L 18.20624 318.059264 
L 23.085517 320.284741 
L 25.652162 321.27492 
L 28.573313 322.253694 
L 32.228169 323.26043 
L 35.890787 324.031676 
L 38.521518 324.442044 
L 42.181373 324.81772 
L 47.518649 324.969231 
L 51.734046 324.766864 
L 54.826059 324.443285 
L 58.162903 323.932236 
L 61.331642 323.295246 
L 64.437577 322.531118 
L 68.743112 321.249574 
L 72.909578 319.771477 
L 76.178558 318.453466 
L 80.895435 316.315243 
L 86.642904 313.34837 
L 91.52257 310.533255 
L 96.667153 307.286537 
L 102.692219 303.141348 
L 108.739597 298.633345 
L 114.289682 294.21174 
L 120.997553 288.533811 
L 127.347759 282.85183 
L 133.423051 277.164596 
L 141.979862 268.788682 
L 151.734775 258.802924 
L 162.711474 247.139144 
L 174.684592 234.075168 
L 205.657049 200.021564 
L 217.528101 187.41205 
L 226.01712 178.71768 
L 231.706876 173.081749 
L 240.047394 165.149047 
L 247.961916 158.037964 
L 254.997426 152.104732 
L 260.553451 147.705173 
L 267.132274 142.851791 
L 273.544928 138.522603 
L 280.178747 134.494321 
L 285.868125 131.429767 
L 288.460175 130.15927 
L 293.587584 127.888143 
L 298.813984 125.917742 
L 303.801354 124.377005 
L 306.98854 123.572844 
L 311.267149 122.722272 
L 314.024739 122.317005 
L 317.627899 121.961039 
L 321.956461 121.80055 
L 325.984014 121.920903 
L 329.498325 122.244417 
L 333.549911 122.876999 
L 336.62153 123.5464 
L 340.554153 124.648328 
L 344.813652 126.159711 
L 349.680835 128.302631 
L 353.934968 130.54904 
L 358.34594 133.25612 
L 362.813369 136.400076 
L 366.090083 138.969388 
L 369.143531 141.568265 
L 372.620174 144.772012 
L 377.155504 149.350774 
L 380.841879 153.412497 
L 385.076418 158.462637 
L 389.220692 163.811258 
L 393.90485 170.350823 
L 398.455094 177.216466 
L 402.658857 184.01824 
L 407.06622 191.632438 
L 411.660673 200.106809 
L 416.474316 209.585587 
L 421.407278 219.949835 
L 425.117347 228.187 
L 428.631946 236.346361 
L 433.534864 248.31744 
L 437.451391 258.381068 
L 437.451391 258.381068 
" clip-path="url(#pf806833757)" style="fill: none; stroke: #0000cc; stroke-linecap: square"/>
   </g>
   <g id="line2d_63">
    <path d="M 15.636302 316.702568 
L 437.451391 83.416569 
L 437.451391 83.416569 
" clip-path="url(#pf806833757)" style="fill: none; stroke: #3ccc00; stroke-linecap: square"/>
   </g>
   <g id="line2d_64">
    <path d="M 15.636302 130.073769 
L 22.400824 137.406055 
L 29.52644 144.805319 
L 37.659382 152.843827 
L 44.760498 159.507899 
L 52.795369 166.649623 
L 59.306212 172.126304 
L 65.973399 177.446505 
L 72.838603 182.6202 
L 78.238033 186.472207 
L 84.446014 190.664849 
L 91.604732 195.185934 
L 97.76707 198.808683 
L 104.562986 202.51525 
L 110.406213 205.460131 
L 116.88533 208.463796 
L 123.065966 211.072613 
L 127.636293 212.84067 
L 134.698335 215.303394 
L 139.697681 216.849152 
L 147.125871 218.843299 
L 152.833027 220.129701 
L 158.48177 221.192675 
L 163.291442 221.932875 
L 169.37018 222.651431 
L 177.508823 223.234207 
L 180.243623 223.332564 
L 187.837082 223.348593 
L 193.837544 223.093888 
L 200.305121 222.555038 
L 207.006507 221.707441 
L 210.63301 221.12599 
L 217.565175 219.774612 
L 223.550152 218.354477 
L 230.184377 216.505873 
L 235.267544 214.894235 
L 239.518946 213.41623 
L 246.755447 210.627961 
L 253.198732 207.856408 
L 256.748046 206.21343 
L 264.865545 202.145414 
L 271.662332 198.406992 
L 275.69643 196.044908 
L 282.655489 191.719414 
L 288.806622 187.631766 
L 294.409973 183.692246 
L 301.776988 178.199552 
L 309.340693 172.190041 
L 317.140333 165.6003 
L 323.36638 160.053817 
L 329.996698 153.867783 
L 336.80219 147.218599 
L 344.05222 139.801067 
L 349.619845 133.870892 
L 356.456723 126.310829 
L 364.275645 117.28923 
L 371.720679 108.326537 
L 377.211357 101.483782 
L 383.726107 93.108412 
L 392.20045 81.797432 
L 399.001144 72.379822 
L 405.145193 63.610841 
L 413.216948 51.714458 
L 420.615468 40.435138 
L 429.936822 25.713534 
L 437.451391 13.430769 
L 437.451391 13.430769 
" clip-path="url(#pf806833757)" style="fill: none; stroke: #cc0077; stroke-linecap: square"/>
   </g>
   <g id="patch_6">
    <path d="M 184.362337 331.2 
L 184.362337 7.2 
" style="fill: none; stroke: #000000; stroke-width: 0.8; stroke-linejoin: miter; stroke-linecap: square"/>
   </g>
   <g id="patch_7">
    <path d="M 7.2 223.388168 
L 445.887692 223.388168 
" style="fill: none; stroke: #000000; stroke-width: 0.8; stroke-linejoin: miter; stroke-linecap: square"/>
   </g>
  </g>
 </g>
 <defs>
  <clipPath id="pf806833757">
   <rect x="7.2" y="7.2" width="438.687692" height="324"/>
  </clipPath>
 </defs>
</svg>
