<?xml version="1.0" encoding="utf-8" standalone="no"?>
<!DOCTYPE svg PUBLIC "-//W3C//DTD SVG 1.1//EN"
  "http://www.w3.org/Graphics/SVG/1.1/DTD/svg11.dtd">
<svg xmlns:xlink="http://www.w3.org/1999/xlink" width="453.087692pt" height="338.4pt" viewBox="0 0 453.087692 338.4" xmlns="http://www.w3.org/2000/svg" version="1.1">
 <metadata>
  <rdf:RDF xmlns:dc="http://purl.org/dc/elements/1.1/" xmlns:cc="http://creativecommons.org/ns#" xmlns:rdf="http://www.w3.org/1999/02/22-rdf-syntax-ns#">
   <cc:Work>
    <dc:type rdf:resource="http://purl.org/dc/dcmitype/StillImage"/>
    <dc:date>2023-02-09T14:00:04.457338</dc:date>
    <dc:format>image/svg+xml</dc:format>
    <dc:creator>
     <cc:Agent>
      <dc:title>Matplotlib v3.6.2, https://matplotlib.org/</dc:title>
     </cc:Agent>
    </dc:creator>
   </cc:Work>
  </rdf:RDF>
 </metadata>
 <defs>
  <style type="text/css">*{stroke-linejoin: round; stroke-linecap: butt}</style>
 </defs>
 <g id="figure_1">
  <g id="patch_1">
   <path d="M 0 338.4 
L 453.087692 338.4 
L 453.087692 0 
L 0 0 
L 0 338.4 
z
" style="fill: none"/>
  </g>
  <g id="axes_1">
   <g id="patch_2">
    <path d="M 7.2 331.2 
L 445.887692 331.2 
L 445.887692 7.2 
L 7.2 7.2 
L 7.2 331.2 
z
" style="fill: none"/>
   </g>
   <g id="patch_3">
    <path d="M 437.451391 83.415148 
L 436.159889 84.129402 
L 433.409006 85.650755 
L 431.785391 86.548682 
L 429.71675 87.692726 
L 427.361064 88.995518 
L 425.790402 89.864159 
L 421.772807 92.086056 
L 419.609219 93.28261 
L 417.946026 94.202425 
L 416.432535 95.039448 
L 413.15349 96.852897 
L 412.250559 97.352255 
L 409.832117 98.689753 
L 407.719887 99.857905 
L 406.642138 100.453945 
L 402.870437 102.539852 
L 401.952948 103.047261 
L 399.577261 104.361115 
L 396.64883 105.980659 
L 395.519626 106.605156 
L 392.399095 108.330939 
L 391.596 108.775084 
L 388.60122 110.431322 
L 386.242589 111.735743 
L 384.646173 112.618627 
L 381.742439 114.224513 
L 379.844122 115.27436 
L 377.459185 116.59333 
L 375.32912 117.771344 
L 374.823795 118.05081 
L 372.248631 119.474982 
L 369.059339 121.238794 
L 367.895438 121.882479 
L 364.814673 123.58627 
L 363.862337 124.112952 
L 361.718598 125.298528 
L 359.481926 126.535501 
L 356.481437 128.194896 
L 354.440092 129.323844 
L 351.732032 130.821514 
L 350.038707 131.757993 
L 348.755712 132.467542 
L 345.789953 134.10773 
L 344.938368 134.578692 
L 341.962177 136.22465 
L 340.735103 136.903272 
L 337.645646 138.61187 
L 336.409365 139.295585 
L 332.661555 141.36828 
L 330.766302 142.416433 
L 328.414727 143.716952 
L 327.146011 144.418605 
L 325.504331 145.326522 
L 323.09015 146.661664 
L 321.667577 147.448406 
L 318.606791 149.141148 
L 316.332716 150.398806 
L 314.627931 151.341623 
L 311.631952 152.998524 
L 309.586441 154.129776 
L 307.09906 155.505401 
L 305.374912 156.458927 
L 304.274169 157.067683 
L 300.971856 158.894 
L 298.765387 160.114268 
L 297.317804 160.914842 
L 296.37839 161.434377 
L 292.983693 163.311785 
L 290.977675 164.421197 
L 289.074159 165.47392 
L 287.782471 166.188277 
L 284.39053 168.064162 
L 282.324504 169.20676 
L 279.891455 170.552337 
L 278.961646 171.06656 
L 277.169921 172.057458 
L 273.844365 173.896628 
L 272.836559 174.453987 
L 269.518684 176.28891 
L 268.921311 176.619282 
L 265.382234 178.576539 
L 264.57839 179.021098 
L 260.461985 181.297641 
L 259.813936 181.656039 
L 256.810221 183.317218 
L 254.517815 184.585014 
L 253.520216 185.136727 
L 251.094629 186.478178 
L 249.764554 187.213764 
L 247.220697 188.620623 
L 245.016309 189.839741 
L 242.447891 191.260183 
L 241.213915 191.942623 
L 238.89367 193.225815 
L 236.797917 194.384853 
L 234.236823 195.801244 
L 232.534266 196.742829 
L 230.582901 197.822015 
L 228.546175 198.948409 
L 225.508636 200.628294 
L 224.187221 201.359092 
L 221.687477 202.741554 
L 218.736174 204.373747 
L 217.398963 205.113281 
L 215.505744 206.160309 
L 213.4115 207.318513 
L 209.614925 209.418177 
L 207.839843 210.399871 
L 206.267485 211.26945 
L 204.031176 212.506222 
L 203.122958 213.008504 
L 199.032701 215.270586 
L 198.417269 215.610946 
L 195.080041 217.456571 
L 193.338894 218.419498 
L 191.720168 219.314721 
L 190.263467 220.120336 
L 187.167769 221.832387 
L 184.16027 223.495658 
L 183.201332 224.02599 
L 179.932089 225.834018 
L 178.784369 226.468754 
L 176.051094 227.980369 
L 175.085728 228.514257 
L 173.129638 229.596056 
L 170.70928 230.934614 
L 168.506403 232.152897 
L 165.3872 233.877946 
L 163.203863 235.085421 
L 162.708691 235.359272 
L 159.341783 237.221312 
L 156.873043 238.586628 
L 155.271608 239.472288 
L 154.207388 240.060846 
L 151.478267 241.570163 
L 148.259938 243.350033 
L 146.054312 244.569836 
L 145.775691 244.723925 
L 142.404406 246.588385 
L 140.353906 247.722397 
L 137.694318 249.193259 
L 136.807753 249.683567 
L 134.575115 250.918308 
L 131.791772 252.457612 
L 131.095666 252.842588 
L 127.602495 254.774457 
L 126.302357 255.493487 
L 124.550927 256.4621 
L 121.790378 257.988799 
L 120.399851 258.757818 
L 118.25913 259.941726 
L 115.981532 261.201332 
L 113.976408 262.310249 
L 110.943425 263.987615 
L 109.66602 264.694072 
L 107.782822 265.735559 
L 104.263153 267.682082 
L 101.856127 269.013268 
L 99.888073 270.101683 
L 98.500657 270.868982 
L 95.551552 272.49996 
L 94.992672 272.809043 
L 92.595207 274.134941 
L 90.241157 275.436829 
L 87.820587 276.775504 
L 86.006691 277.778664 
L 82.893222 279.500542 
L 80.614668 280.760677 
L 78.848328 281.737536 
L 78.148462 282.124591 
L 75.040265 283.843553 
L 72.956332 284.996055 
L 71.470239 285.817926 
L 69.072357 287.144054 
L 65.57107 289.080411 
L 64.472019 289.688232 
L 62.447461 290.807897 
L 60.079862 292.117277 
L 58.594718 292.938623 
L 56.674604 294.000527 
L 53.506495 295.752622 
L 52.210007 296.469634 
L 49.536708 297.948079 
L 46.890903 299.411319 
L 45.992405 299.908226 
L 44.109877 300.949342 
L 41.950377 302.143636 
L 38.657213 303.964892 
L 36.705834 305.044086 
L 34.757821 306.121418 
L 33.421334 306.860551 
L 29.657335 308.942198 
L 28.707726 309.467372 
L 25.941696 310.997101 
L 24.978924 311.529554 
L 21.240492 313.597062 
L 19.370799 314.63108 
L 17.439006 315.699442 
L 15.636302 316.696412 
L 15.636302 316.696412 
L 16.721396 317.284961 
L 18.702637 318.300327 
L 20.683878 319.239898 
L 21.902127 319.780394 
L 23.629819 320.498773 
L 26.2785 321.491726 
L 29.166277 322.42709 
L 29.54164 322.537533 
L 32.569508 323.335979 
L 34.500808 323.76033 
L 35.939607 324.034071 
L 37.900528 324.349551 
L 39.86145 324.599388 
L 40.865641 324.7022 
L 42.828986 324.854596 
L 44.593294 324.937269 
L 46.357602 324.969231 
L 48.290699 324.946788 
L 49.692845 324.893376 
L 51.131739 324.806483 
L 52.956489 324.650092 
L 54.867635 324.43163 
L 57.780676 323.992859 
L 59.706459 323.633869 
L 61.881663 323.163622 
L 64.428178 322.527361 
L 65.562664 322.214599 
L 67.575115 321.616056 
L 69.587565 320.962383 
L 70.765912 320.554428 
L 73.452943 319.555695 
L 74.015618 319.334662 
L 76.053411 318.500238 
L 78.091203 317.61339 
L 78.978103 317.211288 
L 80.557625 316.471291 
L 83.996266 314.756538 
L 84.529581 314.478079 
L 86.750154 313.283275 
L 90.320997 311.24484 
L 90.989002 310.847828 
L 93.688502 309.194335 
L 95.904409 307.779391 
L 98.991926 305.723752 
L 101.389647 304.061761 
L 103.57779 302.496476 
L 104.78876 301.610753 
L 105.840494 300.830453 
L 108.003709 299.193853 
L 112.052899 296.019377 
L 113.9458 294.487513 
L 114.901159 293.703155 
L 116.374717 292.478899 
L 120.35459 289.087414 
L 121.059456 288.474228 
L 124.362293 285.552816 
L 125.15196 284.842885 
L 128.608343 281.685623 
L 130.042344 280.352661 
L 133.191835 277.379862 
L 135.082006 275.567092 
L 136.674687 274.023667 
L 138.063699 272.666086 
L 141.333021 269.430205 
L 142.486947 268.275072 
L 144.653302 266.089039 
L 147.590162 263.091044 
L 149.812227 260.797997 
L 150.642055 259.936492 
L 152.907017 257.571493 
L 155.089241 255.275079 
L 156.665583 253.606074 
L 160.594461 249.412317 
L 162.516134 247.345077 
L 163.761844 245.999929 
L 165.932073 243.647695 
L 168.961445 240.347609 
L 170.205756 238.987147 
L 173.408726 235.47398 
L 175.431658 233.248143 
L 175.861577 232.77452 
L 179.228604 229.059614 
L 181.414638 226.643809 
L 183.751235 224.059832 
L 186.212885 221.33717 
L 188.11971 219.22897 
L 190.283774 216.838339 
L 191.284089 215.734316 
L 194.58821 212.094014 
L 194.790315 211.871726 
L 196.96465 209.483584 
L 200.634847 205.468866 
L 201.254192 204.793744 
L 203.754161 202.076599 
L 205.647719 200.027849 
L 209.159129 196.252792 
L 211.695168 193.548212 
L 212.946387 192.221269 
L 215.463858 189.567479 
L 216.784431 188.184467 
L 218.697644 186.192556 
L 220.444678 184.386434 
L 223.520069 181.238599 
L 225.416515 179.318781 
L 228.03008 176.701373 
L 229.055833 175.683496 
L 231.002475 173.766978 
L 234.558799 170.319494 
L 236.844341 168.14263 
L 238.90062 166.211395 
L 239.870501 165.30976 
L 242.234544 163.137774 
L 245.458295 160.23698 
L 246.14844 159.625459 
L 247.856356 158.126945 
L 250.244375 156.068035 
L 252.78487 153.925776 
L 256.214762 151.115547 
L 258.304223 149.451573 
L 259.370532 148.616834 
L 262.578052 146.16639 
L 264.571559 144.69043 
L 266.049342 143.620233 
L 268.802572 141.682113 
L 269.816011 140.987365 
L 273.024842 138.855651 
L 274.756619 137.74915 
L 276.814833 136.475219 
L 279.359954 134.963154 
L 280.738778 134.173822 
L 282.490232 133.202005 
L 284.528409 132.115311 
L 287.612103 130.563702 
L 288.825531 129.984332 
L 290.134842 129.379298 
L 292.175417 128.478579 
L 294.215992 127.630187 
L 295.638855 127.070107 
L 296.78262 126.63891 
L 299.582823 125.655951 
L 302.824692 124.649653 
L 303.402508 124.485418 
L 306.116994 123.77624 
L 308.851224 123.167624 
L 309.653252 123.009569 
L 312.036541 122.595564 
L 315.281294 122.168099 
L 316.376586 122.059875 
L 318.638228 121.894992 
L 319.830081 121.840225 
L 321.564386 121.800652 
L 323.298691 121.809179 
L 325.263026 121.877699 
L 326.70101 121.967984 
L 328.912283 122.173882 
L 331.166853 122.468639 
L 332.878541 122.750434 
L 335.163293 123.205707 
L 337.020323 123.643281 
L 338.877353 124.142218 
L 339.862748 124.432144 
L 342.850161 125.419127 
L 345.000973 126.231611 
L 346.690766 126.93064 
L 348.657914 127.8125 
L 350.945211 128.931118 
L 352.435363 129.714447 
L 354.132222 130.659429 
L 355.79206 131.638917 
L 357.451898 132.673454 
L 359.602605 134.096688 
L 360.950925 135.03705 
L 362.776975 136.370305 
L 364.934901 138.035321 
L 367.232057 139.91549 
L 368.841582 141.299779 
L 370.451108 142.739773 
L 371.7175 143.91225 
L 374.528364 146.640141 
L 376.506511 148.664735 
L 377.810827 150.047564 
L 379.315346 151.690305 
L 380.819864 153.384482 
L 382.420648 155.243984 
L 383.684327 156.753656 
L 386.313479 160.013773 
L 387.734527 161.843461 
L 389.155575 163.721017 
L 391.203311 166.511449 
L 393.941192 170.400454 
L 395.238048 172.306328 
L 397.500006 175.729609 
L 399.502238 178.865826 
L 401.6199 182.292261 
L 404.167136 186.564308 
L 405.686475 189.191461 
L 407.070488 191.636437 
L 408.454502 194.131136 
L 410.867317 198.600089 
L 411.887084 200.534988 
L 414.136064 204.89984 
L 415.48893 207.59067 
L 417.229209 211.124605 
L 418.969488 214.740743 
L 421.074132 219.224698 
L 423.302686 224.105887 
L 424.964232 227.835098 
L 426.275139 230.831938 
L 427.992874 234.832209 
L 429.710609 238.916268 
L 430.080645 239.807087 
L 431.888696 244.216261 
L 433.696747 248.719752 
L 435.615239 253.60223 
L 437.451391 258.376096 
z
" clip-path="url(#p260f9d8550)" style="fill: #b2b3ff; opacity: 0.5"/>
   </g>
   <g id="patch_4">
    <path d="M 437.451391 13.430769 
L 435.649122 16.41031 
L 434.085752 18.977654 
L 430.854352 24.233427 
L 428.993797 27.228511 
L 427.453531 29.690829 
L 425.696591 32.480543 
L 422.931745 36.829655 
L 420.992258 39.850569 
L 417.943268 44.549773 
L 416.120494 47.329986 
L 414.380101 49.964219 
L 412.240323 53.175742 
L 409.964824 56.558032 
L 408.109804 59.29021 
L 406.432241 61.741594 
L 403.097207 66.560208 
L 402.38057 67.586122 
L 399.356714 71.877902 
L 396.472195 75.916056 
L 395.187166 77.697457 
L 393.856685 79.530462 
L 389.953974 84.840286 
L 389.159783 85.908594 
L 387.294347 88.401627 
L 383.757246 93.066095 
L 383.071406 93.961038 
L 380.305023 97.539546 
L 377.316175 101.349445 
L 375.758457 103.311863 
L 374.532557 104.84507 
L 370.992406 109.217356 
L 369.759373 110.72093 
L 366.713759 114.392074 
L 365.720837 115.575786 
L 363.917926 117.708603 
L 360.160039 122.085636 
L 358.590372 123.886509 
L 357.941495 124.626244 
L 353.78609 129.298072 
L 351.712141 131.58742 
L 351.440278 131.885428 
L 348.904947 134.641253 
L 346.804891 136.892041 
L 344.795265 139.018837 
L 342.898098 141.002324 
L 339.465193 144.531448 
L 338.461795 145.548381 
L 336.247815 147.768873 
L 332.627029 151.331063 
L 331.533377 152.390116 
L 328.569301 155.220998 
L 327.69915 156.041112 
L 325.897406 157.723469 
L 323.945943 159.521619 
L 320.212482 162.892197 
L 318.965543 163.997581 
L 316.218115 166.397145 
L 314.888196 167.540904 
L 311.799888 170.152189 
L 310.297321 171.400058 
L 308.298901 173.036796 
L 306.379495 174.584172 
L 304.486731 176.08642 
L 301.490129 178.416737 
L 299.49052 179.938992 
L 297.958966 181.087202 
L 296.330448 182.291237 
L 293.557303 184.301538 
L 291.267292 185.923601 
L 288.204322 188.039426 
L 287.70652 188.377485 
L 285.49414 189.860268 
L 283.647249 191.07352 
L 280.441483 193.126346 
L 277.851316 194.735764 
L 276.989991 195.261209 
L 273.98062 197.058876 
L 271.446774 198.526447 
L 269.940181 199.379094 
L 268.36639 200.253881 
L 265.381329 201.868512 
L 262.606661 203.316959 
L 261.338705 203.962062 
L 259.061208 205.094327 
L 256.26354 206.438657 
L 255.026279 207.01682 
L 252.562621 208.138184 
L 251.253084 208.71804 
L 247.970486 210.122147 
L 246.960131 210.540102 
L 244.7453 211.4329 
L 242.406089 212.340919 
L 241.006619 212.867005 
L 238.902311 213.633887 
L 236.389888 214.51148 
L 234.408259 215.174476 
L 231.404512 216.13036 
L 230.610909 216.37303 
L 227.221027 217.363117 
L 225.609817 217.807294 
L 224.321532 218.150203 
L 221.865348 218.773832 
L 218.097726 219.653578 
L 216.830028 219.928665 
L 214.564902 220.393961 
L 213.669484 220.568619 
L 209.76135 221.269399 
L 207.647146 221.606769 
L 205.917119 221.861036 
L 205.229305 221.956675 
L 202.342078 222.324305 
L 200.264629 222.55502 
L 197.661823 222.80415 
L 195.171418 223.000947 
L 194.277973 223.061639 
L 191.577645 223.213265 
L 190.157457 223.273829 
L 188.337609 223.332109 
L 185.362297 223.380629 
L 183.493597 223.381433 
L 181.970889 223.365161 
L 177.852959 223.245022 
L 176.249461 223.168169 
L 175.292881 223.114295 
L 173.551288 223.000807 
L 171.12914 222.809915 
L 168.666217 222.576373 
L 167.017966 222.39787 
L 163.042933 221.894114 
L 161.756547 221.708906 
L 159.253896 221.317503 
L 156.822011 220.897834 
L 155.117647 220.580606 
L 153.13198 220.187003 
L 151.868917 219.923186 
L 148.142336 219.083866 
L 147.589237 218.951535 
L 144.333274 218.131885 
L 142.284599 217.580534 
L 139.727986 216.853893 
L 138.145033 216.382507 
L 137.318457 216.129834 
L 133.294124 214.835661 
L 133.156497 214.789525 
L 129.789746 213.622221 
L 127.327635 212.72153 
L 125.451452 212.008505 
L 123.83545 211.375861 
L 121.300865 210.349122 
L 118.608681 209.212418 
L 118.221123 209.04487 
L 114.775167 207.511821 
L 112.233889 206.331377 
L 111.87871 206.163021 
L 109.638625 205.08216 
L 107.695789 204.118088 
L 104.340695 202.394963 
L 103.36968 201.882496 
L 99.608473 199.839125 
L 97.774494 198.809135 
L 96.340508 197.988427 
L 93.511223 196.329615 
L 91.468671 195.099449 
L 88.998394 193.575137 
L 86.967269 192.291841 
L 85.463246 191.324148 
L 83.458658 190.011337 
L 81.753646 188.873988 
L 78.627516 186.73916 
L 76.50428 185.252675 
L 76.030959 184.917273 
L 73.794917 183.312923 
L 70.017648 180.528301 
L 68.723407 179.552665 
L 66.286887 177.686151 
L 63.592134 175.576494 
L 61.824082 174.166465 
L 59.807879 172.533527 
L 58.578969 171.525152 
L 55.06253 168.585062 
L 54.347692 167.977473 
L 51.347344 165.390738 
L 50.245388 164.425875 
L 46.569543 161.149771 
L 45.192188 159.899387 
L 43.814998 158.63672 
L 42.130914 157.07578 
L 39.546598 154.644279 
L 36.984132 152.190107 
L 33.719774 149.00136 
L 32.757491 148.048035 
L 30.025625 145.308522 
L 27.317594 142.544623 
L 26.062575 141.24741 
L 24.258578 139.364675 
L 22.530059 137.540698 
L 19.211577 133.984055 
L 18.158854 132.840696 
L 15.636302 130.071401 
L 15.636302 316.696412 
L 17.116812 315.877628 
L 20.65976 313.918231 
L 22.772335 312.749889 
L 24.38155 311.859927 
L 26.016467 310.955749 
L 28.635943 309.507071 
L 31.519926 307.912108 
L 33.20674 306.97923 
L 34.207128 306.425974 
L 37.537555 304.58411 
L 39.17555 303.67823 
L 40.130126 303.15031 
L 43.757452 301.144248 
L 46.208533 299.788698 
L 47.769216 298.925576 
L 48.768014 298.373199 
L 51.987102 296.59291 
L 53.502166 295.755016 
L 54.887703 294.988757 
L 57.860909 293.344451 
L 60.035784 292.141654 
L 62.579754 290.734733 
L 64.79678 289.508626 
L 65.887106 288.90563 
L 68.633964 287.386504 
L 70.579745 286.310406 
L 72.762378 285.103319 
L 75.966169 283.33149 
L 77.977973 282.218879 
L 78.682414 281.829294 
L 82.168834 279.901159 
L 82.49668 279.719846 
L 85.065359 278.29926 
L 87.601378 276.896736 
L 89.591652 275.796032 
L 92.322761 274.285615 
L 93.353805 273.715405 
L 96.268464 272.103477 
L 98.835725 270.683676 
L 100.611699 269.701488 
L 103.289737 268.220422 
L 103.65089 268.020689 
L 106.305283 266.5527 
L 108.460151 265.360968 
L 111.1458 263.875693 
L 113.807686 262.403559 
L 115.393492 261.526543 
L 117.820221 260.184461 
L 119.556391 259.224286 
L 122.542543 257.57282 
L 123.497256 257.044824 
L 126.471392 255.400004 
L 127.096105 255.054512 
L 129.529492 253.708747 
L 131.603092 252.56196 
L 133.617282 251.44803 
L 137.517445 249.291078 
L 138.851462 248.553311 
L 141.527965 247.073093 
L 143.398689 246.038505 
L 145.471384 244.892219 
L 147.935315 243.529563 
L 149.786849 242.505588 
L 151.65607 241.471831 
L 152.579968 240.960877 
L 154.744064 239.764042 
L 156.730345 238.665546 
L 160.038313 236.836102 
L 161.049647 236.276792 
L 163.874254 234.714668 
L 165.290843 233.931235 
L 168.538874 232.134939 
L 169.57535 231.561725 
L 171.652871 230.412769 
L 174.839718 228.650311 
L 177.277483 227.302125 
L 179.347847 226.157128 
L 180.156596 225.709856 
L 183.359431 223.938556 
L 185.627411 222.684268 
L 187.935582 221.407754 
L 188.824308 220.916251 
L 192.035098 219.140551 
L 193.129823 218.535123 
L 196.302289 216.780618 
L 198.812575 215.392325 
L 200.85916 214.260478 
L 202.468845 213.370256 
L 204.932472 212.007768 
L 205.682966 211.592713 
L 208.921923 209.801436 
L 211.691784 208.269588 
L 212.879174 207.612911 
L 214.531612 206.699044 
L 217.621995 204.989935 
L 219.391608 204.011265 
L 221.184733 203.019593 
L 223.237211 201.884487 
L 224.708676 201.070706 
L 227.121891 199.736097 
L 228.958049 198.720626 
L 231.660124 197.226266 
L 234.353704 195.736604 
L 236.904608 194.325849 
L 238.425081 193.484964 
L 239.754995 192.749466 
L 242.206088 191.39391 
L 244.47244 190.140523 
L 246.121376 189.228593 
L 248.94541 187.666785 
L 250.088778 187.034455 
L 252.148685 185.895241 
L 254.835285 184.40944 
L 256.591068 183.438418 
L 258.864773 182.180965 
L 262.340722 180.258621 
L 262.977072 179.906693 
L 266.551782 177.92973 
L 267.55114 177.377043 
L 269.436269 176.334489 
L 272.450769 174.667345 
L 273.618175 174.021721 
L 276.640792 172.350089 
L 278.673414 171.225964 
L 280.444457 170.246503 
L 282.530027 169.093097 
L 284.993742 167.73056 
L 286.372478 166.968062 
L 289.099567 165.459869 
L 290.609714 164.624695 
L 293.800992 162.859785 
L 294.900058 162.251956 
L 297.397108 160.870984 
L 300.705117 159.041517 
L 302.009631 158.320067 
L 304.690828 156.837254 
L 307.033383 155.541723 
L 307.498038 155.28475 
L 310.012924 153.893913 
L 312.586137 152.47082 
L 314.104512 151.631095 
L 317.434855 149.789277 
L 318.81834 149.024153 
L 321.890606 147.325062 
L 323.206145 146.597514 
L 325.447206 145.358114 
L 327.154078 144.414143 
L 330.04721 142.814121 
L 331.738812 141.878595 
L 332.820126 141.280583 
L 334.893407 140.133973 
L 337.64799 138.610574 
L 340.394305 137.091748 
L 341.505106 136.477429 
L 344.898672 134.600646 
L 347.11747 133.373558 
L 347.709606 133.046082 
L 351.28568 131.068365 
L 351.870241 130.745078 
L 353.789964 129.683392 
L 357.556524 127.600328 
L 358.072404 127.315025 
L 360.11927 126.183023 
L 362.670901 124.771865 
L 366.247979 122.793592 
L 368.31067 121.652838 
L 369.022363 121.259243 
L 372.058339 119.580222 
L 374.780731 118.074626 
L 377.003278 116.845465 
L 377.539412 116.548961 
L 380.331754 115.00468 
L 381.349603 114.441767 
L 383.859276 113.053814 
L 386.404405 111.646251 
L 387.992946 110.767722 
L 391.219533 108.983286 
L 393.055305 107.968028 
L 394.243715 107.310787 
L 396.880675 105.852439 
L 399.362846 104.479695 
L 402.350576 102.827357 
L 404.214869 101.796325 
L 406.316166 100.634221 
L 408.584264 99.379868 
L 410.259791 98.453232 
L 411.705777 97.653542 
L 414.615844 96.044154 
L 415.502206 95.553959 
L 418.643329 93.816788 
L 421.467414 92.254951 
L 421.672282 92.14165 
L 423.815537 90.956342 
L 426.474834 89.48564 
L 429.652122 87.728468 
L 431.767045 86.558827 
L 432.55791 86.121446 
L 435.341595 84.581953 
L 437.451391 83.415148 
z
" clip-path="url(#p260f9d8550)" style="fill: #c9ffb2; opacity: 0.5"/>
   </g>
   <g id="patch_5">
    <path d="M 15.636302 223.383907 
L 15.636302 130.071401 
L 18.273804 132.965897 
L 19.072412 133.833325 
L 22.783696 137.809568 
L 23.653667 138.728586 
L 27.147828 142.369753 
L 28.63231 143.892466 
L 30.057227 145.340491 
L 32.037934 147.33121 
L 34.648954 149.91613 
L 37.717361 152.896745 
L 39.692654 154.782865 
L 41.885051 156.84634 
L 43.729508 158.557929 
L 45.666548 160.331423 
L 48.227758 162.638624 
L 49.636419 163.889252 
L 52.53944 166.425563 
L 53.325391 167.102729 
L 54.913665 168.458808 
L 57.069864 170.27332 
L 59.662946 172.415118 
L 61.654396 174.030062 
L 64.585272 176.359537 
L 65.743696 177.264731 
L 69.129606 179.860052 
L 70.552874 180.928559 
L 73.856813 183.357775 
L 75.610055 184.61778 
L 76.600178 185.320451 
L 79.617231 187.421965 
L 80.783367 188.218243 
L 83.247739 189.871674 
L 86.414792 191.938099 
L 86.747581 192.151417 
L 90.678679 194.616326 
L 90.952641 194.784333 
L 94.905434 197.1536 
L 96.385197 198.014207 
L 98.175269 199.036099 
L 100.861843 200.530353 
L 102.827124 201.593463 
L 105.522395 203.010285 
L 106.179914 203.348697 
L 109.504361 205.016332 
L 110.300902 205.40514 
L 113.606712 206.974322 
L 115.562655 207.869023 
L 117.052691 208.533776 
L 118.456711 209.146836 
L 120.618354 210.065445 
L 122.863938 210.987287 
L 126.306456 212.336303 
L 127.903014 212.935574 
L 130.665282 213.932932 
L 131.894866 214.360803 
L 134.08702 215.099044 
L 136.189768 215.777575 
L 139.586152 216.812326 
L 140.735808 217.145452 
L 141.771698 217.438193 
L 145.796926 218.508941 
L 146.17235 218.603392 
L 148.712632 219.218211 
L 152.271822 220.008477 
L 152.684536 220.094741 
L 155.724117 220.695669 
L 158.434881 221.180496 
L 158.717065 221.228197 
L 161.001249 221.595107 
L 163.950903 222.018309 
L 166.877906 222.381881 
L 167.615185 222.464606 
L 169.613199 222.670875 
L 173.375023 222.988213 
L 174.170077 223.043407 
L 176.438864 223.178125 
L 178.896242 223.285973 
L 181.234726 223.351844 
L 183.1857 223.379369 
L 184.675202 223.383586 
L 187.071857 223.359843 
L 189.623003 223.293196 
L 191.523902 223.215797 
L 192.988875 223.139986 
L 196.550421 222.896999 
L 198.77093 222.703421 
L 199.347284 222.647893 
L 201.86288 222.380034 
L 205.112505 221.972608 
L 206.921728 221.715775 
L 208.234339 221.516008 
L 210.247849 221.187619 
L 211.939821 220.891121 
L 215.295257 220.247608 
L 216.327814 220.03473 
L 219.324785 219.377276 
L 221.541858 218.85302 
L 224.343686 218.144398 
L 226.257405 217.630813 
L 227.529801 217.276052 
L 229.066272 216.833517 
L 231.009658 216.251616 
L 232.949276 215.646156 
L 236.28668 214.546646 
L 238.620188 213.734495 
L 239.35158 213.472595 
L 242.634636 212.253784 
L 243.999804 211.726176 
L 246.01331 210.9257 
L 248.337922 209.96849 
L 251.598334 208.566256 
L 252.850323 208.009285 
L 255.134468 206.966665 
L 256.367886 206.389439 
L 260.15674 204.553924 
L 262.504391 203.369381 
L 262.97546 203.127344 
L 265.94604 201.567538 
L 268.384511 200.2439 
L 270.259315 199.199724 
L 271.288028 198.61699 
L 273.26457 197.477869 
L 276.781049 195.38794 
L 278.868629 194.108894 
L 280.603865 193.023984 
L 282.070295 192.091748 
L 284.076397 190.7936 
L 287.67704 188.397454 
L 288.59062 187.77597 
L 292.00185 185.407043 
L 294.119478 183.898082 
L 294.454616 183.656578 
L 297.346219 181.542273 
L 299.70975 179.773377 
L 300.91384 178.85814 
L 304.888333 175.76964 
L 305.704271 175.122778 
L 307.708505 173.515331 
L 310.321982 171.379697 
L 313.350348 168.84903 
L 314.0272 168.275195 
L 316.581866 166.082293 
L 317.932334 164.905776 
L 321.413072 161.818269 
L 324.016802 159.456763 
L 325.706172 157.900783 
L 328.133771 155.632104 
L 329.753213 154.097195 
L 331.251497 152.661808 
L 332.623666 151.334332 
L 335.026262 148.980264 
L 338.27605 145.735906 
L 339.017719 144.985773 
L 342.344889 141.57626 
L 344.311386 139.526975 
L 346.639348 137.068237 
L 348.775083 134.781277 
L 350.402738 133.018295 
L 352.445843 130.780739 
L 354.325963 128.697503 
L 357.393817 125.248463 
L 358.210176 124.320277 
L 360.809694 121.335563 
L 363.589528 118.0948 
L 365.982853 115.264052 
L 368.228748 112.573527 
L 370.415968 109.921512 
L 372.783134 107.015974 
L 374.077147 105.412131 
L 376.733358 102.085542 
L 378.520227 99.821678 
L 380.700921 97.030501 
L 381.350496 96.193052 
L 383.997037 92.752469 
L 386.978862 88.820996 
L 388.971883 86.160743 
L 389.825322 85.013623 
L 393.946588 79.406968 
L 395.308741 77.529385 
L 396.707993 75.588 
L 399.835302 71.20263 
L 401.541954 68.782382 
L 403.456184 66.045044 
L 406.41797 61.762369 
L 407.345245 60.409731 
L 409.365069 57.443851 
L 411.850033 53.758278 
L 414.061836 50.443792 
L 415.804812 47.809271 
L 417.364254 45.435283 
L 420.748846 40.227962 
L 421.671847 38.794858 
L 424.921997 33.704034 
L 426.478288 31.241843 
L 429.18739 26.917926 
L 430.553066 24.719971 
L 433.311624 20.242985 
L 435.857451 16.066986 
L 437.451391 13.430769 
L 437.451391 223.383907 
z
" clip-path="url(#p260f9d8550)" style="fill: #ffb2df; opacity: 0.5"/>
   </g>
   <g id="matplotlib.axis_1">
    <g id="xtick_1">
     <g id="line2d_1">
      <defs>
       <path id="m71244c4ff4" d="M 0 0 
L 0 3.5 
" style="stroke: #000000; stroke-width: 0.8"/>
      </defs>
      <g>
       <use xlink:href="#m71244c4ff4" x="15.636302" y="223.383907" style="stroke: #000000; stroke-width: 0.8"/>
      </g>
     </g>
     <g id="text_1">
      <!-- −2 -->
      <g transform="translate(8.265208 237.982344) scale(0.1 -0.1)">
       <defs>
        <path id="DejaVuSans-2212" d="M 678 2272 
L 4684 2272 
L 4684 1741 
L 678 1741 
L 678 2272 
z
" transform="scale(0.015625)"/>
        <path id="DejaVuSans-32" d="M 1228 531 
L 3431 531 
L 3431 0 
L 469 0 
L 469 531 
Q 828 903 1448 1529 
Q 2069 2156 2228 2338 
Q 2531 2678 2651 2914 
Q 2772 3150 2772 3378 
Q 2772 3750 2511 3984 
Q 2250 4219 1831 4219 
Q 1534 4219 1204 4116 
Q 875 4013 500 3803 
L 500 4441 
Q 881 4594 1212 4672 
Q 1544 4750 1819 4750 
Q 2544 4750 2975 4387 
Q 3406 4025 3406 3419 
Q 3406 3131 3298 2873 
Q 3191 2616 2906 2266 
Q 2828 2175 2409 1742 
Q 1991 1309 1228 531 
z
" transform="scale(0.015625)"/>
       </defs>
       <use xlink:href="#DejaVuSans-2212"/>
       <use xlink:href="#DejaVuSans-32" x="83.789062"/>
      </g>
     </g>
    </g>
    <g id="xtick_2">
     <g id="line2d_2">
      <g>
       <use xlink:href="#m71244c4ff4" x="99.99932" y="223.383907" style="stroke: #000000; stroke-width: 0.8"/>
      </g>
     </g>
     <g id="text_2">
      <!-- −1 -->
      <g transform="translate(92.628226 237.982344) scale(0.1 -0.1)">
       <defs>
        <path id="DejaVuSans-31" d="M 794 531 
L 1825 531 
L 1825 4091 
L 703 3866 
L 703 4441 
L 1819 4666 
L 2450 4666 
L 2450 531 
L 3481 531 
L 3481 0 
L 794 0 
L 794 531 
z
" transform="scale(0.015625)"/>
       </defs>
       <use xlink:href="#DejaVuSans-2212"/>
       <use xlink:href="#DejaVuSans-31" x="83.789062"/>
      </g>
     </g>
    </g>
    <g id="xtick_3">
     <g id="line2d_3">
      <g>
       <use xlink:href="#m71244c4ff4" x="184.362337" y="223.383907" style="stroke: #000000; stroke-width: 0.8"/>
      </g>
     </g>
    </g>
    <g id="xtick_4">
     <g id="line2d_4">
      <g>
       <use xlink:href="#m71244c4ff4" x="268.725355" y="223.383907" style="stroke: #000000; stroke-width: 0.8"/>
      </g>
     </g>
     <g id="text_3">
      <!-- 1 -->
      <g transform="translate(265.544105 237.982344) scale(0.1 -0.1)">
       <use xlink:href="#DejaVuSans-31"/>
      </g>
     </g>
    </g>
    <g id="xtick_5">
     <g id="line2d_5">
      <g>
       <use xlink:href="#m71244c4ff4" x="353.088373" y="223.383907" style="stroke: #000000; stroke-width: 0.8"/>
      </g>
     </g>
     <g id="text_4">
      <!-- 2 -->
      <g transform="translate(349.907123 237.982344) scale(0.1 -0.1)">
       <use xlink:href="#DejaVuSans-32"/>
      </g>
     </g>
    </g>
    <g id="xtick_6">
     <g id="line2d_6">
      <g>
       <use xlink:href="#m71244c4ff4" x="437.451391" y="223.383907" style="stroke: #000000; stroke-width: 0.8"/>
      </g>
     </g>
     <g id="text_5">
      <!-- 3 -->
      <g transform="translate(434.270141 237.982344) scale(0.1 -0.1)">
       <defs>
        <path id="DejaVuSans-33" d="M 2597 2516 
Q 3050 2419 3304 2112 
Q 3559 1806 3559 1356 
Q 3559 666 3084 287 
Q 2609 -91 1734 -91 
Q 1441 -91 1130 -33 
Q 819 25 488 141 
L 488 750 
Q 750 597 1062 519 
Q 1375 441 1716 441 
Q 2309 441 2620 675 
Q 2931 909 2931 1356 
Q 2931 1769 2642 2001 
Q 2353 2234 1838 2234 
L 1294 2234 
L 1294 2753 
L 1863 2753 
Q 2328 2753 2575 2939 
Q 2822 3125 2822 3475 
Q 2822 3834 2567 4026 
Q 2313 4219 1838 4219 
Q 1578 4219 1281 4162 
Q 984 4106 628 3988 
L 628 4550 
Q 988 4650 1302 4700 
Q 1616 4750 1894 4750 
Q 2613 4750 3031 4423 
Q 3450 4097 3450 3541 
Q 3450 3153 3228 2886 
Q 3006 2619 2597 2516 
z
" transform="scale(0.015625)"/>
       </defs>
       <use xlink:href="#DejaVuSans-33"/>
      </g>
     </g>
    </g>
    <g id="xtick_7">
     <g id="line2d_7">
      <defs>
       <path id="mad0b11e587" d="M 0 0 
L 0 2 
" style="stroke: #000000; stroke-width: 0.6"/>
      </defs>
      <g>
       <use xlink:href="#mad0b11e587" x="32.508905" y="223.383907" style="stroke: #000000; stroke-width: 0.6"/>
      </g>
     </g>
    </g>
    <g id="xtick_8">
     <g id="line2d_8">
      <g>
       <use xlink:href="#mad0b11e587" x="49.381509" y="223.383907" style="stroke: #000000; stroke-width: 0.6"/>
      </g>
     </g>
    </g>
    <g id="xtick_9">
     <g id="line2d_9">
      <g>
       <use xlink:href="#mad0b11e587" x="66.254112" y="223.383907" style="stroke: #000000; stroke-width: 0.6"/>
      </g>
     </g>
    </g>
    <g id="xtick_10">
     <g id="line2d_10">
      <g>
       <use xlink:href="#mad0b11e587" x="83.126716" y="223.383907" style="stroke: #000000; stroke-width: 0.6"/>
      </g>
     </g>
    </g>
    <g id="xtick_11">
     <g id="line2d_11">
      <g>
       <use xlink:href="#mad0b11e587" x="116.871923" y="223.383907" style="stroke: #000000; stroke-width: 0.6"/>
      </g>
     </g>
    </g>
    <g id="xtick_12">
     <g id="line2d_12">
      <g>
       <use xlink:href="#mad0b11e587" x="133.744527" y="223.383907" style="stroke: #000000; stroke-width: 0.6"/>
      </g>
     </g>
    </g>
    <g id="xtick_13">
     <g id="line2d_13">
      <g>
       <use xlink:href="#mad0b11e587" x="150.61713" y="223.383907" style="stroke: #000000; stroke-width: 0.6"/>
      </g>
     </g>
    </g>
    <g id="xtick_14">
     <g id="line2d_14">
      <g>
       <use xlink:href="#mad0b11e587" x="167.489734" y="223.383907" style="stroke: #000000; stroke-width: 0.6"/>
      </g>
     </g>
    </g>
    <g id="xtick_15">
     <g id="line2d_15">
      <g>
       <use xlink:href="#mad0b11e587" x="201.234941" y="223.383907" style="stroke: #000000; stroke-width: 0.6"/>
      </g>
     </g>
    </g>
    <g id="xtick_16">
     <g id="line2d_16">
      <g>
       <use xlink:href="#mad0b11e587" x="218.107544" y="223.383907" style="stroke: #000000; stroke-width: 0.6"/>
      </g>
     </g>
    </g>
    <g id="xtick_17">
     <g id="line2d_17">
      <g>
       <use xlink:href="#mad0b11e587" x="234.980148" y="223.383907" style="stroke: #000000; stroke-width: 0.6"/>
      </g>
     </g>
    </g>
    <g id="xtick_18">
     <g id="line2d_18">
      <g>
       <use xlink:href="#mad0b11e587" x="251.852751" y="223.383907" style="stroke: #000000; stroke-width: 0.6"/>
      </g>
     </g>
    </g>
    <g id="xtick_19">
     <g id="line2d_19">
      <g>
       <use xlink:href="#mad0b11e587" x="285.597959" y="223.383907" style="stroke: #000000; stroke-width: 0.6"/>
      </g>
     </g>
    </g>
    <g id="xtick_20">
     <g id="line2d_20">
      <g>
       <use xlink:href="#mad0b11e587" x="302.470562" y="223.383907" style="stroke: #000000; stroke-width: 0.6"/>
      </g>
     </g>
    </g>
    <g id="xtick_21">
     <g id="line2d_21">
      <g>
       <use xlink:href="#mad0b11e587" x="319.343166" y="223.383907" style="stroke: #000000; stroke-width: 0.6"/>
      </g>
     </g>
    </g>
    <g id="xtick_22">
     <g id="line2d_22">
      <g>
       <use xlink:href="#mad0b11e587" x="336.215769" y="223.383907" style="stroke: #000000; stroke-width: 0.6"/>
      </g>
     </g>
    </g>
    <g id="xtick_23">
     <g id="line2d_23">
      <g>
       <use xlink:href="#mad0b11e587" x="369.960976" y="223.383907" style="stroke: #000000; stroke-width: 0.6"/>
      </g>
     </g>
    </g>
    <g id="xtick_24">
     <g id="line2d_24">
      <g>
       <use xlink:href="#mad0b11e587" x="386.83358" y="223.383907" style="stroke: #000000; stroke-width: 0.6"/>
      </g>
     </g>
    </g>
    <g id="xtick_25">
     <g id="line2d_25">
      <g>
       <use xlink:href="#mad0b11e587" x="403.706183" y="223.383907" style="stroke: #000000; stroke-width: 0.6"/>
      </g>
     </g>
    </g>
    <g id="xtick_26">
     <g id="line2d_26">
      <g>
       <use xlink:href="#mad0b11e587" x="420.578787" y="223.383907" style="stroke: #000000; stroke-width: 0.6"/>
      </g>
     </g>
    </g>
   </g>
   <g id="matplotlib.axis_2">
    <g id="ytick_1">
     <g id="line2d_27">
      <defs>
       <path id="m387ec2216e" d="M 0 0 
L -3.5 0 
" style="stroke: #000000; stroke-width: 0.8"/>
      </defs>
      <g>
       <use xlink:href="#m387ec2216e" x="184.362337" y="316.696412" style="stroke: #000000; stroke-width: 0.8"/>
      </g>
     </g>
     <g id="text_6">
      <!-- −1.0 -->
      <g transform="translate(153.079525 320.495631) scale(0.1 -0.1)">
       <defs>
        <path id="DejaVuSans-2e" d="M 684 794 
L 1344 794 
L 1344 0 
L 684 0 
L 684 794 
z
" transform="scale(0.015625)"/>
        <path id="DejaVuSans-30" d="M 2034 4250 
Q 1547 4250 1301 3770 
Q 1056 3291 1056 2328 
Q 1056 1369 1301 889 
Q 1547 409 2034 409 
Q 2525 409 2770 889 
Q 3016 1369 3016 2328 
Q 3016 3291 2770 3770 
Q 2525 4250 2034 4250 
z
M 2034 4750 
Q 2819 4750 3233 4129 
Q 3647 3509 3647 2328 
Q 3647 1150 3233 529 
Q 2819 -91 2034 -91 
Q 1250 -91 836 529 
Q 422 1150 422 2328 
Q 422 3509 836 4129 
Q 1250 4750 2034 4750 
z
" transform="scale(0.015625)"/>
       </defs>
       <use xlink:href="#DejaVuSans-2212"/>
       <use xlink:href="#DejaVuSans-31" x="83.789062"/>
       <use xlink:href="#DejaVuSans-2e" x="147.412109"/>
       <use xlink:href="#DejaVuSans-30" x="179.199219"/>
      </g>
     </g>
    </g>
    <g id="ytick_2">
     <g id="line2d_28">
      <g>
       <use xlink:href="#m387ec2216e" x="184.362337" y="270.040159" style="stroke: #000000; stroke-width: 0.8"/>
      </g>
     </g>
     <g id="text_7">
      <!-- −0.5 -->
      <g transform="translate(153.079525 273.839378) scale(0.1 -0.1)">
       <defs>
        <path id="DejaVuSans-35" d="M 691 4666 
L 3169 4666 
L 3169 4134 
L 1269 4134 
L 1269 2991 
Q 1406 3038 1543 3061 
Q 1681 3084 1819 3084 
Q 2600 3084 3056 2656 
Q 3513 2228 3513 1497 
Q 3513 744 3044 326 
Q 2575 -91 1722 -91 
Q 1428 -91 1123 -41 
Q 819 9 494 109 
L 494 744 
Q 775 591 1075 516 
Q 1375 441 1709 441 
Q 2250 441 2565 725 
Q 2881 1009 2881 1497 
Q 2881 1984 2565 2268 
Q 2250 2553 1709 2553 
Q 1456 2553 1204 2497 
Q 953 2441 691 2322 
L 691 4666 
z
" transform="scale(0.015625)"/>
       </defs>
       <use xlink:href="#DejaVuSans-2212"/>
       <use xlink:href="#DejaVuSans-30" x="83.789062"/>
       <use xlink:href="#DejaVuSans-2e" x="147.412109"/>
       <use xlink:href="#DejaVuSans-35" x="179.199219"/>
      </g>
     </g>
    </g>
    <g id="ytick_3">
     <g id="line2d_29">
      <g>
       <use xlink:href="#m387ec2216e" x="184.362337" y="223.383907" style="stroke: #000000; stroke-width: 0.8"/>
      </g>
     </g>
    </g>
    <g id="ytick_4">
     <g id="line2d_30">
      <g>
       <use xlink:href="#m387ec2216e" x="184.362337" y="176.727654" style="stroke: #000000; stroke-width: 0.8"/>
      </g>
     </g>
     <g id="text_8">
      <!-- 0.5 -->
      <g transform="translate(161.459212 180.526873) scale(0.1 -0.1)">
       <use xlink:href="#DejaVuSans-30"/>
       <use xlink:href="#DejaVuSans-2e" x="63.623047"/>
       <use xlink:href="#DejaVuSans-35" x="95.410156"/>
      </g>
     </g>
    </g>
    <g id="ytick_5">
     <g id="line2d_31">
      <g>
       <use xlink:href="#m387ec2216e" x="184.362337" y="130.071401" style="stroke: #000000; stroke-width: 0.8"/>
      </g>
     </g>
     <g id="text_9">
      <!-- 1.0 -->
      <g transform="translate(161.459212 133.87062) scale(0.1 -0.1)">
       <use xlink:href="#DejaVuSans-31"/>
       <use xlink:href="#DejaVuSans-2e" x="63.623047"/>
       <use xlink:href="#DejaVuSans-30" x="95.410156"/>
      </g>
     </g>
    </g>
    <g id="ytick_6">
     <g id="line2d_32">
      <g>
       <use xlink:href="#m387ec2216e" x="184.362337" y="83.415148" style="stroke: #000000; stroke-width: 0.8"/>
      </g>
     </g>
     <g id="text_10">
      <!-- 1.5 -->
      <g transform="translate(161.459212 87.214367) scale(0.1 -0.1)">
       <use xlink:href="#DejaVuSans-31"/>
       <use xlink:href="#DejaVuSans-2e" x="63.623047"/>
       <use xlink:href="#DejaVuSans-35" x="95.410156"/>
      </g>
     </g>
    </g>
    <g id="ytick_7">
     <g id="line2d_33">
      <g>
       <use xlink:href="#m387ec2216e" x="184.362337" y="36.758896" style="stroke: #000000; stroke-width: 0.8"/>
      </g>
     </g>
     <g id="text_11">
      <!-- 2.0 -->
      <g transform="translate(161.459212 40.558114) scale(0.1 -0.1)">
       <use xlink:href="#DejaVuSans-32"/>
       <use xlink:href="#DejaVuSans-2e" x="63.623047"/>
       <use xlink:href="#DejaVuSans-30" x="95.410156"/>
      </g>
     </g>
    </g>
    <g id="ytick_8">
     <g id="line2d_34">
      <defs>
       <path id="m0fac1b41dc" d="M 0 0 
L -2 0 
" style="stroke: #000000; stroke-width: 0.6"/>
      </defs>
      <g>
       <use xlink:href="#m0fac1b41dc" x="184.362337" y="326.027663" style="stroke: #000000; stroke-width: 0.6"/>
      </g>
     </g>
    </g>
    <g id="ytick_9">
     <g id="line2d_35">
      <g>
       <use xlink:href="#m0fac1b41dc" x="184.362337" y="307.365161" style="stroke: #000000; stroke-width: 0.6"/>
      </g>
     </g>
    </g>
    <g id="ytick_10">
     <g id="line2d_36">
      <g>
       <use xlink:href="#m0fac1b41dc" x="184.362337" y="298.033911" style="stroke: #000000; stroke-width: 0.6"/>
      </g>
     </g>
    </g>
    <g id="ytick_11">
     <g id="line2d_37">
      <g>
       <use xlink:href="#m0fac1b41dc" x="184.362337" y="288.70266" style="stroke: #000000; stroke-width: 0.6"/>
      </g>
     </g>
    </g>
    <g id="ytick_12">
     <g id="line2d_38">
      <g>
       <use xlink:href="#m0fac1b41dc" x="184.362337" y="279.37141" style="stroke: #000000; stroke-width: 0.6"/>
      </g>
     </g>
    </g>
    <g id="ytick_13">
     <g id="line2d_39">
      <g>
       <use xlink:href="#m0fac1b41dc" x="184.362337" y="260.708909" style="stroke: #000000; stroke-width: 0.6"/>
      </g>
     </g>
    </g>
    <g id="ytick_14">
     <g id="line2d_40">
      <g>
       <use xlink:href="#m0fac1b41dc" x="184.362337" y="251.377658" style="stroke: #000000; stroke-width: 0.6"/>
      </g>
     </g>
    </g>
    <g id="ytick_15">
     <g id="line2d_41">
      <g>
       <use xlink:href="#m0fac1b41dc" x="184.362337" y="242.046408" style="stroke: #000000; stroke-width: 0.6"/>
      </g>
     </g>
    </g>
    <g id="ytick_16">
     <g id="line2d_42">
      <g>
       <use xlink:href="#m0fac1b41dc" x="184.362337" y="232.715157" style="stroke: #000000; stroke-width: 0.6"/>
      </g>
     </g>
    </g>
    <g id="ytick_17">
     <g id="line2d_43">
      <g>
       <use xlink:href="#m0fac1b41dc" x="184.362337" y="214.052656" style="stroke: #000000; stroke-width: 0.6"/>
      </g>
     </g>
    </g>
    <g id="ytick_18">
     <g id="line2d_44">
      <g>
       <use xlink:href="#m0fac1b41dc" x="184.362337" y="204.721405" style="stroke: #000000; stroke-width: 0.6"/>
      </g>
     </g>
    </g>
    <g id="ytick_19">
     <g id="line2d_45">
      <g>
       <use xlink:href="#m0fac1b41dc" x="184.362337" y="195.390155" style="stroke: #000000; stroke-width: 0.6"/>
      </g>
     </g>
    </g>
    <g id="ytick_20">
     <g id="line2d_46">
      <g>
       <use xlink:href="#m0fac1b41dc" x="184.362337" y="186.058904" style="stroke: #000000; stroke-width: 0.6"/>
      </g>
     </g>
    </g>
    <g id="ytick_21">
     <g id="line2d_47">
      <g>
       <use xlink:href="#m0fac1b41dc" x="184.362337" y="167.396403" style="stroke: #000000; stroke-width: 0.6"/>
      </g>
     </g>
    </g>
    <g id="ytick_22">
     <g id="line2d_48">
      <g>
       <use xlink:href="#m0fac1b41dc" x="184.362337" y="158.065153" style="stroke: #000000; stroke-width: 0.6"/>
      </g>
     </g>
    </g>
    <g id="ytick_23">
     <g id="line2d_49">
      <g>
       <use xlink:href="#m0fac1b41dc" x="184.362337" y="148.733902" style="stroke: #000000; stroke-width: 0.6"/>
      </g>
     </g>
    </g>
    <g id="ytick_24">
     <g id="line2d_50">
      <g>
       <use xlink:href="#m0fac1b41dc" x="184.362337" y="139.402652" style="stroke: #000000; stroke-width: 0.6"/>
      </g>
     </g>
    </g>
    <g id="ytick_25">
     <g id="line2d_51">
      <g>
       <use xlink:href="#m0fac1b41dc" x="184.362337" y="120.740151" style="stroke: #000000; stroke-width: 0.6"/>
      </g>
     </g>
    </g>
    <g id="ytick_26">
     <g id="line2d_52">
      <g>
       <use xlink:href="#m0fac1b41dc" x="184.362337" y="111.4089" style="stroke: #000000; stroke-width: 0.6"/>
      </g>
     </g>
    </g>
    <g id="ytick_27">
     <g id="line2d_53">
      <g>
       <use xlink:href="#m0fac1b41dc" x="184.362337" y="102.077649" style="stroke: #000000; stroke-width: 0.6"/>
      </g>
     </g>
    </g>
    <g id="ytick_28">
     <g id="line2d_54">
      <g>
       <use xlink:href="#m0fac1b41dc" x="184.362337" y="92.746399" style="stroke: #000000; stroke-width: 0.6"/>
      </g>
     </g>
    </g>
    <g id="ytick_29">
     <g id="line2d_55">
      <g>
       <use xlink:href="#m0fac1b41dc" x="184.362337" y="74.083898" style="stroke: #000000; stroke-width: 0.6"/>
      </g>
     </g>
    </g>
    <g id="ytick_30">
     <g id="line2d_56">
      <g>
       <use xlink:href="#m0fac1b41dc" x="184.362337" y="64.752647" style="stroke: #000000; stroke-width: 0.6"/>
      </g>
     </g>
    </g>
    <g id="ytick_31">
     <g id="line2d_57">
      <g>
       <use xlink:href="#m0fac1b41dc" x="184.362337" y="55.421397" style="stroke: #000000; stroke-width: 0.6"/>
      </g>
     </g>
    </g>
    <g id="ytick_32">
     <g id="line2d_58">
      <g>
       <use xlink:href="#m0fac1b41dc" x="184.362337" y="46.090146" style="stroke: #000000; stroke-width: 0.6"/>
      </g>
     </g>
    </g>
    <g id="ytick_33">
     <g id="line2d_59">
      <g>
       <use xlink:href="#m0fac1b41dc" x="184.362337" y="27.427645" style="stroke: #000000; stroke-width: 0.6"/>
      </g>
     </g>
    </g>
    <g id="ytick_34">
     <g id="line2d_60">
      <g>
       <use xlink:href="#m0fac1b41dc" x="184.362337" y="18.096395" style="stroke: #000000; stroke-width: 0.6"/>
      </g>
     </g>
    </g>
    <g id="ytick_35">
     <g id="line2d_61">
      <g>
       <use xlink:href="#m0fac1b41dc" x="184.362337" y="8.765144" style="stroke: #000000; stroke-width: 0.6"/>
      </g>
     </g>
    </g>
   </g>
   <g id="line2d_62">
    <path d="M 15.636302 316.696412 
L 18.702637 318.300327 
L 21.902127 319.780394 
L 26.2785 321.491726 
L 29.54164 322.537533 
L 34.500808 323.76033 
L 37.900528 324.349551 
L 40.865641 324.7022 
L 44.593294 324.937269 
L 48.290699 324.946788 
L 51.131739 324.806483 
L 54.867635 324.43163 
L 59.706459 323.633869 
L 64.428178 322.527361 
L 67.575115 321.616056 
L 70.765912 320.554428 
L 76.053411 318.500238 
L 80.557625 316.471291 
L 86.750154 313.283275 
L 90.989002 310.847828 
L 95.904409 307.779391 
L 101.389647 304.061761 
L 108.003709 299.193853 
L 114.901159 293.703155 
L 121.059456 288.474228 
L 128.608343 281.685623 
L 135.082006 275.567092 
L 142.486947 268.275072 
L 150.642055 259.936492 
L 160.594461 249.412317 
L 173.408726 235.47398 
L 209.159129 196.252792 
L 218.697644 186.192556 
L 228.03008 176.701373 
L 234.558799 170.319494 
L 242.234544 163.137774 
L 250.244375 156.068035 
L 256.214762 151.115547 
L 262.578052 146.16639 
L 268.802572 141.682113 
L 273.024842 138.855651 
L 276.814833 136.475219 
L 282.490232 133.202005 
L 287.612103 130.563702 
L 292.175417 128.478579 
L 296.78262 126.63891 
L 299.582823 125.655951 
L 303.402508 124.485418 
L 308.851224 123.167624 
L 312.036541 122.595564 
L 316.376586 122.059875 
L 319.830081 121.840225 
L 323.298691 121.809179 
L 326.70101 121.967984 
L 331.166853 122.468639 
L 335.163293 123.205707 
L 338.877353 124.142218 
L 342.850161 125.419127 
L 346.690766 126.93064 
L 350.945211 128.931118 
L 354.132222 130.659429 
L 357.451898 132.673454 
L 360.950925 135.03705 
L 364.934901 138.035321 
L 368.841582 141.299779 
L 371.7175 143.91225 
L 376.506511 148.664735 
L 380.819864 153.384482 
L 383.684327 156.753656 
L 387.734527 161.843461 
L 391.203311 166.511449 
L 395.238048 172.306328 
L 399.502238 178.865826 
L 404.167136 186.564308 
L 408.454502 194.131136 
L 411.887084 200.534988 
L 417.229209 211.124605 
L 421.074132 219.224698 
L 426.275139 230.831938 
L 430.080645 239.807087 
L 433.696747 248.719752 
L 437.451391 258.376096 
L 437.451391 258.376096 
" clip-path="url(#p260f9d8550)" style="fill: none; stroke: #0000cc; stroke-linecap: square"/>
   </g>
   <g id="line2d_63">
    <path d="M 15.636302 316.696412 
L 437.451391 83.415148 
L 437.451391 83.415148 
" clip-path="url(#p260f9d8550)" style="fill: none; stroke: #3ccc00; stroke-linecap: square"/>
   </g>
   <g id="line2d_64">
    <path d="M 15.636302 130.071401 
L 23.653667 138.728586 
L 32.037934 147.33121 
L 39.692654 154.782865 
L 45.666548 160.331423 
L 53.325391 167.102729 
L 59.662946 172.415118 
L 65.743696 177.264731 
L 73.856813 183.357775 
L 80.783367 188.218243 
L 86.747581 192.151417 
L 94.905434 197.1536 
L 100.861843 200.530353 
L 106.179914 203.348697 
L 113.606712 206.974322 
L 120.618354 210.065445 
L 126.306456 212.336303 
L 131.894866 214.360803 
L 136.189768 215.777575 
L 141.771698 217.438193 
L 148.712632 219.218211 
L 155.724117 220.695669 
L 161.001249 221.595107 
L 167.615185 222.464606 
L 174.170077 223.043407 
L 181.234726 223.351844 
L 187.071857 223.359843 
L 192.988875 223.139986 
L 199.347284 222.647893 
L 205.112505 221.972608 
L 210.247849 221.187619 
L 216.327814 220.03473 
L 221.541858 218.85302 
L 227.529801 217.276052 
L 232.949276 215.646156 
L 239.35158 213.472595 
L 246.01331 210.9257 
L 252.850323 208.009285 
L 260.15674 204.553924 
L 265.94604 201.567538 
L 273.26457 197.477869 
L 280.603865 193.023984 
L 287.67704 188.397454 
L 294.454616 183.656578 
L 300.91384 178.85814 
L 307.708505 173.515331 
L 314.0272 168.275195 
L 321.413072 161.818269 
L 328.133771 155.632104 
L 335.026262 148.980264 
L 342.344889 141.57626 
L 348.775083 134.781277 
L 354.325963 128.697503 
L 360.809694 121.335563 
L 368.228748 112.573527 
L 374.077147 105.412131 
L 381.350496 96.193052 
L 389.825322 85.013623 
L 396.707993 75.588 
L 403.456184 66.045044 
L 411.850033 53.758278 
L 420.748846 40.227962 
L 426.478288 31.241843 
L 435.857451 16.066986 
L 437.451391 13.430769 
L 437.451391 13.430769 
" clip-path="url(#p260f9d8550)" style="fill: none; stroke: #cc0077; stroke-linecap: square"/>
   </g>
   <g id="patch_6">
    <path d="M 184.362337 331.2 
L 184.362337 7.2 
" style="fill: none; stroke: #000000; stroke-width: 0.8; stroke-linejoin: miter; stroke-linecap: square"/>
   </g>
   <g id="patch_7">
    <path d="M 7.2 223.383907 
L 445.887692 223.383907 
" style="fill: none; stroke: #000000; stroke-width: 0.8; stroke-linejoin: miter; stroke-linecap: square"/>
   </g>
  </g>
 </g>
 <defs>
  <clipPath id="p260f9d8550">
   <rect x="7.2" y="7.2" width="438.687692" height="324"/>
  </clipPath>
 </defs>
</svg>
