<?xml version="1.0" encoding="utf-8" standalone="no"?>
<!DOCTYPE svg PUBLIC "-//W3C//DTD SVG 1.1//EN"
  "http://www.w3.org/Graphics/SVG/1.1/DTD/svg11.dtd">
<svg xmlns:xlink="http://www.w3.org/1999/xlink" width="453.545625pt" height="337.114942pt" viewBox="0 0 453.545625 337.114942" xmlns="http://www.w3.org/2000/svg" version="1.1">
 <metadata>
  <rdf:RDF xmlns:dc="http://purl.org/dc/elements/1.1/" xmlns:cc="http://creativecommons.org/ns#" xmlns:rdf="http://www.w3.org/1999/02/22-rdf-syntax-ns#">
   <cc:Work>
    <dc:type rdf:resource="http://purl.org/dc/dcmitype/StillImage"/>
    <dc:date>2022-12-21T16:28:24.863805</dc:date>
    <dc:format>image/svg+xml</dc:format>
    <dc:creator>
     <cc:Agent>
      <dc:title>Matplotlib v3.5.2, https://matplotlib.org/</dc:title>
     </cc:Agent>
    </dc:creator>
   </cc:Work>
  </rdf:RDF>
 </metadata>
 <defs>
  <style type="text/css">*{stroke-linejoin: round; stroke-linecap: butt}</style>
 </defs>
 <g id="figure_1">
  <g id="patch_1">
   <path d="M 0 337.114942 
L 453.545625 337.114942 
L 453.545625 0 
L 0 0 
L 0 337.114942 
z
" style="fill: none"/>
  </g>
  <g id="axes_1">
   <g id="patch_2">
    <path d="M 46.465625 319.237538 
L 446.345625 319.237538 
L 446.345625 7.2 
L 46.465625 7.2 
L 46.465625 319.237538 
z
" style="fill: none"/>
   </g>
   <g id="patch_3">
    <path d="M 113.309471 313.236817 
L 113.309471 179.887441 
L 114.119073 181.095879 
L 116.937479 185.17705 
L 117.258575 185.629979 
L 118.742356 187.69207 
L 121.275201 191.098405 
L 121.849411 191.851354 
L 123.153973 193.536333 
L 125.314794 196.251071 
L 126.422563 197.607143 
L 127.633687 199.062931 
L 129.54653 201.306813 
L 131.823452 203.892599 
L 132.398815 204.531828 
L 134.793486 207.133002 
L 135.949909 208.355842 
L 136.464923 208.893641 
L 138.240749 210.716655 
L 139.908335 212.385402 
L 141.544364 213.983287 
L 142.656422 215.047837 
L 144.067893 216.374522 
L 145.824309 217.988217 
L 147.071025 219.109284 
L 149.19422 220.973451 
L 150.637953 222.209598 
L 152.38753 223.674602 
L 152.777737 223.996517 
L 154.588745 225.468083 
L 155.959415 226.557781 
L 157.870762 228.043759 
L 159.737603 229.458552 
L 161.451923 230.726944 
L 163.05312 231.8858 
L 163.423573 232.150435 
L 165.822887 233.833547 
L 166.259141 234.133942 
L 168.066785 235.360658 
L 169.965094 236.618436 
L 170.766596 237.140361 
L 172.831465 238.460661 
L 174.632292 239.584278 
L 175.308517 239.999673 
L 177.206687 241.147093 
L 178.93864 242.170672 
L 180.25174 242.93225 
L 181.073877 243.402861 
L 183.710098 244.880447 
L 184.241711 245.172726 
L 185.60987 245.916374 
L 188.266159 247.325794 
L 188.916573 247.664156 
L 191.104656 248.783527 
L 191.639215 249.052637 
L 193.302348 249.879207 
L 194.521007 250.474781 
L 196.443142 251.397224 
L 198.494278 252.359325 
L 200.033983 253.066859 
L 200.766103 253.398967 
L 202.688923 254.258227 
L 204.409069 255.011329 
L 205.027729 255.278662 
L 206.643633 255.968299 
L 208.785682 256.863672 
L 210.291804 257.480715 
L 210.838969 257.702377 
L 212.572965 258.396169 
L 213.717405 258.846974 
L 215.779116 259.645193 
L 217.270284 260.211619 
L 218.105607 260.525004 
L 220.706885 261.483317 
L 221.785158 261.872907 
L 222.675214 262.191188 
L 224.963262 262.995937 
L 226.764128 263.616027 
L 228.111307 264.072424 
L 228.716951 264.275554 
L 230.729331 264.941533 
L 231.806799 265.292541 
L 232.978631 265.669963 
L 235.859459 266.579088 
L 236.79166 266.867694 
L 237.895429 267.205967 
L 240.249618 267.915203 
L 241.679361 268.337964 
L 242.694074 268.634426 
L 244.620764 269.189312 
L 245.592905 269.465366 
L 247.175578 269.90927 
L 248.215868 270.19738 
L 250.606331 270.848632 
L 252.227574 271.281944 
L 252.304049 271.302219 
L 254.590564 271.9017 
L 255.484017 272.132459 
L 256.963133 272.510255 
L 259.600743 273.17115 
L 259.934757 273.253693 
L 262.401517 273.85547 
L 263.130641 274.030743 
L 264.818218 274.431956 
L 267.080404 274.96019 
L 267.176797 274.982458 
L 269.47815 275.508388 
L 270.453288 275.727971 
L 272.842353 276.257911 
L 273.908207 276.490722 
L 275.436136 276.820646 
L 276.137862 276.970681 
L 278.625618 277.495184 
L 280.454086 277.873465 
L 280.88909 277.962576 
L 283.247597 278.439906 
L 284.069681 278.60401 
L 285.012338 278.790757 
L 287.266435 279.231234 
L 288.363521 279.442566 
L 290.784355 279.90198 
L 292.311383 280.186969 
L 292.520688 280.225747 
L 294.014323 280.5005 
L 295.604254 280.789215 
L 297.541376 281.135844 
L 299.253559 281.437618 
L 300.025157 281.572224 
L 301.415617 281.812642 
L 303.970451 282.247307 
L 304.422001 282.323193 
L 305.797407 282.552628 
L 308.659259 283.021909 
L 309.969501 283.233174 
L 310.991008 283.39635 
L 312.498338 283.634712 
L 313.848988 283.845879 
L 314.88368 284.006122 
L 317.115786 284.347379 
L 317.752049 284.44356 
L 319.821496 284.753089 
L 321.554374 285.008454 
L 322.153829 285.095993 
L 325.012536 285.507906 
L 325.168937 285.530181 
L 326.991821 285.787826 
L 328.987146 286.065747 
L 331.012116 286.343503 
L 331.971618 286.473628 
L 333.317891 286.654621 
L 335.120662 286.894123 
L 336.972124 287.136741 
L 338.299827 287.308667 
L 339.124321 287.414579 
L 340.728229 287.61876 
L 342.422666 287.831846 
L 342.966632 287.899689 
L 345.268645 288.18381 
L 346.009213 288.274198 
L 347.724992 288.481741 
L 349.302411 288.670272 
L 351.550922 288.935311 
L 353.321323 289.140988 
L 354.248442 289.247655 
L 355.112119 289.346388 
L 356.880947 289.546702 
L 359.214557 289.807143 
L 359.508945 289.839693 
L 361.251356 290.030965 
L 362.334597 290.148697 
L 364.405433 290.371287 
L 366.567475 290.600262 
L 367.385204 290.68597 
L 368.523698 290.804489 
L 369.948248 290.951476 
L 372.113509 291.172139 
L 373.506826 291.312405 
L 374.421322 291.403741 
L 376.38549 291.597996 
L 377.441054 291.701321 
L 378.669812 291.82067 
L 380.71931 292.017542 
L 382.69569 292.20483 
L 384.15844 292.341852 
L 386.040187 292.516164 
L 386.905845 292.595621 
L 387.986291 292.694152 
L 389.082774 292.793428 
L 391.526048 293.012068 
L 393.126663 293.153406 
L 394.285971 293.254852 
L 396.363103 293.434701 
L 396.521395 293.448307 
L 398.149702 293.587459 
L 400.41579 293.778684 
L 402.10417 293.91935 
L 403.465418 294.031654 
L 404.73307 294.135358 
L 405.555093 294.202157 
L 408.018565 294.400259 
L 409.078702 294.484561 
L 409.078702 313.236817 
z
" clip-path="url(#p1a5dd7c440)" style="fill: #808080; opacity: 0.5"/>
   </g>
   <g id="matplotlib.axis_1">
    <g id="xtick_1">
     <g id="line2d_1">
      <defs>
       <path id="m5e471dafdb" d="M 0 0 
L 0 3.5 
" style="stroke: #000000; stroke-width: 0.8"/>
      </defs>
      <g>
       <use xlink:href="#m5e471dafdb" x="54.155625" y="313.236817" style="stroke: #000000; stroke-width: 0.8"/>
      </g>
     </g>
     <g id="text_1">
      <!-- 2 -->
      <g transform="translate(50.974375 327.835254)scale(0.1 -0.1)">
       <defs>
        <path id="DejaVuSans-32" d="M 1228 531 
L 3431 531 
L 3431 0 
L 469 0 
L 469 531 
Q 828 903 1448 1529 
Q 2069 2156 2228 2338 
Q 2531 2678 2651 2914 
Q 2772 3150 2772 3378 
Q 2772 3750 2511 3984 
Q 2250 4219 1831 4219 
Q 1534 4219 1204 4116 
Q 875 4013 500 3803 
L 500 4441 
Q 881 4594 1212 4672 
Q 1544 4750 1819 4750 
Q 2544 4750 2975 4387 
Q 3406 4025 3406 3419 
Q 3406 3131 3298 2873 
Q 3191 2616 2906 2266 
Q 2828 2175 2409 1742 
Q 1991 1309 1228 531 
z
" transform="scale(0.015625)"/>
       </defs>
       <use xlink:href="#DejaVuSans-32"/>
      </g>
     </g>
    </g>
    <g id="xtick_2">
     <g id="line2d_2">
      <g>
       <use xlink:href="#m5e471dafdb" x="113.309471" y="313.236817" style="stroke: #000000; stroke-width: 0.8"/>
      </g>
     </g>
     <g id="text_2">
      <!-- 3 -->
      <g transform="translate(110.128221 327.835254)scale(0.1 -0.1)">
       <defs>
        <path id="DejaVuSans-33" d="M 2597 2516 
Q 3050 2419 3304 2112 
Q 3559 1806 3559 1356 
Q 3559 666 3084 287 
Q 2609 -91 1734 -91 
Q 1441 -91 1130 -33 
Q 819 25 488 141 
L 488 750 
Q 750 597 1062 519 
Q 1375 441 1716 441 
Q 2309 441 2620 675 
Q 2931 909 2931 1356 
Q 2931 1769 2642 2001 
Q 2353 2234 1838 2234 
L 1294 2234 
L 1294 2753 
L 1863 2753 
Q 2328 2753 2575 2939 
Q 2822 3125 2822 3475 
Q 2822 3834 2567 4026 
Q 2313 4219 1838 4219 
Q 1578 4219 1281 4162 
Q 984 4106 628 3988 
L 628 4550 
Q 988 4650 1302 4700 
Q 1616 4750 1894 4750 
Q 2613 4750 3031 4423 
Q 3450 4097 3450 3541 
Q 3450 3153 3228 2886 
Q 3006 2619 2597 2516 
z
" transform="scale(0.015625)"/>
       </defs>
       <use xlink:href="#DejaVuSans-33"/>
      </g>
     </g>
    </g>
    <g id="xtick_3">
     <g id="line2d_3">
      <g>
       <use xlink:href="#m5e471dafdb" x="172.463317" y="313.236817" style="stroke: #000000; stroke-width: 0.8"/>
      </g>
     </g>
     <g id="text_3">
      <!-- 4 -->
      <g transform="translate(169.282067 327.835254)scale(0.1 -0.1)">
       <defs>
        <path id="DejaVuSans-34" d="M 2419 4116 
L 825 1625 
L 2419 1625 
L 2419 4116 
z
M 2253 4666 
L 3047 4666 
L 3047 1625 
L 3713 1625 
L 3713 1100 
L 3047 1100 
L 3047 0 
L 2419 0 
L 2419 1100 
L 313 1100 
L 313 1709 
L 2253 4666 
z
" transform="scale(0.015625)"/>
       </defs>
       <use xlink:href="#DejaVuSans-34"/>
      </g>
     </g>
    </g>
    <g id="xtick_4">
     <g id="line2d_4">
      <g>
       <use xlink:href="#m5e471dafdb" x="231.617163" y="313.236817" style="stroke: #000000; stroke-width: 0.8"/>
      </g>
     </g>
     <g id="text_4">
      <!-- 5 -->
      <g transform="translate(228.435913 327.835254)scale(0.1 -0.1)">
       <defs>
        <path id="DejaVuSans-35" d="M 691 4666 
L 3169 4666 
L 3169 4134 
L 1269 4134 
L 1269 2991 
Q 1406 3038 1543 3061 
Q 1681 3084 1819 3084 
Q 2600 3084 3056 2656 
Q 3513 2228 3513 1497 
Q 3513 744 3044 326 
Q 2575 -91 1722 -91 
Q 1428 -91 1123 -41 
Q 819 9 494 109 
L 494 744 
Q 775 591 1075 516 
Q 1375 441 1709 441 
Q 2250 441 2565 725 
Q 2881 1009 2881 1497 
Q 2881 1984 2565 2268 
Q 2250 2553 1709 2553 
Q 1456 2553 1204 2497 
Q 953 2441 691 2322 
L 691 4666 
z
" transform="scale(0.015625)"/>
       </defs>
       <use xlink:href="#DejaVuSans-35"/>
      </g>
     </g>
    </g>
    <g id="xtick_5">
     <g id="line2d_5">
      <g>
       <use xlink:href="#m5e471dafdb" x="290.77101" y="313.236817" style="stroke: #000000; stroke-width: 0.8"/>
      </g>
     </g>
     <g id="text_5">
      <!-- 6 -->
      <g transform="translate(287.58976 327.835254)scale(0.1 -0.1)">
       <defs>
        <path id="DejaVuSans-36" d="M 2113 2584 
Q 1688 2584 1439 2293 
Q 1191 2003 1191 1497 
Q 1191 994 1439 701 
Q 1688 409 2113 409 
Q 2538 409 2786 701 
Q 3034 994 3034 1497 
Q 3034 2003 2786 2293 
Q 2538 2584 2113 2584 
z
M 3366 4563 
L 3366 3988 
Q 3128 4100 2886 4159 
Q 2644 4219 2406 4219 
Q 1781 4219 1451 3797 
Q 1122 3375 1075 2522 
Q 1259 2794 1537 2939 
Q 1816 3084 2150 3084 
Q 2853 3084 3261 2657 
Q 3669 2231 3669 1497 
Q 3669 778 3244 343 
Q 2819 -91 2113 -91 
Q 1303 -91 875 529 
Q 447 1150 447 2328 
Q 447 3434 972 4092 
Q 1497 4750 2381 4750 
Q 2619 4750 2861 4703 
Q 3103 4656 3366 4563 
z
" transform="scale(0.015625)"/>
       </defs>
       <use xlink:href="#DejaVuSans-36"/>
      </g>
     </g>
    </g>
    <g id="xtick_6">
     <g id="line2d_6">
      <g>
       <use xlink:href="#m5e471dafdb" x="349.924856" y="313.236817" style="stroke: #000000; stroke-width: 0.8"/>
      </g>
     </g>
     <g id="text_6">
      <!-- 7 -->
      <g transform="translate(346.743606 327.835254)scale(0.1 -0.1)">
       <defs>
        <path id="DejaVuSans-37" d="M 525 4666 
L 3525 4666 
L 3525 4397 
L 1831 0 
L 1172 0 
L 2766 4134 
L 525 4134 
L 525 4666 
z
" transform="scale(0.015625)"/>
       </defs>
       <use xlink:href="#DejaVuSans-37"/>
      </g>
     </g>
    </g>
    <g id="xtick_7">
     <g id="line2d_7">
      <g>
       <use xlink:href="#m5e471dafdb" x="409.078702" y="313.236817" style="stroke: #000000; stroke-width: 0.8"/>
      </g>
     </g>
     <g id="text_7">
      <!-- 8 -->
      <g transform="translate(405.897452 327.835254)scale(0.1 -0.1)">
       <defs>
        <path id="DejaVuSans-38" d="M 2034 2216 
Q 1584 2216 1326 1975 
Q 1069 1734 1069 1313 
Q 1069 891 1326 650 
Q 1584 409 2034 409 
Q 2484 409 2743 651 
Q 3003 894 3003 1313 
Q 3003 1734 2745 1975 
Q 2488 2216 2034 2216 
z
M 1403 2484 
Q 997 2584 770 2862 
Q 544 3141 544 3541 
Q 544 4100 942 4425 
Q 1341 4750 2034 4750 
Q 2731 4750 3128 4425 
Q 3525 4100 3525 3541 
Q 3525 3141 3298 2862 
Q 3072 2584 2669 2484 
Q 3125 2378 3379 2068 
Q 3634 1759 3634 1313 
Q 3634 634 3220 271 
Q 2806 -91 2034 -91 
Q 1263 -91 848 271 
Q 434 634 434 1313 
Q 434 1759 690 2068 
Q 947 2378 1403 2484 
z
M 1172 3481 
Q 1172 3119 1398 2916 
Q 1625 2713 2034 2713 
Q 2441 2713 2670 2916 
Q 2900 3119 2900 3481 
Q 2900 3844 2670 4047 
Q 2441 4250 2034 4250 
Q 1625 4250 1398 4047 
Q 1172 3844 1172 3481 
z
" transform="scale(0.015625)"/>
       </defs>
       <use xlink:href="#DejaVuSans-38"/>
      </g>
     </g>
    </g>
    <g id="xtick_8">
     <g id="line2d_8">
      <defs>
       <path id="mf4a4528620" d="M 0 0 
L 0 2 
" style="stroke: #000000; stroke-width: 0.6"/>
      </defs>
      <g>
       <use xlink:href="#mf4a4528620" x="65.986394" y="313.236817" style="stroke: #000000; stroke-width: 0.6"/>
      </g>
     </g>
    </g>
    <g id="xtick_9">
     <g id="line2d_9">
      <g>
       <use xlink:href="#mf4a4528620" x="77.817163" y="313.236817" style="stroke: #000000; stroke-width: 0.6"/>
      </g>
     </g>
    </g>
    <g id="xtick_10">
     <g id="line2d_10">
      <g>
       <use xlink:href="#mf4a4528620" x="89.647933" y="313.236817" style="stroke: #000000; stroke-width: 0.6"/>
      </g>
     </g>
    </g>
    <g id="xtick_11">
     <g id="line2d_11">
      <g>
       <use xlink:href="#mf4a4528620" x="101.478702" y="313.236817" style="stroke: #000000; stroke-width: 0.6"/>
      </g>
     </g>
    </g>
    <g id="xtick_12">
     <g id="line2d_12">
      <g>
       <use xlink:href="#mf4a4528620" x="125.14024" y="313.236817" style="stroke: #000000; stroke-width: 0.6"/>
      </g>
     </g>
    </g>
    <g id="xtick_13">
     <g id="line2d_13">
      <g>
       <use xlink:href="#mf4a4528620" x="136.97101" y="313.236817" style="stroke: #000000; stroke-width: 0.6"/>
      </g>
     </g>
    </g>
    <g id="xtick_14">
     <g id="line2d_14">
      <g>
       <use xlink:href="#mf4a4528620" x="148.801779" y="313.236817" style="stroke: #000000; stroke-width: 0.6"/>
      </g>
     </g>
    </g>
    <g id="xtick_15">
     <g id="line2d_15">
      <g>
       <use xlink:href="#mf4a4528620" x="160.632548" y="313.236817" style="stroke: #000000; stroke-width: 0.6"/>
      </g>
     </g>
    </g>
    <g id="xtick_16">
     <g id="line2d_16">
      <g>
       <use xlink:href="#mf4a4528620" x="184.294087" y="313.236817" style="stroke: #000000; stroke-width: 0.6"/>
      </g>
     </g>
    </g>
    <g id="xtick_17">
     <g id="line2d_17">
      <g>
       <use xlink:href="#mf4a4528620" x="196.124856" y="313.236817" style="stroke: #000000; stroke-width: 0.6"/>
      </g>
     </g>
    </g>
    <g id="xtick_18">
     <g id="line2d_18">
      <g>
       <use xlink:href="#mf4a4528620" x="207.955625" y="313.236817" style="stroke: #000000; stroke-width: 0.6"/>
      </g>
     </g>
    </g>
    <g id="xtick_19">
     <g id="line2d_19">
      <g>
       <use xlink:href="#mf4a4528620" x="219.786394" y="313.236817" style="stroke: #000000; stroke-width: 0.6"/>
      </g>
     </g>
    </g>
    <g id="xtick_20">
     <g id="line2d_20">
      <g>
       <use xlink:href="#mf4a4528620" x="243.447933" y="313.236817" style="stroke: #000000; stroke-width: 0.6"/>
      </g>
     </g>
    </g>
    <g id="xtick_21">
     <g id="line2d_21">
      <g>
       <use xlink:href="#mf4a4528620" x="255.278702" y="313.236817" style="stroke: #000000; stroke-width: 0.6"/>
      </g>
     </g>
    </g>
    <g id="xtick_22">
     <g id="line2d_22">
      <g>
       <use xlink:href="#mf4a4528620" x="267.109471" y="313.236817" style="stroke: #000000; stroke-width: 0.6"/>
      </g>
     </g>
    </g>
    <g id="xtick_23">
     <g id="line2d_23">
      <g>
       <use xlink:href="#mf4a4528620" x="278.94024" y="313.236817" style="stroke: #000000; stroke-width: 0.6"/>
      </g>
     </g>
    </g>
    <g id="xtick_24">
     <g id="line2d_24">
      <g>
       <use xlink:href="#mf4a4528620" x="302.601779" y="313.236817" style="stroke: #000000; stroke-width: 0.6"/>
      </g>
     </g>
    </g>
    <g id="xtick_25">
     <g id="line2d_25">
      <g>
       <use xlink:href="#mf4a4528620" x="314.432548" y="313.236817" style="stroke: #000000; stroke-width: 0.6"/>
      </g>
     </g>
    </g>
    <g id="xtick_26">
     <g id="line2d_26">
      <g>
       <use xlink:href="#mf4a4528620" x="326.263317" y="313.236817" style="stroke: #000000; stroke-width: 0.6"/>
      </g>
     </g>
    </g>
    <g id="xtick_27">
     <g id="line2d_27">
      <g>
       <use xlink:href="#mf4a4528620" x="338.094087" y="313.236817" style="stroke: #000000; stroke-width: 0.6"/>
      </g>
     </g>
    </g>
    <g id="xtick_28">
     <g id="line2d_28">
      <g>
       <use xlink:href="#mf4a4528620" x="361.755625" y="313.236817" style="stroke: #000000; stroke-width: 0.6"/>
      </g>
     </g>
    </g>
    <g id="xtick_29">
     <g id="line2d_29">
      <g>
       <use xlink:href="#mf4a4528620" x="373.586394" y="313.236817" style="stroke: #000000; stroke-width: 0.6"/>
      </g>
     </g>
    </g>
    <g id="xtick_30">
     <g id="line2d_30">
      <g>
       <use xlink:href="#mf4a4528620" x="385.417163" y="313.236817" style="stroke: #000000; stroke-width: 0.6"/>
      </g>
     </g>
    </g>
    <g id="xtick_31">
     <g id="line2d_31">
      <g>
       <use xlink:href="#mf4a4528620" x="397.247933" y="313.236817" style="stroke: #000000; stroke-width: 0.6"/>
      </g>
     </g>
    </g>
    <g id="xtick_32">
     <g id="line2d_32">
      <g>
       <use xlink:href="#mf4a4528620" x="420.909471" y="313.236817" style="stroke: #000000; stroke-width: 0.6"/>
      </g>
     </g>
    </g>
    <g id="xtick_33">
     <g id="line2d_33">
      <g>
       <use xlink:href="#mf4a4528620" x="432.74024" y="313.236817" style="stroke: #000000; stroke-width: 0.6"/>
      </g>
     </g>
    </g>
    <g id="xtick_34">
     <g id="line2d_34">
      <g>
       <use xlink:href="#mf4a4528620" x="444.57101" y="313.236817" style="stroke: #000000; stroke-width: 0.6"/>
      </g>
     </g>
    </g>
   </g>
   <g id="matplotlib.axis_2">
    <g id="ytick_1">
     <g id="line2d_35">
      <defs>
       <path id="m0a1535bd11" d="M 0 0 
L -3.5 0 
" style="stroke: #000000; stroke-width: 0.8"/>
      </defs>
      <g>
       <use xlink:href="#m0a1535bd11" x="36.465625" y="313.236817" style="stroke: #000000; stroke-width: 0.8"/>
      </g>
     </g>
     <g id="text_8">
      <!-- 0.00 -->
      <g transform="translate(7.2 317.036035)scale(0.1 -0.1)">
       <defs>
        <path id="DejaVuSans-30" d="M 2034 4250 
Q 1547 4250 1301 3770 
Q 1056 3291 1056 2328 
Q 1056 1369 1301 889 
Q 1547 409 2034 409 
Q 2525 409 2770 889 
Q 3016 1369 3016 2328 
Q 3016 3291 2770 3770 
Q 2525 4250 2034 4250 
z
M 2034 4750 
Q 2819 4750 3233 4129 
Q 3647 3509 3647 2328 
Q 3647 1150 3233 529 
Q 2819 -91 2034 -91 
Q 1250 -91 836 529 
Q 422 1150 422 2328 
Q 422 3509 836 4129 
Q 1250 4750 2034 4750 
z
" transform="scale(0.015625)"/>
        <path id="DejaVuSans-2e" d="M 684 794 
L 1344 794 
L 1344 0 
L 684 0 
L 684 794 
z
" transform="scale(0.015625)"/>
       </defs>
       <use xlink:href="#DejaVuSans-30"/>
       <use xlink:href="#DejaVuSans-2e" x="63.623047"/>
       <use xlink:href="#DejaVuSans-30" x="95.410156"/>
       <use xlink:href="#DejaVuSans-30" x="159.033203"/>
      </g>
     </g>
    </g>
    <g id="ytick_2">
     <g id="line2d_36">
      <g>
       <use xlink:href="#m0a1535bd11" x="36.465625" y="253.229598" style="stroke: #000000; stroke-width: 0.8"/>
      </g>
     </g>
     <g id="text_9">
      <!-- 0.05 -->
      <g transform="translate(7.2 257.028816)scale(0.1 -0.1)">
       <use xlink:href="#DejaVuSans-30"/>
       <use xlink:href="#DejaVuSans-2e" x="63.623047"/>
       <use xlink:href="#DejaVuSans-30" x="95.410156"/>
       <use xlink:href="#DejaVuSans-35" x="159.033203"/>
      </g>
     </g>
    </g>
    <g id="ytick_3">
     <g id="line2d_37">
      <g>
       <use xlink:href="#m0a1535bd11" x="36.465625" y="193.222379" style="stroke: #000000; stroke-width: 0.8"/>
      </g>
     </g>
     <g id="text_10">
      <!-- 0.10 -->
      <g transform="translate(7.2 197.021597)scale(0.1 -0.1)">
       <defs>
        <path id="DejaVuSans-31" d="M 794 531 
L 1825 531 
L 1825 4091 
L 703 3866 
L 703 4441 
L 1819 4666 
L 2450 4666 
L 2450 531 
L 3481 531 
L 3481 0 
L 794 0 
L 794 531 
z
" transform="scale(0.015625)"/>
       </defs>
       <use xlink:href="#DejaVuSans-30"/>
       <use xlink:href="#DejaVuSans-2e" x="63.623047"/>
       <use xlink:href="#DejaVuSans-31" x="95.410156"/>
       <use xlink:href="#DejaVuSans-30" x="159.033203"/>
      </g>
     </g>
    </g>
    <g id="ytick_4">
     <g id="line2d_38">
      <g>
       <use xlink:href="#m0a1535bd11" x="36.465625" y="133.21516" style="stroke: #000000; stroke-width: 0.8"/>
      </g>
     </g>
     <g id="text_11">
      <!-- 0.15 -->
      <g transform="translate(7.2 137.014379)scale(0.1 -0.1)">
       <use xlink:href="#DejaVuSans-30"/>
       <use xlink:href="#DejaVuSans-2e" x="63.623047"/>
       <use xlink:href="#DejaVuSans-31" x="95.410156"/>
       <use xlink:href="#DejaVuSans-35" x="159.033203"/>
      </g>
     </g>
    </g>
    <g id="ytick_5">
     <g id="line2d_39">
      <g>
       <use xlink:href="#m0a1535bd11" x="36.465625" y="73.207941" style="stroke: #000000; stroke-width: 0.8"/>
      </g>
     </g>
     <g id="text_12">
      <!-- 0.20 -->
      <g transform="translate(7.2 77.00716)scale(0.1 -0.1)">
       <use xlink:href="#DejaVuSans-30"/>
       <use xlink:href="#DejaVuSans-2e" x="63.623047"/>
       <use xlink:href="#DejaVuSans-32" x="95.410156"/>
       <use xlink:href="#DejaVuSans-30" x="159.033203"/>
      </g>
     </g>
    </g>
    <g id="ytick_6">
     <g id="line2d_40">
      <g>
       <use xlink:href="#m0a1535bd11" x="36.465625" y="13.200722" style="stroke: #000000; stroke-width: 0.8"/>
      </g>
     </g>
     <g id="text_13">
      <!-- 0.25 -->
      <g transform="translate(7.2 16.999941)scale(0.1 -0.1)">
       <use xlink:href="#DejaVuSans-30"/>
       <use xlink:href="#DejaVuSans-2e" x="63.623047"/>
       <use xlink:href="#DejaVuSans-32" x="95.410156"/>
       <use xlink:href="#DejaVuSans-35" x="159.033203"/>
      </g>
     </g>
    </g>
    <g id="ytick_7">
     <g id="line2d_41">
      <defs>
       <path id="mba2d6e4f24" d="M 0 0 
L -2 0 
" style="stroke: #000000; stroke-width: 0.6"/>
      </defs>
      <g>
       <use xlink:href="#mba2d6e4f24" x="36.465625" y="301.235373" style="stroke: #000000; stroke-width: 0.6"/>
      </g>
     </g>
    </g>
    <g id="ytick_8">
     <g id="line2d_42">
      <g>
       <use xlink:href="#mba2d6e4f24" x="36.465625" y="289.233929" style="stroke: #000000; stroke-width: 0.6"/>
      </g>
     </g>
    </g>
    <g id="ytick_9">
     <g id="line2d_43">
      <g>
       <use xlink:href="#mba2d6e4f24" x="36.465625" y="277.232485" style="stroke: #000000; stroke-width: 0.6"/>
      </g>
     </g>
    </g>
    <g id="ytick_10">
     <g id="line2d_44">
      <g>
       <use xlink:href="#mba2d6e4f24" x="36.465625" y="265.231041" style="stroke: #000000; stroke-width: 0.6"/>
      </g>
     </g>
    </g>
    <g id="ytick_11">
     <g id="line2d_45">
      <g>
       <use xlink:href="#mba2d6e4f24" x="36.465625" y="241.228154" style="stroke: #000000; stroke-width: 0.6"/>
      </g>
     </g>
    </g>
    <g id="ytick_12">
     <g id="line2d_46">
      <g>
       <use xlink:href="#mba2d6e4f24" x="36.465625" y="229.22671" style="stroke: #000000; stroke-width: 0.6"/>
      </g>
     </g>
    </g>
    <g id="ytick_13">
     <g id="line2d_47">
      <g>
       <use xlink:href="#mba2d6e4f24" x="36.465625" y="217.225266" style="stroke: #000000; stroke-width: 0.6"/>
      </g>
     </g>
    </g>
    <g id="ytick_14">
     <g id="line2d_48">
      <g>
       <use xlink:href="#mba2d6e4f24" x="36.465625" y="205.223822" style="stroke: #000000; stroke-width: 0.6"/>
      </g>
     </g>
    </g>
    <g id="ytick_15">
     <g id="line2d_49">
      <g>
       <use xlink:href="#mba2d6e4f24" x="36.465625" y="181.220935" style="stroke: #000000; stroke-width: 0.6"/>
      </g>
     </g>
    </g>
    <g id="ytick_16">
     <g id="line2d_50">
      <g>
       <use xlink:href="#mba2d6e4f24" x="36.465625" y="169.219491" style="stroke: #000000; stroke-width: 0.6"/>
      </g>
     </g>
    </g>
    <g id="ytick_17">
     <g id="line2d_51">
      <g>
       <use xlink:href="#mba2d6e4f24" x="36.465625" y="157.218047" style="stroke: #000000; stroke-width: 0.6"/>
      </g>
     </g>
    </g>
    <g id="ytick_18">
     <g id="line2d_52">
      <g>
       <use xlink:href="#mba2d6e4f24" x="36.465625" y="145.216604" style="stroke: #000000; stroke-width: 0.6"/>
      </g>
     </g>
    </g>
    <g id="ytick_19">
     <g id="line2d_53">
      <g>
       <use xlink:href="#mba2d6e4f24" x="36.465625" y="121.213716" style="stroke: #000000; stroke-width: 0.6"/>
      </g>
     </g>
    </g>
    <g id="ytick_20">
     <g id="line2d_54">
      <g>
       <use xlink:href="#mba2d6e4f24" x="36.465625" y="109.212272" style="stroke: #000000; stroke-width: 0.6"/>
      </g>
     </g>
    </g>
    <g id="ytick_21">
     <g id="line2d_55">
      <g>
       <use xlink:href="#mba2d6e4f24" x="36.465625" y="97.210828" style="stroke: #000000; stroke-width: 0.6"/>
      </g>
     </g>
    </g>
    <g id="ytick_22">
     <g id="line2d_56">
      <g>
       <use xlink:href="#mba2d6e4f24" x="36.465625" y="85.209385" style="stroke: #000000; stroke-width: 0.6"/>
      </g>
     </g>
    </g>
    <g id="ytick_23">
     <g id="line2d_57">
      <g>
       <use xlink:href="#mba2d6e4f24" x="36.465625" y="61.206497" style="stroke: #000000; stroke-width: 0.6"/>
      </g>
     </g>
    </g>
    <g id="ytick_24">
     <g id="line2d_58">
      <g>
       <use xlink:href="#mba2d6e4f24" x="36.465625" y="49.205053" style="stroke: #000000; stroke-width: 0.6"/>
      </g>
     </g>
    </g>
    <g id="ytick_25">
     <g id="line2d_59">
      <g>
       <use xlink:href="#mba2d6e4f24" x="36.465625" y="37.203609" style="stroke: #000000; stroke-width: 0.6"/>
      </g>
     </g>
    </g>
    <g id="ytick_26">
     <g id="line2d_60">
      <g>
       <use xlink:href="#mba2d6e4f24" x="36.465625" y="25.202166" style="stroke: #000000; stroke-width: 0.6"/>
      </g>
     </g>
    </g>
   </g>
   <g id="line2d_61">
    <path d="M 113.309471 313.236817 
L 113.309471 179.887441 
" clip-path="url(#p1a5dd7c440)" style="fill: none; stroke: #000000; stroke-linecap: square"/>
   </g>
   <g id="line2d_62">
    <path d="M 409.078702 313.236817 
L 409.078702 294.484561 
" clip-path="url(#p1a5dd7c440)" style="fill: none; stroke: #000000; stroke-linecap: square"/>
   </g>
   <g id="line2d_63">
    <path d="M 113.309471 179.887441 
L 117.258575 185.629979 
L 121.849411 191.851354 
L 126.422563 197.607143 
L 129.54653 201.306813 
L 134.793486 207.133002 
L 139.908335 212.385402 
L 144.067893 216.374522 
L 149.19422 220.973451 
L 154.588745 225.468083 
L 159.737603 229.458552 
L 165.822887 233.833547 
L 170.766596 237.140361 
L 177.206687 241.147093 
L 183.710098 244.880447 
L 188.916573 247.664156 
L 196.443142 251.397224 
L 204.409069 255.011329 
L 210.838969 257.702377 
L 218.105607 260.525004 
L 226.764128 263.616027 
L 232.978631 265.669963 
L 242.694074 268.634426 
L 252.304049 271.302219 
L 263.130641 274.030743 
L 273.908207 276.490722 
L 285.012338 278.790757 
L 297.541376 281.135844 
L 310.991008 283.39635 
L 325.168937 285.530181 
L 340.728229 287.61876 
L 356.880947 289.546702 
L 374.421322 291.403741 
L 393.126663 293.153406 
L 409.078702 294.484561 
L 409.078702 294.484561 
" clip-path="url(#p1a5dd7c440)" style="fill: none; stroke: #0000ff; stroke-linecap: square"/>
   </g>
   <g id="line2d_64">
    <path d="M 54.155625 13.200722 
L 57.569146 29.793041 
L 61.236921 46.132645 
L 65.909536 64.979952 
L 68.959427 76.225898 
L 72.669775 88.906173 
L 77.468572 103.85143 
L 80.546872 112.665523 
L 85.15541 124.85614 
L 89.309866 134.917602 
L 90.550562 137.766331 
L 94.197932 145.756667 
L 99.17474 155.807893 
L 101.750203 160.657799 
L 106.215619 168.551314 
L 111.377742 176.936235 
L 115.493536 183.110155 
L 119.109014 188.193933 
L 124.484037 195.218387 
L 129.280595 200.998834 
L 134.377363 206.687743 
L 138.808738 211.28966 
L 143.48772 215.832474 
L 148.978212 220.786339 
L 153.735259 224.779139 
L 158.41594 228.460607 
L 163.973036 232.540574 
L 168.445287 235.613905 
L 173.602398 238.944807 
L 180.922708 243.316684 
L 188.178093 247.279778 
L 195.614187 251.001915 
L 200.386255 253.227003 
L 208.616469 256.793708 
L 217.3584 260.244809 
L 225.668998 263.24032 
L 235.077172 266.334811 
L 245.453965 269.426071 
L 253.149981 271.525517 
L 262.882651 273.971261 
L 271.661679 275.997429 
L 282.56785 278.303333 
L 293.02323 280.318574 
L 306.095162 282.601961 
L 319.974424 284.775764 
L 333.74763 286.712008 
L 349.643418 288.710746 
L 366.241062 290.565914 
L 385.070805 292.426641 
L 404.486004 294.115212 
L 426.159222 295.768314 
L 438.655625 296.625822 
L 438.655625 296.625822 
" clip-path="url(#p1a5dd7c440)" style="fill: none; stroke: #0000ff; stroke-width: 2; stroke-linecap: square"/>
   </g>
   <g id="patch_4">
    <path d="M 36.465625 319.237538 
L 36.465625 7.2 
" style="fill: none; stroke: #000000; stroke-width: 0.8; stroke-linejoin: miter; stroke-linecap: square"/>
   </g>
   <g id="patch_5">
    <path d="M 46.465625 313.236817 
L 446.345625 313.236817 
" style="fill: none; stroke: #000000; stroke-width: 0.8; stroke-linejoin: miter; stroke-linecap: square"/>
   </g>
  </g>
 </g>
 <defs>
  <clipPath id="p1a5dd7c440">
   <rect x="46.465625" y="7.2" width="399.88" height="312.037538"/>
  </clipPath>
 </defs>
</svg>
