<?xml version="1.0" encoding="utf-8" standalone="no"?>
<!DOCTYPE svg PUBLIC "-//W3C//DTD SVG 1.1//EN"
  "http://www.w3.org/Graphics/SVG/1.1/DTD/svg11.dtd">
<svg xmlns:xlink="http://www.w3.org/1999/xlink" width="453.545625pt" height="337.114942pt" viewBox="0 0 453.545625 337.114942" xmlns="http://www.w3.org/2000/svg" version="1.1">
 <metadata>
  <rdf:RDF xmlns:dc="http://purl.org/dc/elements/1.1/" xmlns:cc="http://creativecommons.org/ns#" xmlns:rdf="http://www.w3.org/1999/02/22-rdf-syntax-ns#">
   <cc:Work>
    <dc:type rdf:resource="http://purl.org/dc/dcmitype/StillImage"/>
    <dc:date>2023-02-09T13:59:49.390250</dc:date>
    <dc:format>image/svg+xml</dc:format>
    <dc:creator>
     <cc:Agent>
      <dc:title>Matplotlib v3.6.2, https://matplotlib.org/</dc:title>
     </cc:Agent>
    </dc:creator>
   </cc:Work>
  </rdf:RDF>
 </metadata>
 <defs>
  <style type="text/css">*{stroke-linejoin: round; stroke-linecap: butt}</style>
 </defs>
 <g id="figure_1">
  <g id="patch_1">
   <path d="M 0 337.114942 
L 453.545625 337.114942 
L 453.545625 0 
L 0 0 
L 0 337.114942 
z
" style="fill: none"/>
  </g>
  <g id="axes_1">
   <g id="patch_2">
    <path d="M 46.465625 319.237538 
L 446.345625 319.237538 
L 446.345625 7.2 
L 46.465625 7.2 
L 46.465625 319.237538 
z
" style="fill: none"/>
   </g>
   <g id="patch_3">
    <path d="M 113.309471 313.236817 
L 113.309471 179.887441 
L 114.163039 181.161033 
L 116.059655 183.926435 
L 117.200322 185.547987 
L 119.637727 188.912327 
L 120.646166 190.265495 
L 122.840911 193.135195 
L 123.075376 193.435813 
L 125.937242 197.015957 
L 126.092102 197.205089 
L 128.911559 200.569344 
L 130.259125 202.125846 
L 131.248502 203.24818 
L 132.583835 204.736195 
L 133.726649 205.985829 
L 135.804825 208.203589 
L 137.185027 209.638696 
L 138.674972 211.155146 
L 139.62755 212.107288 
L 142.249375 214.660175 
L 143.338971 215.692767 
L 144.967394 217.206012 
L 145.863479 218.023744 
L 147.833861 219.785505 
L 148.317954 220.21086 
L 150.287854 221.91213 
L 151.652726 223.063655 
L 153.043524 224.214794 
L 155.078886 225.860099 
L 156.018145 226.604017 
L 158.016084 228.155173 
L 159.916762 229.592472 
L 160.750412 230.211415 
L 162.493922 231.483874 
L 163.58207 232.263263 
L 165.154985 233.370317 
L 167.362955 234.886435 
L 167.866349 235.226048 
L 169.221534 236.129425 
L 171.598531 237.676483 
L 172.950799 238.535912 
L 174.030754 239.211785 
L 175.546715 240.145159 
L 177.82975 241.517853 
L 178.428056 241.871196 
L 179.905687 242.732737 
L 182.418246 244.162293 
L 183.076815 244.529805 
L 185.191181 245.6901 
L 185.912351 246.079139 
L 187.594802 246.973783 
L 189.134776 247.777087 
L 191.140095 248.80142 
L 191.707064 249.086674 
L 193.73581 250.092013 
L 194.944109 250.679593 
L 196.057784 251.213926 
L 197.450294 251.872465 
L 199.999758 253.051266 
L 201.554398 253.753493 
L 201.982742 253.944816 
L 203.79623 254.744682 
L 205.055102 255.290448 
L 206.727768 256.003868 
L 208.452648 256.725849 
L 209.902997 257.322399 
L 210.740551 257.662604 
L 213.558241 258.784612 
L 214.279618 259.066402 
L 216.447789 259.900308 
L 217.668145 260.36123 
L 219.493533 261.039597 
L 221.012572 261.594213 
L 222.316384 262.063228 
L 223.722322 262.561857 
L 224.713278 262.908943 
L 225.555144 263.201015 
L 227.066351 263.718965 
L 229.949045 264.684927 
L 230.252386 264.784927 
L 232.657034 265.566829 
L 234.143887 266.040865 
L 235.291432 266.401906 
L 236.371954 266.738087 
L 238.730578 267.459462 
L 239.225711 267.608764 
L 241.701212 268.344379 
L 242.033932 268.441892 
L 243.947559 268.996612 
L 245.425416 269.41799 
L 246.656457 269.764415 
L 247.862634 270.099874 
L 250.047686 270.697766 
L 252.22458 271.281149 
L 253.542087 271.628416 
L 254.617932 271.908798 
L 255.880769 272.234312 
L 258.080786 272.792283 
L 258.367398 272.864134 
L 260.950185 273.50307 
L 261.832766 273.717932 
L 263.054087 274.012396 
L 264.406653 274.334678 
L 267.039478 274.950729 
L 267.815901 275.12961 
L 268.767238 275.347087 
L 270.438429 275.72464 
L 272.978374 276.287745 
L 274.123356 276.537449 
L 275.771439 276.892453 
L 276.972013 277.147828 
L 277.546243 277.269022 
L 280.446817 277.871973 
L 281.505091 278.08819 
L 283.195262 278.42942 
L 284.820441 278.752864 
L 285.98408 278.98169 
L 286.52255 279.086809 
L 288.992222 279.562787 
L 290.773768 279.899991 
L 291.188131 279.977694 
L 292.674294 280.254162 
L 294.502717 280.589596 
L 296.25077 280.905524 
L 297.980147 281.213585 
L 299.587052 281.495901 
L 300.550685 281.663414 
L 301.820687 281.882166 
L 302.891072 282.064775 
L 305.44321 282.493788 
L 306.62426 282.689331 
L 308.664763 283.022801 
L 310.059352 283.247581 
L 311.523553 283.480892 
L 312.940772 283.704134 
L 314.35609 283.924578 
L 315.788204 284.145136 
L 317.125391 284.348834 
L 317.733505 284.440763 
L 320.530218 284.857947 
L 321.991229 285.072289 
L 323.219281 285.250581 
L 324.361555 285.414905 
L 325.178462 285.531536 
L 327.211161 285.818585 
L 328.896101 286.053157 
L 330.335194 286.251128 
L 332.255195 286.511906 
L 333.587819 286.690689 
L 335.061066 286.886258 
L 335.987779 287.008171 
L 337.247011 287.172477 
L 339.644548 287.481071 
L 340.848654 287.633992 
L 341.627423 287.732171 
L 343.398215 287.953324 
L 345.600704 288.224399 
L 347.227407 288.421819 
L 348.015401 288.516613 
L 350.136455 288.769087 
L 350.696117 288.83506 
L 352.604282 289.058001 
L 354.112907 289.232106 
L 355.893008 289.435133 
L 356.519228 289.505944 
L 358.759332 289.756676 
L 360.39879 289.937669 
L 361.453074 290.052957 
L 363.601885 290.285299 
L 363.907595 290.31807 
L 365.362724 290.473097 
L 367.532403 290.701347 
L 368.455228 290.797388 
L 370.342491 290.9919 
L 372.424496 291.203563 
L 373.405682 291.302267 
L 374.447983 291.406395 
L 376.405507 291.599962 
L 378.315667 291.786374 
L 379.586158 291.90903 
L 381.468566 292.088837 
L 382.063541 292.145196 
L 384.102763 292.336661 
L 384.892185 292.410082 
L 387.195082 292.622067 
L 388.774883 292.765624 
L 389.492224 292.830314 
L 391.07916 292.972341 
L 392.317251 293.082119 
L 394.247017 293.251456 
L 395.188496 293.333297 
L 397.144991 293.501773 
L 398.950798 293.655381 
L 400.299885 293.768971 
L 401.079452 293.834159 
L 402.414435 293.945034 
L 404.556121 294.120932 
L 405.498298 294.197553 
L 407.756285 294.379315 
L 409.078702 294.484561 
L 409.078702 313.236817 
z
" clip-path="url(#pd2977a3078)" style="fill: #808080; opacity: 0.5"/>
   </g>
   <g id="matplotlib.axis_1">
    <g id="xtick_1">
     <g id="line2d_1">
      <defs>
       <path id="m727bb932fa" d="M 0 0 
L 0 3.5 
" style="stroke: #000000; stroke-width: 0.8"/>
      </defs>
      <g>
       <use xlink:href="#m727bb932fa" x="54.155625" y="313.236817" style="stroke: #000000; stroke-width: 0.8"/>
      </g>
     </g>
     <g id="text_1">
      <!-- 2 -->
      <g transform="translate(50.974375 327.835254) scale(0.1 -0.1)">
       <defs>
        <path id="DejaVuSans-32" d="M 1228 531 
L 3431 531 
L 3431 0 
L 469 0 
L 469 531 
Q 828 903 1448 1529 
Q 2069 2156 2228 2338 
Q 2531 2678 2651 2914 
Q 2772 3150 2772 3378 
Q 2772 3750 2511 3984 
Q 2250 4219 1831 4219 
Q 1534 4219 1204 4116 
Q 875 4013 500 3803 
L 500 4441 
Q 881 4594 1212 4672 
Q 1544 4750 1819 4750 
Q 2544 4750 2975 4387 
Q 3406 4025 3406 3419 
Q 3406 3131 3298 2873 
Q 3191 2616 2906 2266 
Q 2828 2175 2409 1742 
Q 1991 1309 1228 531 
z
" transform="scale(0.015625)"/>
       </defs>
       <use xlink:href="#DejaVuSans-32"/>
      </g>
     </g>
    </g>
    <g id="xtick_2">
     <g id="line2d_2">
      <g>
       <use xlink:href="#m727bb932fa" x="113.309471" y="313.236817" style="stroke: #000000; stroke-width: 0.8"/>
      </g>
     </g>
     <g id="text_2">
      <!-- 3 -->
      <g transform="translate(110.128221 327.835254) scale(0.1 -0.1)">
       <defs>
        <path id="DejaVuSans-33" d="M 2597 2516 
Q 3050 2419 3304 2112 
Q 3559 1806 3559 1356 
Q 3559 666 3084 287 
Q 2609 -91 1734 -91 
Q 1441 -91 1130 -33 
Q 819 25 488 141 
L 488 750 
Q 750 597 1062 519 
Q 1375 441 1716 441 
Q 2309 441 2620 675 
Q 2931 909 2931 1356 
Q 2931 1769 2642 2001 
Q 2353 2234 1838 2234 
L 1294 2234 
L 1294 2753 
L 1863 2753 
Q 2328 2753 2575 2939 
Q 2822 3125 2822 3475 
Q 2822 3834 2567 4026 
Q 2313 4219 1838 4219 
Q 1578 4219 1281 4162 
Q 984 4106 628 3988 
L 628 4550 
Q 988 4650 1302 4700 
Q 1616 4750 1894 4750 
Q 2613 4750 3031 4423 
Q 3450 4097 3450 3541 
Q 3450 3153 3228 2886 
Q 3006 2619 2597 2516 
z
" transform="scale(0.015625)"/>
       </defs>
       <use xlink:href="#DejaVuSans-33"/>
      </g>
     </g>
    </g>
    <g id="xtick_3">
     <g id="line2d_3">
      <g>
       <use xlink:href="#m727bb932fa" x="172.463317" y="313.236817" style="stroke: #000000; stroke-width: 0.8"/>
      </g>
     </g>
     <g id="text_3">
      <!-- 4 -->
      <g transform="translate(169.282067 327.835254) scale(0.1 -0.1)">
       <defs>
        <path id="DejaVuSans-34" d="M 2419 4116 
L 825 1625 
L 2419 1625 
L 2419 4116 
z
M 2253 4666 
L 3047 4666 
L 3047 1625 
L 3713 1625 
L 3713 1100 
L 3047 1100 
L 3047 0 
L 2419 0 
L 2419 1100 
L 313 1100 
L 313 1709 
L 2253 4666 
z
" transform="scale(0.015625)"/>
       </defs>
       <use xlink:href="#DejaVuSans-34"/>
      </g>
     </g>
    </g>
    <g id="xtick_4">
     <g id="line2d_4">
      <g>
       <use xlink:href="#m727bb932fa" x="231.617163" y="313.236817" style="stroke: #000000; stroke-width: 0.8"/>
      </g>
     </g>
     <g id="text_4">
      <!-- 5 -->
      <g transform="translate(228.435913 327.835254) scale(0.1 -0.1)">
       <defs>
        <path id="DejaVuSans-35" d="M 691 4666 
L 3169 4666 
L 3169 4134 
L 1269 4134 
L 1269 2991 
Q 1406 3038 1543 3061 
Q 1681 3084 1819 3084 
Q 2600 3084 3056 2656 
Q 3513 2228 3513 1497 
Q 3513 744 3044 326 
Q 2575 -91 1722 -91 
Q 1428 -91 1123 -41 
Q 819 9 494 109 
L 494 744 
Q 775 591 1075 516 
Q 1375 441 1709 441 
Q 2250 441 2565 725 
Q 2881 1009 2881 1497 
Q 2881 1984 2565 2268 
Q 2250 2553 1709 2553 
Q 1456 2553 1204 2497 
Q 953 2441 691 2322 
L 691 4666 
z
" transform="scale(0.015625)"/>
       </defs>
       <use xlink:href="#DejaVuSans-35"/>
      </g>
     </g>
    </g>
    <g id="xtick_5">
     <g id="line2d_5">
      <g>
       <use xlink:href="#m727bb932fa" x="290.77101" y="313.236817" style="stroke: #000000; stroke-width: 0.8"/>
      </g>
     </g>
     <g id="text_5">
      <!-- 6 -->
      <g transform="translate(287.58976 327.835254) scale(0.1 -0.1)">
       <defs>
        <path id="DejaVuSans-36" d="M 2113 2584 
Q 1688 2584 1439 2293 
Q 1191 2003 1191 1497 
Q 1191 994 1439 701 
Q 1688 409 2113 409 
Q 2538 409 2786 701 
Q 3034 994 3034 1497 
Q 3034 2003 2786 2293 
Q 2538 2584 2113 2584 
z
M 3366 4563 
L 3366 3988 
Q 3128 4100 2886 4159 
Q 2644 4219 2406 4219 
Q 1781 4219 1451 3797 
Q 1122 3375 1075 2522 
Q 1259 2794 1537 2939 
Q 1816 3084 2150 3084 
Q 2853 3084 3261 2657 
Q 3669 2231 3669 1497 
Q 3669 778 3244 343 
Q 2819 -91 2113 -91 
Q 1303 -91 875 529 
Q 447 1150 447 2328 
Q 447 3434 972 4092 
Q 1497 4750 2381 4750 
Q 2619 4750 2861 4703 
Q 3103 4656 3366 4563 
z
" transform="scale(0.015625)"/>
       </defs>
       <use xlink:href="#DejaVuSans-36"/>
      </g>
     </g>
    </g>
    <g id="xtick_6">
     <g id="line2d_6">
      <g>
       <use xlink:href="#m727bb932fa" x="349.924856" y="313.236817" style="stroke: #000000; stroke-width: 0.8"/>
      </g>
     </g>
     <g id="text_6">
      <!-- 7 -->
      <g transform="translate(346.743606 327.835254) scale(0.1 -0.1)">
       <defs>
        <path id="DejaVuSans-37" d="M 525 4666 
L 3525 4666 
L 3525 4397 
L 1831 0 
L 1172 0 
L 2766 4134 
L 525 4134 
L 525 4666 
z
" transform="scale(0.015625)"/>
       </defs>
       <use xlink:href="#DejaVuSans-37"/>
      </g>
     </g>
    </g>
    <g id="xtick_7">
     <g id="line2d_7">
      <g>
       <use xlink:href="#m727bb932fa" x="409.078702" y="313.236817" style="stroke: #000000; stroke-width: 0.8"/>
      </g>
     </g>
     <g id="text_7">
      <!-- 8 -->
      <g transform="translate(405.897452 327.835254) scale(0.1 -0.1)">
       <defs>
        <path id="DejaVuSans-38" d="M 2034 2216 
Q 1584 2216 1326 1975 
Q 1069 1734 1069 1313 
Q 1069 891 1326 650 
Q 1584 409 2034 409 
Q 2484 409 2743 651 
Q 3003 894 3003 1313 
Q 3003 1734 2745 1975 
Q 2488 2216 2034 2216 
z
M 1403 2484 
Q 997 2584 770 2862 
Q 544 3141 544 3541 
Q 544 4100 942 4425 
Q 1341 4750 2034 4750 
Q 2731 4750 3128 4425 
Q 3525 4100 3525 3541 
Q 3525 3141 3298 2862 
Q 3072 2584 2669 2484 
Q 3125 2378 3379 2068 
Q 3634 1759 3634 1313 
Q 3634 634 3220 271 
Q 2806 -91 2034 -91 
Q 1263 -91 848 271 
Q 434 634 434 1313 
Q 434 1759 690 2068 
Q 947 2378 1403 2484 
z
M 1172 3481 
Q 1172 3119 1398 2916 
Q 1625 2713 2034 2713 
Q 2441 2713 2670 2916 
Q 2900 3119 2900 3481 
Q 2900 3844 2670 4047 
Q 2441 4250 2034 4250 
Q 1625 4250 1398 4047 
Q 1172 3844 1172 3481 
z
" transform="scale(0.015625)"/>
       </defs>
       <use xlink:href="#DejaVuSans-38"/>
      </g>
     </g>
    </g>
    <g id="xtick_8">
     <g id="line2d_8">
      <defs>
       <path id="m3694813cac" d="M 0 0 
L 0 2 
" style="stroke: #000000; stroke-width: 0.6"/>
      </defs>
      <g>
       <use xlink:href="#m3694813cac" x="65.986394" y="313.236817" style="stroke: #000000; stroke-width: 0.6"/>
      </g>
     </g>
    </g>
    <g id="xtick_9">
     <g id="line2d_9">
      <g>
       <use xlink:href="#m3694813cac" x="77.817163" y="313.236817" style="stroke: #000000; stroke-width: 0.6"/>
      </g>
     </g>
    </g>
    <g id="xtick_10">
     <g id="line2d_10">
      <g>
       <use xlink:href="#m3694813cac" x="89.647933" y="313.236817" style="stroke: #000000; stroke-width: 0.6"/>
      </g>
     </g>
    </g>
    <g id="xtick_11">
     <g id="line2d_11">
      <g>
       <use xlink:href="#m3694813cac" x="101.478702" y="313.236817" style="stroke: #000000; stroke-width: 0.6"/>
      </g>
     </g>
    </g>
    <g id="xtick_12">
     <g id="line2d_12">
      <g>
       <use xlink:href="#m3694813cac" x="125.14024" y="313.236817" style="stroke: #000000; stroke-width: 0.6"/>
      </g>
     </g>
    </g>
    <g id="xtick_13">
     <g id="line2d_13">
      <g>
       <use xlink:href="#m3694813cac" x="136.97101" y="313.236817" style="stroke: #000000; stroke-width: 0.6"/>
      </g>
     </g>
    </g>
    <g id="xtick_14">
     <g id="line2d_14">
      <g>
       <use xlink:href="#m3694813cac" x="148.801779" y="313.236817" style="stroke: #000000; stroke-width: 0.6"/>
      </g>
     </g>
    </g>
    <g id="xtick_15">
     <g id="line2d_15">
      <g>
       <use xlink:href="#m3694813cac" x="160.632548" y="313.236817" style="stroke: #000000; stroke-width: 0.6"/>
      </g>
     </g>
    </g>
    <g id="xtick_16">
     <g id="line2d_16">
      <g>
       <use xlink:href="#m3694813cac" x="184.294087" y="313.236817" style="stroke: #000000; stroke-width: 0.6"/>
      </g>
     </g>
    </g>
    <g id="xtick_17">
     <g id="line2d_17">
      <g>
       <use xlink:href="#m3694813cac" x="196.124856" y="313.236817" style="stroke: #000000; stroke-width: 0.6"/>
      </g>
     </g>
    </g>
    <g id="xtick_18">
     <g id="line2d_18">
      <g>
       <use xlink:href="#m3694813cac" x="207.955625" y="313.236817" style="stroke: #000000; stroke-width: 0.6"/>
      </g>
     </g>
    </g>
    <g id="xtick_19">
     <g id="line2d_19">
      <g>
       <use xlink:href="#m3694813cac" x="219.786394" y="313.236817" style="stroke: #000000; stroke-width: 0.6"/>
      </g>
     </g>
    </g>
    <g id="xtick_20">
     <g id="line2d_20">
      <g>
       <use xlink:href="#m3694813cac" x="243.447933" y="313.236817" style="stroke: #000000; stroke-width: 0.6"/>
      </g>
     </g>
    </g>
    <g id="xtick_21">
     <g id="line2d_21">
      <g>
       <use xlink:href="#m3694813cac" x="255.278702" y="313.236817" style="stroke: #000000; stroke-width: 0.6"/>
      </g>
     </g>
    </g>
    <g id="xtick_22">
     <g id="line2d_22">
      <g>
       <use xlink:href="#m3694813cac" x="267.109471" y="313.236817" style="stroke: #000000; stroke-width: 0.6"/>
      </g>
     </g>
    </g>
    <g id="xtick_23">
     <g id="line2d_23">
      <g>
       <use xlink:href="#m3694813cac" x="278.94024" y="313.236817" style="stroke: #000000; stroke-width: 0.6"/>
      </g>
     </g>
    </g>
    <g id="xtick_24">
     <g id="line2d_24">
      <g>
       <use xlink:href="#m3694813cac" x="302.601779" y="313.236817" style="stroke: #000000; stroke-width: 0.6"/>
      </g>
     </g>
    </g>
    <g id="xtick_25">
     <g id="line2d_25">
      <g>
       <use xlink:href="#m3694813cac" x="314.432548" y="313.236817" style="stroke: #000000; stroke-width: 0.6"/>
      </g>
     </g>
    </g>
    <g id="xtick_26">
     <g id="line2d_26">
      <g>
       <use xlink:href="#m3694813cac" x="326.263317" y="313.236817" style="stroke: #000000; stroke-width: 0.6"/>
      </g>
     </g>
    </g>
    <g id="xtick_27">
     <g id="line2d_27">
      <g>
       <use xlink:href="#m3694813cac" x="338.094087" y="313.236817" style="stroke: #000000; stroke-width: 0.6"/>
      </g>
     </g>
    </g>
    <g id="xtick_28">
     <g id="line2d_28">
      <g>
       <use xlink:href="#m3694813cac" x="361.755625" y="313.236817" style="stroke: #000000; stroke-width: 0.6"/>
      </g>
     </g>
    </g>
    <g id="xtick_29">
     <g id="line2d_29">
      <g>
       <use xlink:href="#m3694813cac" x="373.586394" y="313.236817" style="stroke: #000000; stroke-width: 0.6"/>
      </g>
     </g>
    </g>
    <g id="xtick_30">
     <g id="line2d_30">
      <g>
       <use xlink:href="#m3694813cac" x="385.417163" y="313.236817" style="stroke: #000000; stroke-width: 0.6"/>
      </g>
     </g>
    </g>
    <g id="xtick_31">
     <g id="line2d_31">
      <g>
       <use xlink:href="#m3694813cac" x="397.247933" y="313.236817" style="stroke: #000000; stroke-width: 0.6"/>
      </g>
     </g>
    </g>
    <g id="xtick_32">
     <g id="line2d_32">
      <g>
       <use xlink:href="#m3694813cac" x="420.909471" y="313.236817" style="stroke: #000000; stroke-width: 0.6"/>
      </g>
     </g>
    </g>
    <g id="xtick_33">
     <g id="line2d_33">
      <g>
       <use xlink:href="#m3694813cac" x="432.74024" y="313.236817" style="stroke: #000000; stroke-width: 0.6"/>
      </g>
     </g>
    </g>
    <g id="xtick_34">
     <g id="line2d_34">
      <g>
       <use xlink:href="#m3694813cac" x="444.57101" y="313.236817" style="stroke: #000000; stroke-width: 0.6"/>
      </g>
     </g>
    </g>
   </g>
   <g id="matplotlib.axis_2">
    <g id="ytick_1">
     <g id="line2d_35">
      <defs>
       <path id="m3cb1936186" d="M 0 0 
L -3.5 0 
" style="stroke: #000000; stroke-width: 0.8"/>
      </defs>
      <g>
       <use xlink:href="#m3cb1936186" x="36.465625" y="313.236817" style="stroke: #000000; stroke-width: 0.8"/>
      </g>
     </g>
     <g id="text_8">
      <!-- 0.00 -->
      <g transform="translate(7.2 317.036035) scale(0.1 -0.1)">
       <defs>
        <path id="DejaVuSans-30" d="M 2034 4250 
Q 1547 4250 1301 3770 
Q 1056 3291 1056 2328 
Q 1056 1369 1301 889 
Q 1547 409 2034 409 
Q 2525 409 2770 889 
Q 3016 1369 3016 2328 
Q 3016 3291 2770 3770 
Q 2525 4250 2034 4250 
z
M 2034 4750 
Q 2819 4750 3233 4129 
Q 3647 3509 3647 2328 
Q 3647 1150 3233 529 
Q 2819 -91 2034 -91 
Q 1250 -91 836 529 
Q 422 1150 422 2328 
Q 422 3509 836 4129 
Q 1250 4750 2034 4750 
z
" transform="scale(0.015625)"/>
        <path id="DejaVuSans-2e" d="M 684 794 
L 1344 794 
L 1344 0 
L 684 0 
L 684 794 
z
" transform="scale(0.015625)"/>
       </defs>
       <use xlink:href="#DejaVuSans-30"/>
       <use xlink:href="#DejaVuSans-2e" x="63.623047"/>
       <use xlink:href="#DejaVuSans-30" x="95.410156"/>
       <use xlink:href="#DejaVuSans-30" x="159.033203"/>
      </g>
     </g>
    </g>
    <g id="ytick_2">
     <g id="line2d_36">
      <g>
       <use xlink:href="#m3cb1936186" x="36.465625" y="253.229598" style="stroke: #000000; stroke-width: 0.8"/>
      </g>
     </g>
     <g id="text_9">
      <!-- 0.05 -->
      <g transform="translate(7.2 257.028816) scale(0.1 -0.1)">
       <use xlink:href="#DejaVuSans-30"/>
       <use xlink:href="#DejaVuSans-2e" x="63.623047"/>
       <use xlink:href="#DejaVuSans-30" x="95.410156"/>
       <use xlink:href="#DejaVuSans-35" x="159.033203"/>
      </g>
     </g>
    </g>
    <g id="ytick_3">
     <g id="line2d_37">
      <g>
       <use xlink:href="#m3cb1936186" x="36.465625" y="193.222379" style="stroke: #000000; stroke-width: 0.8"/>
      </g>
     </g>
     <g id="text_10">
      <!-- 0.10 -->
      <g transform="translate(7.2 197.021597) scale(0.1 -0.1)">
       <defs>
        <path id="DejaVuSans-31" d="M 794 531 
L 1825 531 
L 1825 4091 
L 703 3866 
L 703 4441 
L 1819 4666 
L 2450 4666 
L 2450 531 
L 3481 531 
L 3481 0 
L 794 0 
L 794 531 
z
" transform="scale(0.015625)"/>
       </defs>
       <use xlink:href="#DejaVuSans-30"/>
       <use xlink:href="#DejaVuSans-2e" x="63.623047"/>
       <use xlink:href="#DejaVuSans-31" x="95.410156"/>
       <use xlink:href="#DejaVuSans-30" x="159.033203"/>
      </g>
     </g>
    </g>
    <g id="ytick_4">
     <g id="line2d_38">
      <g>
       <use xlink:href="#m3cb1936186" x="36.465625" y="133.21516" style="stroke: #000000; stroke-width: 0.8"/>
      </g>
     </g>
     <g id="text_11">
      <!-- 0.15 -->
      <g transform="translate(7.2 137.014379) scale(0.1 -0.1)">
       <use xlink:href="#DejaVuSans-30"/>
       <use xlink:href="#DejaVuSans-2e" x="63.623047"/>
       <use xlink:href="#DejaVuSans-31" x="95.410156"/>
       <use xlink:href="#DejaVuSans-35" x="159.033203"/>
      </g>
     </g>
    </g>
    <g id="ytick_5">
     <g id="line2d_39">
      <g>
       <use xlink:href="#m3cb1936186" x="36.465625" y="73.207941" style="stroke: #000000; stroke-width: 0.8"/>
      </g>
     </g>
     <g id="text_12">
      <!-- 0.20 -->
      <g transform="translate(7.2 77.00716) scale(0.1 -0.1)">
       <use xlink:href="#DejaVuSans-30"/>
       <use xlink:href="#DejaVuSans-2e" x="63.623047"/>
       <use xlink:href="#DejaVuSans-32" x="95.410156"/>
       <use xlink:href="#DejaVuSans-30" x="159.033203"/>
      </g>
     </g>
    </g>
    <g id="ytick_6">
     <g id="line2d_40">
      <g>
       <use xlink:href="#m3cb1936186" x="36.465625" y="13.200722" style="stroke: #000000; stroke-width: 0.8"/>
      </g>
     </g>
     <g id="text_13">
      <!-- 0.25 -->
      <g transform="translate(7.2 16.999941) scale(0.1 -0.1)">
       <use xlink:href="#DejaVuSans-30"/>
       <use xlink:href="#DejaVuSans-2e" x="63.623047"/>
       <use xlink:href="#DejaVuSans-32" x="95.410156"/>
       <use xlink:href="#DejaVuSans-35" x="159.033203"/>
      </g>
     </g>
    </g>
    <g id="ytick_7">
     <g id="line2d_41">
      <defs>
       <path id="m0cbfb78c13" d="M 0 0 
L -2 0 
" style="stroke: #000000; stroke-width: 0.6"/>
      </defs>
      <g>
       <use xlink:href="#m0cbfb78c13" x="36.465625" y="301.235373" style="stroke: #000000; stroke-width: 0.6"/>
      </g>
     </g>
    </g>
    <g id="ytick_8">
     <g id="line2d_42">
      <g>
       <use xlink:href="#m0cbfb78c13" x="36.465625" y="289.233929" style="stroke: #000000; stroke-width: 0.6"/>
      </g>
     </g>
    </g>
    <g id="ytick_9">
     <g id="line2d_43">
      <g>
       <use xlink:href="#m0cbfb78c13" x="36.465625" y="277.232485" style="stroke: #000000; stroke-width: 0.6"/>
      </g>
     </g>
    </g>
    <g id="ytick_10">
     <g id="line2d_44">
      <g>
       <use xlink:href="#m0cbfb78c13" x="36.465625" y="265.231041" style="stroke: #000000; stroke-width: 0.6"/>
      </g>
     </g>
    </g>
    <g id="ytick_11">
     <g id="line2d_45">
      <g>
       <use xlink:href="#m0cbfb78c13" x="36.465625" y="241.228154" style="stroke: #000000; stroke-width: 0.6"/>
      </g>
     </g>
    </g>
    <g id="ytick_12">
     <g id="line2d_46">
      <g>
       <use xlink:href="#m0cbfb78c13" x="36.465625" y="229.22671" style="stroke: #000000; stroke-width: 0.6"/>
      </g>
     </g>
    </g>
    <g id="ytick_13">
     <g id="line2d_47">
      <g>
       <use xlink:href="#m0cbfb78c13" x="36.465625" y="217.225266" style="stroke: #000000; stroke-width: 0.6"/>
      </g>
     </g>
    </g>
    <g id="ytick_14">
     <g id="line2d_48">
      <g>
       <use xlink:href="#m0cbfb78c13" x="36.465625" y="205.223822" style="stroke: #000000; stroke-width: 0.6"/>
      </g>
     </g>
    </g>
    <g id="ytick_15">
     <g id="line2d_49">
      <g>
       <use xlink:href="#m0cbfb78c13" x="36.465625" y="181.220935" style="stroke: #000000; stroke-width: 0.6"/>
      </g>
     </g>
    </g>
    <g id="ytick_16">
     <g id="line2d_50">
      <g>
       <use xlink:href="#m0cbfb78c13" x="36.465625" y="169.219491" style="stroke: #000000; stroke-width: 0.6"/>
      </g>
     </g>
    </g>
    <g id="ytick_17">
     <g id="line2d_51">
      <g>
       <use xlink:href="#m0cbfb78c13" x="36.465625" y="157.218047" style="stroke: #000000; stroke-width: 0.6"/>
      </g>
     </g>
    </g>
    <g id="ytick_18">
     <g id="line2d_52">
      <g>
       <use xlink:href="#m0cbfb78c13" x="36.465625" y="145.216604" style="stroke: #000000; stroke-width: 0.6"/>
      </g>
     </g>
    </g>
    <g id="ytick_19">
     <g id="line2d_53">
      <g>
       <use xlink:href="#m0cbfb78c13" x="36.465625" y="121.213716" style="stroke: #000000; stroke-width: 0.6"/>
      </g>
     </g>
    </g>
    <g id="ytick_20">
     <g id="line2d_54">
      <g>
       <use xlink:href="#m0cbfb78c13" x="36.465625" y="109.212272" style="stroke: #000000; stroke-width: 0.6"/>
      </g>
     </g>
    </g>
    <g id="ytick_21">
     <g id="line2d_55">
      <g>
       <use xlink:href="#m0cbfb78c13" x="36.465625" y="97.210828" style="stroke: #000000; stroke-width: 0.6"/>
      </g>
     </g>
    </g>
    <g id="ytick_22">
     <g id="line2d_56">
      <g>
       <use xlink:href="#m0cbfb78c13" x="36.465625" y="85.209385" style="stroke: #000000; stroke-width: 0.6"/>
      </g>
     </g>
    </g>
    <g id="ytick_23">
     <g id="line2d_57">
      <g>
       <use xlink:href="#m0cbfb78c13" x="36.465625" y="61.206497" style="stroke: #000000; stroke-width: 0.6"/>
      </g>
     </g>
    </g>
    <g id="ytick_24">
     <g id="line2d_58">
      <g>
       <use xlink:href="#m0cbfb78c13" x="36.465625" y="49.205053" style="stroke: #000000; stroke-width: 0.6"/>
      </g>
     </g>
    </g>
    <g id="ytick_25">
     <g id="line2d_59">
      <g>
       <use xlink:href="#m0cbfb78c13" x="36.465625" y="37.203609" style="stroke: #000000; stroke-width: 0.6"/>
      </g>
     </g>
    </g>
    <g id="ytick_26">
     <g id="line2d_60">
      <g>
       <use xlink:href="#m0cbfb78c13" x="36.465625" y="25.202166" style="stroke: #000000; stroke-width: 0.6"/>
      </g>
     </g>
    </g>
   </g>
   <g id="line2d_61">
    <path d="M 113.309471 313.236817 
L 113.309471 179.887441 
" clip-path="url(#pd2977a3078)" style="fill: none; stroke: #000000; stroke-linecap: square"/>
   </g>
   <g id="line2d_62">
    <path d="M 409.078702 313.236817 
L 409.078702 294.484561 
" clip-path="url(#pd2977a3078)" style="fill: none; stroke: #000000; stroke-linecap: square"/>
   </g>
   <g id="line2d_63">
    <path d="M 113.309471 179.887441 
L 117.200322 185.547987 
L 120.646166 190.265495 
L 126.092102 197.205089 
L 131.248502 203.24818 
L 135.804825 208.203589 
L 139.62755 212.107288 
L 144.967394 217.206012 
L 150.287854 221.91213 
L 156.018145 226.604017 
L 160.750412 230.211415 
L 165.154985 233.370317 
L 171.598531 237.676483 
L 177.82975 241.517853 
L 183.076815 244.529805 
L 189.134776 247.777087 
L 196.057784 251.213926 
L 201.982742 253.944816 
L 209.902997 257.322399 
L 217.668145 260.36123 
L 225.555144 263.201015 
L 234.143887 266.040865 
L 242.033932 268.441892 
L 252.22458 271.281149 
L 261.832766 273.717932 
L 270.438429 275.72464 
L 281.505091 278.08819 
L 292.674294 280.254162 
L 305.44321 282.493788 
L 317.733505 284.440763 
L 332.255195 286.511906 
L 348.015401 288.516613 
L 365.362724 290.473097 
L 384.102763 292.336661 
L 402.414435 293.945034 
L 409.078702 294.484561 
L 409.078702 294.484561 
" clip-path="url(#pd2977a3078)" style="fill: none; stroke: #0000ff; stroke-linecap: square"/>
   </g>
   <g id="line2d_64">
    <path d="M 54.155625 13.200722 
L 58.055558 32.044883 
L 59.621243 39.113829 
L 64.139135 58.080855 
L 68.11823 73.201685 
L 71.657554 85.549735 
L 72.585962 88.631083 
L 75.809752 98.85877 
L 79.376437 109.380979 
L 83.195343 119.810992 
L 86.354364 127.845514 
L 91.736918 140.426921 
L 96.10087 149.710568 
L 100.497205 158.326678 
L 104.536935 165.657352 
L 108.38322 172.163913 
L 111.717644 177.462581 
L 115.213957 182.704181 
L 121.372736 191.226793 
L 124.712627 195.503898 
L 131.171071 203.160957 
L 135.639459 208.029646 
L 140.770926 213.232651 
L 145.968363 218.118774 
L 150.984576 222.502683 
L 155.901543 226.512183 
L 162.099252 231.198408 
L 168.20924 235.456116 
L 173.134312 238.651412 
L 181.167732 243.456286 
L 187.385558 246.863494 
L 193.715029 250.081835 
L 198.712541 252.46038 
L 205.398018 255.43779 
L 211.653461 258.029894 
L 219.828051 261.162498 
L 228.904962 264.338356 
L 238.093387 267.266244 
L 244.808129 269.24272 
L 255.470064 272.12887 
L 265.58738 274.61278 
L 275.631299 276.862467 
L 285.081472 278.804394 
L 297.422574 281.114745 
L 310.433354 283.307436 
L 325.119138 285.523091 
L 337.295786 287.17881 
L 353.174306 289.124007 
L 371.375833 291.097332 
L 390.401487 292.911873 
L 408.85973 294.467195 
L 431.534444 296.145116 
L 438.655625 296.625822 
L 438.655625 296.625822 
" clip-path="url(#pd2977a3078)" style="fill: none; stroke: #0000ff; stroke-width: 2; stroke-linecap: square"/>
   </g>
   <g id="patch_4">
    <path d="M 36.465625 319.237538 
L 36.465625 7.2 
" style="fill: none; stroke: #000000; stroke-width: 0.8; stroke-linejoin: miter; stroke-linecap: square"/>
   </g>
   <g id="patch_5">
    <path d="M 46.465625 313.236817 
L 446.345625 313.236817 
" style="fill: none; stroke: #000000; stroke-width: 0.8; stroke-linejoin: miter; stroke-linecap: square"/>
   </g>
  </g>
 </g>
 <defs>
  <clipPath id="pd2977a3078">
   <rect x="46.465625" y="7.2" width="399.88" height="312.037538"/>
  </clipPath>
 </defs>
</svg>
