<?xml version="1.0" encoding="utf-8" standalone="no"?>
<!DOCTYPE svg PUBLIC "-//W3C//DTD SVG 1.1//EN"
  "http://www.w3.org/Graphics/SVG/1.1/DTD/svg11.dtd">
<svg xmlns:xlink="http://www.w3.org/1999/xlink" width="451.536877pt" height="337.114942pt" viewBox="0 0 451.536877 337.114942" xmlns="http://www.w3.org/2000/svg" version="1.1">
 <metadata>
  <rdf:RDF xmlns:dc="http://purl.org/dc/elements/1.1/" xmlns:cc="http://creativecommons.org/ns#" xmlns:rdf="http://www.w3.org/1999/02/22-rdf-syntax-ns#">
   <cc:Work>
    <dc:type rdf:resource="http://purl.org/dc/dcmitype/StillImage"/>
    <dc:date>2023-02-09T14:00:05.352962</dc:date>
    <dc:format>image/svg+xml</dc:format>
    <dc:creator>
     <cc:Agent>
      <dc:title>Matplotlib v3.6.2, https://matplotlib.org/</dc:title>
     </cc:Agent>
    </dc:creator>
   </cc:Work>
  </rdf:RDF>
 </metadata>
 <defs>
  <style type="text/css">*{stroke-linejoin: round; stroke-linecap: butt}</style>
 </defs>
 <g id="figure_1">
  <g id="patch_1">
   <path d="M 0 337.114942 
L 451.536877 337.114942 
L 451.536877 0 
L 0 0 
L 0 337.114942 
z
" style="fill: none"/>
  </g>
  <g id="axes_1">
   <g id="patch_2">
    <path d="M 16.50304 319.237538 
L 442.994893 319.237538 
L 442.994893 7.2 
L 16.50304 7.2 
L 16.50304 319.237538 
z
" style="fill: none"/>
   </g>
   <g id="patch_3">
    <path d="M 434.793127 13.200722 
L 434.721384 20.253606 
L 434.649642 20.253606 
L 434.506158 20.253606 
L 434.219189 20.253606 
L 433.645251 20.253606 
L 432.497376 20.253606 
L 431.354266 20.253606 
L 430.782711 20.253606 
L 430.711267 20.253606 
L 430.639823 18.395809 
L 430.496934 18.395809 
L 430.211157 18.395809 
L 429.127182 18.395809 
L 427.805132 18.395809 
L 427.144107 18.395809 
L 426.813595 18.395809 
L 426.648339 18.395809 
L 426.565711 18.395809 
L 426.483082 22.217185 
L 424.983556 22.217185 
L 421.813219 22.651951 
L 420.061985 22.651951 
L 419.035761 22.651951 
L 418.522649 22.651951 
L 418.266093 22.651951 
L 418.201954 21.928302 
L 418.137815 21.928302 
L 418.009537 21.928302 
L 415.877751 21.928302 
L 414.588412 21.928302 
L 414.087951 21.928302 
L 414.025393 23.549235 
L 413.962836 23.549235 
L 413.83772 23.549235 
L 413.58749 23.549235 
L 412.586568 23.549235 
L 410.761627 23.549235 
L 410.319455 23.549235 
L 410.098368 23.549235 
L 409.987825 23.549235 
L 409.877282 22.819672 
L 408.992937 22.819672 
L 407.224248 22.819672 
L 405.967553 22.819672 
L 405.81471 22.819672 
L 405.738289 24.485532 
L 405.661867 24.485532 
L 405.35618 24.485532 
L 404.744808 24.485532 
L 403.522062 24.485532 
L 402.833369 24.485532 
L 401.958035 24.485532 
L 401.739201 24.485532 
L 401.629785 28.625786 
L 401.520368 28.625786 
L 401.082701 28.625786 
L 399.332032 28.625786 
L 398.228466 28.625786 
L 397.676684 28.625786 
L 397.538738 28.625786 
L 397.469765 27.92831 
L 397.400792 27.92831 
L 397.124901 27.92831 
L 395.366724 27.92831 
L 394.430366 27.92831 
L 393.40099 27.92831 
L 393.336654 25.968878 
L 393.272318 25.968878 
L 393.143646 25.968878 
L 392.886302 25.968878 
L 392.371615 25.968878 
L 390.589245 25.968878 
L 389.69806 25.968878 
L 389.252468 25.968878 
L 389.14107 25.225358 
L 389.029672 25.225358 
L 388.806876 25.225358 
L 388.180874 25.225358 
L 386.396676 25.225358 
L 385.504576 25.225358 
L 385.281551 25.225358 
L 385.170039 25.225358 
L 385.058527 27.014609 
L 384.612477 27.014609 
L 383.970439 27.014609 
L 381.172833 27.014609 
L 379.782661 27.555714 
L 378.206029 27.555714 
L 377.417713 27.555714 
L 377.023555 27.555714 
L 376.826476 27.555714 
L 376.727936 26.80462 
L 376.629397 26.80462 
L 375.765181 26.80462 
L 372.631189 27.356108 
L 371.040549 27.356108 
L 369.268256 27.356108 
L 368.844888 27.356108 
L 368.633204 27.356108 
L 368.527362 27.356108 
L 368.474441 25.248137 
L 368.42152 25.248137 
L 367.574784 25.248137 
L 365.810151 25.248137 
L 364.927834 25.248137 
L 364.486675 25.248137 
L 364.376386 25.248137 
L 364.266096 28.499438 
L 364.045517 28.499438 
L 362.720296 28.499438 
L 360.607543 28.499438 
L 360.267806 28.499438 
L 360.182872 26.353533 
L 360.097938 26.353533 
L 359.92807 26.353533 
L 359.248596 26.353533 
L 357.88965 26.353533 
L 357.160491 26.353533 
L 356.254692 26.353533 
L 356.141467 26.353533 
L 356.028243 29.699934 
L 355.801793 29.699934 
L 355.348894 29.699934 
L 353.537297 29.699934 
L 352.759309 29.699934 
L 351.991119 29.699934 
L 351.943107 31.727015 
L 351.895095 31.727015 
L 351.799071 31.727015 
L 351.607024 31.727015 
L 351.222928 31.727015 
L 348.105964 31.727015 
L 347.934658 31.727015 
L 347.849006 31.727015 
L 347.763353 30.961994 
L 347.420743 30.961994 
L 346.735522 30.961994 
L 345.36508 30.961994 
L 344.411481 30.961994 
L 343.934681 30.961994 
L 343.696281 30.961994 
L 343.636681 33.058117 
L 343.577081 33.058117 
L 343.457881 33.058117 
L 341.347786 33.058117 
L 340.116373 33.058117 
L 339.535117 33.058117 
L 339.46246 33.74994 
L 339.389803 33.74994 
L 339.24449 33.74994 
L 338.953862 33.74994 
L 337.791351 33.74994 
L 336.455487 33.74994 
L 335.787555 33.74994 
L 335.453589 33.74994 
L 335.370097 32.98129 
L 335.286606 32.98129 
L 335.119623 32.98129 
L 332.998977 32.98129 
L 331.921904 32.98129 
L 331.383367 32.98129 
L 331.248732 32.98129 
L 331.181415 33.690772 
L 331.114098 33.690772 
L 330.84483 33.690772 
L 330.373914 33.690772 
L 328.517364 33.690772 
L 327.589088 33.690772 
L 327.124951 33.690772 
L 327.008916 34.419693 
L 326.892882 34.419693 
L 326.660813 34.419693 
L 326.1429 34.419693 
L 323.67182 34.419693 
L 323.138806 34.419693 
L 323.005553 34.419693 
L 322.938926 36.709403 
L 322.8723 36.709403 
L 322.605793 36.709403 
L 321.539766 36.709403 
L 320.167183 36.709403 
L 319.326877 36.709403 
L 318.906724 36.709403 
L 318.801686 37.501373 
L 318.696648 37.501373 
L 318.486571 37.501373 
L 316.805959 37.501373 
L 315.378411 37.501373 
L 314.676849 37.501373 
L 314.589153 36.731411 
L 314.501458 36.731411 
L 314.326068 36.731411 
L 313.975286 36.731411 
L 312.572162 36.731411 
L 310.910488 36.731411 
L 310.654796 36.731411 
L 310.52695 36.731411 
L 310.463027 34.331609 
L 310.399104 34.331609 
L 309.887719 34.331609 
L 308.86495 34.331609 
L 307.615948 34.331609 
L 306.991448 34.331609 
L 306.679197 34.331609 
L 306.523072 34.331609 
L 306.44501 34.331609 
L 306.366947 38.385876 
L 305.311424 38.385876 
L 302.961845 38.385876 
L 302.487163 38.385876 
L 302.249821 38.385876 
L 302.190486 39.250149 
L 302.13115 39.250149 
L 302.01248 39.250149 
L 301.063114 39.250149 
L 298.768508 39.250149 
L 298.423769 39.250149 
L 298.2514 39.250149 
L 298.165215 39.250149 
L 298.122123 39.250149 
L 298.079031 46.86298 
L 297.389553 46.86298 
L 294.985106 46.86298 
L 294.230463 46.86298 
L 294.041802 46.86298 
L 293.947472 46.177816 
L 293.853141 46.177816 
L 293.47582 46.177816 
L 291.966534 46.177816 
L 291.524786 46.177816 
L 290.612355 46.177816 
L 290.156139 46.177816 
L 289.928032 46.177816 
L 289.813978 46.177816 
L 289.699924 43.738129 
L 287.875062 43.738129 
L 286.505657 43.738129 
L 285.700826 43.738129 
L 285.650524 42.981613 
L 285.600222 42.981613 
L 285.499618 42.981613 
L 285.29841 42.981613 
L 284.895995 42.981613 
L 281.787628 42.981613 
L 281.5893 42.981613 
L 281.539718 42.981613 
L 281.514927 51.145779 
L 281.490136 51.145779 
L 281.390972 51.145779 
L 280.994315 51.145779 
L 277.65602 51.145779 
L 277.387642 51.145779 
L 277.320548 55.940932 
L 277.253453 55.940932 
L 277.119265 55.940932 
L 276.582509 55.940932 
L 275.508998 55.940932 
L 274.087672 55.940932 
L 273.319933 55.940932 
L 273.223965 53.501319 
L 273.127998 53.501319 
L 272.936063 53.501319 
L 272.552194 53.501319 
L 271.016715 53.501319 
L 269.416122 53.501319 
L 269.15093 53.501319 
L 269.084631 52.858991 
L 269.018333 52.858991 
L 268.885737 52.858991 
L 268.355352 52.858991 
L 267.294582 52.858991 
L 266.04501 52.858991 
L 265.420224 52.858991 
L 265.107831 52.858991 
L 265.029733 52.858991 
L 264.951635 54.106911 
L 264.795438 54.106911 
L 263.985791 54.106911 
L 262.330635 54.106911 
L 261.503057 54.106911 
L 261.089268 54.106911 
L 260.882373 54.106911 
L 260.778926 51.506721 
L 260.675478 51.506721 
L 259.013202 51.506721 
L 256.831923 51.506721 
L 256.698401 51.506721 
L 256.68171 51.506721 
L 256.66502 52.775063 
L 256.631639 52.775063 
L 256.564878 52.775063 
L 256.297832 52.775063 
L 253.974543 52.775063 
L 253.076873 52.775063 
L 252.628038 52.775063 
L 252.515829 54.089526 
L 252.40362 54.089526 
L 252.179203 54.089526 
L 250.383862 54.089526 
L 250.338013 54.089526 
L 248.618654 54.089526 
L 248.403734 54.089526 
L 248.296274 55.452673 
L 248.188814 55.452673 
L 247.758975 55.452673 
L 246.899295 55.452673 
L 245.564487 55.452673 
L 244.897083 55.452673 
L 244.563381 55.452673 
L 244.39653 55.452673 
L 244.313104 55.452673 
L 244.229679 61.052885 
L 242.760852 61.052885 
L 240.473537 61.052885 
L 240.172744 61.052885 
L 240.097545 58.336253 
L 240.022347 58.336253 
L 239.87195 58.336253 
L 239.270363 58.336253 
L 238.06719 58.336253 
L 237.25391 58.336253 
L 236.235808 58.336253 
L 235.981282 58.336253 
L 235.917651 59.862854 
L 235.85402 59.862854 
L 235.726757 59.862854 
L 235.217706 59.862854 
L 233.409514 59.862854 
L 232.28657 59.862854 
L 232.005833 59.862854 
L 231.865465 59.862854 
L 231.795281 59.232138 
L 231.725097 59.232138 
L 231.163625 59.232138 
L 229.038508 59.232138 
L 228.333826 59.232138 
L 227.981485 59.232138 
L 227.805315 59.232138 
L 227.71723 59.232138 
L 227.629144 56.312023 
L 226.219781 56.312023 
L 224.130586 56.312023 
L 223.81789 56.312023 
L 223.661542 56.312023 
L 223.583368 56.312023 
L 223.505194 55.581051 
L 222.879803 55.581051 
L 221.62902 55.581051 
L 219.585522 55.581051 
L 219.447991 55.581051 
L 219.413609 55.581051 
L 219.396417 55.581051 
L 219.387821 64.258896 
L 219.379226 64.258896 
L 219.31046 64.258896 
L 215.963512 64.258896 
L 215.437915 64.258896 
L 215.306516 64.258896 
L 215.240817 73.314037 
L 215.175117 73.314037 
L 214.912319 73.314037 
L 213.861125 73.314037 
L 211.640167 73.314037 
L 211.147742 73.314037 
L 211.086188 70.447288 
L 211.024635 70.447288 
L 210.901529 70.447288 
L 210.655316 70.447288 
L 209.670464 70.447288 
L 207.278082 70.447288 
L 205.798469 69.971121 
L 203.498526 69.971121 
L 203.09603 69.971121 
L 202.894781 69.971121 
L 202.844469 69.971121 
L 202.794157 66.893292 
L 202.693533 66.893292 
L 201.888541 66.893292 
L 199.891584 66.893292 
L 199.046291 66.893292 
L 198.834968 66.893292 
L 198.729306 66.893292 
L 198.676476 74.232622 
L 198.623645 74.232622 
L 198.200998 74.232622 
L 196.384557 74.232622 
L 195.234705 74.232622 
L 194.659779 74.232622 
L 194.587913 74.232622 
L 194.516048 71.108594 
L 194.372316 71.108594 
L 194.084853 71.108594 
L 192.644083 71.108594 
L 190.480993 71.108594 
L 190.399983 71.108594 
L 190.318974 73.374319 
L 190.156955 73.374319 
L 189.832917 73.374319 
L 189.184842 73.374319 
L 187.88869 73.374319 
L 186.645779 73.374319 
L 186.335051 73.374319 
L 186.257369 73.374319 
L 186.179687 75.756235 
L 186.024323 75.756235 
L 185.402867 75.756235 
L 183.457715 75.756235 
L 180.355056 75.344592 
L 178.80304 75.344592 
L 178.296906 75.344592 
L 178.043839 75.344592 
L 177.980573 75.344592 
L 177.917306 77.908511 
L 177.790772 77.908511 
L 176.778504 77.908511 
L 174.539385 77.908511 
L 174.115843 77.908511 
L 173.904072 77.908511 
L 173.851129 77.908511 
L 173.798186 80.61487 
L 173.6923 80.61487 
L 172.845215 80.61487 
L 171.22787 80.61487 
L 169.829678 80.61487 
L 169.730468 80.61487 
L 169.631259 77.137645 
L 169.432839 77.137645 
L 169.036001 77.137645 
L 168.242324 77.137645 
L 166.654969 77.137645 
L 165.994367 77.137645 
L 165.664066 77.137645 
L 165.581491 77.137645 
L 165.498916 86.50518 
L 165.333765 86.50518 
L 164.012561 86.50518 
L 162.821528 86.50518 
L 161.782565 86.50518 
L 161.522824 86.50518 
L 161.457889 86.50518 
L 161.392954 82.995709 
L 161.263083 82.995709 
L 160.743602 82.995709 
L 157.769163 82.995709 
L 157.504174 82.995709 
L 157.37168 82.995709 
L 157.305433 82.995709 
L 157.239186 86.199337 
L 156.709209 86.199337 
L 155.649255 86.199337 
L 154.113211 86.199337 
L 151.908005 86.031617 
L 150.699643 86.031617 
L 149.141167 86.031617 
L 149.053084 86.031617 
L 148.965002 104.339228 
L 148.788838 104.339228 
L 148.436508 104.339228 
L 147.73185 104.339228 
L 146.322533 104.339228 
L 144.358611 104.785454 
L 142.873859 104.785454 
L 140.893233 104.785454 
L 140.773816 104.785454 
L 140.714107 104.785454 
L 140.654398 101.302158 
L 140.415563 101.302158 
L 139.937893 101.302158 
L 138.982552 101.302158 
L 135.531304 101.668954 
L 134.653846 101.668954 
L 133.13151 101.668954 
L 132.750925 101.668954 
L 132.560633 101.668954 
L 132.465487 101.668954 
L 132.370341 97.797846 
L 131.609173 97.797846 
L 130.604463 97.797846 
L 127.782474 98.053813 
L 125.612709 98.053813 
L 124.242957 98.053813 
L 124.133808 98.053813 
L 124.079234 107.574367 
L 124.024659 107.574367 
L 123.806362 107.574367 
L 123.369768 107.574367 
L 122.49658 107.574367 
L 120.302772 107.574367 
L 120.10122 107.574367 
L 120.000443 107.574367 
L 119.899667 113.100227 
L 119.496562 113.100227 
L 118.690352 113.100227 
L 117.077931 113.100227 
L 116.034142 113.100227 
L 115.903668 113.100227 
L 115.838431 113.100227 
L 115.773195 114.086661 
L 115.512247 114.086661 
L 114.990353 114.086661 
L 114.29923 114.086661 
L 112.583273 114.086661 
L 111.725295 114.086661 
L 111.618048 120.448903 
L 111.5108 120.448903 
L 111.296306 120.448903 
L 110.867317 120.448903 
L 109.404313 120.448903 
L 107.855054 120.448903 
L 107.661397 120.448903 
L 107.564568 120.448903 
L 107.46774 116.355461 
L 107.080425 116.355461 
L 106.305795 116.355461 
L 105.196977 116.355461 
L 103.691424 116.355461 
L 103.50323 116.355461 
L 103.409133 116.355461 
L 103.315036 117.668976 
L 102.938647 117.668976 
L 102.185871 117.668976 
L 100.42744 117.668976 
L 99.337929 117.668976 
L 99.269835 117.668976 
L 99.20174 125.290608 
L 99.065552 125.290608 
L 98.793174 125.290608 
L 98.248419 125.290608 
L 96.696321 125.290608 
L 95.762147 125.290608 
L 95.295059 125.290608 
L 95.178287 125.290608 
L 95.119902 120.7596 
L 95.061516 120.7596 
L 94.827972 120.7596 
L 92.010362 120.7596 
L 91.28035 120.7596 
L 90.982339 120.7596 
L 90.907836 129.527101 
L 90.833334 129.527101 
L 90.684328 129.527101 
L 90.088307 129.527101 
L 88.896264 129.527101 
L 87.484109 129.527101 
L 87.095102 129.527101 
L 86.900599 129.527101 
L 86.803348 139.463601 
L 86.706096 139.463601 
L 85.928083 139.463601 
L 84.372056 139.463601 
L 83.399679 139.463601 
L 82.874088 139.463601 
L 82.742691 139.463601 
L 82.676992 142.89681 
L 82.611293 142.89681 
L 82.348497 142.89681 
L 81.297315 142.89681 
L 79.299581 142.89681 
L 78.848162 142.89681 
L 78.622453 142.89681 
L 78.509598 138.325969 
L 78.396743 138.325969 
L 77.493906 138.325969 
L 75.688232 138.325969 
L 74.86761 138.325969 
L 74.4573 138.325969 
L 74.406011 142.236578 
L 74.354722 142.236578 
L 74.252144 142.236578 
L 74.046989 142.236578 
L 71.882196 142.236578 
L 70.64459 142.236578 
L 70.427339 142.236578 
L 70.318713 142.236578 
L 70.210087 156.941758 
L 69.775585 156.941758 
L 68.90658 156.941758 
L 67.16857 156.941758 
L 66.164975 156.941758 
L 66.102251 152.40416 
L 66.039526 152.40416 
L 65.914076 152.40416 
L 65.663178 152.40416 
L 65.16138 152.40416 
L 64.019881 152.40416 
L 62.517315 152.40416 
L 62.141674 152.40416 
L 62.047763 152.40416 
L 61.953853 171.506889 
L 61.766032 171.506889 
L 61.014749 171.506889 
L 60.037493 171.506889 
L 58.775226 171.506889 
L 58.144093 171.506889 
L 57.98631 171.506889 
L 57.907418 171.506889 
L 57.828527 181.520416 
L 57.51296 181.520416 
L 54.964832 181.520416 
L 54.310419 181.520416 
L 53.829068 181.520416 
L 53.70873 181.520416 
L 53.648561 178.54937 
L 53.588392 178.54937 
L 53.347716 178.54937 
L 52.385012 178.54937 
L 49.762837 178.54937 
L 49.621 178.54937 
L 49.550082 193.074487 
L 49.479164 193.074487 
L 49.195492 193.074487 
L 48.628147 193.074487 
L 47.493458 193.074487 
L 45.676784 193.074487 
L 45.467728 193.074487 
L 45.415464 191.225835 
L 45.3632 191.225835 
L 45.258672 191.225835 
L 44.84056 191.225835 
L 44.004335 191.225835 
L 42.308526 191.225835 
L 41.460621 191.225835 
L 41.354633 191.225835 
L 41.248645 216.182627 
L 41.036669 216.182627 
L 40.612717 216.182627 
L 38.935943 216.182627 
L 37.763123 216.182627 
L 37.176713 216.182627 
L 37.103412 220.804255 
L 37.03011 220.804255 
L 36.883508 220.804255 
L 36.590303 220.804255 
L 34.727688 220.804255 
L 33.542296 220.804255 
L 33.245948 220.804255 
L 33.097774 220.804255 
L 33.023688 220.804255 
L 32.949601 230.047511 
L 32.356905 230.047511 
L 31.279186 230.047511 
L 29.617559 230.047511 
L 29.202152 230.047511 
L 28.994449 230.047511 
L 28.890597 230.047511 
L 28.786746 202.317743 
L 27.955932 202.317743 
L 26.842923 202.317743 
L 24.704806 202.317743 
L 24.704806 313.236817 
L 25.220366 305.885421 
L 25.735925 299.30655 
L 26.419649 291.527538 
L 27.103373 284.608371 
L 27.787096 278.377741 
L 28.47082 272.710933 
L 29.639794 264.071301 
L 30.808768 256.479709 
L 32.213892 248.425945 
L 34.303457 238.088319 
L 36.01534 230.730199 
L 37.727224 224.145945 
L 38.157765 222.593409 
L 40.011219 216.316994 
L 41.864673 210.612342 
L 43.930748 204.811104 
L 46.192044 199.022496 
L 46.87867 197.365656 
L 49.470561 191.478698 
L 51.125376 187.990176 
L 54.366451 181.673638 
L 54.938244 180.622455 
L 56.711125 177.470959 
L 58.723971 174.075069 
L 62.537182 168.106434 
L 63.003767 167.413652 
L 65.605233 163.685426 
L 66.96226 161.825238 
L 70.771972 156.880042 
L 72.839055 154.351694 
L 74.487222 152.406374 
L 75.790406 150.909874 
L 79.098385 147.264301 
L 80.471638 145.811059 
L 82.60136 143.621902 
L 84.049811 142.175551 
L 86.539335 139.765063 
L 88.656953 137.785211 
L 89.691671 136.840093 
L 92.214659 134.59362 
L 95.573429 131.722706 
L 96.555013 130.907943 
L 98.003393 129.724738 
L 101.916053 126.635799 
L 102.736018 126.007315 
L 104.262317 124.853968 
L 106.905703 122.905374 
L 108.983283 121.415289 
L 110.701231 120.209351 
L 114.330217 117.735751 
L 115.531065 116.938265 
L 117.964017 115.352993 
L 118.858234 114.780268 
L 121.812581 112.92445 
L 122.641743 112.413326 
L 125.612512 110.615524 
L 126.757014 109.936445 
L 130.394968 107.82551 
L 132.842335 106.444398 
L 133.242482 106.221452 
L 135.362559 105.053283 
L 138.012875 103.622926 
L 139.715629 102.720892 
L 143.151448 100.939367 
L 144.604433 100.200947 
L 147.151264 98.927252 
L 147.434388 98.787244 
L 150.468915 97.305963 
L 152.684863 96.245964 
L 155.222914 95.053513 
L 157.164387 94.156427 
L 159.345316 93.163779 
L 160.686401 92.561101 
L 161.878048 92.0304 
L 165.083864 90.624601 
L 165.875567 90.282229 
L 169.864238 88.585217 
L 171.303072 87.98416 
L 172.206292 87.609773 
L 175.130607 86.412757 
L 177.636864 85.404751 
L 179.846882 84.529147 
L 181.938162 83.711703 
L 182.987652 83.305459 
L 186.391766 82.005608 
L 187.63811 81.536358 
L 188.736854 81.125573 
L 190.669411 80.409523 
L 194.575818 78.986635 
L 195.187425 78.766756 
L 197.36546 77.989939 
L 200.053866 77.044184 
L 202.298001 76.265503 
L 204.274157 75.587728 
L 205.181705 75.2789 
L 207.57232 74.472611 
L 210.467127 73.509957 
L 212.667305 72.788064 
L 213.604968 72.482919 
L 216.769361 71.46396 
L 218.965581 70.766376 
L 221.350653 70.017499 
L 221.885666 69.850735 
L 225.127127 68.849747 
L 226.724301 68.362346 
L 228.361318 67.866689 
L 230.039217 67.36269 
L 233.157535 66.436656 
L 234.673717 65.991298 
L 236.016101 65.599616 
L 238.126444 64.988765 
L 241.52447 64.017529 
L 243.817341 63.370575 
L 245.579707 62.877808 
L 247.155298 62.440521 
L 249.139713 61.894076 
L 252.197324 61.061325 
L 254.300574 60.494855 
L 254.589239 60.417506 
L 258.183175 59.462412 
L 259.345015 59.156739 
L 262.7093 58.279934 
L 262.792845 58.258315 
L 266.662278 57.265136 
L 268.042022 56.914766 
L 269.407032 56.570054 
L 272.580131 55.775989 
L 274.128951 55.392023 
L 275.405572 55.077296 
L 279.174728 54.157198 
L 279.729939 54.022799 
L 282.867825 53.268583 
L 284.356094 52.914015 
L 286.642097 52.37327 
L 289.460005 51.713063 
L 290.609778 51.445668 
L 291.721124 51.18829 
L 294.555391 50.536643 
L 295.740161 50.266239 
L 299.805068 49.347264 
L 301.105877 49.056006 
L 302.284287 48.793318 
L 305.835494 48.008286 
L 307.853929 47.566434 
L 308.178693 47.495631 
L 311.39831 46.797999 
L 312.559658 46.54825 
L 316.156269 45.781051 
L 317.146076 45.571551 
L 318.556088 45.274316 
L 321.323012 44.695105 
L 323.937667 44.152646 
L 325.100387 43.912918 
L 326.645231 43.595816 
L 329.384996 43.037355 
L 330.971635 42.716203 
L 333.59059 42.189674 
L 335.598784 41.788911 
L 337.007884 41.509227 
L 339.516472 41.014382 
L 341.187106 40.686986 
L 344.156942 40.109174 
L 345.265128 39.894923 
L 347.309382 39.501608 
L 350.732225 38.84853 
L 352.099665 38.589513 
L 354.257823 38.182886 
L 356.683801 37.728926 
L 357.661943 37.546818 
L 360.171593 37.081984 
L 361.999867 36.745511 
L 364.729908 36.246417 
L 367.34787 35.771517 
L 368.144712 35.627681 
L 370.091428 35.277666 
L 373.845019 34.608249 
L 375.653172 34.288316 
L 377.823934 33.906369 
L 378.958342 33.707691 
L 382.030563 33.17277 
L 383.241773 32.963129 
L 385.484645 32.576765 
L 386.615536 32.382853 
L 388.75128 32.01827 
L 391.046121 31.628879 
L 393.212491 31.263493 
L 396.334838 30.740589 
L 396.948986 30.638249 
L 399.67487 30.186018 
L 401.940001 29.812694 
L 403.736496 29.518181 
L 404.977953 29.315465 
L 407.030642 28.981716 
L 409.867078 28.523442 
L 412.382296 28.119851 
L 414.082583 27.848488 
L 416.579873 27.452044 
L 419.328835 27.018527 
L 419.541061 26.985183 
L 421.935743 26.610164 
L 424.610934 26.193853 
L 427.32025 25.775032 
L 428.631475 25.573336 
L 430.339636 25.311552 
L 433.691188 24.801067 
L 434.793127 24.634132 
z
" clip-path="url(#p0f52ec7512)" style="fill: #ff0000; opacity: 0.5"/>
   </g>
   <g id="matplotlib.axis_1">
    <g id="xtick_1">
     <g id="line2d_1">
      <defs>
       <path id="m19e9f81e41" d="M 0 0 
L 0 3.5 
" style="stroke: #000000; stroke-width: 0.8"/>
      </defs>
      <g>
       <use xlink:href="#m19e9f81e41" x="20.5625" y="313.236817" style="stroke: #000000; stroke-width: 0.8"/>
      </g>
     </g>
    </g>
    <g id="xtick_2">
     <g id="line2d_2">
      <g>
       <use xlink:href="#m19e9f81e41" x="103.408625" y="313.236817" style="stroke: #000000; stroke-width: 0.8"/>
      </g>
     </g>
     <g id="text_1">
      <!-- 20 -->
      <g transform="translate(97.046125 327.835254) scale(0.1 -0.1)">
       <defs>
        <path id="DejaVuSans-32" d="M 1228 531 
L 3431 531 
L 3431 0 
L 469 0 
L 469 531 
Q 828 903 1448 1529 
Q 2069 2156 2228 2338 
Q 2531 2678 2651 2914 
Q 2772 3150 2772 3378 
Q 2772 3750 2511 3984 
Q 2250 4219 1831 4219 
Q 1534 4219 1204 4116 
Q 875 4013 500 3803 
L 500 4441 
Q 881 4594 1212 4672 
Q 1544 4750 1819 4750 
Q 2544 4750 2975 4387 
Q 3406 4025 3406 3419 
Q 3406 3131 3298 2873 
Q 3191 2616 2906 2266 
Q 2828 2175 2409 1742 
Q 1991 1309 1228 531 
z
" transform="scale(0.015625)"/>
        <path id="DejaVuSans-30" d="M 2034 4250 
Q 1547 4250 1301 3770 
Q 1056 3291 1056 2328 
Q 1056 1369 1301 889 
Q 1547 409 2034 409 
Q 2525 409 2770 889 
Q 3016 1369 3016 2328 
Q 3016 3291 2770 3770 
Q 2525 4250 2034 4250 
z
M 2034 4750 
Q 2819 4750 3233 4129 
Q 3647 3509 3647 2328 
Q 3647 1150 3233 529 
Q 2819 -91 2034 -91 
Q 1250 -91 836 529 
Q 422 1150 422 2328 
Q 422 3509 836 4129 
Q 1250 4750 2034 4750 
z
" transform="scale(0.015625)"/>
       </defs>
       <use xlink:href="#DejaVuSans-32"/>
       <use xlink:href="#DejaVuSans-30" x="63.623047"/>
      </g>
     </g>
    </g>
    <g id="xtick_3">
     <g id="line2d_3">
      <g>
       <use xlink:href="#m19e9f81e41" x="186.254751" y="313.236817" style="stroke: #000000; stroke-width: 0.8"/>
      </g>
     </g>
     <g id="text_2">
      <!-- 40 -->
      <g transform="translate(179.892251 327.835254) scale(0.1 -0.1)">
       <defs>
        <path id="DejaVuSans-34" d="M 2419 4116 
L 825 1625 
L 2419 1625 
L 2419 4116 
z
M 2253 4666 
L 3047 4666 
L 3047 1625 
L 3713 1625 
L 3713 1100 
L 3047 1100 
L 3047 0 
L 2419 0 
L 2419 1100 
L 313 1100 
L 313 1709 
L 2253 4666 
z
" transform="scale(0.015625)"/>
       </defs>
       <use xlink:href="#DejaVuSans-34"/>
       <use xlink:href="#DejaVuSans-30" x="63.623047"/>
      </g>
     </g>
    </g>
    <g id="xtick_4">
     <g id="line2d_4">
      <g>
       <use xlink:href="#m19e9f81e41" x="269.100876" y="313.236817" style="stroke: #000000; stroke-width: 0.8"/>
      </g>
     </g>
     <g id="text_3">
      <!-- 60 -->
      <g transform="translate(262.738376 327.835254) scale(0.1 -0.1)">
       <defs>
        <path id="DejaVuSans-36" d="M 2113 2584 
Q 1688 2584 1439 2293 
Q 1191 2003 1191 1497 
Q 1191 994 1439 701 
Q 1688 409 2113 409 
Q 2538 409 2786 701 
Q 3034 994 3034 1497 
Q 3034 2003 2786 2293 
Q 2538 2584 2113 2584 
z
M 3366 4563 
L 3366 3988 
Q 3128 4100 2886 4159 
Q 2644 4219 2406 4219 
Q 1781 4219 1451 3797 
Q 1122 3375 1075 2522 
Q 1259 2794 1537 2939 
Q 1816 3084 2150 3084 
Q 2853 3084 3261 2657 
Q 3669 2231 3669 1497 
Q 3669 778 3244 343 
Q 2819 -91 2113 -91 
Q 1303 -91 875 529 
Q 447 1150 447 2328 
Q 447 3434 972 4092 
Q 1497 4750 2381 4750 
Q 2619 4750 2861 4703 
Q 3103 4656 3366 4563 
z
" transform="scale(0.015625)"/>
       </defs>
       <use xlink:href="#DejaVuSans-36"/>
       <use xlink:href="#DejaVuSans-30" x="63.623047"/>
      </g>
     </g>
    </g>
    <g id="xtick_5">
     <g id="line2d_5">
      <g>
       <use xlink:href="#m19e9f81e41" x="351.947001" y="313.236817" style="stroke: #000000; stroke-width: 0.8"/>
      </g>
     </g>
     <g id="text_4">
      <!-- 80 -->
      <g transform="translate(345.584501 327.835254) scale(0.1 -0.1)">
       <defs>
        <path id="DejaVuSans-38" d="M 2034 2216 
Q 1584 2216 1326 1975 
Q 1069 1734 1069 1313 
Q 1069 891 1326 650 
Q 1584 409 2034 409 
Q 2484 409 2743 651 
Q 3003 894 3003 1313 
Q 3003 1734 2745 1975 
Q 2488 2216 2034 2216 
z
M 1403 2484 
Q 997 2584 770 2862 
Q 544 3141 544 3541 
Q 544 4100 942 4425 
Q 1341 4750 2034 4750 
Q 2731 4750 3128 4425 
Q 3525 4100 3525 3541 
Q 3525 3141 3298 2862 
Q 3072 2584 2669 2484 
Q 3125 2378 3379 2068 
Q 3634 1759 3634 1313 
Q 3634 634 3220 271 
Q 2806 -91 2034 -91 
Q 1263 -91 848 271 
Q 434 634 434 1313 
Q 434 1759 690 2068 
Q 947 2378 1403 2484 
z
M 1172 3481 
Q 1172 3119 1398 2916 
Q 1625 2713 2034 2713 
Q 2441 2713 2670 2916 
Q 2900 3119 2900 3481 
Q 2900 3844 2670 4047 
Q 2441 4250 2034 4250 
Q 1625 4250 1398 4047 
Q 1172 3844 1172 3481 
z
" transform="scale(0.015625)"/>
       </defs>
       <use xlink:href="#DejaVuSans-38"/>
       <use xlink:href="#DejaVuSans-30" x="63.623047"/>
      </g>
     </g>
    </g>
    <g id="xtick_6">
     <g id="line2d_6">
      <g>
       <use xlink:href="#m19e9f81e41" x="434.793127" y="313.236817" style="stroke: #000000; stroke-width: 0.8"/>
      </g>
     </g>
     <g id="text_5">
      <!-- 100 -->
      <g transform="translate(425.249377 327.835254) scale(0.1 -0.1)">
       <defs>
        <path id="DejaVuSans-31" d="M 794 531 
L 1825 531 
L 1825 4091 
L 703 3866 
L 703 4441 
L 1819 4666 
L 2450 4666 
L 2450 531 
L 3481 531 
L 3481 0 
L 794 0 
L 794 531 
z
" transform="scale(0.015625)"/>
       </defs>
       <use xlink:href="#DejaVuSans-31"/>
       <use xlink:href="#DejaVuSans-30" x="63.623047"/>
       <use xlink:href="#DejaVuSans-30" x="127.246094"/>
      </g>
     </g>
    </g>
    <g id="xtick_7">
     <g id="line2d_7">
      <defs>
       <path id="m8d6d6f10d2" d="M 0 0 
L 0 2 
" style="stroke: #000000; stroke-width: 0.6"/>
      </defs>
      <g>
       <use xlink:href="#m8d6d6f10d2" x="41.274031" y="313.236817" style="stroke: #000000; stroke-width: 0.6"/>
      </g>
     </g>
    </g>
    <g id="xtick_8">
     <g id="line2d_8">
      <g>
       <use xlink:href="#m8d6d6f10d2" x="61.985563" y="313.236817" style="stroke: #000000; stroke-width: 0.6"/>
      </g>
     </g>
    </g>
    <g id="xtick_9">
     <g id="line2d_9">
      <g>
       <use xlink:href="#m8d6d6f10d2" x="82.697094" y="313.236817" style="stroke: #000000; stroke-width: 0.6"/>
      </g>
     </g>
    </g>
    <g id="xtick_10">
     <g id="line2d_10">
      <g>
       <use xlink:href="#m8d6d6f10d2" x="124.120157" y="313.236817" style="stroke: #000000; stroke-width: 0.6"/>
      </g>
     </g>
    </g>
    <g id="xtick_11">
     <g id="line2d_11">
      <g>
       <use xlink:href="#m8d6d6f10d2" x="144.831688" y="313.236817" style="stroke: #000000; stroke-width: 0.6"/>
      </g>
     </g>
    </g>
    <g id="xtick_12">
     <g id="line2d_12">
      <g>
       <use xlink:href="#m8d6d6f10d2" x="165.543219" y="313.236817" style="stroke: #000000; stroke-width: 0.6"/>
      </g>
     </g>
    </g>
    <g id="xtick_13">
     <g id="line2d_13">
      <g>
       <use xlink:href="#m8d6d6f10d2" x="206.966282" y="313.236817" style="stroke: #000000; stroke-width: 0.6"/>
      </g>
     </g>
    </g>
    <g id="xtick_14">
     <g id="line2d_14">
      <g>
       <use xlink:href="#m8d6d6f10d2" x="227.677813" y="313.236817" style="stroke: #000000; stroke-width: 0.6"/>
      </g>
     </g>
    </g>
    <g id="xtick_15">
     <g id="line2d_15">
      <g>
       <use xlink:href="#m8d6d6f10d2" x="248.389345" y="313.236817" style="stroke: #000000; stroke-width: 0.6"/>
      </g>
     </g>
    </g>
    <g id="xtick_16">
     <g id="line2d_16">
      <g>
       <use xlink:href="#m8d6d6f10d2" x="289.812407" y="313.236817" style="stroke: #000000; stroke-width: 0.6"/>
      </g>
     </g>
    </g>
    <g id="xtick_17">
     <g id="line2d_17">
      <g>
       <use xlink:href="#m8d6d6f10d2" x="310.523939" y="313.236817" style="stroke: #000000; stroke-width: 0.6"/>
      </g>
     </g>
    </g>
    <g id="xtick_18">
     <g id="line2d_18">
      <g>
       <use xlink:href="#m8d6d6f10d2" x="331.23547" y="313.236817" style="stroke: #000000; stroke-width: 0.6"/>
      </g>
     </g>
    </g>
    <g id="xtick_19">
     <g id="line2d_19">
      <g>
       <use xlink:href="#m8d6d6f10d2" x="372.658533" y="313.236817" style="stroke: #000000; stroke-width: 0.6"/>
      </g>
     </g>
    </g>
    <g id="xtick_20">
     <g id="line2d_20">
      <g>
       <use xlink:href="#m8d6d6f10d2" x="393.370064" y="313.236817" style="stroke: #000000; stroke-width: 0.6"/>
      </g>
     </g>
    </g>
    <g id="xtick_21">
     <g id="line2d_21">
      <g>
       <use xlink:href="#m8d6d6f10d2" x="414.081595" y="313.236817" style="stroke: #000000; stroke-width: 0.6"/>
      </g>
     </g>
    </g>
   </g>
   <g id="matplotlib.axis_2">
    <g id="ytick_1">
     <g id="line2d_22">
      <defs>
       <path id="m813132201d" d="M 0 0 
L -3.5 0 
" style="stroke: #000000; stroke-width: 0.8"/>
      </defs>
      <g>
       <use xlink:href="#m813132201d" x="20.5625" y="313.236817" style="stroke: #000000; stroke-width: 0.8"/>
      </g>
     </g>
    </g>
    <g id="ytick_2">
     <g id="line2d_23">
      <g>
       <use xlink:href="#m813132201d" x="20.5625" y="257.77728" style="stroke: #000000; stroke-width: 0.8"/>
      </g>
     </g>
     <g id="text_6">
      <!-- 1 -->
      <g transform="translate(7.2 261.576498) scale(0.1 -0.1)">
       <use xlink:href="#DejaVuSans-31"/>
      </g>
     </g>
    </g>
    <g id="ytick_3">
     <g id="line2d_24">
      <g>
       <use xlink:href="#m813132201d" x="20.5625" y="202.317743" style="stroke: #000000; stroke-width: 0.8"/>
      </g>
     </g>
     <g id="text_7">
      <!-- 2 -->
      <g transform="translate(7.2 206.116962) scale(0.1 -0.1)">
       <use xlink:href="#DejaVuSans-32"/>
      </g>
     </g>
    </g>
    <g id="ytick_4">
     <g id="line2d_25">
      <g>
       <use xlink:href="#m813132201d" x="20.5625" y="146.858206" style="stroke: #000000; stroke-width: 0.8"/>
      </g>
     </g>
     <g id="text_8">
      <!-- 3 -->
      <g transform="translate(7.2 150.657425) scale(0.1 -0.1)">
       <defs>
        <path id="DejaVuSans-33" d="M 2597 2516 
Q 3050 2419 3304 2112 
Q 3559 1806 3559 1356 
Q 3559 666 3084 287 
Q 2609 -91 1734 -91 
Q 1441 -91 1130 -33 
Q 819 25 488 141 
L 488 750 
Q 750 597 1062 519 
Q 1375 441 1716 441 
Q 2309 441 2620 675 
Q 2931 909 2931 1356 
Q 2931 1769 2642 2001 
Q 2353 2234 1838 2234 
L 1294 2234 
L 1294 2753 
L 1863 2753 
Q 2328 2753 2575 2939 
Q 2822 3125 2822 3475 
Q 2822 3834 2567 4026 
Q 2313 4219 1838 4219 
Q 1578 4219 1281 4162 
Q 984 4106 628 3988 
L 628 4550 
Q 988 4650 1302 4700 
Q 1616 4750 1894 4750 
Q 2613 4750 3031 4423 
Q 3450 4097 3450 3541 
Q 3450 3153 3228 2886 
Q 3006 2619 2597 2516 
z
" transform="scale(0.015625)"/>
       </defs>
       <use xlink:href="#DejaVuSans-33"/>
      </g>
     </g>
    </g>
    <g id="ytick_5">
     <g id="line2d_26">
      <g>
       <use xlink:href="#m813132201d" x="20.5625" y="91.398669" style="stroke: #000000; stroke-width: 0.8"/>
      </g>
     </g>
     <g id="text_9">
      <!-- 4 -->
      <g transform="translate(7.2 95.197888) scale(0.1 -0.1)">
       <use xlink:href="#DejaVuSans-34"/>
      </g>
     </g>
    </g>
    <g id="ytick_6">
     <g id="line2d_27">
      <g>
       <use xlink:href="#m813132201d" x="20.5625" y="35.939132" style="stroke: #000000; stroke-width: 0.8"/>
      </g>
     </g>
     <g id="text_10">
      <!-- 5 -->
      <g transform="translate(7.2 39.738351) scale(0.1 -0.1)">
       <defs>
        <path id="DejaVuSans-35" d="M 691 4666 
L 3169 4666 
L 3169 4134 
L 1269 4134 
L 1269 2991 
Q 1406 3038 1543 3061 
Q 1681 3084 1819 3084 
Q 2600 3084 3056 2656 
Q 3513 2228 3513 1497 
Q 3513 744 3044 326 
Q 2575 -91 1722 -91 
Q 1428 -91 1123 -41 
Q 819 9 494 109 
L 494 744 
Q 775 591 1075 516 
Q 1375 441 1709 441 
Q 2250 441 2565 725 
Q 2881 1009 2881 1497 
Q 2881 1984 2565 2268 
Q 2250 2553 1709 2553 
Q 1456 2553 1204 2497 
Q 953 2441 691 2322 
L 691 4666 
z
" transform="scale(0.015625)"/>
       </defs>
       <use xlink:href="#DejaVuSans-35"/>
      </g>
     </g>
    </g>
    <g id="ytick_7">
     <g id="line2d_28">
      <defs>
       <path id="m1e5cd22d01" d="M 0 0 
L -2 0 
" style="stroke: #000000; stroke-width: 0.6"/>
      </defs>
      <g>
       <use xlink:href="#m1e5cd22d01" x="20.5625" y="302.144909" style="stroke: #000000; stroke-width: 0.6"/>
      </g>
     </g>
    </g>
    <g id="ytick_8">
     <g id="line2d_29">
      <g>
       <use xlink:href="#m1e5cd22d01" x="20.5625" y="291.053002" style="stroke: #000000; stroke-width: 0.6"/>
      </g>
     </g>
    </g>
    <g id="ytick_9">
     <g id="line2d_30">
      <g>
       <use xlink:href="#m1e5cd22d01" x="20.5625" y="279.961094" style="stroke: #000000; stroke-width: 0.6"/>
      </g>
     </g>
    </g>
    <g id="ytick_10">
     <g id="line2d_31">
      <g>
       <use xlink:href="#m1e5cd22d01" x="20.5625" y="268.869187" style="stroke: #000000; stroke-width: 0.6"/>
      </g>
     </g>
    </g>
    <g id="ytick_11">
     <g id="line2d_32">
      <g>
       <use xlink:href="#m1e5cd22d01" x="20.5625" y="246.685372" style="stroke: #000000; stroke-width: 0.6"/>
      </g>
     </g>
    </g>
    <g id="ytick_12">
     <g id="line2d_33">
      <g>
       <use xlink:href="#m1e5cd22d01" x="20.5625" y="235.593465" style="stroke: #000000; stroke-width: 0.6"/>
      </g>
     </g>
    </g>
    <g id="ytick_13">
     <g id="line2d_34">
      <g>
       <use xlink:href="#m1e5cd22d01" x="20.5625" y="224.501558" style="stroke: #000000; stroke-width: 0.6"/>
      </g>
     </g>
    </g>
    <g id="ytick_14">
     <g id="line2d_35">
      <g>
       <use xlink:href="#m1e5cd22d01" x="20.5625" y="213.40965" style="stroke: #000000; stroke-width: 0.6"/>
      </g>
     </g>
    </g>
    <g id="ytick_15">
     <g id="line2d_36">
      <g>
       <use xlink:href="#m1e5cd22d01" x="20.5625" y="191.225835" style="stroke: #000000; stroke-width: 0.6"/>
      </g>
     </g>
    </g>
    <g id="ytick_16">
     <g id="line2d_37">
      <g>
       <use xlink:href="#m1e5cd22d01" x="20.5625" y="180.133928" style="stroke: #000000; stroke-width: 0.6"/>
      </g>
     </g>
    </g>
    <g id="ytick_17">
     <g id="line2d_38">
      <g>
       <use xlink:href="#m1e5cd22d01" x="20.5625" y="169.042021" style="stroke: #000000; stroke-width: 0.6"/>
      </g>
     </g>
    </g>
    <g id="ytick_18">
     <g id="line2d_39">
      <g>
       <use xlink:href="#m1e5cd22d01" x="20.5625" y="157.950113" style="stroke: #000000; stroke-width: 0.6"/>
      </g>
     </g>
    </g>
    <g id="ytick_19">
     <g id="line2d_40">
      <g>
       <use xlink:href="#m1e5cd22d01" x="20.5625" y="135.766298" style="stroke: #000000; stroke-width: 0.6"/>
      </g>
     </g>
    </g>
    <g id="ytick_20">
     <g id="line2d_41">
      <g>
       <use xlink:href="#m1e5cd22d01" x="20.5625" y="124.674391" style="stroke: #000000; stroke-width: 0.6"/>
      </g>
     </g>
    </g>
    <g id="ytick_21">
     <g id="line2d_42">
      <g>
       <use xlink:href="#m1e5cd22d01" x="20.5625" y="113.582484" style="stroke: #000000; stroke-width: 0.6"/>
      </g>
     </g>
    </g>
    <g id="ytick_22">
     <g id="line2d_43">
      <g>
       <use xlink:href="#m1e5cd22d01" x="20.5625" y="102.490576" style="stroke: #000000; stroke-width: 0.6"/>
      </g>
     </g>
    </g>
    <g id="ytick_23">
     <g id="line2d_44">
      <g>
       <use xlink:href="#m1e5cd22d01" x="20.5625" y="80.306762" style="stroke: #000000; stroke-width: 0.6"/>
      </g>
     </g>
    </g>
    <g id="ytick_24">
     <g id="line2d_45">
      <g>
       <use xlink:href="#m1e5cd22d01" x="20.5625" y="69.214854" style="stroke: #000000; stroke-width: 0.6"/>
      </g>
     </g>
    </g>
    <g id="ytick_25">
     <g id="line2d_46">
      <g>
       <use xlink:href="#m1e5cd22d01" x="20.5625" y="58.122947" style="stroke: #000000; stroke-width: 0.6"/>
      </g>
     </g>
    </g>
    <g id="ytick_26">
     <g id="line2d_47">
      <g>
       <use xlink:href="#m1e5cd22d01" x="20.5625" y="47.031039" style="stroke: #000000; stroke-width: 0.6"/>
      </g>
     </g>
    </g>
    <g id="ytick_27">
     <g id="line2d_48">
      <g>
       <use xlink:href="#m1e5cd22d01" x="20.5625" y="24.847225" style="stroke: #000000; stroke-width: 0.6"/>
      </g>
     </g>
    </g>
    <g id="ytick_28">
     <g id="line2d_49">
      <g>
       <use xlink:href="#m1e5cd22d01" x="20.5625" y="13.755317" style="stroke: #000000; stroke-width: 0.6"/>
      </g>
     </g>
    </g>
   </g>
   <g id="line2d_50">
    <path d="M 24.704806 313.236817 
L 25.735925 299.30655 
L 27.103373 284.608371 
L 28.47082 272.710933 
L 29.639794 264.071301 
L 30.808768 256.479709 
L 32.213892 248.425945 
L 34.303457 238.088319 
L 36.01534 230.730199 
L 38.157765 222.593409 
L 40.011219 216.316994 
L 41.864673 210.612342 
L 43.930748 204.811104 
L 46.87867 197.365656 
L 51.125376 187.990176 
L 54.938244 180.622455 
L 58.723971 174.075069 
L 63.003767 167.413652 
L 66.96226 161.825238 
L 72.839055 154.351694 
L 75.790406 150.909874 
L 80.471638 145.811059 
L 84.049811 142.175551 
L 89.691671 136.840093 
L 95.573429 131.722706 
L 98.003393 129.724738 
L 104.262317 124.853968 
L 110.701231 120.209351 
L 118.858234 114.780268 
L 126.757014 109.936445 
L 135.362559 105.053283 
L 143.151448 100.939367 
L 150.468915 97.305963 
L 159.345316 93.163779 
L 165.875567 90.282229 
L 175.130607 86.412757 
L 182.987652 83.305459 
L 194.575818 78.986635 
L 205.181705 75.2789 
L 216.769361 71.46396 
L 230.039217 67.36269 
L 243.817341 63.370575 
L 258.183175 59.462412 
L 272.580131 55.775989 
L 286.642097 52.37327 
L 302.284287 48.793318 
L 321.323012 44.695105 
L 341.187106 40.686986 
L 361.999867 36.745511 
L 383.241773 32.963129 
L 404.977953 29.315465 
L 428.631475 25.573336 
L 434.793127 24.634132 
L 434.793127 24.634132 
" clip-path="url(#p0f52ec7512)" style="fill: none; stroke: #0000ff; stroke-linecap: square"/>
   </g>
   <g id="patch_4">
    <path d="M 20.5625 319.237538 
L 20.5625 7.2 
" style="fill: none; stroke: #000000; stroke-width: 0.8; stroke-linejoin: miter; stroke-linecap: square"/>
   </g>
   <g id="patch_5">
    <path d="M 16.50304 313.236817 
L 442.994893 313.236817 
" style="fill: none; stroke: #000000; stroke-width: 0.8; stroke-linejoin: miter; stroke-linecap: square"/>
   </g>
  </g>
 </g>
 <defs>
  <clipPath id="p0f52ec7512">
   <rect x="16.50304" y="7.2" width="426.491853" height="312.037538"/>
  </clipPath>
 </defs>
</svg>
