<?xml version="1.0" encoding="utf-8" standalone="no"?>
<!DOCTYPE svg PUBLIC "-//W3C//DTD SVG 1.1//EN"
  "http://www.w3.org/Graphics/SVG/1.1/DTD/svg11.dtd">
<svg xmlns:xlink="http://www.w3.org/1999/xlink" width="452.30187pt" height="337.493272pt" viewBox="0 0 452.30187 337.493272" xmlns="http://www.w3.org/2000/svg" version="1.1">
 <metadata>
  <rdf:RDF xmlns:dc="http://purl.org/dc/elements/1.1/" xmlns:cc="http://creativecommons.org/ns#" xmlns:rdf="http://www.w3.org/1999/02/22-rdf-syntax-ns#">
   <cc:Work>
    <dc:type rdf:resource="http://purl.org/dc/dcmitype/StillImage"/>
    <dc:date>2023-02-10T21:05:36.274962</dc:date>
    <dc:format>image/svg+xml</dc:format>
    <dc:creator>
     <cc:Agent>
      <dc:title>Matplotlib v3.5.2, https://matplotlib.org/</dc:title>
     </cc:Agent>
    </dc:creator>
   </cc:Work>
  </rdf:RDF>
 </metadata>
 <defs>
  <style type="text/css">*{stroke-linejoin: round; stroke-linecap: butt}</style>
 </defs>
 <g id="figure_1">
  <g id="patch_1">
   <path d="M 0 337.493272 
L 452.30187 337.493272 
L 452.30187 0 
L 0 0 
L 0 337.493272 
z
" style="fill: none"/>
  </g>
  <g id="axes_1">
   <g id="patch_2">
    <path d="M 15.088355 320.461862 
L 445.10187 320.461862 
L 445.10187 7.2 
L 15.088355 7.2 
L 15.088355 320.461862 
z
" style="fill: none"/>
   </g>
   <g id="patch_3">
    <path d="M 436.832379 13.224267 
L 436.795376 20.304824 
L 436.758372 20.304824 
L 436.684365 20.304824 
L 436.536351 20.304824 
L 436.240323 20.304824 
L 435.648266 20.304824 
L 434.121494 20.304824 
L 433.358108 20.304824 
L 432.976415 20.304824 
L 432.785568 20.304824 
L 432.690145 20.304824 
L 432.594722 18.439737 
L 431.60847 18.439737 
L 429.881524 18.439737 
L 429.018051 18.439737 
L 428.586314 18.439737 
L 428.47838 22.276107 
L 428.370446 22.276107 
L 428.154578 22.276107 
L 426.592084 22.276107 
L 423.67846 22.712579 
L 422.441118 22.712579 
L 420.966364 22.712579 
L 420.228987 22.712579 
L 420.136814 22.712579 
L 420.044642 21.98609 
L 419.860298 21.98609 
L 419.491609 21.98609 
L 418.679229 21.98609 
L 416.148691 21.98609 
L 416.024671 21.98609 
L 415.962661 21.98609 
L 415.900651 23.613384 
L 415.652612 23.613384 
L 415.156533 23.613384 
L 414.164375 23.613384 
L 412.516083 23.613384 
L 412.104011 23.613384 
L 411.897974 23.613384 
L 411.794956 23.613384 
L 411.691938 22.880958 
L 410.867792 22.880958 
L 409.145458 22.880958 
L 407.66105 22.880958 
L 407.598406 22.880958 
L 407.535762 24.553354 
L 407.410473 24.553354 
L 407.159896 24.553354 
L 406.658741 24.553354 
L 405.656431 24.553354 
L 403.950298 24.553354 
L 403.573117 24.553354 
L 403.478821 24.553354 
L 403.384526 28.709854 
L 403.195935 28.709854 
L 402.441571 28.709854 
L 400.932845 28.709854 
L 399.782577 28.709854 
L 399.495011 28.709854 
L 399.351227 28.709854 
L 399.279335 28.709854 
L 399.207444 28.00964 
L 398.63231 28.00964 
L 397.101148 28.00964 
L 396.036629 28.00964 
L 395.4354 28.00964 
L 395.134786 28.00964 
L 395.059632 26.042521 
L 394.984478 26.042521 
L 394.834171 26.042521 
L 393.631713 26.042521 
L 391.324735 26.042521 
L 391.082699 26.042521 
L 390.961681 26.042521 
L 390.901172 26.042521 
L 390.840663 25.296083 
L 390.356591 25.296083 
L 389.388446 25.296083 
L 387.736961 25.296083 
L 386.911219 25.296083 
L 386.808001 25.296083 
L 386.704784 27.092354 
L 386.498348 27.092354 
L 386.085477 27.092354 
L 383.866738 27.092354 
L 382.536486 27.635582 
L 381.095217 27.635582 
L 379.466956 27.635582 
L 378.652825 27.635582 
L 378.449292 27.635582 
L 378.347526 26.881542 
L 378.245759 26.881542 
L 377.838694 26.881542 
L 377.201375 26.881542 
L 375.151748 26.881542 
L 372.663867 27.435194 
L 371.254776 27.435194 
L 370.550231 27.435194 
L 370.197958 27.435194 
L 370.021822 27.435194 
L 369.933754 25.318951 
L 369.845686 25.318951 
L 367.41694 25.318951 
L 366.774429 25.318951 
L 366.144281 25.318951 
L 365.986744 25.318951 
L 365.907975 25.318951 
L 365.829206 28.583009 
L 365.514132 28.583009 
L 364.253835 28.583009 
L 362.936834 28.583009 
L 362.278333 28.583009 
L 361.949083 28.583009 
L 361.784458 28.583009 
L 361.702145 28.583009 
L 361.619833 26.428685 
L 358.979451 26.428685 
L 358.107726 26.428685 
L 357.737183 26.428685 
L 357.551911 26.428685 
L 357.505593 26.428685 
L 357.459275 29.788216 
L 357.366639 29.788216 
L 356.625552 29.788216 
L 354.4561 29.788216 
L 353.661221 29.788216 
L 353.462502 29.788216 
L 353.363142 29.788216 
L 353.263782 31.823251 
L 352.866343 31.823251 
L 351.276587 31.823251 
L 350.15147 31.823251 
L 349.588912 31.823251 
L 349.307633 31.823251 
L 349.166993 31.823251 
L 349.096673 31.055228 
L 349.026354 31.055228 
L 347.83018 31.055228 
L 346.321378 31.055228 
L 345.566977 31.055228 
L 345.189777 31.055228 
L 345.001177 31.055228 
L 344.906876 33.159575 
L 344.812576 33.159575 
L 343.984407 33.159575 
L 340.968797 33.159575 
L 340.848002 33.159575 
L 340.787605 33.159575 
L 340.727207 33.854112 
L 340.485617 33.854112 
L 340.002437 33.854112 
L 339.036078 33.854112 
L 337.892343 33.854112 
L 337.204386 33.854112 
L 336.860407 33.854112 
L 336.688418 33.854112 
L 336.602423 33.854112 
L 336.516429 33.082447 
L 335.140515 33.082447 
L 332.565873 33.082447 
L 332.422127 33.082447 
L 332.350254 33.794713 
L 332.27838 33.794713 
L 331.990888 33.794713 
L 331.415902 33.794713 
L 330.265932 33.794713 
L 329.624496 33.794713 
L 328.933026 33.794713 
L 328.587291 33.794713 
L 328.414424 33.794713 
L 328.32799 33.794713 
L 328.241556 34.526493 
L 326.858617 34.526493 
L 325.38757 34.526493 
L 324.652047 34.526493 
L 324.284286 34.526493 
L 324.100405 34.526493 
L 324.008464 36.825188 
L 323.916524 36.825188 
L 323.00206 36.825188 
L 321.412513 36.825188 
L 320.61774 36.825188 
L 320.220353 36.825188 
L 320.02166 36.825188 
L 319.922313 36.825188 
L 319.822967 37.620264 
L 319.069756 37.620264 
L 317.324719 37.620264 
L 316.4522 37.620264 
L 316.01594 37.620264 
L 315.797811 37.620264 
L 315.688746 36.847282 
L 315.579681 36.847282 
L 314.430565 36.847282 
L 312.920253 36.847282 
L 311.699972 36.847282 
L 311.547437 36.847282 
L 311.47117 34.438064 
L 311.394902 34.438064 
L 311.089832 34.438064 
L 310.479691 34.438064 
L 307.452074 34.438064 
L 307.399836 34.438064 
L 307.373717 34.438064 
L 307.347598 38.508238 
L 307.243121 38.508238 
L 307.034169 38.508238 
L 306.616264 38.508238 
L 304.342354 38.508238 
L 303.419367 38.508238 
L 303.188621 38.508238 
L 303.130934 39.375902 
L 303.073248 39.375902 
L 302.957874 39.375902 
L 302.496381 39.375902 
L 300.517963 39.375902 
L 299.714465 39.375902 
L 299.312716 39.375902 
L 299.111841 39.375902 
L 299.011404 39.375902 
L 298.910967 47.018604 
L 297.303971 47.018604 
L 296.056721 47.018604 
L 295.173644 47.018604 
L 294.952874 47.018604 
L 294.842489 47.018604 
L 294.732105 46.330751 
L 294.290566 46.330751 
L 292.524411 46.330751 
L 291.481741 46.330751 
L 290.919466 46.330751 
L 290.778897 46.330751 
L 290.708613 46.330751 
L 290.638328 43.881492 
L 290.35719 43.881492 
L 289.232639 43.881492 
L 287.989214 43.881492 
L 286.798107 43.881492 
L 286.500331 43.881492 
L 286.425887 43.122007 
L 286.351442 43.122007 
L 286.202554 43.122007 
L 285.607001 43.122007 
L 282.863896 43.122007 
L 282.454332 43.122007 
L 282.35194 43.122007 
L 282.300745 51.318207 
L 282.249549 51.318207 
L 282.044767 51.318207 
L 281.225637 51.318207 
L 279.957232 51.318207 
L 278.398945 51.318207 
L 278.204159 51.318207 
L 278.106766 56.132174 
L 278.009373 56.132174 
L 277.619801 56.132174 
L 276.840657 56.132174 
L 275.309832 56.132174 
L 274.269376 56.132174 
L 274.009262 56.132174 
L 273.944233 53.682988 
L 273.879205 53.682988 
L 273.749148 53.682988 
L 273.228919 53.682988 
L 271.491446 53.682988 
L 270.622709 53.682988 
L 270.18834 53.682988 
L 269.971156 53.682988 
L 269.862564 53.682988 
L 269.753972 53.03814 
L 268.72763 53.03814 
L 266.945633 53.03814 
L 265.909916 53.03814 
L 265.650987 53.03814 
L 265.586254 54.290957 
L 265.521522 54.290957 
L 265.392057 54.290957 
L 264.874199 54.290957 
L 263.187657 54.290957 
L 261.965029 54.290957 
L 261.659372 54.290957 
L 261.506543 54.290957 
L 261.430129 54.290957 
L 261.353715 51.680565 
L 260.742401 51.680565 
L 258.123596 51.680565 
L 257.611333 51.680565 
L 257.355202 51.680565 
L 257.291169 51.680565 
L 257.227137 52.953883 
L 257.099071 52.953883 
L 256.074547 52.953883 
L 254.959959 52.953883 
L 253.554612 52.953883 
L 253.203275 52.953883 
L 253.11544 52.953883 
L 253.027606 54.273504 
L 252.851938 54.273504 
L 252.149264 54.273504 
L 250.215031 54.273504 
L 249.552037 54.273504 
L 249.22054 54.273504 
L 249.054792 54.273504 
L 248.971917 54.273504 
L 248.889043 55.641999 
L 247.563055 55.641999 
L 244.842673 55.641999 
L 244.771973 55.641999 
L 244.736622 55.641999 
L 244.718947 55.641999 
L 244.701272 61.264184 
L 244.55987 61.264184 
L 244.277067 61.264184 
L 241.494908 61.264184 
L 241.001677 61.264184 
L 240.755061 61.264184 
L 240.631753 61.264184 
L 240.570099 61.264184 
L 240.508445 58.536893 
L 239.521981 58.536893 
L 236.560971 58.536893 
L 236.428993 58.536893 
L 236.363004 58.536893 
L 236.297015 60.069484 
L 236.033059 60.069484 
L 235.505147 60.069484 
L 234.449324 60.069484 
L 232.696802 60.069484 
L 232.330695 60.069484 
L 232.239168 60.069484 
L 232.193405 60.069484 
L 232.170523 59.436293 
L 232.147641 59.436293 
L 231.964588 59.436293 
L 229.943602 59.436293 
L 228.146615 59.436293 
L 228.034303 59.436293 
L 227.921991 56.504721 
L 227.697368 56.504721 
L 227.248121 56.504721 
L 226.349628 56.504721 
L 225.900602 56.504721 
L 224.083839 56.504721 
L 223.856743 56.504721 
L 223.743196 55.770881 
L 223.629648 55.770881 
L 223.175457 55.770881 
L 222.267076 55.770881 
L 220.93067 55.770881 
L 219.730642 55.770881 
L 219.655641 55.770881 
L 219.580639 64.482774 
L 219.430636 64.482774 
L 219.130629 64.482774 
L 218.530615 64.482774 
L 216.196261 64.482774 
L 215.815437 64.482774 
L 215.625025 64.482774 
L 215.529819 64.482774 
L 215.482216 64.482774 
L 215.458415 73.573445 
L 215.434613 73.573445 
L 211.944898 73.573445 
L 211.310222 73.573445 
L 211.230349 70.695448 
L 211.150477 70.695448 
L 210.990731 70.695448 
L 210.671239 70.695448 
L 210.032256 70.695448 
L 208.75429 70.695448 
L 206.86337 70.217412 
L 204.757424 70.217412 
L 203.519604 70.217412 
L 203.210149 70.217412 
L 203.055422 70.217412 
L 202.978058 70.217412 
L 202.900695 67.127507 
L 202.281785 67.127507 
L 199.070413 67.127507 
L 198.851926 67.127507 
L 198.797304 67.127507 
L 198.742682 74.495634 
L 198.633438 74.495634 
L 198.196463 74.495634 
L 197.322512 74.495634 
L 195.648081 74.495634 
L 194.665337 74.495634 
L 194.603915 74.495634 
L 194.542494 71.359349 
L 194.419651 71.359349 
L 194.173965 71.359349 
L 193.682593 71.359349 
L 192.516292 71.359349 
L 191.377926 71.359349 
L 190.808743 71.359349 
L 190.524151 71.359349 
L 190.453003 71.359349 
L 190.381855 73.633964 
L 190.239559 73.633964 
L 188.466653 73.633964 
L 186.54043 73.633964 
L 186.299652 73.633964 
L 186.179263 76.025226 
L 186.058874 76.025226 
L 185.577318 76.025226 
L 184.614207 76.025226 
L 184.380881 76.025226 
L 181.60353 75.611967 
L 178.248192 75.611967 
L 177.991019 75.611967 
L 177.926725 75.611967 
L 177.894579 75.611967 
L 177.878505 78.185946 
L 177.862432 78.185946 
L 177.733845 78.185946 
L 174.761372 78.185946 
L 174.094024 78.185946 
L 173.76035 78.185946 
L 173.718641 78.185946 
L 173.676932 80.902924 
L 173.593513 80.902924 
L 173.426676 80.902924 
L 171.092751 80.902924 
L 170.08529 80.902924 
L 169.58156 80.902924 
L 169.518594 77.412055 
L 169.455628 77.412055 
L 169.329695 77.412055 
L 169.07783 77.412055 
L 166.340024 77.412055 
L 165.780152 77.412055 
L 165.500216 77.412055 
L 165.360248 77.412055 
L 165.325256 86.816345 
L 165.290264 86.816345 
L 165.22028 86.816345 
L 163.303762 86.816345 
L 161.67519 86.816345 
L 161.268047 86.816345 
L 161.166261 83.293104 
L 161.064476 83.293104 
L 160.860904 83.293104 
L 160.046618 83.293104 
L 158.277343 83.293104 
L 157.052401 83.293104 
L 156.975842 86.509302 
L 156.899283 86.509302 
L 156.746165 86.509302 
L 156.43993 86.509302 
L 155.827459 86.509302 
L 153.59808 86.509302 
L 151.95449 86.340924 
L 150.265259 86.340924 
L 148.709417 86.340924 
L 148.644457 104.720367 
L 148.579496 104.720367 
L 148.449574 104.720367 
L 148.18973 104.720367 
L 147.670042 104.720367 
L 146.630667 104.720367 
L 144.194339 105.168344 
L 142.640277 105.168344 
L 141.229397 105.168344 
L 140.523956 105.168344 
L 140.347596 105.168344 
L 140.259416 101.671381 
L 140.171236 101.671381 
L 139.818516 101.671381 
L 137.117064 101.671381 
L 136.423411 101.671381 
L 132.506521 102.039616 
L 132.102171 102.039616 
L 132.001083 102.039616 
L 131.950539 102.039616 
L 131.899996 98.15332 
L 131.697821 98.15332 
L 130.88912 98.15332 
L 128.712825 98.15332 
L 127.578579 98.410291 
L 125.555409 98.410291 
L 124.335812 98.410291 
L 123.726013 98.410291 
L 123.649788 98.410291 
L 123.573564 107.9682 
L 123.421114 107.9682 
L 123.116215 107.9682 
L 121.651036 107.9682 
L 119.796033 107.9682 
L 119.441053 107.9682 
L 119.352308 113.515741 
L 119.263563 113.515741 
L 119.086073 113.515741 
L 118.376113 113.515741 
L 116.956193 113.515741 
L 115.325854 113.515741 
L 115.244776 113.515741 
L 115.163697 114.506046 
L 115.001541 114.506046 
L 114.677229 114.506046 
L 114.028605 114.506046 
L 112.731356 114.506046 
L 111.162397 114.506046 
L 111.064337 120.893251 
L 110.966277 120.893251 
L 110.770158 120.893251 
L 110.377918 120.893251 
L 109.593438 120.893251 
L 107.870383 120.893251 
L 107.378342 120.893251 
L 107.132321 120.893251 
L 107.009311 120.893251 
L 106.947806 120.893251 
L 106.8863 116.783747 
L 105.902218 116.783747 
L 105.42726 116.783747 
L 103.583825 116.783747 
L 103.122966 116.783747 
L 102.892536 116.783747 
L 102.777322 116.783747 
L 102.662107 118.102416 
L 101.740389 118.102416 
L 100.283745 118.102416 
L 98.8377 118.102416 
L 98.656944 118.102416 
L 98.566566 118.102416 
L 98.476188 125.753953 
L 98.114677 125.753953 
L 97.391654 125.753953 
L 95.563786 125.753953 
L 94.818408 125.753953 
L 94.44572 125.753953 
L 94.399134 125.753953 
L 94.352548 121.205167 
L 94.259376 121.205167 
L 94.073031 121.205167 
L 92.843654 121.205167 
L 91.191488 121.205167 
L 90.365406 121.205167 
L 90.262145 121.205167 
L 90.158885 130.007068 
L 89.952364 130.007068 
L 89.539323 130.007068 
L 86.811334 130.007068 
L 86.008016 130.007068 
L 85.957808 139.982556 
L 85.907601 139.982556 
L 85.807186 139.982556 
L 85.606356 139.982556 
L 85.204697 139.982556 
L 83.191125 139.982556 
L 82.367711 139.982556 
L 81.956005 139.982556 
L 81.853078 139.982556 
L 81.801615 143.429236 
L 81.750152 143.429236 
L 81.544298 143.429236 
L 80.148693 143.429236 
L 78.776435 143.429236 
L 78.090307 143.429236 
L 77.747242 143.429236 
L 77.661476 143.429236 
L 77.57571 138.840461 
L 77.404178 138.840461 
L 75.910791 138.840461 
L 73.733955 138.840461 
L 73.580646 138.840461 
L 73.503992 138.840461 
L 73.427337 142.766413 
L 73.12072 142.766413 
L 72.507484 142.766413 
L 71.281013 142.766413 
L 69.992597 142.766413 
L 69.34839 142.766413 
L 69.267864 157.529291 
L 69.187338 157.529291 
L 69.026286 157.529291 
L 68.704182 157.529291 
L 66.087731 157.529291 
L 65.914579 157.529291 
L 65.20239 157.529291 
L 65.113366 152.973889 
L 65.024343 152.973889 
L 64.846295 152.973889 
L 64.4902 152.973889 
L 63.065822 152.973889 
L 61.089055 152.973889 
L 60.981846 152.973889 
L 60.928242 172.15157 
L 60.874637 172.15157 
L 60.66022 172.15157 
L 60.231384 172.15157 
L 59.373713 172.15157 
L 57.190245 172.15157 
L 56.975284 172.15157 
L 56.867803 172.15157 
L 56.760323 182.204387 
L 56.3304 182.204387 
L 55.470554 182.204387 
L 53.750863 182.204387 
L 53.168297 182.204387 
L 52.765657 182.204387 
L 52.664997 182.204387 
L 52.564337 179.221683 
L 52.363017 179.221683 
L 51.557737 179.221683 
L 49.947176 179.221683 
L 49.124813 179.221683 
L 48.713631 179.221683 
L 48.50804 179.221683 
L 48.456642 179.221683 
L 48.405245 193.803791 
L 48.302449 193.803791 
L 46.359758 193.803791 
L 44.94994 193.803791 
L 44.463269 193.803791 
L 44.341601 193.803791 
L 44.219933 191.947887 
L 43.976598 191.947887 
L 43.003256 191.947887 
L 41.056571 191.947887 
L 40.776977 191.947887 
L 40.38005 191.947887 
L 40.181587 191.947887 
L 40.082355 191.947887 
L 39.983124 217.0026 
L 39.18927 217.0026 
L 37.601562 217.0026 
L 36.280769 217.0026 
L 35.950571 217.0026 
L 35.868021 221.642361 
L 35.785472 221.642361 
L 35.620373 221.642361 
L 34.959976 221.642361 
L 33.768124 221.642361 
L 32.508875 221.642361 
L 31.837736 221.642361 
L 31.753844 221.642361 
L 31.669951 230.921885 
L 31.502167 230.921885 
L 31.166597 230.921885 
L 29.824319 230.921885 
L 28.255698 230.921885 
L 27.592319 230.921885 
L 27.509397 203.083315 
L 27.426475 203.083315 
L 27.26063 203.083315 
L 26.928941 203.083315 
L 25.602184 203.083315 
L 23.357846 203.083315 
L 23.357846 314.437595 
L 23.841925 307.537942 
L 24.326005 301.320723 
L 25.294164 290.472356 
L 26.216386 281.631816 
L 27.138607 273.881837 
L 28.23392 265.768038 
L 29.329233 258.582104 
L 30.651417 250.876539 
L 31.973601 244.012577 
L 32.984181 239.228883 
L 34.858314 231.218619 
L 36.732446 224.11399 
L 37.278804 222.185337 
L 38.971949 216.558473 
L 42.437823 206.405454 
L 43.853539 202.687598 
L 46.761048 195.678647 
L 48.974635 190.821403 
L 49.907739 188.881175 
L 52.420249 183.936109 
L 54.695688 179.770141 
L 55.57925 178.224028 
L 57.641682 174.756378 
L 60.906327 169.630521 
L 63.389296 165.993734 
L 65.638442 162.871596 
L 66.09975 162.249945 
L 68.597821 158.986293 
L 70.708386 156.355002 
L 73.304914 153.261904 
L 75.993867 150.211335 
L 78.026852 147.999319 
L 80.383913 145.52841 
L 80.671668 145.233296 
L 84.569491 141.366457 
L 86.256665 139.763681 
L 87.59517 138.520556 
L 90.794481 135.645107 
L 92.571557 134.102927 
L 93.0847 133.664556 
L 96.962525 130.446995 
L 97.987051 129.623693 
L 99.998129 128.038277 
L 102.225192 126.327987 
L 104.116614 124.911095 
L 105.464782 123.920292 
L 108.667254 121.627442 
L 110.119517 120.614591 
L 113.175391 118.535145 
L 115.333908 117.106676 
L 116.866883 116.111522 
L 119.465106 114.459983 
L 120.35021 113.90713 
L 123.032829 112.260591 
L 125.234176 110.940912 
L 127.891819 109.383713 
L 129.271288 108.590381 
L 132.301646 106.881973 
L 132.513358 106.764333 
L 135.325137 105.22245 
L 137.994463 103.79284 
L 139.059366 103.231454 
L 140.975102 102.233974 
L 143.298866 101.044892 
L 145.962892 99.708786 
L 148.911215 98.262438 
L 150.325933 97.580055 
L 152.833519 96.388425 
L 153.964876 95.858093 
L 157.269195 94.334284 
L 158.135638 93.940752 
L 161.116991 92.605144 
L 162.203826 92.125223 
L 164.17218 91.265254 
L 165.945195 90.500564 
L 169.191852 89.123949 
L 170.077479 88.753604 
L 173.810982 87.21589 
L 174.464242 86.950654 
L 176.251358 86.230712 
L 179.996465 84.748196 
L 180.392393 84.593489 
L 182.35641 83.831632 
L 184.523504 83.001569 
L 188.253091 81.598174 
L 188.898615 81.358418 
L 191.087595 80.552139 
L 194.083398 79.465163 
L 195.642914 78.906666 
L 198.624696 77.852431 
L 200.018353 77.365684 
L 202.559875 76.487617 
L 205.016582 75.650344 
L 206.683656 75.088467 
L 208.29468 74.550207 
L 211.199529 73.591155 
L 212.698651 73.101872 
L 215.072751 72.334715 
L 217.457602 71.573389 
L 217.849648 71.449111 
L 221.638746 70.260462 
L 223.102829 69.807125 
L 224.722108 69.309507 
L 226.13971 68.877075 
L 228.439963 68.181657 
L 231.114891 67.382517 
L 232.965791 66.835439 
L 236.173308 65.898502 
L 237.544804 65.502099 
L 239.698463 64.884624 
L 241.758803 64.299523 
L 244.512064 63.526043 
L 244.672399 63.481291 
L 247.531644 62.688537 
L 250.306943 61.928495 
L 251.624755 61.57079 
L 253.376601 61.098398 
L 256.224842 60.33785 
L 257.257827 60.064275 
L 260.387757 59.242535 
L 262.410982 58.717008 
L 264.491388 58.181166 
L 267.043377 57.530033 
L 267.975926 57.293767 
L 269.802265 56.83361 
L 272.506319 56.158427 
L 274.982005 55.546557 
L 275.883491 55.325223 
L 278.25735 54.746087 
L 281.396399 53.988368 
L 283.913494 53.387303 
L 284.286222 53.298784 
L 286.466624 52.783444 
L 289.055566 52.176976 
L 290.918822 51.744092 
L 294.372207 50.949571 
L 295.018414 50.802005 
L 297.230956 50.299364 
L 299.254411 49.843168 
L 301.268055 49.392445 
L 304.111466 48.76144 
L 305.918816 48.363621 
L 308.727275 47.750395 
L 310.728828 47.316976 
L 313.007878 46.827075 
L 314.49785 46.508843 
L 315.651325 46.263582 
L 317.599509 45.851502 
L 321.514045 45.031571 
L 323.24949 44.671459 
L 324.644828 44.383408 
L 325.99298 44.106345 
L 328.395243 43.615653 
L 331.294399 43.028515 
L 333.031711 42.679282 
L 335.547685 42.176935 
L 337.095334 41.869907 
L 338.572193 41.578314 
L 340.762128 41.148402 
L 342.367505 40.835102 
L 346.390657 40.056743 
L 346.470249 40.041441 
L 349.584747 39.445568 
L 351.865807 39.012703 
L 352.759417 38.843935 
L 355.216242 38.382259 
L 358.063667 37.851387 
L 359.465102 37.59174 
L 362.458743 37.040665 
L 364.941582 36.587254 
L 367.04222 36.206174 
L 369.168034 35.822863 
L 369.556735 35.753027 
L 372.303305 35.261762 
L 374.179593 34.928352 
L 377.07861 34.416655 
L 378.132533 34.231657 
L 381.067696 33.719289 
L 383.285886 33.334826 
L 385.505724 32.952415 
L 387.093319 32.680339 
L 388.738685 32.399599 
L 391.001697 32.015508 
L 393.028311 31.673519 
L 396.029897 31.170396 
L 396.820018 31.038622 
L 399.495965 30.594378 
L 401.636415 30.241277 
L 403.409143 29.950331 
L 406.150409 29.503058 
L 408.704055 29.089239 
L 409.421955 28.973391 
L 411.30641 28.670308 
L 414.716507 28.125534 
L 415.572671 27.989497 
L 418.000675 27.6053 
L 421.188206 27.104455 
L 422.598535 26.884121 
L 423.421539 26.755899 
L 425.889404 26.372973 
L 427.953225 26.054521 
L 431.233477 25.551663 
L 433.018648 25.279679 
L 434.330924 25.080491 
L 436.832379 24.702537 
z
" clip-path="url(#pb637e68e19)" style="fill: #ff0000; opacity: 0.5"/>
   </g>
   <g id="matplotlib.axis_1">
    <g id="xtick_1">
     <g id="line2d_1">
      <defs>
       <path id="ma8cd912b67" d="M 0 0 
L 0 3.5 
" style="stroke: #000000; stroke-width: 0.8"/>
      </defs>
      <g>
       <use xlink:href="#ma8cd912b67" x="19.181335" y="314.437595" style="stroke: #000000; stroke-width: 0.8"/>
      </g>
     </g>
    </g>
    <g id="xtick_2">
     <g id="line2d_2">
      <g>
       <use xlink:href="#ma8cd912b67" x="102.711544" y="314.437595" style="stroke: #000000; stroke-width: 0.8"/>
      </g>
     </g>
     <g id="text_1">
      <!-- $\mathdefault{20}$ -->
      <g transform="translate(97.730209 328.356094)scale(0.1 -0.1)">
       <defs>
        <path id="CMR17-32" d="M 2669 990 
L 2554 990 
C 2490 537 2438 460 2413 422 
C 2381 371 1920 371 1830 371 
L 602 371 
C 832 620 1280 1073 1824 1596 
C 2214 1966 2669 2400 2669 3033 
C 2669 3788 2067 4224 1395 4224 
C 691 4224 262 3603 262 3027 
C 262 2777 448 2745 525 2745 
C 589 2745 781 2783 781 3007 
C 781 3206 614 3264 525 3264 
C 486 3264 448 3257 422 3244 
C 544 3788 915 4057 1306 4057 
C 1862 4057 2227 3616 2227 3033 
C 2227 2477 1901 1998 1536 1583 
L 262 147 
L 262 0 
L 2515 0 
L 2669 990 
z
" transform="scale(0.015625)"/>
        <path id="CMR17-30" d="M 2688 2038 
C 2688 2430 2682 3099 2413 3613 
C 2176 4063 1798 4224 1466 4224 
C 1158 4224 768 4082 525 3620 
C 269 3137 243 2539 243 2038 
C 243 1671 250 1112 448 623 
C 723 -39 1216 -128 1466 -128 
C 1760 -128 2208 -7 2470 604 
C 2662 1048 2688 1568 2688 2038 
z
M 1466 -26 
C 1056 -26 813 328 723 816 
C 653 1196 653 1749 653 2109 
C 653 2604 653 3015 736 3407 
C 858 3954 1216 4121 1466 4121 
C 1728 4121 2067 3947 2189 3420 
C 2272 3054 2278 2623 2278 2109 
C 2278 1691 2278 1176 2202 797 
C 2067 96 1690 -26 1466 -26 
z
" transform="scale(0.015625)"/>
       </defs>
       <use xlink:href="#CMR17-32" transform="scale(0.996264)"/>
       <use xlink:href="#CMR17-30" transform="translate(45.690477 0)scale(0.996264)"/>
      </g>
     </g>
    </g>
    <g id="xtick_3">
     <g id="line2d_3">
      <g>
       <use xlink:href="#ma8cd912b67" x="186.241753" y="314.437595" style="stroke: #000000; stroke-width: 0.8"/>
      </g>
     </g>
     <g id="text_2">
      <!-- $\mathdefault{40}$ -->
      <g transform="translate(181.260418 328.356094)scale(0.1 -0.1)">
       <defs>
        <path id="CMR17-34" d="M 2150 4147 
C 2150 4281 2144 4288 2029 4288 
L 128 1254 
L 128 1088 
L 1779 1088 
L 1779 460 
C 1779 230 1766 166 1318 166 
L 1197 166 
L 1197 0 
C 1402 12 1747 12 1965 12 
C 2182 12 2528 12 2733 0 
L 2733 166 
L 2611 166 
C 2163 166 2150 230 2150 460 
L 2150 1088 
L 2803 1088 
L 2803 1254 
L 2150 1254 
L 2150 4147 
z
M 1798 3723 
L 1798 1254 
L 256 1254 
L 1798 3723 
z
" transform="scale(0.015625)"/>
       </defs>
       <use xlink:href="#CMR17-34" transform="scale(0.996264)"/>
       <use xlink:href="#CMR17-30" transform="translate(45.690477 0)scale(0.996264)"/>
      </g>
     </g>
    </g>
    <g id="xtick_4">
     <g id="line2d_4">
      <g>
       <use xlink:href="#ma8cd912b67" x="269.771962" y="314.437595" style="stroke: #000000; stroke-width: 0.8"/>
      </g>
     </g>
     <g id="text_3">
      <!-- $\mathdefault{60}$ -->
      <g transform="translate(264.790626 328.356094)scale(0.1 -0.1)">
       <defs>
        <path id="CMR17-36" d="M 678 2198 
C 678 3712 1395 4076 1811 4076 
C 1946 4076 2272 4049 2400 3782 
C 2298 3782 2106 3782 2106 3558 
C 2106 3385 2246 3328 2336 3328 
C 2394 3328 2566 3353 2566 3571 
C 2566 3987 2246 4224 1805 4224 
C 1043 4224 243 3411 243 2011 
C 243 257 966 -128 1478 -128 
C 2099 -128 2688 431 2688 1295 
C 2688 2101 2170 2688 1517 2688 
C 1126 2688 838 2430 678 1979 
L 678 2198 
z
M 1478 25 
C 691 25 691 1212 691 1450 
C 691 1914 909 2585 1504 2585 
C 1613 2585 1926 2585 2138 2140 
C 2253 1889 2253 1624 2253 1302 
C 2253 954 2253 696 2118 438 
C 1978 173 1773 25 1478 25 
z
" transform="scale(0.015625)"/>
       </defs>
       <use xlink:href="#CMR17-36" transform="scale(0.996264)"/>
       <use xlink:href="#CMR17-30" transform="translate(45.690477 0)scale(0.996264)"/>
      </g>
     </g>
    </g>
    <g id="xtick_5">
     <g id="line2d_5">
      <g>
       <use xlink:href="#ma8cd912b67" x="353.302171" y="314.437595" style="stroke: #000000; stroke-width: 0.8"/>
      </g>
     </g>
     <g id="text_4">
      <!-- $\mathdefault{80}$ -->
      <g transform="translate(348.320835 328.356094)scale(0.1 -0.1)">
       <defs>
        <path id="CMR17-38" d="M 1741 2289 
C 2144 2494 2554 2803 2554 3298 
C 2554 3884 1990 4224 1472 4224 
C 890 4224 378 3800 378 3215 
C 378 3054 416 2777 666 2533 
C 730 2469 998 2276 1171 2154 
C 883 2006 211 1652 211 945 
C 211 282 838 -128 1459 -128 
C 2144 -128 2720 366 2720 1022 
C 2720 1607 2330 1877 2074 2051 
L 1741 2289 
z
M 902 2855 
C 851 2887 595 3086 595 3388 
C 595 3781 998 4076 1459 4076 
C 1965 4076 2336 3716 2336 3298 
C 2336 2700 1670 2359 1638 2359 
C 1632 2359 1626 2359 1574 2398 
L 902 2855 
z
M 2080 1536 
C 2176 1466 2483 1253 2483 861 
C 2483 385 2010 25 1472 25 
C 890 25 448 443 448 951 
C 448 1459 838 1884 1280 2083 
L 2080 1536 
z
" transform="scale(0.015625)"/>
       </defs>
       <use xlink:href="#CMR17-38" transform="scale(0.996264)"/>
       <use xlink:href="#CMR17-30" transform="translate(45.690477 0)scale(0.996264)"/>
      </g>
     </g>
    </g>
    <g id="xtick_6">
     <g id="line2d_6">
      <g>
       <use xlink:href="#ma8cd912b67" x="436.832379" y="314.437595" style="stroke: #000000; stroke-width: 0.8"/>
      </g>
     </g>
     <g id="text_5">
      <!-- $\mathdefault{100}$ -->
      <g transform="translate(429.360376 328.356094)scale(0.1 -0.1)">
       <defs>
        <path id="CMR17-31" d="M 1702 4083 
C 1702 4217 1696 4224 1606 4224 
C 1357 3927 979 3833 621 3820 
C 602 3820 570 3820 563 3808 
C 557 3795 557 3782 557 3648 
C 755 3648 1088 3686 1344 3839 
L 1344 467 
C 1344 243 1331 166 781 166 
L 589 166 
L 589 0 
C 896 6 1216 12 1523 12 
C 1830 12 2150 6 2458 0 
L 2458 166 
L 2266 166 
C 1715 166 1702 236 1702 467 
L 1702 4083 
z
" transform="scale(0.015625)"/>
       </defs>
       <use xlink:href="#CMR17-31" transform="scale(0.996264)"/>
       <use xlink:href="#CMR17-30" transform="translate(45.690477 0)scale(0.996264)"/>
       <use xlink:href="#CMR17-30" transform="translate(91.380954 0)scale(0.996264)"/>
      </g>
     </g>
    </g>
    <g id="xtick_7">
     <g id="line2d_7">
      <defs>
       <path id="m907512517f" d="M 0 0 
L 0 2 
" style="stroke: #000000; stroke-width: 0.6"/>
      </defs>
      <g>
       <use xlink:href="#m907512517f" x="40.063887" y="314.437595" style="stroke: #000000; stroke-width: 0.6"/>
      </g>
     </g>
    </g>
    <g id="xtick_8">
     <g id="line2d_8">
      <g>
       <use xlink:href="#m907512517f" x="60.94644" y="314.437595" style="stroke: #000000; stroke-width: 0.6"/>
      </g>
     </g>
    </g>
    <g id="xtick_9">
     <g id="line2d_9">
      <g>
       <use xlink:href="#m907512517f" x="81.828992" y="314.437595" style="stroke: #000000; stroke-width: 0.6"/>
      </g>
     </g>
    </g>
    <g id="xtick_10">
     <g id="line2d_10">
      <g>
       <use xlink:href="#m907512517f" x="123.594096" y="314.437595" style="stroke: #000000; stroke-width: 0.6"/>
      </g>
     </g>
    </g>
    <g id="xtick_11">
     <g id="line2d_11">
      <g>
       <use xlink:href="#m907512517f" x="144.476648" y="314.437595" style="stroke: #000000; stroke-width: 0.6"/>
      </g>
     </g>
    </g>
    <g id="xtick_12">
     <g id="line2d_12">
      <g>
       <use xlink:href="#m907512517f" x="165.359201" y="314.437595" style="stroke: #000000; stroke-width: 0.6"/>
      </g>
     </g>
    </g>
    <g id="xtick_13">
     <g id="line2d_13">
      <g>
       <use xlink:href="#m907512517f" x="207.124305" y="314.437595" style="stroke: #000000; stroke-width: 0.6"/>
      </g>
     </g>
    </g>
    <g id="xtick_14">
     <g id="line2d_14">
      <g>
       <use xlink:href="#m907512517f" x="228.006857" y="314.437595" style="stroke: #000000; stroke-width: 0.6"/>
      </g>
     </g>
    </g>
    <g id="xtick_15">
     <g id="line2d_15">
      <g>
       <use xlink:href="#m907512517f" x="248.88941" y="314.437595" style="stroke: #000000; stroke-width: 0.6"/>
      </g>
     </g>
    </g>
    <g id="xtick_16">
     <g id="line2d_16">
      <g>
       <use xlink:href="#m907512517f" x="290.654514" y="314.437595" style="stroke: #000000; stroke-width: 0.6"/>
      </g>
     </g>
    </g>
    <g id="xtick_17">
     <g id="line2d_17">
      <g>
       <use xlink:href="#m907512517f" x="311.537066" y="314.437595" style="stroke: #000000; stroke-width: 0.6"/>
      </g>
     </g>
    </g>
    <g id="xtick_18">
     <g id="line2d_18">
      <g>
       <use xlink:href="#m907512517f" x="332.419618" y="314.437595" style="stroke: #000000; stroke-width: 0.6"/>
      </g>
     </g>
    </g>
    <g id="xtick_19">
     <g id="line2d_19">
      <g>
       <use xlink:href="#m907512517f" x="374.184723" y="314.437595" style="stroke: #000000; stroke-width: 0.6"/>
      </g>
     </g>
    </g>
    <g id="xtick_20">
     <g id="line2d_20">
      <g>
       <use xlink:href="#m907512517f" x="395.067275" y="314.437595" style="stroke: #000000; stroke-width: 0.6"/>
      </g>
     </g>
    </g>
    <g id="xtick_21">
     <g id="line2d_21">
      <g>
       <use xlink:href="#m907512517f" x="415.949827" y="314.437595" style="stroke: #000000; stroke-width: 0.6"/>
      </g>
     </g>
    </g>
   </g>
   <g id="matplotlib.axis_2">
    <g id="ytick_1">
     <g id="line2d_22">
      <defs>
       <path id="m556109d9d4" d="M 0 0 
L -3.5 0 
" style="stroke: #000000; stroke-width: 0.8"/>
      </defs>
      <g>
       <use xlink:href="#m556109d9d4" x="19.181335" y="314.437595" style="stroke: #000000; stroke-width: 0.8"/>
      </g>
     </g>
    </g>
    <g id="ytick_2">
     <g id="line2d_23">
      <g>
       <use xlink:href="#m556109d9d4" x="19.181335" y="258.760455" style="stroke: #000000; stroke-width: 0.8"/>
      </g>
     </g>
     <g id="text_6">
      <!-- $\mathdefault{1}$ -->
      <g transform="translate(7.2 262.219704)scale(0.1 -0.1)">
       <use xlink:href="#CMR17-31" transform="scale(0.996264)"/>
      </g>
     </g>
    </g>
    <g id="ytick_3">
     <g id="line2d_24">
      <g>
       <use xlink:href="#m556109d9d4" x="19.181335" y="203.083315" style="stroke: #000000; stroke-width: 0.8"/>
      </g>
     </g>
     <g id="text_7">
      <!-- $\mathdefault{2}$ -->
      <g transform="translate(7.2 206.542564)scale(0.1 -0.1)">
       <use xlink:href="#CMR17-32" transform="scale(0.996264)"/>
      </g>
     </g>
    </g>
    <g id="ytick_4">
     <g id="line2d_25">
      <g>
       <use xlink:href="#m556109d9d4" x="19.181335" y="147.406175" style="stroke: #000000; stroke-width: 0.8"/>
      </g>
     </g>
     <g id="text_8">
      <!-- $\mathdefault{3}$ -->
      <g transform="translate(7.2 150.865424)scale(0.1 -0.1)">
       <defs>
        <path id="CMR17-33" d="M 1414 2176 
C 1984 2176 2234 1673 2234 1094 
C 2234 322 1824 25 1453 25 
C 1114 25 563 193 390 691 
C 422 678 454 678 486 678 
C 640 678 755 780 755 947 
C 755 1132 614 1216 486 1216 
C 378 1216 211 1164 211 927 
C 211 335 787 -128 1466 -128 
C 2176 -128 2720 432 2720 1087 
C 2720 1718 2208 2176 1600 2246 
C 2086 2347 2554 2776 2554 3353 
C 2554 3856 2048 4224 1472 4224 
C 890 4224 378 3862 378 3347 
C 378 3123 544 3084 627 3084 
C 762 3084 877 3167 877 3334 
C 877 3500 762 3584 627 3584 
C 602 3584 570 3584 544 3571 
C 730 3999 1235 4076 1459 4076 
C 1683 4076 2106 3966 2106 3347 
C 2106 3167 2080 2851 1862 2574 
C 1670 2329 1453 2316 1242 2297 
C 1210 2297 1062 2284 1037 2284 
C 992 2278 966 2272 966 2227 
C 966 2182 973 2176 1101 2176 
L 1414 2176 
z
" transform="scale(0.015625)"/>
       </defs>
       <use xlink:href="#CMR17-33" transform="scale(0.996264)"/>
      </g>
     </g>
    </g>
    <g id="ytick_5">
     <g id="line2d_26">
      <g>
       <use xlink:href="#m556109d9d4" x="19.181335" y="91.729034" style="stroke: #000000; stroke-width: 0.8"/>
      </g>
     </g>
     <g id="text_9">
      <!-- $\mathdefault{4}$ -->
      <g transform="translate(7.2 95.188283)scale(0.1 -0.1)">
       <use xlink:href="#CMR17-34" transform="scale(0.996264)"/>
      </g>
     </g>
    </g>
    <g id="ytick_6">
     <g id="line2d_27">
      <g>
       <use xlink:href="#m556109d9d4" x="19.181335" y="36.051894" style="stroke: #000000; stroke-width: 0.8"/>
      </g>
     </g>
     <g id="text_10">
      <!-- $\mathdefault{5}$ -->
      <g transform="translate(7.2 39.511143)scale(0.1 -0.1)">
       <defs>
        <path id="CMR17-35" d="M 730 3750 
C 794 3724 1056 3641 1325 3641 
C 1920 3641 2246 3961 2432 4140 
C 2432 4191 2432 4224 2394 4224 
C 2387 4224 2374 4224 2323 4198 
C 2099 4102 1837 4032 1517 4032 
C 1325 4032 1037 4055 723 4191 
C 653 4224 640 4224 634 4224 
C 602 4224 595 4217 595 4090 
L 595 2231 
C 595 2113 595 2080 659 2080 
C 691 2080 704 2093 736 2139 
C 941 2435 1222 2560 1542 2560 
C 1766 2560 2246 2415 2246 1293 
C 2246 1087 2246 716 2054 422 
C 1894 159 1645 25 1370 25 
C 947 25 518 319 403 812 
C 429 806 480 793 506 793 
C 589 793 749 838 749 1036 
C 749 1209 627 1280 506 1280 
C 358 1280 262 1190 262 1011 
C 262 454 704 -128 1382 -128 
C 2042 -128 2669 441 2669 1267 
C 2669 2054 2170 2662 1549 2662 
C 1222 2662 947 2540 730 2304 
L 730 3750 
z
" transform="scale(0.015625)"/>
       </defs>
       <use xlink:href="#CMR17-35" transform="scale(0.996264)"/>
      </g>
     </g>
    </g>
    <g id="ytick_7">
     <g id="line2d_28">
      <defs>
       <path id="m7d3d09d327" d="M 0 0 
L -2 0 
" style="stroke: #000000; stroke-width: 0.6"/>
      </defs>
      <g>
       <use xlink:href="#m7d3d09d327" x="19.181335" y="303.302167" style="stroke: #000000; stroke-width: 0.6"/>
      </g>
     </g>
    </g>
    <g id="ytick_8">
     <g id="line2d_29">
      <g>
       <use xlink:href="#m7d3d09d327" x="19.181335" y="292.166739" style="stroke: #000000; stroke-width: 0.6"/>
      </g>
     </g>
    </g>
    <g id="ytick_9">
     <g id="line2d_30">
      <g>
       <use xlink:href="#m7d3d09d327" x="19.181335" y="281.031311" style="stroke: #000000; stroke-width: 0.6"/>
      </g>
     </g>
    </g>
    <g id="ytick_10">
     <g id="line2d_31">
      <g>
       <use xlink:href="#m7d3d09d327" x="19.181335" y="269.895883" style="stroke: #000000; stroke-width: 0.6"/>
      </g>
     </g>
    </g>
    <g id="ytick_11">
     <g id="line2d_32">
      <g>
       <use xlink:href="#m7d3d09d327" x="19.181335" y="247.625027" style="stroke: #000000; stroke-width: 0.6"/>
      </g>
     </g>
    </g>
    <g id="ytick_12">
     <g id="line2d_33">
      <g>
       <use xlink:href="#m7d3d09d327" x="19.181335" y="236.489599" style="stroke: #000000; stroke-width: 0.6"/>
      </g>
     </g>
    </g>
    <g id="ytick_13">
     <g id="line2d_34">
      <g>
       <use xlink:href="#m7d3d09d327" x="19.181335" y="225.354171" style="stroke: #000000; stroke-width: 0.6"/>
      </g>
     </g>
    </g>
    <g id="ytick_14">
     <g id="line2d_35">
      <g>
       <use xlink:href="#m7d3d09d327" x="19.181335" y="214.218743" style="stroke: #000000; stroke-width: 0.6"/>
      </g>
     </g>
    </g>
    <g id="ytick_15">
     <g id="line2d_36">
      <g>
       <use xlink:href="#m7d3d09d327" x="19.181335" y="191.947887" style="stroke: #000000; stroke-width: 0.6"/>
      </g>
     </g>
    </g>
    <g id="ytick_16">
     <g id="line2d_37">
      <g>
       <use xlink:href="#m7d3d09d327" x="19.181335" y="180.812459" style="stroke: #000000; stroke-width: 0.6"/>
      </g>
     </g>
    </g>
    <g id="ytick_17">
     <g id="line2d_38">
      <g>
       <use xlink:href="#m7d3d09d327" x="19.181335" y="169.677031" style="stroke: #000000; stroke-width: 0.6"/>
      </g>
     </g>
    </g>
    <g id="ytick_18">
     <g id="line2d_39">
      <g>
       <use xlink:href="#m7d3d09d327" x="19.181335" y="158.541603" style="stroke: #000000; stroke-width: 0.6"/>
      </g>
     </g>
    </g>
    <g id="ytick_19">
     <g id="line2d_40">
      <g>
       <use xlink:href="#m7d3d09d327" x="19.181335" y="136.270746" style="stroke: #000000; stroke-width: 0.6"/>
      </g>
     </g>
    </g>
    <g id="ytick_20">
     <g id="line2d_41">
      <g>
       <use xlink:href="#m7d3d09d327" x="19.181335" y="125.135318" style="stroke: #000000; stroke-width: 0.6"/>
      </g>
     </g>
    </g>
    <g id="ytick_21">
     <g id="line2d_42">
      <g>
       <use xlink:href="#m7d3d09d327" x="19.181335" y="113.99989" style="stroke: #000000; stroke-width: 0.6"/>
      </g>
     </g>
    </g>
    <g id="ytick_22">
     <g id="line2d_43">
      <g>
       <use xlink:href="#m7d3d09d327" x="19.181335" y="102.864462" style="stroke: #000000; stroke-width: 0.6"/>
      </g>
     </g>
    </g>
    <g id="ytick_23">
     <g id="line2d_44">
      <g>
       <use xlink:href="#m7d3d09d327" x="19.181335" y="80.593606" style="stroke: #000000; stroke-width: 0.6"/>
      </g>
     </g>
    </g>
    <g id="ytick_24">
     <g id="line2d_45">
      <g>
       <use xlink:href="#m7d3d09d327" x="19.181335" y="69.458178" style="stroke: #000000; stroke-width: 0.6"/>
      </g>
     </g>
    </g>
    <g id="ytick_25">
     <g id="line2d_46">
      <g>
       <use xlink:href="#m7d3d09d327" x="19.181335" y="58.32275" style="stroke: #000000; stroke-width: 0.6"/>
      </g>
     </g>
    </g>
    <g id="ytick_26">
     <g id="line2d_47">
      <g>
       <use xlink:href="#m7d3d09d327" x="19.181335" y="47.187322" style="stroke: #000000; stroke-width: 0.6"/>
      </g>
     </g>
    </g>
    <g id="ytick_27">
     <g id="line2d_48">
      <g>
       <use xlink:href="#m7d3d09d327" x="19.181335" y="24.916466" style="stroke: #000000; stroke-width: 0.6"/>
      </g>
     </g>
    </g>
    <g id="ytick_28">
     <g id="line2d_49">
      <g>
       <use xlink:href="#m7d3d09d327" x="19.181335" y="13.781038" style="stroke: #000000; stroke-width: 0.6"/>
      </g>
     </g>
    </g>
   </g>
   <g id="line2d_50">
    <path d="M 23.357846 314.437595 
L 24.326005 301.320723 
L 25.294164 290.472356 
L 26.216386 281.631816 
L 27.138607 273.881837 
L 28.23392 265.768038 
L 29.329233 258.582104 
L 30.651417 250.876539 
L 32.984181 239.228883 
L 34.858314 231.218619 
L 37.278804 222.185337 
L 38.971949 216.558473 
L 42.437823 206.405454 
L 43.853539 202.687598 
L 46.761048 195.678647 
L 49.907739 188.881175 
L 52.420249 183.936109 
L 55.57925 178.224028 
L 57.641682 174.756378 
L 60.906327 169.630521 
L 65.638442 162.871596 
L 68.597821 158.986293 
L 73.304914 153.261904 
L 78.026852 147.999319 
L 80.671668 145.233296 
L 87.59517 138.520556 
L 93.0847 133.664556 
L 99.998129 128.038277 
L 105.464782 123.920292 
L 113.175391 118.535145 
L 120.35021 113.90713 
L 127.891819 109.383713 
L 135.325137 105.22245 
L 143.298866 101.044892 
L 150.325933 97.580055 
L 158.135638 93.940752 
L 165.945195 90.500564 
L 176.251358 86.230712 
L 188.253091 81.598174 
L 198.624696 77.852431 
L 208.29468 74.550207 
L 221.638746 70.260462 
L 232.965791 66.835439 
L 247.531644 62.688537 
L 262.410982 58.717008 
L 278.25735 54.746087 
L 295.018414 50.802005 
L 313.007878 46.827075 
L 331.294399 43.028515 
L 349.584747 39.445568 
L 369.556735 35.753027 
L 391.001697 32.015508 
L 414.716507 28.125534 
L 436.832379 24.702537 
L 436.832379 24.702537 
" clip-path="url(#pb637e68e19)" style="fill: none; stroke: #0000ff; stroke-linecap: square"/>
   </g>
   <g id="patch_4">
    <path d="M 19.181335 320.461862 
L 19.181335 7.2 
" style="fill: none; stroke: #000000; stroke-width: 0.8; stroke-linejoin: miter; stroke-linecap: square"/>
   </g>
   <g id="patch_5">
    <path d="M 15.088355 314.437595 
L 445.10187 314.437595 
" style="fill: none; stroke: #000000; stroke-width: 0.8; stroke-linejoin: miter; stroke-linecap: square"/>
   </g>
  </g>
 </g>
 <defs>
  <clipPath id="pb637e68e19">
   <rect x="15.088355" y="7.2" width="430.013515" height="313.261862"/>
  </clipPath>
 </defs>
</svg>
