<?xml version="1.0" encoding="utf-8" standalone="no"?>
<!DOCTYPE svg PUBLIC "-//W3C//DTD SVG 1.1//EN"
  "http://www.w3.org/Graphics/SVG/1.1/DTD/svg11.dtd">
<svg xmlns:xlink="http://www.w3.org/1999/xlink" width="452.502692pt" height="338.4pt" viewBox="0 0 452.502692 338.4" xmlns="http://www.w3.org/2000/svg" version="1.1">
 <metadata>
  <rdf:RDF xmlns:dc="http://purl.org/dc/elements/1.1/" xmlns:cc="http://creativecommons.org/ns#" xmlns:rdf="http://www.w3.org/1999/02/22-rdf-syntax-ns#">
   <cc:Work>
    <dc:type rdf:resource="http://purl.org/dc/dcmitype/StillImage"/>
    <dc:date>2023-02-09T14:00:06.087288</dc:date>
    <dc:format>image/svg+xml</dc:format>
    <dc:creator>
     <cc:Agent>
      <dc:title>Matplotlib v3.6.2, https://matplotlib.org/</dc:title>
     </cc:Agent>
    </dc:creator>
   </cc:Work>
  </rdf:RDF>
 </metadata>
 <defs>
  <style type="text/css">*{stroke-linejoin: round; stroke-linecap: butt}</style>
 </defs>
 <g id="figure_1">
  <g id="patch_1">
   <path d="M 0 338.4 
L 452.502692 338.4 
L 452.502692 0 
L 0 0 
L 0 338.4 
z
" style="fill: none"/>
  </g>
  <g id="axes_1">
   <g id="patch_2">
    <path d="M 7.2 331.2 
L 445.302692 331.2 
L 445.302692 7.2 
L 7.2 7.2 
L 7.2 331.2 
z
" style="fill: none"/>
   </g>
   <g id="patch_3">
    <path d="M 436.877641 13.430769 
L 434.544505 16.867387 
L 433.504958 18.389367 
L 431.301163 21.597076 
L 429.369165 24.388132 
L 426.224183 28.889473 
L 423.508937 32.733841 
L 421.803304 35.128896 
L 420.536831 36.897369 
L 416.949997 41.860098 
L 416.651123 42.270559 
L 413.704753 46.291816 
L 411.48371 49.29291 
L 408.615399 53.130155 
L 406.635571 55.753506 
L 405.671884 57.022959 
L 402.649009 60.973222 
L 401.229753 62.81129 
L 399.274827 65.325729 
L 396.787347 68.496041 
L 394.230715 71.720528 
L 391.909862 74.617835 
L 391.150057 75.560196 
L 387.767754 79.718264 
L 386.966914 80.693962 
L 383.643493 84.706937 
L 382.680609 85.858734 
L 380.733267 88.173211 
L 377.10275 92.434868 
L 375.535463 94.253163 
L 374.351195 95.618517 
L 371.821972 98.509746 
L 369.614391 101.005761 
L 366.216422 104.797535 
L 365.380305 105.721231 
L 362.387997 108.996797 
L 360.83364 110.679683 
L 358.405694 113.282931 
L 355.676694 116.17191 
L 354.913055 116.973291 
L 351.558861 120.456892 
L 349.232602 122.8381 
L 347.144186 124.951568 
L 346.682766 125.415425 
L 344.294589 127.798292 
L 342.240199 129.824081 
L 339.665924 132.331137 
L 337.655406 134.264884 
L 334.754106 137.01787 
L 333.379737 138.306507 
L 331.816551 139.760089 
L 328.056137 143.204123 
L 327.167426 144.007183 
L 323.98572 146.84814 
L 321.729521 148.830399 
L 321.16123 149.325463 
L 317.614609 152.376653 
L 316.999862 152.898788 
L 314.912808 154.656579 
L 311.092673 157.814607 
L 310.825222 158.032824 
L 307.23596 160.924905 
L 305.970115 161.928686 
L 303.883857 163.564617 
L 301.042385 165.755873 
L 299.594869 166.855804 
L 297.793126 168.209486 
L 296.017583 169.526757 
L 293.391697 171.44446 
L 290.271313 173.676079 
L 289.426363 174.271543 
L 286.502395 176.303137 
L 284.594442 177.604519 
L 282.014712 179.333621 
L 280.233864 180.506812 
L 277.280412 182.41567 
L 275.671939 183.435926 
L 273.966827 184.502601 
L 271.341357 186.115088 
L 269.61464 187.155798 
L 267.359364 188.491425 
L 264.98877 189.866469 
L 262.863284 191.074173 
L 260.666378 192.297453 
L 259.575383 192.895494 
L 256.813119 194.381629 
L 253.839892 195.936358 
L 251.984359 196.883039 
L 250.394132 197.679933 
L 247.932711 198.887137 
L 245.718286 199.945934 
L 244.997811 200.284851 
L 242.115032 201.613578 
L 239.958834 202.578799 
L 238.395973 203.263106 
L 235.839482 204.354747 
L 233.652055 205.261468 
L 231.772736 206.020347 
L 228.626432 207.249202 
L 227.379725 207.721707 
L 225.144877 208.54823 
L 222.422896 209.51938 
L 221.761571 209.749436 
L 219.752867 210.434082 
L 217.504301 211.175274 
L 215.615835 211.777193 
L 213.339864 212.477663 
L 209.473995 213.604925 
L 209.153827 213.694755 
L 206.564747 214.401337 
L 204.454103 214.951229 
L 202.552086 215.426668 
L 198.887117 216.289055 
L 197.886896 216.512124 
L 195.219894 217.081163 
L 193.318849 217.463907 
L 190.841196 217.934171 
L 188.448008 218.357707 
L 186.159972 218.734427 
L 184.051366 219.057191 
L 182.105125 219.33432 
L 179.716605 219.64716 
L 178.434206 219.802727 
L 175.482762 220.127859 
L 174.034358 220.270633 
L 172.674347 220.394636 
L 170.99408 220.534386 
L 168.689925 220.70185 
L 165.66223 220.879388 
L 163.761456 220.966176 
L 161.778757 221.036428 
L 158.981102 221.100338 
L 157.104808 221.120106 
L 154.94543 221.119907 
L 152.162761 221.083436 
L 151.80318 221.075748 
L 149.702788 221.017233 
L 147.234797 220.918785 
L 144.3208 220.761247 
L 141.586168 220.572727 
L 139.720518 220.421512 
L 138.144201 220.27946 
L 136.580844 220.12565 
L 135.169277 219.975716 
L 132.470503 219.659844 
L 129.256746 219.233658 
L 127.631619 218.997437 
L 125.988491 218.744458 
L 122.920349 218.234014 
L 121.780238 218.031701 
L 119.53081 217.612459 
L 116.72323 217.051802 
L 114.197166 216.511882 
L 112.181923 216.057044 
L 111.528974 215.905086 
L 109.798746 215.491559 
L 106.043961 214.539926 
L 105.480916 214.390823 
L 101.482539 213.28396 
L 100.814553 213.090834 
L 98.408334 212.375676 
L 96.372504 211.746788 
L 94.770368 211.236524 
L 91.391853 210.116188 
L 89.52129 209.47004 
L 88.453419 209.092903 
L 85.99872 208.203213 
L 84.100971 207.493635 
L 80.484507 206.088904 
L 78.146829 205.144234 
L 76.782016 204.579398 
L 75.006937 203.830093 
L 72.233295 202.626045 
L 71.24717 202.188201 
L 68.845827 201.100572 
L 66.015672 199.779734 
L 64.909732 199.252126 
L 62.51996 198.090045 
L 59.208496 196.430053 
L 58.556626 196.096476 
L 55.651222 194.582495 
L 52.685044 192.990982 
L 52.198476 192.725488 
L 48.99814 190.948166 
L 46.682656 189.628616 
L 44.89802 188.592318 
L 42.638529 187.256219 
L 41.688544 186.686437 
L 38.808711 184.930128 
L 36.803056 183.681145 
L 34.896011 182.473921 
L 31.598853 180.341521 
L 30.641368 179.71155 
L 28.770768 178.466871 
L 26.862884 177.178399 
L 24.484675 175.545454 
L 22.466693 174.136489 
L 18.998495 171.664871 
L 18.070425 170.992735 
L 15.625052 169.2 
L 15.625052 324.969231 
L 17.359234 323.686712 
L 18.92209 322.530897 
L 21.711959 320.467643 
L 23.678233 319.013479 
L 27.008347 316.550685 
L 29.374122 314.80107 
L 30.574978 313.912974 
L 32.90294 312.191323 
L 34.654687 310.895814 
L 36.481566 309.54474 
L 38.176663 308.291127 
L 41.826108 305.592171 
L 42.565154 305.045607 
L 45.714313 302.716639 
L 47.081281 301.705693 
L 49.361148 300.019612 
L 52.514411 297.687608 
L 53.450951 296.994987 
L 55.981625 295.123421 
L 57.583951 293.938417 
L 60.281686 291.943299 
L 62.244766 290.491498 
L 63.912348 289.258234 
L 66.52084 287.329116 
L 67.55228 286.566312 
L 70.162356 284.636024 
L 71.874283 283.369963 
L 74.526528 281.408489 
L 76.209258 280.164021 
L 78.281286 278.631648 
L 80.55949 276.946796 
L 82.771349 275.31101 
L 84.933389 273.712067 
L 87.938369 271.489726 
L 88.76972 270.874899 
L 92.79398 267.898746 
L 93.952301 267.042107 
L 95.400388 265.97117 
L 97.234921 264.614437 
L 100.780335 261.992417 
L 101.45511 261.493385 
L 104.920562 258.930501 
L 106.286614 257.920233 
L 108.311614 256.422639 
L 110.68991 254.663765 
L 113.879736 252.30472 
L 115.707038 250.953334 
L 116.920833 250.055669 
L 120.345582 247.522887 
L 121.369107 246.765936 
L 123.867456 244.918276 
L 126.737876 242.795449 
L 127.160264 242.483071 
L 129.467026 240.777099 
L 133.108658 238.08392 
L 134.502367 237.053199 
L 137.190474 235.065203 
L 138.754396 233.9086 
L 139.759206 233.16549 
L 143.405266 230.469037 
L 145.113757 229.205518 
L 147.388448 227.523264 
L 149.34477 226.076461 
L 150.360518 225.325262 
L 153.077746 223.315729 
L 156.065168 221.106373 
L 158.219657 219.513015 
L 158.784316 219.09542 
L 161.922736 216.774393 
L 164.179921 215.105086 
L 166.804184 213.164305 
L 169.015043 211.529258 
L 170.69514 210.286738 
L 171.60391 209.614655 
L 173.392543 208.291867 
L 176.468906 206.016735 
L 179.60235 203.699388 
L 180.243568 203.225174 
L 182.510093 201.548959 
L 185.689814 199.197388 
L 186.817206 198.363622 
L 190.193781 195.866467 
L 191.952423 194.565859 
L 194.092546 192.983126 
L 194.706037 192.529416 
L 198.140901 189.989154 
L 200.241923 188.435338 
L 202.852893 186.504388 
L 204.182368 185.521171 
L 205.745761 184.36496 
L 208.191492 182.556212 
L 210.169195 181.093597 
L 213.151713 178.887868 
L 215.444575 177.192176 
L 215.779752 176.944295 
L 218.331205 175.057361 
L 220.316278 173.589295 
L 222.120935 172.254656 
L 225.755502 169.566703 
L 227.922437 167.964141 
L 228.803976 167.312196 
L 230.572687 166.004141 
L 233.147678 164.0998 
L 234.73854 162.923274 
L 238.862384 159.873474 
L 239.170685 159.645469 
L 241.795506 157.704276 
L 244.480831 155.718336 
L 246.42483 154.280647 
L 247.467242 153.509728 
L 251.133802 150.798114 
L 253.02258 149.401264 
L 254.544588 148.275658 
L 257.640524 145.986051 
L 259.514685 144.60001 
L 260.399334 143.945766 
L 262.570711 142.339918 
L 265.158755 140.425923 
L 267.525413 138.675655 
L 270.661686 136.356216 
L 272.506993 134.991515 
L 273.099399 134.553399 
L 276.720951 131.875071 
L 278.870774 130.285163 
L 281.075372 128.654747 
L 281.802126 128.117275 
L 283.545345 126.828072 
L 286.313137 124.781144 
L 287.641491 123.798757 
L 290.931858 121.365357 
L 293.272285 119.634488 
L 295.139164 118.253833 
L 298.16829 116.013634 
L 299.582183 114.967986 
L 302.231513 113.008667 
L 302.864205 112.540758 
L 305.596982 110.519726 
L 308.399111 108.447404 
L 310.250064 107.078527 
L 312.308118 105.556488 
L 315.142162 103.460563 
L 317.017052 102.073983 
L 318.117432 101.260194 
L 320.52335 99.480891 
L 322.295664 98.170172 
L 324.562004 96.494094 
L 327.603599 94.244675 
L 328.609474 93.500777 
L 331.277536 91.527605 
L 333.95558 89.54705 
L 335.49724 88.406911 
L 337.262383 87.101495 
L 339.486831 85.456399 
L 341.071785 84.284242 
L 344.447563 81.787676 
L 345.10875 81.298694 
L 347.662402 79.410134 
L 349.149277 78.310511 
L 351.792268 76.355881 
L 354.820982 74.115987 
L 355.880294 73.33257 
L 359.186209 70.887672 
L 361.447714 69.21517 
L 361.735889 69.002049 
L 365.041511 66.557368 
L 366.977449 65.12564 
L 368.236153 64.194762 
L 371.084214 62.088471 
L 374.291647 59.716406 
L 376.463979 58.109852 
L 378.603452 56.527599 
L 379.082692 56.173176 
L 382.216997 53.855192 
L 384.988664 51.805398 
L 387.114675 50.233101 
L 388.74265 49.029128 
L 389.536312 48.442174 
L 393.427726 45.564268 
L 393.760042 45.318503 
L 395.826197 43.790472 
L 398.139805 42.079438 
L 399.927773 40.757141 
L 403.761388 37.921981 
L 405.780034 36.429086 
L 406.628025 35.801952 
L 408.364158 34.51799 
L 410.659624 32.820372 
L 412.581792 31.398828 
L 414.680291 29.846877 
L 416.945486 28.171646 
L 419.021901 26.636029 
L 421.191642 25.031391 
L 424.931052 22.2659 
L 426.418176 21.166094 
L 427.567452 20.316144 
L 431.100844 17.703014 
L 432.926433 16.352895 
L 434.745415 15.007663 
z
" clip-path="url(#pa0f8f237f6)" style="fill: #b2b3ff; opacity: 0.5"/>
   </g>
   <g id="matplotlib.axis_1">
    <g id="xtick_1">
     <g id="line2d_1">
      <defs>
       <path id="m55cfe44d60" d="M 0 0 
L 0 3.5 
" style="stroke: #000000; stroke-width: 0.8"/>
      </defs>
      <g>
       <use xlink:href="#m55cfe44d60" x="43.708558" y="221.123077" style="stroke: #000000; stroke-width: 0.8"/>
      </g>
     </g>
     <g id="text_1">
      <!-- −0.4 -->
      <g transform="translate(31.567151 235.721514) scale(0.1 -0.1)">
       <defs>
        <path id="DejaVuSans-2212" d="M 678 2272 
L 4684 2272 
L 4684 1741 
L 678 1741 
L 678 2272 
z
" transform="scale(0.015625)"/>
        <path id="DejaVuSans-30" d="M 2034 4250 
Q 1547 4250 1301 3770 
Q 1056 3291 1056 2328 
Q 1056 1369 1301 889 
Q 1547 409 2034 409 
Q 2525 409 2770 889 
Q 3016 1369 3016 2328 
Q 3016 3291 2770 3770 
Q 2525 4250 2034 4250 
z
M 2034 4750 
Q 2819 4750 3233 4129 
Q 3647 3509 3647 2328 
Q 3647 1150 3233 529 
Q 2819 -91 2034 -91 
Q 1250 -91 836 529 
Q 422 1150 422 2328 
Q 422 3509 836 4129 
Q 1250 4750 2034 4750 
z
" transform="scale(0.015625)"/>
        <path id="DejaVuSans-2e" d="M 684 794 
L 1344 794 
L 1344 0 
L 684 0 
L 684 794 
z
" transform="scale(0.015625)"/>
        <path id="DejaVuSans-34" d="M 2419 4116 
L 825 1625 
L 2419 1625 
L 2419 4116 
z
M 2253 4666 
L 3047 4666 
L 3047 1625 
L 3713 1625 
L 3713 1100 
L 3047 1100 
L 3047 0 
L 2419 0 
L 2419 1100 
L 313 1100 
L 313 1709 
L 2253 4666 
z
" transform="scale(0.015625)"/>
       </defs>
       <use xlink:href="#DejaVuSans-2212"/>
       <use xlink:href="#DejaVuSans-30" x="83.789062"/>
       <use xlink:href="#DejaVuSans-2e" x="147.412109"/>
       <use xlink:href="#DejaVuSans-34" x="179.199219"/>
      </g>
     </g>
    </g>
    <g id="xtick_2">
     <g id="line2d_2">
      <g>
       <use xlink:href="#m55cfe44d60" x="99.87557" y="221.123077" style="stroke: #000000; stroke-width: 0.8"/>
      </g>
     </g>
     <g id="text_2">
      <!-- −0.2 -->
      <g transform="translate(87.734163 235.721514) scale(0.1 -0.1)">
       <defs>
        <path id="DejaVuSans-32" d="M 1228 531 
L 3431 531 
L 3431 0 
L 469 0 
L 469 531 
Q 828 903 1448 1529 
Q 2069 2156 2228 2338 
Q 2531 2678 2651 2914 
Q 2772 3150 2772 3378 
Q 2772 3750 2511 3984 
Q 2250 4219 1831 4219 
Q 1534 4219 1204 4116 
Q 875 4013 500 3803 
L 500 4441 
Q 881 4594 1212 4672 
Q 1544 4750 1819 4750 
Q 2544 4750 2975 4387 
Q 3406 4025 3406 3419 
Q 3406 3131 3298 2873 
Q 3191 2616 2906 2266 
Q 2828 2175 2409 1742 
Q 1991 1309 1228 531 
z
" transform="scale(0.015625)"/>
       </defs>
       <use xlink:href="#DejaVuSans-2212"/>
       <use xlink:href="#DejaVuSans-30" x="83.789062"/>
       <use xlink:href="#DejaVuSans-2e" x="147.412109"/>
       <use xlink:href="#DejaVuSans-32" x="179.199219"/>
      </g>
     </g>
    </g>
    <g id="xtick_3">
     <g id="line2d_3">
      <g>
       <use xlink:href="#m55cfe44d60" x="156.042581" y="221.123077" style="stroke: #000000; stroke-width: 0.8"/>
      </g>
     </g>
    </g>
    <g id="xtick_4">
     <g id="line2d_4">
      <g>
       <use xlink:href="#m55cfe44d60" x="212.209593" y="221.123077" style="stroke: #000000; stroke-width: 0.8"/>
      </g>
     </g>
     <g id="text_3">
      <!-- 0.2 -->
      <g transform="translate(204.258031 235.721514) scale(0.1 -0.1)">
       <use xlink:href="#DejaVuSans-30"/>
       <use xlink:href="#DejaVuSans-2e" x="63.623047"/>
       <use xlink:href="#DejaVuSans-32" x="95.410156"/>
      </g>
     </g>
    </g>
    <g id="xtick_5">
     <g id="line2d_5">
      <g>
       <use xlink:href="#m55cfe44d60" x="268.376605" y="221.123077" style="stroke: #000000; stroke-width: 0.8"/>
      </g>
     </g>
     <g id="text_4">
      <!-- 0.4 -->
      <g transform="translate(260.425043 235.721514) scale(0.1 -0.1)">
       <use xlink:href="#DejaVuSans-30"/>
       <use xlink:href="#DejaVuSans-2e" x="63.623047"/>
       <use xlink:href="#DejaVuSans-34" x="95.410156"/>
      </g>
     </g>
    </g>
    <g id="xtick_6">
     <g id="line2d_6">
      <g>
       <use xlink:href="#m55cfe44d60" x="324.543617" y="221.123077" style="stroke: #000000; stroke-width: 0.8"/>
      </g>
     </g>
     <g id="text_5">
      <!-- 0.6 -->
      <g transform="translate(316.592054 235.721514) scale(0.1 -0.1)">
       <defs>
        <path id="DejaVuSans-36" d="M 2113 2584 
Q 1688 2584 1439 2293 
Q 1191 2003 1191 1497 
Q 1191 994 1439 701 
Q 1688 409 2113 409 
Q 2538 409 2786 701 
Q 3034 994 3034 1497 
Q 3034 2003 2786 2293 
Q 2538 2584 2113 2584 
z
M 3366 4563 
L 3366 3988 
Q 3128 4100 2886 4159 
Q 2644 4219 2406 4219 
Q 1781 4219 1451 3797 
Q 1122 3375 1075 2522 
Q 1259 2794 1537 2939 
Q 1816 3084 2150 3084 
Q 2853 3084 3261 2657 
Q 3669 2231 3669 1497 
Q 3669 778 3244 343 
Q 2819 -91 2113 -91 
Q 1303 -91 875 529 
Q 447 1150 447 2328 
Q 447 3434 972 4092 
Q 1497 4750 2381 4750 
Q 2619 4750 2861 4703 
Q 3103 4656 3366 4563 
z
" transform="scale(0.015625)"/>
       </defs>
       <use xlink:href="#DejaVuSans-30"/>
       <use xlink:href="#DejaVuSans-2e" x="63.623047"/>
       <use xlink:href="#DejaVuSans-36" x="95.410156"/>
      </g>
     </g>
    </g>
    <g id="xtick_7">
     <g id="line2d_7">
      <g>
       <use xlink:href="#m55cfe44d60" x="380.710629" y="221.123077" style="stroke: #000000; stroke-width: 0.8"/>
      </g>
     </g>
     <g id="text_6">
      <!-- 0.8 -->
      <g transform="translate(372.759066 235.721514) scale(0.1 -0.1)">
       <defs>
        <path id="DejaVuSans-38" d="M 2034 2216 
Q 1584 2216 1326 1975 
Q 1069 1734 1069 1313 
Q 1069 891 1326 650 
Q 1584 409 2034 409 
Q 2484 409 2743 651 
Q 3003 894 3003 1313 
Q 3003 1734 2745 1975 
Q 2488 2216 2034 2216 
z
M 1403 2484 
Q 997 2584 770 2862 
Q 544 3141 544 3541 
Q 544 4100 942 4425 
Q 1341 4750 2034 4750 
Q 2731 4750 3128 4425 
Q 3525 4100 3525 3541 
Q 3525 3141 3298 2862 
Q 3072 2584 2669 2484 
Q 3125 2378 3379 2068 
Q 3634 1759 3634 1313 
Q 3634 634 3220 271 
Q 2806 -91 2034 -91 
Q 1263 -91 848 271 
Q 434 634 434 1313 
Q 434 1759 690 2068 
Q 947 2378 1403 2484 
z
M 1172 3481 
Q 1172 3119 1398 2916 
Q 1625 2713 2034 2713 
Q 2441 2713 2670 2916 
Q 2900 3119 2900 3481 
Q 2900 3844 2670 4047 
Q 2441 4250 2034 4250 
Q 1625 4250 1398 4047 
Q 1172 3844 1172 3481 
z
" transform="scale(0.015625)"/>
       </defs>
       <use xlink:href="#DejaVuSans-30"/>
       <use xlink:href="#DejaVuSans-2e" x="63.623047"/>
       <use xlink:href="#DejaVuSans-38" x="95.410156"/>
      </g>
     </g>
    </g>
    <g id="xtick_8">
     <g id="line2d_8">
      <g>
       <use xlink:href="#m55cfe44d60" x="436.877641" y="221.123077" style="stroke: #000000; stroke-width: 0.8"/>
      </g>
     </g>
     <g id="text_7">
      <!-- 1.0 -->
      <g transform="translate(428.926078 235.721514) scale(0.1 -0.1)">
       <defs>
        <path id="DejaVuSans-31" d="M 794 531 
L 1825 531 
L 1825 4091 
L 703 3866 
L 703 4441 
L 1819 4666 
L 2450 4666 
L 2450 531 
L 3481 531 
L 3481 0 
L 794 0 
L 794 531 
z
" transform="scale(0.015625)"/>
       </defs>
       <use xlink:href="#DejaVuSans-31"/>
       <use xlink:href="#DejaVuSans-2e" x="63.623047"/>
       <use xlink:href="#DejaVuSans-30" x="95.410156"/>
      </g>
     </g>
    </g>
    <g id="xtick_9">
     <g id="line2d_9">
      <defs>
       <path id="m49106acc1b" d="M 0 0 
L 0 2 
" style="stroke: #000000; stroke-width: 0.6"/>
      </defs>
      <g>
       <use xlink:href="#m49106acc1b" x="15.625052" y="221.123077" style="stroke: #000000; stroke-width: 0.6"/>
      </g>
     </g>
    </g>
    <g id="xtick_10">
     <g id="line2d_10">
      <g>
       <use xlink:href="#m49106acc1b" x="29.666805" y="221.123077" style="stroke: #000000; stroke-width: 0.6"/>
      </g>
     </g>
    </g>
    <g id="xtick_11">
     <g id="line2d_11">
      <g>
       <use xlink:href="#m49106acc1b" x="57.750311" y="221.123077" style="stroke: #000000; stroke-width: 0.6"/>
      </g>
     </g>
    </g>
    <g id="xtick_12">
     <g id="line2d_12">
      <g>
       <use xlink:href="#m49106acc1b" x="71.792064" y="221.123077" style="stroke: #000000; stroke-width: 0.6"/>
      </g>
     </g>
    </g>
    <g id="xtick_13">
     <g id="line2d_13">
      <g>
       <use xlink:href="#m49106acc1b" x="85.833817" y="221.123077" style="stroke: #000000; stroke-width: 0.6"/>
      </g>
     </g>
    </g>
    <g id="xtick_14">
     <g id="line2d_14">
      <g>
       <use xlink:href="#m49106acc1b" x="113.917322" y="221.123077" style="stroke: #000000; stroke-width: 0.6"/>
      </g>
     </g>
    </g>
    <g id="xtick_15">
     <g id="line2d_15">
      <g>
       <use xlink:href="#m49106acc1b" x="127.959075" y="221.123077" style="stroke: #000000; stroke-width: 0.6"/>
      </g>
     </g>
    </g>
    <g id="xtick_16">
     <g id="line2d_16">
      <g>
       <use xlink:href="#m49106acc1b" x="142.000828" y="221.123077" style="stroke: #000000; stroke-width: 0.6"/>
      </g>
     </g>
    </g>
    <g id="xtick_17">
     <g id="line2d_17">
      <g>
       <use xlink:href="#m49106acc1b" x="170.084334" y="221.123077" style="stroke: #000000; stroke-width: 0.6"/>
      </g>
     </g>
    </g>
    <g id="xtick_18">
     <g id="line2d_18">
      <g>
       <use xlink:href="#m49106acc1b" x="184.126087" y="221.123077" style="stroke: #000000; stroke-width: 0.6"/>
      </g>
     </g>
    </g>
    <g id="xtick_19">
     <g id="line2d_19">
      <g>
       <use xlink:href="#m49106acc1b" x="198.16784" y="221.123077" style="stroke: #000000; stroke-width: 0.6"/>
      </g>
     </g>
    </g>
    <g id="xtick_20">
     <g id="line2d_20">
      <g>
       <use xlink:href="#m49106acc1b" x="226.251346" y="221.123077" style="stroke: #000000; stroke-width: 0.6"/>
      </g>
     </g>
    </g>
    <g id="xtick_21">
     <g id="line2d_21">
      <g>
       <use xlink:href="#m49106acc1b" x="240.293099" y="221.123077" style="stroke: #000000; stroke-width: 0.6"/>
      </g>
     </g>
    </g>
    <g id="xtick_22">
     <g id="line2d_22">
      <g>
       <use xlink:href="#m49106acc1b" x="254.334852" y="221.123077" style="stroke: #000000; stroke-width: 0.6"/>
      </g>
     </g>
    </g>
    <g id="xtick_23">
     <g id="line2d_23">
      <g>
       <use xlink:href="#m49106acc1b" x="282.418358" y="221.123077" style="stroke: #000000; stroke-width: 0.6"/>
      </g>
     </g>
    </g>
    <g id="xtick_24">
     <g id="line2d_24">
      <g>
       <use xlink:href="#m49106acc1b" x="296.460111" y="221.123077" style="stroke: #000000; stroke-width: 0.6"/>
      </g>
     </g>
    </g>
    <g id="xtick_25">
     <g id="line2d_25">
      <g>
       <use xlink:href="#m49106acc1b" x="310.501864" y="221.123077" style="stroke: #000000; stroke-width: 0.6"/>
      </g>
     </g>
    </g>
    <g id="xtick_26">
     <g id="line2d_26">
      <g>
       <use xlink:href="#m49106acc1b" x="338.58537" y="221.123077" style="stroke: #000000; stroke-width: 0.6"/>
      </g>
     </g>
    </g>
    <g id="xtick_27">
     <g id="line2d_27">
      <g>
       <use xlink:href="#m49106acc1b" x="352.627123" y="221.123077" style="stroke: #000000; stroke-width: 0.6"/>
      </g>
     </g>
    </g>
    <g id="xtick_28">
     <g id="line2d_28">
      <g>
       <use xlink:href="#m49106acc1b" x="366.668876" y="221.123077" style="stroke: #000000; stroke-width: 0.6"/>
      </g>
     </g>
    </g>
    <g id="xtick_29">
     <g id="line2d_29">
      <g>
       <use xlink:href="#m49106acc1b" x="394.752382" y="221.123077" style="stroke: #000000; stroke-width: 0.6"/>
      </g>
     </g>
    </g>
    <g id="xtick_30">
     <g id="line2d_30">
      <g>
       <use xlink:href="#m49106acc1b" x="408.794135" y="221.123077" style="stroke: #000000; stroke-width: 0.6"/>
      </g>
     </g>
    </g>
    <g id="xtick_31">
     <g id="line2d_31">
      <g>
       <use xlink:href="#m49106acc1b" x="422.835888" y="221.123077" style="stroke: #000000; stroke-width: 0.6"/>
      </g>
     </g>
    </g>
   </g>
   <g id="matplotlib.axis_2">
    <g id="ytick_1">
     <g id="line2d_32">
      <defs>
       <path id="m716aff6d42" d="M 0 0 
L -3.5 0 
" style="stroke: #000000; stroke-width: 0.8"/>
      </defs>
      <g>
       <use xlink:href="#m716aff6d42" x="156.042581" y="304.2" style="stroke: #000000; stroke-width: 0.8"/>
      </g>
     </g>
     <g id="text_8">
      <!-- −0.4 -->
      <g transform="translate(124.759769 307.999219) scale(0.1 -0.1)">
       <use xlink:href="#DejaVuSans-2212"/>
       <use xlink:href="#DejaVuSans-30" x="83.789062"/>
       <use xlink:href="#DejaVuSans-2e" x="147.412109"/>
       <use xlink:href="#DejaVuSans-34" x="179.199219"/>
      </g>
     </g>
    </g>
    <g id="ytick_2">
     <g id="line2d_33">
      <g>
       <use xlink:href="#m716aff6d42" x="156.042581" y="262.661538" style="stroke: #000000; stroke-width: 0.8"/>
      </g>
     </g>
     <g id="text_9">
      <!-- −0.2 -->
      <g transform="translate(124.759769 266.460757) scale(0.1 -0.1)">
       <use xlink:href="#DejaVuSans-2212"/>
       <use xlink:href="#DejaVuSans-30" x="83.789062"/>
       <use xlink:href="#DejaVuSans-2e" x="147.412109"/>
       <use xlink:href="#DejaVuSans-32" x="179.199219"/>
      </g>
     </g>
    </g>
    <g id="ytick_3">
     <g id="line2d_34">
      <g>
       <use xlink:href="#m716aff6d42" x="156.042581" y="221.123077" style="stroke: #000000; stroke-width: 0.8"/>
      </g>
     </g>
    </g>
    <g id="ytick_4">
     <g id="line2d_35">
      <g>
       <use xlink:href="#m716aff6d42" x="156.042581" y="179.584615" style="stroke: #000000; stroke-width: 0.8"/>
      </g>
     </g>
     <g id="text_10">
      <!-- 0.2 -->
      <g transform="translate(133.139456 183.383834) scale(0.1 -0.1)">
       <use xlink:href="#DejaVuSans-30"/>
       <use xlink:href="#DejaVuSans-2e" x="63.623047"/>
       <use xlink:href="#DejaVuSans-32" x="95.410156"/>
      </g>
     </g>
    </g>
    <g id="ytick_5">
     <g id="line2d_36">
      <g>
       <use xlink:href="#m716aff6d42" x="156.042581" y="138.046154" style="stroke: #000000; stroke-width: 0.8"/>
      </g>
     </g>
     <g id="text_11">
      <!-- 0.4 -->
      <g transform="translate(133.139456 141.845373) scale(0.1 -0.1)">
       <use xlink:href="#DejaVuSans-30"/>
       <use xlink:href="#DejaVuSans-2e" x="63.623047"/>
       <use xlink:href="#DejaVuSans-34" x="95.410156"/>
      </g>
     </g>
    </g>
    <g id="ytick_6">
     <g id="line2d_37">
      <g>
       <use xlink:href="#m716aff6d42" x="156.042581" y="96.507692" style="stroke: #000000; stroke-width: 0.8"/>
      </g>
     </g>
     <g id="text_12">
      <!-- 0.6 -->
      <g transform="translate(133.139456 100.306911) scale(0.1 -0.1)">
       <use xlink:href="#DejaVuSans-30"/>
       <use xlink:href="#DejaVuSans-2e" x="63.623047"/>
       <use xlink:href="#DejaVuSans-36" x="95.410156"/>
      </g>
     </g>
    </g>
    <g id="ytick_7">
     <g id="line2d_38">
      <g>
       <use xlink:href="#m716aff6d42" x="156.042581" y="54.969231" style="stroke: #000000; stroke-width: 0.8"/>
      </g>
     </g>
     <g id="text_13">
      <!-- 0.8 -->
      <g transform="translate(133.139456 58.76845) scale(0.1 -0.1)">
       <use xlink:href="#DejaVuSans-30"/>
       <use xlink:href="#DejaVuSans-2e" x="63.623047"/>
       <use xlink:href="#DejaVuSans-38" x="95.410156"/>
      </g>
     </g>
    </g>
    <g id="ytick_8">
     <g id="line2d_39">
      <g>
       <use xlink:href="#m716aff6d42" x="156.042581" y="13.430769" style="stroke: #000000; stroke-width: 0.8"/>
      </g>
     </g>
     <g id="text_14">
      <!-- 1.0 -->
      <g transform="translate(133.139456 17.229988) scale(0.1 -0.1)">
       <use xlink:href="#DejaVuSans-31"/>
       <use xlink:href="#DejaVuSans-2e" x="63.623047"/>
       <use xlink:href="#DejaVuSans-30" x="95.410156"/>
      </g>
     </g>
    </g>
    <g id="ytick_9">
     <g id="line2d_40">
      <defs>
       <path id="maf147e637a" d="M 0 0 
L -2 0 
" style="stroke: #000000; stroke-width: 0.6"/>
      </defs>
      <g>
       <use xlink:href="#maf147e637a" x="156.042581" y="324.969231" style="stroke: #000000; stroke-width: 0.6"/>
      </g>
     </g>
    </g>
    <g id="ytick_10">
     <g id="line2d_41">
      <g>
       <use xlink:href="#maf147e637a" x="156.042581" y="314.584615" style="stroke: #000000; stroke-width: 0.6"/>
      </g>
     </g>
    </g>
    <g id="ytick_11">
     <g id="line2d_42">
      <g>
       <use xlink:href="#maf147e637a" x="156.042581" y="293.815385" style="stroke: #000000; stroke-width: 0.6"/>
      </g>
     </g>
    </g>
    <g id="ytick_12">
     <g id="line2d_43">
      <g>
       <use xlink:href="#maf147e637a" x="156.042581" y="283.430769" style="stroke: #000000; stroke-width: 0.6"/>
      </g>
     </g>
    </g>
    <g id="ytick_13">
     <g id="line2d_44">
      <g>
       <use xlink:href="#maf147e637a" x="156.042581" y="273.046154" style="stroke: #000000; stroke-width: 0.6"/>
      </g>
     </g>
    </g>
    <g id="ytick_14">
     <g id="line2d_45">
      <g>
       <use xlink:href="#maf147e637a" x="156.042581" y="252.276923" style="stroke: #000000; stroke-width: 0.6"/>
      </g>
     </g>
    </g>
    <g id="ytick_15">
     <g id="line2d_46">
      <g>
       <use xlink:href="#maf147e637a" x="156.042581" y="241.892308" style="stroke: #000000; stroke-width: 0.6"/>
      </g>
     </g>
    </g>
    <g id="ytick_16">
     <g id="line2d_47">
      <g>
       <use xlink:href="#maf147e637a" x="156.042581" y="231.507692" style="stroke: #000000; stroke-width: 0.6"/>
      </g>
     </g>
    </g>
    <g id="ytick_17">
     <g id="line2d_48">
      <g>
       <use xlink:href="#maf147e637a" x="156.042581" y="210.738462" style="stroke: #000000; stroke-width: 0.6"/>
      </g>
     </g>
    </g>
    <g id="ytick_18">
     <g id="line2d_49">
      <g>
       <use xlink:href="#maf147e637a" x="156.042581" y="200.353846" style="stroke: #000000; stroke-width: 0.6"/>
      </g>
     </g>
    </g>
    <g id="ytick_19">
     <g id="line2d_50">
      <g>
       <use xlink:href="#maf147e637a" x="156.042581" y="189.969231" style="stroke: #000000; stroke-width: 0.6"/>
      </g>
     </g>
    </g>
    <g id="ytick_20">
     <g id="line2d_51">
      <g>
       <use xlink:href="#maf147e637a" x="156.042581" y="169.2" style="stroke: #000000; stroke-width: 0.6"/>
      </g>
     </g>
    </g>
    <g id="ytick_21">
     <g id="line2d_52">
      <g>
       <use xlink:href="#maf147e637a" x="156.042581" y="158.815385" style="stroke: #000000; stroke-width: 0.6"/>
      </g>
     </g>
    </g>
    <g id="ytick_22">
     <g id="line2d_53">
      <g>
       <use xlink:href="#maf147e637a" x="156.042581" y="148.430769" style="stroke: #000000; stroke-width: 0.6"/>
      </g>
     </g>
    </g>
    <g id="ytick_23">
     <g id="line2d_54">
      <g>
       <use xlink:href="#maf147e637a" x="156.042581" y="127.661538" style="stroke: #000000; stroke-width: 0.6"/>
      </g>
     </g>
    </g>
    <g id="ytick_24">
     <g id="line2d_55">
      <g>
       <use xlink:href="#maf147e637a" x="156.042581" y="117.276923" style="stroke: #000000; stroke-width: 0.6"/>
      </g>
     </g>
    </g>
    <g id="ytick_25">
     <g id="line2d_56">
      <g>
       <use xlink:href="#maf147e637a" x="156.042581" y="106.892308" style="stroke: #000000; stroke-width: 0.6"/>
      </g>
     </g>
    </g>
    <g id="ytick_26">
     <g id="line2d_57">
      <g>
       <use xlink:href="#maf147e637a" x="156.042581" y="86.123077" style="stroke: #000000; stroke-width: 0.6"/>
      </g>
     </g>
    </g>
    <g id="ytick_27">
     <g id="line2d_58">
      <g>
       <use xlink:href="#maf147e637a" x="156.042581" y="75.738462" style="stroke: #000000; stroke-width: 0.6"/>
      </g>
     </g>
    </g>
    <g id="ytick_28">
     <g id="line2d_59">
      <g>
       <use xlink:href="#maf147e637a" x="156.042581" y="65.353846" style="stroke: #000000; stroke-width: 0.6"/>
      </g>
     </g>
    </g>
    <g id="ytick_29">
     <g id="line2d_60">
      <g>
       <use xlink:href="#maf147e637a" x="156.042581" y="44.584615" style="stroke: #000000; stroke-width: 0.6"/>
      </g>
     </g>
    </g>
    <g id="ytick_30">
     <g id="line2d_61">
      <g>
       <use xlink:href="#maf147e637a" x="156.042581" y="34.2" style="stroke: #000000; stroke-width: 0.6"/>
      </g>
     </g>
    </g>
    <g id="ytick_31">
     <g id="line2d_62">
      <g>
       <use xlink:href="#maf147e637a" x="156.042581" y="23.815385" style="stroke: #000000; stroke-width: 0.6"/>
      </g>
     </g>
    </g>
   </g>
   <g id="line2d_63">
    <path d="M 15.625052 324.969231 
L 436.877641 13.430769 
L 436.877641 13.430769 
" clip-path="url(#pa0f8f237f6)" style="fill: none; stroke: #0000cc; stroke-linecap: square"/>
   </g>
   <g id="line2d_64">
    <path d="M 15.625052 169.2 
L 23.460055 174.83274 
L 32.033637 180.62599 
L 40.458171 185.94142 
L 48.636698 190.744047 
L 54.97304 194.222701 
L 62.68109 198.169344 
L 69.458903 201.381137 
L 76.481071 204.45353 
L 84.309266 207.572444 
L 91.013846 209.987098 
L 99.750583 212.77837 
L 107.960152 215.034854 
L 115.148841 216.719238 
L 121.356706 217.9548 
L 127.925575 219.041196 
L 135.733591 220.036915 
L 143.30758 220.69599 
L 148.162813 220.959567 
L 156.367874 221.122798 
L 161.877787 221.03341 
L 167.121179 220.799865 
L 173.400686 220.329622 
L 182.000393 219.348667 
L 190.041989 218.078966 
L 197.224342 216.656986 
L 203.897291 215.092385 
L 211.296463 213.083312 
L 218.212116 210.94483 
L 225.254016 208.508477 
L 232.170744 205.861182 
L 237.135011 203.805848 
L 244.797713 200.378494 
L 251.990578 196.879897 
L 258.69897 193.371368 
L 266.382244 189.061781 
L 273.703498 184.665969 
L 280.253989 180.493647 
L 286.257441 176.471289 
L 292.361748 172.186723 
L 300.522246 166.152383 
L 309.304876 159.26614 
L 316.944088 152.946062 
L 323.886888 146.935533 
L 331.582435 139.976682 
L 339.530467 132.462091 
L 348.664253 123.415541 
L 355.253359 116.616547 
L 362.537568 108.834187 
L 368.599872 102.144224 
L 378.141522 91.222602 
L 385.073142 82.987789 
L 393.96708 72.051072 
L 403.390154 60.009155 
L 410.542093 50.557389 
L 420.207865 37.355348 
L 428.734564 25.300616 
L 436.877641 13.430769 
L 436.877641 13.430769 
" clip-path="url(#pa0f8f237f6)" style="fill: none; stroke: #3ccc00; stroke-linecap: square"/>
   </g>
   <g id="patch_4">
    <path d="M 156.042581 331.2 
L 156.042581 7.2 
" style="fill: none; stroke: #000000; stroke-width: 0.8; stroke-linejoin: miter; stroke-linecap: square"/>
   </g>
   <g id="patch_5">
    <path d="M 7.2 221.123077 
L 445.302692 221.123077 
" style="fill: none; stroke: #000000; stroke-width: 0.8; stroke-linejoin: miter; stroke-linecap: square"/>
   </g>
  </g>
 </g>
 <defs>
  <clipPath id="pa0f8f237f6">
   <rect x="7.2" y="7.2" width="438.102692" height="324"/>
  </clipPath>
 </defs>
</svg>
