<?xml version="1.0" encoding="utf-8" standalone="no"?>
<!DOCTYPE svg PUBLIC "-//W3C//DTD SVG 1.1//EN"
  "http://www.w3.org/Graphics/SVG/1.1/DTD/svg11.dtd">
<svg xmlns:xlink="http://www.w3.org/1999/xlink" width="453.6pt" height="338.4pt" viewBox="0 0 453.6 338.4" xmlns="http://www.w3.org/2000/svg" version="1.1">
 <metadata>
  <rdf:RDF xmlns:dc="http://purl.org/dc/elements/1.1/" xmlns:cc="http://creativecommons.org/ns#" xmlns:rdf="http://www.w3.org/1999/02/22-rdf-syntax-ns#">
   <cc:Work>
    <dc:type rdf:resource="http://purl.org/dc/dcmitype/StillImage"/>
    <dc:date>2023-02-10T21:05:38.776406</dc:date>
    <dc:format>image/svg+xml</dc:format>
    <dc:creator>
     <cc:Agent>
      <dc:title>Matplotlib v3.5.2, https://matplotlib.org/</dc:title>
     </cc:Agent>
    </dc:creator>
   </cc:Work>
  </rdf:RDF>
 </metadata>
 <defs>
  <style type="text/css">*{stroke-linejoin: round; stroke-linecap: butt}</style>
 </defs>
 <g id="figure_1">
  <g id="patch_1">
   <path d="M 0 338.4 
L 453.6 338.4 
L 453.6 0 
L 0 0 
L 0 338.4 
z
" style="fill: none"/>
  </g>
  <g id="axes_1">
   <g id="patch_2">
    <path d="M 7.2 331.2 
L 446.4 331.2 
L 446.4 7.2 
L 7.2 7.2 
L 7.2 331.2 
z
" style="fill: none"/>
   </g>
   <g id="patch_3">
    <path d="M 437.953846 13.430769 
L 436.538707 15.513433 
L 433.539914 19.892078 
L 431.892259 22.277819 
L 428.929997 26.531278 
L 427.068004 29.181343 
L 425.434966 31.490594 
L 423.017872 34.882915 
L 420.566187 38.292506 
L 418.368041 41.322716 
L 417.490903 42.524808 
L 415.144741 45.720342 
L 412.131165 49.782587 
L 409.330669 53.514941 
L 407.490484 55.945066 
L 406.161921 57.688519 
L 403.452802 61.214992 
L 402.341457 62.65051 
L 399.928911 65.744506 
L 398.419491 67.664765 
L 394.866582 72.137592 
L 392.426242 75.17146 
L 391.115817 76.787722 
L 388.138513 80.426441 
L 387.262237 81.488536 
L 385.132971 84.052555 
L 382.458615 87.2393 
L 381.280538 88.631197 
L 378.039945 92.422433 
L 377.385434 93.181479 
L 374.603432 96.382756 
L 371.642035 99.745897 
L 370.427968 101.111383 
L 368.743113 102.993575 
L 366.138762 105.873688 
L 364.104054 108.099108 
L 361.590532 110.818266 
L 358.41085 114.210651 
L 356.590562 116.128857 
L 355.825008 116.930406 
L 353.929853 118.901453 
L 351.117415 121.791825 
L 348.767342 124.175231 
L 346.392748 126.554107 
L 344.031931 128.889889 
L 342.411198 130.476526 
L 340.812747 132.027867 
L 338.054408 134.673422 
L 336.235597 136.396052 
L 333.365534 139.07908 
L 331.019639 141.240036 
L 330.398443 141.807431 
L 327.362765 144.551103 
L 324.461323 147.128314 
L 323.315044 148.13434 
L 321.948723 149.324491 
L 318.422668 152.350702 
L 317.274678 153.321896 
L 314.195222 155.89299 
L 313.299821 156.631252 
L 311.0932 158.432682 
L 307.476625 161.329982 
L 306.554033 162.058112 
L 304.801387 163.429055 
L 302.239373 165.404132 
L 300.868391 166.446903 
L 297.457703 168.998347 
L 295.722062 170.273328 
L 292.976321 172.258075 
L 291.041481 173.632937 
L 288.706996 175.265663 
L 287.70459 175.957976 
L 286.131395 177.033888 
L 282.17972 179.679241 
L 281.857959 179.891033 
L 277.956945 182.415627 
L 276.744234 183.1842 
L 275.599734 183.902474 
L 271.530923 186.400429 
L 269.369821 187.691911 
L 268.761788 188.050861 
L 265.467566 189.961914 
L 262.966074 191.375097 
L 262.71572 191.514726 
L 259.881098 193.072754 
L 257.947668 194.111294 
L 256.279484 194.991614 
L 253.92857 196.20746 
L 251.060683 197.651459 
L 249.281382 198.525681 
L 246.607556 199.80821 
L 245.039727 200.54281 
L 243.369731 201.311113 
L 241.531955 202.139713 
L 238.09371 203.642386 
L 236.453219 204.337526 
L 233.687425 205.477568 
L 231.712772 206.266979 
L 230.031445 206.92302 
L 228.771815 207.404811 
L 225.731048 208.533599 
L 223.69715 209.261575 
L 220.956814 210.208118 
L 218.921817 210.885566 
L 216.334953 211.715402 
L 214.272205 212.351977 
L 213.583982 212.559405 
L 210.276965 213.52151 
L 208.610041 213.98474 
L 205.992678 214.682711 
L 204.188151 215.143014 
L 203.117166 215.408135 
L 201.02411 215.908914 
L 197.440888 216.712933 
L 195.641748 217.091258 
L 194.764352 217.269604 
L 191.178304 217.956592 
L 190.532748 218.073105 
L 187.720062 218.555264 
L 185.761132 218.866577 
L 183.100593 219.257187 
L 181.514154 219.472447 
L 179.745456 219.696888 
L 176.722365 220.04255 
L 174.069131 220.306459 
L 172.972692 220.404746 
L 170.637217 220.593101 
L 168.325623 220.751383 
L 165.963199 220.884212 
L 165.09104 220.925858 
L 161.844196 221.045853 
L 159.442834 221.099061 
L 158.301286 221.113758 
L 154.92411 221.11725 
L 152.654853 221.086022 
L 151.128891 221.049848 
L 150.377218 221.027544 
L 147.683091 220.923274 
L 144.948355 220.778531 
L 142.153319 220.590098 
L 139.957661 220.413361 
L 138.107534 220.244824 
L 136.485742 220.082333 
L 134.738433 219.891841 
L 133.017241 219.688553 
L 130.739832 219.39571 
L 128.333813 219.056804 
L 125.618625 218.637913 
L 123.24504 218.240075 
L 122.313661 218.075901 
L 119.69502 217.589953 
L 118.441813 217.344678 
L 114.604185 216.542394 
L 113.753049 216.354001 
L 111.343029 215.799967 
L 108.033047 214.989432 
L 107.917361 214.960065 
L 105.759608 214.399461 
L 102.786632 213.587086 
L 101.11435 213.109776 
L 99.263328 212.56436 
L 95.668805 211.45392 
L 93.134011 210.630148 
L 92.392184 210.382695 
L 89.19726 209.284003 
L 86.783617 208.418512 
L 84.711825 207.651254 
L 83.111866 207.043339 
L 80.750649 206.12167 
L 79.889135 205.778115 
L 77.026707 204.608704 
L 75.546151 203.986992 
L 72.166503 202.524778 
L 69.887337 201.504895 
L 68.364212 200.808151 
L 65.622126 199.523156 
L 64.209638 198.845861 
L 61.301466 197.418452 
L 61.04706 197.291474 
L 57.601836 195.538518 
L 56.138258 194.775013 
L 54.413258 193.86072 
L 50.997392 192.004213 
L 49.416506 191.12431 
L 47.936523 190.2887 
L 45.458831 188.86408 
L 43.369276 187.637624 
L 42.002254 186.822874 
L 39.590614 185.361652 
L 37.147314 183.850164 
L 35.169089 182.603465 
L 32.671312 181.000044 
L 31.147459 180.005765 
L 29.428323 178.86946 
L 26.132134 176.647446 
L 25.160211 175.981388 
L 21.20207 173.217744 
L 20.319001 172.589967 
L 18.53515 171.309358 
L 15.646154 169.2 
L 15.646154 324.969231 
L 18.203069 323.082982 
L 19.179554 322.362624 
L 21.616334 320.565 
L 23.587172 319.111103 
L 26.238832 317.15496 
L 27.835868 315.976819 
L 30.238463 314.204412 
L 31.63051 313.177493 
L 34.29659 311.210713 
L 37.169946 309.091024 
L 38.004387 308.475452 
L 41.780559 305.689752 
L 42.958861 304.820513 
L 46.188486 302.438002 
L 47.447222 301.509427 
L 48.812761 300.502062 
L 51.378077 298.609615 
L 53.377549 297.134595 
L 56.784303 294.621416 
L 58.978807 293.002519 
L 60.873049 291.605128 
L 61.658631 291.0256 
L 65.144244 288.454246 
L 67.196432 286.940337 
L 68.489287 285.986592 
L 70.247106 284.68984 
L 71.98524 283.40761 
L 75.335057 280.936433 
L 78.033447 278.945817 
L 79.56085 277.819045 
L 81.604452 276.31147 
L 84.09831 274.471738 
L 85.102576 273.730886 
L 87.230858 272.160843 
L 88.868767 270.952549 
L 91.274195 269.178053 
L 93.644063 267.42979 
L 96.329826 265.448489 
L 97.746902 264.403105 
L 100.096126 262.670071 
L 102.826962 260.65552 
L 103.776158 259.955294 
L 106.97915 257.592431 
L 108.123488 256.748246 
L 111.726272 254.090455 
L 112.255665 253.699919 
L 116.011354 250.929329 
L 118.446346 249.133024 
L 120.377924 247.708089 
L 120.867188 247.347156 
L 123.56757 245.355071 
L 125.256491 244.109146 
L 128.704688 241.565394 
L 130.715742 240.08183 
L 132.128618 239.039544 
L 134.337682 237.409907 
L 136.571076 235.762321 
L 139.757917 233.411373 
L 140.349946 232.97463 
L 142.190814 231.616613 
L 145.843371 228.922103 
L 146.595881 228.366973 
L 150.236594 225.681201 
L 152.191603 224.238982 
L 154.440926 222.579645 
L 156.332311 221.184361 
L 157.243057 220.512499 
L 159.524045 218.829803 
L 162.694227 216.491144 
L 164.763623 214.96454 
L 165.702488 214.271935 
L 167.922116 212.634505 
L 170.048009 211.066223 
L 172.615143 209.172436 
L 174.85286 207.521661 
L 176.744994 206.125824 
L 179.636268 203.992917 
L 180.767375 203.158494 
L 182.840473 201.62916 
L 184.733639 200.232561 
L 188.43434 197.502536 
L 190.291436 196.132548 
L 190.765688 195.782689 
L 193.375105 193.85771 
L 196.283073 191.712487 
L 198.292553 190.230084 
L 200.710048 188.446686 
L 203.429052 186.440863 
L 205.101817 185.206856 
L 206.729264 184.006281 
L 207.787413 183.225679 
L 210.624464 181.132773 
L 213.508618 179.005118 
L 214.671702 178.147105 
L 218.262363 175.498257 
L 219.867066 174.31446 
L 222.142375 172.635953 
L 223.202225 171.854096 
L 226.62472 169.329305 
L 228.512987 167.936321 
L 229.212351 167.420397 
L 231.11434 166.01729 
L 233.61834 164.170077 
L 237.108973 161.59502 
L 237.428668 161.35918 
L 239.664133 159.710066 
L 242.487036 157.627597 
L 245.605292 155.327244 
L 247.414725 153.992416 
L 248.36022 153.29492 
L 251.785918 150.767766 
L 252.902808 149.94383 
L 254.525935 148.746441 
L 257.456775 146.584346 
L 259.050224 145.408851 
L 262.124379 143.141032 
L 263.808022 141.899 
L 266.127271 140.188079 
L 268.37831 138.527476 
L 270.903825 136.664392 
L 272.907769 135.186072 
L 273.591165 134.681927 
L 277.370311 131.894033 
L 279.29816 130.471849 
L 281.826882 128.606398 
L 283.060235 127.696548 
L 285.840085 125.645839 
L 287.610383 124.339881 
L 290.234191 122.404285 
L 292.206526 120.949284 
L 293.608335 119.915163 
L 294.903756 118.959524 
L 297.837663 116.795167 
L 299.30042 115.716084 
L 301.43717 114.139793 
L 303.941973 112.291987 
L 306.35902 110.50892 
L 308.387174 109.01274 
L 311.519386 106.702092 
L 313.117871 105.522882 
L 314.917143 104.19555 
L 317.904578 101.991705 
L 318.543985 101.520011 
L 321.61032 99.25796 
L 323.232451 98.061307 
L 324.997659 96.759104 
L 326.913588 95.345714 
L 330.348504 92.811759 
L 331.582736 91.90126 
L 334.784423 89.53936 
L 336.9948 87.908754 
L 338.285158 86.95685 
L 340.465723 85.348237 
L 342.952593 83.513661 
L 345.592677 81.566058 
L 347.596561 80.087783 
L 348.616306 79.335512 
L 351.794365 76.991042 
L 352.664134 76.349409 
L 355.199601 74.478983 
L 358.036269 72.386359 
L 360.086712 70.873737 
L 361.572188 69.777894 
L 364.033117 67.962454 
L 364.826188 67.377402 
L 367.693924 65.261859 
L 369.390324 64.010417 
L 372.322986 61.846978 
L 374.608676 60.160813 
L 375.456638 59.535267 
L 378.558007 57.247372 
L 381.090656 55.379024 
L 382.73864 54.163299 
L 384.983881 52.506973 
L 387.903531 50.353133 
L 389.010234 49.536713 
L 390.625473 48.345143 
L 392.384698 47.047354 
L 395.441805 44.792111 
L 397.452195 43.309036 
L 400.311684 41.199577 
L 402.227504 39.786268 
L 403.411339 38.912947 
L 406.819001 36.399098 
L 407.996672 35.530324 
L 411.301613 33.092253 
L 411.472366 32.966287 
L 415.169253 30.239076 
L 416.752698 29.070961 
L 418.769263 27.583331 
L 420.478713 26.322261 
L 422.236237 25.025727 
L 424.42705 23.409553 
L 426.768827 21.682013 
L 430.268716 19.100127 
L 432.082229 17.76229 
L 434.26454 16.152388 
L 436.738698 14.32719 
z
" clip-path="url(#p605f7f4516)" style="fill: #b2b3ff; opacity: 0.5"/>
   </g>
   <g id="matplotlib.axis_1">
    <g id="xtick_1">
     <g id="line2d_1">
      <defs>
       <path id="m25d41f0f15" d="M 0 0 
L 0 3.5 
" style="stroke: #000000; stroke-width: 0.8"/>
      </defs>
      <g>
       <use xlink:href="#m25d41f0f15" x="43.8" y="221.123077" style="stroke: #000000; stroke-width: 0.8"/>
      </g>
     </g>
     <g id="text_1">
      <!-- $\mathdefault{−0.4}$ -->
      <g transform="translate(33.560589 235.041575)scale(0.1 -0.1)">
       <defs>
        <path id="CMSY10-0" d="M 4218 1472 
C 4326 1472 4442 1472 4442 1600 
C 4442 1728 4326 1728 4218 1728 
L 755 1728 
C 646 1728 531 1728 531 1600 
C 531 1472 646 1472 755 1472 
L 4218 1472 
z
" transform="scale(0.015625)"/>
        <path id="CMR17-30" d="M 2688 2038 
C 2688 2430 2682 3099 2413 3613 
C 2176 4063 1798 4224 1466 4224 
C 1158 4224 768 4082 525 3620 
C 269 3137 243 2539 243 2038 
C 243 1671 250 1112 448 623 
C 723 -39 1216 -128 1466 -128 
C 1760 -128 2208 -7 2470 604 
C 2662 1048 2688 1568 2688 2038 
z
M 1466 -26 
C 1056 -26 813 328 723 816 
C 653 1196 653 1749 653 2109 
C 653 2604 653 3015 736 3407 
C 858 3954 1216 4121 1466 4121 
C 1728 4121 2067 3947 2189 3420 
C 2272 3054 2278 2623 2278 2109 
C 2278 1691 2278 1176 2202 797 
C 2067 96 1690 -26 1466 -26 
z
" transform="scale(0.015625)"/>
        <path id="CMMI12-3a" d="M 1178 307 
C 1178 492 1024 620 870 620 
C 685 620 557 467 557 313 
C 557 128 710 0 864 0 
C 1050 0 1178 153 1178 307 
z
" transform="scale(0.015625)"/>
        <path id="CMR17-34" d="M 2150 4147 
C 2150 4281 2144 4288 2029 4288 
L 128 1254 
L 128 1088 
L 1779 1088 
L 1779 460 
C 1779 230 1766 166 1318 166 
L 1197 166 
L 1197 0 
C 1402 12 1747 12 1965 12 
C 2182 12 2528 12 2733 0 
L 2733 166 
L 2611 166 
C 2163 166 2150 230 2150 460 
L 2150 1088 
L 2803 1088 
L 2803 1254 
L 2150 1254 
L 2150 4147 
z
M 1798 3723 
L 1798 1254 
L 256 1254 
L 1798 3723 
z
" transform="scale(0.015625)"/>
       </defs>
       <use xlink:href="#CMSY10-0" transform="scale(0.996264)"/>
       <use xlink:href="#CMR17-30" transform="translate(77.487468 0)scale(0.996264)"/>
       <use xlink:href="#CMMI12-3a" transform="translate(123.177945 0)scale(0.996264)"/>
       <use xlink:href="#CMR17-34" transform="translate(150.275122 0)scale(0.996264)"/>
      </g>
     </g>
    </g>
    <g id="xtick_2">
     <g id="line2d_2">
      <g>
       <use xlink:href="#m25d41f0f15" x="100.107692" y="221.123077" style="stroke: #000000; stroke-width: 0.8"/>
      </g>
     </g>
     <g id="text_2">
      <!-- $\mathdefault{−0.2}$ -->
      <g transform="translate(89.868281 235.041575)scale(0.1 -0.1)">
       <defs>
        <path id="CMR17-32" d="M 2669 990 
L 2554 990 
C 2490 537 2438 460 2413 422 
C 2381 371 1920 371 1830 371 
L 602 371 
C 832 620 1280 1073 1824 1596 
C 2214 1966 2669 2400 2669 3033 
C 2669 3788 2067 4224 1395 4224 
C 691 4224 262 3603 262 3027 
C 262 2777 448 2745 525 2745 
C 589 2745 781 2783 781 3007 
C 781 3206 614 3264 525 3264 
C 486 3264 448 3257 422 3244 
C 544 3788 915 4057 1306 4057 
C 1862 4057 2227 3616 2227 3033 
C 2227 2477 1901 1998 1536 1583 
L 262 147 
L 262 0 
L 2515 0 
L 2669 990 
z
" transform="scale(0.015625)"/>
       </defs>
       <use xlink:href="#CMSY10-0" transform="scale(0.996264)"/>
       <use xlink:href="#CMR17-30" transform="translate(77.487468 0)scale(0.996264)"/>
       <use xlink:href="#CMMI12-3a" transform="translate(123.177945 0)scale(0.996264)"/>
       <use xlink:href="#CMR17-32" transform="translate(150.275122 0)scale(0.996264)"/>
      </g>
     </g>
    </g>
    <g id="xtick_3">
     <g id="line2d_3">
      <g>
       <use xlink:href="#m25d41f0f15" x="156.415385" y="221.123077" style="stroke: #000000; stroke-width: 0.8"/>
      </g>
     </g>
    </g>
    <g id="xtick_4">
     <g id="line2d_4">
      <g>
       <use xlink:href="#m25d41f0f15" x="212.723077" y="221.123077" style="stroke: #000000; stroke-width: 0.8"/>
      </g>
     </g>
     <g id="text_3">
      <!-- $\mathdefault{0.2}$ -->
      <g transform="translate(206.358037 235.041575)scale(0.1 -0.1)">
       <use xlink:href="#CMR17-30" transform="scale(0.996264)"/>
       <use xlink:href="#CMMI12-3a" transform="translate(45.690477 0)scale(0.996264)"/>
       <use xlink:href="#CMR17-32" transform="translate(72.787654 0)scale(0.996264)"/>
      </g>
     </g>
    </g>
    <g id="xtick_5">
     <g id="line2d_5">
      <g>
       <use xlink:href="#m25d41f0f15" x="269.030769" y="221.123077" style="stroke: #000000; stroke-width: 0.8"/>
      </g>
     </g>
     <g id="text_4">
      <!-- $\mathdefault{0.4}$ -->
      <g transform="translate(262.66573 235.041575)scale(0.1 -0.1)">
       <use xlink:href="#CMR17-30" transform="scale(0.996264)"/>
       <use xlink:href="#CMMI12-3a" transform="translate(45.690477 0)scale(0.996264)"/>
       <use xlink:href="#CMR17-34" transform="translate(72.787654 0)scale(0.996264)"/>
      </g>
     </g>
    </g>
    <g id="xtick_6">
     <g id="line2d_6">
      <g>
       <use xlink:href="#m25d41f0f15" x="325.338462" y="221.123077" style="stroke: #000000; stroke-width: 0.8"/>
      </g>
     </g>
     <g id="text_5">
      <!-- $\mathdefault{0.6}$ -->
      <g transform="translate(318.973422 235.041575)scale(0.1 -0.1)">
       <defs>
        <path id="CMR17-36" d="M 678 2198 
C 678 3712 1395 4076 1811 4076 
C 1946 4076 2272 4049 2400 3782 
C 2298 3782 2106 3782 2106 3558 
C 2106 3385 2246 3328 2336 3328 
C 2394 3328 2566 3353 2566 3571 
C 2566 3987 2246 4224 1805 4224 
C 1043 4224 243 3411 243 2011 
C 243 257 966 -128 1478 -128 
C 2099 -128 2688 431 2688 1295 
C 2688 2101 2170 2688 1517 2688 
C 1126 2688 838 2430 678 1979 
L 678 2198 
z
M 1478 25 
C 691 25 691 1212 691 1450 
C 691 1914 909 2585 1504 2585 
C 1613 2585 1926 2585 2138 2140 
C 2253 1889 2253 1624 2253 1302 
C 2253 954 2253 696 2118 438 
C 1978 173 1773 25 1478 25 
z
" transform="scale(0.015625)"/>
       </defs>
       <use xlink:href="#CMR17-30" transform="scale(0.996264)"/>
       <use xlink:href="#CMMI12-3a" transform="translate(45.690477 0)scale(0.996264)"/>
       <use xlink:href="#CMR17-36" transform="translate(72.787654 0)scale(0.996264)"/>
      </g>
     </g>
    </g>
    <g id="xtick_7">
     <g id="line2d_7">
      <g>
       <use xlink:href="#m25d41f0f15" x="381.646154" y="221.123077" style="stroke: #000000; stroke-width: 0.8"/>
      </g>
     </g>
     <g id="text_6">
      <!-- $\mathdefault{0.8}$ -->
      <g transform="translate(375.281114 235.041575)scale(0.1 -0.1)">
       <defs>
        <path id="CMR17-38" d="M 1741 2289 
C 2144 2494 2554 2803 2554 3298 
C 2554 3884 1990 4224 1472 4224 
C 890 4224 378 3800 378 3215 
C 378 3054 416 2777 666 2533 
C 730 2469 998 2276 1171 2154 
C 883 2006 211 1652 211 945 
C 211 282 838 -128 1459 -128 
C 2144 -128 2720 366 2720 1022 
C 2720 1607 2330 1877 2074 2051 
L 1741 2289 
z
M 902 2855 
C 851 2887 595 3086 595 3388 
C 595 3781 998 4076 1459 4076 
C 1965 4076 2336 3716 2336 3298 
C 2336 2700 1670 2359 1638 2359 
C 1632 2359 1626 2359 1574 2398 
L 902 2855 
z
M 2080 1536 
C 2176 1466 2483 1253 2483 861 
C 2483 385 2010 25 1472 25 
C 890 25 448 443 448 951 
C 448 1459 838 1884 1280 2083 
L 2080 1536 
z
" transform="scale(0.015625)"/>
       </defs>
       <use xlink:href="#CMR17-30" transform="scale(0.996264)"/>
       <use xlink:href="#CMMI12-3a" transform="translate(45.690477 0)scale(0.996264)"/>
       <use xlink:href="#CMR17-38" transform="translate(72.787654 0)scale(0.996264)"/>
      </g>
     </g>
    </g>
    <g id="xtick_8">
     <g id="line2d_8">
      <g>
       <use xlink:href="#m25d41f0f15" x="437.953846" y="221.123077" style="stroke: #000000; stroke-width: 0.8"/>
      </g>
     </g>
     <g id="text_7">
      <!-- $\mathdefault{1.0}$ -->
      <g transform="translate(431.588807 235.041575)scale(0.1 -0.1)">
       <defs>
        <path id="CMR17-31" d="M 1702 4083 
C 1702 4217 1696 4224 1606 4224 
C 1357 3927 979 3833 621 3820 
C 602 3820 570 3820 563 3808 
C 557 3795 557 3782 557 3648 
C 755 3648 1088 3686 1344 3839 
L 1344 467 
C 1344 243 1331 166 781 166 
L 589 166 
L 589 0 
C 896 6 1216 12 1523 12 
C 1830 12 2150 6 2458 0 
L 2458 166 
L 2266 166 
C 1715 166 1702 236 1702 467 
L 1702 4083 
z
" transform="scale(0.015625)"/>
       </defs>
       <use xlink:href="#CMR17-31" transform="scale(0.996264)"/>
       <use xlink:href="#CMMI12-3a" transform="translate(45.690477 0)scale(0.996264)"/>
       <use xlink:href="#CMR17-30" transform="translate(72.787654 0)scale(0.996264)"/>
      </g>
     </g>
    </g>
    <g id="xtick_9">
     <g id="line2d_9">
      <defs>
       <path id="m49b20cb3c6" d="M 0 0 
L 0 2 
" style="stroke: #000000; stroke-width: 0.6"/>
      </defs>
      <g>
       <use xlink:href="#m49b20cb3c6" x="15.646154" y="221.123077" style="stroke: #000000; stroke-width: 0.6"/>
      </g>
     </g>
    </g>
    <g id="xtick_10">
     <g id="line2d_10">
      <g>
       <use xlink:href="#m49b20cb3c6" x="29.723077" y="221.123077" style="stroke: #000000; stroke-width: 0.6"/>
      </g>
     </g>
    </g>
    <g id="xtick_11">
     <g id="line2d_11">
      <g>
       <use xlink:href="#m49b20cb3c6" x="57.876923" y="221.123077" style="stroke: #000000; stroke-width: 0.6"/>
      </g>
     </g>
    </g>
    <g id="xtick_12">
     <g id="line2d_12">
      <g>
       <use xlink:href="#m49b20cb3c6" x="71.953846" y="221.123077" style="stroke: #000000; stroke-width: 0.6"/>
      </g>
     </g>
    </g>
    <g id="xtick_13">
     <g id="line2d_13">
      <g>
       <use xlink:href="#m49b20cb3c6" x="86.030769" y="221.123077" style="stroke: #000000; stroke-width: 0.6"/>
      </g>
     </g>
    </g>
    <g id="xtick_14">
     <g id="line2d_14">
      <g>
       <use xlink:href="#m49b20cb3c6" x="114.184615" y="221.123077" style="stroke: #000000; stroke-width: 0.6"/>
      </g>
     </g>
    </g>
    <g id="xtick_15">
     <g id="line2d_15">
      <g>
       <use xlink:href="#m49b20cb3c6" x="128.261538" y="221.123077" style="stroke: #000000; stroke-width: 0.6"/>
      </g>
     </g>
    </g>
    <g id="xtick_16">
     <g id="line2d_16">
      <g>
       <use xlink:href="#m49b20cb3c6" x="142.338462" y="221.123077" style="stroke: #000000; stroke-width: 0.6"/>
      </g>
     </g>
    </g>
    <g id="xtick_17">
     <g id="line2d_17">
      <g>
       <use xlink:href="#m49b20cb3c6" x="170.492308" y="221.123077" style="stroke: #000000; stroke-width: 0.6"/>
      </g>
     </g>
    </g>
    <g id="xtick_18">
     <g id="line2d_18">
      <g>
       <use xlink:href="#m49b20cb3c6" x="184.569231" y="221.123077" style="stroke: #000000; stroke-width: 0.6"/>
      </g>
     </g>
    </g>
    <g id="xtick_19">
     <g id="line2d_19">
      <g>
       <use xlink:href="#m49b20cb3c6" x="198.646154" y="221.123077" style="stroke: #000000; stroke-width: 0.6"/>
      </g>
     </g>
    </g>
    <g id="xtick_20">
     <g id="line2d_20">
      <g>
       <use xlink:href="#m49b20cb3c6" x="226.8" y="221.123077" style="stroke: #000000; stroke-width: 0.6"/>
      </g>
     </g>
    </g>
    <g id="xtick_21">
     <g id="line2d_21">
      <g>
       <use xlink:href="#m49b20cb3c6" x="240.876923" y="221.123077" style="stroke: #000000; stroke-width: 0.6"/>
      </g>
     </g>
    </g>
    <g id="xtick_22">
     <g id="line2d_22">
      <g>
       <use xlink:href="#m49b20cb3c6" x="254.953846" y="221.123077" style="stroke: #000000; stroke-width: 0.6"/>
      </g>
     </g>
    </g>
    <g id="xtick_23">
     <g id="line2d_23">
      <g>
       <use xlink:href="#m49b20cb3c6" x="283.107692" y="221.123077" style="stroke: #000000; stroke-width: 0.6"/>
      </g>
     </g>
    </g>
    <g id="xtick_24">
     <g id="line2d_24">
      <g>
       <use xlink:href="#m49b20cb3c6" x="297.184615" y="221.123077" style="stroke: #000000; stroke-width: 0.6"/>
      </g>
     </g>
    </g>
    <g id="xtick_25">
     <g id="line2d_25">
      <g>
       <use xlink:href="#m49b20cb3c6" x="311.261538" y="221.123077" style="stroke: #000000; stroke-width: 0.6"/>
      </g>
     </g>
    </g>
    <g id="xtick_26">
     <g id="line2d_26">
      <g>
       <use xlink:href="#m49b20cb3c6" x="339.415385" y="221.123077" style="stroke: #000000; stroke-width: 0.6"/>
      </g>
     </g>
    </g>
    <g id="xtick_27">
     <g id="line2d_27">
      <g>
       <use xlink:href="#m49b20cb3c6" x="353.492308" y="221.123077" style="stroke: #000000; stroke-width: 0.6"/>
      </g>
     </g>
    </g>
    <g id="xtick_28">
     <g id="line2d_28">
      <g>
       <use xlink:href="#m49b20cb3c6" x="367.569231" y="221.123077" style="stroke: #000000; stroke-width: 0.6"/>
      </g>
     </g>
    </g>
    <g id="xtick_29">
     <g id="line2d_29">
      <g>
       <use xlink:href="#m49b20cb3c6" x="395.723077" y="221.123077" style="stroke: #000000; stroke-width: 0.6"/>
      </g>
     </g>
    </g>
    <g id="xtick_30">
     <g id="line2d_30">
      <g>
       <use xlink:href="#m49b20cb3c6" x="409.8" y="221.123077" style="stroke: #000000; stroke-width: 0.6"/>
      </g>
     </g>
    </g>
    <g id="xtick_31">
     <g id="line2d_31">
      <g>
       <use xlink:href="#m49b20cb3c6" x="423.876923" y="221.123077" style="stroke: #000000; stroke-width: 0.6"/>
      </g>
     </g>
    </g>
   </g>
   <g id="matplotlib.axis_2">
    <g id="ytick_1">
     <g id="line2d_32">
      <defs>
       <path id="mf4d8581181" d="M 0 0 
L -3.5 0 
" style="stroke: #000000; stroke-width: 0.8"/>
      </defs>
      <g>
       <use xlink:href="#mf4d8581181" x="156.415385" y="304.2" style="stroke: #000000; stroke-width: 0.8"/>
      </g>
     </g>
     <g id="text_8">
      <!-- $\mathdefault{−0.4}$ -->
      <g transform="translate(128.936562 307.659249)scale(0.1 -0.1)">
       <use xlink:href="#CMSY10-0" transform="scale(0.996264)"/>
       <use xlink:href="#CMR17-30" transform="translate(77.487468 0)scale(0.996264)"/>
       <use xlink:href="#CMMI12-3a" transform="translate(123.177945 0)scale(0.996264)"/>
       <use xlink:href="#CMR17-34" transform="translate(150.275122 0)scale(0.996264)"/>
      </g>
     </g>
    </g>
    <g id="ytick_2">
     <g id="line2d_33">
      <g>
       <use xlink:href="#mf4d8581181" x="156.415385" y="262.661538" style="stroke: #000000; stroke-width: 0.8"/>
      </g>
     </g>
     <g id="text_9">
      <!-- $\mathdefault{−0.2}$ -->
      <g transform="translate(128.936562 266.120788)scale(0.1 -0.1)">
       <use xlink:href="#CMSY10-0" transform="scale(0.996264)"/>
       <use xlink:href="#CMR17-30" transform="translate(77.487468 0)scale(0.996264)"/>
       <use xlink:href="#CMMI12-3a" transform="translate(123.177945 0)scale(0.996264)"/>
       <use xlink:href="#CMR17-32" transform="translate(150.275122 0)scale(0.996264)"/>
      </g>
     </g>
    </g>
    <g id="ytick_3">
     <g id="line2d_34">
      <g>
       <use xlink:href="#mf4d8581181" x="156.415385" y="221.123077" style="stroke: #000000; stroke-width: 0.8"/>
      </g>
     </g>
    </g>
    <g id="ytick_4">
     <g id="line2d_35">
      <g>
       <use xlink:href="#mf4d8581181" x="156.415385" y="179.584615" style="stroke: #000000; stroke-width: 0.8"/>
      </g>
     </g>
     <g id="text_10">
      <!-- $\mathdefault{0.2}$ -->
      <g transform="translate(136.685306 183.043865)scale(0.1 -0.1)">
       <use xlink:href="#CMR17-30" transform="scale(0.996264)"/>
       <use xlink:href="#CMMI12-3a" transform="translate(45.690477 0)scale(0.996264)"/>
       <use xlink:href="#CMR17-32" transform="translate(72.787654 0)scale(0.996264)"/>
      </g>
     </g>
    </g>
    <g id="ytick_5">
     <g id="line2d_36">
      <g>
       <use xlink:href="#mf4d8581181" x="156.415385" y="138.046154" style="stroke: #000000; stroke-width: 0.8"/>
      </g>
     </g>
     <g id="text_11">
      <!-- $\mathdefault{0.4}$ -->
      <g transform="translate(136.685306 141.505403)scale(0.1 -0.1)">
       <use xlink:href="#CMR17-30" transform="scale(0.996264)"/>
       <use xlink:href="#CMMI12-3a" transform="translate(45.690477 0)scale(0.996264)"/>
       <use xlink:href="#CMR17-34" transform="translate(72.787654 0)scale(0.996264)"/>
      </g>
     </g>
    </g>
    <g id="ytick_6">
     <g id="line2d_37">
      <g>
       <use xlink:href="#mf4d8581181" x="156.415385" y="96.507692" style="stroke: #000000; stroke-width: 0.8"/>
      </g>
     </g>
     <g id="text_12">
      <!-- $\mathdefault{0.6}$ -->
      <g transform="translate(136.685306 99.966941)scale(0.1 -0.1)">
       <use xlink:href="#CMR17-30" transform="scale(0.996264)"/>
       <use xlink:href="#CMMI12-3a" transform="translate(45.690477 0)scale(0.996264)"/>
       <use xlink:href="#CMR17-36" transform="translate(72.787654 0)scale(0.996264)"/>
      </g>
     </g>
    </g>
    <g id="ytick_7">
     <g id="line2d_38">
      <g>
       <use xlink:href="#mf4d8581181" x="156.415385" y="54.969231" style="stroke: #000000; stroke-width: 0.8"/>
      </g>
     </g>
     <g id="text_13">
      <!-- $\mathdefault{0.8}$ -->
      <g transform="translate(136.685306 58.42848)scale(0.1 -0.1)">
       <use xlink:href="#CMR17-30" transform="scale(0.996264)"/>
       <use xlink:href="#CMMI12-3a" transform="translate(45.690477 0)scale(0.996264)"/>
       <use xlink:href="#CMR17-38" transform="translate(72.787654 0)scale(0.996264)"/>
      </g>
     </g>
    </g>
    <g id="ytick_8">
     <g id="line2d_39">
      <g>
       <use xlink:href="#mf4d8581181" x="156.415385" y="13.430769" style="stroke: #000000; stroke-width: 0.8"/>
      </g>
     </g>
     <g id="text_14">
      <!-- $\mathdefault{1.0}$ -->
      <g transform="translate(136.685306 16.890018)scale(0.1 -0.1)">
       <use xlink:href="#CMR17-31" transform="scale(0.996264)"/>
       <use xlink:href="#CMMI12-3a" transform="translate(45.690477 0)scale(0.996264)"/>
       <use xlink:href="#CMR17-30" transform="translate(72.787654 0)scale(0.996264)"/>
      </g>
     </g>
    </g>
    <g id="ytick_9">
     <g id="line2d_40">
      <defs>
       <path id="ma81e0de0d6" d="M 0 0 
L -2 0 
" style="stroke: #000000; stroke-width: 0.6"/>
      </defs>
      <g>
       <use xlink:href="#ma81e0de0d6" x="156.415385" y="324.969231" style="stroke: #000000; stroke-width: 0.6"/>
      </g>
     </g>
    </g>
    <g id="ytick_10">
     <g id="line2d_41">
      <g>
       <use xlink:href="#ma81e0de0d6" x="156.415385" y="314.584615" style="stroke: #000000; stroke-width: 0.6"/>
      </g>
     </g>
    </g>
    <g id="ytick_11">
     <g id="line2d_42">
      <g>
       <use xlink:href="#ma81e0de0d6" x="156.415385" y="293.815385" style="stroke: #000000; stroke-width: 0.6"/>
      </g>
     </g>
    </g>
    <g id="ytick_12">
     <g id="line2d_43">
      <g>
       <use xlink:href="#ma81e0de0d6" x="156.415385" y="283.430769" style="stroke: #000000; stroke-width: 0.6"/>
      </g>
     </g>
    </g>
    <g id="ytick_13">
     <g id="line2d_44">
      <g>
       <use xlink:href="#ma81e0de0d6" x="156.415385" y="273.046154" style="stroke: #000000; stroke-width: 0.6"/>
      </g>
     </g>
    </g>
    <g id="ytick_14">
     <g id="line2d_45">
      <g>
       <use xlink:href="#ma81e0de0d6" x="156.415385" y="252.276923" style="stroke: #000000; stroke-width: 0.6"/>
      </g>
     </g>
    </g>
    <g id="ytick_15">
     <g id="line2d_46">
      <g>
       <use xlink:href="#ma81e0de0d6" x="156.415385" y="241.892308" style="stroke: #000000; stroke-width: 0.6"/>
      </g>
     </g>
    </g>
    <g id="ytick_16">
     <g id="line2d_47">
      <g>
       <use xlink:href="#ma81e0de0d6" x="156.415385" y="231.507692" style="stroke: #000000; stroke-width: 0.6"/>
      </g>
     </g>
    </g>
    <g id="ytick_17">
     <g id="line2d_48">
      <g>
       <use xlink:href="#ma81e0de0d6" x="156.415385" y="210.738462" style="stroke: #000000; stroke-width: 0.6"/>
      </g>
     </g>
    </g>
    <g id="ytick_18">
     <g id="line2d_49">
      <g>
       <use xlink:href="#ma81e0de0d6" x="156.415385" y="200.353846" style="stroke: #000000; stroke-width: 0.6"/>
      </g>
     </g>
    </g>
    <g id="ytick_19">
     <g id="line2d_50">
      <g>
       <use xlink:href="#ma81e0de0d6" x="156.415385" y="189.969231" style="stroke: #000000; stroke-width: 0.6"/>
      </g>
     </g>
    </g>
    <g id="ytick_20">
     <g id="line2d_51">
      <g>
       <use xlink:href="#ma81e0de0d6" x="156.415385" y="169.2" style="stroke: #000000; stroke-width: 0.6"/>
      </g>
     </g>
    </g>
    <g id="ytick_21">
     <g id="line2d_52">
      <g>
       <use xlink:href="#ma81e0de0d6" x="156.415385" y="158.815385" style="stroke: #000000; stroke-width: 0.6"/>
      </g>
     </g>
    </g>
    <g id="ytick_22">
     <g id="line2d_53">
      <g>
       <use xlink:href="#ma81e0de0d6" x="156.415385" y="148.430769" style="stroke: #000000; stroke-width: 0.6"/>
      </g>
     </g>
    </g>
    <g id="ytick_23">
     <g id="line2d_54">
      <g>
       <use xlink:href="#ma81e0de0d6" x="156.415385" y="127.661538" style="stroke: #000000; stroke-width: 0.6"/>
      </g>
     </g>
    </g>
    <g id="ytick_24">
     <g id="line2d_55">
      <g>
       <use xlink:href="#ma81e0de0d6" x="156.415385" y="117.276923" style="stroke: #000000; stroke-width: 0.6"/>
      </g>
     </g>
    </g>
    <g id="ytick_25">
     <g id="line2d_56">
      <g>
       <use xlink:href="#ma81e0de0d6" x="156.415385" y="106.892308" style="stroke: #000000; stroke-width: 0.6"/>
      </g>
     </g>
    </g>
    <g id="ytick_26">
     <g id="line2d_57">
      <g>
       <use xlink:href="#ma81e0de0d6" x="156.415385" y="86.123077" style="stroke: #000000; stroke-width: 0.6"/>
      </g>
     </g>
    </g>
    <g id="ytick_27">
     <g id="line2d_58">
      <g>
       <use xlink:href="#ma81e0de0d6" x="156.415385" y="75.738462" style="stroke: #000000; stroke-width: 0.6"/>
      </g>
     </g>
    </g>
    <g id="ytick_28">
     <g id="line2d_59">
      <g>
       <use xlink:href="#ma81e0de0d6" x="156.415385" y="65.353846" style="stroke: #000000; stroke-width: 0.6"/>
      </g>
     </g>
    </g>
    <g id="ytick_29">
     <g id="line2d_60">
      <g>
       <use xlink:href="#ma81e0de0d6" x="156.415385" y="44.584615" style="stroke: #000000; stroke-width: 0.6"/>
      </g>
     </g>
    </g>
    <g id="ytick_30">
     <g id="line2d_61">
      <g>
       <use xlink:href="#ma81e0de0d6" x="156.415385" y="34.2" style="stroke: #000000; stroke-width: 0.6"/>
      </g>
     </g>
    </g>
    <g id="ytick_31">
     <g id="line2d_62">
      <g>
       <use xlink:href="#ma81e0de0d6" x="156.415385" y="23.815385" style="stroke: #000000; stroke-width: 0.6"/>
      </g>
     </g>
    </g>
   </g>
   <g id="line2d_63">
    <path d="M 15.646154 324.969231 
L 437.953846 13.430769 
L 437.953846 13.430769 
" clip-path="url(#p605f7f4516)" style="fill: none; stroke: #0000cc; stroke-linecap: square"/>
   </g>
   <g id="line2d_64">
    <path d="M 15.646154 169.2 
L 22.26956 173.97117 
L 30.54074 179.606507 
L 38.677213 184.80026 
L 46.479408 189.454786 
L 55.431524 194.402312 
L 63.315455 198.41169 
L 70.289545 201.686853 
L 77.13578 204.654051 
L 84.017462 207.389073 
L 89.438793 209.368932 
L 97.223272 211.942444 
L 103.738421 213.852206 
L 110.584464 215.619284 
L 118.092883 217.274921 
L 123.405338 218.267872 
L 129.835765 219.271923 
L 137.826245 220.217629 
L 144.782416 220.768487 
L 150.529248 221.032294 
L 157.346394 221.120806 
L 164.132647 220.967024 
L 170.813638 220.579871 
L 178.189306 219.880801 
L 185.337078 218.93132 
L 192.735199 217.666612 
L 199.31864 216.299986 
L 205.502128 214.80953 
L 211.522161 213.165974 
L 216.72333 211.593053 
L 224.29026 209.051527 
L 231.158035 206.48507 
L 238.512754 203.462559 
L 246.318626 199.944555 
L 253.694288 196.32704 
L 261.380111 192.25408 
L 268.71564 188.078026 
L 276.573633 183.291702 
L 284.273734 178.287647 
L 290.953571 173.694938 
L 299.98016 167.117235 
L 307.025957 161.686216 
L 312.695671 157.127001 
L 320.551906 150.531091 
L 329.621601 142.514145 
L 336.282054 136.352267 
L 345.445895 127.494428 
L 352.247627 120.635277 
L 360.601877 111.878732 
L 370.069239 101.513374 
L 378.885471 91.438541 
L 385.804203 83.246836 
L 393.817352 73.445835 
L 401.630526 63.56542 
L 410.830086 51.521708 
L 419.191136 40.191021 
L 426.564874 29.8943 
L 435.329487 17.284728 
L 437.953846 13.430769 
L 437.953846 13.430769 
" clip-path="url(#p605f7f4516)" style="fill: none; stroke: #3ccc00; stroke-linecap: square"/>
   </g>
   <g id="patch_4">
    <path d="M 156.415385 331.2 
L 156.415385 7.2 
" style="fill: none; stroke: #000000; stroke-width: 0.8; stroke-linejoin: miter; stroke-linecap: square"/>
   </g>
   <g id="patch_5">
    <path d="M 7.2 221.123077 
L 446.4 221.123077 
" style="fill: none; stroke: #000000; stroke-width: 0.8; stroke-linejoin: miter; stroke-linecap: square"/>
   </g>
  </g>
 </g>
 <defs>
  <clipPath id="p605f7f4516">
   <rect x="7.2" y="7.2" width="439.2" height="324"/>
  </clipPath>
 </defs>
</svg>
