<?xml version="1.0" encoding="utf-8" standalone="no"?>
<!DOCTYPE svg PUBLIC "-//W3C//DTD SVG 1.1//EN"
  "http://www.w3.org/Graphics/SVG/1.1/DTD/svg11.dtd">
<svg xmlns:xlink="http://www.w3.org/1999/xlink" width="452.070177pt" height="337.397413pt" viewBox="0 0 452.070177 337.397413" xmlns="http://www.w3.org/2000/svg" version="1.1">
 <metadata>
  <rdf:RDF xmlns:dc="http://purl.org/dc/elements/1.1/" xmlns:cc="http://creativecommons.org/ns#" xmlns:rdf="http://www.w3.org/1999/02/22-rdf-syntax-ns#">
   <cc:Work>
    <dc:type rdf:resource="http://purl.org/dc/dcmitype/StillImage"/>
    <dc:date>2022-12-19T17:32:12.637237</dc:date>
    <dc:format>image/svg+xml</dc:format>
    <dc:creator>
     <cc:Agent>
      <dc:title>Matplotlib v3.5.2, https://matplotlib.org/</dc:title>
     </cc:Agent>
    </dc:creator>
   </cc:Work>
  </rdf:RDF>
 </metadata>
 <defs>
  <style type="text/css">*{stroke-linejoin: round; stroke-linecap: butt}</style>
 </defs>
 <g id="figure_1">
  <g id="patch_1">
   <path d="M 0 337.397413 
L 452.070177 337.397413 
L 452.070177 0 
L 0 0 
L 0 337.397413 
z
" style="fill: none"/>
  </g>
  <g id="axes_1">
   <g id="patch_2">
    <path d="M 9.377484 330.197413 
L 444.870177 330.197413 
L 444.870177 7.2 
L 9.377484 7.2 
L 9.377484 330.197413 
z
" style="fill: none"/>
   </g>
   <g id="matplotlib.axis_1">
    <g id="xtick_1">
     <g id="line2d_1">
      <defs>
       <path id="m1053ef179e" d="M 0 0 
L 0 3.5 
" style="stroke: #000000; stroke-width: 0.8"/>
      </defs>
      <g>
       <use xlink:href="#m1053ef179e" x="17.752344" y="168.687455" style="stroke: #000000; stroke-width: 0.8"/>
      </g>
     </g>
     <g id="text_1">
      <!-- −10 -->
      <g transform="translate(7.2 183.285893)scale(0.1 -0.1)">
       <defs>
        <path id="DejaVuSans-2212" d="M 678 2272 
L 4684 2272 
L 4684 1741 
L 678 1741 
L 678 2272 
z
" transform="scale(0.015625)"/>
        <path id="DejaVuSans-31" d="M 794 531 
L 1825 531 
L 1825 4091 
L 703 3866 
L 703 4441 
L 1819 4666 
L 2450 4666 
L 2450 531 
L 3481 531 
L 3481 0 
L 794 0 
L 794 531 
z
" transform="scale(0.015625)"/>
        <path id="DejaVuSans-30" d="M 2034 4250 
Q 1547 4250 1301 3770 
Q 1056 3291 1056 2328 
Q 1056 1369 1301 889 
Q 1547 409 2034 409 
Q 2525 409 2770 889 
Q 3016 1369 3016 2328 
Q 3016 3291 2770 3770 
Q 2525 4250 2034 4250 
z
M 2034 4750 
Q 2819 4750 3233 4129 
Q 3647 3509 3647 2328 
Q 3647 1150 3233 529 
Q 2819 -91 2034 -91 
Q 1250 -91 836 529 
Q 422 1150 422 2328 
Q 422 3509 836 4129 
Q 1250 4750 2034 4750 
z
" transform="scale(0.015625)"/>
       </defs>
       <use xlink:href="#DejaVuSans-2212"/>
       <use xlink:href="#DejaVuSans-31" x="83.789062"/>
       <use xlink:href="#DejaVuSans-30" x="147.412109"/>
      </g>
     </g>
    </g>
    <g id="xtick_2">
     <g id="line2d_2">
      <g>
       <use xlink:href="#m1053ef179e" x="122.438087" y="168.687455" style="stroke: #000000; stroke-width: 0.8"/>
      </g>
     </g>
     <g id="text_2">
      <!-- −5 -->
      <g transform="translate(115.066993 183.285893)scale(0.1 -0.1)">
       <defs>
        <path id="DejaVuSans-35" d="M 691 4666 
L 3169 4666 
L 3169 4134 
L 1269 4134 
L 1269 2991 
Q 1406 3038 1543 3061 
Q 1681 3084 1819 3084 
Q 2600 3084 3056 2656 
Q 3513 2228 3513 1497 
Q 3513 744 3044 326 
Q 2575 -91 1722 -91 
Q 1428 -91 1123 -41 
Q 819 9 494 109 
L 494 744 
Q 775 591 1075 516 
Q 1375 441 1709 441 
Q 2250 441 2565 725 
Q 2881 1009 2881 1497 
Q 2881 1984 2565 2268 
Q 2250 2553 1709 2553 
Q 1456 2553 1204 2497 
Q 953 2441 691 2322 
L 691 4666 
z
" transform="scale(0.015625)"/>
       </defs>
       <use xlink:href="#DejaVuSans-2212"/>
       <use xlink:href="#DejaVuSans-35" x="83.789062"/>
      </g>
     </g>
    </g>
    <g id="xtick_3">
     <g id="line2d_3">
      <g>
       <use xlink:href="#m1053ef179e" x="227.12383" y="168.687455" style="stroke: #000000; stroke-width: 0.8"/>
      </g>
     </g>
    </g>
    <g id="xtick_4">
     <g id="line2d_4">
      <g>
       <use xlink:href="#m1053ef179e" x="331.809574" y="168.687455" style="stroke: #000000; stroke-width: 0.8"/>
      </g>
     </g>
     <g id="text_3">
      <!-- 5 -->
      <g transform="translate(328.628324 183.285893)scale(0.1 -0.1)">
       <use xlink:href="#DejaVuSans-35"/>
      </g>
     </g>
    </g>
    <g id="xtick_5">
     <g id="line2d_5">
      <g>
       <use xlink:href="#m1053ef179e" x="436.495317" y="168.687455" style="stroke: #000000; stroke-width: 0.8"/>
      </g>
     </g>
     <g id="text_4">
      <!-- 10 -->
      <g transform="translate(430.132817 183.285893)scale(0.1 -0.1)">
       <use xlink:href="#DejaVuSans-31"/>
       <use xlink:href="#DejaVuSans-30" x="63.623047"/>
      </g>
     </g>
    </g>
    <g id="xtick_6">
     <g id="line2d_6">
      <defs>
       <path id="m8e39bdcd33" d="M 0 0 
L 0 2 
" style="stroke: #000000; stroke-width: 0.6"/>
      </defs>
      <g>
       <use xlink:href="#m8e39bdcd33" x="38.689492" y="168.687455" style="stroke: #000000; stroke-width: 0.6"/>
      </g>
     </g>
    </g>
    <g id="xtick_7">
     <g id="line2d_7">
      <g>
       <use xlink:href="#m8e39bdcd33" x="59.626641" y="168.687455" style="stroke: #000000; stroke-width: 0.6"/>
      </g>
     </g>
    </g>
    <g id="xtick_8">
     <g id="line2d_8">
      <g>
       <use xlink:href="#m8e39bdcd33" x="80.56379" y="168.687455" style="stroke: #000000; stroke-width: 0.6"/>
      </g>
     </g>
    </g>
    <g id="xtick_9">
     <g id="line2d_9">
      <g>
       <use xlink:href="#m8e39bdcd33" x="101.500938" y="168.687455" style="stroke: #000000; stroke-width: 0.6"/>
      </g>
     </g>
    </g>
    <g id="xtick_10">
     <g id="line2d_10">
      <g>
       <use xlink:href="#m8e39bdcd33" x="143.375236" y="168.687455" style="stroke: #000000; stroke-width: 0.6"/>
      </g>
     </g>
    </g>
    <g id="xtick_11">
     <g id="line2d_11">
      <g>
       <use xlink:href="#m8e39bdcd33" x="164.312384" y="168.687455" style="stroke: #000000; stroke-width: 0.6"/>
      </g>
     </g>
    </g>
    <g id="xtick_12">
     <g id="line2d_12">
      <g>
       <use xlink:href="#m8e39bdcd33" x="185.249533" y="168.687455" style="stroke: #000000; stroke-width: 0.6"/>
      </g>
     </g>
    </g>
    <g id="xtick_13">
     <g id="line2d_13">
      <g>
       <use xlink:href="#m8e39bdcd33" x="206.186682" y="168.687455" style="stroke: #000000; stroke-width: 0.6"/>
      </g>
     </g>
    </g>
    <g id="xtick_14">
     <g id="line2d_14">
      <g>
       <use xlink:href="#m8e39bdcd33" x="248.060979" y="168.687455" style="stroke: #000000; stroke-width: 0.6"/>
      </g>
     </g>
    </g>
    <g id="xtick_15">
     <g id="line2d_15">
      <g>
       <use xlink:href="#m8e39bdcd33" x="268.998128" y="168.687455" style="stroke: #000000; stroke-width: 0.6"/>
      </g>
     </g>
    </g>
    <g id="xtick_16">
     <g id="line2d_16">
      <g>
       <use xlink:href="#m8e39bdcd33" x="289.935276" y="168.687455" style="stroke: #000000; stroke-width: 0.6"/>
      </g>
     </g>
    </g>
    <g id="xtick_17">
     <g id="line2d_17">
      <g>
       <use xlink:href="#m8e39bdcd33" x="310.872425" y="168.687455" style="stroke: #000000; stroke-width: 0.6"/>
      </g>
     </g>
    </g>
    <g id="xtick_18">
     <g id="line2d_18">
      <g>
       <use xlink:href="#m8e39bdcd33" x="352.746722" y="168.687455" style="stroke: #000000; stroke-width: 0.6"/>
      </g>
     </g>
    </g>
    <g id="xtick_19">
     <g id="line2d_19">
      <g>
       <use xlink:href="#m8e39bdcd33" x="373.683871" y="168.687455" style="stroke: #000000; stroke-width: 0.6"/>
      </g>
     </g>
    </g>
    <g id="xtick_20">
     <g id="line2d_20">
      <g>
       <use xlink:href="#m8e39bdcd33" x="394.62102" y="168.687455" style="stroke: #000000; stroke-width: 0.6"/>
      </g>
     </g>
    </g>
    <g id="xtick_21">
     <g id="line2d_21">
      <g>
       <use xlink:href="#m8e39bdcd33" x="415.558168" y="168.687455" style="stroke: #000000; stroke-width: 0.6"/>
      </g>
     </g>
    </g>
   </g>
   <g id="matplotlib.axis_2">
    <g id="ytick_1">
     <g id="line2d_22">
      <defs>
       <path id="md69d44bfed" d="M 0 0 
L -3.5 0 
" style="stroke: #000000; stroke-width: 0.8"/>
      </defs>
      <g>
       <use xlink:href="#md69d44bfed" x="227.12383" y="323.986077" style="stroke: #000000; stroke-width: 0.8"/>
      </g>
     </g>
     <g id="text_5">
      <!-- −1.0 -->
      <g transform="translate(195.841018 327.785295)scale(0.1 -0.1)">
       <defs>
        <path id="DejaVuSans-2e" d="M 684 794 
L 1344 794 
L 1344 0 
L 684 0 
L 684 794 
z
" transform="scale(0.015625)"/>
       </defs>
       <use xlink:href="#DejaVuSans-2212"/>
       <use xlink:href="#DejaVuSans-31" x="83.789062"/>
       <use xlink:href="#DejaVuSans-2e" x="147.412109"/>
       <use xlink:href="#DejaVuSans-30" x="179.199219"/>
      </g>
     </g>
    </g>
    <g id="ytick_2">
     <g id="line2d_23">
      <g>
       <use xlink:href="#md69d44bfed" x="227.12383" y="246.336766" style="stroke: #000000; stroke-width: 0.8"/>
      </g>
     </g>
     <g id="text_6">
      <!-- −0.5 -->
      <g transform="translate(195.841018 250.135985)scale(0.1 -0.1)">
       <use xlink:href="#DejaVuSans-2212"/>
       <use xlink:href="#DejaVuSans-30" x="83.789062"/>
       <use xlink:href="#DejaVuSans-2e" x="147.412109"/>
       <use xlink:href="#DejaVuSans-35" x="179.199219"/>
      </g>
     </g>
    </g>
    <g id="ytick_3">
     <g id="line2d_24">
      <g>
       <use xlink:href="#md69d44bfed" x="227.12383" y="168.687455" style="stroke: #000000; stroke-width: 0.8"/>
      </g>
     </g>
    </g>
    <g id="ytick_4">
     <g id="line2d_25">
      <g>
       <use xlink:href="#md69d44bfed" x="227.12383" y="91.038145" style="stroke: #000000; stroke-width: 0.8"/>
      </g>
     </g>
     <g id="text_7">
      <!-- 0.5 -->
      <g transform="translate(204.220705 94.837363)scale(0.1 -0.1)">
       <use xlink:href="#DejaVuSans-30"/>
       <use xlink:href="#DejaVuSans-2e" x="63.623047"/>
       <use xlink:href="#DejaVuSans-35" x="95.410156"/>
      </g>
     </g>
    </g>
    <g id="ytick_5">
     <g id="line2d_26">
      <g>
       <use xlink:href="#md69d44bfed" x="227.12383" y="13.388834" style="stroke: #000000; stroke-width: 0.8"/>
      </g>
     </g>
     <g id="text_8">
      <!-- 1.0 -->
      <g transform="translate(204.220705 17.188053)scale(0.1 -0.1)">
       <use xlink:href="#DejaVuSans-31"/>
       <use xlink:href="#DejaVuSans-2e" x="63.623047"/>
       <use xlink:href="#DejaVuSans-30" x="95.410156"/>
      </g>
     </g>
    </g>
    <g id="ytick_6">
     <g id="line2d_27">
      <defs>
       <path id="m1b7dcb4894" d="M 0 0 
L -2 0 
" style="stroke: #000000; stroke-width: 0.6"/>
      </defs>
      <g>
       <use xlink:href="#m1b7dcb4894" x="227.12383" y="308.456214" style="stroke: #000000; stroke-width: 0.6"/>
      </g>
     </g>
    </g>
    <g id="ytick_7">
     <g id="line2d_28">
      <g>
       <use xlink:href="#m1b7dcb4894" x="227.12383" y="292.926352" style="stroke: #000000; stroke-width: 0.6"/>
      </g>
     </g>
    </g>
    <g id="ytick_8">
     <g id="line2d_29">
      <g>
       <use xlink:href="#m1b7dcb4894" x="227.12383" y="277.39649" style="stroke: #000000; stroke-width: 0.6"/>
      </g>
     </g>
    </g>
    <g id="ytick_9">
     <g id="line2d_30">
      <g>
       <use xlink:href="#m1b7dcb4894" x="227.12383" y="261.866628" style="stroke: #000000; stroke-width: 0.6"/>
      </g>
     </g>
    </g>
    <g id="ytick_10">
     <g id="line2d_31">
      <g>
       <use xlink:href="#m1b7dcb4894" x="227.12383" y="230.806904" style="stroke: #000000; stroke-width: 0.6"/>
      </g>
     </g>
    </g>
    <g id="ytick_11">
     <g id="line2d_32">
      <g>
       <use xlink:href="#m1b7dcb4894" x="227.12383" y="215.277042" style="stroke: #000000; stroke-width: 0.6"/>
      </g>
     </g>
    </g>
    <g id="ytick_12">
     <g id="line2d_33">
      <g>
       <use xlink:href="#m1b7dcb4894" x="227.12383" y="199.74718" style="stroke: #000000; stroke-width: 0.6"/>
      </g>
     </g>
    </g>
    <g id="ytick_13">
     <g id="line2d_34">
      <g>
       <use xlink:href="#m1b7dcb4894" x="227.12383" y="184.217317" style="stroke: #000000; stroke-width: 0.6"/>
      </g>
     </g>
    </g>
    <g id="ytick_14">
     <g id="line2d_35">
      <g>
       <use xlink:href="#m1b7dcb4894" x="227.12383" y="153.157593" style="stroke: #000000; stroke-width: 0.6"/>
      </g>
     </g>
    </g>
    <g id="ytick_15">
     <g id="line2d_36">
      <g>
       <use xlink:href="#m1b7dcb4894" x="227.12383" y="137.627731" style="stroke: #000000; stroke-width: 0.6"/>
      </g>
     </g>
    </g>
    <g id="ytick_16">
     <g id="line2d_37">
      <g>
       <use xlink:href="#m1b7dcb4894" x="227.12383" y="122.097869" style="stroke: #000000; stroke-width: 0.6"/>
      </g>
     </g>
    </g>
    <g id="ytick_17">
     <g id="line2d_38">
      <g>
       <use xlink:href="#m1b7dcb4894" x="227.12383" y="106.568007" style="stroke: #000000; stroke-width: 0.6"/>
      </g>
     </g>
    </g>
    <g id="ytick_18">
     <g id="line2d_39">
      <g>
       <use xlink:href="#m1b7dcb4894" x="227.12383" y="75.508282" style="stroke: #000000; stroke-width: 0.6"/>
      </g>
     </g>
    </g>
    <g id="ytick_19">
     <g id="line2d_40">
      <g>
       <use xlink:href="#m1b7dcb4894" x="227.12383" y="59.97842" style="stroke: #000000; stroke-width: 0.6"/>
      </g>
     </g>
    </g>
    <g id="ytick_20">
     <g id="line2d_41">
      <g>
       <use xlink:href="#m1b7dcb4894" x="227.12383" y="44.448558" style="stroke: #000000; stroke-width: 0.6"/>
      </g>
     </g>
    </g>
    <g id="ytick_21">
     <g id="line2d_42">
      <g>
       <use xlink:href="#m1b7dcb4894" x="227.12383" y="28.918696" style="stroke: #000000; stroke-width: 0.6"/>
      </g>
     </g>
    </g>
   </g>
   <g id="line2d_43">
    <path d="M 17.752344 298.994107 
L 19.229408 304.625294 
L 21.659822 312.407484 
L 22.951888 315.762749 
L 24.243953 318.558081 
L 25.238989 320.322378 
L 26.234024 321.744255 
L 27.839091 323.308338 
L 29.584995 323.978201 
L 31.330899 323.56887 
L 32.604487 322.590861 
L 34.43717 320.185882 
L 35.960558 317.302833 
L 37.483945 313.633359 
L 38.321903 311.286524 
L 40.032238 305.792105 
L 41.742572 299.383283 
L 43.66264 291.152323 
L 46.987208 274.511253 
L 49.413575 260.658855 
L 51.557564 247.38542 
L 54.01763 231.148191 
L 58.145088 202.09008 
L 72.177936 100.654958 
L 74.343749 86.603249 
L 76.272965 74.821161 
L 78.218569 63.74584 
L 79.890673 54.947586 
L 81.562777 46.87439 
L 83.232012 39.589542 
L 84.704931 33.841201 
L 86.116985 28.956368 
L 87.529039 24.70686 
L 88.76831 21.516146 
L 90.007581 18.840891 
L 91.044167 17.005934 
L 92.080753 15.5427 
L 93.314411 14.290638 
L 94.857249 13.479278 
L 96.347346 13.49535 
L 97.837443 14.297165 
L 98.926233 15.377674 
L 100.015023 16.872683 
L 101.068531 18.710019 
L 102.122038 20.926997 
L 103.22765 23.655746 
L 104.333262 26.788821 
L 105.973713 32.163572 
L 107.345245 37.301727 
L 109.598545 46.95555 
L 111.627675 56.857839 
L 114.686841 73.738196 
L 116.313189 83.560818 
L 118.403896 96.93356 
L 120.747778 112.768987 
L 124.042935 136.168078 
L 136.199791 224.798834 
L 138.754829 242.009095 
L 140.749174 254.697258 
L 144.391079 275.778138 
L 146.386045 285.992596 
L 147.750481 292.371073 
L 149.369029 299.254564 
L 151.447726 306.945833 
L 152.836589 311.329969 
L 154.225452 315.086663 
L 155.202252 317.343924 
L 156.179051 319.277681 
L 157.184412 320.925716 
L 158.189773 322.222797 
L 159.558318 323.41917 
L 160.926862 323.954686 
L 162.139979 323.87494 
L 163.353096 323.274354 
L 165.177812 321.394985 
L 166.199526 319.83516 
L 167.187863 317.983822 
L 168.176201 315.799867 
L 169.164539 313.288161 
L 170.883957 308.154469 
L 172.340893 303.067158 
L 173.79783 297.329411 
L 175.35135 290.526081 
L 177.115546 281.989322 
L 179.321793 270.189817 
L 181.303897 258.624788 
L 185.096414 234.345472 
L 190.535206 195.993692 
L 200.276066 124.503705 
L 204.149867 97.868732 
L 206.998376 79.777377 
L 208.633595 70.113953 
L 210.422073 60.234948 
L 212.769121 48.481157 
L 214.679653 40.021341 
L 216.590185 32.632148 
L 217.715882 28.804871 
L 219.161124 24.485254 
L 220.962502 20.064812 
L 222.714089 16.82064 
L 224.465676 14.638746 
L 226.34045 13.497526 
L 227.81936 13.474517 
L 229.533009 14.415812 
L 230.846044 15.836549 
L 232.159079 17.858243 
L 233.838137 21.306181 
L 235.541243 25.771162 
L 237.616208 32.484828 
L 239.691173 40.535139 
L 240.664667 44.750761 
L 242.136881 51.631819 
L 244.47131 63.714146 
L 246.541551 75.524912 
L 250.029652 97.419283 
L 254.206644 126.177851 
L 258.381881 156.609752 
L 265.726985 210.55443 
L 270.710567 244.635284 
L 274.163979 265.84647 
L 276.820571 280.396453 
L 279.265259 292.203985 
L 280.450571 297.332489 
L 283.145171 307.433864 
L 284.212662 310.809009 
L 285.479139 314.333586 
L 286.745615 317.32541 
L 287.908716 319.594316 
L 289.071816 321.397639 
L 290.602402 323.052075 
L 292.132988 323.881927 
L 293.599325 323.899412 
L 295.334878 322.936944 
L 296.574419 321.600427 
L 297.81396 319.728109 
L 299.416131 316.525073 
L 301.006697 312.489285 
L 302.940672 306.467297 
L 304.98186 298.838419 
L 307.718931 286.683421 
L 310.470831 272.432939 
L 312.620201 260.044206 
L 316.536804 235.094658 
L 318.222277 223.590649 
L 322.103939 195.871395 
L 332.589686 119.118269 
L 335.845664 96.921072 
L 339.312809 75.20053 
L 341.158936 64.643554 
L 343.14892 54.171526 
L 344.98825 45.409617 
L 347.745427 34.075358 
L 349.492135 28.090339 
L 351.238842 23.083301 
L 352.385606 20.3449 
L 353.552012 18.01604 
L 355.247129 15.466556 
L 356.942245 13.920866 
L 358.091898 13.449226 
L 359.033445 13.411489 
L 359.974992 13.687716 
L 360.934315 14.291488 
L 361.893637 15.219341 
L 362.866541 16.489326 
L 363.839445 18.087887 
L 364.812349 20.011573 
L 365.785254 22.256232 
L 366.794404 24.918457 
L 368.578696 30.438429 
L 369.830475 34.912594 
L 371.082254 39.8648 
L 373.124977 48.925955 
L 374.624482 56.307767 
L 377.702596 73.221261 
L 380.947747 93.275116 
L 385.292 122.859715 
L 392.195219 173.370126 
L 398.526166 219.383306 
L 402.392751 245.476179 
L 405.294347 263.387268 
L 408.091359 278.937493 
L 410.105239 288.931972 
L 412.989706 301.289667 
L 414.015927 305.09091 
L 415.387793 309.659239 
L 416.781232 313.679951 
L 418.174671 317.058677 
L 419.805845 320.178302 
L 420.855472 321.700715 
L 421.905099 322.838648 
L 423.475448 323.817249 
L 424.422473 323.985924 
L 425.369499 323.836926 
L 426.453497 323.276882 
L 427.537496 322.302548 
L 428.928434 320.449777 
L 430.319372 317.927452 
L 431.648268 314.902424 
L 432.977164 311.288562 
L 434.279421 307.189911 
L 436.495317 298.994107 
L 436.495317 298.994107 
" clip-path="url(#pb3d7dbe4f1)" style="fill: none; stroke: #0000ff; stroke-linecap: square"/>
   </g>
   <g id="patch_3">
    <path d="M 227.12383 330.197413 
L 227.12383 7.2 
" style="fill: none; stroke: #000000; stroke-width: 0.8; stroke-linejoin: miter; stroke-linecap: square"/>
   </g>
   <g id="patch_4">
    <path d="M 9.377484 168.687455 
L 444.870177 168.687455 
" style="fill: none; stroke: #000000; stroke-width: 0.8; stroke-linejoin: miter; stroke-linecap: square"/>
   </g>
  </g>
 </g>
 <defs>
  <clipPath id="pb3d7dbe4f1">
   <rect x="9.377484" y="7.2" width="435.492692" height="322.997413"/>
  </clipPath>
 </defs>
</svg>
