<?xml version="1.0" encoding="utf-8" standalone="no"?>
<!DOCTYPE svg PUBLIC "-//W3C//DTD SVG 1.1//EN"
  "http://www.w3.org/Graphics/SVG/1.1/DTD/svg11.dtd">
<svg xmlns:xlink="http://www.w3.org/1999/xlink" width="341.708447pt" height="337.493272pt" viewBox="0 0 341.708447 337.493272" xmlns="http://www.w3.org/2000/svg" version="1.1">
 <metadata>
  <rdf:RDF xmlns:dc="http://purl.org/dc/elements/1.1/" xmlns:cc="http://creativecommons.org/ns#" xmlns:rdf="http://www.w3.org/1999/02/22-rdf-syntax-ns#">
   <cc:Work>
    <dc:type rdf:resource="http://purl.org/dc/dcmitype/StillImage"/>
    <dc:date>2022-10-23T21:57:34.394899</dc:date>
    <dc:format>image/svg+xml</dc:format>
    <dc:creator>
     <cc:Agent>
      <dc:title>Matplotlib v3.5.2, https://matplotlib.org/</dc:title>
     </cc:Agent>
    </dc:creator>
   </cc:Work>
  </rdf:RDF>
 </metadata>
 <defs>
  <style type="text/css">*{stroke-linejoin: round; stroke-linecap: butt}</style>
 </defs>
 <g id="figure_1">
  <g id="patch_1">
   <path d="M 0 337.493272 
L 341.708447 337.493272 
L 341.708447 0 
L 0 0 
L 0 337.493272 
z
" style="fill: none"/>
  </g>
  <g id="axes_1">
   <g id="patch_2">
    <path d="M 20.905812 320.461862 
L 334.167674 320.461862 
L 334.167674 7.2 
L 20.905812 7.2 
L 20.905812 320.461862 
z
" style="fill: none"/>
   </g>
   <g id="patch_3">
    <path d="M 26.930079 314.437595 
L 26.930079 13.224267 
L 64.581745 13.224267 
L 64.581745 314.437595 
L 26.930079 314.437595 
z
" clip-path="url(#p2bac66e5b9)" style="fill: none; stroke: #0000ff; stroke-linejoin: miter"/>
   </g>
   <g id="patch_4">
    <path d="M 64.581745 314.437595 
L 64.581745 48.617766 
L 102.233411 48.617766 
L 102.233411 314.437595 
L 64.581745 314.437595 
z
" clip-path="url(#p2bac66e5b9)" style="fill: none; stroke: #0000ff; stroke-linejoin: miter"/>
   </g>
   <g id="patch_5">
    <path d="M 102.233411 314.437595 
L 102.233411 79.852419 
L 139.885077 79.852419 
L 139.885077 314.437595 
L 102.233411 314.437595 
z
" clip-path="url(#p2bac66e5b9)" style="fill: none; stroke: #0000ff; stroke-linejoin: miter"/>
   </g>
   <g id="patch_6">
    <path d="M 139.885077 314.437595 
L 139.885077 107.416904 
L 177.536743 107.416904 
L 177.536743 314.437595 
L 139.885077 314.437595 
z
" clip-path="url(#p2bac66e5b9)" style="fill: none; stroke: #0000ff; stroke-linejoin: miter"/>
   </g>
   <g id="patch_7">
    <path d="M 177.536743 314.437595 
L 177.536743 131.742476 
L 215.188409 131.742476 
L 215.188409 314.437595 
L 177.536743 314.437595 
z
" clip-path="url(#p2bac66e5b9)" style="fill: none; stroke: #0000ff; stroke-linejoin: miter"/>
   </g>
   <g id="patch_8">
    <path d="M 215.188409 314.437595 
L 215.188409 153.209719 
L 252.840075 153.209719 
L 252.840075 314.437595 
L 215.188409 314.437595 
z
" clip-path="url(#p2bac66e5b9)" style="fill: none; stroke: #0000ff; stroke-linejoin: miter"/>
   </g>
   <g id="patch_9">
    <path d="M 252.840075 314.437595 
L 252.840075 172.154494 
L 290.491742 172.154494 
L 290.491742 314.437595 
L 252.840075 314.437595 
z
" clip-path="url(#p2bac66e5b9)" style="fill: none; stroke: #0000ff; stroke-linejoin: miter"/>
   </g>
   <g id="patch_10">
    <path d="M 290.491742 314.437595 
L 290.491742 188.873199 
L 328.143408 188.873199 
L 328.143408 314.437595 
L 290.491742 314.437595 
z
" clip-path="url(#p2bac66e5b9)" style="fill: none; stroke: #0000ff; stroke-linejoin: miter"/>
   </g>
   <g id="patch_11">
    <path d="M 26.930079 314.437595 
L 26.930079 13.224267 
L 27.73498 14.028093 
L 30.647761 16.919101 
L 31.677079 17.934057 
L 32.236096 18.483823 
L 35.088577 21.273267 
L 36.071849 22.228704 
L 38.145345 24.233307 
L 38.958219 25.015416 
L 40.740134 26.722523 
L 42.382551 28.287069 
L 42.976105 28.850386 
L 45.498149 31.23161 
L 47.062177 32.698325 
L 48.38164 33.929783 
L 50.085763 35.512283 
L 50.97425 36.333815 
L 52.123135 37.392535 
L 54.495913 39.566357 
L 55.077901 40.096935 
L 57.788047 42.554225 
L 58.322714 43.036402 
L 60.071948 44.607941 
L 61.613295 45.985167 
L 62.858829 47.092941 
L 65.126121 49.097742 
L 65.726913 49.626454 
L 67.09169 50.823581 
L 69.29715 52.746693 
L 70.650893 53.920172 
L 71.814553 54.924671 
L 74.07168 56.862051 
L 75.577323 58.146354 
L 76.519387 58.946669 
L 78.297963 60.450823 
L 79.762043 61.682357 
L 81.779491 63.369589 
L 82.282113 63.788186 
L 83.809725 65.056144 
L 85.393201 66.363701 
L 87.374858 67.990401 
L 89.285963 69.549082 
L 90.629707 70.639122 
L 92.618964 72.243898 
L 93.227271 72.732519 
L 95.694875 74.70453 
L 95.906147 74.872621 
L 98.163388 76.66117 
L 99.417145 77.648824 
L 100.62327 78.595083 
L 102.707648 80.221465 
L 103.70298 80.994133 
L 106.091521 82.837957 
L 106.699594 83.305026 
L 107.96684 84.27539 
L 109.606499 85.524878 
L 111.743994 87.143557 
L 112.981457 88.075425 
L 115.046934 89.622323 
L 116.76202 90.898767 
L 117.113734 91.159632 
L 119.732273 93.092242 
L 120.274291 93.490183 
L 121.645696 94.493856 
L 123.324545 95.716329 
L 124.691694 96.706813 
L 127.116768 98.45273 
L 128.108787 99.162887 
L 129.708402 100.303088 
L 131.538514 101.600183 
L 132.244333 102.098331 
L 134.862228 103.93581 
L 135.831299 104.611953 
L 137.270951 105.612424 
L 139.064835 106.852392 
L 139.829798 107.378908 
L 142.013296 108.874451 
L 142.743782 109.372367 
L 144.57698 110.616613 
L 146.989447 112.242529 
L 147.384342 112.507436 
L 148.914307 113.530508 
L 151.683385 115.368998 
L 152.026637 115.595721 
L 153.417919 116.512039 
L 155.507593 117.8804 
L 157.7283 119.324197 
L 159.11431 120.219933 
L 159.887914 120.718101 
L 162.126529 122.152487 
L 163.759958 123.192394 
L 164.215516 123.481416 
L 165.6003 124.357294 
L 167.378814 125.476316 
L 168.902407 126.429704 
L 170.994076 127.730736 
L 171.568306 128.086333 
L 173.680334 129.388408 
L 175.5145 130.511797 
L 176.721258 131.247189 
L 179.009583 132.633618 
L 179.910577 133.17662 
L 181.376902 134.056866 
L 182.655607 134.820992 
L 184.427772 135.874649 
L 186.606638 137.161647 
L 186.794739 137.272318 
L 188.203148 138.098771 
L 190.409437 139.385676 
L 192.017186 140.31754 
L 192.898129 140.826036 
L 195.44581 142.28826 
L 196.088743 142.655318 
L 198.433536 143.987364 
L 199.492856 144.585758 
L 200.895611 145.374921 
L 202.317803 146.171277 
L 203.436122 146.794843 
L 204.867595 147.589651 
L 207.490143 149.036026 
L 208.014735 149.323838 
L 209.953213 150.383027 
L 210.982802 150.942831 
L 213.116948 152.097124 
L 214.594022 152.891252 
L 215.923749 153.602837 
L 218.320789 154.877673 
L 219.052181 155.264639 
L 220.798632 156.184862 
L 222.561318 157.108245 
L 224.039473 157.878421 
L 225.074386 158.415407 
L 226.484217 159.143963 
L 228.798633 160.332612 
L 230.41128 161.15546 
L 231.360694 161.63784 
L 232.149055 162.037237 
L 234.099728 163.021001 
L 236.507892 164.226732 
L 237.851755 164.895405 
L 238.882056 165.40604 
L 239.685007 165.802788 
L 242.13374 167.006226 
L 243.92384 167.879807 
L 245.362079 168.577925 
L 246.365276 169.062906 
L 248.291403 169.989547 
L 249.010141 170.33381 
L 250.754191 171.165772 
L 252.013273 171.763403 
L 254.304884 172.844741 
L 255.197161 173.263557 
L 256.761252 173.994722 
L 258.460212 174.784645 
L 260.101703 175.543627 
L 261.998363 176.415457 
L 263.308802 177.014623 
L 265.261236 177.902504 
L 266.160016 178.309299 
L 268.236454 179.244483 
L 269.153133 179.65529 
L 269.919545 179.997796 
L 271.39589 180.655117 
L 273.183261 181.446619 
L 275.032902 182.260766 
L 276.858202 183.059312 
L 278.673419 183.848663 
L 280.022356 184.432177 
L 280.565368 184.666334 
L 282.373988 185.443204 
L 284.050199 186.159046 
L 286.442032 187.173629 
L 286.576878 187.230589 
L 288.227436 187.925739 
L 289.645965 188.520131 
L 291.976113 189.490455 
L 293.098653 189.955232 
L 294.088933 190.363813 
L 296.325305 191.281593 
L 297.988873 191.959895 
L 299.246713 192.470285 
L 300.525489 192.986989 
L 301.685416 193.453778 
L 303.854457 194.321854 
L 305.554698 194.997955 
L 306.435958 195.346888 
L 308.51902 196.167628 
L 309.320545 196.481924 
L 312.04175 197.542754 
L 313.106186 197.955111 
L 314.671788 198.558976 
L 315.410905 198.84297 
L 317.234919 199.540844 
L 318.936769 200.188179 
L 320.420452 200.749552 
L 322.592302 201.566333 
L 324.157429 202.151299 
L 325.841111 202.777192 
L 326.57014 203.047117 
L 328.143408 203.627404 
L 328.143408 314.437595 
z
" clip-path="url(#p2bac66e5b9)" style="fill: #808080; opacity: 0.5"/>
   </g>
   <g id="matplotlib.axis_1">
    <g id="xtick_1">
     <g id="line2d_1">
      <defs>
       <path id="m47af25cf30" d="M 0 0 
L 0 3.5 
" style="stroke: #000000; stroke-width: 0.8"/>
      </defs>
      <g>
       <use xlink:href="#m47af25cf30" x="26.930079" y="314.437595" style="stroke: #000000; stroke-width: 0.8"/>
      </g>
     </g>
    </g>
    <g id="xtick_2">
     <g id="line2d_2">
      <g>
       <use xlink:href="#m47af25cf30" x="87.172745" y="314.437595" style="stroke: #000000; stroke-width: 0.8"/>
      </g>
     </g>
     <g id="text_1">
      <!-- $\mathdefault{0.2}$ -->
      <g transform="translate(80.807705 328.356094)scale(0.1 -0.1)">
       <defs>
        <path id="CMR17-30" d="M 2688 2038 
C 2688 2430 2682 3099 2413 3613 
C 2176 4063 1798 4224 1466 4224 
C 1158 4224 768 4082 525 3620 
C 269 3137 243 2539 243 2038 
C 243 1671 250 1112 448 623 
C 723 -39 1216 -128 1466 -128 
C 1760 -128 2208 -7 2470 604 
C 2662 1048 2688 1568 2688 2038 
z
M 1466 -26 
C 1056 -26 813 328 723 816 
C 653 1196 653 1749 653 2109 
C 653 2604 653 3015 736 3407 
C 858 3954 1216 4121 1466 4121 
C 1728 4121 2067 3947 2189 3420 
C 2272 3054 2278 2623 2278 2109 
C 2278 1691 2278 1176 2202 797 
C 2067 96 1690 -26 1466 -26 
z
" transform="scale(0.015625)"/>
        <path id="CMMI12-3a" d="M 1178 307 
C 1178 492 1024 620 870 620 
C 685 620 557 467 557 313 
C 557 128 710 0 864 0 
C 1050 0 1178 153 1178 307 
z
" transform="scale(0.015625)"/>
        <path id="CMR17-32" d="M 2669 990 
L 2554 990 
C 2490 537 2438 460 2413 422 
C 2381 371 1920 371 1830 371 
L 602 371 
C 832 620 1280 1073 1824 1596 
C 2214 1966 2669 2400 2669 3033 
C 2669 3788 2067 4224 1395 4224 
C 691 4224 262 3603 262 3027 
C 262 2777 448 2745 525 2745 
C 589 2745 781 2783 781 3007 
C 781 3206 614 3264 525 3264 
C 486 3264 448 3257 422 3244 
C 544 3788 915 4057 1306 4057 
C 1862 4057 2227 3616 2227 3033 
C 2227 2477 1901 1998 1536 1583 
L 262 147 
L 262 0 
L 2515 0 
L 2669 990 
z
" transform="scale(0.015625)"/>
       </defs>
       <use xlink:href="#CMR17-30" transform="scale(0.996264)"/>
       <use xlink:href="#CMMI12-3a" transform="translate(45.690477 0)scale(0.996264)"/>
       <use xlink:href="#CMR17-32" transform="translate(72.787654 0)scale(0.996264)"/>
      </g>
     </g>
    </g>
    <g id="xtick_3">
     <g id="line2d_3">
      <g>
       <use xlink:href="#m47af25cf30" x="147.41541" y="314.437595" style="stroke: #000000; stroke-width: 0.8"/>
      </g>
     </g>
     <g id="text_2">
      <!-- $\mathdefault{0.4}$ -->
      <g transform="translate(141.050371 328.356094)scale(0.1 -0.1)">
       <defs>
        <path id="CMR17-34" d="M 2150 4147 
C 2150 4281 2144 4288 2029 4288 
L 128 1254 
L 128 1088 
L 1779 1088 
L 1779 460 
C 1779 230 1766 166 1318 166 
L 1197 166 
L 1197 0 
C 1402 12 1747 12 1965 12 
C 2182 12 2528 12 2733 0 
L 2733 166 
L 2611 166 
C 2163 166 2150 230 2150 460 
L 2150 1088 
L 2803 1088 
L 2803 1254 
L 2150 1254 
L 2150 4147 
z
M 1798 3723 
L 1798 1254 
L 256 1254 
L 1798 3723 
z
" transform="scale(0.015625)"/>
       </defs>
       <use xlink:href="#CMR17-30" transform="scale(0.996264)"/>
       <use xlink:href="#CMMI12-3a" transform="translate(45.690477 0)scale(0.996264)"/>
       <use xlink:href="#CMR17-34" transform="translate(72.787654 0)scale(0.996264)"/>
      </g>
     </g>
    </g>
    <g id="xtick_4">
     <g id="line2d_4">
      <g>
       <use xlink:href="#m47af25cf30" x="207.658076" y="314.437595" style="stroke: #000000; stroke-width: 0.8"/>
      </g>
     </g>
     <g id="text_3">
      <!-- $\mathdefault{0.6}$ -->
      <g transform="translate(201.293037 328.356094)scale(0.1 -0.1)">
       <defs>
        <path id="CMR17-36" d="M 678 2198 
C 678 3712 1395 4076 1811 4076 
C 1946 4076 2272 4049 2400 3782 
C 2298 3782 2106 3782 2106 3558 
C 2106 3385 2246 3328 2336 3328 
C 2394 3328 2566 3353 2566 3571 
C 2566 3987 2246 4224 1805 4224 
C 1043 4224 243 3411 243 2011 
C 243 257 966 -128 1478 -128 
C 2099 -128 2688 431 2688 1295 
C 2688 2101 2170 2688 1517 2688 
C 1126 2688 838 2430 678 1979 
L 678 2198 
z
M 1478 25 
C 691 25 691 1212 691 1450 
C 691 1914 909 2585 1504 2585 
C 1613 2585 1926 2585 2138 2140 
C 2253 1889 2253 1624 2253 1302 
C 2253 954 2253 696 2118 438 
C 1978 173 1773 25 1478 25 
z
" transform="scale(0.015625)"/>
       </defs>
       <use xlink:href="#CMR17-30" transform="scale(0.996264)"/>
       <use xlink:href="#CMMI12-3a" transform="translate(45.690477 0)scale(0.996264)"/>
       <use xlink:href="#CMR17-36" transform="translate(72.787654 0)scale(0.996264)"/>
      </g>
     </g>
    </g>
    <g id="xtick_5">
     <g id="line2d_5">
      <g>
       <use xlink:href="#m47af25cf30" x="267.900742" y="314.437595" style="stroke: #000000; stroke-width: 0.8"/>
      </g>
     </g>
     <g id="text_4">
      <!-- $\mathdefault{0.8}$ -->
      <g transform="translate(261.535702 328.356094)scale(0.1 -0.1)">
       <defs>
        <path id="CMR17-38" d="M 1741 2289 
C 2144 2494 2554 2803 2554 3298 
C 2554 3884 1990 4224 1472 4224 
C 890 4224 378 3800 378 3215 
C 378 3054 416 2777 666 2533 
C 730 2469 998 2276 1171 2154 
C 883 2006 211 1652 211 945 
C 211 282 838 -128 1459 -128 
C 2144 -128 2720 366 2720 1022 
C 2720 1607 2330 1877 2074 2051 
L 1741 2289 
z
M 902 2855 
C 851 2887 595 3086 595 3388 
C 595 3781 998 4076 1459 4076 
C 1965 4076 2336 3716 2336 3298 
C 2336 2700 1670 2359 1638 2359 
C 1632 2359 1626 2359 1574 2398 
L 902 2855 
z
M 2080 1536 
C 2176 1466 2483 1253 2483 861 
C 2483 385 2010 25 1472 25 
C 890 25 448 443 448 951 
C 448 1459 838 1884 1280 2083 
L 2080 1536 
z
" transform="scale(0.015625)"/>
       </defs>
       <use xlink:href="#CMR17-30" transform="scale(0.996264)"/>
       <use xlink:href="#CMMI12-3a" transform="translate(45.690477 0)scale(0.996264)"/>
       <use xlink:href="#CMR17-38" transform="translate(72.787654 0)scale(0.996264)"/>
      </g>
     </g>
    </g>
    <g id="xtick_6">
     <g id="line2d_6">
      <g>
       <use xlink:href="#m47af25cf30" x="328.143408" y="314.437595" style="stroke: #000000; stroke-width: 0.8"/>
      </g>
     </g>
     <g id="text_5">
      <!-- $\mathdefault{1.0}$ -->
      <g transform="translate(321.778368 328.356094)scale(0.1 -0.1)">
       <defs>
        <path id="CMR17-31" d="M 1702 4083 
C 1702 4217 1696 4224 1606 4224 
C 1357 3927 979 3833 621 3820 
C 602 3820 570 3820 563 3808 
C 557 3795 557 3782 557 3648 
C 755 3648 1088 3686 1344 3839 
L 1344 467 
C 1344 243 1331 166 781 166 
L 589 166 
L 589 0 
C 896 6 1216 12 1523 12 
C 1830 12 2150 6 2458 0 
L 2458 166 
L 2266 166 
C 1715 166 1702 236 1702 467 
L 1702 4083 
z
" transform="scale(0.015625)"/>
       </defs>
       <use xlink:href="#CMR17-31" transform="scale(0.996264)"/>
       <use xlink:href="#CMMI12-3a" transform="translate(45.690477 0)scale(0.996264)"/>
       <use xlink:href="#CMR17-30" transform="translate(72.787654 0)scale(0.996264)"/>
      </g>
     </g>
    </g>
    <g id="xtick_7">
     <g id="line2d_7">
      <defs>
       <path id="m4aa33b29fe" d="M 0 0 
L 0 2 
" style="stroke: #000000; stroke-width: 0.6"/>
      </defs>
      <g>
       <use xlink:href="#m4aa33b29fe" x="41.990745" y="314.437595" style="stroke: #000000; stroke-width: 0.6"/>
      </g>
     </g>
    </g>
    <g id="xtick_8">
     <g id="line2d_8">
      <g>
       <use xlink:href="#m4aa33b29fe" x="57.051412" y="314.437595" style="stroke: #000000; stroke-width: 0.6"/>
      </g>
     </g>
    </g>
    <g id="xtick_9">
     <g id="line2d_9">
      <g>
       <use xlink:href="#m4aa33b29fe" x="72.112078" y="314.437595" style="stroke: #000000; stroke-width: 0.6"/>
      </g>
     </g>
    </g>
    <g id="xtick_10">
     <g id="line2d_10">
      <g>
       <use xlink:href="#m4aa33b29fe" x="102.233411" y="314.437595" style="stroke: #000000; stroke-width: 0.6"/>
      </g>
     </g>
    </g>
    <g id="xtick_11">
     <g id="line2d_11">
      <g>
       <use xlink:href="#m4aa33b29fe" x="117.294078" y="314.437595" style="stroke: #000000; stroke-width: 0.6"/>
      </g>
     </g>
    </g>
    <g id="xtick_12">
     <g id="line2d_12">
      <g>
       <use xlink:href="#m4aa33b29fe" x="132.354744" y="314.437595" style="stroke: #000000; stroke-width: 0.6"/>
      </g>
     </g>
    </g>
    <g id="xtick_13">
     <g id="line2d_13">
      <g>
       <use xlink:href="#m4aa33b29fe" x="162.476077" y="314.437595" style="stroke: #000000; stroke-width: 0.6"/>
      </g>
     </g>
    </g>
    <g id="xtick_14">
     <g id="line2d_14">
      <g>
       <use xlink:href="#m4aa33b29fe" x="177.536743" y="314.437595" style="stroke: #000000; stroke-width: 0.6"/>
      </g>
     </g>
    </g>
    <g id="xtick_15">
     <g id="line2d_15">
      <g>
       <use xlink:href="#m4aa33b29fe" x="192.59741" y="314.437595" style="stroke: #000000; stroke-width: 0.6"/>
      </g>
     </g>
    </g>
    <g id="xtick_16">
     <g id="line2d_16">
      <g>
       <use xlink:href="#m4aa33b29fe" x="222.718743" y="314.437595" style="stroke: #000000; stroke-width: 0.6"/>
      </g>
     </g>
    </g>
    <g id="xtick_17">
     <g id="line2d_17">
      <g>
       <use xlink:href="#m4aa33b29fe" x="237.779409" y="314.437595" style="stroke: #000000; stroke-width: 0.6"/>
      </g>
     </g>
    </g>
    <g id="xtick_18">
     <g id="line2d_18">
      <g>
       <use xlink:href="#m4aa33b29fe" x="252.840075" y="314.437595" style="stroke: #000000; stroke-width: 0.6"/>
      </g>
     </g>
    </g>
    <g id="xtick_19">
     <g id="line2d_19">
      <g>
       <use xlink:href="#m4aa33b29fe" x="282.961408" y="314.437595" style="stroke: #000000; stroke-width: 0.6"/>
      </g>
     </g>
    </g>
    <g id="xtick_20">
     <g id="line2d_20">
      <g>
       <use xlink:href="#m4aa33b29fe" x="298.022075" y="314.437595" style="stroke: #000000; stroke-width: 0.6"/>
      </g>
     </g>
    </g>
    <g id="xtick_21">
     <g id="line2d_21">
      <g>
       <use xlink:href="#m4aa33b29fe" x="313.082741" y="314.437595" style="stroke: #000000; stroke-width: 0.6"/>
      </g>
     </g>
    </g>
   </g>
   <g id="matplotlib.axis_2">
    <g id="ytick_1">
     <g id="line2d_22">
      <defs>
       <path id="m8eb8019dda" d="M 0 0 
L -3.5 0 
" style="stroke: #000000; stroke-width: 0.8"/>
      </defs>
      <g>
       <use xlink:href="#m8eb8019dda" x="26.930079" y="314.437595" style="stroke: #000000; stroke-width: 0.8"/>
      </g>
     </g>
    </g>
    <g id="ytick_2">
     <g id="line2d_23">
      <g>
       <use xlink:href="#m8eb8019dda" x="26.930079" y="254.194929" style="stroke: #000000; stroke-width: 0.8"/>
      </g>
     </g>
     <g id="text_6">
      <!-- $\mathdefault{0.2}$ -->
      <g transform="translate(7.2 257.654179)scale(0.1 -0.1)">
       <use xlink:href="#CMR17-30" transform="scale(0.996264)"/>
       <use xlink:href="#CMMI12-3a" transform="translate(45.690477 0)scale(0.996264)"/>
       <use xlink:href="#CMR17-32" transform="translate(72.787654 0)scale(0.996264)"/>
      </g>
     </g>
    </g>
    <g id="ytick_3">
     <g id="line2d_24">
      <g>
       <use xlink:href="#m8eb8019dda" x="26.930079" y="193.952264" style="stroke: #000000; stroke-width: 0.8"/>
      </g>
     </g>
     <g id="text_7">
      <!-- $\mathdefault{0.4}$ -->
      <g transform="translate(7.2 197.411513)scale(0.1 -0.1)">
       <use xlink:href="#CMR17-30" transform="scale(0.996264)"/>
       <use xlink:href="#CMMI12-3a" transform="translate(45.690477 0)scale(0.996264)"/>
       <use xlink:href="#CMR17-34" transform="translate(72.787654 0)scale(0.996264)"/>
      </g>
     </g>
    </g>
    <g id="ytick_4">
     <g id="line2d_25">
      <g>
       <use xlink:href="#m8eb8019dda" x="26.930079" y="133.709598" style="stroke: #000000; stroke-width: 0.8"/>
      </g>
     </g>
     <g id="text_8">
      <!-- $\mathdefault{0.6}$ -->
      <g transform="translate(7.2 137.168847)scale(0.1 -0.1)">
       <use xlink:href="#CMR17-30" transform="scale(0.996264)"/>
       <use xlink:href="#CMMI12-3a" transform="translate(45.690477 0)scale(0.996264)"/>
       <use xlink:href="#CMR17-36" transform="translate(72.787654 0)scale(0.996264)"/>
      </g>
     </g>
    </g>
    <g id="ytick_5">
     <g id="line2d_26">
      <g>
       <use xlink:href="#m8eb8019dda" x="26.930079" y="73.466932" style="stroke: #000000; stroke-width: 0.8"/>
      </g>
     </g>
     <g id="text_9">
      <!-- $\mathdefault{0.8}$ -->
      <g transform="translate(7.2 76.926181)scale(0.1 -0.1)">
       <use xlink:href="#CMR17-30" transform="scale(0.996264)"/>
       <use xlink:href="#CMMI12-3a" transform="translate(45.690477 0)scale(0.996264)"/>
       <use xlink:href="#CMR17-38" transform="translate(72.787654 0)scale(0.996264)"/>
      </g>
     </g>
    </g>
    <g id="ytick_6">
     <g id="line2d_27">
      <g>
       <use xlink:href="#m8eb8019dda" x="26.930079" y="13.224267" style="stroke: #000000; stroke-width: 0.8"/>
      </g>
     </g>
     <g id="text_10">
      <!-- $\mathdefault{1.0}$ -->
      <g transform="translate(7.2 16.683516)scale(0.1 -0.1)">
       <use xlink:href="#CMR17-31" transform="scale(0.996264)"/>
       <use xlink:href="#CMMI12-3a" transform="translate(45.690477 0)scale(0.996264)"/>
       <use xlink:href="#CMR17-30" transform="translate(72.787654 0)scale(0.996264)"/>
      </g>
     </g>
    </g>
    <g id="ytick_7">
     <g id="line2d_28">
      <defs>
       <path id="m11d9e748ab" d="M 0 0 
L -2 0 
" style="stroke: #000000; stroke-width: 0.6"/>
      </defs>
      <g>
       <use xlink:href="#m11d9e748ab" x="26.930079" y="299.376929" style="stroke: #000000; stroke-width: 0.6"/>
      </g>
     </g>
    </g>
    <g id="ytick_8">
     <g id="line2d_29">
      <g>
       <use xlink:href="#m11d9e748ab" x="26.930079" y="284.316262" style="stroke: #000000; stroke-width: 0.6"/>
      </g>
     </g>
    </g>
    <g id="ytick_9">
     <g id="line2d_30">
      <g>
       <use xlink:href="#m11d9e748ab" x="26.930079" y="269.255596" style="stroke: #000000; stroke-width: 0.6"/>
      </g>
     </g>
    </g>
    <g id="ytick_10">
     <g id="line2d_31">
      <g>
       <use xlink:href="#m11d9e748ab" x="26.930079" y="239.134263" style="stroke: #000000; stroke-width: 0.6"/>
      </g>
     </g>
    </g>
    <g id="ytick_11">
     <g id="line2d_32">
      <g>
       <use xlink:href="#m11d9e748ab" x="26.930079" y="224.073597" style="stroke: #000000; stroke-width: 0.6"/>
      </g>
     </g>
    </g>
    <g id="ytick_12">
     <g id="line2d_33">
      <g>
       <use xlink:href="#m11d9e748ab" x="26.930079" y="209.01293" style="stroke: #000000; stroke-width: 0.6"/>
      </g>
     </g>
    </g>
    <g id="ytick_13">
     <g id="line2d_34">
      <g>
       <use xlink:href="#m11d9e748ab" x="26.930079" y="178.891597" style="stroke: #000000; stroke-width: 0.6"/>
      </g>
     </g>
    </g>
    <g id="ytick_14">
     <g id="line2d_35">
      <g>
       <use xlink:href="#m11d9e748ab" x="26.930079" y="163.830931" style="stroke: #000000; stroke-width: 0.6"/>
      </g>
     </g>
    </g>
    <g id="ytick_15">
     <g id="line2d_36">
      <g>
       <use xlink:href="#m11d9e748ab" x="26.930079" y="148.770264" style="stroke: #000000; stroke-width: 0.6"/>
      </g>
     </g>
    </g>
    <g id="ytick_16">
     <g id="line2d_37">
      <g>
       <use xlink:href="#m11d9e748ab" x="26.930079" y="118.648932" style="stroke: #000000; stroke-width: 0.6"/>
      </g>
     </g>
    </g>
    <g id="ytick_17">
     <g id="line2d_38">
      <g>
       <use xlink:href="#m11d9e748ab" x="26.930079" y="103.588265" style="stroke: #000000; stroke-width: 0.6"/>
      </g>
     </g>
    </g>
    <g id="ytick_18">
     <g id="line2d_39">
      <g>
       <use xlink:href="#m11d9e748ab" x="26.930079" y="88.527599" style="stroke: #000000; stroke-width: 0.6"/>
      </g>
     </g>
    </g>
    <g id="ytick_19">
     <g id="line2d_40">
      <g>
       <use xlink:href="#m11d9e748ab" x="26.930079" y="58.406266" style="stroke: #000000; stroke-width: 0.6"/>
      </g>
     </g>
    </g>
    <g id="ytick_20">
     <g id="line2d_41">
      <g>
       <use xlink:href="#m11d9e748ab" x="26.930079" y="43.345599" style="stroke: #000000; stroke-width: 0.6"/>
      </g>
     </g>
    </g>
    <g id="ytick_21">
     <g id="line2d_42">
      <g>
       <use xlink:href="#m11d9e748ab" x="26.930079" y="28.284933" style="stroke: #000000; stroke-width: 0.6"/>
      </g>
     </g>
    </g>
   </g>
   <g id="line2d_43">
    <path d="M 26.930079 13.224267 
L 36.071849 22.228704 
L 45.498149 31.23161 
L 55.077901 40.096935 
L 65.726913 49.626454 
L 76.519387 58.946669 
L 87.374858 67.990401 
L 98.163388 76.66117 
L 107.96684 84.27539 
L 117.113734 91.159632 
L 128.108787 99.162887 
L 139.064835 106.852392 
L 148.914307 113.530508 
L 159.887914 120.718101 
L 171.568306 128.086333 
L 182.655607 134.820992 
L 192.898129 140.826036 
L 204.867595 147.589651 
L 215.923749 153.602837 
L 228.798633 160.332612 
L 239.685007 165.802788 
L 252.013273 171.763403 
L 265.261236 177.902504 
L 276.858202 183.059312 
L 289.645965 188.520131 
L 303.854457 194.321854 
L 317.234919 199.540844 
L 328.143408 203.627404 
L 328.143408 203.627404 
" clip-path="url(#p2bac66e5b9)" style="fill: none; stroke: #ff0000; stroke-linecap: square"/>
   </g>
   <g id="patch_12">
    <path d="M 26.930079 320.461862 
L 26.930079 7.2 
" style="fill: none; stroke: #000000; stroke-width: 0.8; stroke-linejoin: miter; stroke-linecap: square"/>
   </g>
   <g id="patch_13">
    <path d="M 20.905812 314.437595 
L 334.167674 314.437595 
" style="fill: none; stroke: #000000; stroke-width: 0.8; stroke-linejoin: miter; stroke-linecap: square"/>
   </g>
  </g>
 </g>
 <defs>
  <clipPath id="p2bac66e5b9">
   <rect x="20.905812" y="7.2" width="313.261862" height="313.261862"/>
  </clipPath>
 </defs>
</svg>
