<?xml version="1.0" encoding="utf-8" standalone="no"?>
<!DOCTYPE svg PUBLIC "-//W3C//DTD SVG 1.1//EN"
  "http://www.w3.org/Graphics/SVG/1.1/DTD/svg11.dtd">
<svg xmlns:xlink="http://www.w3.org/1999/xlink" width="345.290782pt" height="337.114942pt" viewBox="0 0 345.290782 337.114942" xmlns="http://www.w3.org/2000/svg" version="1.1">
 <metadata>
  <rdf:RDF xmlns:dc="http://purl.org/dc/elements/1.1/" xmlns:cc="http://creativecommons.org/ns#" xmlns:rdf="http://www.w3.org/1999/02/22-rdf-syntax-ns#">
   <cc:Work>
    <dc:type rdf:resource="http://purl.org/dc/dcmitype/StillImage"/>
    <dc:date>2022-12-19T17:43:06.696007</dc:date>
    <dc:format>image/svg+xml</dc:format>
    <dc:creator>
     <cc:Agent>
      <dc:title>Matplotlib v3.5.2, https://matplotlib.org/</dc:title>
     </cc:Agent>
    </dc:creator>
   </cc:Work>
  </rdf:RDF>
 </metadata>
 <defs>
  <style type="text/css">*{stroke-linejoin: round; stroke-linecap: butt}</style>
 </defs>
 <g id="figure_1">
  <g id="patch_1">
   <path d="M 0 337.114942 
L 345.290782 337.114942 
L 345.290782 0 
L 0 0 
L 0 337.114942 
z
" style="fill: none"/>
  </g>
  <g id="axes_1">
   <g id="patch_2">
    <path d="M 24.102403 319.237538 
L 336.139942 319.237538 
L 336.139942 7.2 
L 24.102403 7.2 
L 24.102403 319.237538 
z
" style="fill: none"/>
   </g>
   <g id="patch_3">
    <path d="M 30.103125 313.236817 
L 30.103125 13.200722 
L 67.607637 13.200722 
L 67.607637 313.236817 
L 30.103125 313.236817 
z
" clip-path="url(#peb340370fd)" style="fill: none; stroke: #0000ff; stroke-linejoin: miter"/>
   </g>
   <g id="patch_4">
    <path d="M 67.607637 313.236817 
L 67.607637 48.455892 
L 105.112149 48.455892 
L 105.112149 313.236817 
L 67.607637 313.236817 
z
" clip-path="url(#peb340370fd)" style="fill: none; stroke: #0000ff; stroke-linejoin: miter"/>
   </g>
   <g id="patch_5">
    <path d="M 105.112149 313.236817 
L 105.112149 79.568471 
L 142.616661 79.568471 
L 142.616661 313.236817 
L 105.112149 313.236817 
z
" clip-path="url(#peb340370fd)" style="fill: none; stroke: #0000ff; stroke-linejoin: miter"/>
   </g>
   <g id="patch_6">
    <path d="M 142.616661 313.236817 
L 142.616661 107.025225 
L 180.121172 107.025225 
L 180.121172 313.236817 
L 142.616661 313.236817 
z
" clip-path="url(#peb340370fd)" style="fill: none; stroke: #0000ff; stroke-linejoin: miter"/>
   </g>
   <g id="patch_7">
    <path d="M 180.121172 313.236817 
L 180.121172 131.255726 
L 217.625684 131.255726 
L 217.625684 313.236817 
L 180.121172 313.236817 
z
" clip-path="url(#peb340370fd)" style="fill: none; stroke: #0000ff; stroke-linejoin: miter"/>
   </g>
   <g id="patch_8">
    <path d="M 217.625684 313.236817 
L 217.625684 152.639068 
L 255.130196 152.639068 
L 255.130196 313.236817 
L 217.625684 313.236817 
z
" clip-path="url(#peb340370fd)" style="fill: none; stroke: #0000ff; stroke-linejoin: miter"/>
   </g>
   <g id="patch_9">
    <path d="M 255.130196 313.236817 
L 255.130196 171.509801 
L 292.634708 171.509801 
L 292.634708 313.236817 
L 255.130196 313.236817 
z
" clip-path="url(#peb340370fd)" style="fill: none; stroke: #0000ff; stroke-linejoin: miter"/>
   </g>
   <g id="patch_10">
    <path d="M 292.634708 313.236817 
L 292.634708 188.163164 
L 330.13922 188.163164 
L 330.13922 313.236817 
L 292.634708 313.236817 
z
" clip-path="url(#peb340370fd)" style="fill: none; stroke: #0000ff; stroke-linejoin: miter"/>
   </g>
   <g id="patch_11">
    <path d="M 30.103125 313.236817 
L 30.103125 13.200722 
L 32.031194 15.122609 
L 33.373468 16.453307 
L 34.826286 17.886901 
L 36.156696 19.193632 
L 37.653932 20.657308 
L 39.273112 22.231995 
L 40.151985 23.083165 
L 41.652904 24.531024 
L 43.931385 26.715158 
L 45.629386 28.332098 
L 46.958807 29.59168 
L 48.870245 31.392953 
L 50.135467 32.578958 
L 51.931905 34.25435 
L 53.226447 35.455461 
L 53.593773 35.795333 
L 55.589042 37.634224 
L 57.227499 39.135151 
L 58.565516 40.354791 
L 60.657157 42.250517 
L 61.423755 42.942009 
L 63.382878 44.701183 
L 64.852516 46.013309 
L 65.682298 46.751323 
L 67.956635 48.763703 
L 69.373103 50.009336 
L 71.40637 51.78713 
L 71.906191 52.222308 
L 73.67294 53.754764 
L 74.926194 54.836363 
L 77.346359 56.912301 
L 78.580245 57.96426 
L 79.912981 59.095646 
L 81.941596 60.808158 
L 83.057037 61.744868 
L 83.789055 62.357701 
L 86.323448 64.467942 
L 87.612252 65.534236 
L 88.294629 66.09695 
L 90.373358 67.803282 
L 91.861173 69.017323 
L 94.111094 70.841834 
L 95.671702 72.099354 
L 97.135312 73.272786 
L 97.97447 73.942993 
L 99.954401 75.516889 
L 100.245308 75.747264 
L 102.094325 77.206328 
L 103.427493 78.252769 
L 105.773297 80.082807 
L 107.194399 81.184515 
L 107.9866 81.796407 
L 109.844991 83.225493 
L 111.775851 84.700961 
L 112.552191 85.291531 
L 114.843835 87.025921 
L 115.433003 87.469686 
L 117.806828 89.248862 
L 118.461131 89.736791 
L 120.396293 91.173675 
L 121.93575 92.310142 
L 123.62541 93.550799 
L 124.995943 94.552013 
L 126.979774 95.993181 
L 127.721776 96.52977 
L 129.883418 98.085448 
L 131.025244 98.902678 
L 132.218825 99.753633 
L 134.86638 101.629147 
L 135.739452 102.244007 
L 137.715684 103.629176 
L 138.626273 104.264356 
L 139.678071 104.995641 
L 141.035224 105.935451 
L 142.578295 106.998856 
L 144.303644 108.181417 
L 145.448051 108.962057 
L 147.928935 110.644163 
L 149.00324 111.368266 
L 151.351734 112.942199 
L 152.520134 113.720668 
L 154.075422 114.752218 
L 154.521935 115.047383 
L 157.123202 116.758228 
L 158.164421 117.438888 
L 159.443196 118.271617 
L 161.470577 119.58458 
L 163.289902 120.755274 
L 164.558183 121.567194 
L 166.098254 122.548504 
L 166.963735 123.097769 
L 168.493251 124.064589 
L 170.23874 125.161922 
L 171.220317 125.776209 
L 173.93669 127.465721 
L 175.461312 128.407316 
L 175.795257 128.61292 
L 177.945782 129.931491 
L 179.541927 130.904057 
L 180.751931 131.637899 
L 182.699269 132.812722 
L 183.599294 133.353133 
L 184.723165 134.025679 
L 186.97942 135.368282 
L 188.273473 136.133775 
L 189.87678 137.077639 
L 192.158159 138.412018 
L 193.083217 138.9502 
L 194.644436 139.854734 
L 196.15775 140.727032 
L 197.872205 141.709971 
L 198.741938 142.206466 
L 200.563765 143.24182 
L 202.092814 144.105948 
L 202.871928 144.544566 
L 205.176514 145.835332 
L 207.143214 146.92904 
L 208.349989 147.596603 
L 209.241526 148.088062 
L 210.807076 148.947542 
L 213.027541 150.158903 
L 214.274643 150.835331 
L 216.278409 151.916302 
L 217.75734 152.709523 
L 218.858642 153.297668 
L 220.766995 154.311719 
L 222.11177 155.022434 
L 222.485615 155.219447 
L 224.699129 156.380929 
L 226.522483 157.33127 
L 227.587188 157.883534 
L 228.858968 158.540645 
L 230.630305 159.451241 
L 231.49942 159.896068 
L 233.032875 160.677778 
L 235.680815 162.01825 
L 236.278786 162.319327 
L 238.778574 163.571492 
L 239.946902 164.153149 
L 241.249559 164.799018 
L 242.326658 165.330939 
L 243.644889 165.979349 
L 245.473706 166.874201 
L 247.689526 167.951134 
L 248.176428 168.186714 
L 249.663392 168.903796 
L 252.019795 170.032909 
L 253.359156 170.670747 
L 255.099935 171.495506 
L 256.961465 172.372197 
L 257.460065 172.606091 
L 259.552113 173.58325 
L 261.175739 174.336935 
L 262.971265 175.16568 
L 264.394506 175.819079 
L 265.408641 176.282773 
L 266.360861 176.716733 
L 269.021177 177.921858 
L 270.445507 178.562703 
L 271.611397 179.085009 
L 272.731168 179.584746 
L 273.815201 180.066761 
L 276.282883 181.157542 
L 276.927502 181.441006 
L 278.705181 182.219572 
L 280.524816 183.01175 
L 282.501008 183.866661 
L 283.7729 184.413917 
L 285.156791 185.006733 
L 285.867315 185.31004 
L 287.487937 185.999163 
L 289.48104 186.841586 
L 291.280611 187.597417 
L 291.792739 187.811686 
L 293.82025 188.656397 
L 294.856364 189.085868 
L 297.377609 190.124755 
L 298.649743 190.645637 
L 299.822288 191.12379 
L 300.780503 191.513156 
L 303.637259 192.666632 
L 304.065277 192.83851 
L 306.740517 193.907257 
L 307.240454 194.105925 
L 308.320089 194.533829 
L 310.521029 195.401399 
L 311.809008 195.906153 
L 313.909288 196.72461 
L 314.441371 196.931049 
L 316.324858 197.658876 
L 317.96756 198.289937 
L 320.25277 199.162099 
L 321.292727 199.55681 
L 322.462918 199.999317 
L 324.180677 200.64577 
L 326.276518 201.429511 
L 326.744576 201.603795 
L 328.297989 202.180272 
L 330.13922 202.859706 
L 330.13922 313.236817 
z
" clip-path="url(#peb340370fd)" style="fill: #808080; opacity: 0.5"/>
   </g>
   <g id="matplotlib.axis_1">
    <g id="xtick_1">
     <g id="line2d_1">
      <defs>
       <path id="mea02682638" d="M 0 0 
L 0 3.5 
" style="stroke: #000000; stroke-width: 0.8"/>
      </defs>
      <g>
       <use xlink:href="#mea02682638" x="30.103125" y="313.236817" style="stroke: #000000; stroke-width: 0.8"/>
      </g>
     </g>
    </g>
    <g id="xtick_2">
     <g id="line2d_2">
      <g>
       <use xlink:href="#mea02682638" x="90.110344" y="313.236817" style="stroke: #000000; stroke-width: 0.8"/>
      </g>
     </g>
     <g id="text_1">
      <!-- 0.2 -->
      <g transform="translate(82.158781 327.835254)scale(0.1 -0.1)">
       <defs>
        <path id="DejaVuSans-30" d="M 2034 4250 
Q 1547 4250 1301 3770 
Q 1056 3291 1056 2328 
Q 1056 1369 1301 889 
Q 1547 409 2034 409 
Q 2525 409 2770 889 
Q 3016 1369 3016 2328 
Q 3016 3291 2770 3770 
Q 2525 4250 2034 4250 
z
M 2034 4750 
Q 2819 4750 3233 4129 
Q 3647 3509 3647 2328 
Q 3647 1150 3233 529 
Q 2819 -91 2034 -91 
Q 1250 -91 836 529 
Q 422 1150 422 2328 
Q 422 3509 836 4129 
Q 1250 4750 2034 4750 
z
" transform="scale(0.015625)"/>
        <path id="DejaVuSans-2e" d="M 684 794 
L 1344 794 
L 1344 0 
L 684 0 
L 684 794 
z
" transform="scale(0.015625)"/>
        <path id="DejaVuSans-32" d="M 1228 531 
L 3431 531 
L 3431 0 
L 469 0 
L 469 531 
Q 828 903 1448 1529 
Q 2069 2156 2228 2338 
Q 2531 2678 2651 2914 
Q 2772 3150 2772 3378 
Q 2772 3750 2511 3984 
Q 2250 4219 1831 4219 
Q 1534 4219 1204 4116 
Q 875 4013 500 3803 
L 500 4441 
Q 881 4594 1212 4672 
Q 1544 4750 1819 4750 
Q 2544 4750 2975 4387 
Q 3406 4025 3406 3419 
Q 3406 3131 3298 2873 
Q 3191 2616 2906 2266 
Q 2828 2175 2409 1742 
Q 1991 1309 1228 531 
z
" transform="scale(0.015625)"/>
       </defs>
       <use xlink:href="#DejaVuSans-30"/>
       <use xlink:href="#DejaVuSans-2e" x="63.623047"/>
       <use xlink:href="#DejaVuSans-32" x="95.410156"/>
      </g>
     </g>
    </g>
    <g id="xtick_3">
     <g id="line2d_3">
      <g>
       <use xlink:href="#mea02682638" x="150.117563" y="313.236817" style="stroke: #000000; stroke-width: 0.8"/>
      </g>
     </g>
     <g id="text_2">
      <!-- 0.4 -->
      <g transform="translate(142.166 327.835254)scale(0.1 -0.1)">
       <defs>
        <path id="DejaVuSans-34" d="M 2419 4116 
L 825 1625 
L 2419 1625 
L 2419 4116 
z
M 2253 4666 
L 3047 4666 
L 3047 1625 
L 3713 1625 
L 3713 1100 
L 3047 1100 
L 3047 0 
L 2419 0 
L 2419 1100 
L 313 1100 
L 313 1709 
L 2253 4666 
z
" transform="scale(0.015625)"/>
       </defs>
       <use xlink:href="#DejaVuSans-30"/>
       <use xlink:href="#DejaVuSans-2e" x="63.623047"/>
       <use xlink:href="#DejaVuSans-34" x="95.410156"/>
      </g>
     </g>
    </g>
    <g id="xtick_4">
     <g id="line2d_4">
      <g>
       <use xlink:href="#mea02682638" x="210.124782" y="313.236817" style="stroke: #000000; stroke-width: 0.8"/>
      </g>
     </g>
     <g id="text_3">
      <!-- 0.6 -->
      <g transform="translate(202.173219 327.835254)scale(0.1 -0.1)">
       <defs>
        <path id="DejaVuSans-36" d="M 2113 2584 
Q 1688 2584 1439 2293 
Q 1191 2003 1191 1497 
Q 1191 994 1439 701 
Q 1688 409 2113 409 
Q 2538 409 2786 701 
Q 3034 994 3034 1497 
Q 3034 2003 2786 2293 
Q 2538 2584 2113 2584 
z
M 3366 4563 
L 3366 3988 
Q 3128 4100 2886 4159 
Q 2644 4219 2406 4219 
Q 1781 4219 1451 3797 
Q 1122 3375 1075 2522 
Q 1259 2794 1537 2939 
Q 1816 3084 2150 3084 
Q 2853 3084 3261 2657 
Q 3669 2231 3669 1497 
Q 3669 778 3244 343 
Q 2819 -91 2113 -91 
Q 1303 -91 875 529 
Q 447 1150 447 2328 
Q 447 3434 972 4092 
Q 1497 4750 2381 4750 
Q 2619 4750 2861 4703 
Q 3103 4656 3366 4563 
z
" transform="scale(0.015625)"/>
       </defs>
       <use xlink:href="#DejaVuSans-30"/>
       <use xlink:href="#DejaVuSans-2e" x="63.623047"/>
       <use xlink:href="#DejaVuSans-36" x="95.410156"/>
      </g>
     </g>
    </g>
    <g id="xtick_5">
     <g id="line2d_5">
      <g>
       <use xlink:href="#mea02682638" x="270.132001" y="313.236817" style="stroke: #000000; stroke-width: 0.8"/>
      </g>
     </g>
     <g id="text_4">
      <!-- 0.8 -->
      <g transform="translate(262.180438 327.835254)scale(0.1 -0.1)">
       <defs>
        <path id="DejaVuSans-38" d="M 2034 2216 
Q 1584 2216 1326 1975 
Q 1069 1734 1069 1313 
Q 1069 891 1326 650 
Q 1584 409 2034 409 
Q 2484 409 2743 651 
Q 3003 894 3003 1313 
Q 3003 1734 2745 1975 
Q 2488 2216 2034 2216 
z
M 1403 2484 
Q 997 2584 770 2862 
Q 544 3141 544 3541 
Q 544 4100 942 4425 
Q 1341 4750 2034 4750 
Q 2731 4750 3128 4425 
Q 3525 4100 3525 3541 
Q 3525 3141 3298 2862 
Q 3072 2584 2669 2484 
Q 3125 2378 3379 2068 
Q 3634 1759 3634 1313 
Q 3634 634 3220 271 
Q 2806 -91 2034 -91 
Q 1263 -91 848 271 
Q 434 634 434 1313 
Q 434 1759 690 2068 
Q 947 2378 1403 2484 
z
M 1172 3481 
Q 1172 3119 1398 2916 
Q 1625 2713 2034 2713 
Q 2441 2713 2670 2916 
Q 2900 3119 2900 3481 
Q 2900 3844 2670 4047 
Q 2441 4250 2034 4250 
Q 1625 4250 1398 4047 
Q 1172 3844 1172 3481 
z
" transform="scale(0.015625)"/>
       </defs>
       <use xlink:href="#DejaVuSans-30"/>
       <use xlink:href="#DejaVuSans-2e" x="63.623047"/>
       <use xlink:href="#DejaVuSans-38" x="95.410156"/>
      </g>
     </g>
    </g>
    <g id="xtick_6">
     <g id="line2d_6">
      <g>
       <use xlink:href="#mea02682638" x="330.13922" y="313.236817" style="stroke: #000000; stroke-width: 0.8"/>
      </g>
     </g>
     <g id="text_5">
      <!-- 1.0 -->
      <g transform="translate(322.187657 327.835254)scale(0.1 -0.1)">
       <defs>
        <path id="DejaVuSans-31" d="M 794 531 
L 1825 531 
L 1825 4091 
L 703 3866 
L 703 4441 
L 1819 4666 
L 2450 4666 
L 2450 531 
L 3481 531 
L 3481 0 
L 794 0 
L 794 531 
z
" transform="scale(0.015625)"/>
       </defs>
       <use xlink:href="#DejaVuSans-31"/>
       <use xlink:href="#DejaVuSans-2e" x="63.623047"/>
       <use xlink:href="#DejaVuSans-30" x="95.410156"/>
      </g>
     </g>
    </g>
    <g id="xtick_7">
     <g id="line2d_7">
      <defs>
       <path id="meeae313c6a" d="M 0 0 
L 0 2 
" style="stroke: #000000; stroke-width: 0.6"/>
      </defs>
      <g>
       <use xlink:href="#meeae313c6a" x="45.10493" y="313.236817" style="stroke: #000000; stroke-width: 0.6"/>
      </g>
     </g>
    </g>
    <g id="xtick_8">
     <g id="line2d_8">
      <g>
       <use xlink:href="#meeae313c6a" x="60.106734" y="313.236817" style="stroke: #000000; stroke-width: 0.6"/>
      </g>
     </g>
    </g>
    <g id="xtick_9">
     <g id="line2d_9">
      <g>
       <use xlink:href="#meeae313c6a" x="75.108539" y="313.236817" style="stroke: #000000; stroke-width: 0.6"/>
      </g>
     </g>
    </g>
    <g id="xtick_10">
     <g id="line2d_10">
      <g>
       <use xlink:href="#meeae313c6a" x="105.112149" y="313.236817" style="stroke: #000000; stroke-width: 0.6"/>
      </g>
     </g>
    </g>
    <g id="xtick_11">
     <g id="line2d_11">
      <g>
       <use xlink:href="#meeae313c6a" x="120.113953" y="313.236817" style="stroke: #000000; stroke-width: 0.6"/>
      </g>
     </g>
    </g>
    <g id="xtick_12">
     <g id="line2d_12">
      <g>
       <use xlink:href="#meeae313c6a" x="135.115758" y="313.236817" style="stroke: #000000; stroke-width: 0.6"/>
      </g>
     </g>
    </g>
    <g id="xtick_13">
     <g id="line2d_13">
      <g>
       <use xlink:href="#meeae313c6a" x="165.119368" y="313.236817" style="stroke: #000000; stroke-width: 0.6"/>
      </g>
     </g>
    </g>
    <g id="xtick_14">
     <g id="line2d_14">
      <g>
       <use xlink:href="#meeae313c6a" x="180.121172" y="313.236817" style="stroke: #000000; stroke-width: 0.6"/>
      </g>
     </g>
    </g>
    <g id="xtick_15">
     <g id="line2d_15">
      <g>
       <use xlink:href="#meeae313c6a" x="195.122977" y="313.236817" style="stroke: #000000; stroke-width: 0.6"/>
      </g>
     </g>
    </g>
    <g id="xtick_16">
     <g id="line2d_16">
      <g>
       <use xlink:href="#meeae313c6a" x="225.126587" y="313.236817" style="stroke: #000000; stroke-width: 0.6"/>
      </g>
     </g>
    </g>
    <g id="xtick_17">
     <g id="line2d_17">
      <g>
       <use xlink:href="#meeae313c6a" x="240.128391" y="313.236817" style="stroke: #000000; stroke-width: 0.6"/>
      </g>
     </g>
    </g>
    <g id="xtick_18">
     <g id="line2d_18">
      <g>
       <use xlink:href="#meeae313c6a" x="255.130196" y="313.236817" style="stroke: #000000; stroke-width: 0.6"/>
      </g>
     </g>
    </g>
    <g id="xtick_19">
     <g id="line2d_19">
      <g>
       <use xlink:href="#meeae313c6a" x="285.133805" y="313.236817" style="stroke: #000000; stroke-width: 0.6"/>
      </g>
     </g>
    </g>
    <g id="xtick_20">
     <g id="line2d_20">
      <g>
       <use xlink:href="#meeae313c6a" x="300.13561" y="313.236817" style="stroke: #000000; stroke-width: 0.6"/>
      </g>
     </g>
    </g>
    <g id="xtick_21">
     <g id="line2d_21">
      <g>
       <use xlink:href="#meeae313c6a" x="315.137415" y="313.236817" style="stroke: #000000; stroke-width: 0.6"/>
      </g>
     </g>
    </g>
   </g>
   <g id="matplotlib.axis_2">
    <g id="ytick_1">
     <g id="line2d_22">
      <defs>
       <path id="md364d56cad" d="M 0 0 
L -3.5 0 
" style="stroke: #000000; stroke-width: 0.8"/>
      </defs>
      <g>
       <use xlink:href="#md364d56cad" x="30.103125" y="313.236817" style="stroke: #000000; stroke-width: 0.8"/>
      </g>
     </g>
    </g>
    <g id="ytick_2">
     <g id="line2d_23">
      <g>
       <use xlink:href="#md364d56cad" x="30.103125" y="253.229598" style="stroke: #000000; stroke-width: 0.8"/>
      </g>
     </g>
     <g id="text_6">
      <!-- 0.2 -->
      <g transform="translate(7.2 257.028816)scale(0.1 -0.1)">
       <use xlink:href="#DejaVuSans-30"/>
       <use xlink:href="#DejaVuSans-2e" x="63.623047"/>
       <use xlink:href="#DejaVuSans-32" x="95.410156"/>
      </g>
     </g>
    </g>
    <g id="ytick_3">
     <g id="line2d_24">
      <g>
       <use xlink:href="#md364d56cad" x="30.103125" y="193.222379" style="stroke: #000000; stroke-width: 0.8"/>
      </g>
     </g>
     <g id="text_7">
      <!-- 0.4 -->
      <g transform="translate(7.2 197.021597)scale(0.1 -0.1)">
       <use xlink:href="#DejaVuSans-30"/>
       <use xlink:href="#DejaVuSans-2e" x="63.623047"/>
       <use xlink:href="#DejaVuSans-34" x="95.410156"/>
      </g>
     </g>
    </g>
    <g id="ytick_4">
     <g id="line2d_25">
      <g>
       <use xlink:href="#md364d56cad" x="30.103125" y="133.21516" style="stroke: #000000; stroke-width: 0.8"/>
      </g>
     </g>
     <g id="text_8">
      <!-- 0.6 -->
      <g transform="translate(7.2 137.014379)scale(0.1 -0.1)">
       <use xlink:href="#DejaVuSans-30"/>
       <use xlink:href="#DejaVuSans-2e" x="63.623047"/>
       <use xlink:href="#DejaVuSans-36" x="95.410156"/>
      </g>
     </g>
    </g>
    <g id="ytick_5">
     <g id="line2d_26">
      <g>
       <use xlink:href="#md364d56cad" x="30.103125" y="73.207941" style="stroke: #000000; stroke-width: 0.8"/>
      </g>
     </g>
     <g id="text_9">
      <!-- 0.8 -->
      <g transform="translate(7.2 77.00716)scale(0.1 -0.1)">
       <use xlink:href="#DejaVuSans-30"/>
       <use xlink:href="#DejaVuSans-2e" x="63.623047"/>
       <use xlink:href="#DejaVuSans-38" x="95.410156"/>
      </g>
     </g>
    </g>
    <g id="ytick_6">
     <g id="line2d_27">
      <g>
       <use xlink:href="#md364d56cad" x="30.103125" y="13.200722" style="stroke: #000000; stroke-width: 0.8"/>
      </g>
     </g>
     <g id="text_10">
      <!-- 1.0 -->
      <g transform="translate(7.2 16.999941)scale(0.1 -0.1)">
       <use xlink:href="#DejaVuSans-31"/>
       <use xlink:href="#DejaVuSans-2e" x="63.623047"/>
       <use xlink:href="#DejaVuSans-30" x="95.410156"/>
      </g>
     </g>
    </g>
    <g id="ytick_7">
     <g id="line2d_28">
      <defs>
       <path id="m022bf235a0" d="M 0 0 
L -2 0 
" style="stroke: #000000; stroke-width: 0.6"/>
      </defs>
      <g>
       <use xlink:href="#m022bf235a0" x="30.103125" y="298.235012" style="stroke: #000000; stroke-width: 0.6"/>
      </g>
     </g>
    </g>
    <g id="ytick_8">
     <g id="line2d_29">
      <g>
       <use xlink:href="#m022bf235a0" x="30.103125" y="283.233207" style="stroke: #000000; stroke-width: 0.6"/>
      </g>
     </g>
    </g>
    <g id="ytick_9">
     <g id="line2d_30">
      <g>
       <use xlink:href="#m022bf235a0" x="30.103125" y="268.231402" style="stroke: #000000; stroke-width: 0.6"/>
      </g>
     </g>
    </g>
    <g id="ytick_10">
     <g id="line2d_31">
      <g>
       <use xlink:href="#m022bf235a0" x="30.103125" y="238.227793" style="stroke: #000000; stroke-width: 0.6"/>
      </g>
     </g>
    </g>
    <g id="ytick_11">
     <g id="line2d_32">
      <g>
       <use xlink:href="#m022bf235a0" x="30.103125" y="223.225988" style="stroke: #000000; stroke-width: 0.6"/>
      </g>
     </g>
    </g>
    <g id="ytick_12">
     <g id="line2d_33">
      <g>
       <use xlink:href="#m022bf235a0" x="30.103125" y="208.224183" style="stroke: #000000; stroke-width: 0.6"/>
      </g>
     </g>
    </g>
    <g id="ytick_13">
     <g id="line2d_34">
      <g>
       <use xlink:href="#m022bf235a0" x="30.103125" y="178.220574" style="stroke: #000000; stroke-width: 0.6"/>
      </g>
     </g>
    </g>
    <g id="ytick_14">
     <g id="line2d_35">
      <g>
       <use xlink:href="#m022bf235a0" x="30.103125" y="163.218769" style="stroke: #000000; stroke-width: 0.6"/>
      </g>
     </g>
    </g>
    <g id="ytick_15">
     <g id="line2d_36">
      <g>
       <use xlink:href="#m022bf235a0" x="30.103125" y="148.216964" style="stroke: #000000; stroke-width: 0.6"/>
      </g>
     </g>
    </g>
    <g id="ytick_16">
     <g id="line2d_37">
      <g>
       <use xlink:href="#m022bf235a0" x="30.103125" y="118.213355" style="stroke: #000000; stroke-width: 0.6"/>
      </g>
     </g>
    </g>
    <g id="ytick_17">
     <g id="line2d_38">
      <g>
       <use xlink:href="#m022bf235a0" x="30.103125" y="103.21155" style="stroke: #000000; stroke-width: 0.6"/>
      </g>
     </g>
    </g>
    <g id="ytick_18">
     <g id="line2d_39">
      <g>
       <use xlink:href="#m022bf235a0" x="30.103125" y="88.209746" style="stroke: #000000; stroke-width: 0.6"/>
      </g>
     </g>
    </g>
    <g id="ytick_19">
     <g id="line2d_40">
      <g>
       <use xlink:href="#m022bf235a0" x="30.103125" y="58.206136" style="stroke: #000000; stroke-width: 0.6"/>
      </g>
     </g>
    </g>
    <g id="ytick_20">
     <g id="line2d_41">
      <g>
       <use xlink:href="#m022bf235a0" x="30.103125" y="43.204331" style="stroke: #000000; stroke-width: 0.6"/>
      </g>
     </g>
    </g>
    <g id="ytick_21">
     <g id="line2d_42">
      <g>
       <use xlink:href="#m022bf235a0" x="30.103125" y="28.202527" style="stroke: #000000; stroke-width: 0.6"/>
      </g>
     </g>
    </g>
   </g>
   <g id="line2d_43">
    <path d="M 30.103125 13.200722 
L 40.151985 23.083165 
L 50.135467 32.578958 
L 60.657157 42.250517 
L 69.373103 50.009336 
L 79.912981 59.095646 
L 90.373358 67.803282 
L 100.245308 75.747264 
L 109.844991 83.225493 
L 120.396293 91.173675 
L 131.025244 98.902678 
L 141.035224 105.935451 
L 152.520134 113.720668 
L 163.289902 120.755274 
L 173.93669 127.465721 
L 184.723165 134.025679 
L 196.15775 140.727032 
L 208.349989 147.596603 
L 218.858642 153.297668 
L 231.49942 159.896068 
L 243.644889 165.979349 
L 256.961465 172.372197 
L 269.021177 177.921858 
L 282.501008 183.866661 
L 294.856364 189.085868 
L 308.320089 194.533829 
L 322.462918 199.999317 
L 330.13922 202.859706 
L 330.13922 202.859706 
" clip-path="url(#peb340370fd)" style="fill: none; stroke: #ff0000; stroke-linecap: square"/>
   </g>
   <g id="patch_12">
    <path d="M 30.103125 319.237538 
L 30.103125 7.2 
" style="fill: none; stroke: #000000; stroke-width: 0.8; stroke-linejoin: miter; stroke-linecap: square"/>
   </g>
   <g id="patch_13">
    <path d="M 24.102403 313.236817 
L 336.139942 313.236817 
" style="fill: none; stroke: #000000; stroke-width: 0.8; stroke-linejoin: miter; stroke-linecap: square"/>
   </g>
  </g>
 </g>
 <defs>
  <clipPath id="peb340370fd">
   <rect x="24.102403" y="7.2" width="312.037538" height="312.037538"/>
  </clipPath>
 </defs>
</svg>
