<?xml version="1.0" encoding="UTF-8" standalone="no"?>
<svg
   width="233.413pt"
   height="121.162pt"
   viewBox="0 0 233.413 121.162"
   version="1.1"
   id="svg394"
   xmlns:xlink="http://www.w3.org/1999/xlink"
   xmlns="http://www.w3.org/2000/svg"
   xmlns:svg="http://www.w3.org/2000/svg">
  <defs
     id="defs142">
    <g
       id="g137">
      <g
         id="glyph-0-0" />
      <g
         id="glyph-0-1">
        <path
           d="M 1.765625 -6.921875 L 0.328125 -6.8125 L 0.328125 -6.5 C 1.03125 -6.5 1.109375 -6.4375 1.109375 -5.9375 L 1.109375 -0.75 C 1.109375 -0.3125 1 -0.3125 0.328125 -0.3125 L 0.328125 0 C 0.65625 -0.015625 1.1875 -0.03125 1.4375 -0.03125 C 1.6875 -0.03125 2.171875 -0.015625 2.546875 0 L 2.546875 -0.3125 C 1.875 -0.3125 1.765625 -0.3125 1.765625 -0.75 Z M 1.765625 -6.921875 "
           id="path3" />
      </g>
      <g
         id="glyph-0-2">
        <path
           d="M 1.109375 -2.515625 C 1.171875 -4 2.015625 -4.25 2.359375 -4.25 C 3.375 -4.25 3.484375 -2.90625 3.484375 -2.515625 Z M 1.109375 -2.296875 L 3.890625 -2.296875 C 4.109375 -2.296875 4.140625 -2.296875 4.140625 -2.515625 C 4.140625 -3.5 3.59375 -4.46875 2.359375 -4.46875 C 1.203125 -4.46875 0.28125 -3.4375 0.28125 -2.1875 C 0.28125 -0.859375 1.328125 0.109375 2.46875 0.109375 C 3.6875 0.109375 4.140625 -1 4.140625 -1.1875 C 4.140625 -1.28125 4.0625 -1.3125 4 -1.3125 C 3.921875 -1.3125 3.890625 -1.25 3.875 -1.171875 C 3.53125 -0.140625 2.625 -0.140625 2.53125 -0.140625 C 2.03125 -0.140625 1.640625 -0.4375 1.40625 -0.8125 C 1.109375 -1.28125 1.109375 -1.9375 1.109375 -2.296875 Z M 1.109375 -2.296875 "
           id="path6" />
      </g>
      <g
         id="glyph-0-3">
        <path
           d="M 1.71875 -3.984375 L 3.15625 -3.984375 L 3.15625 -4.296875 L 1.71875 -4.296875 L 1.71875 -6.125 L 1.46875 -6.125 C 1.46875 -5.3125 1.171875 -4.25 0.1875 -4.203125 L 0.1875 -3.984375 L 1.03125 -3.984375 L 1.03125 -1.234375 C 1.03125 -0.015625 1.96875 0.109375 2.328125 0.109375 C 3.03125 0.109375 3.3125 -0.59375 3.3125 -1.234375 L 3.3125 -1.796875 L 3.0625 -1.796875 L 3.0625 -1.25 C 3.0625 -0.515625 2.765625 -0.140625 2.390625 -0.140625 C 1.71875 -0.140625 1.71875 -1.046875 1.71875 -1.21875 Z M 1.71875 -3.984375 "
           id="path9" />
      </g>
      <g
         id="glyph-0-4">
        <path
           d="M 1.671875 -3.3125 L 1.671875 -4.40625 L 0.28125 -4.296875 L 0.28125 -3.984375 C 0.984375 -3.984375 1.0625 -3.921875 1.0625 -3.421875 L 1.0625 -0.75 C 1.0625 -0.3125 0.953125 -0.3125 0.28125 -0.3125 L 0.28125 0 C 0.671875 -0.015625 1.140625 -0.03125 1.421875 -0.03125 C 1.8125 -0.03125 2.28125 -0.03125 2.6875 0 L 2.6875 -0.3125 L 2.46875 -0.3125 C 1.734375 -0.3125 1.71875 -0.421875 1.71875 -0.78125 L 1.71875 -2.3125 C 1.71875 -3.296875 2.140625 -4.1875 2.890625 -4.1875 C 2.953125 -4.1875 2.984375 -4.1875 3 -4.171875 C 2.96875 -4.171875 2.765625 -4.046875 2.765625 -3.78125 C 2.765625 -3.515625 2.984375 -3.359375 3.203125 -3.359375 C 3.375 -3.359375 3.625 -3.484375 3.625 -3.796875 C 3.625 -4.109375 3.3125 -4.40625 2.890625 -4.40625 C 2.15625 -4.40625 1.796875 -3.734375 1.671875 -3.3125 Z M 1.671875 -3.3125 "
           id="path12" />
      </g>
      <g
         id="glyph-0-5">
        <path
           d="M 3.3125 -0.75 C 3.359375 -0.359375 3.625 0.0625 4.09375 0.0625 C 4.3125 0.0625 4.921875 -0.078125 4.921875 -0.890625 L 4.921875 -1.453125 L 4.671875 -1.453125 L 4.671875 -0.890625 C 4.671875 -0.3125 4.421875 -0.25 4.3125 -0.25 C 3.984375 -0.25 3.9375 -0.703125 3.9375 -0.75 L 3.9375 -2.734375 C 3.9375 -3.15625 3.9375 -3.546875 3.578125 -3.921875 C 3.1875 -4.3125 2.6875 -4.46875 2.21875 -4.46875 C 1.390625 -4.46875 0.703125 -4 0.703125 -3.34375 C 0.703125 -3.046875 0.90625 -2.875 1.171875 -2.875 C 1.453125 -2.875 1.625 -3.078125 1.625 -3.328125 C 1.625 -3.453125 1.578125 -3.78125 1.109375 -3.78125 C 1.390625 -4.140625 1.875 -4.25 2.1875 -4.25 C 2.6875 -4.25 3.25 -3.859375 3.25 -2.96875 L 3.25 -2.609375 C 2.734375 -2.578125 2.046875 -2.546875 1.421875 -2.25 C 0.671875 -1.90625 0.421875 -1.390625 0.421875 -0.953125 C 0.421875 -0.140625 1.390625 0.109375 2.015625 0.109375 C 2.671875 0.109375 3.125 -0.296875 3.3125 -0.75 Z M 3.25 -2.390625 L 3.25 -1.390625 C 3.25 -0.453125 2.53125 -0.109375 2.078125 -0.109375 C 1.59375 -0.109375 1.1875 -0.453125 1.1875 -0.953125 C 1.1875 -1.5 1.609375 -2.328125 3.25 -2.390625 Z M 3.25 -2.390625 "
           id="path15" />
      </g>
      <g
         id="glyph-0-6">
        <path
           d="M 1.171875 -2.171875 C 1.171875 -3.796875 1.984375 -4.21875 2.515625 -4.21875 C 2.609375 -4.21875 3.234375 -4.203125 3.578125 -3.84375 C 3.171875 -3.8125 3.109375 -3.515625 3.109375 -3.390625 C 3.109375 -3.125 3.296875 -2.9375 3.5625 -2.9375 C 3.828125 -2.9375 4.03125 -3.09375 4.03125 -3.40625 C 4.03125 -4.078125 3.265625 -4.46875 2.5 -4.46875 C 1.25 -4.46875 0.34375 -3.390625 0.34375 -2.15625 C 0.34375 -0.875 1.328125 0.109375 2.484375 0.109375 C 3.8125 0.109375 4.140625 -1.09375 4.140625 -1.1875 C 4.140625 -1.28125 4.03125 -1.28125 4 -1.28125 C 3.921875 -1.28125 3.890625 -1.25 3.875 -1.1875 C 3.59375 -0.265625 2.9375 -0.140625 2.578125 -0.140625 C 2.046875 -0.140625 1.171875 -0.5625 1.171875 -2.171875 Z M 1.171875 -2.171875 "
           id="path18" />
      </g>
      <g
         id="glyph-0-7">
        <path
           d="M 1.71875 -3.75 L 1.71875 -4.40625 L 0.28125 -4.296875 L 0.28125 -3.984375 C 0.984375 -3.984375 1.0625 -3.921875 1.0625 -3.484375 L 1.0625 1.171875 C 1.0625 1.625 0.953125 1.625 0.28125 1.625 L 0.28125 1.9375 C 0.625 1.921875 1.140625 1.90625 1.390625 1.90625 C 1.671875 1.90625 2.171875 1.921875 2.515625 1.9375 L 2.515625 1.625 C 1.859375 1.625 1.75 1.625 1.75 1.171875 L 1.75 -0.59375 C 1.796875 -0.421875 2.21875 0.109375 2.96875 0.109375 C 4.15625 0.109375 5.1875 -0.875 5.1875 -2.15625 C 5.1875 -3.421875 4.234375 -4.40625 3.109375 -4.40625 C 2.328125 -4.40625 1.90625 -3.96875 1.71875 -3.75 Z M 1.75 -1.140625 L 1.75 -3.359375 C 2.03125 -3.875 2.515625 -4.15625 3.03125 -4.15625 C 3.765625 -4.15625 4.359375 -3.28125 4.359375 -2.15625 C 4.359375 -0.953125 3.671875 -0.109375 2.9375 -0.109375 C 2.53125 -0.109375 2.15625 -0.3125 1.890625 -0.71875 C 1.75 -0.921875 1.75 -0.9375 1.75 -1.140625 Z M 1.75 -1.140625 "
           id="path21" />
      </g>
      <g
         id="glyph-0-8">
        <path
           d="M 3.78125 -0.546875 L 3.78125 0.109375 L 5.25 0 L 5.25 -0.3125 C 4.5625 -0.3125 4.46875 -0.375 4.46875 -0.875 L 4.46875 -6.921875 L 3.046875 -6.8125 L 3.046875 -6.5 C 3.734375 -6.5 3.8125 -6.4375 3.8125 -5.9375 L 3.8125 -3.78125 C 3.53125 -4.140625 3.09375 -4.40625 2.5625 -4.40625 C 1.390625 -4.40625 0.34375 -3.421875 0.34375 -2.140625 C 0.34375 -0.875 1.3125 0.109375 2.453125 0.109375 C 3.09375 0.109375 3.53125 -0.234375 3.78125 -0.546875 Z M 3.78125 -3.21875 L 3.78125 -1.171875 C 3.78125 -1 3.78125 -0.984375 3.671875 -0.8125 C 3.375 -0.328125 2.9375 -0.109375 2.5 -0.109375 C 2.046875 -0.109375 1.6875 -0.375 1.453125 -0.75 C 1.203125 -1.15625 1.171875 -1.71875 1.171875 -2.140625 C 1.171875 -2.5 1.1875 -3.09375 1.46875 -3.546875 C 1.6875 -3.859375 2.0625 -4.1875 2.609375 -4.1875 C 2.953125 -4.1875 3.375 -4.03125 3.671875 -3.59375 C 3.78125 -3.421875 3.78125 -3.40625 3.78125 -3.21875 Z M 3.78125 -3.21875 "
           id="path24" />
      </g>
      <g
         id="glyph-1-0" />
      <g
         id="glyph-1-1">
        <path
           d="M -2.578125 -2.515625 L -0.1875 -1.3125 C 0.203125 -1.125 0.15625 -1.015625 -0.140625 -0.421875 L 0.140625 -0.28125 C 0.28125 -0.59375 0.5 -1.0625 0.625 -1.3125 C 0.734375 -1.53125 0.984375 -1.984375 1.140625 -2.296875 L 0.859375 -2.4375 C 0.5625 -1.828125 0.515625 -1.734375 0.125 -1.921875 L -1.515625 -2.75 C -2.453125 -3.21875 -2.625 -4.109375 -2.359375 -4.671875 C -2.0625 -5.25 -1.53125 -5.109375 -1.015625 -4.84375 L 1.0625 -3.796875 C 1.453125 -3.609375 1.40625 -3.515625 1.109375 -2.90625 L 1.390625 -2.765625 C 1.515625 -3.078125 1.734375 -3.546875 1.859375 -3.78125 C 1.96875 -4.015625 2.21875 -4.46875 2.390625 -4.765625 L 2.109375 -4.90625 C 1.875 -4.4375 1.765625 -4.21875 1.5 -4.34375 L -0.203125 -5.203125 C -0.96875 -5.59375 -1.234375 -5.71875 -1.703125 -5.59375 C -1.921875 -5.546875 -2.25 -5.34375 -2.5 -4.828125 C -2.828125 -4.171875 -2.671875 -3.5625 -2.234375 -3.03125 L -3.171875 -3.5 L -3.703125 -2.203125 L -3.421875 -2.0625 C -3.109375 -2.6875 -3.015625 -2.734375 -2.578125 -2.515625 Z M -2.578125 -2.515625 "
           id="path28" />
      </g>
      <g
         id="glyph-1-2">
        <path
           d="M 0.171875 -5.140625 C -0.953125 -5.703125 -2.34375 -5.3125 -2.875 -4.234375 C -3.4375 -3.125 -2.890625 -1.765625 -1.796875 -1.203125 C -0.625 -0.625 0.6875 -1.125 1.203125 -2.171875 C 1.75 -3.25 1.3125 -4.578125 0.171875 -5.140625 Z M 1 -2.296875 C 0.796875 -1.90625 0.421875 -1.609375 -0.125 -1.578125 C -0.625 -1.5625 -1.15625 -1.828125 -1.484375 -2 C -1.828125 -2.171875 -2.3125 -2.40625 -2.609375 -2.796875 C -2.890625 -3.234375 -2.875 -3.765625 -2.6875 -4.125 C -2.484375 -4.515625 -2.109375 -4.78125 -1.609375 -4.84375 C -1.109375 -4.890625 -0.578125 -4.625 -0.25 -4.46875 C 0.078125 -4.296875 0.5625 -4.0625 0.859375 -3.65625 C 1.15625 -3.25 1.203125 -2.734375 1 -2.296875 Z M 1 -2.296875 "
           id="path31" />
      </g>
      <g
         id="glyph-1-3">
        <path
           d="M -0.796875 -5.515625 C -1.515625 -5.875 -2.25 -6.1875 -3.0625 -6.21875 C -4.125 -6.25 -4.640625 -5.5625 -4.8125 -5.203125 C -5.09375 -4.65625 -5.171875 -3.890625 -4.546875 -3.109375 C -4.0625 -2.515625 -3.390625 -2.125 -2.671875 -1.765625 C -2.015625 -1.4375 -1.203125 -1.0625 -0.328125 -1.09375 C 0.578125 -1.125 1.09375 -1.6875 1.3125 -2.125 C 1.546875 -2.609375 1.703125 -3.375 1.046875 -4.1875 C 0.578125 -4.78125 -0.109375 -5.171875 -0.796875 -5.515625 Z M 1.109375 -2.21875 C 0.9375 -1.875 0.453125 -1.453125 -0.484375 -1.71875 C -1.0625 -1.890625 -1.890625 -2.3125 -2.421875 -2.578125 C -2.984375 -2.859375 -3.578125 -3.15625 -4.015625 -3.453125 C -5 -4.15625 -4.75 -4.875 -4.640625 -5.09375 C -4.484375 -5.390625 -4.03125 -5.890625 -3.0625 -5.609375 C -2.5 -5.46875 -1.828125 -5.140625 -1.28125 -4.859375 C -0.609375 -4.515625 0 -4.21875 0.515625 -3.828125 C 1.296875 -3.25 1.3125 -2.625 1.109375 -2.21875 Z M 1.109375 -2.21875 "
           id="path34" />
      </g>
      <g
         id="glyph-1-4">
        <path
           d="M 0.390625 -1.9375 C 0.125 -2.0625 -0.203125 -1.96875 -0.328125 -1.71875 C -0.46875 -1.453125 -0.34375 -1.125 -0.078125 -1 C 0.1875 -0.875 0.484375 -0.984375 0.625 -1.25 C 0.75 -1.5 0.65625 -1.8125 0.390625 -1.9375 Z M 0.390625 -1.9375 "
           id="path37" />
      </g>
      <g
         id="glyph-1-5">
        <path
           d="M -1.203125 -4.6875 L -0.90625 -4.53125 C 1.171875 -3.5 1.109375 -2.375 0.859375 -1.859375 C 0.78125 -1.703125 0.53125 -1.21875 0.09375 -1.140625 C 0.296875 -1.53125 0.078125 -1.71875 -0.078125 -1.796875 C -0.359375 -1.9375 -0.59375 -1.796875 -0.6875 -1.59375 C -0.75 -1.453125 -0.828125 -1.15625 -0.46875 -0.984375 C 0.125 -0.671875 0.734375 -0.984375 1.125 -1.734375 C 1.703125 -2.890625 1.03125 -4.59375 -0.890625 -5.546875 C -3.296875 -6.75 -4.421875 -6.015625 -4.8125 -5.21875 C -5.0625 -4.734375 -5.109375 -4.21875 -4.90625 -3.640625 C -4.6875 -3.0625 -4.40625 -2.671875 -3.734375 -2.34375 C -2.640625 -1.78125 -1.359375 -2.125 -0.859375 -3.125 C -0.59375 -3.671875 -0.78125 -4.21875 -1.203125 -4.6875 Z M -1.078125 -3.25 C -1.140625 -3.109375 -1.359375 -2.6875 -2.046875 -2.703125 C -2.453125 -2.6875 -2.890625 -2.90625 -3.328125 -3.140625 C -3.8125 -3.375 -4.234375 -3.578125 -4.46875 -3.953125 C -4.8125 -4.40625 -4.75 -4.796875 -4.59375 -5.109375 C -4.390625 -5.53125 -3.921875 -5.671875 -3.453125 -5.625 C -3.109375 -5.578125 -2.546875 -5.328125 -2.140625 -5.125 C -1.390625 -4.765625 -0.6875 -4.03125 -1.078125 -3.25 Z M -1.078125 -3.25 "
           id="path40" />
      </g>
      <g
         id="glyph-1-6">
        <path
           d="M -2.328125 -2.625 L -2.546875 -2.75 C -4.796875 -3.875 -4.578125 -5.140625 -4.34375 -5.59375 C -4.25 -5.8125 -4 -6.15625 -3.59375 -6.1875 C -3.671875 -6.046875 -3.84375 -5.703125 -3.453125 -5.515625 C -3.171875 -5.375 -2.921875 -5.515625 -2.828125 -5.703125 C -2.765625 -5.84375 -2.703125 -6.171875 -3.046875 -6.34375 C -3.578125 -6.609375 -4.203125 -6.4375 -4.578125 -5.6875 C -5.140625 -4.546875 -4.609375 -2.765625 -2.640625 -1.78125 C -0.25 -0.59375 0.90625 -1.3125 1.328125 -2.140625 C 1.8125 -3.140625 1.40625 -4.40625 0.234375 -4.984375 C -0.90625 -5.546875 -2.15625 -5.1875 -2.65625 -4.203125 C -2.953125 -3.59375 -2.6875 -3.03125 -2.328125 -2.625 Z M 1.0625 -2.265625 C 0.78125 -1.703125 0.109375 -1.703125 -0.0625 -1.71875 C -0.546875 -1.765625 -1.265625 -2.109375 -1.421875 -2.1875 C -2.125 -2.546875 -2.875 -3.28125 -2.46875 -4.078125 C -2.390625 -4.234375 -2.1875 -4.640625 -1.484375 -4.625 C -1.078125 -4.625 -0.625 -4.390625 -0.1875 -4.1875 C 0.25 -3.96875 0.6875 -3.734375 0.9375 -3.421875 C 1.328125 -2.890625 1.15625 -2.484375 1.0625 -2.265625 Z M 1.0625 -2.265625 "
           id="path43" />
      </g>
      <g
         id="glyph-1-7">
        <path
           d="M -0.125 -1.46875 L -0.5625 -2.875 C -1.109375 -4.890625 -1.3125 -5.65625 -2.203125 -6.109375 C -3.234375 -6.609375 -4.34375 -6.171875 -4.875 -5.078125 C -5.390625 -4.078125 -4.890625 -3.015625 -4.09375 -2.609375 C -3.609375 -2.375 -3.375 -2.8125 -3.359375 -2.84375 C -3.296875 -3 -3.234375 -3.359375 -3.609375 -3.546875 C -3.84375 -3.65625 -4.15625 -3.609375 -4.3125 -3.296875 C -4.34375 -3.234375 -4.359375 -3.21875 -4.359375 -3.171875 C -4.84375 -3.671875 -4.921875 -4.3125 -4.65625 -4.828125 C -4.25 -5.640625 -3.34375 -5.65625 -2.609375 -5.296875 C -1.90625 -4.9375 -1.421875 -4.140625 -1.109375 -3.375 L -0.0625 -0.71875 C -0.015625 -0.578125 0.015625 -0.5625 0.21875 -0.453125 L 1.875 -3.765625 L 0.453125 -4.78125 L 0.34375 -4.5625 C 0.578125 -4.375 0.953125 -4.125 1.03125 -3.953125 C 1.078125 -3.859375 0.78125 -3.28125 0.6875 -3.078125 Z M -0.125 -1.46875 "
           id="path46" />
      </g>
      <g
         id="glyph-2-0" />
      <g
         id="glyph-2-1">
        <path
           d="M 4.84375 2.203125 C 5.53125 2.140625 5.75 2.609375 5.828125 2.75 L 6.109375 2.609375 C 5.984375 2.390625 5.84375 2.15625 5.734375 1.953125 C 5.671875 1.796875 5.46875 1.359375 5.390625 1.171875 L 5.109375 1.3125 C 5.25 1.59375 5.15625 1.796875 4.9375 1.90625 C 4.84375 1.953125 4.828125 1.96875 4.6875 1.96875 L 2.046875 2.15625 L 3.953125 -0.03125 C 4.03125 -0.125 4.046875 -0.140625 4.09375 -0.15625 C 4.3125 -0.265625 4.484375 0.046875 4.5625 0.234375 L 4.84375 0.09375 C 4.71875 -0.140625 4.40625 -0.71875 4.328125 -0.875 C 4.203125 -1.109375 4.046875 -1.484375 3.921875 -1.75 L 3.640625 -1.609375 C 3.859375 -1.1875 3.953125 -1.015625 3.703125 -0.734375 L 1.125 2.234375 C 0.984375 2.25 0.625 2.25 0.46875 2.28125 C -0.109375 2.328125 -0.859375 2.375 -1.140625 1.8125 C -1.171875 1.765625 -1.265625 1.546875 -1.1875 1.3125 C -1.015625 1.578125 -0.78125 1.546875 -0.625 1.46875 C -0.390625 1.359375 -0.359375 1.109375 -0.46875 0.90625 C -0.546875 0.71875 -0.765625 0.59375 -1.03125 0.71875 C -1.4375 0.921875 -1.5625 1.46875 -1.328125 1.921875 C -1.046875 2.46875 -0.359375 2.578125 0.25 2.53125 Z M 4.84375 2.203125 "
           id="path50" />
      </g>
      <g
         id="glyph-2-2">
        <path
           d="M 2.75 -0.125 C 4.109375 -0.734375 4.703125 -0.109375 4.859375 0.203125 C 5.3125 1.109375 4.15625 1.8125 3.8125 1.984375 Z M 2.546875 -0.03125 L 3.78125 2.453125 C 3.890625 2.640625 3.90625 2.671875 4.109375 2.578125 C 4.984375 2.140625 5.609375 1.21875 5.0625 0.109375 C 4.53125 -0.921875 3.203125 -1.28125 2.078125 -0.734375 C 0.890625 -0.140625 0.5 1.234375 1.015625 2.25 C 1.5625 3.34375 2.75 3.25 2.921875 3.171875 C 3 3.125 2.984375 3.046875 2.953125 2.984375 C 2.921875 2.90625 2.859375 2.921875 2.78125 2.9375 C 1.703125 3.09375 1.296875 2.28125 1.25 2.203125 C 1.03125 1.75 1.125 1.265625 1.359375 0.890625 C 1.640625 0.421875 2.234375 0.140625 2.546875 -0.03125 Z M 2.546875 -0.03125 "
           id="path53" />
      </g>
      <g
         id="glyph-2-3">
        <path
           d="M 2.65625 1 C 2.71875 1.203125 2.9375 2 2.296875 2.328125 C 1.859375 2.546875 1.328125 2.421875 0.984375 1.734375 C 0.609375 0.96875 0.9375 0.40625 1.640625 -0.15625 C 1.734375 -0.234375 1.765625 -0.25 1.71875 -0.34375 C 1.65625 -0.453125 1.59375 -0.4375 1.4375 -0.359375 L 0.25 0.234375 C 0.09375 0.3125 0.046875 0.34375 0.109375 0.4375 C 0.125 0.484375 0.140625 0.5 0.390625 0.5625 C 0.40625 0.578125 0.421875 0.5625 0.671875 0.65625 C 0.515625 1.234375 0.703125 1.640625 0.796875 1.828125 C 1.296875 2.84375 2.109375 2.96875 2.75 2.640625 C 3.21875 2.421875 3.359375 2.015625 3.40625 1.84375 C 3.546875 1.40625 3.4375 1.015625 3.328125 0.609375 C 3.171875 0.046875 2.984375 -0.578125 3.5 -0.84375 C 3.828125 -1 4.296875 -0.96875 4.6875 -0.203125 C 5.171875 0.78125 4.390625 1.234375 4.140625 1.390625 C 4.0625 1.4375 4.09375 1.515625 4.109375 1.53125 C 4.171875 1.65625 4.21875 1.625 4.375 1.546875 L 5.28125 1.09375 C 5.421875 1.015625 5.5 0.984375 5.453125 0.890625 C 5.421875 0.84375 5.40625 0.828125 5.25 0.78125 C 5.203125 0.765625 5.0625 0.703125 5.03125 0.6875 C 5.109375 0.21875 4.921875 -0.140625 4.859375 -0.28125 C 4.3125 -1.375 3.53125 -1.40625 3.03125 -1.15625 C 2.71875 -1 2.546875 -0.734375 2.46875 -0.390625 C 2.40625 0.015625 2.46875 0.296875 2.65625 1 Z M 2.65625 1 "
           id="path56" />
      </g>
      <g
         id="glyph-2-4">
        <path
           d="M 4.890625 2.671875 C 5.609375 2.3125 6.3125 1.90625 6.8125 1.28125 C 7.46875 0.4375 7.234375 -0.375 7.0625 -0.734375 C 6.78125 -1.28125 6.234375 -1.796875 5.203125 -1.765625 C 4.46875 -1.734375 3.734375 -1.4375 3.015625 -1.078125 C 2.359375 -0.75 1.578125 -0.3125 1.078125 0.40625 C 0.546875 1.125 0.6875 1.875 0.90625 2.3125 C 1.140625 2.796875 1.671875 3.375 2.734375 3.34375 C 3.484375 3.3125 4.203125 3.015625 4.890625 2.671875 Z M 1.109375 2.21875 C 0.9375 1.875 0.890625 1.234375 1.671875 0.65625 C 2.15625 0.296875 2.984375 -0.125 3.515625 -0.390625 C 4.078125 -0.671875 4.671875 -0.96875 5.171875 -1.140625 C 6.3125 -1.5 6.75 -0.875 6.859375 -0.65625 C 7.015625 -0.359375 7.125 0.328125 6.34375 0.921875 C 5.875 1.28125 5.203125 1.609375 4.65625 1.890625 C 3.984375 2.234375 3.375 2.53125 2.765625 2.703125 C 1.828125 3 1.3125 2.625 1.109375 2.21875 Z M 1.109375 2.21875 "
           id="path59" />
      </g>
      <g
         id="glyph-2-5">
        <path
           d="M 1.328125 1.46875 C 1.59375 1.34375 1.703125 1.03125 1.578125 0.78125 C 1.4375 0.515625 1.125 0.40625 0.859375 0.53125 C 0.59375 0.65625 0.484375 0.984375 0.625 1.25 C 0.75 1.5 1.0625 1.59375 1.328125 1.46875 Z M 1.328125 1.46875 "
           id="path62" />
      </g>
      <g
         id="glyph-2-6">
        <path
           d="M 7.015625 -0.21875 C 7.234375 -0.34375 7.25 -0.34375 7.140625 -0.546875 C 6.28125 -0.828125 5.890625 -1.609375 5.75 -1.890625 L 5.484375 -1.75 C 5.578125 -1.5625 5.84375 -1.046875 6.3125 -0.703125 L 1.6875 1.609375 C 1.359375 1.765625 1.25 1.78125 0.84375 0.984375 L 0.703125 0.71875 L 0.421875 0.859375 C 0.609375 1.140625 1 1.90625 1.171875 2.28125 C 1.359375 2.625 1.75 3.40625 1.859375 3.734375 L 2.140625 3.59375 L 2 3.3125 C 1.609375 2.5 1.6875 2.4375 2.015625 2.28125 Z M 7.015625 -0.21875 "
           id="path65" />
      </g>
      <g
         id="glyph-2-7">
        <path
           d="M 2.78125 1.890625 L 2.015625 2.28125 C 1.6875 2.4375 1.578125 2.453125 1.25 1.796875 L 1.15625 1.625 L 0.875 1.765625 C 1.09375 2.109375 1.328125 2.5625 1.515625 2.953125 C 1.703125 3.328125 1.9375 3.78125 2.09375 4.171875 L 2.375 4.03125 L 2.265625 3.84375 C 1.9375 3.1875 2.03125 3.125 2.359375 2.96875 L 3.125 2.578125 L 3.5625 3.453125 L 3.84375 3.3125 L 3.40625 2.4375 L 7.453125 0.40625 C 7.640625 0.328125 7.6875 0.296875 7.609375 0.140625 C 7.578125 0.078125 7.5625 0.046875 7.421875 0.015625 L 1.875 -0.625 L 1.59375 -0.484375 Z M 3.078125 1.796875 L 2 -0.375 L 6.40625 0.140625 Z M 3.078125 1.796875 "
           id="path68" />
      </g>
      <g
         id="glyph-2-8">
        <path
           d="M 4.8125 -0.59375 C 4.875 -1.125 5.140625 -1.3125 5.296875 -1.390625 C 5.84375 -1.671875 6.515625 -1.265625 6.828125 -0.640625 C 7.15625 0 6.96875 0.8125 6.328125 1.125 C 5.8125 1.390625 5.21875 1.25 4.65625 0.875 Z M 4.609375 1.140625 C 5.265625 1.609375 5.953125 1.8125 6.53125 1.515625 C 7.359375 1.109375 7.453125 0.078125 7.0625 -0.734375 C 6.609375 -1.625 5.59375 -2.03125 4.75 -1.609375 C 4.609375 -1.53125 4.203125 -1.3125 3.96875 -0.734375 C 3.921875 -0.578125 3.859375 -0.140625 3.8125 0.15625 C 3.296875 -0.21875 2.421875 -0.75 1.53125 -0.296875 C 0.59375 0.171875 0.4375 1.375 0.90625 2.3125 C 1.40625 3.328125 2.59375 3.8125 3.546875 3.328125 C 3.859375 3.171875 4.203125 2.875 4.40625 2.34375 C 4.515625 2.078125 4.515625 1.890625 4.609375 1.140625 Z M 3.765625 0.4375 L 3.640625 1.890625 C 3.59375 2.21875 3.53125 2.78125 2.984375 3.046875 C 2.328125 3.375 1.546875 2.9375 1.1875 2.203125 C 0.796875 1.4375 1 0.53125 1.75 0.15625 C 2.265625 -0.09375 2.984375 -0.109375 3.765625 0.4375 Z M 3.765625 0.4375 "
           id="path71" />
      </g>
      <g
         id="glyph-3-0" />
      <g
         id="glyph-3-1">
        <path
           d="M -0.65625 -4.09375 L -2.40625 -6.71875 L -3.546875 -5.828125 L -3.375 -5.5625 C -2.796875 -5.953125 -2.6875 -5.953125 -2.40625 -5.53125 L 0.890625 -0.59375 L 1.09375 -0.734375 C 1.078125 -0.75 1.0625 -0.890625 1.046875 -1.4375 C 1.296875 -1.328125 1.921875 -1.140625 2.53125 -1.546875 C 3.515625 -2.21875 3.828125 -3.609375 3.109375 -4.671875 C 2.421875 -5.71875 1.078125 -6.015625 0.125 -5.375 C -0.53125 -4.953125 -0.625 -4.328125 -0.65625 -4.09375 Z M 0.828125 -1.921875 L -0.3125 -3.625 C -0.421875 -3.78125 -0.421875 -3.796875 -0.421875 -3.984375 C -0.40625 -4.671875 0 -5.03125 0.1875 -5.171875 C 0.578125 -5.421875 1.03125 -5.390625 1.421875 -5.21875 C 1.875 -5.015625 2.1875 -4.5625 2.421875 -4.21875 C 2.625 -3.921875 2.9375 -3.40625 2.953125 -2.875 C 2.953125 -2.484375 2.828125 -2.015625 2.375 -1.71875 C 2 -1.46875 1.578125 -1.453125 1.171875 -1.640625 C 0.9375 -1.734375 0.921875 -1.765625 0.828125 -1.921875 Z M 0.828125 -1.921875 "
           id="path75" />
      </g>
      <g
         id="glyph-3-2">
        <path
           d="M 2.328125 -2.46875 C 2.59375 -2.15625 3.046875 -1.96875 3.4375 -2.21875 C 3.625 -2.34375 4.046875 -2.796875 3.59375 -3.46875 L 3.28125 -3.9375 L 3.078125 -3.796875 L 3.390625 -3.328125 C 3.71875 -2.859375 3.53125 -2.65625 3.453125 -2.59375 C 3.171875 -2.40625 2.890625 -2.765625 2.859375 -2.8125 L 1.765625 -4.46875 C 1.53125 -4.8125 1.3125 -5.140625 0.8125 -5.25 C 0.265625 -5.359375 -0.25 -5.203125 -0.640625 -4.953125 C -1.328125 -4.484375 -1.640625 -3.71875 -1.28125 -3.171875 C -1.109375 -2.921875 -0.84375 -2.890625 -0.625 -3.046875 C -0.390625 -3.203125 -0.34375 -3.46875 -0.484375 -3.671875 C -0.5625 -3.78125 -0.78125 -4.015625 -1.171875 -3.75 C -1.140625 -4.203125 -0.796875 -4.578125 -0.546875 -4.75 C -0.125 -5.015625 0.5625 -5.015625 1.0625 -4.265625 L 1.25 -3.96875 C 0.84375 -3.65625 0.296875 -3.265625 -0.0625 -2.65625 C -0.5 -1.96875 -0.421875 -1.390625 -0.1875 -1.03125 C 0.265625 -0.34375 1.21875 -0.671875 1.734375 -1.03125 C 2.28125 -1.390625 2.421875 -1.984375 2.328125 -2.46875 Z M 1.375 -3.78125 L 1.9375 -2.953125 C 2.453125 -2.171875 2.046875 -1.5 1.671875 -1.25 C 1.265625 -0.984375 0.734375 -1.03125 0.453125 -1.453125 C 0.15625 -1.90625 0.046875 -2.828125 1.375 -3.78125 Z M 1.375 -3.78125 "
           id="path78" />
      </g>
      <g
         id="glyph-3-3">
        <path
           d="M 2.84375 -2.546875 L 3.203125 -2 L 4.375 -2.90625 L 4.203125 -3.171875 C 3.625 -2.796875 3.515625 -2.796875 3.234375 -3.21875 L -0.125 -8.25 L -1.25 -7.359375 L -1.078125 -7.09375 C -0.5 -7.484375 -0.40625 -7.46875 -0.125 -7.046875 L 1.078125 -5.25 C 0.640625 -5.390625 0.140625 -5.390625 -0.3125 -5.09375 C -1.28125 -4.4375 -1.609375 -3.03125 -0.90625 -1.96875 C -0.203125 -0.921875 1.15625 -0.640625 2.109375 -1.265625 C 2.640625 -1.625 2.8125 -2.140625 2.84375 -2.546875 Z M 1.359375 -4.765625 L 2.484375 -3.0625 C 2.59375 -2.921875 2.59375 -2.90625 2.609375 -2.703125 C 2.625 -2.140625 2.375 -1.71875 2.015625 -1.484375 C 1.640625 -1.234375 1.203125 -1.25 0.78125 -1.4375 C 0.359375 -1.640625 0.015625 -2.09375 -0.21875 -2.4375 C -0.421875 -2.734375 -0.734375 -3.234375 -0.75 -3.765625 C -0.734375 -4.15625 -0.609375 -4.625 -0.15625 -4.9375 C 0.125 -5.125 0.578125 -5.234375 1.0625 -5.015625 C 1.25 -4.9375 1.25 -4.921875 1.359375 -4.765625 Z M 1.359375 -4.765625 "
           id="path81" />
      </g>
      <g
         id="glyph-3-4">
        <path
           d="M 2.046875 -5.203125 C 1.609375 -5.859375 1.109375 -6.5 0.421875 -6.921875 C -0.484375 -7.46875 -1.265625 -7.140625 -1.609375 -6.921875 C -2.109375 -6.578125 -2.5625 -5.953125 -2.40625 -4.953125 C -2.28125 -4.21875 -1.875 -3.53125 -1.4375 -2.875 C -1.03125 -2.25 -0.515625 -1.515625 0.265625 -1.125 C 1.0625 -0.6875 1.796875 -0.921875 2.1875 -1.1875 C 2.640625 -1.484375 3.15625 -2.078125 3 -3.125 C 2.859375 -3.875 2.484375 -4.546875 2.046875 -5.203125 Z M 2.0625 -1.375 C 1.734375 -1.15625 1.109375 -1.03125 0.4375 -1.734375 C 0.015625 -2.171875 -0.5 -2.9375 -0.828125 -3.421875 C -1.171875 -3.96875 -1.546875 -4.5 -1.765625 -5 C -2.28125 -6.09375 -1.703125 -6.578125 -1.5 -6.71875 C -1.21875 -6.90625 -0.5625 -7.109375 0.140625 -6.40625 C 0.546875 -6 0.953125 -5.375 1.296875 -4.84375 C 1.71875 -4.21875 2.09375 -3.671875 2.359375 -3.078125 C 2.734375 -2.1875 2.4375 -1.625 2.0625 -1.375 Z M 2.0625 -1.375 "
           id="path84" />
      </g>
      <g
         id="glyph-3-5">
        <path
           d="M 1.296875 -1.5 C 1.140625 -1.734375 0.796875 -1.8125 0.5625 -1.65625 C 0.3125 -1.5 0.265625 -1.15625 0.421875 -0.921875 C 0.59375 -0.671875 0.90625 -0.609375 1.15625 -0.765625 C 1.390625 -0.921875 1.46875 -1.25 1.296875 -1.5 Z M 1.296875 -1.5 "
           id="path87" />
      </g>
      <g
         id="glyph-3-6">
        <path
           d="M -1.09375 -6.921875 C -1.234375 -7.140625 -1.25 -7.15625 -1.4375 -7.03125 C -1.59375 -6.15625 -2.328125 -5.671875 -2.59375 -5.5 L -2.421875 -5.234375 C -2.25 -5.34375 -1.765625 -5.65625 -1.484375 -6.171875 L 1.375 -1.875 C 1.578125 -1.5625 1.625 -1.46875 0.875 -0.96875 L 0.625 -0.796875 L 0.796875 -0.53125 C 1.0625 -0.75 1.78125 -1.234375 2.109375 -1.453125 C 2.4375 -1.671875 3.171875 -2.15625 3.46875 -2.3125 L 3.296875 -2.578125 L 3.046875 -2.40625 C 2.28125 -1.90625 2.203125 -1.96875 2 -2.28125 Z M -1.09375 -6.921875 "
           id="path90" />
      </g>
      <g
         id="glyph-4-0" />
      <g
         id="glyph-4-1">
        <path
           d="M 0.75 3.3125 C 0.359375 3.359375 -0.0625 3.625 -0.0625 4.09375 C -0.0625 4.3125 0.078125 4.921875 0.890625 4.921875 L 1.453125 4.921875 L 1.453125 4.671875 L 0.890625 4.671875 C 0.3125 4.671875 0.25 4.421875 0.25 4.3125 C 0.25 3.984375 0.703125 3.9375 0.75 3.9375 L 2.734375 3.9375 C 3.15625 3.9375 3.546875 3.9375 3.921875 3.578125 C 4.3125 3.1875 4.46875 2.6875 4.46875 2.21875 C 4.46875 1.390625 4 0.703125 3.34375 0.703125 C 3.046875 0.703125 2.875 0.90625 2.875 1.171875 C 2.875 1.453125 3.078125 1.625 3.328125 1.625 C 3.453125 1.625 3.78125 1.578125 3.78125 1.109375 C 4.140625 1.390625 4.25 1.875 4.25 2.1875 C 4.25 2.6875 3.859375 3.25 2.96875 3.25 L 2.609375 3.25 C 2.578125 2.734375 2.546875 2.046875 2.25 1.421875 C 1.90625 0.671875 1.390625 0.421875 0.953125 0.421875 C 0.140625 0.421875 -0.109375 1.390625 -0.109375 2.015625 C -0.109375 2.671875 0.296875 3.125 0.75 3.3125 Z M 2.390625 3.25 L 1.390625 3.25 C 0.453125 3.25 0.109375 2.53125 0.109375 2.078125 C 0.109375 1.59375 0.453125 1.1875 0.953125 1.1875 C 1.5 1.1875 2.328125 1.609375 2.390625 3.25 Z M 2.390625 3.25 "
           id="path94" />
      </g>
      <g
         id="glyph-4-2">
        <path
           d="M 3.3125 4.140625 C 3.546875 4.234375 3.984375 4.40625 3.984375 5.0625 L 4.296875 5.0625 C 4.28125 4.828125 4.265625 4.546875 4.265625 4.3125 C 4.265625 4.078125 4.28125 3.625 4.296875 3.453125 L 3.984375 3.453125 C 3.984375 3.8125 3.75 3.921875 3.5625 3.921875 C 3.46875 3.921875 3.421875 3.90625 3.3125 3.875 L 0.78125 2.84375 L 3.5625 1.734375 C 3.6875 1.671875 3.703125 1.671875 3.734375 1.671875 C 3.984375 1.671875 3.984375 2.0625 3.984375 2.25 L 4.296875 2.25 C 4.28125 1.9375 4.265625 1.390625 4.265625 1.15625 C 4.265625 0.890625 4.28125 0.484375 4.296875 0.1875 L 3.984375 0.1875 C 3.984375 0.8125 3.921875 0.859375 3.625 0.984375 L 0.078125 2.421875 C -0.0625 2.484375 -0.109375 2.5 -0.109375 2.625 C -0.109375 2.765625 -0.015625 2.796875 0.078125 2.84375 Z M 3.3125 4.140625 "
           id="path97" />
      </g>
      <g
         id="glyph-4-3">
        <path
           d="M 2.515625 1.109375 C 4 1.171875 4.25 2.015625 4.25 2.359375 C 4.25 3.375 2.90625 3.484375 2.515625 3.484375 Z M 2.296875 1.109375 L 2.296875 3.890625 C 2.296875 4.109375 2.296875 4.140625 2.515625 4.140625 C 3.5 4.140625 4.46875 3.59375 4.46875 2.359375 C 4.46875 1.203125 3.4375 0.28125 2.1875 0.28125 C 0.859375 0.28125 -0.109375 1.328125 -0.109375 2.46875 C -0.109375 3.6875 1 4.140625 1.1875 4.140625 C 1.28125 4.140625 1.3125 4.0625 1.3125 4 C 1.3125 3.921875 1.25 3.890625 1.171875 3.875 C 0.140625 3.53125 0.140625 2.625 0.140625 2.53125 C 0.140625 2.03125 0.4375 1.640625 0.8125 1.40625 C 1.28125 1.109375 1.9375 1.109375 2.296875 1.109375 Z M 2.296875 1.109375 "
           id="path100" />
      </g>
      <g
         id="glyph-4-4">
        <path
           d="M 3.3125 1.671875 L 4.40625 1.671875 L 4.296875 0.28125 L 3.984375 0.28125 C 3.984375 0.984375 3.921875 1.0625 3.421875 1.0625 L 0.75 1.0625 C 0.3125 1.0625 0.3125 0.953125 0.3125 0.28125 L 0 0.28125 C 0.015625 0.671875 0.03125 1.140625 0.03125 1.421875 C 0.03125 1.8125 0.03125 2.28125 0 2.6875 L 0.3125 2.6875 L 0.3125 2.46875 C 0.3125 1.734375 0.421875 1.71875 0.78125 1.71875 L 2.3125 1.71875 C 3.296875 1.71875 4.1875 2.140625 4.1875 2.890625 C 4.1875 2.953125 4.1875 2.984375 4.171875 3 C 4.171875 2.96875 4.046875 2.765625 3.78125 2.765625 C 3.515625 2.765625 3.359375 2.984375 3.359375 3.203125 C 3.359375 3.375 3.484375 3.625 3.796875 3.625 C 4.109375 3.625 4.40625 3.3125 4.40625 2.890625 C 4.40625 2.15625 3.734375 1.796875 3.3125 1.671875 Z M 3.3125 1.671875 "
           id="path103" />
      </g>
      <g
         id="glyph-4-5">
        <path
           d="M 1.71875 2.21875 C 1.71875 1.34375 2.71875 1.34375 2.9375 1.34375 C 3.203125 1.34375 3.53125 1.359375 3.78125 1.5 C 3.890625 1.578125 4.171875 1.8125 4.171875 2.21875 C 4.171875 3.078125 3.1875 3.078125 2.953125 3.078125 C 2.6875 3.078125 2.359375 3.078125 2.109375 2.921875 C 2 2.84375 1.71875 2.609375 1.71875 2.21875 Z M 1.328125 1.0625 C 1.359375 1.0625 1.59375 1.0625 1.796875 1.21875 C 1.515625 1.609375 1.484375 2.03125 1.484375 2.21875 C 1.484375 3.140625 2.171875 3.828125 2.9375 3.828125 C 3.3125 3.828125 3.671875 3.671875 3.90625 3.421875 C 4.25 3.78125 4.296875 4.140625 4.296875 4.3125 C 4.296875 4.34375 4.296875 4.390625 4.28125 4.421875 C 4.25 4.3125 4.140625 4.25 4.015625 4.25 C 3.84375 4.25 3.734375 4.390625 3.734375 4.546875 C 3.734375 4.640625 3.796875 4.828125 4.03125 4.828125 C 4.203125 4.828125 4.515625 4.71875 4.515625 4.328125 C 4.515625 4.125 4.453125 3.6875 4.046875 3.265625 C 4.375 2.84375 4.40625 2.4375 4.40625 2.21875 C 4.40625 1.28125 3.71875 0.59375 2.953125 0.59375 C 2.515625 0.59375 2.140625 0.8125 1.921875 1.0625 C 1.78125 0.9375 1.453125 0.75 1.09375 0.75 C 0.78125 0.75 0.40625 0.890625 0.203125 1.203125 C 0.046875 0.59375 -0.390625 0.28125 -0.78125 0.28125 C -1.5 0.28125 -2.046875 1.265625 -2.046875 2.484375 C -2.046875 3.65625 -1.546875 4.6875 -0.765625 4.6875 C -0.421875 4.6875 0.09375 4.5625 0.375 4.046875 C 0.640625 3.515625 0.640625 2.9375 0.640625 2.328125 C 0.640625 2.078125 0.640625 1.65625 0.65625 1.578125 C 0.703125 1.265625 1 1.0625 1.328125 1.0625 Z M -1.828125 2.5 C -1.828125 1.484375 -1.3125 0.796875 -0.78125 0.796875 C -0.328125 0.796875 0.046875 1.171875 0.0625 1.609375 L 0.0625 2.203125 C 0.0625 3.0625 0.0625 4.171875 -0.78125 4.171875 C -1.328125 4.171875 -1.828125 3.46875 -1.828125 2.5 Z M -1.828125 2.5 "
           id="path106" />
      </g>
      <g
         id="glyph-4-6">
        <path
           d="M 3.1875 4.578125 C 3.984375 4.578125 4.78125 4.53125 5.515625 4.1875 C 6.484375 3.734375 6.640625 2.90625 6.640625 2.5 C 6.640625 1.890625 6.375 1.171875 5.453125 0.75 C 4.765625 0.4375 3.984375 0.390625 3.1875 0.390625 C 2.4375 0.390625 1.546875 0.421875 0.78125 0.84375 C -0.015625 1.265625 -0.21875 2 -0.21875 2.484375 C -0.21875 3.015625 -0.015625 3.78125 0.9375 4.21875 C 1.625 4.53125 2.40625 4.578125 3.1875 4.578125 Z M 0 2.484375 C 0 2.09375 0.25 1.5 1.203125 1.328125 C 1.796875 1.21875 2.71875 1.21875 3.3125 1.21875 C 3.953125 1.21875 4.609375 1.21875 5.140625 1.296875 C 6.328125 1.484375 6.421875 2.234375 6.421875 2.484375 C 6.421875 2.8125 6.234375 3.46875 5.25 3.65625 C 4.6875 3.765625 3.9375 3.765625 3.3125 3.765625 C 2.5625 3.765625 1.890625 3.765625 1.25 3.65625 C 0.296875 3.5 0 2.9375 0 2.484375 Z M 0 2.484375 "
           id="path109" />
      </g>
      <g
         id="glyph-4-7">
        <path
           d="M 0.53125 1.90625 C 0.8125 1.90625 1.0625 1.671875 1.0625 1.390625 C 1.0625 1.09375 0.8125 0.859375 0.53125 0.859375 C 0.234375 0.859375 0 1.09375 0 1.390625 C 0 1.671875 0.234375 1.90625 0.53125 1.90625 Z M 0.53125 1.90625 "
           id="path112" />
      </g>
      <g
         id="glyph-4-8">
        <path
           d="M 0.765625 1.265625 L 1.796875 2.328125 C 3.171875 3.875 3.703125 4.46875 4.703125 4.46875 C 5.84375 4.46875 6.640625 3.578125 6.640625 2.359375 C 6.640625 1.234375 5.71875 0.5 4.828125 0.5 C 4.28125 0.5 4.28125 1 4.28125 1.03125 C 4.28125 1.203125 4.390625 1.546875 4.8125 1.546875 C 5.0625 1.546875 5.328125 1.359375 5.328125 1.015625 C 5.328125 0.9375 5.328125 0.921875 5.3125 0.890625 C 5.96875 1.109375 6.328125 1.65625 6.328125 2.234375 C 6.328125 3.140625 5.515625 3.5625 4.703125 3.5625 C 3.90625 3.5625 3.125 3.078125 2.5 2.515625 L 0.375 0.609375 C 0.265625 0.5 0.234375 0.5 0 0.5 L 0 4.203125 L 1.734375 4.46875 L 1.734375 4.234375 C 1.4375 4.171875 1 4.109375 0.84375 4 C 0.765625 3.9375 0.765625 3.28125 0.765625 3.0625 Z M 0.765625 1.265625 "
           id="path115" />
      </g>
      <g
         id="glyph-5-0" />
      <g
         id="glyph-5-1">
        <path
           d="M 2.796875 -0.203125 C 2.078125 -0.6875 2.640625 -1.515625 2.75 -1.6875 C 2.90625 -1.921875 3.078125 -2.1875 3.34375 -2.3125 C 3.46875 -2.359375 3.828125 -2.46875 4.15625 -2.234375 C 4.875 -1.765625 4.328125 -0.953125 4.203125 -0.75 C 4.046875 -0.53125 3.875 -0.265625 3.609375 -0.125 C 3.46875 -0.09375 3.125 0.015625 2.796875 -0.203125 Z M 1.625 -0.515625 C 1.640625 -0.53125 1.78125 -0.734375 2.015625 -0.828125 C 2.1875 -0.375 2.515625 -0.109375 2.671875 0 C 3.4375 0.5 4.390625 0.3125 4.8125 -0.3125 C 5.03125 -0.625 5.09375 -1.03125 5.015625 -1.359375 C 5.5 -1.4375 5.828125 -1.28125 5.984375 -1.1875 C 6 -1.171875 6.046875 -1.140625 6.046875 -1.109375 C 5.953125 -1.140625 5.828125 -1.078125 5.765625 -0.984375 C 5.65625 -0.84375 5.734375 -0.671875 5.859375 -0.59375 C 5.9375 -0.53125 6.125 -0.484375 6.25 -0.6875 C 6.34375 -0.828125 6.421875 -1.125 6.09375 -1.34375 C 5.9375 -1.46875 5.53125 -1.65625 4.96875 -1.5625 C 4.78125 -2.0625 4.46875 -2.3125 4.28125 -2.4375 C 3.5 -2.96875 2.5625 -2.765625 2.140625 -2.125 C 1.890625 -1.765625 1.859375 -1.328125 1.953125 -1 C 1.765625 -0.96875 1.4375 -0.78125 1.234375 -0.484375 C 1.0625 -0.234375 0.953125 0.15625 1.109375 0.5 C 0.53125 0.296875 0.015625 0.484375 -0.203125 0.8125 C -0.59375 1.40625 -0.09375 2.40625 0.921875 3.078125 C 1.90625 3.734375 3.046875 3.875 3.484375 3.234375 C 3.671875 2.9375 3.84375 2.453125 3.578125 1.9375 C 3.28125 1.421875 2.796875 1.09375 2.296875 0.765625 C 2.09375 0.625 1.734375 0.390625 1.671875 0.328125 C 1.4375 0.125 1.4375 -0.234375 1.625 -0.515625 Z M 1.0625 2.90625 C 0.21875 2.34375 -0.078125 1.53125 0.21875 1.09375 C 0.46875 0.703125 1 0.625 1.375 0.84375 L 1.859375 1.171875 C 2.578125 1.65625 3.5 2.265625 3.03125 2.96875 C 2.734375 3.421875 1.875 3.4375 1.0625 2.90625 Z M 1.0625 2.90625 "
           id="path119" />
      </g>
      <g
         id="glyph-5-2">
        <path
           d="M 5.09375 0.8125 C 5.796875 -0.234375 5.5625 -1.671875 4.5625 -2.328125 C 3.53125 -3.03125 2.109375 -2.65625 1.421875 -1.625 C 0.703125 -0.546875 1.03125 0.828125 2 1.46875 C 3 2.140625 4.390625 1.859375 5.09375 0.8125 Z M 2.15625 1.28125 C 1.796875 1.03125 1.546875 0.625 1.578125 0.078125 C 1.609375 -0.4375 1.953125 -0.9375 2.15625 -1.234375 C 2.375 -1.5625 2.65625 -2 3.109375 -2.234375 C 3.578125 -2.46875 4.09375 -2.375 4.421875 -2.15625 C 4.796875 -1.90625 5.015625 -1.5 5 -0.984375 C 4.984375 -0.484375 4.65625 0 4.453125 0.3125 C 4.25 0.609375 3.953125 1.0625 3.53125 1.296875 C 3.078125 1.546875 2.5625 1.546875 2.15625 1.28125 Z M 2.15625 1.28125 "
           id="path122" />
      </g>
      <g
         id="glyph-5-3">
        <path
           d="M 3.4375 1.640625 L 3.078125 2.1875 L 4.375 2.90625 L 4.546875 2.640625 C 3.96875 2.265625 3.921875 2.171875 4.203125 1.75 L 7.5625 -3.28125 L 6.3125 -3.984375 L 6.140625 -3.71875 C 6.71875 -3.328125 6.75 -3.25 6.46875 -2.828125 L 5.265625 -1.03125 C 5.234375 -1.484375 5.015625 -1.953125 4.5625 -2.25 C 3.59375 -2.90625 2.171875 -2.65625 1.46875 -1.59375 C 0.765625 -0.546875 1.03125 0.828125 1.984375 1.453125 C 2.515625 1.8125 3.0625 1.765625 3.4375 1.640625 Z M 4.921875 -0.578125 L 3.796875 1.125 C 3.6875 1.265625 3.6875 1.28125 3.515625 1.359375 C 3 1.609375 2.5 1.53125 2.140625 1.296875 C 1.765625 1.046875 1.609375 0.625 1.625 0.1875 C 1.640625 -0.296875 1.921875 -0.78125 2.15625 -1.125 C 2.359375 -1.421875 2.703125 -1.921875 3.1875 -2.140625 C 3.546875 -2.28125 4.046875 -2.34375 4.5 -2.03125 C 4.78125 -1.84375 5.046875 -1.484375 5.0625 -0.953125 C 5.03125 -0.75 5.03125 -0.734375 4.921875 -0.578125 Z M 4.921875 -0.578125 "
           id="path125" />
      </g>
      <g
         id="glyph-5-4">
        <path
           d="M 5.578125 -0.109375 C 6.015625 -0.765625 6.421875 -1.46875 6.546875 -2.265625 C 6.703125 -3.3125 6.109375 -3.921875 5.765625 -4.140625 C 5.265625 -4.484375 4.5 -4.640625 3.65625 -4.109375 C 3 -3.71875 2.53125 -3.09375 2.09375 -2.4375 C 1.6875 -1.8125 1.203125 -1.046875 1.140625 -0.1875 C 1.03125 0.71875 1.546875 1.296875 1.9375 1.5625 C 2.390625 1.859375 3.125 2.109375 4.03125 1.5625 C 4.671875 1.15625 5.140625 0.546875 5.578125 -0.109375 Z M 2.0625 1.375 C 1.734375 1.15625 1.390625 0.625 1.78125 -0.265625 C 2.015625 -0.828125 2.53125 -1.59375 2.859375 -2.078125 C 3.203125 -2.625 3.578125 -3.15625 3.921875 -3.5625 C 4.75 -4.4375 5.421875 -4.109375 5.625 -3.96875 C 5.90625 -3.78125 6.34375 -3.265625 5.953125 -2.34375 C 5.734375 -1.8125 5.328125 -1.1875 4.984375 -0.65625 C 4.5625 -0.03125 4.1875 0.515625 3.734375 0.984375 C 3.078125 1.6875 2.4375 1.625 2.0625 1.375 Z M 2.0625 1.375 "
           id="path128" />
      </g>
      <g
         id="glyph-5-5">
        <path
           d="M 1.890625 0.625 C 2.046875 0.390625 1.984375 0.03125 1.75 -0.125 C 1.5 -0.28125 1.171875 -0.1875 1.015625 0.046875 C 0.84375 0.296875 0.90625 0.609375 1.15625 0.765625 C 1.390625 0.921875 1.71875 0.875 1.890625 0.625 Z M 1.890625 0.625 "
           id="path131" />
      </g>
      <g
         id="glyph-5-6">
        <path
           d="M 7.328125 -2.421875 C 7.453125 -2.46875 7.453125 -2.484375 7.578125 -2.671875 L 5.5625 -4.015625 C 4.5625 -4.671875 4.59375 -4.796875 4.6875 -4.984375 L 4.46875 -5.109375 L 3.0625 -3.59375 L 3.265625 -3.453125 C 3.390625 -3.5625 3.796875 -4.03125 4 -4.0625 C 4.078125 -4.078125 4.734375 -3.640625 4.828125 -3.578125 L 6.546875 -2.4375 C 6.359375 -2.375 5.109375 -1.890625 4.75 -1.734375 C 3.25 -1.125 2.203125 -0.15625 1.640625 0.703125 C 1.578125 0.78125 1.328125 1.15625 1.71875 1.421875 C 2.09375 1.671875 2.34375 1.296875 2.40625 1.21875 L 2.6875 0.78125 C 2.984375 0.328125 3.328125 -0.109375 3.6875 -0.5 C 3.859375 -0.6875 4.421875 -1.328125 5.140625 -1.578125 Z M 7.328125 -2.421875 "
           id="path134" />
      </g>
    </g>
    <clipPath
       id="clip-0">
      <path
         clip-rule="nonzero"
         d="M 198 61 L 233.414062 61 L 233.414062 120 L 198 120 Z M 198 61 "
         id="path139" />
    </clipPath>
  </defs>
  <g
     fill="#000000"
     fill-opacity="1"
     id="g156">
    <use
       xlink:href="#glyph-0-1"
       x="105.069"
       y="7.915"
       id="use144" />
    <use
       xlink:href="#glyph-0-2"
       x="107.83661"
       y="7.915"
       id="use146" />
    <use
       xlink:href="#glyph-0-3"
       x="112.26399"
       y="7.915"
       id="use148" />
    <use
       xlink:href="#glyph-0-3"
       x="116.13844"
       y="7.915"
       id="use150" />
    <use
       xlink:href="#glyph-0-2"
       x="120.0129"
       y="7.915"
       id="use152" />
    <use
       xlink:href="#glyph-0-4"
       x="124.44028"
       y="7.915"
       id="use154" />
  </g>
  <g
     fill="#000000"
     fill-opacity="1"
     id="g174">
    <use
       xlink:href="#glyph-0-5"
       x="12.849"
       y="63.639"
       id="use158" />
    <use
       xlink:href="#glyph-0-6"
       x="17.830299"
       y="63.639"
       id="use160" />
    <use
       xlink:href="#glyph-0-6"
       x="22.257679"
       y="63.639"
       id="use162" />
    <use
       xlink:href="#glyph-0-2"
       x="26.685059"
       y="63.639"
       id="use164" />
    <use
       xlink:href="#glyph-0-7"
       x="31.112438"
       y="63.639"
       id="use166" />
    <use
       xlink:href="#glyph-0-3"
       x="36.647659"
       y="63.639"
       id="use168" />
    <use
       xlink:href="#glyph-0-2"
       x="40.522114"
       y="63.639"
       id="use170" />
    <use
       xlink:href="#glyph-0-8"
       x="44.949493"
       y="63.639"
       id="use172" />
  </g>
  <path
     fill="none"
     stroke-width="0.3985"
     stroke-linecap="butt"
     stroke-linejoin="miter"
     stroke="rgb(0%, 0%, 0%)"
     stroke-opacity="1"
     stroke-miterlimit="10"
     d="M -6.979438 -4.653375 L -76.608344 -51.071344 M -6.979438 -4.653375 L -76.608344 -51.071344 "
     transform="matrix(1, 0, 0, -1, 116.706, 4.456)"
     id="path176" />
  <path
     fill="none"
     stroke-width="0.3985"
     stroke-linecap="butt"
     stroke-linejoin="miter"
     stroke="rgb(0%, 0%, 0%)"
     stroke-opacity="1"
     stroke-miterlimit="10"
     d="M -87.850531 -62.317438 L -111.627875 -109.868219 M -87.850531 -62.317438 L -111.627875 -109.868219 "
     transform="matrix(1, 0, 0, -1, 116.706, 4.456)"
     id="path178" />
  <g
     fill="#000000"
     fill-opacity="1"
     id="g184">
    <use
       xlink:href="#glyph-1-1"
       x="11.469"
       y="93.675003"
       id="use180" />
    <use
       xlink:href="#glyph-1-2"
       x="13.944461"
       y="88.724518"
       id="use182" />
  </g>
  <g
     fill="#000000"
     fill-opacity="1"
     id="g192">
    <use
       xlink:href="#glyph-1-3"
       x="23.011999"
       y="100.685"
       id="use186" />
    <use
       xlink:href="#glyph-1-4"
       x="25.239737"
       y="96.229927"
       id="use188" />
    <use
       xlink:href="#glyph-1-5"
       x="26.477468"
       y="93.754684"
       id="use190" />
  </g>
  <path
     fill="none"
     stroke-width="0.3985"
     stroke-linecap="butt"
     stroke-linejoin="miter"
     stroke="rgb(0%, 0%, 0%)"
     stroke-opacity="1"
     stroke-miterlimit="10"
     d="M -82.229438 -62.317438 L -58.452094 -109.868219 M -82.229438 -62.317438 L -58.452094 -109.868219 "
     transform="matrix(1, 0, 0, -1, 116.706, 4.456)"
     id="path194" />
  <g
     fill="#000000"
     fill-opacity="1"
     id="g198">
    <use
       xlink:href="#glyph-2-1"
       x="48.263"
       y="82.140999"
       id="use196" />
  </g>
  <g
     fill="#000000"
     fill-opacity="1"
     id="g204">
    <use
       xlink:href="#glyph-2-2"
       x="50.489845"
       y="86.594292"
       id="use200" />
    <use
       xlink:href="#glyph-2-3"
       x="52.46986"
       y="90.553963"
       id="use202" />
  </g>
  <g
     fill="#000000"
     fill-opacity="1"
     id="g212">
    <use
       xlink:href="#glyph-2-4"
       x="34.629002"
       y="89.300003"
       id="use206" />
    <use
       xlink:href="#glyph-2-5"
       x="36.856735"
       y="93.755074"
       id="use208" />
    <use
       xlink:href="#glyph-2-6"
       x="38.094467"
       y="96.230316"
       id="use210" />
  </g>
  <g
     fill="#000000"
     fill-opacity="1"
     id="g220">
    <use
       xlink:href="#glyph-3-1"
       x="66.281998"
       y="33.84"
       id="use214" />
    <use
       xlink:href="#glyph-3-2"
       x="70.887466"
       y="30.77"
       id="use216" />
    <use
       xlink:href="#glyph-3-3"
       x="75.032059"
       y="28.007221"
       id="use218" />
  </g>
  <g
     fill="#000000"
     fill-opacity="1"
     id="g228">
    <use
       xlink:href="#glyph-3-4"
       x="75.128998"
       y="44.118999"
       id="use222" />
    <use
       xlink:href="#glyph-3-5"
       x="79.27359"
       y="41.35622"
       id="use224" />
    <use
       xlink:href="#glyph-3-6"
       x="81.576324"
       y="39.82122"
       id="use226" />
  </g>
  <g
     fill="#000000"
     fill-opacity="1"
     id="g246">
    <use
       xlink:href="#glyph-0-5"
       x="97.888"
       y="63.639"
       id="use230" />
    <use
       xlink:href="#glyph-0-6"
       x="102.8693"
       y="63.639"
       id="use232" />
    <use
       xlink:href="#glyph-0-6"
       x="107.29668"
       y="63.639"
       id="use234" />
    <use
       xlink:href="#glyph-0-2"
       x="111.72406"
       y="63.639"
       id="use236" />
    <use
       xlink:href="#glyph-0-7"
       x="116.15144"
       y="63.639"
       id="use238" />
    <use
       xlink:href="#glyph-0-3"
       x="121.68666"
       y="63.639"
       id="use240" />
    <use
       xlink:href="#glyph-0-2"
       x="125.56111"
       y="63.639"
       id="use242" />
    <use
       xlink:href="#glyph-0-8"
       x="129.98849"
       y="63.639"
       id="use244" />
  </g>
  <path
     fill="none"
     stroke-width="0.3985"
     stroke-linecap="butt"
     stroke-linejoin="miter"
     stroke="rgb(0%, 0%, 0%)"
     stroke-opacity="1"
     stroke-miterlimit="10"
     d="M 0.00103125 -4.653375 L 0.00103125 -51.071344 M 0.00103125 -4.653375 L 0.00103125 -51.071344 "
     transform="matrix(1, 0, 0, -1, 116.706, 4.456)"
     id="path248" />
  <path
     fill="none"
     stroke-width="0.3985"
     stroke-linecap="butt"
     stroke-linejoin="miter"
     stroke="rgb(0%, 0%, 0%)"
     stroke-opacity="1"
     stroke-miterlimit="10"
     d="M -2.811469 -62.317438 L -26.588813 -109.868219 M -2.811469 -62.317438 L -26.588813 -109.868219 "
     transform="matrix(1, 0, 0, -1, 116.706, 4.456)"
     id="path250" />
  <g
     fill="#000000"
     fill-opacity="1"
     id="g256">
    <use
       xlink:href="#glyph-1-1"
       x="96.508003"
       y="93.675003"
       id="use252" />
    <use
       xlink:href="#glyph-1-2"
       x="98.983459"
       y="88.724518"
       id="use254" />
  </g>
  <g
     fill="#000000"
     fill-opacity="1"
     id="g264">
    <use
       xlink:href="#glyph-1-3"
       x="108.051"
       y="100.685"
       id="use258" />
    <use
       xlink:href="#glyph-1-4"
       x="110.27874"
       y="96.229927"
       id="use260" />
    <use
       xlink:href="#glyph-1-6"
       x="111.51646"
       y="93.754684"
       id="use262" />
  </g>
  <path
     fill="none"
     stroke-width="0.3985"
     stroke-linecap="butt"
     stroke-linejoin="miter"
     stroke="rgb(0%, 0%, 0%)"
     stroke-opacity="1"
     stroke-miterlimit="10"
     d="M 2.809625 -62.317438 L 26.586969 -109.868219 M 2.809625 -62.317438 L 26.586969 -109.868219 "
     transform="matrix(1, 0, 0, -1, 116.706, 4.456)"
     id="path266" />
  <g
     fill="#000000"
     fill-opacity="1"
     id="g270">
    <use
       xlink:href="#glyph-2-1"
       x="133.30299"
       y="82.140999"
       id="use268" />
  </g>
  <g
     fill="#000000"
     fill-opacity="1"
     id="g276">
    <use
       xlink:href="#glyph-2-2"
       x="135.52985"
       y="86.594292"
       id="use272" />
    <use
       xlink:href="#glyph-2-3"
       x="137.50986"
       y="90.553963"
       id="use274" />
  </g>
  <g
     fill="#000000"
     fill-opacity="1"
     id="g284">
    <use
       xlink:href="#glyph-2-4"
       x="119.668"
       y="89.300003"
       id="use278" />
    <use
       xlink:href="#glyph-2-5"
       x="121.89574"
       y="93.755074"
       id="use280" />
    <use
       xlink:href="#glyph-2-7"
       x="123.13347"
       y="96.230316"
       id="use282" />
  </g>
  <g
     fill="#000000"
     fill-opacity="1"
     id="g288">
    <use
       xlink:href="#glyph-4-1"
       x="122.163"
       y="16.115"
       id="use286" />
  </g>
  <g
     fill="#000000"
     fill-opacity="1"
     id="g292">
    <use
       xlink:href="#glyph-4-2"
       x="122.163"
       y="20.817347"
       id="use290" />
  </g>
  <g
     fill="#000000"
     fill-opacity="1"
     id="g304">
    <use
       xlink:href="#glyph-4-3"
       x="122.163"
       y="25.796656"
       id="use294" />
    <use
       xlink:href="#glyph-4-4"
       x="122.163"
       y="30.224033"
       id="use296" />
    <use
       xlink:href="#glyph-4-1"
       x="122.163"
       y="34.126385"
       id="use298" />
    <use
       xlink:href="#glyph-4-5"
       x="122.163"
       y="39.107685"
       id="use300" />
    <use
       xlink:href="#glyph-4-3"
       x="122.163"
       y="44.088985"
       id="use302" />
  </g>
  <g
     fill="#000000"
     fill-opacity="1"
     id="g312">
    <use
       xlink:href="#glyph-4-6"
       x="106.766"
       y="25.952999"
       id="use306" />
    <use
       xlink:href="#glyph-4-7"
       x="106.766"
       y="30.934299"
       id="use308" />
    <use
       xlink:href="#glyph-4-8"
       x="106.766"
       y="33.701908"
       id="use310" />
  </g>
  <g
     fill="#000000"
     fill-opacity="1"
     id="g330">
    <use
       xlink:href="#glyph-0-5"
       x="182.927"
       y="63.639"
       id="use314" />
    <use
       xlink:href="#glyph-0-6"
       x="187.90829"
       y="63.639"
       id="use316" />
    <use
       xlink:href="#glyph-0-6"
       x="192.33568"
       y="63.639"
       id="use318" />
    <use
       xlink:href="#glyph-0-2"
       x="196.76306"
       y="63.639"
       id="use320" />
    <use
       xlink:href="#glyph-0-7"
       x="201.19044"
       y="63.639"
       id="use322" />
    <use
       xlink:href="#glyph-0-3"
       x="206.72566"
       y="63.639"
       id="use324" />
    <use
       xlink:href="#glyph-0-2"
       x="210.60011"
       y="63.639"
       id="use326" />
    <use
       xlink:href="#glyph-0-8"
       x="215.0275"
       y="63.639"
       id="use328" />
  </g>
  <path
     fill="none"
     stroke-width="0.3985"
     stroke-linecap="butt"
     stroke-linejoin="miter"
     stroke="rgb(0%, 0%, 0%)"
     stroke-opacity="1"
     stroke-miterlimit="10"
     d="M 6.9815 -4.653375 L 76.610406 -51.071344 M 6.9815 -4.653375 L 76.610406 -51.071344 "
     transform="matrix(1, 0, 0, -1, 116.706, 4.456)"
     id="path332" />
  <path
     fill="none"
     stroke-width="0.3985"
     stroke-linecap="butt"
     stroke-linejoin="miter"
     stroke="rgb(0%, 0%, 0%)"
     stroke-opacity="1"
     stroke-miterlimit="10"
     d="M 82.2315 -62.317438 L 58.454156 -109.868219 M 82.2315 -62.317438 L 58.454156 -109.868219 "
     transform="matrix(1, 0, 0, -1, 116.706, 4.456)"
     id="path334" />
  <g
     fill="#000000"
     fill-opacity="1"
     id="g340">
    <use
       xlink:href="#glyph-1-1"
       x="181.548"
       y="93.675003"
       id="use336" />
    <use
       xlink:href="#glyph-1-2"
       x="184.02347"
       y="88.724518"
       id="use338" />
  </g>
  <g
     fill="#000000"
     fill-opacity="1"
     id="g348">
    <use
       xlink:href="#glyph-1-3"
       x="193.09045"
       y="100.6841"
       id="use342" />
    <use
       xlink:href="#glyph-1-4"
       x="195.31819"
       y="96.229027"
       id="use344" />
    <use
       xlink:href="#glyph-1-7"
       x="196.55591"
       y="93.753792"
       id="use346" />
  </g>
  <g
     clip-path="url(#clip-0)"
     id="g352">
    <path
       fill="none"
       stroke-width="0.3985"
       stroke-linecap="butt"
       stroke-linejoin="miter"
       stroke="#000000"
       stroke-opacity="1"
       stroke-miterlimit="10"
       d="M 87.848687,-62.317438 111.62994,-109.86822 M 87.848687,-62.317438 111.62994,-109.86822"
       transform="matrix(1,0,0,-1,116.706,4.456)"
       id="path350" />
  </g>
  <g
     fill="#000000"
     fill-opacity="1"
     id="g356">
    <use
       xlink:href="#glyph-2-1"
       x="218.342"
       y="82.141998"
       id="use354" />
  </g>
  <g
     fill="#000000"
     fill-opacity="1"
     id="g362">
    <use
       xlink:href="#glyph-2-2"
       x="220.56885"
       y="86.595291"
       id="use358" />
    <use
       xlink:href="#glyph-2-3"
       x="222.54886"
       y="90.554962"
       id="use360" />
  </g>
  <g
     fill="#000000"
     fill-opacity="1"
     id="g370">
    <use
       xlink:href="#glyph-2-4"
       x="204.70799"
       y="89.300003"
       id="use364" />
    <use
       xlink:href="#glyph-2-5"
       x="206.93573"
       y="93.755074"
       id="use366" />
    <use
       xlink:href="#glyph-2-8"
       x="208.17346"
       y="96.230316"
       id="use368" />
  </g>
  <g
     fill="#000000"
     fill-opacity="1"
     id="g376">
    <use
       xlink:href="#glyph-5-1"
       x="152.778"
       y="21.945"
       id="use372" />
    <use
       xlink:href="#glyph-5-2"
       x="156.92259"
       y="24.707779"
       id="use374" />
  </g>
  <g
     fill="#000000"
     fill-opacity="1"
     id="g380">
    <use
       xlink:href="#glyph-5-2"
       x="161.29929"
       y="27.625273"
       id="use378" />
  </g>
  <g
     fill="#000000"
     fill-opacity="1"
     id="g384">
    <use
       xlink:href="#glyph-5-3"
       x="165.67596"
       y="30.542767"
       id="use382" />
  </g>
  <g
     fill="#000000"
     fill-opacity="1"
     id="g392">
    <use
       xlink:href="#glyph-5-4"
       x="147.692"
       y="37.057999"
       id="use386" />
    <use
       xlink:href="#glyph-5-5"
       x="151.83659"
       y="39.820778"
       id="use388" />
    <use
       xlink:href="#glyph-5-6"
       x="154.13933"
       y="41.355778"
       id="use390" />
  </g>
</svg>
