<?xml version="1.0" encoding="utf-8" standalone="no"?>
<!DOCTYPE svg PUBLIC "-//W3C//DTD SVG 1.1//EN"
  "http://www.w3.org/Graphics/SVG/1.1/DTD/svg11.dtd">
<svg xmlns:xlink="http://www.w3.org/1999/xlink" width="453.6pt" height="338.112092pt" viewBox="0 0 453.6 338.112092" xmlns="http://www.w3.org/2000/svg" version="1.1">
 <metadata>
  <rdf:RDF xmlns:dc="http://purl.org/dc/elements/1.1/" xmlns:cc="http://creativecommons.org/ns#" xmlns:rdf="http://www.w3.org/1999/02/22-rdf-syntax-ns#">
   <cc:Work>
    <dc:type rdf:resource="http://purl.org/dc/dcmitype/StillImage"/>
    <dc:date>2023-02-10T21:05:13.420011</dc:date>
    <dc:format>image/svg+xml</dc:format>
    <dc:creator>
     <cc:Agent>
      <dc:title>Matplotlib v3.5.2, https://matplotlib.org/</dc:title>
     </cc:Agent>
    </dc:creator>
   </cc:Work>
  </rdf:RDF>
 </metadata>
 <defs>
  <style type="text/css">*{stroke-linejoin: round; stroke-linecap: butt}</style>
 </defs>
 <g id="figure_1">
  <g id="patch_1">
   <path d="M 0 338.112092 
L 453.6 338.112092 
L 453.6 0 
L 0 0 
L 0 338.112092 
z
" style="fill: none"/>
  </g>
  <g id="axes_1">
   <g id="patch_2">
    <path d="M 34.162671 330.912092 
L 446.4 330.912092 
L 446.4 8.998343 
L 34.162671 8.998343 
L 34.162671 330.912092 
z
" style="fill: none"/>
   </g>
   <g id="patch_3">
    <path d="M 94.941251 292.509936 
L 94.941251 191.848977 
L 95.359219 191.118857 
L 95.777186 190.393259 
L 96.195154 189.672169 
L 96.613121 188.955577 
L 96.979674 188.330825 
L 97.346227 187.709514 
L 97.756439 187.018273 
L 98.16665 186.33132 
L 98.576862 185.648645 
L 98.987074 184.970235 
L 99.472387 184.173117 
L 99.9577 183.381935 
L 100.443013 182.59667 
L 100.928326 181.817305 
L 101.475474 180.945691 
L 102.022621 180.081525 
L 102.569769 179.224779 
L 103.116917 178.375428 
L 103.657728 177.543153 
L 104.198539 176.71805 
L 104.73935 175.900092 
L 105.280161 175.089255 
L 105.716943 174.439567 
L 106.104349 173.867184 
L 106.491756 173.298421 
L 106.879162 172.733269 
L 107.266569 172.171718 
L 107.875358 171.296522 
L 108.484148 170.430157 
L 109.092937 169.572588 
L 109.701727 168.723777 
L 110.22023 168.007728 
L 110.738733 167.297982 
L 111.282086 166.560959 
L 111.825439 165.830808 
L 112.368792 165.107501 
L 112.912145 164.391013 
L 113.329356 163.845473 
L 113.746567 163.303925 
L 114.131868 162.807332 
L 114.51717 162.314124 
L 114.902472 161.824293 
L 115.287774 161.337829 
L 115.618935 160.922404 
L 115.950096 160.509454 
L 116.281256 160.098972 
L 116.612417 159.690953 
L 116.943578 159.285391 
L 117.274739 158.882279 
L 117.6059 158.481612 
L 117.937061 158.083383 
L 118.332881 157.610592 
L 118.728701 157.141266 
L 119.124521 156.675396 
L 119.520341 156.21297 
L 119.897389 155.77567 
L 120.274437 155.341478 
L 120.758704 154.788364 
L 121.242971 154.240343 
L 121.727238 153.697398 
L 122.211505 153.15951 
L 122.623741 152.705599 
L 123.035978 152.255328 
L 123.448214 151.808684 
L 123.86045 151.365658 
L 124.32244 150.873445 
L 124.78443 150.385744 
L 125.24642 149.902538 
L 125.708409 149.423812 
L 126.129568 148.991286 
L 126.550727 148.562457 
L 127.093021 148.015711 
L 127.635316 147.475049 
L 128.17761 146.940443 
L 128.719904 146.411869 
L 129.323923 145.830199 
L 129.935913 145.248415 
L 130.547903 144.674203 
L 131.159893 144.107528 
L 131.771883 143.54835 
L 132.142805 143.213071 
L 132.513726 142.880524 
L 132.884648 142.5507 
L 133.25557 142.223593 
L 133.792166 141.75517 
L 134.328762 141.292387 
L 134.865358 140.83522 
L 135.401955 140.383642 
L 135.986467 139.898071 
L 136.57098 139.41907 
L 136.97201 139.094214 
L 137.37304 138.772425 
L 137.855545 138.389309 
L 138.338049 138.0106 
L 138.820554 137.636278 
L 139.303058 137.266325 
L 139.9448 136.781017 
L 140.586542 136.303362 
L 140.97452 136.018279 
L 141.362498 135.735969 
L 141.750476 135.45642 
L 142.138454 135.179624 
L 142.842741 134.684166 
L 143.547029 134.197689 
L 144.203874 133.752027 
L 144.860719 133.314082 
L 145.517564 132.883807 
L 146.174409 132.461156 
L 146.667481 132.148867 
L 147.160552 131.840828 
L 147.653623 131.537021 
L 148.146695 131.237424 
L 148.80314 130.84506 
L 149.459585 130.460079 
L 150.031479 130.130666 
L 150.603373 129.806791 
L 151.078612 129.541844 
L 151.553851 129.280683 
L 152.02909 129.023289 
L 152.504329 128.769645 
L 152.905665 128.558353 
L 153.307002 128.349712 
L 153.840809 128.076294 
L 154.374616 127.807523 
L 154.908424 127.543374 
L 155.442231 127.283823 
L 155.850637 127.088334 
L 156.259043 126.89551 
L 156.667449 126.70534 
L 157.075855 126.517813 
L 157.560087 126.298878 
L 158.04432 126.083624 
L 158.528552 125.872033 
L 159.012785 125.664086 
L 159.773235 125.344832 
L 160.533685 125.034447 
L 161.295132 124.73247 
L 162.05658 124.439241 
L 162.650997 124.216367 
L 163.245415 123.998747 
L 163.777922 123.808225 
L 164.310428 123.621867 
L 164.975347 123.394975 
L 165.640266 123.174489 
L 166.305186 122.960358 
L 166.970105 122.752536 
L 167.568317 122.570915 
L 168.048204 122.428857 
L 168.528091 122.290019 
L 169.007978 122.154384 
L 169.487865 122.021932 
L 170.002528 121.8834 
L 170.517191 121.748487 
L 171.031854 121.617171 
L 171.546518 121.489429 
L 171.989445 121.382338 
L 172.432373 121.277863 
L 173.155149 121.112961 
L 173.877925 120.954927 
L 174.600701 120.8037 
L 175.323476 120.659218 
L 175.855292 120.557179 
L 176.387107 120.458735 
L 176.832383 120.379055 
L 177.277658 120.301863 
L 177.755786 120.221729 
L 178.233915 120.144428 
L 178.712044 120.069943 
L 179.190172 119.998255 
L 179.664081 119.929944 
L 180.137989 119.864346 
L 180.611898 119.801444 
L 181.085806 119.741221 
L 181.622862 119.676189 
L 182.159917 119.614549 
L 182.696973 119.556276 
L 183.234029 119.501346 
L 183.875621 119.440068 
L 184.517213 119.38348 
L 185.296689 119.320979 
L 186.076164 119.265258 
L 186.709367 119.224932 
L 187.383846 119.186796 
L 188.058324 119.153582 
L 188.732803 119.125239 
L 189.407282 119.101718 
L 190.062104 119.083447 
L 190.964848 119.065547 
L 191.867591 119.055986 
L 192.757049 119.054605 
L 193.646507 119.061088 
L 194.181553 119.068727 
L 194.716599 119.079145 
L 195.251645 119.092316 
L 195.786692 119.108216 
L 196.551046 119.135615 
L 197.205824 119.163417 
L 197.860602 119.195169 
L 198.51538 119.230825 
L 199.170157 119.270337 
L 199.34808 119.281735 
L 200.103467 119.333235 
L 200.858854 119.389721 
L 201.614242 119.451123 
L 202.369629 119.517369 
L 202.942427 119.570788 
L 203.515226 119.626922 
L 204.10951 119.687997 
L 204.833063 119.766208 
L 205.556617 119.848587 
L 206.28017 119.935073 
L 207.003723 120.025605 
L 207.284987 120.061875 
L 208.1643 120.179109 
L 209.043613 120.302078 
L 209.806687 120.413354 
L 210.56976 120.528793 
L 211.186331 120.62506 
L 211.802902 120.723959 
L 212.419473 120.825452 
L 213.036044 120.9295 
L 214.005661 121.098202 
L 214.975278 121.27298 
L 215.519607 121.373705 
L 216.226195 121.507197 
L 216.932784 121.643735 
L 217.639372 121.783259 
L 218.34596 121.925713 
L 219.52494 122.16977 
L 220.855213 122.454409 
L 221.676326 122.634846 
L 222.497439 122.818793 
L 223.720796 123.099168 
L 224.627686 123.311736 
L 225.534575 123.52819 
L 226.641797 123.797548 
L 227.74902 124.072294 
L 228.495063 124.260342 
L 229.854974 124.608934 
L 231.053189 124.92202 
L 232.251405 125.240378 
L 233.258481 125.511824 
L 234.466143 125.84175 
L 235.673805 126.176217 
L 236.919991 126.525809 
L 238.265217 126.907903 
L 239.598245 127.290982 
L 240.949611 127.683454 
L 242.300977 128.079675 
L 243.004849 128.287401 
L 244.635313 128.771752 
L 245.793856 129.118296 
L 248.286431 129.869281 
L 250.256255 130.466637 
L 250.489492 130.537528 
L 251.927008 130.97496 
L 254.808279 131.85283 
L 256.656804 132.415347 
L 257.782999 132.757254 
L 259.104226 133.157219 
L 261.208053 133.790634 
L 262.14187 134.070085 
L 263.223295 134.392158 
L 264.423128 134.747308 
L 265.622961 135.099883 
L 266.58899 135.381691 
L 268.107209 135.820485 
L 269.439368 136.200982 
L 270.771528 136.576849 
L 271.048903 136.654492 
L 272.483102 137.052349 
L 273.917301 137.443813 
L 274.582905 137.623184 
L 276.190317 138.049959 
L 277.307926 138.341074 
L 278.425536 138.627321 
L 279.893209 138.995452 
L 280.940166 139.252399 
L 281.987123 139.504423 
L 282.976425 139.737875 
L 284.338666 140.051571 
L 285.605675 140.334938 
L 286.872683 140.60987 
L 287.298759 140.700371 
L 287.963161 140.839486 
L 288.627563 140.976111 
L 289.291965 141.110198 
L 289.956367 141.241699 
L 290.650764 141.376321 
L 291.345161 141.50801 
L 292.154682 141.657758 
L 292.773131 141.769372 
L 293.39158 141.878527 
L 294.01003 141.985185 
L 294.628479 142.089307 
L 295.284086 142.196873 
L 295.939694 142.301499 
L 296.733072 142.424115 
L 297.526451 142.542277 
L 298.44113 142.67287 
L 299.115417 142.765208 
L 299.789705 142.854152 
L 300.463992 142.93965 
L 301.138279 143.021654 
L 302.069681 143.129087 
L 302.932647 143.222474 
L 303.795613 143.309836 
L 304.515819 143.378057 
L 305.448412 143.459952 
L 306.381005 143.534453 
L 306.923729 143.574352 
L 307.466453 143.611676 
L 308.009177 143.646398 
L 308.551901 143.678492 
L 309.096989 143.708055 
L 309.642076 143.734914 
L 310.498159 143.771577 
L 311.354242 143.801403 
L 312.005989 143.819462 
L 312.657736 143.833454 
L 313.215595 143.842166 
L 313.773455 143.847836 
L 314.331314 143.850436 
L 314.889173 143.849938 
L 315.463468 143.846158 
L 316.037764 143.839034 
L 316.82717 143.823725 
L 317.616575 143.801958 
L 318.175506 143.782597 
L 318.734436 143.759929 
L 319.293367 143.733925 
L 319.852297 143.704558 
L 320.723327 143.652018 
L 321.423977 143.603703 
L 322.124628 143.549931 
L 322.825278 143.490645 
L 323.525928 143.425789 
L 323.996708 143.379055 
L 324.467489 143.329763 
L 325.08622 143.261063 
L 325.704951 143.187878 
L 326.269688 143.117131 
L 326.834424 143.042586 
L 327.399161 142.964214 
L 327.963898 142.881983 
L 328.401682 142.815566 
L 328.858169 142.743808 
L 329.314656 142.669481 
L 329.771143 142.592568 
L 330.22763 142.513054 
L 330.918663 142.387701 
L 331.609697 142.256297 
L 332.279518 142.123102 
L 332.94934 141.984121 
L 333.619161 141.839307 
L 334.288982 141.68861 
L 334.804078 141.56869 
L 335.319174 141.445241 
L 335.834269 141.318238 
L 336.349365 141.18766 
L 336.892461 141.046087 
L 337.494516 140.88444 
L 338.096571 140.717809 
L 338.698626 140.54616 
L 339.300681 140.369457 
L 340.059298 140.139551 
L 340.817914 139.901493 
L 341.238904 139.76584 
L 341.659894 139.627642 
L 342.080884 139.486887 
L 342.501875 139.343562 
L 343.25039 139.082349 
L 343.998906 138.812907 
L 344.587222 138.595311 
L 345.175538 138.372554 
L 345.751316 138.149518 
L 346.327094 137.921476 
L 346.902872 137.688398 
L 347.478649 137.450252 
L 347.921651 137.263554 
L 348.364653 137.073823 
L 349.151956 136.729106 
L 349.545607 136.553113 
L 349.939258 136.374685 
L 350.391431 136.166713 
L 350.843603 135.955498 
L 351.295775 135.741026 
L 351.747947 135.523281 
L 352.14352 135.330097 
L 352.539092 135.134387 
L 352.934664 134.93614 
L 353.330237 134.735348 
L 354.036778 134.370339 
L 354.743318 133.997116 
L 355.300399 133.697015 
L 355.85748 133.391744 
L 356.414562 133.081274 
L 356.971643 132.765577 
L 357.411538 132.512576 
L 358.119477 132.098499 
L 358.827416 131.675841 
L 359.223577 131.435556 
L 359.619739 131.192555 
L 360.0159 130.946829 
L 360.412061 130.698367 
L 360.790649 130.45836 
L 361.169237 130.215837 
L 361.547825 129.970788 
L 361.926413 129.723205 
L 362.305 129.473079 
L 362.683588 129.2204 
L 363.062176 128.96516 
L 363.440764 128.70735 
L 363.868964 128.412647 
L 364.297165 128.114631 
L 364.734061 127.807137 
L 365.170958 127.496168 
L 365.607855 127.18171 
L 366.044751 126.86375 
L 366.514565 126.517911 
L 366.984379 126.167989 
L 367.617031 125.690304 
L 368.249682 125.205144 
L 368.886882 124.708898 
L 369.524082 124.204984 
L 370.161282 123.693361 
L 370.798483 123.173986 
L 371.313107 122.748833 
L 371.827732 122.318574 
L 372.342356 121.883186 
L 372.856981 121.442647 
L 373.449067 120.929398 
L 373.981435 120.46204 
L 374.513802 119.989094 
L 375.04617 119.510535 
L 375.578538 119.026338 
L 376.266623 118.392121 
L 376.954709 117.748392 
L 377.411796 117.315485 
L 377.868884 116.878341 
L 378.325972 116.436944 
L 378.783059 115.991279 
L 379.263798 115.517932 
L 379.744538 115.039828 
L 380.225277 114.556949 
L 380.706016 114.069277 
L 381.229156 113.533125 
L 381.872586 112.865843 
L 382.516016 112.189864 
L 383.159446 111.505144 
L 383.802876 110.811639 
L 384.25583 110.318141 
L 384.708783 109.820254 
L 385.260397 109.207967 
L 385.812012 108.589118 
L 386.363626 107.963681 
L 386.91524 107.331628 
L 387.431226 106.734385 
L 387.837025 106.260584 
L 388.242823 105.783162 
L 388.648622 105.302109 
L 389.05442 104.817413 
L 389.58353 104.179944 
L 390.112639 103.53624 
L 390.641748 102.886277 
L 391.170857 102.23003 
L 391.657205 101.621256 
L 392.143554 101.007134 
L 392.629902 100.387646 
L 393.11625 99.762771 
L 393.663447 99.053253 
L 394.210645 98.336867 
L 394.757842 97.613586 
L 395.30504 96.883383 
L 395.938546 96.029325 
L 396.572052 95.165911 
L 396.925835 94.679649 
L 397.279618 94.19045 
L 397.6334 93.698305 
L 397.987183 93.203209 
L 398.49891 92.481841 
L 399.010636 91.754259 
L 399.522363 91.020441 
L 400.034089 90.280365 
L 400.454214 89.668074 
L 400.874338 89.051538 
L 401.406397 88.264627 
L 401.938456 87.470863 
L 402.56558 86.526442 
L 403.192704 85.572427 
L 403.819829 84.608776 
L 404.446953 83.635451 
L 404.874897 82.965687 
L 405.302842 82.291386 
L 405.730787 81.612536 
L 406.158732 80.929122 
L 406.478264 80.415857 
L 406.797797 79.900035 
L 407.11733 79.381651 
L 407.436863 78.860701 
L 407.841672 78.197026 
L 408.246481 77.529212 
L 408.65129 76.857248 
L 409.056099 76.181123 
L 409.460128 75.50214 
L 409.864158 74.81899 
L 410.268188 74.131663 
L 410.672218 73.440148 
L 411.015886 72.848641 
L 411.359554 72.254089 
L 411.703221 71.656486 
L 412.046889 71.055825 
L 412.046889 292.509936 
z
" clip-path="url(#p8f39a3d0a6)" style="fill: #808080; opacity: 0.5"/>
   </g>
   <g id="matplotlib.axis_1">
    <g id="xtick_1">
     <g id="line2d_1">
      <defs>
       <path id="m5a6c496995" d="M 0 0 
L 0 3.5 
" style="stroke: #000000; stroke-width: 0.8"/>
      </defs>
      <g>
       <use xlink:href="#m5a6c496995" x="42.090311" y="292.509936" style="stroke: #000000; stroke-width: 0.8"/>
      </g>
     </g>
     <g id="text_1">
      <!-- $\mathdefault{1}$ -->
      <g transform="translate(39.599644 306.428435)scale(0.1 -0.1)">
       <defs>
        <path id="CMR17-31" d="M 1702 4083 
C 1702 4217 1696 4224 1606 4224 
C 1357 3927 979 3833 621 3820 
C 602 3820 570 3820 563 3808 
C 557 3795 557 3782 557 3648 
C 755 3648 1088 3686 1344 3839 
L 1344 467 
C 1344 243 1331 166 781 166 
L 589 166 
L 589 0 
C 896 6 1216 12 1523 12 
C 1830 12 2150 6 2458 0 
L 2458 166 
L 2266 166 
C 1715 166 1702 236 1702 467 
L 1702 4083 
z
" transform="scale(0.015625)"/>
       </defs>
       <use xlink:href="#CMR17-31" transform="scale(0.996264)"/>
      </g>
     </g>
    </g>
    <g id="xtick_2">
     <g id="line2d_2">
      <g>
       <use xlink:href="#m5a6c496995" x="94.941251" y="292.509936" style="stroke: #000000; stroke-width: 0.8"/>
      </g>
     </g>
     <g id="text_2">
      <!-- $\mathdefault{2}$ -->
      <g transform="translate(92.450584 306.428435)scale(0.1 -0.1)">
       <defs>
        <path id="CMR17-32" d="M 2669 990 
L 2554 990 
C 2490 537 2438 460 2413 422 
C 2381 371 1920 371 1830 371 
L 602 371 
C 832 620 1280 1073 1824 1596 
C 2214 1966 2669 2400 2669 3033 
C 2669 3788 2067 4224 1395 4224 
C 691 4224 262 3603 262 3027 
C 262 2777 448 2745 525 2745 
C 589 2745 781 2783 781 3007 
C 781 3206 614 3264 525 3264 
C 486 3264 448 3257 422 3244 
C 544 3788 915 4057 1306 4057 
C 1862 4057 2227 3616 2227 3033 
C 2227 2477 1901 1998 1536 1583 
L 262 147 
L 262 0 
L 2515 0 
L 2669 990 
z
" transform="scale(0.015625)"/>
       </defs>
       <use xlink:href="#CMR17-32" transform="scale(0.996264)"/>
      </g>
     </g>
    </g>
    <g id="xtick_3">
     <g id="line2d_3">
      <g>
       <use xlink:href="#m5a6c496995" x="147.792191" y="292.509936" style="stroke: #000000; stroke-width: 0.8"/>
      </g>
     </g>
     <g id="text_3">
      <!-- $\mathdefault{3}$ -->
      <g transform="translate(145.301523 306.428435)scale(0.1 -0.1)">
       <defs>
        <path id="CMR17-33" d="M 1414 2176 
C 1984 2176 2234 1673 2234 1094 
C 2234 322 1824 25 1453 25 
C 1114 25 563 193 390 691 
C 422 678 454 678 486 678 
C 640 678 755 780 755 947 
C 755 1132 614 1216 486 1216 
C 378 1216 211 1164 211 927 
C 211 335 787 -128 1466 -128 
C 2176 -128 2720 432 2720 1087 
C 2720 1718 2208 2176 1600 2246 
C 2086 2347 2554 2776 2554 3353 
C 2554 3856 2048 4224 1472 4224 
C 890 4224 378 3862 378 3347 
C 378 3123 544 3084 627 3084 
C 762 3084 877 3167 877 3334 
C 877 3500 762 3584 627 3584 
C 602 3584 570 3584 544 3571 
C 730 3999 1235 4076 1459 4076 
C 1683 4076 2106 3966 2106 3347 
C 2106 3167 2080 2851 1862 2574 
C 1670 2329 1453 2316 1242 2297 
C 1210 2297 1062 2284 1037 2284 
C 992 2278 966 2272 966 2227 
C 966 2182 973 2176 1101 2176 
L 1414 2176 
z
" transform="scale(0.015625)"/>
       </defs>
       <use xlink:href="#CMR17-33" transform="scale(0.996264)"/>
      </g>
     </g>
    </g>
    <g id="xtick_4">
     <g id="line2d_4">
      <g>
       <use xlink:href="#m5a6c496995" x="200.64313" y="292.509936" style="stroke: #000000; stroke-width: 0.8"/>
      </g>
     </g>
     <g id="text_4">
      <!-- $\mathdefault{4}$ -->
      <g transform="translate(198.152463 306.428435)scale(0.1 -0.1)">
       <defs>
        <path id="CMR17-34" d="M 2150 4147 
C 2150 4281 2144 4288 2029 4288 
L 128 1254 
L 128 1088 
L 1779 1088 
L 1779 460 
C 1779 230 1766 166 1318 166 
L 1197 166 
L 1197 0 
C 1402 12 1747 12 1965 12 
C 2182 12 2528 12 2733 0 
L 2733 166 
L 2611 166 
C 2163 166 2150 230 2150 460 
L 2150 1088 
L 2803 1088 
L 2803 1254 
L 2150 1254 
L 2150 4147 
z
M 1798 3723 
L 1798 1254 
L 256 1254 
L 1798 3723 
z
" transform="scale(0.015625)"/>
       </defs>
       <use xlink:href="#CMR17-34" transform="scale(0.996264)"/>
      </g>
     </g>
    </g>
    <g id="xtick_5">
     <g id="line2d_5">
      <g>
       <use xlink:href="#m5a6c496995" x="253.49407" y="292.509936" style="stroke: #000000; stroke-width: 0.8"/>
      </g>
     </g>
     <g id="text_5">
      <!-- $\mathdefault{5}$ -->
      <g transform="translate(251.003403 306.428435)scale(0.1 -0.1)">
       <defs>
        <path id="CMR17-35" d="M 730 3750 
C 794 3724 1056 3641 1325 3641 
C 1920 3641 2246 3961 2432 4140 
C 2432 4191 2432 4224 2394 4224 
C 2387 4224 2374 4224 2323 4198 
C 2099 4102 1837 4032 1517 4032 
C 1325 4032 1037 4055 723 4191 
C 653 4224 640 4224 634 4224 
C 602 4224 595 4217 595 4090 
L 595 2231 
C 595 2113 595 2080 659 2080 
C 691 2080 704 2093 736 2139 
C 941 2435 1222 2560 1542 2560 
C 1766 2560 2246 2415 2246 1293 
C 2246 1087 2246 716 2054 422 
C 1894 159 1645 25 1370 25 
C 947 25 518 319 403 812 
C 429 806 480 793 506 793 
C 589 793 749 838 749 1036 
C 749 1209 627 1280 506 1280 
C 358 1280 262 1190 262 1011 
C 262 454 704 -128 1382 -128 
C 2042 -128 2669 441 2669 1267 
C 2669 2054 2170 2662 1549 2662 
C 1222 2662 947 2540 730 2304 
L 730 3750 
z
" transform="scale(0.015625)"/>
       </defs>
       <use xlink:href="#CMR17-35" transform="scale(0.996264)"/>
      </g>
     </g>
    </g>
    <g id="xtick_6">
     <g id="line2d_6">
      <g>
       <use xlink:href="#m5a6c496995" x="306.34501" y="292.509936" style="stroke: #000000; stroke-width: 0.8"/>
      </g>
     </g>
     <g id="text_6">
      <!-- $\mathdefault{6}$ -->
      <g transform="translate(303.854342 306.428435)scale(0.1 -0.1)">
       <defs>
        <path id="CMR17-36" d="M 678 2198 
C 678 3712 1395 4076 1811 4076 
C 1946 4076 2272 4049 2400 3782 
C 2298 3782 2106 3782 2106 3558 
C 2106 3385 2246 3328 2336 3328 
C 2394 3328 2566 3353 2566 3571 
C 2566 3987 2246 4224 1805 4224 
C 1043 4224 243 3411 243 2011 
C 243 257 966 -128 1478 -128 
C 2099 -128 2688 431 2688 1295 
C 2688 2101 2170 2688 1517 2688 
C 1126 2688 838 2430 678 1979 
L 678 2198 
z
M 1478 25 
C 691 25 691 1212 691 1450 
C 691 1914 909 2585 1504 2585 
C 1613 2585 1926 2585 2138 2140 
C 2253 1889 2253 1624 2253 1302 
C 2253 954 2253 696 2118 438 
C 1978 173 1773 25 1478 25 
z
" transform="scale(0.015625)"/>
       </defs>
       <use xlink:href="#CMR17-36" transform="scale(0.996264)"/>
      </g>
     </g>
    </g>
    <g id="xtick_7">
     <g id="line2d_7">
      <g>
       <use xlink:href="#m5a6c496995" x="359.19595" y="292.509936" style="stroke: #000000; stroke-width: 0.8"/>
      </g>
     </g>
     <g id="text_7">
      <!-- $\mathdefault{7}$ -->
      <g transform="translate(356.705282 306.428435)scale(0.1 -0.1)">
       <defs>
        <path id="CMR17-37" d="M 2886 3955 
L 2886 4096 
L 1382 4096 
C 634 4096 621 4166 595 4288 
L 480 4288 
L 294 3104 
L 410 3104 
C 429 3226 474 3552 550 3673 
C 589 3724 1062 3724 1171 3724 
L 2579 3724 
L 1869 2670 
C 1395 1961 1069 1003 1069 166 
C 1069 89 1069 -128 1299 -128 
C 1530 -128 1530 89 1530 172 
L 1530 466 
C 1530 1514 1709 2204 2003 2644 
L 2886 3955 
z
" transform="scale(0.015625)"/>
       </defs>
       <use xlink:href="#CMR17-37" transform="scale(0.996264)"/>
      </g>
     </g>
    </g>
    <g id="xtick_8">
     <g id="line2d_8">
      <g>
       <use xlink:href="#m5a6c496995" x="412.046889" y="292.509936" style="stroke: #000000; stroke-width: 0.8"/>
      </g>
     </g>
     <g id="text_8">
      <!-- $\mathdefault{8}$ -->
      <g transform="translate(409.556222 306.428435)scale(0.1 -0.1)">
       <defs>
        <path id="CMR17-38" d="M 1741 2289 
C 2144 2494 2554 2803 2554 3298 
C 2554 3884 1990 4224 1472 4224 
C 890 4224 378 3800 378 3215 
C 378 3054 416 2777 666 2533 
C 730 2469 998 2276 1171 2154 
C 883 2006 211 1652 211 945 
C 211 282 838 -128 1459 -128 
C 2144 -128 2720 366 2720 1022 
C 2720 1607 2330 1877 2074 2051 
L 1741 2289 
z
M 902 2855 
C 851 2887 595 3086 595 3388 
C 595 3781 998 4076 1459 4076 
C 1965 4076 2336 3716 2336 3298 
C 2336 2700 1670 2359 1638 2359 
C 1632 2359 1626 2359 1574 2398 
L 902 2855 
z
M 2080 1536 
C 2176 1466 2483 1253 2483 861 
C 2483 385 2010 25 1472 25 
C 890 25 448 443 448 951 
C 448 1459 838 1884 1280 2083 
L 2080 1536 
z
" transform="scale(0.015625)"/>
       </defs>
       <use xlink:href="#CMR17-38" transform="scale(0.996264)"/>
      </g>
     </g>
    </g>
    <g id="xtick_9">
     <g id="line2d_9">
      <defs>
       <path id="md49d48b8a2" d="M 0 0 
L 0 2 
" style="stroke: #000000; stroke-width: 0.6"/>
      </defs>
      <g>
       <use xlink:href="#md49d48b8a2" x="52.660499" y="292.509936" style="stroke: #000000; stroke-width: 0.6"/>
      </g>
     </g>
    </g>
    <g id="xtick_10">
     <g id="line2d_10">
      <g>
       <use xlink:href="#md49d48b8a2" x="63.230687" y="292.509936" style="stroke: #000000; stroke-width: 0.6"/>
      </g>
     </g>
    </g>
    <g id="xtick_11">
     <g id="line2d_11">
      <g>
       <use xlink:href="#md49d48b8a2" x="73.800875" y="292.509936" style="stroke: #000000; stroke-width: 0.6"/>
      </g>
     </g>
    </g>
    <g id="xtick_12">
     <g id="line2d_12">
      <g>
       <use xlink:href="#md49d48b8a2" x="84.371063" y="292.509936" style="stroke: #000000; stroke-width: 0.6"/>
      </g>
     </g>
    </g>
    <g id="xtick_13">
     <g id="line2d_13">
      <g>
       <use xlink:href="#md49d48b8a2" x="105.511439" y="292.509936" style="stroke: #000000; stroke-width: 0.6"/>
      </g>
     </g>
    </g>
    <g id="xtick_14">
     <g id="line2d_14">
      <g>
       <use xlink:href="#md49d48b8a2" x="116.081627" y="292.509936" style="stroke: #000000; stroke-width: 0.6"/>
      </g>
     </g>
    </g>
    <g id="xtick_15">
     <g id="line2d_15">
      <g>
       <use xlink:href="#md49d48b8a2" x="126.651815" y="292.509936" style="stroke: #000000; stroke-width: 0.6"/>
      </g>
     </g>
    </g>
    <g id="xtick_16">
     <g id="line2d_16">
      <g>
       <use xlink:href="#md49d48b8a2" x="137.222003" y="292.509936" style="stroke: #000000; stroke-width: 0.6"/>
      </g>
     </g>
    </g>
    <g id="xtick_17">
     <g id="line2d_17">
      <g>
       <use xlink:href="#md49d48b8a2" x="158.362379" y="292.509936" style="stroke: #000000; stroke-width: 0.6"/>
      </g>
     </g>
    </g>
    <g id="xtick_18">
     <g id="line2d_18">
      <g>
       <use xlink:href="#md49d48b8a2" x="168.932567" y="292.509936" style="stroke: #000000; stroke-width: 0.6"/>
      </g>
     </g>
    </g>
    <g id="xtick_19">
     <g id="line2d_19">
      <g>
       <use xlink:href="#md49d48b8a2" x="179.502755" y="292.509936" style="stroke: #000000; stroke-width: 0.6"/>
      </g>
     </g>
    </g>
    <g id="xtick_20">
     <g id="line2d_20">
      <g>
       <use xlink:href="#md49d48b8a2" x="190.072943" y="292.509936" style="stroke: #000000; stroke-width: 0.6"/>
      </g>
     </g>
    </g>
    <g id="xtick_21">
     <g id="line2d_21">
      <g>
       <use xlink:href="#md49d48b8a2" x="211.213318" y="292.509936" style="stroke: #000000; stroke-width: 0.6"/>
      </g>
     </g>
    </g>
    <g id="xtick_22">
     <g id="line2d_22">
      <g>
       <use xlink:href="#md49d48b8a2" x="221.783506" y="292.509936" style="stroke: #000000; stroke-width: 0.6"/>
      </g>
     </g>
    </g>
    <g id="xtick_23">
     <g id="line2d_23">
      <g>
       <use xlink:href="#md49d48b8a2" x="232.353694" y="292.509936" style="stroke: #000000; stroke-width: 0.6"/>
      </g>
     </g>
    </g>
    <g id="xtick_24">
     <g id="line2d_24">
      <g>
       <use xlink:href="#md49d48b8a2" x="242.923882" y="292.509936" style="stroke: #000000; stroke-width: 0.6"/>
      </g>
     </g>
    </g>
    <g id="xtick_25">
     <g id="line2d_25">
      <g>
       <use xlink:href="#md49d48b8a2" x="264.064258" y="292.509936" style="stroke: #000000; stroke-width: 0.6"/>
      </g>
     </g>
    </g>
    <g id="xtick_26">
     <g id="line2d_26">
      <g>
       <use xlink:href="#md49d48b8a2" x="274.634446" y="292.509936" style="stroke: #000000; stroke-width: 0.6"/>
      </g>
     </g>
    </g>
    <g id="xtick_27">
     <g id="line2d_27">
      <g>
       <use xlink:href="#md49d48b8a2" x="285.204634" y="292.509936" style="stroke: #000000; stroke-width: 0.6"/>
      </g>
     </g>
    </g>
    <g id="xtick_28">
     <g id="line2d_28">
      <g>
       <use xlink:href="#md49d48b8a2" x="295.774822" y="292.509936" style="stroke: #000000; stroke-width: 0.6"/>
      </g>
     </g>
    </g>
    <g id="xtick_29">
     <g id="line2d_29">
      <g>
       <use xlink:href="#md49d48b8a2" x="316.915198" y="292.509936" style="stroke: #000000; stroke-width: 0.6"/>
      </g>
     </g>
    </g>
    <g id="xtick_30">
     <g id="line2d_30">
      <g>
       <use xlink:href="#md49d48b8a2" x="327.485386" y="292.509936" style="stroke: #000000; stroke-width: 0.6"/>
      </g>
     </g>
    </g>
    <g id="xtick_31">
     <g id="line2d_31">
      <g>
       <use xlink:href="#md49d48b8a2" x="338.055574" y="292.509936" style="stroke: #000000; stroke-width: 0.6"/>
      </g>
     </g>
    </g>
    <g id="xtick_32">
     <g id="line2d_32">
      <g>
       <use xlink:href="#md49d48b8a2" x="348.625762" y="292.509936" style="stroke: #000000; stroke-width: 0.6"/>
      </g>
     </g>
    </g>
    <g id="xtick_33">
     <g id="line2d_33">
      <g>
       <use xlink:href="#md49d48b8a2" x="369.766137" y="292.509936" style="stroke: #000000; stroke-width: 0.6"/>
      </g>
     </g>
    </g>
    <g id="xtick_34">
     <g id="line2d_34">
      <g>
       <use xlink:href="#md49d48b8a2" x="380.336325" y="292.509936" style="stroke: #000000; stroke-width: 0.6"/>
      </g>
     </g>
    </g>
    <g id="xtick_35">
     <g id="line2d_35">
      <g>
       <use xlink:href="#md49d48b8a2" x="390.906513" y="292.509936" style="stroke: #000000; stroke-width: 0.6"/>
      </g>
     </g>
    </g>
    <g id="xtick_36">
     <g id="line2d_36">
      <g>
       <use xlink:href="#md49d48b8a2" x="401.476701" y="292.509936" style="stroke: #000000; stroke-width: 0.6"/>
      </g>
     </g>
    </g>
    <g id="xtick_37">
     <g id="line2d_37">
      <g>
       <use xlink:href="#md49d48b8a2" x="422.617077" y="292.509936" style="stroke: #000000; stroke-width: 0.6"/>
      </g>
     </g>
    </g>
    <g id="xtick_38">
     <g id="line2d_38">
      <g>
       <use xlink:href="#md49d48b8a2" x="433.187265" y="292.509936" style="stroke: #000000; stroke-width: 0.6"/>
      </g>
     </g>
    </g>
    <g id="xtick_39">
     <g id="line2d_39">
      <g>
       <use xlink:href="#md49d48b8a2" x="443.757453" y="292.509936" style="stroke: #000000; stroke-width: 0.6"/>
      </g>
     </g>
    </g>
   </g>
   <g id="matplotlib.axis_2">
    <g id="ytick_1">
     <g id="line2d_40">
      <defs>
       <path id="m551002e109" d="M 0 0 
L -3.5 0 
" style="stroke: #000000; stroke-width: 0.8"/>
      </defs>
      <g>
       <use xlink:href="#m551002e109" x="24.162671" y="292.509936" style="stroke: #000000; stroke-width: 0.8"/>
      </g>
     </g>
     <g id="text_9">
      <!-- $\mathdefault{0}$ -->
      <g transform="translate(12.181335 295.969185)scale(0.1 -0.1)">
       <defs>
        <path id="CMR17-30" d="M 2688 2038 
C 2688 2430 2682 3099 2413 3613 
C 2176 4063 1798 4224 1466 4224 
C 1158 4224 768 4082 525 3620 
C 269 3137 243 2539 243 2038 
C 243 1671 250 1112 448 623 
C 723 -39 1216 -128 1466 -128 
C 1760 -128 2208 -7 2470 604 
C 2662 1048 2688 1568 2688 2038 
z
M 1466 -26 
C 1056 -26 813 328 723 816 
C 653 1196 653 1749 653 2109 
C 653 2604 653 3015 736 3407 
C 858 3954 1216 4121 1466 4121 
C 1728 4121 2067 3947 2189 3420 
C 2272 3054 2278 2623 2278 2109 
C 2278 1691 2278 1176 2202 797 
C 2067 96 1690 -26 1466 -26 
z
" transform="scale(0.015625)"/>
       </defs>
       <use xlink:href="#CMR17-30" transform="scale(0.996264)"/>
      </g>
     </g>
    </g>
    <g id="ytick_2">
     <g id="line2d_41">
      <g>
       <use xlink:href="#m551002e109" x="24.162671" y="252.245552" style="stroke: #000000; stroke-width: 0.8"/>
      </g>
     </g>
     <g id="text_10">
      <!-- $\mathdefault{10}$ -->
      <g transform="translate(7.2 255.704802)scale(0.1 -0.1)">
       <use xlink:href="#CMR17-31" transform="scale(0.996264)"/>
       <use xlink:href="#CMR17-30" transform="translate(45.690477 0)scale(0.996264)"/>
      </g>
     </g>
    </g>
    <g id="ytick_3">
     <g id="line2d_42">
      <g>
       <use xlink:href="#m551002e109" x="24.162671" y="211.981168" style="stroke: #000000; stroke-width: 0.8"/>
      </g>
     </g>
     <g id="text_11">
      <!-- $\mathdefault{20}$ -->
      <g transform="translate(7.2 215.440418)scale(0.1 -0.1)">
       <use xlink:href="#CMR17-32" transform="scale(0.996264)"/>
       <use xlink:href="#CMR17-30" transform="translate(45.690477 0)scale(0.996264)"/>
      </g>
     </g>
    </g>
    <g id="ytick_4">
     <g id="line2d_43">
      <g>
       <use xlink:href="#m551002e109" x="24.162671" y="171.716785" style="stroke: #000000; stroke-width: 0.8"/>
      </g>
     </g>
     <g id="text_12">
      <!-- $\mathdefault{30}$ -->
      <g transform="translate(7.2 175.176034)scale(0.1 -0.1)">
       <use xlink:href="#CMR17-33" transform="scale(0.996264)"/>
       <use xlink:href="#CMR17-30" transform="translate(45.690477 0)scale(0.996264)"/>
      </g>
     </g>
    </g>
    <g id="ytick_5">
     <g id="line2d_44">
      <g>
       <use xlink:href="#m551002e109" x="24.162671" y="131.452401" style="stroke: #000000; stroke-width: 0.8"/>
      </g>
     </g>
     <g id="text_13">
      <!-- $\mathdefault{40}$ -->
      <g transform="translate(7.2 134.91165)scale(0.1 -0.1)">
       <use xlink:href="#CMR17-34" transform="scale(0.996264)"/>
       <use xlink:href="#CMR17-30" transform="translate(45.690477 0)scale(0.996264)"/>
      </g>
     </g>
    </g>
    <g id="ytick_6">
     <g id="line2d_45">
      <g>
       <use xlink:href="#m551002e109" x="24.162671" y="91.188017" style="stroke: #000000; stroke-width: 0.8"/>
      </g>
     </g>
     <g id="text_14">
      <!-- $\mathdefault{50}$ -->
      <g transform="translate(7.2 94.647266)scale(0.1 -0.1)">
       <use xlink:href="#CMR17-35" transform="scale(0.996264)"/>
       <use xlink:href="#CMR17-30" transform="translate(45.690477 0)scale(0.996264)"/>
      </g>
     </g>
    </g>
    <g id="ytick_7">
     <g id="line2d_46">
      <g>
       <use xlink:href="#m551002e109" x="24.162671" y="50.923633" style="stroke: #000000; stroke-width: 0.8"/>
      </g>
     </g>
     <g id="text_15">
      <!-- $\mathdefault{60}$ -->
      <g transform="translate(7.2 54.382882)scale(0.1 -0.1)">
       <use xlink:href="#CMR17-36" transform="scale(0.996264)"/>
       <use xlink:href="#CMR17-30" transform="translate(45.690477 0)scale(0.996264)"/>
      </g>
     </g>
    </g>
    <g id="ytick_8">
     <g id="line2d_47">
      <g>
       <use xlink:href="#m551002e109" x="24.162671" y="10.659249" style="stroke: #000000; stroke-width: 0.8"/>
      </g>
     </g>
     <g id="text_16">
      <!-- $\mathdefault{70}$ -->
      <g transform="translate(7.2 14.118498)scale(0.1 -0.1)">
       <use xlink:href="#CMR17-37" transform="scale(0.996264)"/>
       <use xlink:href="#CMR17-30" transform="translate(45.690477 0)scale(0.996264)"/>
      </g>
     </g>
    </g>
    <g id="ytick_9">
     <g id="line2d_48">
      <defs>
       <path id="m447c2f564b" d="M 0 0 
L -2 0 
" style="stroke: #000000; stroke-width: 0.6"/>
      </defs>
      <g>
       <use xlink:href="#m447c2f564b" x="24.162671" y="324.721443" style="stroke: #000000; stroke-width: 0.6"/>
      </g>
     </g>
    </g>
    <g id="ytick_10">
     <g id="line2d_49">
      <g>
       <use xlink:href="#m447c2f564b" x="24.162671" y="316.668567" style="stroke: #000000; stroke-width: 0.6"/>
      </g>
     </g>
    </g>
    <g id="ytick_11">
     <g id="line2d_50">
      <g>
       <use xlink:href="#m447c2f564b" x="24.162671" y="308.61569" style="stroke: #000000; stroke-width: 0.6"/>
      </g>
     </g>
    </g>
    <g id="ytick_12">
     <g id="line2d_51">
      <g>
       <use xlink:href="#m447c2f564b" x="24.162671" y="300.562813" style="stroke: #000000; stroke-width: 0.6"/>
      </g>
     </g>
    </g>
    <g id="ytick_13">
     <g id="line2d_52">
      <g>
       <use xlink:href="#m447c2f564b" x="24.162671" y="284.457059" style="stroke: #000000; stroke-width: 0.6"/>
      </g>
     </g>
    </g>
    <g id="ytick_14">
     <g id="line2d_53">
      <g>
       <use xlink:href="#m447c2f564b" x="24.162671" y="276.404183" style="stroke: #000000; stroke-width: 0.6"/>
      </g>
     </g>
    </g>
    <g id="ytick_15">
     <g id="line2d_54">
      <g>
       <use xlink:href="#m447c2f564b" x="24.162671" y="268.351306" style="stroke: #000000; stroke-width: 0.6"/>
      </g>
     </g>
    </g>
    <g id="ytick_16">
     <g id="line2d_55">
      <g>
       <use xlink:href="#m447c2f564b" x="24.162671" y="260.298429" style="stroke: #000000; stroke-width: 0.6"/>
      </g>
     </g>
    </g>
    <g id="ytick_17">
     <g id="line2d_56">
      <g>
       <use xlink:href="#m447c2f564b" x="24.162671" y="244.192676" style="stroke: #000000; stroke-width: 0.6"/>
      </g>
     </g>
    </g>
    <g id="ytick_18">
     <g id="line2d_57">
      <g>
       <use xlink:href="#m447c2f564b" x="24.162671" y="236.139799" style="stroke: #000000; stroke-width: 0.6"/>
      </g>
     </g>
    </g>
    <g id="ytick_19">
     <g id="line2d_58">
      <g>
       <use xlink:href="#m447c2f564b" x="24.162671" y="228.086922" style="stroke: #000000; stroke-width: 0.6"/>
      </g>
     </g>
    </g>
    <g id="ytick_20">
     <g id="line2d_59">
      <g>
       <use xlink:href="#m447c2f564b" x="24.162671" y="220.034045" style="stroke: #000000; stroke-width: 0.6"/>
      </g>
     </g>
    </g>
    <g id="ytick_21">
     <g id="line2d_60">
      <g>
       <use xlink:href="#m447c2f564b" x="24.162671" y="203.928292" style="stroke: #000000; stroke-width: 0.6"/>
      </g>
     </g>
    </g>
    <g id="ytick_22">
     <g id="line2d_61">
      <g>
       <use xlink:href="#m447c2f564b" x="24.162671" y="195.875415" style="stroke: #000000; stroke-width: 0.6"/>
      </g>
     </g>
    </g>
    <g id="ytick_23">
     <g id="line2d_62">
      <g>
       <use xlink:href="#m447c2f564b" x="24.162671" y="187.822538" style="stroke: #000000; stroke-width: 0.6"/>
      </g>
     </g>
    </g>
    <g id="ytick_24">
     <g id="line2d_63">
      <g>
       <use xlink:href="#m447c2f564b" x="24.162671" y="179.769661" style="stroke: #000000; stroke-width: 0.6"/>
      </g>
     </g>
    </g>
    <g id="ytick_25">
     <g id="line2d_64">
      <g>
       <use xlink:href="#m447c2f564b" x="24.162671" y="163.663908" style="stroke: #000000; stroke-width: 0.6"/>
      </g>
     </g>
    </g>
    <g id="ytick_26">
     <g id="line2d_65">
      <g>
       <use xlink:href="#m447c2f564b" x="24.162671" y="155.611031" style="stroke: #000000; stroke-width: 0.6"/>
      </g>
     </g>
    </g>
    <g id="ytick_27">
     <g id="line2d_66">
      <g>
       <use xlink:href="#m447c2f564b" x="24.162671" y="147.558154" style="stroke: #000000; stroke-width: 0.6"/>
      </g>
     </g>
    </g>
    <g id="ytick_28">
     <g id="line2d_67">
      <g>
       <use xlink:href="#m447c2f564b" x="24.162671" y="139.505278" style="stroke: #000000; stroke-width: 0.6"/>
      </g>
     </g>
    </g>
    <g id="ytick_29">
     <g id="line2d_68">
      <g>
       <use xlink:href="#m447c2f564b" x="24.162671" y="123.399524" style="stroke: #000000; stroke-width: 0.6"/>
      </g>
     </g>
    </g>
    <g id="ytick_30">
     <g id="line2d_69">
      <g>
       <use xlink:href="#m447c2f564b" x="24.162671" y="115.346647" style="stroke: #000000; stroke-width: 0.6"/>
      </g>
     </g>
    </g>
    <g id="ytick_31">
     <g id="line2d_70">
      <g>
       <use xlink:href="#m447c2f564b" x="24.162671" y="107.29377" style="stroke: #000000; stroke-width: 0.6"/>
      </g>
     </g>
    </g>
    <g id="ytick_32">
     <g id="line2d_71">
      <g>
       <use xlink:href="#m447c2f564b" x="24.162671" y="99.240894" style="stroke: #000000; stroke-width: 0.6"/>
      </g>
     </g>
    </g>
    <g id="ytick_33">
     <g id="line2d_72">
      <g>
       <use xlink:href="#m447c2f564b" x="24.162671" y="83.13514" style="stroke: #000000; stroke-width: 0.6"/>
      </g>
     </g>
    </g>
    <g id="ytick_34">
     <g id="line2d_73">
      <g>
       <use xlink:href="#m447c2f564b" x="24.162671" y="75.082263" style="stroke: #000000; stroke-width: 0.6"/>
      </g>
     </g>
    </g>
    <g id="ytick_35">
     <g id="line2d_74">
      <g>
       <use xlink:href="#m447c2f564b" x="24.162671" y="67.029387" style="stroke: #000000; stroke-width: 0.6"/>
      </g>
     </g>
    </g>
    <g id="ytick_36">
     <g id="line2d_75">
      <g>
       <use xlink:href="#m447c2f564b" x="24.162671" y="58.97651" style="stroke: #000000; stroke-width: 0.6"/>
      </g>
     </g>
    </g>
    <g id="ytick_37">
     <g id="line2d_76">
      <g>
       <use xlink:href="#m447c2f564b" x="24.162671" y="42.870756" style="stroke: #000000; stroke-width: 0.6"/>
      </g>
     </g>
    </g>
    <g id="ytick_38">
     <g id="line2d_77">
      <g>
       <use xlink:href="#m447c2f564b" x="24.162671" y="34.81788" style="stroke: #000000; stroke-width: 0.6"/>
      </g>
     </g>
    </g>
    <g id="ytick_39">
     <g id="line2d_78">
      <g>
       <use xlink:href="#m447c2f564b" x="24.162671" y="26.765003" style="stroke: #000000; stroke-width: 0.6"/>
      </g>
     </g>
    </g>
    <g id="ytick_40">
     <g id="line2d_79">
      <g>
       <use xlink:href="#m447c2f564b" x="24.162671" y="18.712126" style="stroke: #000000; stroke-width: 0.6"/>
      </g>
     </g>
    </g>
   </g>
   <g id="line2d_80">
    <path d="M 94.941251 292.509936 
L 94.941251 191.848977 
" clip-path="url(#p8f39a3d0a6)" style="fill: none; stroke: #000000; stroke-linecap: square"/>
   </g>
   <g id="line2d_81">
    <path d="M 412.046889 292.509936 
L 412.046889 71.055825 
" clip-path="url(#p8f39a3d0a6)" style="fill: none; stroke: #000000; stroke-linecap: square"/>
   </g>
   <g id="line2d_82">
    <path d="M 94.941251 191.848977 
L 98.987074 184.970235 
L 103.116917 178.375428 
L 107.266569 172.171718 
L 111.282086 166.560959 
L 115.287774 161.337829 
L 119.124521 156.675396 
L 123.035978 152.255328 
L 127.093021 148.015711 
L 131.159893 144.107528 
L 134.865358 140.83522 
L 138.820554 137.636278 
L 142.842741 134.684166 
L 146.667481 132.148867 
L 150.603373 129.806791 
L 154.374616 127.807523 
L 158.528552 125.872033 
L 162.650997 124.216367 
L 166.970105 122.752536 
L 171.031854 121.617171 
L 175.323476 120.659218 
L 179.664081 119.929944 
L 183.875621 119.440068 
L 188.058324 119.153582 
L 192.757049 119.054605 
L 197.860602 119.195169 
L 202.942427 119.570788 
L 208.1643 120.179109 
L 214.005661 121.098202 
L 219.52494 122.16977 
L 226.641797 123.797548 
L 234.466143 125.84175 
L 244.635313 128.771752 
L 274.582905 137.623184 
L 282.976425 139.737875 
L 289.956367 141.241699 
L 295.939694 142.301499 
L 301.138279 143.021654 
L 306.381005 143.534453 
L 311.354242 143.801403 
L 316.037764 143.839034 
L 320.723327 143.652018 
L 325.08622 143.261063 
L 329.314656 142.669481 
L 333.619161 141.839307 
L 337.494516 140.88444 
L 341.659894 139.627642 
L 345.751316 138.149518 
L 349.939258 136.374685 
L 354.036778 134.370339 
L 358.119477 132.098499 
L 362.305 129.473079 
L 366.044751 126.86375 
L 369.524082 124.204984 
L 373.449067 120.929398 
L 377.411796 117.315485 
L 381.229156 113.533125 
L 385.260397 109.207967 
L 389.05442 104.817413 
L 393.11625 99.762771 
L 397.279618 94.19045 
L 401.406397 88.264627 
L 405.302842 82.291386 
L 409.460128 75.50214 
L 412.046889 71.055825 
L 412.046889 71.055825 
" clip-path="url(#p8f39a3d0a6)" style="fill: none; stroke: #0000ff; stroke-linecap: square"/>
   </g>
   <g id="line2d_83">
    <path d="M 42.090311 324.721443 
L 46.816913 309.260826 
L 51.701191 294.078104 
L 56.325341 280.430287 
L 61.043128 267.217043 
L 65.528271 255.30562 
L 69.989636 244.071255 
L 74.623778 233.034502 
L 78.721021 223.800559 
L 83.092004 214.478746 
L 87.339246 205.931322 
L 91.443935 198.136999 
L 95.712094 190.505963 
L 100.00039 183.312622 
L 104.308151 176.551688 
L 108.60911 170.253414 
L 112.724601 164.637549 
L 116.686947 159.599465 
L 120.765714 154.780395 
L 124.795808 150.373789 
L 128.894626 146.242848 
L 132.760665 142.660643 
L 136.899848 139.152443 
L 141.062378 135.954107 
L 145.296542 133.027737 
L 149.087687 130.67728 
L 153.238989 128.384883 
L 157.257669 126.435176 
L 161.088619 124.813502 
L 165.122132 123.345752 
L 169.485137 122.022676 
L 173.493121 121.038213 
L 177.949809 120.19002 
L 182.606313 119.565878 
L 187.220209 119.195594 
L 191.475752 119.05912 
L 196.261752 119.124601 
L 201.562356 119.446749 
L 207.079635 120.035335 
L 212.226421 120.793398 
L 218.569494 121.97138 
L 224.641685 123.315048 
L 232.19264 125.224646 
L 240.738227 127.621805 
L 254.24666 131.681733 
L 269.475674 136.211289 
L 278.399702 138.620761 
L 286.13489 140.450819 
L 292.363016 141.695629 
L 297.781645 142.579324 
L 302.977531 143.227167 
L 307.974461 143.644255 
L 312.9314 143.838106 
L 317.903498 143.792431 
L 322.38777 143.528315 
L 327.043564 143.01401 
L 331.039964 142.365074 
L 335.169179 141.481555 
L 339.473182 140.317891 
L 343.172523 139.109905 
L 347.357263 137.500882 
L 351.302549 135.737788 
L 355.013231 133.852358 
L 358.740292 131.728321 
L 362.643473 129.247295 
L 366.689118 126.388379 
L 370.478727 123.435587 
L 374.437108 120.057573 
L 378.529544 116.238987 
L 382.52689 112.178366 
L 386.243793 108.100114 
L 390.168085 103.468423 
L 393.943999 98.686818 
L 397.972913 93.223236 
L 401.946879 87.458242 
L 406.118522 80.993531 
L 410.168385 74.301835 
L 414.254064 67.124807 
L 418.418936 59.356582 
L 422.869572 50.537603 
L 427.185803 41.460663 
L 431.359672 32.179608 
L 435.693375 22.006399 
L 438.472359 15.188992 
L 438.472359 15.188992 
" clip-path="url(#p8f39a3d0a6)" style="fill: none; stroke: #0000ff; stroke-width: 2; stroke-linecap: square"/>
   </g>
   <g id="patch_4">
    <path d="M 24.162671 330.912092 
L 24.162671 8.998343 
" style="fill: none; stroke: #000000; stroke-width: 0.8; stroke-linejoin: miter; stroke-linecap: square"/>
   </g>
   <g id="patch_5">
    <path d="M 34.162671 292.509936 
L 446.4 292.509936 
" style="fill: none; stroke: #000000; stroke-width: 0.8; stroke-linejoin: miter; stroke-linecap: square"/>
   </g>
  </g>
 </g>
 <defs>
  <clipPath id="p8f39a3d0a6">
   <rect x="34.162671" y="8.998343" width="412.237329" height="321.913749"/>
  </clipPath>
 </defs>
</svg>
