<?xml version="1.0" encoding="utf-8" standalone="no"?>
<!DOCTYPE svg PUBLIC "-//W3C//DTD SVG 1.1//EN"
  "http://www.w3.org/Graphics/SVG/1.1/DTD/svg11.dtd">
<svg xmlns:xlink="http://www.w3.org/1999/xlink" width="453.545pt" height="337.953895pt" viewBox="0 0 453.545 337.953895" xmlns="http://www.w3.org/2000/svg" version="1.1">
 <metadata>
  <rdf:RDF xmlns:dc="http://purl.org/dc/elements/1.1/" xmlns:cc="http://creativecommons.org/ns#" xmlns:rdf="http://www.w3.org/1999/02/22-rdf-syntax-ns#">
   <cc:Work>
    <dc:type rdf:resource="http://purl.org/dc/dcmitype/StillImage"/>
    <dc:date>2023-02-09T13:59:48.549322</dc:date>
    <dc:format>image/svg+xml</dc:format>
    <dc:creator>
     <cc:Agent>
      <dc:title>Matplotlib v3.6.2, https://matplotlib.org/</dc:title>
     </cc:Agent>
    </dc:creator>
   </cc:Work>
  </rdf:RDF>
 </metadata>
 <defs>
  <style type="text/css">*{stroke-linejoin: round; stroke-linecap: butt}</style>
 </defs>
 <g id="figure_1">
  <g id="patch_1">
   <path d="M 0 337.953895 
L 453.545 337.953895 
L 453.545 0 
L 0 0 
L 0 337.953895 
z
" style="fill: none"/>
  </g>
  <g id="axes_1">
   <g id="patch_2">
    <path d="M 36.925 330.753895 
L 446.345 330.753895 
L 446.345 9.340897 
L 36.925 9.340897 
L 36.925 330.753895 
z
" style="fill: none"/>
   </g>
   <g id="patch_3">
    <path d="M 97.288205 292.411475 
L 97.288205 191.907098 
L 97.782581 191.039429 
L 98.276957 190.178159 
L 98.771334 189.323268 
L 99.26571 188.474736 
L 99.625125 187.861827 
L 99.984541 187.25226 
L 100.343956 186.646028 
L 100.703372 186.043123 
L 101.033118 185.492907 
L 101.362863 184.945479 
L 101.692609 184.400834 
L 102.022355 183.858964 
L 102.408694 183.227617 
L 102.795034 182.600063 
L 103.181373 181.976292 
L 103.567712 181.356295 
L 104.115482 180.483684 
L 104.663252 179.618612 
L 105.211021 178.761051 
L 105.758791 177.910974 
L 106.329913 177.032598 
L 106.901034 176.162297 
L 107.234418 175.657992 
L 107.567802 175.156422 
L 107.901186 174.65758 
L 108.23457 174.16146 
L 108.633853 173.570848 
L 109.033136 172.984121 
L 109.432419 172.401269 
L 109.831702 171.822282 
L 110.211078 171.275733 
L 110.590453 170.732653 
L 110.969829 170.193034 
L 111.349204 169.656867 
L 111.954003 168.809227 
L 112.558803 167.970298 
L 113.163602 167.140045 
L 113.768401 166.318431 
L 114.263641 165.652059 
L 114.894876 164.811026 
L 115.526112 163.979288 
L 116.056492 163.287597 
L 116.586872 162.602413 
L 117.117251 161.923712 
L 117.647631 161.251469 
L 118.179441 160.583873 
L 118.71125 159.92272 
L 119.24306 159.267984 
L 119.774869 158.619641 
L 120.224313 158.076678 
L 120.673756 157.538248 
L 121.123199 157.004335 
L 121.572643 156.474924 
L 122.10185 155.85731 
L 122.631057 155.245892 
L 123.02814 154.791176 
L 123.425224 154.339925 
L 123.822308 153.892127 
L 124.219392 153.447773 
L 124.630458 152.991388 
L 125.041524 152.538671 
L 125.452591 152.08961 
L 125.863657 151.644192 
L 126.318839 151.155212 
L 126.77402 150.670669 
L 127.284981 150.132018 
L 127.795942 149.598917 
L 128.306903 149.071345 
L 128.817864 148.549279 
L 129.205879 148.156496 
L 129.593895 147.766865 
L 129.98191 147.380377 
L 130.369926 146.997023 
L 130.855169 146.522003 
L 131.340412 146.051849 
L 131.957658 145.4608 
L 132.574904 144.877553 
L 133.19215 144.302071 
L 133.809396 143.734314 
L 134.19489 143.383629 
L 134.580384 143.035932 
L 134.965878 142.691214 
L 135.351372 142.349465 
L 136.049235 141.738317 
L 136.747098 141.136811 
L 137.312594 140.656429 
L 137.87809 140.182311 
L 138.553739 139.624011 
L 139.229387 139.07456 
L 139.905036 138.533904 
L 140.580684 138.001994 
L 140.994966 137.680149 
L 141.649921 137.177972 
L 142.304876 136.683887 
L 142.959831 136.197847 
L 143.614786 135.719807 
L 144.093743 135.375261 
L 144.572699 135.034949 
L 145.051656 134.698853 
L 145.530613 134.366955 
L 145.630818 134.298047 
L 146.347204 133.810717 
L 147.06359 133.332667 
L 147.779976 132.863835 
L 148.496362 132.40416 
L 148.967175 132.107017 
L 149.437988 131.813784 
L 149.84602 131.562804 
L 150.254051 131.314736 
L 150.662083 131.069571 
L 151.070114 130.827296 
L 151.455169 130.601305 
L 151.840223 130.377869 
L 152.225278 130.156978 
L 152.610332 129.938622 
L 153.029027 129.704057 
L 153.447722 129.472465 
L 153.866416 129.243836 
L 154.285111 129.018157 
L 154.907997 128.68785 
L 155.530883 128.364005 
L 156.04956 128.099241 
L 156.568237 127.838905 
L 157.086913 127.582976 
L 157.60559 127.331429 
L 158.195791 127.050495 
L 158.785992 126.775172 
L 159.268209 126.554363 
L 159.750425 126.337257 
L 160.232642 126.123836 
L 160.714859 125.914081 
L 161.148616 125.728523 
L 161.582372 125.545901 
L 162.016128 125.366204 
L 162.449884 125.189417 
L 162.970356 124.981109 
L 163.382801 124.818983 
L 163.795247 124.659449 
L 164.207692 124.502496 
L 164.620138 124.348113 
L 165.191391 124.138507 
L 165.762645 123.933776 
L 166.333898 123.733889 
L 166.905152 123.538815 
L 167.416569 123.368232 
L 167.927986 123.201459 
L 168.661819 122.968767 
L 169.395652 122.743808 
L 170.129486 122.526516 
L 170.863319 122.316826 
L 171.439953 122.157345 
L 172.016587 122.002485 
L 172.471248 121.883618 
L 172.925908 121.767589 
L 173.380569 121.654382 
L 173.835229 121.54398 
L 174.196645 121.458211 
L 174.707487 121.339973 
L 175.218329 121.225219 
L 175.729171 121.113928 
L 176.240013 121.006076 
L 176.747066 120.902403 
L 177.254118 120.802077 
L 177.733953 120.710196 
L 178.213788 120.621274 
L 178.693623 120.53529 
L 179.173458 120.452228 
L 179.649483 120.372694 
L 180.125507 120.295998 
L 180.601531 120.222123 
L 181.077556 120.151051 
L 181.543693 120.084153 
L 182.009831 120.019909 
L 182.876192 119.907496 
L 183.742554 119.804082 
L 184.23547 119.74922 
L 184.728387 119.697215 
L 185.221304 119.648048 
L 185.71422 119.601699 
L 186.214535 119.557516 
L 186.71485 119.516195 
L 187.215165 119.477714 
L 187.71548 119.442053 
L 188.328134 119.402195 
L 188.940787 119.366496 
L 189.562531 119.334479 
L 190.184274 119.306666 
L 190.806018 119.283017 
L 191.427762 119.26349 
L 192.03938 119.248266 
L 192.650998 119.236955 
L 193.084092 119.231292 
L 193.789104 119.226193 
L 194.494116 119.226149 
L 195.199128 119.2311 
L 195.90414 119.240989 
L 196.753165 119.259369 
L 197.56514 119.283472 
L 198.377114 119.313864 
L 198.991123 119.340968 
L 199.605132 119.371578 
L 200.219141 119.405657 
L 200.83315 119.443165 
L 201.604829 119.495109 
L 202.376508 119.552332 
L 203.095077 119.610296 
L 203.667828 119.659687 
L 204.240579 119.711874 
L 204.81333 119.766824 
L 205.386081 119.824507 
L 205.95011 119.883952 
L 206.514138 119.945986 
L 207.409295 120.049683 
L 208.304453 120.159708 
L 209.037522 120.25444 
L 209.982068 120.382533 
L 210.926614 120.517288 
L 211.607289 120.618449 
L 212.287963 120.722946 
L 213.054785 120.844595 
L 213.821607 120.970335 
L 214.991666 121.169907 
L 216.161726 121.37856 
L 216.808521 121.4977 
L 217.455315 121.619488 
L 218.451401 121.81212 
L 219.447487 122.010761 
L 220.31282 122.188076 
L 221.178152 122.369692 
L 222.387112 122.630428 
L 223.349954 122.843743 
L 224.312796 123.061915 
L 225.394721 123.312679 
L 226.475103 123.568806 
L 227.555485 123.830439 
L 228.347286 124.025563 
L 229.545082 124.325957 
L 230.742877 124.632384 
L 232.103143 124.987328 
L 233.225398 125.285449 
L 234.235938 125.55777 
L 235.246477 125.833586 
L 235.934688 126.023338 
L 237.245257 126.388753 
L 238.555826 126.759185 
L 240.455 127.304123 
L 240.756391 127.391423 
L 242.178264 127.806062 
L 243.600137 128.224943 
L 244.098891 128.372791 
L 245.924934 128.91771 
L 246.93357 129.220874 
L 249.19864 129.90626 
L 250.215565 130.215633 
L 252.03094 130.769748 
L 254.736338 131.598008 
L 255.629568 131.871638 
L 257.093962 132.319932 
L 258.887316 132.867739 
L 260.995538 133.508822 
L 261.492565 133.659345 
L 263.594574 134.292622 
L 264.934233 134.692925 
L 266.149859 135.053539 
L 267.365484 135.411345 
L 267.616838 135.48495 
L 269.471976 136.023837 
L 270.59384 136.345689 
L 271.796849 136.687121 
L 272.999858 137.02444 
L 274.063099 137.318912 
L 275.12634 137.609744 
L 275.948857 137.832106 
L 276.945467 138.098319 
L 277.942076 138.360857 
L 279.283508 138.708137 
L 280.433338 138.99997 
L 281.583168 139.286141 
L 282.06722 139.404858 
L 283.044887 139.641363 
L 284.022554 139.873358 
L 284.868322 140.070296 
L 285.878973 140.300907 
L 286.889624 140.526216 
L 288.128573 140.794935 
L 289.367522 141.055109 
L 289.71047 141.125575 
L 290.408584 141.26689 
L 291.106698 141.405308 
L 291.804812 141.540771 
L 292.502926 141.673222 
L 293.126583 141.788954 
L 293.75024 141.902197 
L 294.497824 142.034604 
L 295.245408 142.163308 
L 296.143449 142.312918 
L 297.041491 142.456961 
L 298.051985 142.612235 
L 298.722781 142.711248 
L 299.393578 142.806962 
L 300.037756 142.895726 
L 300.681934 142.981356 
L 301.280591 143.058085 
L 301.879248 143.132034 
L 302.477905 143.203166 
L 303.076562 143.271446 
L 304.080535 143.379452 
L 304.885738 143.46009 
L 305.690941 143.535308 
L 306.540551 143.6087 
L 307.390161 143.675858 
L 307.980457 143.718793 
L 308.570753 143.758636 
L 309.436811 143.811421 
L 310.302868 143.857365 
L 311.142316 143.895267 
L 311.981764 143.926542 
L 312.659465 143.946888 
L 313.337165 143.962799 
L 313.865205 143.972089 
L 314.393245 143.978629 
L 314.921284 143.982397 
L 315.449324 143.983366 
L 315.940886 143.981732 
L 316.432449 143.977633 
L 316.924011 143.971047 
L 317.415574 143.961957 
L 318.207642 143.941987 
L 318.999711 143.915378 
L 319.528487 143.893878 
L 320.057262 143.869356 
L 320.735385 143.833449 
L 321.413507 143.792481 
L 322.316964 143.729949 
L 323.220421 143.658218 
L 323.855367 143.602237 
L 324.490313 143.541609 
L 325.125259 143.476292 
L 325.760205 143.406243 
L 326.06565 143.370847 
L 326.709485 143.292598 
L 327.35332 143.209374 
L 327.997154 143.121131 
L 328.640989 143.027824 
L 329.456369 142.90232 
L 330.19141 142.782085 
L 330.926451 142.655051 
L 331.407119 142.568272 
L 331.887788 142.47854 
L 332.368456 142.385834 
L 332.849125 142.290138 
L 333.447518 142.166798 
L 334.04591 142.038757 
L 334.676541 141.898693 
L 335.307171 141.753328 
L 335.937801 141.60262 
L 336.568431 141.446527 
L 337.383474 141.236743 
L 338.198518 141.017804 
L 338.685226 140.88266 
L 339.171933 140.744201 
L 339.658641 140.602406 
L 340.145349 140.457257 
L 340.333555 140.400225 
L 340.74538 140.273666 
L 341.157204 140.144674 
L 341.569029 140.013239 
L 341.980853 139.879347 
L 342.429172 139.730786 
L 342.877491 139.579285 
L 343.32581 139.424831 
L 343.774129 139.267407 
L 344.259667 139.093547 
L 344.745206 138.916168 
L 345.230745 138.73525 
L 345.716284 138.550775 
L 346.15039 138.382814 
L 346.584496 138.21198 
L 347.199251 137.965114 
L 347.814006 137.712421 
L 348.428762 137.453862 
L 349.043517 137.189398 
L 349.565095 136.96036 
L 350.086674 136.727021 
L 350.608252 136.489355 
L 351.12983 136.247341 
L 351.550141 136.049134 
L 351.970453 135.848074 
L 352.390064 135.644493 
L 352.809675 135.438044 
L 353.229287 135.228716 
L 353.648898 135.016496 
L 354.113179 134.778299 
L 354.57746 134.53653 
L 355.112386 134.253523 
L 355.647313 133.965726 
L 356.182239 133.673114 
L 356.717165 133.375661 
L 357.117465 133.149888 
L 357.517765 132.921378 
L 357.918064 132.690123 
L 358.318364 132.45611 
L 359.015916 132.041705 
L 359.713468 131.618838 
L 360.161021 131.343042 
L 360.608575 131.063725 
L 361.056129 130.780871 
L 361.503682 130.494466 
L 361.9406 130.211427 
L 362.377518 129.924975 
L 363.093346 129.448252 
L 363.809174 128.96227 
L 364.525002 128.466968 
L 365.24083 127.962285 
L 365.614386 127.69517 
L 365.987941 127.425474 
L 366.361497 127.15319 
L 366.735052 126.878309 
L 367.306726 126.452592 
L 367.8784 126.020741 
L 368.479186 125.560251 
L 369.079973 125.092916 
L 369.680759 124.618698 
L 370.281545 124.137561 
L 370.772308 123.739377 
L 371.140132 123.437885 
L 371.507957 123.133767 
L 371.875781 122.827015 
L 372.243605 122.517619 
L 372.857168 121.995618 
L 373.47073 121.466201 
L 374.084293 120.929329 
L 374.697855 120.384966 
L 375.122196 120.00408 
L 375.546536 119.61958 
L 375.970877 119.231451 
L 376.395217 118.839683 
L 376.970532 118.302692 
L 377.545846 117.758955 
L 378.172119 117.159349 
L 378.798392 116.55167 
L 379.287254 116.071685 
L 379.776116 115.586735 
L 380.264978 115.096803 
L 380.75384 114.601868 
L 381.428006 113.911084 
L 382.102172 113.210698 
L 382.54937 112.740784 
L 382.996568 112.266608 
L 383.626479 111.591437 
L 384.25639 110.907737 
L 384.886301 110.215467 
L 385.516213 109.514585 
L 385.933473 109.04555 
L 386.350734 108.572706 
L 386.767994 108.096041 
L 387.185255 107.615542 
L 387.697259 107.020684 
L 388.209264 106.420013 
L 388.721268 105.813508 
L 389.233273 105.201145 
L 389.724741 104.607813 
L 390.154404 104.084643 
L 390.584067 103.557303 
L 391.01373 103.025781 
L 391.443393 102.490064 
L 391.782238 102.064614 
L 392.121082 101.63654 
L 392.459927 101.205835 
L 392.798772 100.772494 
L 393.187403 100.272226 
L 393.576034 99.768471 
L 393.964666 99.261218 
L 394.353297 98.75046 
L 394.796448 98.163756 
L 395.2396 97.572466 
L 395.682751 96.976574 
L 396.125902 96.376066 
L 396.744282 95.530365 
L 397.362663 94.675609 
L 397.981043 93.811757 
L 398.599424 92.93877 
L 398.966243 92.416588 
L 399.333062 91.891169 
L 399.699881 91.362505 
L 400.0667 90.830589 
L 400.429267 90.301633 
L 400.791835 89.769483 
L 401.357693 88.932556 
L 401.923552 88.0878 
L 402.489411 87.235185 
L 403.055269 86.374679 
L 403.399153 85.847865 
L 403.743037 85.318119 
L 404.086922 84.785434 
L 404.430806 84.249804 
L 404.7426 83.761605 
L 405.054394 83.270975 
L 405.366188 82.777907 
L 405.677982 82.282397 
L 406.017968 81.739297 
L 406.357953 81.19328 
L 406.697938 80.64434 
L 407.037923 80.092471 
L 407.525896 79.295253 
L 408.013869 78.491968 
L 408.501843 77.682596 
L 408.989816 76.867117 
L 409.377626 76.214659 
L 409.765436 75.558323 
L 410.153246 74.898098 
L 410.541057 74.233975 
L 410.962459 73.507895 
L 411.383862 72.777188 
L 411.805264 72.041842 
L 412.226667 71.301845 
L 412.226667 292.411475 
z
" clip-path="url(#pdd8e2ba207)" style="fill: #808080; opacity: 0.5"/>
   </g>
   <g id="matplotlib.axis_1">
    <g id="xtick_1">
     <g id="line2d_1">
      <defs>
       <path id="mb69bb1242a" d="M 0 0 
L 0 3.5 
" style="stroke: #000000; stroke-width: 0.8"/>
      </defs>
      <g>
       <use xlink:href="#mb69bb1242a" x="44.798462" y="292.411475" style="stroke: #000000; stroke-width: 0.8"/>
      </g>
     </g>
     <g id="text_1">
      <!-- 1 -->
      <g transform="translate(41.617212 307.009912) scale(0.1 -0.1)">
       <defs>
        <path id="DejaVuSans-31" d="M 794 531 
L 1825 531 
L 1825 4091 
L 703 3866 
L 703 4441 
L 1819 4666 
L 2450 4666 
L 2450 531 
L 3481 531 
L 3481 0 
L 794 0 
L 794 531 
z
" transform="scale(0.015625)"/>
       </defs>
       <use xlink:href="#DejaVuSans-31"/>
      </g>
     </g>
    </g>
    <g id="xtick_2">
     <g id="line2d_2">
      <g>
       <use xlink:href="#mb69bb1242a" x="97.288205" y="292.411475" style="stroke: #000000; stroke-width: 0.8"/>
      </g>
     </g>
     <g id="text_2">
      <!-- 2 -->
      <g transform="translate(94.106955 307.009912) scale(0.1 -0.1)">
       <defs>
        <path id="DejaVuSans-32" d="M 1228 531 
L 3431 531 
L 3431 0 
L 469 0 
L 469 531 
Q 828 903 1448 1529 
Q 2069 2156 2228 2338 
Q 2531 2678 2651 2914 
Q 2772 3150 2772 3378 
Q 2772 3750 2511 3984 
Q 2250 4219 1831 4219 
Q 1534 4219 1204 4116 
Q 875 4013 500 3803 
L 500 4441 
Q 881 4594 1212 4672 
Q 1544 4750 1819 4750 
Q 2544 4750 2975 4387 
Q 3406 4025 3406 3419 
Q 3406 3131 3298 2873 
Q 3191 2616 2906 2266 
Q 2828 2175 2409 1742 
Q 1991 1309 1228 531 
z
" transform="scale(0.015625)"/>
       </defs>
       <use xlink:href="#DejaVuSans-32"/>
      </g>
     </g>
    </g>
    <g id="xtick_3">
     <g id="line2d_3">
      <g>
       <use xlink:href="#mb69bb1242a" x="149.777949" y="292.411475" style="stroke: #000000; stroke-width: 0.8"/>
      </g>
     </g>
     <g id="text_3">
      <!-- 3 -->
      <g transform="translate(146.596699 307.009912) scale(0.1 -0.1)">
       <defs>
        <path id="DejaVuSans-33" d="M 2597 2516 
Q 3050 2419 3304 2112 
Q 3559 1806 3559 1356 
Q 3559 666 3084 287 
Q 2609 -91 1734 -91 
Q 1441 -91 1130 -33 
Q 819 25 488 141 
L 488 750 
Q 750 597 1062 519 
Q 1375 441 1716 441 
Q 2309 441 2620 675 
Q 2931 909 2931 1356 
Q 2931 1769 2642 2001 
Q 2353 2234 1838 2234 
L 1294 2234 
L 1294 2753 
L 1863 2753 
Q 2328 2753 2575 2939 
Q 2822 3125 2822 3475 
Q 2822 3834 2567 4026 
Q 2313 4219 1838 4219 
Q 1578 4219 1281 4162 
Q 984 4106 628 3988 
L 628 4550 
Q 988 4650 1302 4700 
Q 1616 4750 1894 4750 
Q 2613 4750 3031 4423 
Q 3450 4097 3450 3541 
Q 3450 3153 3228 2886 
Q 3006 2619 2597 2516 
z
" transform="scale(0.015625)"/>
       </defs>
       <use xlink:href="#DejaVuSans-33"/>
      </g>
     </g>
    </g>
    <g id="xtick_4">
     <g id="line2d_4">
      <g>
       <use xlink:href="#mb69bb1242a" x="202.267692" y="292.411475" style="stroke: #000000; stroke-width: 0.8"/>
      </g>
     </g>
     <g id="text_4">
      <!-- 4 -->
      <g transform="translate(199.086442 307.009912) scale(0.1 -0.1)">
       <defs>
        <path id="DejaVuSans-34" d="M 2419 4116 
L 825 1625 
L 2419 1625 
L 2419 4116 
z
M 2253 4666 
L 3047 4666 
L 3047 1625 
L 3713 1625 
L 3713 1100 
L 3047 1100 
L 3047 0 
L 2419 0 
L 2419 1100 
L 313 1100 
L 313 1709 
L 2253 4666 
z
" transform="scale(0.015625)"/>
       </defs>
       <use xlink:href="#DejaVuSans-34"/>
      </g>
     </g>
    </g>
    <g id="xtick_5">
     <g id="line2d_5">
      <g>
       <use xlink:href="#mb69bb1242a" x="254.757436" y="292.411475" style="stroke: #000000; stroke-width: 0.8"/>
      </g>
     </g>
     <g id="text_5">
      <!-- 5 -->
      <g transform="translate(251.576186 307.009912) scale(0.1 -0.1)">
       <defs>
        <path id="DejaVuSans-35" d="M 691 4666 
L 3169 4666 
L 3169 4134 
L 1269 4134 
L 1269 2991 
Q 1406 3038 1543 3061 
Q 1681 3084 1819 3084 
Q 2600 3084 3056 2656 
Q 3513 2228 3513 1497 
Q 3513 744 3044 326 
Q 2575 -91 1722 -91 
Q 1428 -91 1123 -41 
Q 819 9 494 109 
L 494 744 
Q 775 591 1075 516 
Q 1375 441 1709 441 
Q 2250 441 2565 725 
Q 2881 1009 2881 1497 
Q 2881 1984 2565 2268 
Q 2250 2553 1709 2553 
Q 1456 2553 1204 2497 
Q 953 2441 691 2322 
L 691 4666 
z
" transform="scale(0.015625)"/>
       </defs>
       <use xlink:href="#DejaVuSans-35"/>
      </g>
     </g>
    </g>
    <g id="xtick_6">
     <g id="line2d_6">
      <g>
       <use xlink:href="#mb69bb1242a" x="307.247179" y="292.411475" style="stroke: #000000; stroke-width: 0.8"/>
      </g>
     </g>
     <g id="text_6">
      <!-- 6 -->
      <g transform="translate(304.065929 307.009912) scale(0.1 -0.1)">
       <defs>
        <path id="DejaVuSans-36" d="M 2113 2584 
Q 1688 2584 1439 2293 
Q 1191 2003 1191 1497 
Q 1191 994 1439 701 
Q 1688 409 2113 409 
Q 2538 409 2786 701 
Q 3034 994 3034 1497 
Q 3034 2003 2786 2293 
Q 2538 2584 2113 2584 
z
M 3366 4563 
L 3366 3988 
Q 3128 4100 2886 4159 
Q 2644 4219 2406 4219 
Q 1781 4219 1451 3797 
Q 1122 3375 1075 2522 
Q 1259 2794 1537 2939 
Q 1816 3084 2150 3084 
Q 2853 3084 3261 2657 
Q 3669 2231 3669 1497 
Q 3669 778 3244 343 
Q 2819 -91 2113 -91 
Q 1303 -91 875 529 
Q 447 1150 447 2328 
Q 447 3434 972 4092 
Q 1497 4750 2381 4750 
Q 2619 4750 2861 4703 
Q 3103 4656 3366 4563 
z
" transform="scale(0.015625)"/>
       </defs>
       <use xlink:href="#DejaVuSans-36"/>
      </g>
     </g>
    </g>
    <g id="xtick_7">
     <g id="line2d_7">
      <g>
       <use xlink:href="#mb69bb1242a" x="359.736923" y="292.411475" style="stroke: #000000; stroke-width: 0.8"/>
      </g>
     </g>
     <g id="text_7">
      <!-- 7 -->
      <g transform="translate(356.555673 307.009912) scale(0.1 -0.1)">
       <defs>
        <path id="DejaVuSans-37" d="M 525 4666 
L 3525 4666 
L 3525 4397 
L 1831 0 
L 1172 0 
L 2766 4134 
L 525 4134 
L 525 4666 
z
" transform="scale(0.015625)"/>
       </defs>
       <use xlink:href="#DejaVuSans-37"/>
      </g>
     </g>
    </g>
    <g id="xtick_8">
     <g id="line2d_8">
      <g>
       <use xlink:href="#mb69bb1242a" x="412.226667" y="292.411475" style="stroke: #000000; stroke-width: 0.8"/>
      </g>
     </g>
     <g id="text_8">
      <!-- 8 -->
      <g transform="translate(409.045417 307.009912) scale(0.1 -0.1)">
       <defs>
        <path id="DejaVuSans-38" d="M 2034 2216 
Q 1584 2216 1326 1975 
Q 1069 1734 1069 1313 
Q 1069 891 1326 650 
Q 1584 409 2034 409 
Q 2484 409 2743 651 
Q 3003 894 3003 1313 
Q 3003 1734 2745 1975 
Q 2488 2216 2034 2216 
z
M 1403 2484 
Q 997 2584 770 2862 
Q 544 3141 544 3541 
Q 544 4100 942 4425 
Q 1341 4750 2034 4750 
Q 2731 4750 3128 4425 
Q 3525 4100 3525 3541 
Q 3525 3141 3298 2862 
Q 3072 2584 2669 2484 
Q 3125 2378 3379 2068 
Q 3634 1759 3634 1313 
Q 3634 634 3220 271 
Q 2806 -91 2034 -91 
Q 1263 -91 848 271 
Q 434 634 434 1313 
Q 434 1759 690 2068 
Q 947 2378 1403 2484 
z
M 1172 3481 
Q 1172 3119 1398 2916 
Q 1625 2713 2034 2713 
Q 2441 2713 2670 2916 
Q 2900 3119 2900 3481 
Q 2900 3844 2670 4047 
Q 2441 4250 2034 4250 
Q 1625 4250 1398 4047 
Q 1172 3844 1172 3481 
z
" transform="scale(0.015625)"/>
       </defs>
       <use xlink:href="#DejaVuSans-38"/>
      </g>
     </g>
    </g>
    <g id="xtick_9">
     <g id="line2d_9">
      <defs>
       <path id="mf8284be537" d="M 0 0 
L 0 2 
" style="stroke: #000000; stroke-width: 0.6"/>
      </defs>
      <g>
       <use xlink:href="#mf8284be537" x="55.29641" y="292.411475" style="stroke: #000000; stroke-width: 0.6"/>
      </g>
     </g>
    </g>
    <g id="xtick_10">
     <g id="line2d_10">
      <g>
       <use xlink:href="#mf8284be537" x="65.794359" y="292.411475" style="stroke: #000000; stroke-width: 0.6"/>
      </g>
     </g>
    </g>
    <g id="xtick_11">
     <g id="line2d_11">
      <g>
       <use xlink:href="#mf8284be537" x="76.292308" y="292.411475" style="stroke: #000000; stroke-width: 0.6"/>
      </g>
     </g>
    </g>
    <g id="xtick_12">
     <g id="line2d_12">
      <g>
       <use xlink:href="#mf8284be537" x="86.790256" y="292.411475" style="stroke: #000000; stroke-width: 0.6"/>
      </g>
     </g>
    </g>
    <g id="xtick_13">
     <g id="line2d_13">
      <g>
       <use xlink:href="#mf8284be537" x="107.786154" y="292.411475" style="stroke: #000000; stroke-width: 0.6"/>
      </g>
     </g>
    </g>
    <g id="xtick_14">
     <g id="line2d_14">
      <g>
       <use xlink:href="#mf8284be537" x="118.284103" y="292.411475" style="stroke: #000000; stroke-width: 0.6"/>
      </g>
     </g>
    </g>
    <g id="xtick_15">
     <g id="line2d_15">
      <g>
       <use xlink:href="#mf8284be537" x="128.782051" y="292.411475" style="stroke: #000000; stroke-width: 0.6"/>
      </g>
     </g>
    </g>
    <g id="xtick_16">
     <g id="line2d_16">
      <g>
       <use xlink:href="#mf8284be537" x="139.28" y="292.411475" style="stroke: #000000; stroke-width: 0.6"/>
      </g>
     </g>
    </g>
    <g id="xtick_17">
     <g id="line2d_17">
      <g>
       <use xlink:href="#mf8284be537" x="160.275897" y="292.411475" style="stroke: #000000; stroke-width: 0.6"/>
      </g>
     </g>
    </g>
    <g id="xtick_18">
     <g id="line2d_18">
      <g>
       <use xlink:href="#mf8284be537" x="170.773846" y="292.411475" style="stroke: #000000; stroke-width: 0.6"/>
      </g>
     </g>
    </g>
    <g id="xtick_19">
     <g id="line2d_19">
      <g>
       <use xlink:href="#mf8284be537" x="181.271795" y="292.411475" style="stroke: #000000; stroke-width: 0.6"/>
      </g>
     </g>
    </g>
    <g id="xtick_20">
     <g id="line2d_20">
      <g>
       <use xlink:href="#mf8284be537" x="191.769744" y="292.411475" style="stroke: #000000; stroke-width: 0.6"/>
      </g>
     </g>
    </g>
    <g id="xtick_21">
     <g id="line2d_21">
      <g>
       <use xlink:href="#mf8284be537" x="212.765641" y="292.411475" style="stroke: #000000; stroke-width: 0.6"/>
      </g>
     </g>
    </g>
    <g id="xtick_22">
     <g id="line2d_22">
      <g>
       <use xlink:href="#mf8284be537" x="223.26359" y="292.411475" style="stroke: #000000; stroke-width: 0.6"/>
      </g>
     </g>
    </g>
    <g id="xtick_23">
     <g id="line2d_23">
      <g>
       <use xlink:href="#mf8284be537" x="233.761538" y="292.411475" style="stroke: #000000; stroke-width: 0.6"/>
      </g>
     </g>
    </g>
    <g id="xtick_24">
     <g id="line2d_24">
      <g>
       <use xlink:href="#mf8284be537" x="244.259487" y="292.411475" style="stroke: #000000; stroke-width: 0.6"/>
      </g>
     </g>
    </g>
    <g id="xtick_25">
     <g id="line2d_25">
      <g>
       <use xlink:href="#mf8284be537" x="265.255385" y="292.411475" style="stroke: #000000; stroke-width: 0.6"/>
      </g>
     </g>
    </g>
    <g id="xtick_26">
     <g id="line2d_26">
      <g>
       <use xlink:href="#mf8284be537" x="275.753333" y="292.411475" style="stroke: #000000; stroke-width: 0.6"/>
      </g>
     </g>
    </g>
    <g id="xtick_27">
     <g id="line2d_27">
      <g>
       <use xlink:href="#mf8284be537" x="286.251282" y="292.411475" style="stroke: #000000; stroke-width: 0.6"/>
      </g>
     </g>
    </g>
    <g id="xtick_28">
     <g id="line2d_28">
      <g>
       <use xlink:href="#mf8284be537" x="296.749231" y="292.411475" style="stroke: #000000; stroke-width: 0.6"/>
      </g>
     </g>
    </g>
    <g id="xtick_29">
     <g id="line2d_29">
      <g>
       <use xlink:href="#mf8284be537" x="317.745128" y="292.411475" style="stroke: #000000; stroke-width: 0.6"/>
      </g>
     </g>
    </g>
    <g id="xtick_30">
     <g id="line2d_30">
      <g>
       <use xlink:href="#mf8284be537" x="328.243077" y="292.411475" style="stroke: #000000; stroke-width: 0.6"/>
      </g>
     </g>
    </g>
    <g id="xtick_31">
     <g id="line2d_31">
      <g>
       <use xlink:href="#mf8284be537" x="338.741026" y="292.411475" style="stroke: #000000; stroke-width: 0.6"/>
      </g>
     </g>
    </g>
    <g id="xtick_32">
     <g id="line2d_32">
      <g>
       <use xlink:href="#mf8284be537" x="349.238974" y="292.411475" style="stroke: #000000; stroke-width: 0.6"/>
      </g>
     </g>
    </g>
    <g id="xtick_33">
     <g id="line2d_33">
      <g>
       <use xlink:href="#mf8284be537" x="370.234872" y="292.411475" style="stroke: #000000; stroke-width: 0.6"/>
      </g>
     </g>
    </g>
    <g id="xtick_34">
     <g id="line2d_34">
      <g>
       <use xlink:href="#mf8284be537" x="380.732821" y="292.411475" style="stroke: #000000; stroke-width: 0.6"/>
      </g>
     </g>
    </g>
    <g id="xtick_35">
     <g id="line2d_35">
      <g>
       <use xlink:href="#mf8284be537" x="391.230769" y="292.411475" style="stroke: #000000; stroke-width: 0.6"/>
      </g>
     </g>
    </g>
    <g id="xtick_36">
     <g id="line2d_36">
      <g>
       <use xlink:href="#mf8284be537" x="401.728718" y="292.411475" style="stroke: #000000; stroke-width: 0.6"/>
      </g>
     </g>
    </g>
    <g id="xtick_37">
     <g id="line2d_37">
      <g>
       <use xlink:href="#mf8284be537" x="422.724615" y="292.411475" style="stroke: #000000; stroke-width: 0.6"/>
      </g>
     </g>
    </g>
    <g id="xtick_38">
     <g id="line2d_38">
      <g>
       <use xlink:href="#mf8284be537" x="433.222564" y="292.411475" style="stroke: #000000; stroke-width: 0.6"/>
      </g>
     </g>
    </g>
    <g id="xtick_39">
     <g id="line2d_39">
      <g>
       <use xlink:href="#mf8284be537" x="443.720513" y="292.411475" style="stroke: #000000; stroke-width: 0.6"/>
      </g>
     </g>
    </g>
   </g>
   <g id="matplotlib.axis_2">
    <g id="ytick_1">
     <g id="line2d_40">
      <defs>
       <path id="m03e554df51" d="M 0 0 
L -3.5 0 
" style="stroke: #000000; stroke-width: 0.8"/>
      </defs>
      <g>
       <use xlink:href="#m03e554df51" x="26.925" y="292.411475" style="stroke: #000000; stroke-width: 0.8"/>
      </g>
     </g>
     <g id="text_9">
      <!-- 0 -->
      <g transform="translate(13.5625 296.210694) scale(0.1 -0.1)">
       <defs>
        <path id="DejaVuSans-30" d="M 2034 4250 
Q 1547 4250 1301 3770 
Q 1056 3291 1056 2328 
Q 1056 1369 1301 889 
Q 1547 409 2034 409 
Q 2525 409 2770 889 
Q 3016 1369 3016 2328 
Q 3016 3291 2770 3770 
Q 2525 4250 2034 4250 
z
M 2034 4750 
Q 2819 4750 3233 4129 
Q 3647 3509 3647 2328 
Q 3647 1150 3233 529 
Q 2819 -91 2034 -91 
Q 1250 -91 836 529 
Q 422 1150 422 2328 
Q 422 3509 836 4129 
Q 1250 4750 2034 4750 
z
" transform="scale(0.015625)"/>
       </defs>
       <use xlink:href="#DejaVuSans-30"/>
      </g>
     </g>
    </g>
    <g id="ytick_2">
     <g id="line2d_41">
      <g>
       <use xlink:href="#m03e554df51" x="26.925" y="252.209724" style="stroke: #000000; stroke-width: 0.8"/>
      </g>
     </g>
     <g id="text_10">
      <!-- 10 -->
      <g transform="translate(7.2 256.008943) scale(0.1 -0.1)">
       <use xlink:href="#DejaVuSans-31"/>
       <use xlink:href="#DejaVuSans-30" x="63.623047"/>
      </g>
     </g>
    </g>
    <g id="ytick_3">
     <g id="line2d_42">
      <g>
       <use xlink:href="#m03e554df51" x="26.925" y="212.007973" style="stroke: #000000; stroke-width: 0.8"/>
      </g>
     </g>
     <g id="text_11">
      <!-- 20 -->
      <g transform="translate(7.2 215.807192) scale(0.1 -0.1)">
       <use xlink:href="#DejaVuSans-32"/>
       <use xlink:href="#DejaVuSans-30" x="63.623047"/>
      </g>
     </g>
    </g>
    <g id="ytick_4">
     <g id="line2d_43">
      <g>
       <use xlink:href="#m03e554df51" x="26.925" y="171.806222" style="stroke: #000000; stroke-width: 0.8"/>
      </g>
     </g>
     <g id="text_12">
      <!-- 30 -->
      <g transform="translate(7.2 175.605441) scale(0.1 -0.1)">
       <use xlink:href="#DejaVuSans-33"/>
       <use xlink:href="#DejaVuSans-30" x="63.623047"/>
      </g>
     </g>
    </g>
    <g id="ytick_5">
     <g id="line2d_44">
      <g>
       <use xlink:href="#m03e554df51" x="26.925" y="131.604471" style="stroke: #000000; stroke-width: 0.8"/>
      </g>
     </g>
     <g id="text_13">
      <!-- 40 -->
      <g transform="translate(7.2 135.40369) scale(0.1 -0.1)">
       <use xlink:href="#DejaVuSans-34"/>
       <use xlink:href="#DejaVuSans-30" x="63.623047"/>
      </g>
     </g>
    </g>
    <g id="ytick_6">
     <g id="line2d_45">
      <g>
       <use xlink:href="#m03e554df51" x="26.925" y="91.40272" style="stroke: #000000; stroke-width: 0.8"/>
      </g>
     </g>
     <g id="text_14">
      <!-- 50 -->
      <g transform="translate(7.2 95.201939) scale(0.1 -0.1)">
       <use xlink:href="#DejaVuSans-35"/>
       <use xlink:href="#DejaVuSans-30" x="63.623047"/>
      </g>
     </g>
    </g>
    <g id="ytick_7">
     <g id="line2d_46">
      <g>
       <use xlink:href="#m03e554df51" x="26.925" y="51.20097" style="stroke: #000000; stroke-width: 0.8"/>
      </g>
     </g>
     <g id="text_15">
      <!-- 60 -->
      <g transform="translate(7.2 55.000188) scale(0.1 -0.1)">
       <use xlink:href="#DejaVuSans-36"/>
       <use xlink:href="#DejaVuSans-30" x="63.623047"/>
      </g>
     </g>
    </g>
    <g id="ytick_8">
     <g id="line2d_47">
      <g>
       <use xlink:href="#m03e554df51" x="26.925" y="10.999219" style="stroke: #000000; stroke-width: 0.8"/>
      </g>
     </g>
     <g id="text_16">
      <!-- 70 -->
      <g transform="translate(7.2 14.798437) scale(0.1 -0.1)">
       <use xlink:href="#DejaVuSans-37"/>
       <use xlink:href="#DejaVuSans-30" x="63.623047"/>
      </g>
     </g>
    </g>
    <g id="ytick_9">
     <g id="line2d_48">
      <defs>
       <path id="m05026c7ae4" d="M 0 0 
L -2 0 
" style="stroke: #000000; stroke-width: 0.6"/>
      </defs>
      <g>
       <use xlink:href="#m05026c7ae4" x="26.925" y="324.572875" style="stroke: #000000; stroke-width: 0.6"/>
      </g>
     </g>
    </g>
    <g id="ytick_10">
     <g id="line2d_49">
      <g>
       <use xlink:href="#m05026c7ae4" x="26.925" y="316.532525" style="stroke: #000000; stroke-width: 0.6"/>
      </g>
     </g>
    </g>
    <g id="ytick_11">
     <g id="line2d_50">
      <g>
       <use xlink:href="#m05026c7ae4" x="26.925" y="308.492175" style="stroke: #000000; stroke-width: 0.6"/>
      </g>
     </g>
    </g>
    <g id="ytick_12">
     <g id="line2d_51">
      <g>
       <use xlink:href="#m05026c7ae4" x="26.925" y="300.451825" style="stroke: #000000; stroke-width: 0.6"/>
      </g>
     </g>
    </g>
    <g id="ytick_13">
     <g id="line2d_52">
      <g>
       <use xlink:href="#m05026c7ae4" x="26.925" y="284.371125" style="stroke: #000000; stroke-width: 0.6"/>
      </g>
     </g>
    </g>
    <g id="ytick_14">
     <g id="line2d_53">
      <g>
       <use xlink:href="#m05026c7ae4" x="26.925" y="276.330774" style="stroke: #000000; stroke-width: 0.6"/>
      </g>
     </g>
    </g>
    <g id="ytick_15">
     <g id="line2d_54">
      <g>
       <use xlink:href="#m05026c7ae4" x="26.925" y="268.290424" style="stroke: #000000; stroke-width: 0.6"/>
      </g>
     </g>
    </g>
    <g id="ytick_16">
     <g id="line2d_55">
      <g>
       <use xlink:href="#m05026c7ae4" x="26.925" y="260.250074" style="stroke: #000000; stroke-width: 0.6"/>
      </g>
     </g>
    </g>
    <g id="ytick_17">
     <g id="line2d_56">
      <g>
       <use xlink:href="#m05026c7ae4" x="26.925" y="244.169374" style="stroke: #000000; stroke-width: 0.6"/>
      </g>
     </g>
    </g>
    <g id="ytick_18">
     <g id="line2d_57">
      <g>
       <use xlink:href="#m05026c7ae4" x="26.925" y="236.129024" style="stroke: #000000; stroke-width: 0.6"/>
      </g>
     </g>
    </g>
    <g id="ytick_19">
     <g id="line2d_58">
      <g>
       <use xlink:href="#m05026c7ae4" x="26.925" y="228.088673" style="stroke: #000000; stroke-width: 0.6"/>
      </g>
     </g>
    </g>
    <g id="ytick_20">
     <g id="line2d_59">
      <g>
       <use xlink:href="#m05026c7ae4" x="26.925" y="220.048323" style="stroke: #000000; stroke-width: 0.6"/>
      </g>
     </g>
    </g>
    <g id="ytick_21">
     <g id="line2d_60">
      <g>
       <use xlink:href="#m05026c7ae4" x="26.925" y="203.967623" style="stroke: #000000; stroke-width: 0.6"/>
      </g>
     </g>
    </g>
    <g id="ytick_22">
     <g id="line2d_61">
      <g>
       <use xlink:href="#m05026c7ae4" x="26.925" y="195.927273" style="stroke: #000000; stroke-width: 0.6"/>
      </g>
     </g>
    </g>
    <g id="ytick_23">
     <g id="line2d_62">
      <g>
       <use xlink:href="#m05026c7ae4" x="26.925" y="187.886923" style="stroke: #000000; stroke-width: 0.6"/>
      </g>
     </g>
    </g>
    <g id="ytick_24">
     <g id="line2d_63">
      <g>
       <use xlink:href="#m05026c7ae4" x="26.925" y="179.846572" style="stroke: #000000; stroke-width: 0.6"/>
      </g>
     </g>
    </g>
    <g id="ytick_25">
     <g id="line2d_64">
      <g>
       <use xlink:href="#m05026c7ae4" x="26.925" y="163.765872" style="stroke: #000000; stroke-width: 0.6"/>
      </g>
     </g>
    </g>
    <g id="ytick_26">
     <g id="line2d_65">
      <g>
       <use xlink:href="#m05026c7ae4" x="26.925" y="155.725522" style="stroke: #000000; stroke-width: 0.6"/>
      </g>
     </g>
    </g>
    <g id="ytick_27">
     <g id="line2d_66">
      <g>
       <use xlink:href="#m05026c7ae4" x="26.925" y="147.685172" style="stroke: #000000; stroke-width: 0.6"/>
      </g>
     </g>
    </g>
    <g id="ytick_28">
     <g id="line2d_67">
      <g>
       <use xlink:href="#m05026c7ae4" x="26.925" y="139.644822" style="stroke: #000000; stroke-width: 0.6"/>
      </g>
     </g>
    </g>
    <g id="ytick_29">
     <g id="line2d_68">
      <g>
       <use xlink:href="#m05026c7ae4" x="26.925" y="123.564121" style="stroke: #000000; stroke-width: 0.6"/>
      </g>
     </g>
    </g>
    <g id="ytick_30">
     <g id="line2d_69">
      <g>
       <use xlink:href="#m05026c7ae4" x="26.925" y="115.523771" style="stroke: #000000; stroke-width: 0.6"/>
      </g>
     </g>
    </g>
    <g id="ytick_31">
     <g id="line2d_70">
      <g>
       <use xlink:href="#m05026c7ae4" x="26.925" y="107.483421" style="stroke: #000000; stroke-width: 0.6"/>
      </g>
     </g>
    </g>
    <g id="ytick_32">
     <g id="line2d_71">
      <g>
       <use xlink:href="#m05026c7ae4" x="26.925" y="99.443071" style="stroke: #000000; stroke-width: 0.6"/>
      </g>
     </g>
    </g>
    <g id="ytick_33">
     <g id="line2d_72">
      <g>
       <use xlink:href="#m05026c7ae4" x="26.925" y="83.36237" style="stroke: #000000; stroke-width: 0.6"/>
      </g>
     </g>
    </g>
    <g id="ytick_34">
     <g id="line2d_73">
      <g>
       <use xlink:href="#m05026c7ae4" x="26.925" y="75.32202" style="stroke: #000000; stroke-width: 0.6"/>
      </g>
     </g>
    </g>
    <g id="ytick_35">
     <g id="line2d_74">
      <g>
       <use xlink:href="#m05026c7ae4" x="26.925" y="67.28167" style="stroke: #000000; stroke-width: 0.6"/>
      </g>
     </g>
    </g>
    <g id="ytick_36">
     <g id="line2d_75">
      <g>
       <use xlink:href="#m05026c7ae4" x="26.925" y="59.24132" style="stroke: #000000; stroke-width: 0.6"/>
      </g>
     </g>
    </g>
    <g id="ytick_37">
     <g id="line2d_76">
      <g>
       <use xlink:href="#m05026c7ae4" x="26.925" y="43.160619" style="stroke: #000000; stroke-width: 0.6"/>
      </g>
     </g>
    </g>
    <g id="ytick_38">
     <g id="line2d_77">
      <g>
       <use xlink:href="#m05026c7ae4" x="26.925" y="35.120269" style="stroke: #000000; stroke-width: 0.6"/>
      </g>
     </g>
    </g>
    <g id="ytick_39">
     <g id="line2d_78">
      <g>
       <use xlink:href="#m05026c7ae4" x="26.925" y="27.079919" style="stroke: #000000; stroke-width: 0.6"/>
      </g>
     </g>
    </g>
    <g id="ytick_40">
     <g id="line2d_79">
      <g>
       <use xlink:href="#m05026c7ae4" x="26.925" y="19.039569" style="stroke: #000000; stroke-width: 0.6"/>
      </g>
     </g>
    </g>
   </g>
   <g id="line2d_80">
    <path d="M 97.288205 292.411475 
L 97.288205 191.907098 
" clip-path="url(#pdd8e2ba207)" style="fill: none; stroke: #000000; stroke-linecap: square"/>
   </g>
   <g id="line2d_81">
    <path d="M 412.226667 292.411475 
L 412.226667 71.301845 
" clip-path="url(#pdd8e2ba207)" style="fill: none; stroke: #000000; stroke-linecap: square"/>
   </g>
   <g id="line2d_82">
    <path d="M 97.288205 191.907098 
L 101.692609 184.400834 
L 105.758791 177.910974 
L 109.831702 171.822282 
L 113.768401 166.318431 
L 117.647631 161.251469 
L 121.572643 156.474924 
L 125.452591 152.08961 
L 129.205879 148.156496 
L 133.19215 144.302071 
L 137.312594 140.656429 
L 140.994966 137.680149 
L 145.051656 134.698853 
L 148.967175 132.107017 
L 153.029027 129.704057 
L 157.086913 127.582976 
L 161.148616 125.728523 
L 165.191391 124.138507 
L 169.395652 122.743808 
L 173.835229 121.54398 
L 177.733953 120.710196 
L 182.009831 120.019909 
L 186.71485 119.516195 
L 191.427762 119.26349 
L 195.90414 119.240989 
L 200.83315 119.443165 
L 205.95011 119.883952 
L 210.926614 120.517288 
L 216.808521 121.4977 
L 222.387112 122.630428 
L 229.545082 124.325957 
L 237.245257 126.388753 
L 246.93357 129.220874 
L 274.063099 137.318912 
L 282.06722 139.404858 
L 288.128573 140.794935 
L 294.497824 142.034604 
L 300.037756 142.895726 
L 305.690941 143.535308 
L 311.142316 143.895267 
L 315.940886 143.981732 
L 320.735385 143.833449 
L 325.125259 143.476292 
L 329.456369 142.90232 
L 333.447518 142.166798 
L 337.383474 141.236743 
L 341.569029 140.013239 
L 345.716284 138.550775 
L 349.565095 136.96036 
L 353.648898 135.016496 
L 357.517765 132.921378 
L 361.503682 130.494466 
L 365.24083 127.962285 
L 369.079973 125.092916 
L 372.857168 121.995618 
L 376.970532 118.302692 
L 380.75384 114.601868 
L 384.886301 110.215467 
L 388.721268 105.813508 
L 392.798772 100.772494 
L 396.744282 95.530365 
L 400.791835 89.769483 
L 405.054394 83.270975 
L 408.989816 76.867117 
L 412.226667 71.301845 
L 412.226667 71.301845 
" clip-path="url(#pdd8e2ba207)" style="fill: none; stroke: #0000ff; stroke-linecap: square"/>
   </g>
   <g id="line2d_83">
    <path d="M 44.798462 324.572875 
L 49.756598 308.291268 
L 54.657773 293.02291 
L 59.20686 279.569207 
L 64.047654 265.993702 
L 68.721761 253.593181 
L 73.165216 242.433394 
L 77.499914 232.123107 
L 81.95923 222.095971 
L 86.231672 213.026832 
L 90.35616 204.758643 
L 94.609448 196.720667 
L 98.876208 189.142734 
L 102.757524 182.660827 
L 106.994344 176.020873 
L 110.816858 170.410203 
L 114.807706 164.926614 
L 118.548272 160.124654 
L 122.450659 155.453619 
L 126.507978 150.953334 
L 130.303762 147.062171 
L 134.147246 143.426808 
L 137.945122 140.126524 
L 141.657543 137.172176 
L 145.360304 134.484493 
L 149.078499 132.037329 
L 153.188568 129.61546 
L 157.141529 127.556282 
L 161.256362 125.682885 
L 165.078238 124.179637 
L 169.233166 122.792956 
L 173.296293 121.675153 
L 177.449641 120.764279 
L 181.137419 120.142311 
L 185.627898 119.609614 
L 190.308828 119.301596 
L 195.113523 119.230234 
L 200.22032 119.405726 
L 205.044204 119.789749 
L 210.390104 120.439937 
L 216.322867 121.407992 
L 223.055978 122.778092 
L 230.460297 124.559564 
L 238.47383 126.735869 
L 249.562628 130.016893 
L 270.809995 136.407327 
L 279.258128 138.701633 
L 286.642052 140.471524 
L 293.274799 141.816094 
L 299.453582 142.815362 
L 305.167087 143.486993 
L 310.388551 143.861534 
L 315.124671 143.983103 
L 320.211391 143.861637 
L 324.883814 143.501684 
L 329.357354 142.918001 
L 333.812134 142.089341 
L 337.850051 141.112536 
L 342.024735 139.864936 
L 346.040899 138.425448 
L 349.994676 136.768491 
L 353.97607 134.849013 
L 358.186138 132.533714 
L 362.159018 130.068655 
L 365.718919 127.61996 
L 369.698741 124.604397 
L 373.097578 121.789064 
L 377.275187 118.015601 
L 381.147365 114.199806 
L 384.808546 110.301385 
L 388.893034 105.608728 
L 392.686316 100.916604 
L 396.644182 95.667876 
L 400.904525 89.603433 
L 405.114313 83.176409 
L 409.184139 76.54067 
L 413.157208 69.651243 
L 417.423741 61.788269 
L 421.637607 53.537638 
L 425.797324 44.908325 
L 430.131562 35.391666 
L 434.264398 25.805633 
L 438.471538 15.521916 
L 438.471538 15.521916 
" clip-path="url(#pdd8e2ba207)" style="fill: none; stroke: #0000ff; stroke-width: 2; stroke-linecap: square"/>
   </g>
   <g id="patch_4">
    <path d="M 26.925 330.753895 
L 26.925 9.340897 
" style="fill: none; stroke: #000000; stroke-width: 0.8; stroke-linejoin: miter; stroke-linecap: square"/>
   </g>
   <g id="patch_5">
    <path d="M 36.925 292.411475 
L 446.345 292.411475 
" style="fill: none; stroke: #000000; stroke-width: 0.8; stroke-linejoin: miter; stroke-linecap: square"/>
   </g>
  </g>
 </g>
 <defs>
  <clipPath id="pdd8e2ba207">
   <rect x="36.925" y="9.340897" width="409.42" height="321.412998"/>
  </clipPath>
 </defs>
</svg>
