<?xml version="1.0" encoding="utf-8" standalone="no"?>
<!DOCTYPE svg PUBLIC "-//W3C//DTD SVG 1.1//EN"
  "http://www.w3.org/Graphics/SVG/1.1/DTD/svg11.dtd">
<svg xmlns:xlink="http://www.w3.org/1999/xlink" width="453.545pt" height="337.953895pt" viewBox="0 0 453.545 337.953895" xmlns="http://www.w3.org/2000/svg" version="1.1">
 <metadata>
  <rdf:RDF xmlns:dc="http://purl.org/dc/elements/1.1/" xmlns:cc="http://creativecommons.org/ns#" xmlns:rdf="http://www.w3.org/1999/02/22-rdf-syntax-ns#">
   <cc:Work>
    <dc:type rdf:resource="http://purl.org/dc/dcmitype/StillImage"/>
    <dc:date>2022-12-21T16:30:44.040956</dc:date>
    <dc:format>image/svg+xml</dc:format>
    <dc:creator>
     <cc:Agent>
      <dc:title>Matplotlib v3.5.2, https://matplotlib.org/</dc:title>
     </cc:Agent>
    </dc:creator>
   </cc:Work>
  </rdf:RDF>
 </metadata>
 <defs>
  <style type="text/css">*{stroke-linejoin: round; stroke-linecap: butt}</style>
 </defs>
 <g id="figure_1">
  <g id="patch_1">
   <path d="M 0 337.953895 
L 453.545 337.953895 
L 453.545 0 
L 0 0 
L 0 337.953895 
z
" style="fill: none"/>
  </g>
  <g id="axes_1">
   <g id="patch_2">
    <path d="M 36.925 330.753895 
L 446.345 330.753895 
L 446.345 9.340897 
L 36.925 9.340897 
L 36.925 330.753895 
z
" style="fill: none"/>
   </g>
   <g id="patch_3">
    <path d="M 97.288205 292.411475 
L 97.288205 191.907098 
L 97.858667 190.906461 
L 98.429129 189.91434 
L 98.999591 188.930705 
L 99.570053 187.955524 
L 100.095923 187.064034 
L 100.438209 186.487601 
L 100.780495 185.914184 
L 101.122782 185.343775 
L 101.465068 184.776369 
L 101.806372 184.213574 
L 102.147677 183.65375 
L 102.488981 183.096891 
L 102.830285 182.542991 
L 103.171589 181.992042 
L 103.512893 181.444039 
L 103.854198 180.898975 
L 104.195502 180.356842 
L 104.759651 179.46715 
L 105.3238 178.58542 
L 105.834474 177.79411 
L 106.345148 177.009278 
L 106.855821 176.230901 
L 107.366495 175.458957 
L 107.75934 174.869491 
L 108.152184 174.283807 
L 108.626822 173.581214 
L 109.10146 172.884111 
L 109.576098 172.192481 
L 110.050736 171.506307 
L 110.47951 170.891111 
L 110.908284 170.28034 
L 111.337058 169.67398 
L 111.765832 169.072018 
L 112.221478 168.437135 
L 112.677124 167.807188 
L 113.025949 167.328251 
L 113.374773 166.852191 
L 113.723598 166.379 
L 114.072423 165.908671 
L 114.421247 165.441197 
L 114.770072 164.976572 
L 115.118896 164.514788 
L 115.467721 164.055837 
L 115.866439 163.534704 
L 116.265156 163.017253 
L 116.663874 162.503475 
L 117.062592 161.993359 
L 117.350225 161.62763 
L 117.843264 161.005134 
L 118.336304 160.38819 
L 118.829343 159.776777 
L 119.322383 159.170875 
L 119.832038 158.550325 
L 120.341693 157.93562 
L 120.840188 157.34001 
L 121.338682 156.749951 
L 121.837177 156.165422 
L 122.335671 155.586402 
L 122.899999 154.937536 
L 123.464327 154.295675 
L 123.844427 153.867284 
L 124.224527 153.442049 
L 124.604627 153.019959 
L 124.984728 152.601005 
L 125.364828 152.185178 
L 125.744928 151.77247 
L 126.125028 151.36287 
L 126.505128 150.95637 
L 127.101306 150.325006 
L 127.697483 149.701211 
L 128.103499 149.2807 
L 128.509516 148.863671 
L 128.915532 148.450113 
L 129.321548 148.040016 
L 129.992443 147.36993 
L 130.39555 146.971816 
L 130.798658 146.577073 
L 131.201765 146.18569 
L 131.604873 145.797655 
L 132.25442 145.179412 
L 132.903968 144.569791 
L 133.553515 143.968744 
L 134.203063 143.376226 
L 134.816974 142.824015 
L 135.430885 142.279344 
L 135.872469 141.892204 
L 136.314054 141.50893 
L 136.755638 141.129509 
L 137.197223 140.753926 
L 137.678431 140.348994 
L 138.159639 139.948584 
L 138.640847 139.552677 
L 139.122055 139.161255 
L 139.824769 138.597675 
L 140.527482 138.043562 
L 141.104008 137.595979 
L 141.680535 137.154697 
L 142.239725 136.732674 
L 142.798916 136.316518 
L 143.358107 135.906202 
L 143.917298 135.501696 
L 144.338257 135.200999 
L 144.759217 134.903565 
L 145.406585 134.4525 
L 146.053953 134.009079 
L 146.73148 133.553136 
L 147.409007 133.105465 
L 147.936962 132.762322 
L 148.464917 132.424146 
L 148.992872 132.090911 
L 149.520827 131.762594 
L 150.244307 131.320627 
L 150.967787 130.887784 
L 151.419305 130.622246 
L 151.870824 130.360222 
L 152.322342 130.101696 
L 152.773861 129.846654 
L 153.211797 129.602597 
L 153.649733 129.361788 
L 154.373482 128.970901 
L 155.097231 128.588784 
L 155.82098 128.215374 
L 156.544729 127.850608 
L 156.94713 127.651516 
L 157.349531 127.455066 
L 157.964855 127.15975 
L 158.580179 126.870547 
L 159.249531 126.562846 
L 159.918883 126.262283 
L 160.588236 125.968806 
L 161.257588 125.682367 
L 161.695088 125.498925 
L 162.132587 125.318453 
L 162.773817 125.059281 
L 163.415046 124.806417 
L 163.950047 124.600239 
L 164.485047 124.398397 
L 165.020048 124.200863 
L 165.555048 124.007614 
L 166.053645 123.831349 
L 166.552241 123.658762 
L 167.204488 123.438508 
L 167.856734 123.224466 
L 168.424572 123.043147 
L 168.99241 122.86647 
L 169.560248 122.694406 
L 170.128086 122.526924 
L 170.907147 122.304541 
L 171.686209 122.090647 
L 172.401021 121.901793 
L 173.115833 121.719957 
L 173.868939 121.535905 
L 174.622044 121.359506 
L 175.197521 121.229826 
L 175.772997 121.10454 
L 176.348473 120.983618 
L 176.923949 120.867026 
L 177.75301 120.706608 
L 178.368413 120.593246 
L 178.983817 120.484708 
L 179.567809 120.386138 
L 180.151802 120.291844 
L 180.735794 120.201794 
L 181.319787 120.115955 
L 181.823363 120.045291 
L 182.32694 119.977713 
L 182.830516 119.913197 
L 183.334093 119.851724 
L 183.858968 119.790866 
L 184.383844 119.733266 
L 185.018706 119.667915 
L 185.653567 119.607251 
L 186.223755 119.556729 
L 186.793942 119.509923 
L 187.45342 119.460381 
L 188.112898 119.415722 
L 188.772375 119.375897 
L 189.431853 119.340858 
L 189.92949 119.317558 
L 190.427127 119.296936 
L 190.924764 119.27897 
L 191.422401 119.263641 
L 192.146455 119.246005 
L 192.870508 119.233843 
L 193.700668 119.226554 
L 194.530829 119.226284 
L 195.118349 119.230281 
L 195.70967 119.237772 
L 196.30099 119.248706 
L 196.89231 119.263049 
L 197.483631 119.280767 
L 198.264227 119.309265 
L 198.923298 119.337801 
L 199.58237 119.370382 
L 200.241442 119.40696 
L 200.900514 119.447487 
L 201.599367 119.494723 
L 202.29822 119.546288 
L 203.27271 119.625313 
L 204.062434 119.695344 
L 204.852158 119.770648 
L 205.548492 119.841357 
L 206.244826 119.916045 
L 206.868216 119.986239 
L 207.491605 120.059538 
L 208.114995 120.1359 
L 208.738384 120.215285 
L 209.200071 120.276003 
L 209.827793 120.361152 
L 210.455515 120.449254 
L 211.083236 120.540267 
L 211.710958 120.634151 
L 212.516322 120.758741 
L 213.321686 120.8879 
L 213.622465 120.937292 
L 214.727661 121.124074 
L 215.832858 121.319012 
L 217.060438 121.544822 
L 217.718797 121.669849 
L 218.377156 121.797553 
L 219.257175 121.972352 
L 220.137194 122.151737 
L 221.283251 122.392038 
L 222.429309 122.639673 
L 223.415246 122.858386 
L 224.471426 123.098315 
L 225.527606 123.343878 
L 226.276813 123.521379 
L 227.026019 123.701545 
L 228.058812 123.95415 
L 229.091604 124.211504 
L 230.495552 124.568632 
L 231.532558 124.837566 
L 232.569563 125.110666 
L 233.749416 125.426215 
L 235.239886 125.831776 
L 236.752135 126.250651 
L 237.975683 126.594613 
L 238.943627 126.869704 
L 239.911571 127.147266 
L 240.965288 127.452056 
L 242.019005 127.7594 
L 242.644111 127.942856 
L 243.936185 128.32451 
L 245.502483 128.791171 
L 246.86573 129.20044 
L 249.671353 130.049962 
L 251.34743 130.560888 
L 252.014408 130.764694 
L 253.515107 131.223926 
L 255.994051 131.983267 
L 257.873079 132.558136 
L 259.28406 132.988665 
L 261.027565 133.518529 
L 261.242534 133.583657 
L 262.760059 134.041899 
L 264.121942 134.450543 
L 265.483825 134.856289 
L 266.76177 135.234018 
L 268.484368 135.737937 
L 270.251473 136.247809 
L 271.98431 136.739962 
L 273.13624 137.062409 
L 274.240543 137.367707 
L 275.240981 137.640876 
L 276.241419 137.910626 
L 277.054311 138.127174 
L 277.905345 138.351248 
L 278.75638 138.572525 
L 279.67579 138.808321 
L 280.5952 139.040603 
L 281.871309 139.356937 
L 283.147419 139.665908 
L 283.512785 139.752965 
L 284.23104 139.922232 
L 284.949294 140.088964 
L 285.681615 140.256285 
L 286.413936 140.42084 
L 287.146256 140.582564 
L 287.878577 140.74139 
L 288.713388 140.918828 
L 289.548199 141.092318 
L 289.724448 141.128432 
L 290.770979 141.339109 
L 291.817511 141.543207 
L 292.888591 141.745081 
L 293.959671 141.939659 
L 294.719535 142.073164 
L 295.406601 142.190567 
L 296.093667 142.304769 
L 296.780733 142.415717 
L 297.467799 142.523356 
L 297.924288 142.593016 
L 298.929312 142.741072 
L 299.934335 142.881685 
L 301.027296 143.025958 
L 302.120256 143.161011 
L 302.312636 143.183813 
L 303.042532 143.267642 
L 303.772428 143.34718 
L 304.502325 143.422363 
L 305.232221 143.493126 
L 306.030362 143.56537 
L 306.828504 143.632165 
L 307.564473 143.688856 
L 308.300443 143.740777 
L 309.1872 143.796904 
L 310.073957 143.845892 
L 310.651144 143.873888 
L 311.2147 143.898226 
L 311.778257 143.919573 
L 312.431954 143.94055 
L 313.085651 143.957415 
L 313.739349 143.970123 
L 314.393046 143.978628 
L 315.162569 143.983188 
L 315.932091 143.981783 
L 316.801766 143.972918 
L 317.671441 143.956227 
L 318.383438 143.936658 
L 319.095436 143.911709 
L 319.582393 143.891516 
L 320.069351 143.86876 
L 320.556309 143.843421 
L 321.043266 143.815479 
L 321.518703 143.78567 
L 321.994139 143.753343 
L 322.571307 143.71069 
L 323.148476 143.66427 
L 323.725644 143.61405 
L 324.302812 143.559998 
L 325.005395 143.488983 
L 325.707978 143.412184 
L 326.317407 143.340839 
L 326.926836 143.265061 
L 327.584795 143.178229 
L 328.413266 143.061408 
L 329.241737 142.936156 
L 329.780462 142.85014 
L 330.319188 142.760491 
L 330.857913 142.667186 
L 331.396638 142.570196 
L 332.183917 142.421779 
L 332.971195 142.265357 
L 333.725269 142.107953 
L 334.479342 141.943059 
L 334.984612 141.828345 
L 335.489881 141.710215 
L 335.995151 141.588648 
L 336.500421 141.463621 
L 337.095712 141.311851 
L 337.691003 141.155214 
L 338.316905 140.985235 
L 338.942808 140.809797 
L 339.454751 140.662213 
L 339.966694 140.510927 
L 340.478638 140.355916 
L 340.990581 140.197158 
L 341.490516 140.038486 
L 341.990451 139.876198 
L 342.689644 139.643123 
L 343.388837 139.402879 
L 344.120859 139.143609 
L 344.852881 138.876353 
L 345.584903 138.601044 
L 346.316924 138.317618 
L 346.992065 138.048962 
L 347.667206 137.773294 
L 348.125212 137.582267 
L 348.583218 137.387973 
L 349.041224 137.190396 
L 349.49923 136.98952 
L 349.889651 136.81567 
L 350.662116 136.464564 
L 351.434581 136.103912 
L 351.983224 135.841921 
L 352.531866 135.575048 
L 353.080509 135.303266 
L 353.629152 135.026548 
L 354.217282 134.7244 
L 354.805412 134.416515 
L 355.393542 134.102857 
L 355.981671 133.783393 
L 356.062572 133.738993 
L 356.729905 133.368518 
L 357.397237 132.990469 
L 358.06457 132.604797 
L 358.731902 132.211451 
L 359.340911 131.845744 
L 359.94992 131.473567 
L 360.405875 131.190666 
L 360.861831 130.904102 
L 361.317786 130.613859 
L 361.773741 130.319921 
L 362.23135 130.021186 
L 362.688958 129.718698 
L 363.146567 129.412439 
L 363.604176 129.102395 
L 364.064795 128.786472 
L 364.525415 128.46668 
L 364.928807 128.183429 
L 365.332199 127.897188 
L 365.735591 127.607946 
L 366.138983 127.315692 
L 366.655045 126.937401 
L 367.171108 126.554139 
L 367.68717 126.165883 
L 368.203232 125.772612 
L 368.880311 125.248989 
L 369.557389 124.71664 
L 370.045831 124.327159 
L 370.534273 123.933089 
L 371.022714 123.534413 
L 371.511156 123.131111 
L 372.038788 122.690228 
L 372.562921 122.246877 
L 373.087055 121.798129 
L 373.611188 121.343958 
L 374.135322 120.884342 
L 374.5581 120.50962 
L 374.980879 120.131326 
L 375.403658 119.749448 
L 375.826437 119.363973 
L 376.212805 119.00854 
L 376.599173 118.650083 
L 376.985541 118.288592 
L 377.37191 117.924058 
L 377.843843 117.474651 
L 378.315776 117.020673 
L 378.787709 116.562104 
L 379.259642 116.098928 
L 379.735034 115.62768 
L 380.210426 115.151722 
L 380.745028 114.610834 
L 381.27963 114.06394 
L 381.814231 113.511015 
L 382.348833 112.952033 
L 382.840068 112.433035 
L 383.331303 111.908881 
L 383.822538 111.379552 
L 384.313774 110.845028 
L 384.615268 110.514385 
L 385.225964 109.838608 
L 385.836659 109.154716 
L 386.447354 108.46267 
L 387.05805 107.762432 
L 387.444071 107.315569 
L 387.830092 106.865407 
L 388.180563 106.453839 
L 388.531034 106.039537 
L 388.881505 105.622494 
L 389.231976 105.202704 
L 389.582447 104.780159 
L 389.932918 104.354851 
L 390.283389 103.926774 
L 390.63386 103.495921 
L 391.019469 103.018653 
L 391.405078 102.538006 
L 391.790688 102.05397 
L 392.176297 101.566536 
L 392.525367 101.12235 
L 392.874438 100.675365 
L 393.223508 100.225572 
L 393.572578 99.772965 
L 394.15071 99.017148 
L 394.728841 98.25356 
L 395.059551 97.813256 
L 395.390262 97.370392 
L 395.720972 96.924963 
L 396.051683 96.476962 
L 396.641797 95.67115 
L 397.231912 94.857096 
L 397.822026 94.034768 
L 398.412141 93.204129 
L 398.857032 92.572392 
L 399.298883 91.940262 
L 399.740734 91.303426 
L 400.182585 90.661869 
L 400.624436 90.015576 
L 401.136305 89.260929 
L 401.648174 88.499885 
L 402.160043 87.732422 
L 402.671912 86.958517 
L 403.178005 86.186989 
L 403.684099 85.409121 
L 404.190192 84.624891 
L 404.696286 83.834276 
L 405.021058 83.323547 
L 405.345831 82.810175 
L 405.66283 82.306534 
L 405.979829 81.800364 
L 406.296829 81.29166 
L 406.613828 80.780416 
L 406.930827 80.266626 
L 407.247827 79.750287 
L 407.564826 79.231391 
L 407.881826 78.709934 
L 408.363558 77.912579 
L 408.717233 77.323399 
L 409.070908 76.731008 
L 409.424582 76.135397 
L 409.778257 75.536559 
L 410.131932 74.934487 
L 410.485606 74.329173 
L 410.839281 73.72061 
L 411.192956 73.108791 
L 411.709811 72.208815 
L 412.226667 71.301845 
L 412.226667 292.411475 
z
" clip-path="url(#p6023ee8d8c)" style="fill: #808080; opacity: 0.5"/>
   </g>
   <g id="matplotlib.axis_1">
    <g id="xtick_1">
     <g id="line2d_1">
      <defs>
       <path id="m96e3406b06" d="M 0 0 
L 0 3.5 
" style="stroke: #000000; stroke-width: 0.8"/>
      </defs>
      <g>
       <use xlink:href="#m96e3406b06" x="44.798462" y="292.411475" style="stroke: #000000; stroke-width: 0.8"/>
      </g>
     </g>
     <g id="text_1">
      <!-- 1 -->
      <g transform="translate(41.617212 307.009912)scale(0.1 -0.1)">
       <defs>
        <path id="DejaVuSans-31" d="M 794 531 
L 1825 531 
L 1825 4091 
L 703 3866 
L 703 4441 
L 1819 4666 
L 2450 4666 
L 2450 531 
L 3481 531 
L 3481 0 
L 794 0 
L 794 531 
z
" transform="scale(0.015625)"/>
       </defs>
       <use xlink:href="#DejaVuSans-31"/>
      </g>
     </g>
    </g>
    <g id="xtick_2">
     <g id="line2d_2">
      <g>
       <use xlink:href="#m96e3406b06" x="97.288205" y="292.411475" style="stroke: #000000; stroke-width: 0.8"/>
      </g>
     </g>
     <g id="text_2">
      <!-- 2 -->
      <g transform="translate(94.106955 307.009912)scale(0.1 -0.1)">
       <defs>
        <path id="DejaVuSans-32" d="M 1228 531 
L 3431 531 
L 3431 0 
L 469 0 
L 469 531 
Q 828 903 1448 1529 
Q 2069 2156 2228 2338 
Q 2531 2678 2651 2914 
Q 2772 3150 2772 3378 
Q 2772 3750 2511 3984 
Q 2250 4219 1831 4219 
Q 1534 4219 1204 4116 
Q 875 4013 500 3803 
L 500 4441 
Q 881 4594 1212 4672 
Q 1544 4750 1819 4750 
Q 2544 4750 2975 4387 
Q 3406 4025 3406 3419 
Q 3406 3131 3298 2873 
Q 3191 2616 2906 2266 
Q 2828 2175 2409 1742 
Q 1991 1309 1228 531 
z
" transform="scale(0.015625)"/>
       </defs>
       <use xlink:href="#DejaVuSans-32"/>
      </g>
     </g>
    </g>
    <g id="xtick_3">
     <g id="line2d_3">
      <g>
       <use xlink:href="#m96e3406b06" x="149.777949" y="292.411475" style="stroke: #000000; stroke-width: 0.8"/>
      </g>
     </g>
     <g id="text_3">
      <!-- 3 -->
      <g transform="translate(146.596699 307.009912)scale(0.1 -0.1)">
       <defs>
        <path id="DejaVuSans-33" d="M 2597 2516 
Q 3050 2419 3304 2112 
Q 3559 1806 3559 1356 
Q 3559 666 3084 287 
Q 2609 -91 1734 -91 
Q 1441 -91 1130 -33 
Q 819 25 488 141 
L 488 750 
Q 750 597 1062 519 
Q 1375 441 1716 441 
Q 2309 441 2620 675 
Q 2931 909 2931 1356 
Q 2931 1769 2642 2001 
Q 2353 2234 1838 2234 
L 1294 2234 
L 1294 2753 
L 1863 2753 
Q 2328 2753 2575 2939 
Q 2822 3125 2822 3475 
Q 2822 3834 2567 4026 
Q 2313 4219 1838 4219 
Q 1578 4219 1281 4162 
Q 984 4106 628 3988 
L 628 4550 
Q 988 4650 1302 4700 
Q 1616 4750 1894 4750 
Q 2613 4750 3031 4423 
Q 3450 4097 3450 3541 
Q 3450 3153 3228 2886 
Q 3006 2619 2597 2516 
z
" transform="scale(0.015625)"/>
       </defs>
       <use xlink:href="#DejaVuSans-33"/>
      </g>
     </g>
    </g>
    <g id="xtick_4">
     <g id="line2d_4">
      <g>
       <use xlink:href="#m96e3406b06" x="202.267692" y="292.411475" style="stroke: #000000; stroke-width: 0.8"/>
      </g>
     </g>
     <g id="text_4">
      <!-- 4 -->
      <g transform="translate(199.086442 307.009912)scale(0.1 -0.1)">
       <defs>
        <path id="DejaVuSans-34" d="M 2419 4116 
L 825 1625 
L 2419 1625 
L 2419 4116 
z
M 2253 4666 
L 3047 4666 
L 3047 1625 
L 3713 1625 
L 3713 1100 
L 3047 1100 
L 3047 0 
L 2419 0 
L 2419 1100 
L 313 1100 
L 313 1709 
L 2253 4666 
z
" transform="scale(0.015625)"/>
       </defs>
       <use xlink:href="#DejaVuSans-34"/>
      </g>
     </g>
    </g>
    <g id="xtick_5">
     <g id="line2d_5">
      <g>
       <use xlink:href="#m96e3406b06" x="254.757436" y="292.411475" style="stroke: #000000; stroke-width: 0.8"/>
      </g>
     </g>
     <g id="text_5">
      <!-- 5 -->
      <g transform="translate(251.576186 307.009912)scale(0.1 -0.1)">
       <defs>
        <path id="DejaVuSans-35" d="M 691 4666 
L 3169 4666 
L 3169 4134 
L 1269 4134 
L 1269 2991 
Q 1406 3038 1543 3061 
Q 1681 3084 1819 3084 
Q 2600 3084 3056 2656 
Q 3513 2228 3513 1497 
Q 3513 744 3044 326 
Q 2575 -91 1722 -91 
Q 1428 -91 1123 -41 
Q 819 9 494 109 
L 494 744 
Q 775 591 1075 516 
Q 1375 441 1709 441 
Q 2250 441 2565 725 
Q 2881 1009 2881 1497 
Q 2881 1984 2565 2268 
Q 2250 2553 1709 2553 
Q 1456 2553 1204 2497 
Q 953 2441 691 2322 
L 691 4666 
z
" transform="scale(0.015625)"/>
       </defs>
       <use xlink:href="#DejaVuSans-35"/>
      </g>
     </g>
    </g>
    <g id="xtick_6">
     <g id="line2d_6">
      <g>
       <use xlink:href="#m96e3406b06" x="307.247179" y="292.411475" style="stroke: #000000; stroke-width: 0.8"/>
      </g>
     </g>
     <g id="text_6">
      <!-- 6 -->
      <g transform="translate(304.065929 307.009912)scale(0.1 -0.1)">
       <defs>
        <path id="DejaVuSans-36" d="M 2113 2584 
Q 1688 2584 1439 2293 
Q 1191 2003 1191 1497 
Q 1191 994 1439 701 
Q 1688 409 2113 409 
Q 2538 409 2786 701 
Q 3034 994 3034 1497 
Q 3034 2003 2786 2293 
Q 2538 2584 2113 2584 
z
M 3366 4563 
L 3366 3988 
Q 3128 4100 2886 4159 
Q 2644 4219 2406 4219 
Q 1781 4219 1451 3797 
Q 1122 3375 1075 2522 
Q 1259 2794 1537 2939 
Q 1816 3084 2150 3084 
Q 2853 3084 3261 2657 
Q 3669 2231 3669 1497 
Q 3669 778 3244 343 
Q 2819 -91 2113 -91 
Q 1303 -91 875 529 
Q 447 1150 447 2328 
Q 447 3434 972 4092 
Q 1497 4750 2381 4750 
Q 2619 4750 2861 4703 
Q 3103 4656 3366 4563 
z
" transform="scale(0.015625)"/>
       </defs>
       <use xlink:href="#DejaVuSans-36"/>
      </g>
     </g>
    </g>
    <g id="xtick_7">
     <g id="line2d_7">
      <g>
       <use xlink:href="#m96e3406b06" x="359.736923" y="292.411475" style="stroke: #000000; stroke-width: 0.8"/>
      </g>
     </g>
     <g id="text_7">
      <!-- 7 -->
      <g transform="translate(356.555673 307.009912)scale(0.1 -0.1)">
       <defs>
        <path id="DejaVuSans-37" d="M 525 4666 
L 3525 4666 
L 3525 4397 
L 1831 0 
L 1172 0 
L 2766 4134 
L 525 4134 
L 525 4666 
z
" transform="scale(0.015625)"/>
       </defs>
       <use xlink:href="#DejaVuSans-37"/>
      </g>
     </g>
    </g>
    <g id="xtick_8">
     <g id="line2d_8">
      <g>
       <use xlink:href="#m96e3406b06" x="412.226667" y="292.411475" style="stroke: #000000; stroke-width: 0.8"/>
      </g>
     </g>
     <g id="text_8">
      <!-- 8 -->
      <g transform="translate(409.045417 307.009912)scale(0.1 -0.1)">
       <defs>
        <path id="DejaVuSans-38" d="M 2034 2216 
Q 1584 2216 1326 1975 
Q 1069 1734 1069 1313 
Q 1069 891 1326 650 
Q 1584 409 2034 409 
Q 2484 409 2743 651 
Q 3003 894 3003 1313 
Q 3003 1734 2745 1975 
Q 2488 2216 2034 2216 
z
M 1403 2484 
Q 997 2584 770 2862 
Q 544 3141 544 3541 
Q 544 4100 942 4425 
Q 1341 4750 2034 4750 
Q 2731 4750 3128 4425 
Q 3525 4100 3525 3541 
Q 3525 3141 3298 2862 
Q 3072 2584 2669 2484 
Q 3125 2378 3379 2068 
Q 3634 1759 3634 1313 
Q 3634 634 3220 271 
Q 2806 -91 2034 -91 
Q 1263 -91 848 271 
Q 434 634 434 1313 
Q 434 1759 690 2068 
Q 947 2378 1403 2484 
z
M 1172 3481 
Q 1172 3119 1398 2916 
Q 1625 2713 2034 2713 
Q 2441 2713 2670 2916 
Q 2900 3119 2900 3481 
Q 2900 3844 2670 4047 
Q 2441 4250 2034 4250 
Q 1625 4250 1398 4047 
Q 1172 3844 1172 3481 
z
" transform="scale(0.015625)"/>
       </defs>
       <use xlink:href="#DejaVuSans-38"/>
      </g>
     </g>
    </g>
    <g id="xtick_9">
     <g id="line2d_9">
      <defs>
       <path id="m2452312590" d="M 0 0 
L 0 2 
" style="stroke: #000000; stroke-width: 0.6"/>
      </defs>
      <g>
       <use xlink:href="#m2452312590" x="55.29641" y="292.411475" style="stroke: #000000; stroke-width: 0.6"/>
      </g>
     </g>
    </g>
    <g id="xtick_10">
     <g id="line2d_10">
      <g>
       <use xlink:href="#m2452312590" x="65.794359" y="292.411475" style="stroke: #000000; stroke-width: 0.6"/>
      </g>
     </g>
    </g>
    <g id="xtick_11">
     <g id="line2d_11">
      <g>
       <use xlink:href="#m2452312590" x="76.292308" y="292.411475" style="stroke: #000000; stroke-width: 0.6"/>
      </g>
     </g>
    </g>
    <g id="xtick_12">
     <g id="line2d_12">
      <g>
       <use xlink:href="#m2452312590" x="86.790256" y="292.411475" style="stroke: #000000; stroke-width: 0.6"/>
      </g>
     </g>
    </g>
    <g id="xtick_13">
     <g id="line2d_13">
      <g>
       <use xlink:href="#m2452312590" x="107.786154" y="292.411475" style="stroke: #000000; stroke-width: 0.6"/>
      </g>
     </g>
    </g>
    <g id="xtick_14">
     <g id="line2d_14">
      <g>
       <use xlink:href="#m2452312590" x="118.284103" y="292.411475" style="stroke: #000000; stroke-width: 0.6"/>
      </g>
     </g>
    </g>
    <g id="xtick_15">
     <g id="line2d_15">
      <g>
       <use xlink:href="#m2452312590" x="128.782051" y="292.411475" style="stroke: #000000; stroke-width: 0.6"/>
      </g>
     </g>
    </g>
    <g id="xtick_16">
     <g id="line2d_16">
      <g>
       <use xlink:href="#m2452312590" x="139.28" y="292.411475" style="stroke: #000000; stroke-width: 0.6"/>
      </g>
     </g>
    </g>
    <g id="xtick_17">
     <g id="line2d_17">
      <g>
       <use xlink:href="#m2452312590" x="160.275897" y="292.411475" style="stroke: #000000; stroke-width: 0.6"/>
      </g>
     </g>
    </g>
    <g id="xtick_18">
     <g id="line2d_18">
      <g>
       <use xlink:href="#m2452312590" x="170.773846" y="292.411475" style="stroke: #000000; stroke-width: 0.6"/>
      </g>
     </g>
    </g>
    <g id="xtick_19">
     <g id="line2d_19">
      <g>
       <use xlink:href="#m2452312590" x="181.271795" y="292.411475" style="stroke: #000000; stroke-width: 0.6"/>
      </g>
     </g>
    </g>
    <g id="xtick_20">
     <g id="line2d_20">
      <g>
       <use xlink:href="#m2452312590" x="191.769744" y="292.411475" style="stroke: #000000; stroke-width: 0.6"/>
      </g>
     </g>
    </g>
    <g id="xtick_21">
     <g id="line2d_21">
      <g>
       <use xlink:href="#m2452312590" x="212.765641" y="292.411475" style="stroke: #000000; stroke-width: 0.6"/>
      </g>
     </g>
    </g>
    <g id="xtick_22">
     <g id="line2d_22">
      <g>
       <use xlink:href="#m2452312590" x="223.26359" y="292.411475" style="stroke: #000000; stroke-width: 0.6"/>
      </g>
     </g>
    </g>
    <g id="xtick_23">
     <g id="line2d_23">
      <g>
       <use xlink:href="#m2452312590" x="233.761538" y="292.411475" style="stroke: #000000; stroke-width: 0.6"/>
      </g>
     </g>
    </g>
    <g id="xtick_24">
     <g id="line2d_24">
      <g>
       <use xlink:href="#m2452312590" x="244.259487" y="292.411475" style="stroke: #000000; stroke-width: 0.6"/>
      </g>
     </g>
    </g>
    <g id="xtick_25">
     <g id="line2d_25">
      <g>
       <use xlink:href="#m2452312590" x="265.255385" y="292.411475" style="stroke: #000000; stroke-width: 0.6"/>
      </g>
     </g>
    </g>
    <g id="xtick_26">
     <g id="line2d_26">
      <g>
       <use xlink:href="#m2452312590" x="275.753333" y="292.411475" style="stroke: #000000; stroke-width: 0.6"/>
      </g>
     </g>
    </g>
    <g id="xtick_27">
     <g id="line2d_27">
      <g>
       <use xlink:href="#m2452312590" x="286.251282" y="292.411475" style="stroke: #000000; stroke-width: 0.6"/>
      </g>
     </g>
    </g>
    <g id="xtick_28">
     <g id="line2d_28">
      <g>
       <use xlink:href="#m2452312590" x="296.749231" y="292.411475" style="stroke: #000000; stroke-width: 0.6"/>
      </g>
     </g>
    </g>
    <g id="xtick_29">
     <g id="line2d_29">
      <g>
       <use xlink:href="#m2452312590" x="317.745128" y="292.411475" style="stroke: #000000; stroke-width: 0.6"/>
      </g>
     </g>
    </g>
    <g id="xtick_30">
     <g id="line2d_30">
      <g>
       <use xlink:href="#m2452312590" x="328.243077" y="292.411475" style="stroke: #000000; stroke-width: 0.6"/>
      </g>
     </g>
    </g>
    <g id="xtick_31">
     <g id="line2d_31">
      <g>
       <use xlink:href="#m2452312590" x="338.741026" y="292.411475" style="stroke: #000000; stroke-width: 0.6"/>
      </g>
     </g>
    </g>
    <g id="xtick_32">
     <g id="line2d_32">
      <g>
       <use xlink:href="#m2452312590" x="349.238974" y="292.411475" style="stroke: #000000; stroke-width: 0.6"/>
      </g>
     </g>
    </g>
    <g id="xtick_33">
     <g id="line2d_33">
      <g>
       <use xlink:href="#m2452312590" x="370.234872" y="292.411475" style="stroke: #000000; stroke-width: 0.6"/>
      </g>
     </g>
    </g>
    <g id="xtick_34">
     <g id="line2d_34">
      <g>
       <use xlink:href="#m2452312590" x="380.732821" y="292.411475" style="stroke: #000000; stroke-width: 0.6"/>
      </g>
     </g>
    </g>
    <g id="xtick_35">
     <g id="line2d_35">
      <g>
       <use xlink:href="#m2452312590" x="391.230769" y="292.411475" style="stroke: #000000; stroke-width: 0.6"/>
      </g>
     </g>
    </g>
    <g id="xtick_36">
     <g id="line2d_36">
      <g>
       <use xlink:href="#m2452312590" x="401.728718" y="292.411475" style="stroke: #000000; stroke-width: 0.6"/>
      </g>
     </g>
    </g>
    <g id="xtick_37">
     <g id="line2d_37">
      <g>
       <use xlink:href="#m2452312590" x="422.724615" y="292.411475" style="stroke: #000000; stroke-width: 0.6"/>
      </g>
     </g>
    </g>
    <g id="xtick_38">
     <g id="line2d_38">
      <g>
       <use xlink:href="#m2452312590" x="433.222564" y="292.411475" style="stroke: #000000; stroke-width: 0.6"/>
      </g>
     </g>
    </g>
    <g id="xtick_39">
     <g id="line2d_39">
      <g>
       <use xlink:href="#m2452312590" x="443.720513" y="292.411475" style="stroke: #000000; stroke-width: 0.6"/>
      </g>
     </g>
    </g>
   </g>
   <g id="matplotlib.axis_2">
    <g id="ytick_1">
     <g id="line2d_40">
      <defs>
       <path id="m37da902f2f" d="M 0 0 
L -3.5 0 
" style="stroke: #000000; stroke-width: 0.8"/>
      </defs>
      <g>
       <use xlink:href="#m37da902f2f" x="26.925" y="292.411475" style="stroke: #000000; stroke-width: 0.8"/>
      </g>
     </g>
     <g id="text_9">
      <!-- 0 -->
      <g transform="translate(13.5625 296.210694)scale(0.1 -0.1)">
       <defs>
        <path id="DejaVuSans-30" d="M 2034 4250 
Q 1547 4250 1301 3770 
Q 1056 3291 1056 2328 
Q 1056 1369 1301 889 
Q 1547 409 2034 409 
Q 2525 409 2770 889 
Q 3016 1369 3016 2328 
Q 3016 3291 2770 3770 
Q 2525 4250 2034 4250 
z
M 2034 4750 
Q 2819 4750 3233 4129 
Q 3647 3509 3647 2328 
Q 3647 1150 3233 529 
Q 2819 -91 2034 -91 
Q 1250 -91 836 529 
Q 422 1150 422 2328 
Q 422 3509 836 4129 
Q 1250 4750 2034 4750 
z
" transform="scale(0.015625)"/>
       </defs>
       <use xlink:href="#DejaVuSans-30"/>
      </g>
     </g>
    </g>
    <g id="ytick_2">
     <g id="line2d_41">
      <g>
       <use xlink:href="#m37da902f2f" x="26.925" y="252.209724" style="stroke: #000000; stroke-width: 0.8"/>
      </g>
     </g>
     <g id="text_10">
      <!-- 10 -->
      <g transform="translate(7.2 256.008943)scale(0.1 -0.1)">
       <use xlink:href="#DejaVuSans-31"/>
       <use xlink:href="#DejaVuSans-30" x="63.623047"/>
      </g>
     </g>
    </g>
    <g id="ytick_3">
     <g id="line2d_42">
      <g>
       <use xlink:href="#m37da902f2f" x="26.925" y="212.007973" style="stroke: #000000; stroke-width: 0.8"/>
      </g>
     </g>
     <g id="text_11">
      <!-- 20 -->
      <g transform="translate(7.2 215.807192)scale(0.1 -0.1)">
       <use xlink:href="#DejaVuSans-32"/>
       <use xlink:href="#DejaVuSans-30" x="63.623047"/>
      </g>
     </g>
    </g>
    <g id="ytick_4">
     <g id="line2d_43">
      <g>
       <use xlink:href="#m37da902f2f" x="26.925" y="171.806222" style="stroke: #000000; stroke-width: 0.8"/>
      </g>
     </g>
     <g id="text_12">
      <!-- 30 -->
      <g transform="translate(7.2 175.605441)scale(0.1 -0.1)">
       <use xlink:href="#DejaVuSans-33"/>
       <use xlink:href="#DejaVuSans-30" x="63.623047"/>
      </g>
     </g>
    </g>
    <g id="ytick_5">
     <g id="line2d_44">
      <g>
       <use xlink:href="#m37da902f2f" x="26.925" y="131.604471" style="stroke: #000000; stroke-width: 0.8"/>
      </g>
     </g>
     <g id="text_13">
      <!-- 40 -->
      <g transform="translate(7.2 135.40369)scale(0.1 -0.1)">
       <use xlink:href="#DejaVuSans-34"/>
       <use xlink:href="#DejaVuSans-30" x="63.623047"/>
      </g>
     </g>
    </g>
    <g id="ytick_6">
     <g id="line2d_45">
      <g>
       <use xlink:href="#m37da902f2f" x="26.925" y="91.40272" style="stroke: #000000; stroke-width: 0.8"/>
      </g>
     </g>
     <g id="text_14">
      <!-- 50 -->
      <g transform="translate(7.2 95.201939)scale(0.1 -0.1)">
       <use xlink:href="#DejaVuSans-35"/>
       <use xlink:href="#DejaVuSans-30" x="63.623047"/>
      </g>
     </g>
    </g>
    <g id="ytick_7">
     <g id="line2d_46">
      <g>
       <use xlink:href="#m37da902f2f" x="26.925" y="51.20097" style="stroke: #000000; stroke-width: 0.8"/>
      </g>
     </g>
     <g id="text_15">
      <!-- 60 -->
      <g transform="translate(7.2 55.000188)scale(0.1 -0.1)">
       <use xlink:href="#DejaVuSans-36"/>
       <use xlink:href="#DejaVuSans-30" x="63.623047"/>
      </g>
     </g>
    </g>
    <g id="ytick_8">
     <g id="line2d_47">
      <g>
       <use xlink:href="#m37da902f2f" x="26.925" y="10.999219" style="stroke: #000000; stroke-width: 0.8"/>
      </g>
     </g>
     <g id="text_16">
      <!-- 70 -->
      <g transform="translate(7.2 14.798437)scale(0.1 -0.1)">
       <use xlink:href="#DejaVuSans-37"/>
       <use xlink:href="#DejaVuSans-30" x="63.623047"/>
      </g>
     </g>
    </g>
    <g id="ytick_9">
     <g id="line2d_48">
      <defs>
       <path id="m8a899f4bda" d="M 0 0 
L -2 0 
" style="stroke: #000000; stroke-width: 0.6"/>
      </defs>
      <g>
       <use xlink:href="#m8a899f4bda" x="26.925" y="324.572875" style="stroke: #000000; stroke-width: 0.6"/>
      </g>
     </g>
    </g>
    <g id="ytick_10">
     <g id="line2d_49">
      <g>
       <use xlink:href="#m8a899f4bda" x="26.925" y="316.532525" style="stroke: #000000; stroke-width: 0.6"/>
      </g>
     </g>
    </g>
    <g id="ytick_11">
     <g id="line2d_50">
      <g>
       <use xlink:href="#m8a899f4bda" x="26.925" y="308.492175" style="stroke: #000000; stroke-width: 0.6"/>
      </g>
     </g>
    </g>
    <g id="ytick_12">
     <g id="line2d_51">
      <g>
       <use xlink:href="#m8a899f4bda" x="26.925" y="300.451825" style="stroke: #000000; stroke-width: 0.6"/>
      </g>
     </g>
    </g>
    <g id="ytick_13">
     <g id="line2d_52">
      <g>
       <use xlink:href="#m8a899f4bda" x="26.925" y="284.371125" style="stroke: #000000; stroke-width: 0.6"/>
      </g>
     </g>
    </g>
    <g id="ytick_14">
     <g id="line2d_53">
      <g>
       <use xlink:href="#m8a899f4bda" x="26.925" y="276.330774" style="stroke: #000000; stroke-width: 0.6"/>
      </g>
     </g>
    </g>
    <g id="ytick_15">
     <g id="line2d_54">
      <g>
       <use xlink:href="#m8a899f4bda" x="26.925" y="268.290424" style="stroke: #000000; stroke-width: 0.6"/>
      </g>
     </g>
    </g>
    <g id="ytick_16">
     <g id="line2d_55">
      <g>
       <use xlink:href="#m8a899f4bda" x="26.925" y="260.250074" style="stroke: #000000; stroke-width: 0.6"/>
      </g>
     </g>
    </g>
    <g id="ytick_17">
     <g id="line2d_56">
      <g>
       <use xlink:href="#m8a899f4bda" x="26.925" y="244.169374" style="stroke: #000000; stroke-width: 0.6"/>
      </g>
     </g>
    </g>
    <g id="ytick_18">
     <g id="line2d_57">
      <g>
       <use xlink:href="#m8a899f4bda" x="26.925" y="236.129024" style="stroke: #000000; stroke-width: 0.6"/>
      </g>
     </g>
    </g>
    <g id="ytick_19">
     <g id="line2d_58">
      <g>
       <use xlink:href="#m8a899f4bda" x="26.925" y="228.088673" style="stroke: #000000; stroke-width: 0.6"/>
      </g>
     </g>
    </g>
    <g id="ytick_20">
     <g id="line2d_59">
      <g>
       <use xlink:href="#m8a899f4bda" x="26.925" y="220.048323" style="stroke: #000000; stroke-width: 0.6"/>
      </g>
     </g>
    </g>
    <g id="ytick_21">
     <g id="line2d_60">
      <g>
       <use xlink:href="#m8a899f4bda" x="26.925" y="203.967623" style="stroke: #000000; stroke-width: 0.6"/>
      </g>
     </g>
    </g>
    <g id="ytick_22">
     <g id="line2d_61">
      <g>
       <use xlink:href="#m8a899f4bda" x="26.925" y="195.927273" style="stroke: #000000; stroke-width: 0.6"/>
      </g>
     </g>
    </g>
    <g id="ytick_23">
     <g id="line2d_62">
      <g>
       <use xlink:href="#m8a899f4bda" x="26.925" y="187.886923" style="stroke: #000000; stroke-width: 0.6"/>
      </g>
     </g>
    </g>
    <g id="ytick_24">
     <g id="line2d_63">
      <g>
       <use xlink:href="#m8a899f4bda" x="26.925" y="179.846572" style="stroke: #000000; stroke-width: 0.6"/>
      </g>
     </g>
    </g>
    <g id="ytick_25">
     <g id="line2d_64">
      <g>
       <use xlink:href="#m8a899f4bda" x="26.925" y="163.765872" style="stroke: #000000; stroke-width: 0.6"/>
      </g>
     </g>
    </g>
    <g id="ytick_26">
     <g id="line2d_65">
      <g>
       <use xlink:href="#m8a899f4bda" x="26.925" y="155.725522" style="stroke: #000000; stroke-width: 0.6"/>
      </g>
     </g>
    </g>
    <g id="ytick_27">
     <g id="line2d_66">
      <g>
       <use xlink:href="#m8a899f4bda" x="26.925" y="147.685172" style="stroke: #000000; stroke-width: 0.6"/>
      </g>
     </g>
    </g>
    <g id="ytick_28">
     <g id="line2d_67">
      <g>
       <use xlink:href="#m8a899f4bda" x="26.925" y="139.644822" style="stroke: #000000; stroke-width: 0.6"/>
      </g>
     </g>
    </g>
    <g id="ytick_29">
     <g id="line2d_68">
      <g>
       <use xlink:href="#m8a899f4bda" x="26.925" y="123.564121" style="stroke: #000000; stroke-width: 0.6"/>
      </g>
     </g>
    </g>
    <g id="ytick_30">
     <g id="line2d_69">
      <g>
       <use xlink:href="#m8a899f4bda" x="26.925" y="115.523771" style="stroke: #000000; stroke-width: 0.6"/>
      </g>
     </g>
    </g>
    <g id="ytick_31">
     <g id="line2d_70">
      <g>
       <use xlink:href="#m8a899f4bda" x="26.925" y="107.483421" style="stroke: #000000; stroke-width: 0.6"/>
      </g>
     </g>
    </g>
    <g id="ytick_32">
     <g id="line2d_71">
      <g>
       <use xlink:href="#m8a899f4bda" x="26.925" y="99.443071" style="stroke: #000000; stroke-width: 0.6"/>
      </g>
     </g>
    </g>
    <g id="ytick_33">
     <g id="line2d_72">
      <g>
       <use xlink:href="#m8a899f4bda" x="26.925" y="83.36237" style="stroke: #000000; stroke-width: 0.6"/>
      </g>
     </g>
    </g>
    <g id="ytick_34">
     <g id="line2d_73">
      <g>
       <use xlink:href="#m8a899f4bda" x="26.925" y="75.32202" style="stroke: #000000; stroke-width: 0.6"/>
      </g>
     </g>
    </g>
    <g id="ytick_35">
     <g id="line2d_74">
      <g>
       <use xlink:href="#m8a899f4bda" x="26.925" y="67.28167" style="stroke: #000000; stroke-width: 0.6"/>
      </g>
     </g>
    </g>
    <g id="ytick_36">
     <g id="line2d_75">
      <g>
       <use xlink:href="#m8a899f4bda" x="26.925" y="59.24132" style="stroke: #000000; stroke-width: 0.6"/>
      </g>
     </g>
    </g>
    <g id="ytick_37">
     <g id="line2d_76">
      <g>
       <use xlink:href="#m8a899f4bda" x="26.925" y="43.160619" style="stroke: #000000; stroke-width: 0.6"/>
      </g>
     </g>
    </g>
    <g id="ytick_38">
     <g id="line2d_77">
      <g>
       <use xlink:href="#m8a899f4bda" x="26.925" y="35.120269" style="stroke: #000000; stroke-width: 0.6"/>
      </g>
     </g>
    </g>
    <g id="ytick_39">
     <g id="line2d_78">
      <g>
       <use xlink:href="#m8a899f4bda" x="26.925" y="27.079919" style="stroke: #000000; stroke-width: 0.6"/>
      </g>
     </g>
    </g>
    <g id="ytick_40">
     <g id="line2d_79">
      <g>
       <use xlink:href="#m8a899f4bda" x="26.925" y="19.039569" style="stroke: #000000; stroke-width: 0.6"/>
      </g>
     </g>
    </g>
   </g>
   <g id="line2d_80">
    <path d="M 97.288205 292.411475 
L 97.288205 191.907098 
" clip-path="url(#p6023ee8d8c)" style="fill: none; stroke: #000000; stroke-linecap: square"/>
   </g>
   <g id="line2d_81">
    <path d="M 412.226667 292.411475 
L 412.226667 71.301845 
" clip-path="url(#p6023ee8d8c)" style="fill: none; stroke: #000000; stroke-linecap: square"/>
   </g>
   <g id="line2d_82">
    <path d="M 97.288205 191.907098 
L 101.465068 184.776369 
L 105.3238 178.58542 
L 109.576098 172.192481 
L 113.723598 166.379 
L 117.843264 161.005134 
L 121.837177 156.165422 
L 125.744928 151.77247 
L 129.321548 148.040016 
L 133.553515 143.968744 
L 137.678431 140.348994 
L 141.680535 137.154697 
L 145.406585 134.4525 
L 149.520827 131.762594 
L 153.649733 129.361788 
L 157.349531 127.455066 
L 161.257588 125.682367 
L 165.020048 124.200863 
L 168.99241 122.86647 
L 173.115833 121.719957 
L 176.923949 120.867026 
L 181.319787 120.115955 
L 185.653567 119.607251 
L 189.92949 119.317558 
L 194.530829 119.226284 
L 199.58237 119.370382 
L 204.852158 119.770648 
L 210.455515 120.449254 
L 215.832858 121.319012 
L 222.429309 122.639673 
L 229.091604 124.211504 
L 236.752135 126.250651 
L 246.86573 129.20044 
L 273.13624 137.062409 
L 280.5952 139.040603 
L 287.878577 140.74139 
L 293.959671 141.939659 
L 299.934335 142.881685 
L 305.232221 143.493126 
L 310.651144 143.873888 
L 315.162569 143.983188 
L 320.069351 143.86876 
L 324.302812 143.559998 
L 328.413266 143.061408 
L 332.971195 142.265357 
L 337.095712 141.311851 
L 340.990581 140.197158 
L 344.852881 138.876353 
L 349.041224 137.190396 
L 353.080509 135.303266 
L 356.729905 133.368518 
L 360.861831 130.904102 
L 364.525415 128.46668 
L 368.203232 125.772612 
L 372.038788 122.690228 
L 375.826437 119.363973 
L 379.735034 115.62768 
L 383.822538 111.379552 
L 387.830092 106.865407 
L 391.790688 102.05397 
L 395.720972 96.924963 
L 399.740734 91.303426 
L 403.684099 85.409121 
L 407.881826 78.709934 
L 411.709811 72.208815 
L 412.226667 71.301845 
L 412.226667 71.301845 
" clip-path="url(#p6023ee8d8c)" style="fill: none; stroke: #0000ff; stroke-linecap: square"/>
   </g>
   <g id="line2d_83">
    <path d="M 44.798462 324.572875 
L 49.432526 309.329564 
L 54.277866 294.177496 
L 59.016044 280.119864 
L 63.644507 267.095572 
L 68.016043 255.421601 
L 72.560999 243.915437 
L 76.700122 233.983255 
L 80.944148 224.327552 
L 85.489687 214.564668 
L 89.958149 205.535997 
L 94.211492 197.452046 
L 98.291821 190.152363 
L 102.666499 182.808429 
L 106.91707 176.137977 
L 110.750063 170.505206 
L 114.818662 164.912077 
L 119.015998 159.546747 
L 122.965585 154.862581 
L 126.934511 150.500881 
L 130.803666 146.572189 
L 134.822193 142.819353 
L 138.717533 139.49 
L 142.338199 136.658964 
L 146.523908 133.691941 
L 150.46311 131.188762 
L 154.160574 129.084976 
L 158.213766 127.042028 
L 162.128919 125.319954 
L 165.901576 123.884718 
L 170.142772 122.522653 
L 174.403054 121.410015 
L 178.563448 120.558327 
L 182.956525 119.897531 
L 186.926368 119.499581 
L 191.469492 119.262327 
L 196.202034 119.246637 
L 201.088099 119.459738 
L 206.468945 119.940921 
L 212.18315 120.70664 
L 217.676239 121.661685 
L 224.082569 123.009314 
L 230.475803 124.563552 
L 238.485883 126.739295 
L 248.72813 129.763433 
L 272.243517 136.812861 
L 279.742997 138.825421 
L 287.145606 140.582422 
L 293.826093 141.915798 
L 299.061904 142.760052 
L 304.273433 143.399259 
L 309.728323 143.827654 
L 314.897337 143.982286 
L 319.273404 143.904625 
L 323.907796 143.597407 
L 328.557907 143.040151 
L 332.718539 142.316434 
L 336.805566 141.38643 
L 340.894183 140.227339 
L 345.258127 138.724942 
L 349.256486 137.096397 
L 353.191856 135.247506 
L 357.070515 133.17651 
L 361.298614 130.626138 
L 365.158016 128.021153 
L 369.141978 125.044292 
L 373.058581 121.822646 
L 376.573995 118.673534 
L 380.184277 115.178025 
L 384.103837 111.074102 
L 387.823473 106.873154 
L 391.595183 102.299802 
L 395.412796 97.340122 
L 399.47127 91.692363 
L 403.4629 85.749886 
L 407.368358 79.553291 
L 411.577624 72.43965 
L 415.787732 64.861014 
L 419.677503 57.436189 
L 423.691334 49.338132 
L 427.815074 40.54546 
L 432.179636 30.704377 
L 436.667782 19.996619 
L 438.471538 15.521916 
L 438.471538 15.521916 
" clip-path="url(#p6023ee8d8c)" style="fill: none; stroke: #0000ff; stroke-width: 2; stroke-linecap: square"/>
   </g>
   <g id="patch_4">
    <path d="M 26.925 330.753895 
L 26.925 9.340897 
" style="fill: none; stroke: #000000; stroke-width: 0.8; stroke-linejoin: miter; stroke-linecap: square"/>
   </g>
   <g id="patch_5">
    <path d="M 36.925 292.411475 
L 446.345 292.411475 
" style="fill: none; stroke: #000000; stroke-width: 0.8; stroke-linejoin: miter; stroke-linecap: square"/>
   </g>
  </g>
 </g>
 <defs>
  <clipPath id="p6023ee8d8c">
   <rect x="36.925" y="9.340897" width="409.42" height="321.412998"/>
  </clipPath>
 </defs>
</svg>
