<?xml version="1.0" encoding="utf-8" standalone="no"?>
<!DOCTYPE svg PUBLIC "-//W3C//DTD SVG 1.1//EN"
  "http://www.w3.org/Graphics/SVG/1.1/DTD/svg11.dtd">
<svg xmlns:xlink="http://www.w3.org/1999/xlink" width="452.05977pt" height="338.117478pt" viewBox="0 0 452.05977 338.117478" xmlns="http://www.w3.org/2000/svg" version="1.1">
 <metadata>
  <rdf:RDF xmlns:dc="http://purl.org/dc/elements/1.1/" xmlns:cc="http://creativecommons.org/ns#" xmlns:rdf="http://www.w3.org/1999/02/22-rdf-syntax-ns#">
   <cc:Work>
    <dc:type rdf:resource="http://purl.org/dc/dcmitype/StillImage"/>
    <dc:date>2022-09-15T18:35:32.106546</dc:date>
    <dc:format>image/svg+xml</dc:format>
    <dc:creator>
     <cc:Agent>
      <dc:title>Matplotlib v3.5.1, https://matplotlib.org/</dc:title>
     </cc:Agent>
    </dc:creator>
   </cc:Work>
  </rdf:RDF>
 </metadata>
 <defs>
  <style type="text/css">*{stroke-linejoin: round; stroke-linecap: butt}</style>
 </defs>
 <g id="figure_1">
  <g id="patch_1">
   <path d="M 0 338.117478 
L 452.05977 338.117478 
L 452.05977 0 
L 0 0 
L 0 338.117478 
z
" style="fill: none"/>
  </g>
  <g id="axes_1">
   <g id="patch_2">
    <path d="M 7.647784 330.917478 
L 444.85977 330.917478 
L 444.85977 7.2 
L 7.647784 7.2 
L 7.647784 330.917478 
z
" style="fill: none"/>
   </g>
   <g id="matplotlib.axis_1">
    <g id="xtick_1">
     <g id="line2d_1">
      <defs>
       <path id="m3fa3c4a16f" d="M 0 0 
L 0 3.5 
" style="stroke: #000000; stroke-width: 0.8"/>
      </defs>
      <g>
       <use xlink:href="#m3fa3c4a16f" x="16.055707" y="169.058826" style="stroke: #000000; stroke-width: 0.8"/>
      </g>
     </g>
     <g id="text_1">
      <!-- $\mathdefault{−10}$ -->
      <g transform="translate(7.2 182.977324)scale(0.1 -0.1)">
       <defs>
        <path id="CMSY10-0" d="M 4218 1472 
C 4326 1472 4442 1472 4442 1600 
C 4442 1728 4326 1728 4218 1728 
L 755 1728 
C 646 1728 531 1728 531 1600 
C 531 1472 646 1472 755 1472 
L 4218 1472 
z
" transform="scale(0.015625)"/>
        <path id="CMR17-31" d="M 1702 4083 
C 1702 4217 1696 4224 1606 4224 
C 1357 3927 979 3833 621 3820 
C 602 3820 570 3820 563 3808 
C 557 3795 557 3782 557 3648 
C 755 3648 1088 3686 1344 3839 
L 1344 467 
C 1344 243 1331 166 781 166 
L 589 166 
L 589 0 
C 896 6 1216 12 1523 12 
C 1830 12 2150 6 2458 0 
L 2458 166 
L 2266 166 
C 1715 166 1702 236 1702 467 
L 1702 4083 
z
" transform="scale(0.015625)"/>
        <path id="CMR17-30" d="M 2688 2038 
C 2688 2430 2682 3099 2413 3613 
C 2176 4063 1798 4224 1466 4224 
C 1158 4224 768 4082 525 3620 
C 269 3137 243 2539 243 2038 
C 243 1671 250 1112 448 623 
C 723 -39 1216 -128 1466 -128 
C 1760 -128 2208 -7 2470 604 
C 2662 1048 2688 1568 2688 2038 
z
M 1466 -26 
C 1056 -26 813 328 723 816 
C 653 1196 653 1749 653 2109 
C 653 2604 653 3015 736 3407 
C 858 3954 1216 4121 1466 4121 
C 1728 4121 2067 3947 2189 3420 
C 2272 3054 2278 2623 2278 2109 
C 2278 1691 2278 1176 2202 797 
C 2067 96 1690 -26 1466 -26 
z
" transform="scale(0.015625)"/>
       </defs>
       <use xlink:href="#CMSY10-0" transform="scale(0.996264)"/>
       <use xlink:href="#CMR17-31" transform="translate(77.487468 0)scale(0.996264)"/>
       <use xlink:href="#CMR17-30" transform="translate(123.177945 0)scale(0.996264)"/>
      </g>
     </g>
    </g>
    <g id="xtick_2">
     <g id="line2d_2">
      <g>
       <use xlink:href="#m3fa3c4a16f" x="121.154742" y="169.058826" style="stroke: #000000; stroke-width: 0.8"/>
      </g>
     </g>
     <g id="text_2">
      <!-- $\mathdefault{−5}$ -->
      <g transform="translate(114.789703 182.977324)scale(0.1 -0.1)">
       <defs>
        <path id="CMR17-35" d="M 730 3750 
C 794 3724 1056 3641 1325 3641 
C 1920 3641 2246 3961 2432 4140 
C 2432 4191 2432 4224 2394 4224 
C 2387 4224 2374 4224 2323 4198 
C 2099 4102 1837 4032 1517 4032 
C 1325 4032 1037 4055 723 4191 
C 653 4224 640 4224 634 4224 
C 602 4224 595 4217 595 4090 
L 595 2231 
C 595 2113 595 2080 659 2080 
C 691 2080 704 2093 736 2139 
C 941 2435 1222 2560 1542 2560 
C 1766 2560 2246 2415 2246 1293 
C 2246 1087 2246 716 2054 422 
C 1894 159 1645 25 1370 25 
C 947 25 518 319 403 812 
C 429 806 480 793 506 793 
C 589 793 749 838 749 1036 
C 749 1209 627 1280 506 1280 
C 358 1280 262 1190 262 1011 
C 262 454 704 -128 1382 -128 
C 2042 -128 2669 441 2669 1267 
C 2669 2054 2170 2662 1549 2662 
C 1222 2662 947 2540 730 2304 
L 730 3750 
z
" transform="scale(0.015625)"/>
       </defs>
       <use xlink:href="#CMSY10-0" transform="scale(0.996264)"/>
       <use xlink:href="#CMR17-35" transform="translate(77.487468 0)scale(0.996264)"/>
      </g>
     </g>
    </g>
    <g id="xtick_3">
     <g id="line2d_3">
      <g>
       <use xlink:href="#m3fa3c4a16f" x="226.253777" y="169.058826" style="stroke: #000000; stroke-width: 0.8"/>
      </g>
     </g>
    </g>
    <g id="xtick_4">
     <g id="line2d_4">
      <g>
       <use xlink:href="#m3fa3c4a16f" x="331.352812" y="169.058826" style="stroke: #000000; stroke-width: 0.8"/>
      </g>
     </g>
     <g id="text_3">
      <!-- $\mathdefault{5}$ -->
      <g transform="translate(328.862144 182.977324)scale(0.1 -0.1)">
       <use xlink:href="#CMR17-35" transform="scale(0.996264)"/>
      </g>
     </g>
    </g>
    <g id="xtick_5">
     <g id="line2d_5">
      <g>
       <use xlink:href="#m3fa3c4a16f" x="436.451847" y="169.058826" style="stroke: #000000; stroke-width: 0.8"/>
      </g>
     </g>
     <g id="text_4">
      <!-- $\mathdefault{10}$ -->
      <g transform="translate(431.470511 182.977324)scale(0.1 -0.1)">
       <use xlink:href="#CMR17-31" transform="scale(0.996264)"/>
       <use xlink:href="#CMR17-30" transform="translate(45.690477 0)scale(0.996264)"/>
      </g>
     </g>
    </g>
    <g id="xtick_6">
     <g id="line2d_6">
      <defs>
       <path id="m45681f76bd" d="M 0 0 
L 0 2 
" style="stroke: #000000; stroke-width: 0.6"/>
      </defs>
      <g>
       <use xlink:href="#m45681f76bd" x="37.075514" y="169.058826" style="stroke: #000000; stroke-width: 0.6"/>
      </g>
     </g>
    </g>
    <g id="xtick_7">
     <g id="line2d_7">
      <g>
       <use xlink:href="#m45681f76bd" x="58.095321" y="169.058826" style="stroke: #000000; stroke-width: 0.6"/>
      </g>
     </g>
    </g>
    <g id="xtick_8">
     <g id="line2d_8">
      <g>
       <use xlink:href="#m45681f76bd" x="79.115128" y="169.058826" style="stroke: #000000; stroke-width: 0.6"/>
      </g>
     </g>
    </g>
    <g id="xtick_9">
     <g id="line2d_9">
      <g>
       <use xlink:href="#m45681f76bd" x="100.134935" y="169.058826" style="stroke: #000000; stroke-width: 0.6"/>
      </g>
     </g>
    </g>
    <g id="xtick_10">
     <g id="line2d_10">
      <g>
       <use xlink:href="#m45681f76bd" x="142.174549" y="169.058826" style="stroke: #000000; stroke-width: 0.6"/>
      </g>
     </g>
    </g>
    <g id="xtick_11">
     <g id="line2d_11">
      <g>
       <use xlink:href="#m45681f76bd" x="163.194356" y="169.058826" style="stroke: #000000; stroke-width: 0.6"/>
      </g>
     </g>
    </g>
    <g id="xtick_12">
     <g id="line2d_12">
      <g>
       <use xlink:href="#m45681f76bd" x="184.214163" y="169.058826" style="stroke: #000000; stroke-width: 0.6"/>
      </g>
     </g>
    </g>
    <g id="xtick_13">
     <g id="line2d_13">
      <g>
       <use xlink:href="#m45681f76bd" x="205.23397" y="169.058826" style="stroke: #000000; stroke-width: 0.6"/>
      </g>
     </g>
    </g>
    <g id="xtick_14">
     <g id="line2d_14">
      <g>
       <use xlink:href="#m45681f76bd" x="247.273584" y="169.058826" style="stroke: #000000; stroke-width: 0.6"/>
      </g>
     </g>
    </g>
    <g id="xtick_15">
     <g id="line2d_15">
      <g>
       <use xlink:href="#m45681f76bd" x="268.293391" y="169.058826" style="stroke: #000000; stroke-width: 0.6"/>
      </g>
     </g>
    </g>
    <g id="xtick_16">
     <g id="line2d_16">
      <g>
       <use xlink:href="#m45681f76bd" x="289.313198" y="169.058826" style="stroke: #000000; stroke-width: 0.6"/>
      </g>
     </g>
    </g>
    <g id="xtick_17">
     <g id="line2d_17">
      <g>
       <use xlink:href="#m45681f76bd" x="310.333005" y="169.058826" style="stroke: #000000; stroke-width: 0.6"/>
      </g>
     </g>
    </g>
    <g id="xtick_18">
     <g id="line2d_18">
      <g>
       <use xlink:href="#m45681f76bd" x="352.372619" y="169.058826" style="stroke: #000000; stroke-width: 0.6"/>
      </g>
     </g>
    </g>
    <g id="xtick_19">
     <g id="line2d_19">
      <g>
       <use xlink:href="#m45681f76bd" x="373.392426" y="169.058826" style="stroke: #000000; stroke-width: 0.6"/>
      </g>
     </g>
    </g>
    <g id="xtick_20">
     <g id="line2d_20">
      <g>
       <use xlink:href="#m45681f76bd" x="394.412233" y="169.058826" style="stroke: #000000; stroke-width: 0.6"/>
      </g>
     </g>
    </g>
    <g id="xtick_21">
     <g id="line2d_21">
      <g>
       <use xlink:href="#m45681f76bd" x="415.43204" y="169.058826" style="stroke: #000000; stroke-width: 0.6"/>
      </g>
     </g>
    </g>
   </g>
   <g id="matplotlib.axis_2">
    <g id="ytick_1">
     <g id="line2d_22">
      <defs>
       <path id="m42e5d82e80" d="M 0 0 
L -3.5 0 
" style="stroke: #000000; stroke-width: 0.8"/>
      </defs>
      <g>
       <use xlink:href="#m42e5d82e80" x="226.253777" y="324.696561" style="stroke: #000000; stroke-width: 0.8"/>
      </g>
     </g>
     <g id="text_5">
      <!-- $\mathdefault{−1.0}$ -->
      <g transform="translate(198.774954 328.15581)scale(0.1 -0.1)">
       <defs>
        <path id="CMMI12-3a" d="M 1178 307 
C 1178 492 1024 620 870 620 
C 685 620 557 467 557 313 
C 557 128 710 0 864 0 
C 1050 0 1178 153 1178 307 
z
" transform="scale(0.015625)"/>
       </defs>
       <use xlink:href="#CMSY10-0" transform="scale(0.996264)"/>
       <use xlink:href="#CMR17-31" transform="translate(77.487468 0)scale(0.996264)"/>
       <use xlink:href="#CMMI12-3a" transform="translate(123.177945 0)scale(0.996264)"/>
       <use xlink:href="#CMR17-30" transform="translate(150.275122 0)scale(0.996264)"/>
      </g>
     </g>
    </g>
    <g id="ytick_2">
     <g id="line2d_23">
      <g>
       <use xlink:href="#m42e5d82e80" x="226.253777" y="246.877694" style="stroke: #000000; stroke-width: 0.8"/>
      </g>
     </g>
     <g id="text_6">
      <!-- $\mathdefault{−0.5}$ -->
      <g transform="translate(198.774954 250.336943)scale(0.1 -0.1)">
       <use xlink:href="#CMSY10-0" transform="scale(0.996264)"/>
       <use xlink:href="#CMR17-30" transform="translate(77.487468 0)scale(0.996264)"/>
       <use xlink:href="#CMMI12-3a" transform="translate(123.177945 0)scale(0.996264)"/>
       <use xlink:href="#CMR17-35" transform="translate(150.275122 0)scale(0.996264)"/>
      </g>
     </g>
    </g>
    <g id="ytick_3">
     <g id="line2d_24">
      <g>
       <use xlink:href="#m42e5d82e80" x="226.253777" y="169.058826" style="stroke: #000000; stroke-width: 0.8"/>
      </g>
     </g>
    </g>
    <g id="ytick_4">
     <g id="line2d_25">
      <g>
       <use xlink:href="#m42e5d82e80" x="226.253777" y="91.239958" style="stroke: #000000; stroke-width: 0.8"/>
      </g>
     </g>
     <g id="text_7">
      <!-- $\mathdefault{0.5}$ -->
      <g transform="translate(206.523698 94.699207)scale(0.1 -0.1)">
       <use xlink:href="#CMR17-30" transform="scale(0.996264)"/>
       <use xlink:href="#CMMI12-3a" transform="translate(45.690477 0)scale(0.996264)"/>
       <use xlink:href="#CMR17-35" transform="translate(72.787654 0)scale(0.996264)"/>
      </g>
     </g>
    </g>
    <g id="ytick_5">
     <g id="line2d_26">
      <g>
       <use xlink:href="#m42e5d82e80" x="226.253777" y="13.421091" style="stroke: #000000; stroke-width: 0.8"/>
      </g>
     </g>
     <g id="text_8">
      <!-- $\mathdefault{1.0}$ -->
      <g transform="translate(206.523698 16.88034)scale(0.1 -0.1)">
       <use xlink:href="#CMR17-31" transform="scale(0.996264)"/>
       <use xlink:href="#CMMI12-3a" transform="translate(45.690477 0)scale(0.996264)"/>
       <use xlink:href="#CMR17-30" transform="translate(72.787654 0)scale(0.996264)"/>
      </g>
     </g>
    </g>
    <g id="ytick_6">
     <g id="line2d_27">
      <defs>
       <path id="mb69c5dc98a" d="M 0 0 
L -2 0 
" style="stroke: #000000; stroke-width: 0.6"/>
      </defs>
      <g>
       <use xlink:href="#mb69c5dc98a" x="226.253777" y="309.132788" style="stroke: #000000; stroke-width: 0.6"/>
      </g>
     </g>
    </g>
    <g id="ytick_7">
     <g id="line2d_28">
      <g>
       <use xlink:href="#mb69c5dc98a" x="226.253777" y="293.569014" style="stroke: #000000; stroke-width: 0.6"/>
      </g>
     </g>
    </g>
    <g id="ytick_8">
     <g id="line2d_29">
      <g>
       <use xlink:href="#mb69c5dc98a" x="226.253777" y="278.005241" style="stroke: #000000; stroke-width: 0.6"/>
      </g>
     </g>
    </g>
    <g id="ytick_9">
     <g id="line2d_30">
      <g>
       <use xlink:href="#mb69c5dc98a" x="226.253777" y="262.441467" style="stroke: #000000; stroke-width: 0.6"/>
      </g>
     </g>
    </g>
    <g id="ytick_10">
     <g id="line2d_31">
      <g>
       <use xlink:href="#mb69c5dc98a" x="226.253777" y="231.31392" style="stroke: #000000; stroke-width: 0.6"/>
      </g>
     </g>
    </g>
    <g id="ytick_11">
     <g id="line2d_32">
      <g>
       <use xlink:href="#mb69c5dc98a" x="226.253777" y="215.750147" style="stroke: #000000; stroke-width: 0.6"/>
      </g>
     </g>
    </g>
    <g id="ytick_12">
     <g id="line2d_33">
      <g>
       <use xlink:href="#mb69c5dc98a" x="226.253777" y="200.186373" style="stroke: #000000; stroke-width: 0.6"/>
      </g>
     </g>
    </g>
    <g id="ytick_13">
     <g id="line2d_34">
      <g>
       <use xlink:href="#mb69c5dc98a" x="226.253777" y="184.6226" style="stroke: #000000; stroke-width: 0.6"/>
      </g>
     </g>
    </g>
    <g id="ytick_14">
     <g id="line2d_35">
      <g>
       <use xlink:href="#mb69c5dc98a" x="226.253777" y="153.495052" style="stroke: #000000; stroke-width: 0.6"/>
      </g>
     </g>
    </g>
    <g id="ytick_15">
     <g id="line2d_36">
      <g>
       <use xlink:href="#mb69c5dc98a" x="226.253777" y="137.931279" style="stroke: #000000; stroke-width: 0.6"/>
      </g>
     </g>
    </g>
    <g id="ytick_16">
     <g id="line2d_37">
      <g>
       <use xlink:href="#mb69c5dc98a" x="226.253777" y="122.367505" style="stroke: #000000; stroke-width: 0.6"/>
      </g>
     </g>
    </g>
    <g id="ytick_17">
     <g id="line2d_38">
      <g>
       <use xlink:href="#mb69c5dc98a" x="226.253777" y="106.803732" style="stroke: #000000; stroke-width: 0.6"/>
      </g>
     </g>
    </g>
    <g id="ytick_18">
     <g id="line2d_39">
      <g>
       <use xlink:href="#mb69c5dc98a" x="226.253777" y="75.676185" style="stroke: #000000; stroke-width: 0.6"/>
      </g>
     </g>
    </g>
    <g id="ytick_19">
     <g id="line2d_40">
      <g>
       <use xlink:href="#mb69c5dc98a" x="226.253777" y="60.112411" style="stroke: #000000; stroke-width: 0.6"/>
      </g>
     </g>
    </g>
    <g id="ytick_20">
     <g id="line2d_41">
      <g>
       <use xlink:href="#mb69c5dc98a" x="226.253777" y="44.548638" style="stroke: #000000; stroke-width: 0.6"/>
      </g>
     </g>
    </g>
    <g id="ytick_21">
     <g id="line2d_42">
      <g>
       <use xlink:href="#mb69c5dc98a" x="226.253777" y="28.984864" style="stroke: #000000; stroke-width: 0.6"/>
      </g>
     </g>
    </g>
   </g>
   <g id="line2d_43">
    <path d="M 16.055707 84.388612 
L 20.506496 113.725176 
L 24.820858 144.53533 
L 35.372598 221.513792 
L 39.496956 249.074591 
L 42.676192 268.275072 
L 45.508748 283.485845 
L 47.784959 294.217396 
L 48.94114 299.114099 
L 50.462619 304.956258 
L 51.984098 310.086718 
L 53.461852 314.362924 
L 54.939607 317.92126 
L 55.782768 319.622991 
L 57.139016 321.85107 
L 58.495264 323.443276 
L 59.685688 324.311498 
L 60.876112 324.681903 
L 61.898536 324.601698 
L 62.92096 324.153558 
L 63.90053 323.38005 
L 64.880101 322.271451 
L 65.812087 320.907827 
L 67.115974 318.499882 
L 68.419862 315.517089 
L 69.470399 312.70344 
L 70.520936 309.531063 
L 72.48504 302.665699 
L 74.157444 295.898462 
L 76.688353 284.146565 
L 80.178592 265.246017 
L 82.897577 248.659275 
L 86.750193 222.950125 
L 90.883887 193.382266 
L 100.236733 124.848016 
L 102.81541 106.919317 
L 106.809654 81.085458 
L 110.06159 62.352446 
L 112.55524 49.692816 
L 114.908425 39.282379 
L 116.157426 34.409408 
L 117.805046 28.710804 
L 119.631727 23.401648 
L 121.085142 19.961023 
L 123.149429 16.30229 
L 124.248338 14.953329 
L 125.347248 14.025467 
L 126.980965 13.429561 
L 128.384124 13.66787 
L 129.787282 14.598361 
L 131.486673 16.645929 
L 133.390458 20.121389 
L 135.243209 24.676253 
L 137.91178 33.195804 
L 139.368613 38.779836 
L 140.825446 44.989419 
L 142.241137 51.594661 
L 144.454592 62.977383 
L 147.36742 79.725523 
L 150.516177 99.746102 
L 154.084281 124.283757 
L 157.323056 147.69061 
L 165.282838 206.197999 
L 168.996405 232.183389 
L 170.712247 243.57309 
L 173.707556 262.223227 
L 176.36696 277.210101 
L 179.247039 291.483728 
L 181.787311 302.176395 
L 183.693542 308.932392 
L 184.952429 312.766883 
L 186.468586 316.69986 
L 188.280506 320.391506 
L 189.682716 322.478168 
L 191.084926 323.882353 
L 192.620809 324.629922 
L 194.156693 324.547267 
L 195.300536 323.946412 
L 196.44438 322.887008 
L 197.483972 321.529007 
L 198.530971 319.784469 
L 199.57797 317.666051 
L 200.983196 314.244517 
L 202.388422 310.174353 
L 204.339222 303.483261 
L 206.5464 294.521195 
L 208.207036 286.861261 
L 211.027 272.197968 
L 213.558792 257.445647 
L 216.31821 239.916153 
L 220.084943 214.0821 
L 226.076631 170.370458 
L 231.291343 132.115026 
L 234.925294 106.65778 
L 237.016351 92.805717 
L 239.10653 79.712985 
L 241.118774 67.940958 
L 244.355465 50.990905 
L 245.511507 45.595162 
L 247.417761 37.520479 
L 249.324016 30.526879 
L 250.553471 26.617038 
L 251.905175 22.881132 
L 253.256879 19.749504 
L 254.927217 16.733467 
L 256.707824 14.577345 
L 257.91209 13.746514 
L 259.116356 13.425336 
L 260.102248 13.542595 
L 261.08814 14.00191 
L 262.143918 14.871909 
L 263.199697 16.130813 
L 264.690435 18.564258 
L 266.181173 21.754335 
L 267.988744 26.614025 
L 269.298704 30.796144 
L 270.960199 36.870477 
L 272.621695 43.770293 
L 275.407428 57.070331 
L 278.32907 73.124848 
L 279.40691 79.532496 
L 281.614276 93.370535 
L 285.437261 119.21676 
L 291.571755 163.745814 
L 298.273588 212.771309 
L 301.117211 232.517981 
L 304.848962 256.61819 
L 308.300087 276.471832 
L 309.75237 283.991117 
L 311.886793 294.037366 
L 313.572516 301.06636 
L 314.988204 306.315541 
L 316.403891 310.942354 
L 317.995124 315.374011 
L 319.376902 318.543233 
L 320.75868 321.066714 
L 321.83821 322.581765 
L 322.91774 323.691969 
L 324.191716 324.477424 
L 325.465693 324.692142 
L 326.275821 324.531372 
L 327.882478 323.530009 
L 328.880196 322.453577 
L 329.877914 321.031613 
L 331.269113 318.47824 
L 332.660312 315.270578 
L 333.765109 312.26638 
L 334.869907 308.866658 
L 336.159179 304.411753 
L 338.582257 294.676495 
L 339.716064 289.539797 
L 342.445691 275.76668 
L 344.884577 261.932889 
L 348.82835 237.008162 
L 353.211325 206.550672 
L 366.565476 109.595323 
L 369.496351 90.182501 
L 371.969387 74.9787 
L 374.131278 62.746547 
L 376.318659 51.514203 
L 378.439498 41.836788 
L 379.774262 36.404031 
L 382.101012 28.223975 
L 383.092997 25.255557 
L 384.963551 20.534069 
L 386.794912 17.050046 
L 388.626273 14.719168 
L 389.783817 13.849045 
L 391.521362 13.426697 
L 393.067409 13.944555 
L 394.613456 15.301186 
L 395.263737 16.120777 
L 396.652525 18.360054 
L 398.041314 21.256938 
L 399.029603 23.712062 
L 400.017893 26.488432 
L 401.258392 30.41851 
L 402.498891 34.831311 
L 403.975584 40.692253 
L 405.464034 47.240638 
L 406.952485 54.399603 
L 409.701483 69.103551 
L 410.957562 76.40661 
L 414.389832 97.968282 
L 417.726293 120.746361 
L 423.71617 164.28659 
L 429.905901 209.642129 
L 432.676949 229.040624 
L 436.451847 253.72904 
L 436.451847 253.72904 
" clip-path="url(#p4c605de4f1)" style="fill: none; stroke: #0000ff; stroke-linecap: square"/>
   </g>
   <g id="patch_3">
    <path d="M 226.253777 330.917478 
L 226.253777 7.2 
" style="fill: none; stroke: #000000; stroke-width: 0.8; stroke-linejoin: miter; stroke-linecap: square"/>
   </g>
   <g id="patch_4">
    <path d="M 7.647784 169.058826 
L 444.85977 169.058826 
" style="fill: none; stroke: #000000; stroke-width: 0.8; stroke-linejoin: miter; stroke-linecap: square"/>
   </g>
  </g>
 </g>
 <defs>
  <clipPath id="p4c605de4f1">
   <rect x="7.647784" y="7.2" width="437.211985" height="323.717478"/>
  </clipPath>
 </defs>
</svg>
