<?xml version="1.0" encoding="utf-8" standalone="no"?>
<!DOCTYPE svg PUBLIC "-//W3C//DTD SVG 1.1//EN"
  "http://www.w3.org/Graphics/SVG/1.1/DTD/svg11.dtd">
<svg xmlns:xlink="http://www.w3.org/1999/xlink" width="453.6pt" height="337.493272pt" viewBox="0 0 453.6 337.493272" xmlns="http://www.w3.org/2000/svg" version="1.1">
 <metadata>
  <rdf:RDF xmlns:dc="http://purl.org/dc/elements/1.1/" xmlns:cc="http://creativecommons.org/ns#" xmlns:rdf="http://www.w3.org/1999/02/22-rdf-syntax-ns#">
   <cc:Work>
    <dc:type rdf:resource="http://purl.org/dc/dcmitype/StillImage"/>
    <dc:date>2022-09-15T18:54:52.228079</dc:date>
    <dc:format>image/svg+xml</dc:format>
    <dc:creator>
     <cc:Agent>
      <dc:title>Matplotlib v3.5.1, https://matplotlib.org/</dc:title>
     </cc:Agent>
    </dc:creator>
   </cc:Work>
  </rdf:RDF>
 </metadata>
 <defs>
  <style type="text/css">*{stroke-linejoin: round; stroke-linecap: butt}</style>
 </defs>
 <g id="figure_1">
  <g id="patch_1">
   <path d="M 0 337.493272 
L 453.6 337.493272 
L 453.6 0 
L 0 0 
L 0 337.493272 
z
" style="fill: none"/>
  </g>
  <g id="axes_1">
   <g id="patch_2">
    <path d="M 36.930079 320.461862 
L 446.4 320.461862 
L 446.4 7.2 
L 36.930079 7.2 
L 36.930079 320.461862 
z
" style="fill: none"/>
   </g>
   <g id="patch_3">
    <path d="M 55.741197 314.437595 
L 55.741197 73.466932 
L 57.09038 79.269144 
L 58.439562 84.798508 
L 58.830848 86.353807 
L 60.208302 91.66525 
L 61.585756 96.734946 
L 62.586298 100.275099 
L 64.296674 106.067389 
L 66.00705 111.55461 
L 66.732447 113.795511 
L 69.042809 120.614004 
L 70.831846 125.58372 
L 73.132306 131.611515 
L 74.36195 134.678337 
L 76.107848 138.860092 
L 78.515855 144.318418 
L 79.917277 147.341624 
L 83.229998 154.077988 
L 83.912019 155.397999 
L 86.729248 160.627869 
L 87.888334 162.681048 
L 89.578616 165.578796 
L 92.585077 170.468461 
L 94.650567 173.6457 
L 96.661112 176.606562 
L 98.897161 179.756589 
L 100.6113 182.07556 
L 101.324377 183.016894 
L 103.687572 186.043038 
L 105.712901 188.527781 
L 107.930808 191.140751 
L 110.024131 193.509372 
L 111.919958 195.577335 
L 113.809573 197.569321 
L 115.253668 199.04721 
L 117.722833 201.489396 
L 120.129353 203.772157 
L 121.036206 204.608617 
L 122.509206 205.940655 
L 125.671693 208.69412 
L 127.651977 210.34824 
L 129.212062 211.61537 
L 130.039759 212.275196 
L 133.477201 214.927202 
L 134.42226 215.632361 
L 136.910099 217.441763 
L 137.832876 218.096161 
L 139.975753 219.582274 
L 142.876364 221.522346 
L 144.322294 222.460114 
L 146.847155 224.05303 
L 147.636189 224.539572 
L 150.541992 226.287086 
L 151.560669 226.883732 
L 153.177724 227.81444 
L 155.655928 229.203006 
L 156.826472 229.843513 
L 160.496795 231.790887 
L 160.599323 231.843999 
L 163.571116 233.354343 
L 165.953264 234.525705 
L 166.482438 234.781333 
L 169.900109 236.393718 
L 171.691365 237.212997 
L 173.10382 237.846991 
L 175.300563 238.812597 
L 177.654561 239.820662 
L 179.41655 240.557795 
L 179.970549 240.786562 
L 182.953118 241.99423 
L 185.061441 242.824289 
L 186.493234 243.377233 
L 188.207228 244.028034 
L 190.173566 244.76012 
L 192.339967 245.549264 
L 193.573362 245.990613 
L 196.348172 246.963151 
L 198.201589 247.597501 
L 200.440949 248.348211 
L 202.579527 249.049561 
L 202.98883 249.182099 
L 206.451702 250.282284 
L 208.592375 250.944032 
L 208.913357 251.042082 
L 211.456477 251.808353 
L 214.088694 252.582201 
L 215.819546 253.080719 
L 217.631802 253.594143 
L 218.369694 253.800739 
L 220.827522 254.478881 
L 222.38419 254.900592 
L 225.953048 255.845383 
L 227.341388 256.204869 
L 227.946997 256.360303 
L 231.530335 257.263276 
L 232.140024 257.414125 
L 233.715563 257.800283 
L 237.468851 258.699463 
L 238.933174 259.042578 
L 239.769313 259.236611 
L 242.78274 259.924766 
L 243.317465 260.045088 
L 246.268242 260.699629 
L 247.14882 260.891917 
L 249.58603 261.417016 
L 252.318379 261.993592 
L 254.253405 262.39439 
L 255.078942 262.563524 
L 257.730371 263.099384 
L 258.917817 263.335796 
L 261.988799 263.93723 
L 263.938439 264.311763 
L 265.760555 264.65681 
L 266.960111 264.881385 
L 268.738741 265.210665 
L 270.440548 265.521653 
L 272.149448 265.830008 
L 275.207945 266.372288 
L 277.047405 266.692641 
L 278.868045 267.005539 
L 281.262046 267.410788 
L 283.655541 267.809087 
L 285.240764 268.069189 
L 287.286141 268.400535 
L 288.247612 268.554661 
L 290.151589 268.856847 
L 291.87308 269.126664 
L 294.48275 269.529651 
L 297.039205 269.91753 
L 297.308115 269.957942 
L 299.813185 270.330904 
L 301.341039 270.555321 
L 303.212886 270.827171 
L 306.059477 271.234189 
L 306.958107 271.361105 
L 309.328698 271.692362 
L 310.660106 271.876183 
L 314.132323 272.348218 
L 315.145561 272.483998 
L 317.204004 272.757159 
L 319.631008 273.074696 
L 321.951041 273.373746 
L 322.667692 273.46525 
L 324.27995 273.669623 
L 327.156396 274.029228 
L 329.420467 274.307845 
L 329.880224 274.363954 
L 332.592547 274.691801 
L 334.131372 274.87543 
L 335.908642 275.085412 
L 337.926842 275.321173 
L 341.268127 275.705344 
L 342.142123 275.804592 
L 344.811724 276.104616 
L 346.663957 276.310057 
L 348.377459 276.498159 
L 349.398603 276.609377 
L 351.82767 276.871336 
L 354.629109 277.168983 
L 356.71145 277.38719 
L 358.68679 277.591835 
L 360.499903 277.777694 
L 361.360938 277.865302 
L 364.367018 278.167907 
L 366.315942 278.361433 
L 367.98534 278.525567 
L 369.839638 278.706139 
L 371.293008 278.846404 
L 373.915006 279.096687 
L 374.946411 279.194178 
L 376.828383 279.370688 
L 378.894304 279.562426 
L 381.51601 279.802747 
L 382.779169 279.917358 
L 385.205835 280.135423 
L 386.753289 280.273047 
L 388.824464 280.45553 
L 390.491578 280.601002 
L 392.292516 280.756759 
L 393.431839 280.854557 
L 395.77733 281.054113 
L 398.058692 281.245951 
L 400.181011 281.422446 
L 401.842129 281.559283 
L 404.209627 281.75236 
L 406.023871 281.898789 
L 407.039433 281.980185 
L 409.156077 282.148529 
L 412.10894 282.380483 
L 413.392398 282.480266 
L 414.575173 282.571673 
L 418.208031 282.849185 
L 419.2436 282.927409 
L 421.230628 283.076423 
L 423.654547 283.256303 
L 425.336556 283.379918 
L 426.469237 283.462611 
L 428.182794 283.586878 
L 430.242828 283.734957 
L 432.125726 283.869066 
L 434.054689 284.005246 
L 436.463861 284.173633 
L 438.525578 284.316262 
L 438.525578 314.437595 
z
" clip-path="url(#pb535395c01)" style="fill: #808080; opacity: 0.5"/>
   </g>
   <g id="matplotlib.axis_1">
    <g id="xtick_1">
     <g id="line2d_1">
      <defs>
       <path id="m0ea1e2e7de" d="M 0 0 
L 0 3.5 
" style="stroke: #000000; stroke-width: 0.8"/>
      </defs>
      <g>
       <use xlink:href="#m0ea1e2e7de" x="55.741197" y="314.437595" style="stroke: #000000; stroke-width: 0.8"/>
      </g>
     </g>
     <g id="text_1">
      <!-- $\mathdefault{1}$ -->
      <g transform="translate(53.25053 328.356094)scale(0.1 -0.1)">
       <defs>
        <path id="CMR17-31" d="M 1702 4083 
C 1702 4217 1696 4224 1606 4224 
C 1357 3927 979 3833 621 3820 
C 602 3820 570 3820 563 3808 
C 557 3795 557 3782 557 3648 
C 755 3648 1088 3686 1344 3839 
L 1344 467 
C 1344 243 1331 166 781 166 
L 589 166 
L 589 0 
C 896 6 1216 12 1523 12 
C 1830 12 2150 6 2458 0 
L 2458 166 
L 2266 166 
C 1715 166 1702 236 1702 467 
L 1702 4083 
z
" transform="scale(0.015625)"/>
       </defs>
       <use xlink:href="#CMR17-31" transform="scale(0.996264)"/>
      </g>
     </g>
    </g>
    <g id="xtick_2">
     <g id="line2d_2">
      <g>
       <use xlink:href="#m0ea1e2e7de" x="110.42468" y="314.437595" style="stroke: #000000; stroke-width: 0.8"/>
      </g>
     </g>
     <g id="text_2">
      <!-- $\mathdefault{2}$ -->
      <g transform="translate(107.934013 328.356094)scale(0.1 -0.1)">
       <defs>
        <path id="CMR17-32" d="M 2669 990 
L 2554 990 
C 2490 537 2438 460 2413 422 
C 2381 371 1920 371 1830 371 
L 602 371 
C 832 620 1280 1073 1824 1596 
C 2214 1966 2669 2400 2669 3033 
C 2669 3788 2067 4224 1395 4224 
C 691 4224 262 3603 262 3027 
C 262 2777 448 2745 525 2745 
C 589 2745 781 2783 781 3007 
C 781 3206 614 3264 525 3264 
C 486 3264 448 3257 422 3244 
C 544 3788 915 4057 1306 4057 
C 1862 4057 2227 3616 2227 3033 
C 2227 2477 1901 1998 1536 1583 
L 262 147 
L 262 0 
L 2515 0 
L 2669 990 
z
" transform="scale(0.015625)"/>
       </defs>
       <use xlink:href="#CMR17-32" transform="scale(0.996264)"/>
      </g>
     </g>
    </g>
    <g id="xtick_3">
     <g id="line2d_3">
      <g>
       <use xlink:href="#m0ea1e2e7de" x="165.108163" y="314.437595" style="stroke: #000000; stroke-width: 0.8"/>
      </g>
     </g>
     <g id="text_3">
      <!-- $\mathdefault{3}$ -->
      <g transform="translate(162.617496 328.356094)scale(0.1 -0.1)">
       <defs>
        <path id="CMR17-33" d="M 1414 2176 
C 1984 2176 2234 1673 2234 1094 
C 2234 322 1824 25 1453 25 
C 1114 25 563 193 390 691 
C 422 678 454 678 486 678 
C 640 678 755 780 755 947 
C 755 1132 614 1216 486 1216 
C 378 1216 211 1164 211 927 
C 211 335 787 -128 1466 -128 
C 2176 -128 2720 432 2720 1087 
C 2720 1718 2208 2176 1600 2246 
C 2086 2347 2554 2776 2554 3353 
C 2554 3856 2048 4224 1472 4224 
C 890 4224 378 3862 378 3347 
C 378 3123 544 3084 627 3084 
C 762 3084 877 3167 877 3334 
C 877 3500 762 3584 627 3584 
C 602 3584 570 3584 544 3571 
C 730 3999 1235 4076 1459 4076 
C 1683 4076 2106 3966 2106 3347 
C 2106 3167 2080 2851 1862 2574 
C 1670 2329 1453 2316 1242 2297 
C 1210 2297 1062 2284 1037 2284 
C 992 2278 966 2272 966 2227 
C 966 2182 973 2176 1101 2176 
L 1414 2176 
z
" transform="scale(0.015625)"/>
       </defs>
       <use xlink:href="#CMR17-33" transform="scale(0.996264)"/>
      </g>
     </g>
    </g>
    <g id="xtick_4">
     <g id="line2d_4">
      <g>
       <use xlink:href="#m0ea1e2e7de" x="219.791646" y="314.437595" style="stroke: #000000; stroke-width: 0.8"/>
      </g>
     </g>
     <g id="text_4">
      <!-- $\mathdefault{4}$ -->
      <g transform="translate(217.300979 328.356094)scale(0.1 -0.1)">
       <defs>
        <path id="CMR17-34" d="M 2150 4147 
C 2150 4281 2144 4288 2029 4288 
L 128 1254 
L 128 1088 
L 1779 1088 
L 1779 460 
C 1779 230 1766 166 1318 166 
L 1197 166 
L 1197 0 
C 1402 12 1747 12 1965 12 
C 2182 12 2528 12 2733 0 
L 2733 166 
L 2611 166 
C 2163 166 2150 230 2150 460 
L 2150 1088 
L 2803 1088 
L 2803 1254 
L 2150 1254 
L 2150 4147 
z
M 1798 3723 
L 1798 1254 
L 256 1254 
L 1798 3723 
z
" transform="scale(0.015625)"/>
       </defs>
       <use xlink:href="#CMR17-34" transform="scale(0.996264)"/>
      </g>
     </g>
    </g>
    <g id="xtick_5">
     <g id="line2d_5">
      <g>
       <use xlink:href="#m0ea1e2e7de" x="274.475129" y="314.437595" style="stroke: #000000; stroke-width: 0.8"/>
      </g>
     </g>
     <g id="text_5">
      <!-- $\mathdefault{5}$ -->
      <g transform="translate(271.984462 328.356094)scale(0.1 -0.1)">
       <defs>
        <path id="CMR17-35" d="M 730 3750 
C 794 3724 1056 3641 1325 3641 
C 1920 3641 2246 3961 2432 4140 
C 2432 4191 2432 4224 2394 4224 
C 2387 4224 2374 4224 2323 4198 
C 2099 4102 1837 4032 1517 4032 
C 1325 4032 1037 4055 723 4191 
C 653 4224 640 4224 634 4224 
C 602 4224 595 4217 595 4090 
L 595 2231 
C 595 2113 595 2080 659 2080 
C 691 2080 704 2093 736 2139 
C 941 2435 1222 2560 1542 2560 
C 1766 2560 2246 2415 2246 1293 
C 2246 1087 2246 716 2054 422 
C 1894 159 1645 25 1370 25 
C 947 25 518 319 403 812 
C 429 806 480 793 506 793 
C 589 793 749 838 749 1036 
C 749 1209 627 1280 506 1280 
C 358 1280 262 1190 262 1011 
C 262 454 704 -128 1382 -128 
C 2042 -128 2669 441 2669 1267 
C 2669 2054 2170 2662 1549 2662 
C 1222 2662 947 2540 730 2304 
L 730 3750 
z
" transform="scale(0.015625)"/>
       </defs>
       <use xlink:href="#CMR17-35" transform="scale(0.996264)"/>
      </g>
     </g>
    </g>
    <g id="xtick_6">
     <g id="line2d_6">
      <g>
       <use xlink:href="#m0ea1e2e7de" x="329.158612" y="314.437595" style="stroke: #000000; stroke-width: 0.8"/>
      </g>
     </g>
     <g id="text_6">
      <!-- $\mathdefault{6}$ -->
      <g transform="translate(326.667945 328.356094)scale(0.1 -0.1)">
       <defs>
        <path id="CMR17-36" d="M 678 2198 
C 678 3712 1395 4076 1811 4076 
C 1946 4076 2272 4049 2400 3782 
C 2298 3782 2106 3782 2106 3558 
C 2106 3385 2246 3328 2336 3328 
C 2394 3328 2566 3353 2566 3571 
C 2566 3987 2246 4224 1805 4224 
C 1043 4224 243 3411 243 2011 
C 243 257 966 -128 1478 -128 
C 2099 -128 2688 431 2688 1295 
C 2688 2101 2170 2688 1517 2688 
C 1126 2688 838 2430 678 1979 
L 678 2198 
z
M 1478 25 
C 691 25 691 1212 691 1450 
C 691 1914 909 2585 1504 2585 
C 1613 2585 1926 2585 2138 2140 
C 2253 1889 2253 1624 2253 1302 
C 2253 954 2253 696 2118 438 
C 1978 173 1773 25 1478 25 
z
" transform="scale(0.015625)"/>
       </defs>
       <use xlink:href="#CMR17-36" transform="scale(0.996264)"/>
      </g>
     </g>
    </g>
    <g id="xtick_7">
     <g id="line2d_7">
      <g>
       <use xlink:href="#m0ea1e2e7de" x="383.842095" y="314.437595" style="stroke: #000000; stroke-width: 0.8"/>
      </g>
     </g>
     <g id="text_7">
      <!-- $\mathdefault{7}$ -->
      <g transform="translate(381.351428 328.356094)scale(0.1 -0.1)">
       <defs>
        <path id="CMR17-37" d="M 2886 3955 
L 2886 4096 
L 1382 4096 
C 634 4096 621 4166 595 4288 
L 480 4288 
L 294 3104 
L 410 3104 
C 429 3226 474 3552 550 3673 
C 589 3724 1062 3724 1171 3724 
L 2579 3724 
L 1869 2670 
C 1395 1961 1069 1003 1069 166 
C 1069 89 1069 -128 1299 -128 
C 1530 -128 1530 89 1530 172 
L 1530 466 
C 1530 1514 1709 2204 2003 2644 
L 2886 3955 
z
" transform="scale(0.015625)"/>
       </defs>
       <use xlink:href="#CMR17-37" transform="scale(0.996264)"/>
      </g>
     </g>
    </g>
    <g id="xtick_8">
     <g id="line2d_8">
      <g>
       <use xlink:href="#m0ea1e2e7de" x="438.525578" y="314.437595" style="stroke: #000000; stroke-width: 0.8"/>
      </g>
     </g>
     <g id="text_8">
      <!-- $\mathdefault{8}$ -->
      <g transform="translate(436.034911 328.356094)scale(0.1 -0.1)">
       <defs>
        <path id="CMR17-38" d="M 1741 2289 
C 2144 2494 2554 2803 2554 3298 
C 2554 3884 1990 4224 1472 4224 
C 890 4224 378 3800 378 3215 
C 378 3054 416 2777 666 2533 
C 730 2469 998 2276 1171 2154 
C 883 2006 211 1652 211 945 
C 211 282 838 -128 1459 -128 
C 2144 -128 2720 366 2720 1022 
C 2720 1607 2330 1877 2074 2051 
L 1741 2289 
z
M 902 2855 
C 851 2887 595 3086 595 3388 
C 595 3781 998 4076 1459 4076 
C 1965 4076 2336 3716 2336 3298 
C 2336 2700 1670 2359 1638 2359 
C 1632 2359 1626 2359 1574 2398 
L 902 2855 
z
M 2080 1536 
C 2176 1466 2483 1253 2483 861 
C 2483 385 2010 25 1472 25 
C 890 25 448 443 448 951 
C 448 1459 838 1884 1280 2083 
L 2080 1536 
z
" transform="scale(0.015625)"/>
       </defs>
       <use xlink:href="#CMR17-38" transform="scale(0.996264)"/>
      </g>
     </g>
    </g>
    <g id="xtick_9">
     <g id="line2d_9">
      <defs>
       <path id="m216530c189" d="M 0 0 
L 0 2 
" style="stroke: #000000; stroke-width: 0.6"/>
      </defs>
      <g>
       <use xlink:href="#m216530c189" x="44.804501" y="314.437595" style="stroke: #000000; stroke-width: 0.6"/>
      </g>
     </g>
    </g>
    <g id="xtick_10">
     <g id="line2d_10">
      <g>
       <use xlink:href="#m216530c189" x="66.677894" y="314.437595" style="stroke: #000000; stroke-width: 0.6"/>
      </g>
     </g>
    </g>
    <g id="xtick_11">
     <g id="line2d_11">
      <g>
       <use xlink:href="#m216530c189" x="77.61459" y="314.437595" style="stroke: #000000; stroke-width: 0.6"/>
      </g>
     </g>
    </g>
    <g id="xtick_12">
     <g id="line2d_12">
      <g>
       <use xlink:href="#m216530c189" x="88.551287" y="314.437595" style="stroke: #000000; stroke-width: 0.6"/>
      </g>
     </g>
    </g>
    <g id="xtick_13">
     <g id="line2d_13">
      <g>
       <use xlink:href="#m216530c189" x="99.487984" y="314.437595" style="stroke: #000000; stroke-width: 0.6"/>
      </g>
     </g>
    </g>
    <g id="xtick_14">
     <g id="line2d_14">
      <g>
       <use xlink:href="#m216530c189" x="121.361377" y="314.437595" style="stroke: #000000; stroke-width: 0.6"/>
      </g>
     </g>
    </g>
    <g id="xtick_15">
     <g id="line2d_15">
      <g>
       <use xlink:href="#m216530c189" x="132.298073" y="314.437595" style="stroke: #000000; stroke-width: 0.6"/>
      </g>
     </g>
    </g>
    <g id="xtick_16">
     <g id="line2d_16">
      <g>
       <use xlink:href="#m216530c189" x="143.23477" y="314.437595" style="stroke: #000000; stroke-width: 0.6"/>
      </g>
     </g>
    </g>
    <g id="xtick_17">
     <g id="line2d_17">
      <g>
       <use xlink:href="#m216530c189" x="154.171467" y="314.437595" style="stroke: #000000; stroke-width: 0.6"/>
      </g>
     </g>
    </g>
    <g id="xtick_18">
     <g id="line2d_18">
      <g>
       <use xlink:href="#m216530c189" x="176.04486" y="314.437595" style="stroke: #000000; stroke-width: 0.6"/>
      </g>
     </g>
    </g>
    <g id="xtick_19">
     <g id="line2d_19">
      <g>
       <use xlink:href="#m216530c189" x="186.981556" y="314.437595" style="stroke: #000000; stroke-width: 0.6"/>
      </g>
     </g>
    </g>
    <g id="xtick_20">
     <g id="line2d_20">
      <g>
       <use xlink:href="#m216530c189" x="197.918253" y="314.437595" style="stroke: #000000; stroke-width: 0.6"/>
      </g>
     </g>
    </g>
    <g id="xtick_21">
     <g id="line2d_21">
      <g>
       <use xlink:href="#m216530c189" x="208.85495" y="314.437595" style="stroke: #000000; stroke-width: 0.6"/>
      </g>
     </g>
    </g>
    <g id="xtick_22">
     <g id="line2d_22">
      <g>
       <use xlink:href="#m216530c189" x="230.728343" y="314.437595" style="stroke: #000000; stroke-width: 0.6"/>
      </g>
     </g>
    </g>
    <g id="xtick_23">
     <g id="line2d_23">
      <g>
       <use xlink:href="#m216530c189" x="241.665039" y="314.437595" style="stroke: #000000; stroke-width: 0.6"/>
      </g>
     </g>
    </g>
    <g id="xtick_24">
     <g id="line2d_24">
      <g>
       <use xlink:href="#m216530c189" x="252.601736" y="314.437595" style="stroke: #000000; stroke-width: 0.6"/>
      </g>
     </g>
    </g>
    <g id="xtick_25">
     <g id="line2d_25">
      <g>
       <use xlink:href="#m216530c189" x="263.538433" y="314.437595" style="stroke: #000000; stroke-width: 0.6"/>
      </g>
     </g>
    </g>
    <g id="xtick_26">
     <g id="line2d_26">
      <g>
       <use xlink:href="#m216530c189" x="285.411826" y="314.437595" style="stroke: #000000; stroke-width: 0.6"/>
      </g>
     </g>
    </g>
    <g id="xtick_27">
     <g id="line2d_27">
      <g>
       <use xlink:href="#m216530c189" x="296.348523" y="314.437595" style="stroke: #000000; stroke-width: 0.6"/>
      </g>
     </g>
    </g>
    <g id="xtick_28">
     <g id="line2d_28">
      <g>
       <use xlink:href="#m216530c189" x="307.285219" y="314.437595" style="stroke: #000000; stroke-width: 0.6"/>
      </g>
     </g>
    </g>
    <g id="xtick_29">
     <g id="line2d_29">
      <g>
       <use xlink:href="#m216530c189" x="318.221916" y="314.437595" style="stroke: #000000; stroke-width: 0.6"/>
      </g>
     </g>
    </g>
    <g id="xtick_30">
     <g id="line2d_30">
      <g>
       <use xlink:href="#m216530c189" x="340.095309" y="314.437595" style="stroke: #000000; stroke-width: 0.6"/>
      </g>
     </g>
    </g>
    <g id="xtick_31">
     <g id="line2d_31">
      <g>
       <use xlink:href="#m216530c189" x="351.032006" y="314.437595" style="stroke: #000000; stroke-width: 0.6"/>
      </g>
     </g>
    </g>
    <g id="xtick_32">
     <g id="line2d_32">
      <g>
       <use xlink:href="#m216530c189" x="361.968702" y="314.437595" style="stroke: #000000; stroke-width: 0.6"/>
      </g>
     </g>
    </g>
    <g id="xtick_33">
     <g id="line2d_33">
      <g>
       <use xlink:href="#m216530c189" x="372.905399" y="314.437595" style="stroke: #000000; stroke-width: 0.6"/>
      </g>
     </g>
    </g>
    <g id="xtick_34">
     <g id="line2d_34">
      <g>
       <use xlink:href="#m216530c189" x="394.778792" y="314.437595" style="stroke: #000000; stroke-width: 0.6"/>
      </g>
     </g>
    </g>
    <g id="xtick_35">
     <g id="line2d_35">
      <g>
       <use xlink:href="#m216530c189" x="405.715489" y="314.437595" style="stroke: #000000; stroke-width: 0.6"/>
      </g>
     </g>
    </g>
    <g id="xtick_36">
     <g id="line2d_36">
      <g>
       <use xlink:href="#m216530c189" x="416.652185" y="314.437595" style="stroke: #000000; stroke-width: 0.6"/>
      </g>
     </g>
    </g>
    <g id="xtick_37">
     <g id="line2d_37">
      <g>
       <use xlink:href="#m216530c189" x="427.588882" y="314.437595" style="stroke: #000000; stroke-width: 0.6"/>
      </g>
     </g>
    </g>
   </g>
   <g id="matplotlib.axis_2">
    <g id="ytick_1">
     <g id="line2d_38">
      <defs>
       <path id="m81e26b43c8" d="M 0 0 
L -3.5 0 
" style="stroke: #000000; stroke-width: 0.8"/>
      </defs>
      <g>
       <use xlink:href="#m81e26b43c8" x="26.930079" y="314.437595" style="stroke: #000000; stroke-width: 0.8"/>
      </g>
     </g>
     <g id="text_9">
      <!-- $\mathdefault{0.0}$ -->
      <g transform="translate(7.2 317.896844)scale(0.1 -0.1)">
       <defs>
        <path id="CMR17-30" d="M 2688 2038 
C 2688 2430 2682 3099 2413 3613 
C 2176 4063 1798 4224 1466 4224 
C 1158 4224 768 4082 525 3620 
C 269 3137 243 2539 243 2038 
C 243 1671 250 1112 448 623 
C 723 -39 1216 -128 1466 -128 
C 1760 -128 2208 -7 2470 604 
C 2662 1048 2688 1568 2688 2038 
z
M 1466 -26 
C 1056 -26 813 328 723 816 
C 653 1196 653 1749 653 2109 
C 653 2604 653 3015 736 3407 
C 858 3954 1216 4121 1466 4121 
C 1728 4121 2067 3947 2189 3420 
C 2272 3054 2278 2623 2278 2109 
C 2278 1691 2278 1176 2202 797 
C 2067 96 1690 -26 1466 -26 
z
" transform="scale(0.015625)"/>
        <path id="CMMI12-3a" d="M 1178 307 
C 1178 492 1024 620 870 620 
C 685 620 557 467 557 313 
C 557 128 710 0 864 0 
C 1050 0 1178 153 1178 307 
z
" transform="scale(0.015625)"/>
       </defs>
       <use xlink:href="#CMR17-30" transform="scale(0.996264)"/>
       <use xlink:href="#CMMI12-3a" transform="translate(45.690477 0)scale(0.996264)"/>
       <use xlink:href="#CMR17-30" transform="translate(72.787654 0)scale(0.996264)"/>
      </g>
     </g>
    </g>
    <g id="ytick_2">
     <g id="line2d_39">
      <g>
       <use xlink:href="#m81e26b43c8" x="26.930079" y="266.243463" style="stroke: #000000; stroke-width: 0.8"/>
      </g>
     </g>
     <g id="text_10">
      <!-- $\mathdefault{0.2}$ -->
      <g transform="translate(7.2 269.702712)scale(0.1 -0.1)">
       <use xlink:href="#CMR17-30" transform="scale(0.996264)"/>
       <use xlink:href="#CMMI12-3a" transform="translate(45.690477 0)scale(0.996264)"/>
       <use xlink:href="#CMR17-32" transform="translate(72.787654 0)scale(0.996264)"/>
      </g>
     </g>
    </g>
    <g id="ytick_3">
     <g id="line2d_40">
      <g>
       <use xlink:href="#m81e26b43c8" x="26.930079" y="218.04933" style="stroke: #000000; stroke-width: 0.8"/>
      </g>
     </g>
     <g id="text_11">
      <!-- $\mathdefault{0.4}$ -->
      <g transform="translate(7.2 221.508579)scale(0.1 -0.1)">
       <use xlink:href="#CMR17-30" transform="scale(0.996264)"/>
       <use xlink:href="#CMMI12-3a" transform="translate(45.690477 0)scale(0.996264)"/>
       <use xlink:href="#CMR17-34" transform="translate(72.787654 0)scale(0.996264)"/>
      </g>
     </g>
    </g>
    <g id="ytick_4">
     <g id="line2d_41">
      <g>
       <use xlink:href="#m81e26b43c8" x="26.930079" y="169.855197" style="stroke: #000000; stroke-width: 0.8"/>
      </g>
     </g>
     <g id="text_12">
      <!-- $\mathdefault{0.6}$ -->
      <g transform="translate(7.2 173.314447)scale(0.1 -0.1)">
       <use xlink:href="#CMR17-30" transform="scale(0.996264)"/>
       <use xlink:href="#CMMI12-3a" transform="translate(45.690477 0)scale(0.996264)"/>
       <use xlink:href="#CMR17-36" transform="translate(72.787654 0)scale(0.996264)"/>
      </g>
     </g>
    </g>
    <g id="ytick_5">
     <g id="line2d_42">
      <g>
       <use xlink:href="#m81e26b43c8" x="26.930079" y="121.661065" style="stroke: #000000; stroke-width: 0.8"/>
      </g>
     </g>
     <g id="text_13">
      <!-- $\mathdefault{0.8}$ -->
      <g transform="translate(7.2 125.120314)scale(0.1 -0.1)">
       <use xlink:href="#CMR17-30" transform="scale(0.996264)"/>
       <use xlink:href="#CMMI12-3a" transform="translate(45.690477 0)scale(0.996264)"/>
       <use xlink:href="#CMR17-38" transform="translate(72.787654 0)scale(0.996264)"/>
      </g>
     </g>
    </g>
    <g id="ytick_6">
     <g id="line2d_43">
      <g>
       <use xlink:href="#m81e26b43c8" x="26.930079" y="73.466932" style="stroke: #000000; stroke-width: 0.8"/>
      </g>
     </g>
     <g id="text_14">
      <!-- $\mathdefault{1.0}$ -->
      <g transform="translate(7.2 76.926181)scale(0.1 -0.1)">
       <use xlink:href="#CMR17-31" transform="scale(0.996264)"/>
       <use xlink:href="#CMMI12-3a" transform="translate(45.690477 0)scale(0.996264)"/>
       <use xlink:href="#CMR17-30" transform="translate(72.787654 0)scale(0.996264)"/>
      </g>
     </g>
    </g>
    <g id="ytick_7">
     <g id="line2d_44">
      <g>
       <use xlink:href="#m81e26b43c8" x="26.930079" y="25.2728" style="stroke: #000000; stroke-width: 0.8"/>
      </g>
     </g>
     <g id="text_15">
      <!-- $\mathdefault{1.2}$ -->
      <g transform="translate(7.2 28.732049)scale(0.1 -0.1)">
       <use xlink:href="#CMR17-31" transform="scale(0.996264)"/>
       <use xlink:href="#CMMI12-3a" transform="translate(45.690477 0)scale(0.996264)"/>
       <use xlink:href="#CMR17-32" transform="translate(72.787654 0)scale(0.996264)"/>
      </g>
     </g>
    </g>
    <g id="ytick_8">
     <g id="line2d_45">
      <defs>
       <path id="m15c86c5825" d="M 0 0 
L -2 0 
" style="stroke: #000000; stroke-width: 0.6"/>
      </defs>
      <g>
       <use xlink:href="#m15c86c5825" x="26.930079" y="302.389062" style="stroke: #000000; stroke-width: 0.6"/>
      </g>
     </g>
    </g>
    <g id="ytick_9">
     <g id="line2d_46">
      <g>
       <use xlink:href="#m15c86c5825" x="26.930079" y="290.340529" style="stroke: #000000; stroke-width: 0.6"/>
      </g>
     </g>
    </g>
    <g id="ytick_10">
     <g id="line2d_47">
      <g>
       <use xlink:href="#m15c86c5825" x="26.930079" y="278.291996" style="stroke: #000000; stroke-width: 0.6"/>
      </g>
     </g>
    </g>
    <g id="ytick_11">
     <g id="line2d_48">
      <g>
       <use xlink:href="#m15c86c5825" x="26.930079" y="254.194929" style="stroke: #000000; stroke-width: 0.6"/>
      </g>
     </g>
    </g>
    <g id="ytick_12">
     <g id="line2d_49">
      <g>
       <use xlink:href="#m15c86c5825" x="26.930079" y="242.146396" style="stroke: #000000; stroke-width: 0.6"/>
      </g>
     </g>
    </g>
    <g id="ytick_13">
     <g id="line2d_50">
      <g>
       <use xlink:href="#m15c86c5825" x="26.930079" y="230.097863" style="stroke: #000000; stroke-width: 0.6"/>
      </g>
     </g>
    </g>
    <g id="ytick_14">
     <g id="line2d_51">
      <g>
       <use xlink:href="#m15c86c5825" x="26.930079" y="206.000797" style="stroke: #000000; stroke-width: 0.6"/>
      </g>
     </g>
    </g>
    <g id="ytick_15">
     <g id="line2d_52">
      <g>
       <use xlink:href="#m15c86c5825" x="26.930079" y="193.952264" style="stroke: #000000; stroke-width: 0.6"/>
      </g>
     </g>
    </g>
    <g id="ytick_16">
     <g id="line2d_53">
      <g>
       <use xlink:href="#m15c86c5825" x="26.930079" y="181.903731" style="stroke: #000000; stroke-width: 0.6"/>
      </g>
     </g>
    </g>
    <g id="ytick_17">
     <g id="line2d_54">
      <g>
       <use xlink:href="#m15c86c5825" x="26.930079" y="157.806664" style="stroke: #000000; stroke-width: 0.6"/>
      </g>
     </g>
    </g>
    <g id="ytick_18">
     <g id="line2d_55">
      <g>
       <use xlink:href="#m15c86c5825" x="26.930079" y="145.758131" style="stroke: #000000; stroke-width: 0.6"/>
      </g>
     </g>
    </g>
    <g id="ytick_19">
     <g id="line2d_56">
      <g>
       <use xlink:href="#m15c86c5825" x="26.930079" y="133.709598" style="stroke: #000000; stroke-width: 0.6"/>
      </g>
     </g>
    </g>
    <g id="ytick_20">
     <g id="line2d_57">
      <g>
       <use xlink:href="#m15c86c5825" x="26.930079" y="109.612532" style="stroke: #000000; stroke-width: 0.6"/>
      </g>
     </g>
    </g>
    <g id="ytick_21">
     <g id="line2d_58">
      <g>
       <use xlink:href="#m15c86c5825" x="26.930079" y="97.563999" style="stroke: #000000; stroke-width: 0.6"/>
      </g>
     </g>
    </g>
    <g id="ytick_22">
     <g id="line2d_59">
      <g>
       <use xlink:href="#m15c86c5825" x="26.930079" y="85.515465" style="stroke: #000000; stroke-width: 0.6"/>
      </g>
     </g>
    </g>
    <g id="ytick_23">
     <g id="line2d_60">
      <g>
       <use xlink:href="#m15c86c5825" x="26.930079" y="61.418399" style="stroke: #000000; stroke-width: 0.6"/>
      </g>
     </g>
    </g>
    <g id="ytick_24">
     <g id="line2d_61">
      <g>
       <use xlink:href="#m15c86c5825" x="26.930079" y="49.369866" style="stroke: #000000; stroke-width: 0.6"/>
      </g>
     </g>
    </g>
    <g id="ytick_25">
     <g id="line2d_62">
      <g>
       <use xlink:href="#m15c86c5825" x="26.930079" y="37.321333" style="stroke: #000000; stroke-width: 0.6"/>
      </g>
     </g>
    </g>
    <g id="ytick_26">
     <g id="line2d_63">
      <g>
       <use xlink:href="#m15c86c5825" x="26.930079" y="13.224267" style="stroke: #000000; stroke-width: 0.6"/>
      </g>
     </g>
    </g>
   </g>
   <g id="line2d_64">
    <path d="M 55.741197 314.437595 
L 55.741197 73.466932 
" clip-path="url(#pb535395c01)" style="fill: none; stroke: #000000; stroke-linecap: square"/>
   </g>
   <g id="line2d_65">
    <path d="M 55.741197 73.466932 
L 58.830848 86.353807 
L 61.585756 96.734946 
L 64.296674 106.067389 
L 66.732447 113.795511 
L 70.831846 125.58372 
L 74.36195 134.678337 
L 76.107848 138.860092 
L 79.917277 147.341624 
L 83.912019 155.397999 
L 87.888334 162.681048 
L 89.578616 165.578796 
L 94.650567 173.6457 
L 98.897161 179.756589 
L 101.324377 183.016894 
L 105.712901 188.527781 
L 110.024131 193.509372 
L 113.809573 197.569321 
L 117.722833 201.489396 
L 122.509206 205.940655 
L 127.651977 210.34824 
L 130.039759 212.275196 
L 136.910099 217.441763 
L 139.975753 219.582274 
L 146.847155 224.05303 
L 151.560669 226.883732 
L 156.826472 229.843513 
L 163.571116 233.354343 
L 169.900109 236.393718 
L 177.654561 239.820662 
L 185.061441 242.824289 
L 192.339967 245.549264 
L 200.440949 248.348211 
L 208.913357 251.042082 
L 218.369694 253.800739 
L 227.946997 256.360303 
L 239.769313 259.236611 
L 252.318379 261.993592 
L 263.938439 264.311763 
L 277.047405 266.692641 
L 290.151589 268.856847 
L 303.212886 270.827171 
L 319.631008 273.074696 
L 337.926842 275.321173 
L 356.71145 277.38719 
L 376.828383 279.370688 
L 398.058692 281.245951 
L 421.230628 283.076423 
L 438.525578 284.316262 
L 438.525578 284.316262 
" clip-path="url(#pb535395c01)" style="fill: none; stroke: #0000ff; stroke-linecap: square"/>
   </g>
   <g id="line2d_66">
    <path d="M 44.804501 13.224267 
L 47.526322 30.867335 
L 49.842183 44.328781 
L 52.001331 55.776824 
L 54.0915 65.971169 
L 56.966153 78.74661 
L 59.468363 88.843196 
L 62.419596 99.693281 
L 65.75016 110.748974 
L 67.824612 117.077591 
L 69.998185 123.30001 
L 72.35742 129.624558 
L 76.133375 138.919791 
L 77.491349 142.038163 
L 82.292053 152.226449 
L 87.389517 161.804213 
L 92.233494 169.913302 
L 95.793608 175.344432 
L 100.473504 181.892099 
L 103.646705 185.991891 
L 107.911496 191.118468 
L 111.395648 195.012528 
L 115.736109 199.532646 
L 121.49226 205.024511 
L 127.09422 209.887607 
L 132.388248 214.102092 
L 138.289481 218.416714 
L 141.908782 220.884061 
L 148.420217 225.017866 
L 154.576263 228.603569 
L 160.576835 231.832356 
L 164.877388 234.000888 
L 170.554091 236.694841 
L 177.729718 239.852404 
L 185.899939 243.149148 
L 193.847768 246.088036 
L 200.48931 248.364237 
L 209.176112 251.12212 
L 218.412835 253.812775 
L 228.154869 256.413464 
L 238.915881 259.038551 
L 249.059845 261.304523 
L 261.312517 263.806002 
L 274.071332 266.172182 
L 288.938436 268.664766 
L 302.497242 270.723636 
L 318.353209 272.908121 
L 334.955532 274.973081 
L 353.864583 277.088223 
L 372.639903 278.975413 
L 393.462738 280.857202 
L 416.62393 282.728773 
L 438.525578 284.316262 
L 438.525578 284.316262 
" clip-path="url(#pb535395c01)" style="fill: none; stroke: #0000ff; stroke-width: 2; stroke-linecap: square"/>
   </g>
   <g id="patch_4">
    <path d="M 26.930079 320.461862 
L 26.930079 7.2 
" style="fill: none; stroke: #000000; stroke-width: 0.8; stroke-linejoin: miter; stroke-linecap: square"/>
   </g>
   <g id="patch_5">
    <path d="M 36.930079 314.437595 
L 446.4 314.437595 
" style="fill: none; stroke: #000000; stroke-width: 0.8; stroke-linejoin: miter; stroke-linecap: square"/>
   </g>
  </g>
 </g>
 <defs>
  <clipPath id="pb535395c01">
   <rect x="36.930079" y="7.2" width="409.469921" height="313.261862"/>
  </clipPath>
 </defs>
</svg>
