<?xml version="1.0" encoding="utf-8" standalone="no"?>
<!DOCTYPE svg PUBLIC "-//W3C//DTD SVG 1.1//EN"
  "http://www.w3.org/Graphics/SVG/1.1/DTD/svg11.dtd">
<svg xmlns:xlink="http://www.w3.org/1999/xlink" width="453.6pt" height="337.493272pt" viewBox="0 0 453.6 337.493272" xmlns="http://www.w3.org/2000/svg" version="1.1">
 <metadata>
  <rdf:RDF xmlns:dc="http://purl.org/dc/elements/1.1/" xmlns:cc="http://creativecommons.org/ns#" xmlns:rdf="http://www.w3.org/1999/02/22-rdf-syntax-ns#">
   <cc:Work>
    <dc:type rdf:resource="http://purl.org/dc/dcmitype/StillImage"/>
    <dc:date>2023-02-05T19:51:18.467670</dc:date>
    <dc:format>image/svg+xml</dc:format>
    <dc:creator>
     <cc:Agent>
      <dc:title>Matplotlib v3.5.2, https://matplotlib.org/</dc:title>
     </cc:Agent>
    </dc:creator>
   </cc:Work>
  </rdf:RDF>
 </metadata>
 <defs>
  <style type="text/css">*{stroke-linejoin: round; stroke-linecap: butt}</style>
 </defs>
 <g id="figure_1">
  <g id="patch_1">
   <path d="M 0 337.493272 
L 453.6 337.493272 
L 453.6 0 
L 0 0 
L 0 337.493272 
z
" style="fill: none"/>
  </g>
  <g id="axes_1">
   <g id="patch_2">
    <path d="M 36.930079 320.461862 
L 446.4 320.461862 
L 446.4 7.2 
L 36.930079 7.2 
L 36.930079 320.461862 
z
" style="fill: none"/>
   </g>
   <g id="patch_3">
    <path d="M 55.741197 314.437595 
L 55.741197 73.466932 
L 57.756825 82.033331 
L 59.049678 87.214471 
L 60.342531 92.169637 
L 60.993718 94.584513 
L 63.309882 102.764402 
L 65.634963 110.385621 
L 66.501749 113.088226 
L 68.242862 118.306224 
L 69.983974 123.260603 
L 70.29713 124.125257 
L 72.839789 130.866486 
L 75.320831 136.999376 
L 76.040997 138.703557 
L 79.37924 146.193744 
L 79.998636 147.51384 
L 82.148986 151.940266 
L 84.311986 156.162052 
L 86.961482 161.043682 
L 87.967586 162.819432 
L 89.562779 165.552159 
L 92.539878 170.397329 
L 94.4504 173.343942 
L 95.863502 175.446976 
L 98.197921 178.787121 
L 100.841663 182.381134 
L 102.480878 184.515449 
L 103.287858 185.541023 
L 105.903645 188.756846 
L 108.171411 191.417706 
L 109.675356 193.121068 
L 111.964536 195.62511 
L 113.536578 197.285673 
L 115.372213 199.16687 
L 118.167325 201.918093 
L 119.762971 203.430589 
L 121.041703 204.613649 
L 123.238998 206.588711 
L 124.56779 207.749011 
L 126.680855 209.543584 
L 129.133391 211.552212 
L 130.388173 212.55042 
L 132.887207 214.481851 
L 134.106216 215.397659 
L 136.111108 216.867925 
L 139.125579 218.998188 
L 140.754193 220.110843 
L 142.666985 221.384964 
L 144.160488 222.356116 
L 145.394632 223.143453 
L 147.601206 224.518111 
L 150.098293 226.024659 
L 151.610191 226.912531 
L 154.359841 228.482394 
L 155.96412 229.372584 
L 158.431136 230.70608 
L 159.474748 231.257682 
L 162.013594 232.569725 
L 163.880473 233.508398 
L 165.300793 234.208247 
L 166.700958 234.886417 
L 170.015534 236.447034 
L 170.357857 236.60473 
L 172.920851 237.765451 
L 174.775223 238.583899 
L 176.637971 239.388638 
L 179.068083 240.41317 
L 181.045689 241.226509 
L 182.233643 241.706547 
L 184.86359 242.747204 
L 187.341002 243.700626 
L 187.979509 243.942257 
L 190.359252 244.828466 
L 191.476623 245.23693 
L 194.813622 246.428752 
L 197.03875 247.20091 
L 198.463239 247.686094 
L 200.369366 248.324475 
L 201.463755 248.68551 
L 204.790905 249.759301 
L 206.416061 250.27115 
L 208.655765 250.963419 
L 208.827681 251.01594 
L 211.730936 251.889944 
L 213.355625 252.368614 
L 216.021898 253.138476 
L 218.234274 253.76293 
L 219.795325 254.195942 
L 221.92579 254.777026 
L 223.490484 255.196706 
L 225.703072 255.780184 
L 227.71379 256.300547 
L 229.403417 256.730728 
L 230.082544 256.901846 
L 232.277651 257.448067 
L 234.40629 257.967933 
L 235.842662 258.313405 
L 238.898362 259.03447 
L 240.668658 259.4438 
L 242.722809 259.911247 
L 245.06895 260.435512 
L 245.497315 260.530147 
L 249.046001 261.301557 
L 249.693832 261.440005 
L 252.565698 262.045162 
L 254.505964 262.446251 
L 254.964017 262.540045 
L 257.288985 263.010948 
L 259.921305 263.533893 
L 261.443213 263.831416 
L 262.68541 264.071692 
L 264.879826 264.490625 
L 266.985498 264.886115 
L 268.554353 265.176733 
L 271.976177 265.79892 
L 272.578472 265.906812 
L 275.936118 266.499616 
L 277.734372 266.811188 
L 279.302574 267.079613 
L 281.753734 267.493163 
L 283.462608 267.777231 
L 285.403183 268.095675 
L 286.960172 268.348047 
L 287.740422 268.473486 
L 290.551724 268.919848 
L 293.046277 269.308721 
L 295.024521 269.612415 
L 297.040769 269.917766 
L 298.374964 270.117546 
L 300.107346 270.37429 
L 301.481979 270.575908 
L 304.648231 271.033357 
L 306.745379 271.331128 
L 307.746038 271.471776 
L 310.490822 271.852898 
L 311.838054 272.037503 
L 313.350722 272.242878 
L 315.109602 272.479194 
L 317.744452 272.82829 
L 319.327417 273.03524 
L 321.901752 273.367438 
L 322.587662 273.455051 
L 324.891579 273.746622 
L 327.84829 274.114783 
L 329.061231 274.263894 
L 331.408681 274.549366 
L 333.354144 274.782895 
L 334.679726 274.940456 
L 336.777844 275.187297 
L 338.46794 275.383903 
L 339.906767 275.549733 
L 342.506139 275.845778 
L 344.305283 276.048058 
L 345.754368 276.209446 
L 348.816622 276.546071 
L 349.367182 276.605964 
L 351.112004 276.794534 
L 354.142947 277.117668 
L 355.881238 277.300499 
L 358.157437 277.537216 
L 359.319222 277.656878 
L 360.766273 277.804841 
L 363.841588 278.115377 
L 364.639197 278.195059 
L 367.961201 278.523205 
L 368.624996 278.588063 
L 371.864052 278.901215 
L 372.247736 278.937947 
L 375.524518 279.248588 
L 377.907634 279.471115 
L 379.06597 279.578264 
L 379.954565 279.660016 
L 383.581878 279.989797 
L 384.043608 280.031328 
L 386.956864 280.29107 
L 388.079289 280.3901 
L 390.418558 280.594657 
L 392.046052 280.735528 
L 393.669907 280.874921 
L 396.510727 281.116025 
L 397.783915 281.222962 
L 400.318317 281.4338 
L 401.542841 281.534712 
L 403.109792 281.662948 
L 406.525747 281.939065 
L 407.948319 282.052686 
L 408.846689 282.124031 
L 412.494652 282.410536 
L 413.471952 282.486431 
L 414.632948 282.576125 
L 416.596388 282.726672 
L 419.018423 282.910433 
L 421.491082 283.095851 
L 423.655927 283.256405 
L 424.519231 283.319974 
L 426.958595 283.498201 
L 429.486576 283.680762 
L 431.374459 283.815698 
L 433.101039 283.938073 
L 435.169591 284.083403 
L 435.673334 284.118586 
L 438.525578 284.316262 
L 438.525578 314.437595 
z
" clip-path="url(#p1583f69e69)" style="fill: #808080; opacity: 0.5"/>
   </g>
   <g id="matplotlib.axis_1">
    <g id="xtick_1">
     <g id="line2d_1">
      <defs>
       <path id="m1826f0a26f" d="M 0 0 
L 0 3.5 
" style="stroke: #000000; stroke-width: 0.8"/>
      </defs>
      <g>
       <use xlink:href="#m1826f0a26f" x="55.741197" y="314.437595" style="stroke: #000000; stroke-width: 0.8"/>
      </g>
     </g>
     <g id="text_1">
      <!-- $\mathdefault{1}$ -->
      <g transform="translate(53.25053 328.356094)scale(0.1 -0.1)">
       <defs>
        <path id="CMR17-31" d="M 1702 4083 
C 1702 4217 1696 4224 1606 4224 
C 1357 3927 979 3833 621 3820 
C 602 3820 570 3820 563 3808 
C 557 3795 557 3782 557 3648 
C 755 3648 1088 3686 1344 3839 
L 1344 467 
C 1344 243 1331 166 781 166 
L 589 166 
L 589 0 
C 896 6 1216 12 1523 12 
C 1830 12 2150 6 2458 0 
L 2458 166 
L 2266 166 
C 1715 166 1702 236 1702 467 
L 1702 4083 
z
" transform="scale(0.015625)"/>
       </defs>
       <use xlink:href="#CMR17-31" transform="scale(0.996264)"/>
      </g>
     </g>
    </g>
    <g id="xtick_2">
     <g id="line2d_2">
      <g>
       <use xlink:href="#m1826f0a26f" x="110.42468" y="314.437595" style="stroke: #000000; stroke-width: 0.8"/>
      </g>
     </g>
     <g id="text_2">
      <!-- $\mathdefault{2}$ -->
      <g transform="translate(107.934013 328.356094)scale(0.1 -0.1)">
       <defs>
        <path id="CMR17-32" d="M 2669 990 
L 2554 990 
C 2490 537 2438 460 2413 422 
C 2381 371 1920 371 1830 371 
L 602 371 
C 832 620 1280 1073 1824 1596 
C 2214 1966 2669 2400 2669 3033 
C 2669 3788 2067 4224 1395 4224 
C 691 4224 262 3603 262 3027 
C 262 2777 448 2745 525 2745 
C 589 2745 781 2783 781 3007 
C 781 3206 614 3264 525 3264 
C 486 3264 448 3257 422 3244 
C 544 3788 915 4057 1306 4057 
C 1862 4057 2227 3616 2227 3033 
C 2227 2477 1901 1998 1536 1583 
L 262 147 
L 262 0 
L 2515 0 
L 2669 990 
z
" transform="scale(0.015625)"/>
       </defs>
       <use xlink:href="#CMR17-32" transform="scale(0.996264)"/>
      </g>
     </g>
    </g>
    <g id="xtick_3">
     <g id="line2d_3">
      <g>
       <use xlink:href="#m1826f0a26f" x="165.108163" y="314.437595" style="stroke: #000000; stroke-width: 0.8"/>
      </g>
     </g>
     <g id="text_3">
      <!-- $\mathdefault{3}$ -->
      <g transform="translate(162.617496 328.356094)scale(0.1 -0.1)">
       <defs>
        <path id="CMR17-33" d="M 1414 2176 
C 1984 2176 2234 1673 2234 1094 
C 2234 322 1824 25 1453 25 
C 1114 25 563 193 390 691 
C 422 678 454 678 486 678 
C 640 678 755 780 755 947 
C 755 1132 614 1216 486 1216 
C 378 1216 211 1164 211 927 
C 211 335 787 -128 1466 -128 
C 2176 -128 2720 432 2720 1087 
C 2720 1718 2208 2176 1600 2246 
C 2086 2347 2554 2776 2554 3353 
C 2554 3856 2048 4224 1472 4224 
C 890 4224 378 3862 378 3347 
C 378 3123 544 3084 627 3084 
C 762 3084 877 3167 877 3334 
C 877 3500 762 3584 627 3584 
C 602 3584 570 3584 544 3571 
C 730 3999 1235 4076 1459 4076 
C 1683 4076 2106 3966 2106 3347 
C 2106 3167 2080 2851 1862 2574 
C 1670 2329 1453 2316 1242 2297 
C 1210 2297 1062 2284 1037 2284 
C 992 2278 966 2272 966 2227 
C 966 2182 973 2176 1101 2176 
L 1414 2176 
z
" transform="scale(0.015625)"/>
       </defs>
       <use xlink:href="#CMR17-33" transform="scale(0.996264)"/>
      </g>
     </g>
    </g>
    <g id="xtick_4">
     <g id="line2d_4">
      <g>
       <use xlink:href="#m1826f0a26f" x="219.791646" y="314.437595" style="stroke: #000000; stroke-width: 0.8"/>
      </g>
     </g>
     <g id="text_4">
      <!-- $\mathdefault{4}$ -->
      <g transform="translate(217.300979 328.356094)scale(0.1 -0.1)">
       <defs>
        <path id="CMR17-34" d="M 2150 4147 
C 2150 4281 2144 4288 2029 4288 
L 128 1254 
L 128 1088 
L 1779 1088 
L 1779 460 
C 1779 230 1766 166 1318 166 
L 1197 166 
L 1197 0 
C 1402 12 1747 12 1965 12 
C 2182 12 2528 12 2733 0 
L 2733 166 
L 2611 166 
C 2163 166 2150 230 2150 460 
L 2150 1088 
L 2803 1088 
L 2803 1254 
L 2150 1254 
L 2150 4147 
z
M 1798 3723 
L 1798 1254 
L 256 1254 
L 1798 3723 
z
" transform="scale(0.015625)"/>
       </defs>
       <use xlink:href="#CMR17-34" transform="scale(0.996264)"/>
      </g>
     </g>
    </g>
    <g id="xtick_5">
     <g id="line2d_5">
      <g>
       <use xlink:href="#m1826f0a26f" x="274.475129" y="314.437595" style="stroke: #000000; stroke-width: 0.8"/>
      </g>
     </g>
     <g id="text_5">
      <!-- $\mathdefault{5}$ -->
      <g transform="translate(271.984462 328.356094)scale(0.1 -0.1)">
       <defs>
        <path id="CMR17-35" d="M 730 3750 
C 794 3724 1056 3641 1325 3641 
C 1920 3641 2246 3961 2432 4140 
C 2432 4191 2432 4224 2394 4224 
C 2387 4224 2374 4224 2323 4198 
C 2099 4102 1837 4032 1517 4032 
C 1325 4032 1037 4055 723 4191 
C 653 4224 640 4224 634 4224 
C 602 4224 595 4217 595 4090 
L 595 2231 
C 595 2113 595 2080 659 2080 
C 691 2080 704 2093 736 2139 
C 941 2435 1222 2560 1542 2560 
C 1766 2560 2246 2415 2246 1293 
C 2246 1087 2246 716 2054 422 
C 1894 159 1645 25 1370 25 
C 947 25 518 319 403 812 
C 429 806 480 793 506 793 
C 589 793 749 838 749 1036 
C 749 1209 627 1280 506 1280 
C 358 1280 262 1190 262 1011 
C 262 454 704 -128 1382 -128 
C 2042 -128 2669 441 2669 1267 
C 2669 2054 2170 2662 1549 2662 
C 1222 2662 947 2540 730 2304 
L 730 3750 
z
" transform="scale(0.015625)"/>
       </defs>
       <use xlink:href="#CMR17-35" transform="scale(0.996264)"/>
      </g>
     </g>
    </g>
    <g id="xtick_6">
     <g id="line2d_6">
      <g>
       <use xlink:href="#m1826f0a26f" x="329.158612" y="314.437595" style="stroke: #000000; stroke-width: 0.8"/>
      </g>
     </g>
     <g id="text_6">
      <!-- $\mathdefault{6}$ -->
      <g transform="translate(326.667945 328.356094)scale(0.1 -0.1)">
       <defs>
        <path id="CMR17-36" d="M 678 2198 
C 678 3712 1395 4076 1811 4076 
C 1946 4076 2272 4049 2400 3782 
C 2298 3782 2106 3782 2106 3558 
C 2106 3385 2246 3328 2336 3328 
C 2394 3328 2566 3353 2566 3571 
C 2566 3987 2246 4224 1805 4224 
C 1043 4224 243 3411 243 2011 
C 243 257 966 -128 1478 -128 
C 2099 -128 2688 431 2688 1295 
C 2688 2101 2170 2688 1517 2688 
C 1126 2688 838 2430 678 1979 
L 678 2198 
z
M 1478 25 
C 691 25 691 1212 691 1450 
C 691 1914 909 2585 1504 2585 
C 1613 2585 1926 2585 2138 2140 
C 2253 1889 2253 1624 2253 1302 
C 2253 954 2253 696 2118 438 
C 1978 173 1773 25 1478 25 
z
" transform="scale(0.015625)"/>
       </defs>
       <use xlink:href="#CMR17-36" transform="scale(0.996264)"/>
      </g>
     </g>
    </g>
    <g id="xtick_7">
     <g id="line2d_7">
      <g>
       <use xlink:href="#m1826f0a26f" x="383.842095" y="314.437595" style="stroke: #000000; stroke-width: 0.8"/>
      </g>
     </g>
     <g id="text_7">
      <!-- $\mathdefault{7}$ -->
      <g transform="translate(381.351428 328.356094)scale(0.1 -0.1)">
       <defs>
        <path id="CMR17-37" d="M 2886 3955 
L 2886 4096 
L 1382 4096 
C 634 4096 621 4166 595 4288 
L 480 4288 
L 294 3104 
L 410 3104 
C 429 3226 474 3552 550 3673 
C 589 3724 1062 3724 1171 3724 
L 2579 3724 
L 1869 2670 
C 1395 1961 1069 1003 1069 166 
C 1069 89 1069 -128 1299 -128 
C 1530 -128 1530 89 1530 172 
L 1530 466 
C 1530 1514 1709 2204 2003 2644 
L 2886 3955 
z
" transform="scale(0.015625)"/>
       </defs>
       <use xlink:href="#CMR17-37" transform="scale(0.996264)"/>
      </g>
     </g>
    </g>
    <g id="xtick_8">
     <g id="line2d_8">
      <g>
       <use xlink:href="#m1826f0a26f" x="438.525578" y="314.437595" style="stroke: #000000; stroke-width: 0.8"/>
      </g>
     </g>
     <g id="text_8">
      <!-- $\mathdefault{8}$ -->
      <g transform="translate(436.034911 328.356094)scale(0.1 -0.1)">
       <defs>
        <path id="CMR17-38" d="M 1741 2289 
C 2144 2494 2554 2803 2554 3298 
C 2554 3884 1990 4224 1472 4224 
C 890 4224 378 3800 378 3215 
C 378 3054 416 2777 666 2533 
C 730 2469 998 2276 1171 2154 
C 883 2006 211 1652 211 945 
C 211 282 838 -128 1459 -128 
C 2144 -128 2720 366 2720 1022 
C 2720 1607 2330 1877 2074 2051 
L 1741 2289 
z
M 902 2855 
C 851 2887 595 3086 595 3388 
C 595 3781 998 4076 1459 4076 
C 1965 4076 2336 3716 2336 3298 
C 2336 2700 1670 2359 1638 2359 
C 1632 2359 1626 2359 1574 2398 
L 902 2855 
z
M 2080 1536 
C 2176 1466 2483 1253 2483 861 
C 2483 385 2010 25 1472 25 
C 890 25 448 443 448 951 
C 448 1459 838 1884 1280 2083 
L 2080 1536 
z
" transform="scale(0.015625)"/>
       </defs>
       <use xlink:href="#CMR17-38" transform="scale(0.996264)"/>
      </g>
     </g>
    </g>
    <g id="xtick_9">
     <g id="line2d_9">
      <defs>
       <path id="m163db2d44d" d="M 0 0 
L 0 2 
" style="stroke: #000000; stroke-width: 0.6"/>
      </defs>
      <g>
       <use xlink:href="#m163db2d44d" x="44.804501" y="314.437595" style="stroke: #000000; stroke-width: 0.6"/>
      </g>
     </g>
    </g>
    <g id="xtick_10">
     <g id="line2d_10">
      <g>
       <use xlink:href="#m163db2d44d" x="66.677894" y="314.437595" style="stroke: #000000; stroke-width: 0.6"/>
      </g>
     </g>
    </g>
    <g id="xtick_11">
     <g id="line2d_11">
      <g>
       <use xlink:href="#m163db2d44d" x="77.61459" y="314.437595" style="stroke: #000000; stroke-width: 0.6"/>
      </g>
     </g>
    </g>
    <g id="xtick_12">
     <g id="line2d_12">
      <g>
       <use xlink:href="#m163db2d44d" x="88.551287" y="314.437595" style="stroke: #000000; stroke-width: 0.6"/>
      </g>
     </g>
    </g>
    <g id="xtick_13">
     <g id="line2d_13">
      <g>
       <use xlink:href="#m163db2d44d" x="99.487984" y="314.437595" style="stroke: #000000; stroke-width: 0.6"/>
      </g>
     </g>
    </g>
    <g id="xtick_14">
     <g id="line2d_14">
      <g>
       <use xlink:href="#m163db2d44d" x="121.361377" y="314.437595" style="stroke: #000000; stroke-width: 0.6"/>
      </g>
     </g>
    </g>
    <g id="xtick_15">
     <g id="line2d_15">
      <g>
       <use xlink:href="#m163db2d44d" x="132.298073" y="314.437595" style="stroke: #000000; stroke-width: 0.6"/>
      </g>
     </g>
    </g>
    <g id="xtick_16">
     <g id="line2d_16">
      <g>
       <use xlink:href="#m163db2d44d" x="143.23477" y="314.437595" style="stroke: #000000; stroke-width: 0.6"/>
      </g>
     </g>
    </g>
    <g id="xtick_17">
     <g id="line2d_17">
      <g>
       <use xlink:href="#m163db2d44d" x="154.171467" y="314.437595" style="stroke: #000000; stroke-width: 0.6"/>
      </g>
     </g>
    </g>
    <g id="xtick_18">
     <g id="line2d_18">
      <g>
       <use xlink:href="#m163db2d44d" x="176.04486" y="314.437595" style="stroke: #000000; stroke-width: 0.6"/>
      </g>
     </g>
    </g>
    <g id="xtick_19">
     <g id="line2d_19">
      <g>
       <use xlink:href="#m163db2d44d" x="186.981556" y="314.437595" style="stroke: #000000; stroke-width: 0.6"/>
      </g>
     </g>
    </g>
    <g id="xtick_20">
     <g id="line2d_20">
      <g>
       <use xlink:href="#m163db2d44d" x="197.918253" y="314.437595" style="stroke: #000000; stroke-width: 0.6"/>
      </g>
     </g>
    </g>
    <g id="xtick_21">
     <g id="line2d_21">
      <g>
       <use xlink:href="#m163db2d44d" x="208.85495" y="314.437595" style="stroke: #000000; stroke-width: 0.6"/>
      </g>
     </g>
    </g>
    <g id="xtick_22">
     <g id="line2d_22">
      <g>
       <use xlink:href="#m163db2d44d" x="230.728343" y="314.437595" style="stroke: #000000; stroke-width: 0.6"/>
      </g>
     </g>
    </g>
    <g id="xtick_23">
     <g id="line2d_23">
      <g>
       <use xlink:href="#m163db2d44d" x="241.665039" y="314.437595" style="stroke: #000000; stroke-width: 0.6"/>
      </g>
     </g>
    </g>
    <g id="xtick_24">
     <g id="line2d_24">
      <g>
       <use xlink:href="#m163db2d44d" x="252.601736" y="314.437595" style="stroke: #000000; stroke-width: 0.6"/>
      </g>
     </g>
    </g>
    <g id="xtick_25">
     <g id="line2d_25">
      <g>
       <use xlink:href="#m163db2d44d" x="263.538433" y="314.437595" style="stroke: #000000; stroke-width: 0.6"/>
      </g>
     </g>
    </g>
    <g id="xtick_26">
     <g id="line2d_26">
      <g>
       <use xlink:href="#m163db2d44d" x="285.411826" y="314.437595" style="stroke: #000000; stroke-width: 0.6"/>
      </g>
     </g>
    </g>
    <g id="xtick_27">
     <g id="line2d_27">
      <g>
       <use xlink:href="#m163db2d44d" x="296.348523" y="314.437595" style="stroke: #000000; stroke-width: 0.6"/>
      </g>
     </g>
    </g>
    <g id="xtick_28">
     <g id="line2d_28">
      <g>
       <use xlink:href="#m163db2d44d" x="307.285219" y="314.437595" style="stroke: #000000; stroke-width: 0.6"/>
      </g>
     </g>
    </g>
    <g id="xtick_29">
     <g id="line2d_29">
      <g>
       <use xlink:href="#m163db2d44d" x="318.221916" y="314.437595" style="stroke: #000000; stroke-width: 0.6"/>
      </g>
     </g>
    </g>
    <g id="xtick_30">
     <g id="line2d_30">
      <g>
       <use xlink:href="#m163db2d44d" x="340.095309" y="314.437595" style="stroke: #000000; stroke-width: 0.6"/>
      </g>
     </g>
    </g>
    <g id="xtick_31">
     <g id="line2d_31">
      <g>
       <use xlink:href="#m163db2d44d" x="351.032006" y="314.437595" style="stroke: #000000; stroke-width: 0.6"/>
      </g>
     </g>
    </g>
    <g id="xtick_32">
     <g id="line2d_32">
      <g>
       <use xlink:href="#m163db2d44d" x="361.968702" y="314.437595" style="stroke: #000000; stroke-width: 0.6"/>
      </g>
     </g>
    </g>
    <g id="xtick_33">
     <g id="line2d_33">
      <g>
       <use xlink:href="#m163db2d44d" x="372.905399" y="314.437595" style="stroke: #000000; stroke-width: 0.6"/>
      </g>
     </g>
    </g>
    <g id="xtick_34">
     <g id="line2d_34">
      <g>
       <use xlink:href="#m163db2d44d" x="394.778792" y="314.437595" style="stroke: #000000; stroke-width: 0.6"/>
      </g>
     </g>
    </g>
    <g id="xtick_35">
     <g id="line2d_35">
      <g>
       <use xlink:href="#m163db2d44d" x="405.715489" y="314.437595" style="stroke: #000000; stroke-width: 0.6"/>
      </g>
     </g>
    </g>
    <g id="xtick_36">
     <g id="line2d_36">
      <g>
       <use xlink:href="#m163db2d44d" x="416.652185" y="314.437595" style="stroke: #000000; stroke-width: 0.6"/>
      </g>
     </g>
    </g>
    <g id="xtick_37">
     <g id="line2d_37">
      <g>
       <use xlink:href="#m163db2d44d" x="427.588882" y="314.437595" style="stroke: #000000; stroke-width: 0.6"/>
      </g>
     </g>
    </g>
   </g>
   <g id="matplotlib.axis_2">
    <g id="ytick_1">
     <g id="line2d_38">
      <defs>
       <path id="mebce7595a0" d="M 0 0 
L -3.5 0 
" style="stroke: #000000; stroke-width: 0.8"/>
      </defs>
      <g>
       <use xlink:href="#mebce7595a0" x="26.930079" y="314.437595" style="stroke: #000000; stroke-width: 0.8"/>
      </g>
     </g>
     <g id="text_9">
      <!-- $\mathdefault{0.0}$ -->
      <g transform="translate(7.2 317.896844)scale(0.1 -0.1)">
       <defs>
        <path id="CMR17-30" d="M 2688 2038 
C 2688 2430 2682 3099 2413 3613 
C 2176 4063 1798 4224 1466 4224 
C 1158 4224 768 4082 525 3620 
C 269 3137 243 2539 243 2038 
C 243 1671 250 1112 448 623 
C 723 -39 1216 -128 1466 -128 
C 1760 -128 2208 -7 2470 604 
C 2662 1048 2688 1568 2688 2038 
z
M 1466 -26 
C 1056 -26 813 328 723 816 
C 653 1196 653 1749 653 2109 
C 653 2604 653 3015 736 3407 
C 858 3954 1216 4121 1466 4121 
C 1728 4121 2067 3947 2189 3420 
C 2272 3054 2278 2623 2278 2109 
C 2278 1691 2278 1176 2202 797 
C 2067 96 1690 -26 1466 -26 
z
" transform="scale(0.015625)"/>
        <path id="CMMI12-3a" d="M 1178 307 
C 1178 492 1024 620 870 620 
C 685 620 557 467 557 313 
C 557 128 710 0 864 0 
C 1050 0 1178 153 1178 307 
z
" transform="scale(0.015625)"/>
       </defs>
       <use xlink:href="#CMR17-30" transform="scale(0.996264)"/>
       <use xlink:href="#CMMI12-3a" transform="translate(45.690477 0)scale(0.996264)"/>
       <use xlink:href="#CMR17-30" transform="translate(72.787654 0)scale(0.996264)"/>
      </g>
     </g>
    </g>
    <g id="ytick_2">
     <g id="line2d_39">
      <g>
       <use xlink:href="#mebce7595a0" x="26.930079" y="266.243463" style="stroke: #000000; stroke-width: 0.8"/>
      </g>
     </g>
     <g id="text_10">
      <!-- $\mathdefault{0.2}$ -->
      <g transform="translate(7.2 269.702712)scale(0.1 -0.1)">
       <use xlink:href="#CMR17-30" transform="scale(0.996264)"/>
       <use xlink:href="#CMMI12-3a" transform="translate(45.690477 0)scale(0.996264)"/>
       <use xlink:href="#CMR17-32" transform="translate(72.787654 0)scale(0.996264)"/>
      </g>
     </g>
    </g>
    <g id="ytick_3">
     <g id="line2d_40">
      <g>
       <use xlink:href="#mebce7595a0" x="26.930079" y="218.04933" style="stroke: #000000; stroke-width: 0.8"/>
      </g>
     </g>
     <g id="text_11">
      <!-- $\mathdefault{0.4}$ -->
      <g transform="translate(7.2 221.508579)scale(0.1 -0.1)">
       <use xlink:href="#CMR17-30" transform="scale(0.996264)"/>
       <use xlink:href="#CMMI12-3a" transform="translate(45.690477 0)scale(0.996264)"/>
       <use xlink:href="#CMR17-34" transform="translate(72.787654 0)scale(0.996264)"/>
      </g>
     </g>
    </g>
    <g id="ytick_4">
     <g id="line2d_41">
      <g>
       <use xlink:href="#mebce7595a0" x="26.930079" y="169.855197" style="stroke: #000000; stroke-width: 0.8"/>
      </g>
     </g>
     <g id="text_12">
      <!-- $\mathdefault{0.6}$ -->
      <g transform="translate(7.2 173.314447)scale(0.1 -0.1)">
       <use xlink:href="#CMR17-30" transform="scale(0.996264)"/>
       <use xlink:href="#CMMI12-3a" transform="translate(45.690477 0)scale(0.996264)"/>
       <use xlink:href="#CMR17-36" transform="translate(72.787654 0)scale(0.996264)"/>
      </g>
     </g>
    </g>
    <g id="ytick_5">
     <g id="line2d_42">
      <g>
       <use xlink:href="#mebce7595a0" x="26.930079" y="121.661065" style="stroke: #000000; stroke-width: 0.8"/>
      </g>
     </g>
     <g id="text_13">
      <!-- $\mathdefault{0.8}$ -->
      <g transform="translate(7.2 125.120314)scale(0.1 -0.1)">
       <use xlink:href="#CMR17-30" transform="scale(0.996264)"/>
       <use xlink:href="#CMMI12-3a" transform="translate(45.690477 0)scale(0.996264)"/>
       <use xlink:href="#CMR17-38" transform="translate(72.787654 0)scale(0.996264)"/>
      </g>
     </g>
    </g>
    <g id="ytick_6">
     <g id="line2d_43">
      <g>
       <use xlink:href="#mebce7595a0" x="26.930079" y="73.466932" style="stroke: #000000; stroke-width: 0.8"/>
      </g>
     </g>
     <g id="text_14">
      <!-- $\mathdefault{1.0}$ -->
      <g transform="translate(7.2 76.926181)scale(0.1 -0.1)">
       <use xlink:href="#CMR17-31" transform="scale(0.996264)"/>
       <use xlink:href="#CMMI12-3a" transform="translate(45.690477 0)scale(0.996264)"/>
       <use xlink:href="#CMR17-30" transform="translate(72.787654 0)scale(0.996264)"/>
      </g>
     </g>
    </g>
    <g id="ytick_7">
     <g id="line2d_44">
      <g>
       <use xlink:href="#mebce7595a0" x="26.930079" y="25.2728" style="stroke: #000000; stroke-width: 0.8"/>
      </g>
     </g>
     <g id="text_15">
      <!-- $\mathdefault{1.2}$ -->
      <g transform="translate(7.2 28.732049)scale(0.1 -0.1)">
       <use xlink:href="#CMR17-31" transform="scale(0.996264)"/>
       <use xlink:href="#CMMI12-3a" transform="translate(45.690477 0)scale(0.996264)"/>
       <use xlink:href="#CMR17-32" transform="translate(72.787654 0)scale(0.996264)"/>
      </g>
     </g>
    </g>
    <g id="ytick_8">
     <g id="line2d_45">
      <defs>
       <path id="m9278688d51" d="M 0 0 
L -2 0 
" style="stroke: #000000; stroke-width: 0.6"/>
      </defs>
      <g>
       <use xlink:href="#m9278688d51" x="26.930079" y="302.389062" style="stroke: #000000; stroke-width: 0.6"/>
      </g>
     </g>
    </g>
    <g id="ytick_9">
     <g id="line2d_46">
      <g>
       <use xlink:href="#m9278688d51" x="26.930079" y="290.340529" style="stroke: #000000; stroke-width: 0.6"/>
      </g>
     </g>
    </g>
    <g id="ytick_10">
     <g id="line2d_47">
      <g>
       <use xlink:href="#m9278688d51" x="26.930079" y="278.291996" style="stroke: #000000; stroke-width: 0.6"/>
      </g>
     </g>
    </g>
    <g id="ytick_11">
     <g id="line2d_48">
      <g>
       <use xlink:href="#m9278688d51" x="26.930079" y="254.194929" style="stroke: #000000; stroke-width: 0.6"/>
      </g>
     </g>
    </g>
    <g id="ytick_12">
     <g id="line2d_49">
      <g>
       <use xlink:href="#m9278688d51" x="26.930079" y="242.146396" style="stroke: #000000; stroke-width: 0.6"/>
      </g>
     </g>
    </g>
    <g id="ytick_13">
     <g id="line2d_50">
      <g>
       <use xlink:href="#m9278688d51" x="26.930079" y="230.097863" style="stroke: #000000; stroke-width: 0.6"/>
      </g>
     </g>
    </g>
    <g id="ytick_14">
     <g id="line2d_51">
      <g>
       <use xlink:href="#m9278688d51" x="26.930079" y="206.000797" style="stroke: #000000; stroke-width: 0.6"/>
      </g>
     </g>
    </g>
    <g id="ytick_15">
     <g id="line2d_52">
      <g>
       <use xlink:href="#m9278688d51" x="26.930079" y="193.952264" style="stroke: #000000; stroke-width: 0.6"/>
      </g>
     </g>
    </g>
    <g id="ytick_16">
     <g id="line2d_53">
      <g>
       <use xlink:href="#m9278688d51" x="26.930079" y="181.903731" style="stroke: #000000; stroke-width: 0.6"/>
      </g>
     </g>
    </g>
    <g id="ytick_17">
     <g id="line2d_54">
      <g>
       <use xlink:href="#m9278688d51" x="26.930079" y="157.806664" style="stroke: #000000; stroke-width: 0.6"/>
      </g>
     </g>
    </g>
    <g id="ytick_18">
     <g id="line2d_55">
      <g>
       <use xlink:href="#m9278688d51" x="26.930079" y="145.758131" style="stroke: #000000; stroke-width: 0.6"/>
      </g>
     </g>
    </g>
    <g id="ytick_19">
     <g id="line2d_56">
      <g>
       <use xlink:href="#m9278688d51" x="26.930079" y="133.709598" style="stroke: #000000; stroke-width: 0.6"/>
      </g>
     </g>
    </g>
    <g id="ytick_20">
     <g id="line2d_57">
      <g>
       <use xlink:href="#m9278688d51" x="26.930079" y="109.612532" style="stroke: #000000; stroke-width: 0.6"/>
      </g>
     </g>
    </g>
    <g id="ytick_21">
     <g id="line2d_58">
      <g>
       <use xlink:href="#m9278688d51" x="26.930079" y="97.563999" style="stroke: #000000; stroke-width: 0.6"/>
      </g>
     </g>
    </g>
    <g id="ytick_22">
     <g id="line2d_59">
      <g>
       <use xlink:href="#m9278688d51" x="26.930079" y="85.515465" style="stroke: #000000; stroke-width: 0.6"/>
      </g>
     </g>
    </g>
    <g id="ytick_23">
     <g id="line2d_60">
      <g>
       <use xlink:href="#m9278688d51" x="26.930079" y="61.418399" style="stroke: #000000; stroke-width: 0.6"/>
      </g>
     </g>
    </g>
    <g id="ytick_24">
     <g id="line2d_61">
      <g>
       <use xlink:href="#m9278688d51" x="26.930079" y="49.369866" style="stroke: #000000; stroke-width: 0.6"/>
      </g>
     </g>
    </g>
    <g id="ytick_25">
     <g id="line2d_62">
      <g>
       <use xlink:href="#m9278688d51" x="26.930079" y="37.321333" style="stroke: #000000; stroke-width: 0.6"/>
      </g>
     </g>
    </g>
    <g id="ytick_26">
     <g id="line2d_63">
      <g>
       <use xlink:href="#m9278688d51" x="26.930079" y="13.224267" style="stroke: #000000; stroke-width: 0.6"/>
      </g>
     </g>
    </g>
   </g>
   <g id="line2d_64">
    <path d="M 55.741197 314.437595 
L 55.741197 73.466932 
" clip-path="url(#p1583f69e69)" style="fill: none; stroke: #000000; stroke-linecap: square"/>
   </g>
   <g id="line2d_65">
    <path d="M 55.741197 73.466932 
L 59.049678 87.214471 
L 60.993718 94.584513 
L 63.309882 102.764402 
L 66.501749 113.088226 
L 70.29713 124.125257 
L 72.839789 130.866486 
L 76.040997 138.703557 
L 79.998636 147.51384 
L 84.311986 156.162052 
L 87.967586 162.819432 
L 89.562779 165.552159 
L 94.4504 173.343942 
L 98.197921 178.787121 
L 103.287858 185.541023 
L 108.171411 191.417706 
L 111.964536 195.62511 
L 115.372213 199.16687 
L 121.041703 204.613649 
L 126.680855 209.543584 
L 130.388173 212.55042 
L 136.111108 216.867925 
L 142.666985 221.384964 
L 147.601206 224.518111 
L 154.359841 228.482394 
L 159.474748 231.257682 
L 166.700958 234.886417 
L 174.775223 238.583899 
L 182.233643 241.706547 
L 190.359252 244.828466 
L 198.463239 247.686094 
L 206.416061 250.27115 
L 216.021898 253.138476 
L 225.703072 255.780184 
L 235.842662 258.313405 
L 245.497315 260.530147 
L 257.288985 263.010948 
L 268.554353 265.176733 
L 283.462608 267.777231 
L 298.374964 270.117546 
L 313.350722 272.242878 
L 329.061231 274.263894 
L 345.754368 276.209446 
L 364.639197 278.195059 
L 386.956864 280.29107 
L 408.846689 282.124031 
L 435.169591 284.083403 
L 438.525578 284.316262 
L 438.525578 284.316262 
" clip-path="url(#p1583f69e69)" style="fill: none; stroke: #0000ff; stroke-linecap: square"/>
   </g>
   <g id="line2d_66">
    <path d="M 44.804501 13.224267 
L 47.754369 32.252175 
L 50.80622 49.563002 
L 53.382517 62.604538 
L 56.796135 78.027684 
L 59.78343 90.053526 
L 63.362332 102.942595 
L 65.633607 110.381336 
L 67.602807 116.41976 
L 70.18119 123.806048 
L 74.539401 135.112437 
L 75.730718 137.973352 
L 78.62083 144.54866 
L 81.634834 150.903391 
L 87.091434 161.275379 
L 89.928441 166.164754 
L 95.011262 174.186211 
L 98.029582 178.551637 
L 101.659053 183.454099 
L 105.70027 188.512582 
L 110.252759 193.762567 
L 113.43273 197.17741 
L 118.232748 201.980916 
L 123.506934 206.824699 
L 127.98219 210.619045 
L 133.561761 214.990707 
L 138.873695 218.823755 
L 143.708866 222.064593 
L 149.036171 225.390072 
L 155.622418 229.184527 
L 160.714651 231.903661 
L 166.793673 234.930919 
L 173.604297 238.069145 
L 181.610094 241.455366 
L 188.592777 244.172787 
L 196.651069 247.067642 
L 205.501111 249.983984 
L 214.561078 252.719059 
L 223.956959 255.320683 
L 234.44278 257.976763 
L 244.817591 260.379826 
L 255.781158 262.70653 
L 269.336682 265.320382 
L 282.228543 267.572438 
L 296.935724 269.90196 
L 310.279372 271.823778 
L 325.425784 273.813636 
L 342.931167 275.893757 
L 362.65522 277.996207 
L 384.360598 280.059781 
L 406.26834 281.91842 
L 430.206462 283.732356 
L 438.525578 284.316262 
L 438.525578 284.316262 
" clip-path="url(#p1583f69e69)" style="fill: none; stroke: #0000ff; stroke-width: 2; stroke-linecap: square"/>
   </g>
   <g id="patch_4">
    <path d="M 26.930079 320.461862 
L 26.930079 7.2 
" style="fill: none; stroke: #000000; stroke-width: 0.8; stroke-linejoin: miter; stroke-linecap: square"/>
   </g>
   <g id="patch_5">
    <path d="M 36.930079 314.437595 
L 446.4 314.437595 
" style="fill: none; stroke: #000000; stroke-width: 0.8; stroke-linejoin: miter; stroke-linecap: square"/>
   </g>
  </g>
 </g>
 <defs>
  <clipPath id="p1583f69e69">
   <rect x="36.930079" y="7.2" width="409.469921" height="313.261862"/>
  </clipPath>
 </defs>
</svg>
