<?xml version="1.0" encoding="utf-8" standalone="no"?>
<!DOCTYPE svg PUBLIC "-//W3C//DTD SVG 1.1//EN"
  "http://www.w3.org/Graphics/SVG/1.1/DTD/svg11.dtd">
<svg xmlns:xlink="http://www.w3.org/1999/xlink" width="341.708447pt" height="337.493272pt" viewBox="0 0 341.708447 337.493272" xmlns="http://www.w3.org/2000/svg" version="1.1">
 <metadata>
  <rdf:RDF xmlns:dc="http://purl.org/dc/elements/1.1/" xmlns:cc="http://creativecommons.org/ns#" xmlns:rdf="http://www.w3.org/1999/02/22-rdf-syntax-ns#">
   <cc:Work>
    <dc:type rdf:resource="http://purl.org/dc/dcmitype/StillImage"/>
    <dc:date>2022-10-23T21:58:16.772189</dc:date>
    <dc:format>image/svg+xml</dc:format>
    <dc:creator>
     <cc:Agent>
      <dc:title>Matplotlib v3.5.2, https://matplotlib.org/</dc:title>
     </cc:Agent>
    </dc:creator>
   </cc:Work>
  </rdf:RDF>
 </metadata>
 <defs>
  <style type="text/css">*{stroke-linejoin: round; stroke-linecap: butt}</style>
 </defs>
 <g id="figure_1">
  <g id="patch_1">
   <path d="M 0 337.493272 
L 341.708447 337.493272 
L 341.708447 0 
L 0 0 
L 0 337.493272 
z
" style="fill: none"/>
  </g>
  <g id="axes_1">
   <g id="patch_2">
    <path d="M 20.905812 320.461862 
L 334.167674 320.461862 
L 334.167674 7.2 
L 20.905812 7.2 
L 20.905812 320.461862 
z
" style="fill: none"/>
   </g>
   <g id="patch_3">
    <path d="M 26.930079 314.437595 
L 26.930079 13.224267 
L 31.233127 13.224267 
L 31.233127 314.437595 
L 26.930079 314.437595 
z
" clip-path="url(#p9025626af5)" style="fill: none; stroke: #0000ff; stroke-linejoin: miter"/>
   </g>
   <g id="patch_4">
    <path d="M 31.233127 314.437595 
L 31.233127 17.496724 
L 35.536174 17.496724 
L 35.536174 314.437595 
L 31.233127 314.437595 
z
" clip-path="url(#p9025626af5)" style="fill: none; stroke: #0000ff; stroke-linejoin: miter"/>
   </g>
   <g id="patch_5">
    <path d="M 35.536174 314.437595 
L 35.536174 21.70858 
L 39.839222 21.70858 
L 39.839222 314.437595 
L 35.536174 314.437595 
z
" clip-path="url(#p9025626af5)" style="fill: none; stroke: #0000ff; stroke-linejoin: miter"/>
   </g>
   <g id="patch_6">
    <path d="M 39.839222 314.437595 
L 39.839222 25.860695 
L 44.142269 25.860695 
L 44.142269 314.437595 
L 39.839222 314.437595 
z
" clip-path="url(#p9025626af5)" style="fill: none; stroke: #0000ff; stroke-linejoin: miter"/>
   </g>
   <g id="patch_7">
    <path d="M 44.142269 314.437595 
L 44.142269 29.953915 
L 48.445317 29.953915 
L 48.445317 314.437595 
L 44.142269 314.437595 
z
" clip-path="url(#p9025626af5)" style="fill: none; stroke: #0000ff; stroke-linejoin: miter"/>
   </g>
   <g id="patch_8">
    <path d="M 48.445317 314.437595 
L 48.445317 33.989076 
L 52.748364 33.989076 
L 52.748364 314.437595 
L 48.445317 314.437595 
z
" clip-path="url(#p9025626af5)" style="fill: none; stroke: #0000ff; stroke-linejoin: miter"/>
   </g>
   <g id="patch_9">
    <path d="M 52.748364 314.437595 
L 52.748364 37.967002 
L 57.051412 37.967002 
L 57.051412 314.437595 
L 52.748364 314.437595 
z
" clip-path="url(#p9025626af5)" style="fill: none; stroke: #0000ff; stroke-linejoin: miter"/>
   </g>
   <g id="patch_10">
    <path d="M 57.051412 314.437595 
L 57.051412 41.888505 
L 61.354459 41.888505 
L 61.354459 314.437595 
L 57.051412 314.437595 
z
" clip-path="url(#p9025626af5)" style="fill: none; stroke: #0000ff; stroke-linejoin: miter"/>
   </g>
   <g id="patch_11">
    <path d="M 61.354459 314.437595 
L 61.354459 45.754384 
L 65.657507 45.754384 
L 65.657507 314.437595 
L 61.354459 314.437595 
z
" clip-path="url(#p9025626af5)" style="fill: none; stroke: #0000ff; stroke-linejoin: miter"/>
   </g>
   <g id="patch_12">
    <path d="M 65.657507 314.437595 
L 65.657507 49.565429 
L 69.960554 49.565429 
L 69.960554 314.437595 
L 65.657507 314.437595 
z
" clip-path="url(#p9025626af5)" style="fill: none; stroke: #0000ff; stroke-linejoin: miter"/>
   </g>
   <g id="patch_13">
    <path d="M 69.960554 314.437595 
L 69.960554 53.322417 
L 74.263602 53.322417 
L 74.263602 314.437595 
L 69.960554 314.437595 
z
" clip-path="url(#p9025626af5)" style="fill: none; stroke: #0000ff; stroke-linejoin: miter"/>
   </g>
   <g id="patch_14">
    <path d="M 74.263602 314.437595 
L 74.263602 57.026116 
L 78.56665 57.026116 
L 78.56665 314.437595 
L 74.263602 314.437595 
z
" clip-path="url(#p9025626af5)" style="fill: none; stroke: #0000ff; stroke-linejoin: miter"/>
   </g>
   <g id="patch_15">
    <path d="M 78.56665 314.437595 
L 78.56665 60.677281 
L 82.869697 60.677281 
L 82.869697 314.437595 
L 78.56665 314.437595 
z
" clip-path="url(#p9025626af5)" style="fill: none; stroke: #0000ff; stroke-linejoin: miter"/>
   </g>
   <g id="patch_16">
    <path d="M 82.869697 314.437595 
L 82.869697 64.276658 
L 87.172745 64.276658 
L 87.172745 314.437595 
L 82.869697 314.437595 
z
" clip-path="url(#p9025626af5)" style="fill: none; stroke: #0000ff; stroke-linejoin: miter"/>
   </g>
   <g id="patch_17">
    <path d="M 87.172745 314.437595 
L 87.172745 67.82498 
L 91.475792 67.82498 
L 91.475792 314.437595 
L 87.172745 314.437595 
z
" clip-path="url(#p9025626af5)" style="fill: none; stroke: #0000ff; stroke-linejoin: miter"/>
   </g>
   <g id="patch_18">
    <path d="M 91.475792 314.437595 
L 91.475792 71.322972 
L 95.77884 71.322972 
L 95.77884 314.437595 
L 91.475792 314.437595 
z
" clip-path="url(#p9025626af5)" style="fill: none; stroke: #0000ff; stroke-linejoin: miter"/>
   </g>
   <g id="patch_19">
    <path d="M 95.77884 314.437595 
L 95.77884 74.771348 
L 100.081887 74.771348 
L 100.081887 314.437595 
L 95.77884 314.437595 
z
" clip-path="url(#p9025626af5)" style="fill: none; stroke: #0000ff; stroke-linejoin: miter"/>
   </g>
   <g id="patch_20">
    <path d="M 100.081887 314.437595 
L 100.081887 78.170812 
L 104.384935 78.170812 
L 104.384935 314.437595 
L 100.081887 314.437595 
z
" clip-path="url(#p9025626af5)" style="fill: none; stroke: #0000ff; stroke-linejoin: miter"/>
   </g>
   <g id="patch_21">
    <path d="M 104.384935 314.437595 
L 104.384935 81.522057 
L 108.687982 81.522057 
L 108.687982 314.437595 
L 104.384935 314.437595 
z
" clip-path="url(#p9025626af5)" style="fill: none; stroke: #0000ff; stroke-linejoin: miter"/>
   </g>
   <g id="patch_22">
    <path d="M 108.687982 314.437595 
L 108.687982 84.825768 
L 112.99103 84.825768 
L 112.99103 314.437595 
L 108.687982 314.437595 
z
" clip-path="url(#p9025626af5)" style="fill: none; stroke: #0000ff; stroke-linejoin: miter"/>
   </g>
   <g id="patch_23">
    <path d="M 112.99103 314.437595 
L 112.99103 88.082618 
L 117.294078 88.082618 
L 117.294078 314.437595 
L 112.99103 314.437595 
z
" clip-path="url(#p9025626af5)" style="fill: none; stroke: #0000ff; stroke-linejoin: miter"/>
   </g>
   <g id="patch_24">
    <path d="M 117.294078 314.437595 
L 117.294078 91.293273 
L 121.597125 91.293273 
L 121.597125 314.437595 
L 117.294078 314.437595 
z
" clip-path="url(#p9025626af5)" style="fill: none; stroke: #0000ff; stroke-linejoin: miter"/>
   </g>
   <g id="patch_25">
    <path d="M 121.597125 314.437595 
L 121.597125 94.458387 
L 125.900173 94.458387 
L 125.900173 314.437595 
L 121.597125 314.437595 
z
" clip-path="url(#p9025626af5)" style="fill: none; stroke: #0000ff; stroke-linejoin: miter"/>
   </g>
   <g id="patch_26">
    <path d="M 125.900173 314.437595 
L 125.900173 97.578607 
L 130.20322 97.578607 
L 130.20322 314.437595 
L 125.900173 314.437595 
z
" clip-path="url(#p9025626af5)" style="fill: none; stroke: #0000ff; stroke-linejoin: miter"/>
   </g>
   <g id="patch_27">
    <path d="M 130.20322 314.437595 
L 130.20322 100.654569 
L 134.506268 100.654569 
L 134.506268 314.437595 
L 130.20322 314.437595 
z
" clip-path="url(#p9025626af5)" style="fill: none; stroke: #0000ff; stroke-linejoin: miter"/>
   </g>
   <g id="patch_28">
    <path d="M 134.506268 314.437595 
L 134.506268 103.686901 
L 138.809315 103.686901 
L 138.809315 314.437595 
L 134.506268 314.437595 
z
" clip-path="url(#p9025626af5)" style="fill: none; stroke: #0000ff; stroke-linejoin: miter"/>
   </g>
   <g id="patch_29">
    <path d="M 138.809315 314.437595 
L 138.809315 106.676222 
L 143.112363 106.676222 
L 143.112363 314.437595 
L 138.809315 314.437595 
z
" clip-path="url(#p9025626af5)" style="fill: none; stroke: #0000ff; stroke-linejoin: miter"/>
   </g>
   <g id="patch_30">
    <path d="M 143.112363 314.437595 
L 143.112363 109.623142 
L 147.41541 109.623142 
L 147.41541 314.437595 
L 143.112363 314.437595 
z
" clip-path="url(#p9025626af5)" style="fill: none; stroke: #0000ff; stroke-linejoin: miter"/>
   </g>
   <g id="patch_31">
    <path d="M 147.41541 314.437595 
L 147.41541 112.528263 
L 151.718458 112.528263 
L 151.718458 314.437595 
L 147.41541 314.437595 
z
" clip-path="url(#p9025626af5)" style="fill: none; stroke: #0000ff; stroke-linejoin: miter"/>
   </g>
   <g id="patch_32">
    <path d="M 151.718458 314.437595 
L 151.718458 115.392177 
L 156.021506 115.392177 
L 156.021506 314.437595 
L 151.718458 314.437595 
z
" clip-path="url(#p9025626af5)" style="fill: none; stroke: #0000ff; stroke-linejoin: miter"/>
   </g>
   <g id="patch_33">
    <path d="M 156.021506 314.437595 
L 156.021506 118.215468 
L 160.324553 118.215468 
L 160.324553 314.437595 
L 156.021506 314.437595 
z
" clip-path="url(#p9025626af5)" style="fill: none; stroke: #0000ff; stroke-linejoin: miter"/>
   </g>
   <g id="patch_34">
    <path d="M 160.324553 314.437595 
L 160.324553 120.998714 
L 164.627601 120.998714 
L 164.627601 314.437595 
L 160.324553 314.437595 
z
" clip-path="url(#p9025626af5)" style="fill: none; stroke: #0000ff; stroke-linejoin: miter"/>
   </g>
   <g id="patch_35">
    <path d="M 164.627601 314.437595 
L 164.627601 123.742481 
L 168.930648 123.742481 
L 168.930648 314.437595 
L 164.627601 314.437595 
z
" clip-path="url(#p9025626af5)" style="fill: none; stroke: #0000ff; stroke-linejoin: miter"/>
   </g>
   <g id="patch_36">
    <path d="M 168.930648 314.437595 
L 168.930648 126.447331 
L 173.233696 126.447331 
L 173.233696 314.437595 
L 168.930648 314.437595 
z
" clip-path="url(#p9025626af5)" style="fill: none; stroke: #0000ff; stroke-linejoin: miter"/>
   </g>
   <g id="patch_37">
    <path d="M 173.233696 314.437595 
L 173.233696 129.113815 
L 177.536743 129.113815 
L 177.536743 314.437595 
L 173.233696 314.437595 
z
" clip-path="url(#p9025626af5)" style="fill: none; stroke: #0000ff; stroke-linejoin: miter"/>
   </g>
   <g id="patch_38">
    <path d="M 177.536743 314.437595 
L 177.536743 131.742476 
L 181.839791 131.742476 
L 181.839791 314.437595 
L 177.536743 314.437595 
z
" clip-path="url(#p9025626af5)" style="fill: none; stroke: #0000ff; stroke-linejoin: miter"/>
   </g>
   <g id="patch_39">
    <path d="M 181.839791 314.437595 
L 181.839791 134.333853 
L 186.142838 134.333853 
L 186.142838 314.437595 
L 181.839791 314.437595 
z
" clip-path="url(#p9025626af5)" style="fill: none; stroke: #0000ff; stroke-linejoin: miter"/>
   </g>
   <g id="patch_40">
    <path d="M 186.142838 314.437595 
L 186.142838 136.888473 
L 190.445886 136.888473 
L 190.445886 314.437595 
L 186.142838 314.437595 
z
" clip-path="url(#p9025626af5)" style="fill: none; stroke: #0000ff; stroke-linejoin: miter"/>
   </g>
   <g id="patch_41">
    <path d="M 190.445886 314.437595 
L 190.445886 139.406857 
L 194.748933 139.406857 
L 194.748933 314.437595 
L 190.445886 314.437595 
z
" clip-path="url(#p9025626af5)" style="fill: none; stroke: #0000ff; stroke-linejoin: miter"/>
   </g>
   <g id="patch_42">
    <path d="M 194.748933 314.437595 
L 194.748933 141.889521 
L 199.051981 141.889521 
L 199.051981 314.437595 
L 194.748933 314.437595 
z
" clip-path="url(#p9025626af5)" style="fill: none; stroke: #0000ff; stroke-linejoin: miter"/>
   </g>
   <g id="patch_43">
    <path d="M 199.051981 314.437595 
L 199.051981 144.33697 
L 203.355029 144.33697 
L 203.355029 314.437595 
L 199.051981 314.437595 
z
" clip-path="url(#p9025626af5)" style="fill: none; stroke: #0000ff; stroke-linejoin: miter"/>
   </g>
   <g id="patch_44">
    <path d="M 203.355029 314.437595 
L 203.355029 146.749704 
L 207.658076 146.749704 
L 207.658076 314.437595 
L 203.355029 314.437595 
z
" clip-path="url(#p9025626af5)" style="fill: none; stroke: #0000ff; stroke-linejoin: miter"/>
   </g>
   <g id="patch_45">
    <path d="M 207.658076 314.437595 
L 207.658076 149.128215 
L 211.961124 149.128215 
L 211.961124 314.437595 
L 207.658076 314.437595 
z
" clip-path="url(#p9025626af5)" style="fill: none; stroke: #0000ff; stroke-linejoin: miter"/>
   </g>
   <g id="patch_46">
    <path d="M 211.961124 314.437595 
L 211.961124 151.47299 
L 216.264171 151.47299 
L 216.264171 314.437595 
L 211.961124 314.437595 
z
" clip-path="url(#p9025626af5)" style="fill: none; stroke: #0000ff; stroke-linejoin: miter"/>
   </g>
   <g id="patch_47">
    <path d="M 216.264171 314.437595 
L 216.264171 153.784505 
L 220.567219 153.784505 
L 220.567219 314.437595 
L 216.264171 314.437595 
z
" clip-path="url(#p9025626af5)" style="fill: none; stroke: #0000ff; stroke-linejoin: miter"/>
   </g>
   <g id="patch_48">
    <path d="M 220.567219 314.437595 
L 220.567219 156.063234 
L 224.870266 156.063234 
L 224.870266 314.437595 
L 220.567219 314.437595 
z
" clip-path="url(#p9025626af5)" style="fill: none; stroke: #0000ff; stroke-linejoin: miter"/>
   </g>
   <g id="patch_49">
    <path d="M 224.870266 314.437595 
L 224.870266 158.309641 
L 229.173314 158.309641 
L 229.173314 314.437595 
L 224.870266 314.437595 
z
" clip-path="url(#p9025626af5)" style="fill: none; stroke: #0000ff; stroke-linejoin: miter"/>
   </g>
   <g id="patch_50">
    <path d="M 229.173314 314.437595 
L 229.173314 160.524185 
L 233.476361 160.524185 
L 233.476361 314.437595 
L 229.173314 314.437595 
z
" clip-path="url(#p9025626af5)" style="fill: none; stroke: #0000ff; stroke-linejoin: miter"/>
   </g>
   <g id="patch_51">
    <path d="M 233.476361 314.437595 
L 233.476361 162.707317 
L 237.779409 162.707317 
L 237.779409 314.437595 
L 233.476361 314.437595 
z
" clip-path="url(#p9025626af5)" style="fill: none; stroke: #0000ff; stroke-linejoin: miter"/>
   </g>
   <g id="patch_52">
    <path d="M 237.779409 314.437595 
L 237.779409 164.859483 
L 242.082457 164.859483 
L 242.082457 314.437595 
L 237.779409 314.437595 
z
" clip-path="url(#p9025626af5)" style="fill: none; stroke: #0000ff; stroke-linejoin: miter"/>
   </g>
   <g id="patch_53">
    <path d="M 242.082457 314.437595 
L 242.082457 166.981122 
L 246.385504 166.981122 
L 246.385504 314.437595 
L 242.082457 314.437595 
z
" clip-path="url(#p9025626af5)" style="fill: none; stroke: #0000ff; stroke-linejoin: miter"/>
   </g>
   <g id="patch_54">
    <path d="M 246.385504 314.437595 
L 246.385504 169.072668 
L 250.688552 169.072668 
L 250.688552 314.437595 
L 246.385504 314.437595 
z
" clip-path="url(#p9025626af5)" style="fill: none; stroke: #0000ff; stroke-linejoin: miter"/>
   </g>
   <g id="patch_55">
    <path d="M 250.688552 314.437595 
L 250.688552 171.134547 
L 254.991599 171.134547 
L 254.991599 314.437595 
L 250.688552 314.437595 
z
" clip-path="url(#p9025626af5)" style="fill: none; stroke: #0000ff; stroke-linejoin: miter"/>
   </g>
   <g id="patch_56">
    <path d="M 254.991599 314.437595 
L 254.991599 173.16718 
L 259.294647 173.16718 
L 259.294647 314.437595 
L 254.991599 314.437595 
z
" clip-path="url(#p9025626af5)" style="fill: none; stroke: #0000ff; stroke-linejoin: miter"/>
   </g>
   <g id="patch_57">
    <path d="M 259.294647 314.437595 
L 259.294647 175.170982 
L 263.597694 175.170982 
L 263.597694 314.437595 
L 259.294647 314.437595 
z
" clip-path="url(#p9025626af5)" style="fill: none; stroke: #0000ff; stroke-linejoin: miter"/>
   </g>
   <g id="patch_58">
    <path d="M 263.597694 314.437595 
L 263.597694 177.146362 
L 267.900742 177.146362 
L 267.900742 314.437595 
L 263.597694 314.437595 
z
" clip-path="url(#p9025626af5)" style="fill: none; stroke: #0000ff; stroke-linejoin: miter"/>
   </g>
   <g id="patch_59">
    <path d="M 267.900742 314.437595 
L 267.900742 179.093722 
L 272.203789 179.093722 
L 272.203789 314.437595 
L 267.900742 314.437595 
z
" clip-path="url(#p9025626af5)" style="fill: none; stroke: #0000ff; stroke-linejoin: miter"/>
   </g>
   <g id="patch_60">
    <path d="M 272.203789 314.437595 
L 272.203789 181.013461 
L 276.506837 181.013461 
L 276.506837 314.437595 
L 272.203789 314.437595 
z
" clip-path="url(#p9025626af5)" style="fill: none; stroke: #0000ff; stroke-linejoin: miter"/>
   </g>
   <g id="patch_61">
    <path d="M 276.506837 314.437595 
L 276.506837 182.90597 
L 280.809885 182.90597 
L 280.809885 314.437595 
L 276.506837 314.437595 
z
" clip-path="url(#p9025626af5)" style="fill: none; stroke: #0000ff; stroke-linejoin: miter"/>
   </g>
   <g id="patch_62">
    <path d="M 280.809885 314.437595 
L 280.809885 184.771635 
L 285.112932 184.771635 
L 285.112932 314.437595 
L 280.809885 314.437595 
z
" clip-path="url(#p9025626af5)" style="fill: none; stroke: #0000ff; stroke-linejoin: miter"/>
   </g>
   <g id="patch_63">
    <path d="M 285.112932 314.437595 
L 285.112932 186.610838 
L 289.41598 186.610838 
L 289.41598 314.437595 
L 285.112932 314.437595 
z
" clip-path="url(#p9025626af5)" style="fill: none; stroke: #0000ff; stroke-linejoin: miter"/>
   </g>
   <g id="patch_64">
    <path d="M 289.41598 314.437595 
L 289.41598 188.423953 
L 293.719027 188.423953 
L 293.719027 314.437595 
L 289.41598 314.437595 
z
" clip-path="url(#p9025626af5)" style="fill: none; stroke: #0000ff; stroke-linejoin: miter"/>
   </g>
   <g id="patch_65">
    <path d="M 293.719027 314.437595 
L 293.719027 190.21135 
L 298.022075 190.21135 
L 298.022075 314.437595 
L 293.719027 314.437595 
z
" clip-path="url(#p9025626af5)" style="fill: none; stroke: #0000ff; stroke-linejoin: miter"/>
   </g>
   <g id="patch_66">
    <path d="M 298.022075 314.437595 
L 298.022075 191.973395 
L 302.325122 191.973395 
L 302.325122 314.437595 
L 298.022075 314.437595 
z
" clip-path="url(#p9025626af5)" style="fill: none; stroke: #0000ff; stroke-linejoin: miter"/>
   </g>
   <g id="patch_67">
    <path d="M 302.325122 314.437595 
L 302.325122 193.710446 
L 306.62817 193.710446 
L 306.62817 314.437595 
L 302.325122 314.437595 
z
" clip-path="url(#p9025626af5)" style="fill: none; stroke: #0000ff; stroke-linejoin: miter"/>
   </g>
   <g id="patch_68">
    <path d="M 306.62817 314.437595 
L 306.62817 195.422859 
L 310.931217 195.422859 
L 310.931217 314.437595 
L 306.62817 314.437595 
z
" clip-path="url(#p9025626af5)" style="fill: none; stroke: #0000ff; stroke-linejoin: miter"/>
   </g>
   <g id="patch_69">
    <path d="M 310.931217 314.437595 
L 310.931217 197.110983 
L 315.234265 197.110983 
L 315.234265 314.437595 
L 310.931217 314.437595 
z
" clip-path="url(#p9025626af5)" style="fill: none; stroke: #0000ff; stroke-linejoin: miter"/>
   </g>
   <g id="patch_70">
    <path d="M 315.234265 314.437595 
L 315.234265 198.775162 
L 319.537312 198.775162 
L 319.537312 314.437595 
L 315.234265 314.437595 
z
" clip-path="url(#p9025626af5)" style="fill: none; stroke: #0000ff; stroke-linejoin: miter"/>
   </g>
   <g id="patch_71">
    <path d="M 319.537312 314.437595 
L 319.537312 200.415736 
L 323.84036 200.415736 
L 323.84036 314.437595 
L 319.537312 314.437595 
z
" clip-path="url(#p9025626af5)" style="fill: none; stroke: #0000ff; stroke-linejoin: miter"/>
   </g>
   <g id="patch_72">
    <path d="M 323.84036 314.437595 
L 323.84036 202.03304 
L 328.143408 202.03304 
L 328.143408 314.437595 
L 323.84036 314.437595 
z
" clip-path="url(#p9025626af5)" style="fill: none; stroke: #0000ff; stroke-linejoin: miter"/>
   </g>
   <g id="patch_73">
    <path d="M 26.930079 314.437595 
L 26.930079 13.224267 
L 28.486546 14.776719 
L 29.873876 16.153725 
L 31.522447 17.781804 
L 32.421373 18.665808 
L 35.09355 21.278107 
L 35.31914 21.497583 
L 38.15031 24.238091 
L 38.495752 24.570711 
L 40.798208 26.777989 
L 42.684975 28.574225 
L 42.998485 28.871604 
L 44.705093 30.484983 
L 47.234649 32.8596 
L 47.760885 33.351102 
L 49.993391 35.426733 
L 50.467925 35.865943 
L 52.561391 37.795334 
L 53.619807 38.765706 
L 55.409705 40.398971 
L 56.856839 41.712391 
L 59.211868 43.836372 
L 59.887738 44.442873 
L 62.319721 46.614022 
L 62.589316 46.853625 
L 65.204735 49.166984 
L 66.60705 50.399096 
L 67.804425 51.44661 
L 69.779661 53.165558 
L 71.19109 54.386965 
L 71.634043 54.769106 
L 73.1339 56.058881 
L 75.110789 57.74909 
L 76.720947 59.117576 
L 78.722526 60.808567 
L 80.656816 62.432069 
L 82.008103 63.56007 
L 82.354249 63.848206 
L 84.058559 65.262074 
L 85.295237 66.283006 
L 86.994074 67.678653 
L 89.479423 69.706315 
L 91.083171 71.005874 
L 92.746831 72.346688 
L 93.557211 72.997131 
L 95.219313 74.325736 
L 96.831735 75.607643 
L 97.939332 76.484235 
L 99.458855 77.68161 
L 100.479629 78.482588 
L 103.192267 80.597989 
L 103.761883 81.039779 
L 106.375555 83.056245 
L 107.194952 83.684821 
L 108.97599 85.045208 
L 109.720424 85.61144 
L 111.810435 87.193687 
L 113.433292 88.414724 
L 114.333607 89.08929 
L 116.252411 90.520251 
L 117.821927 91.683971 
L 118.72066 92.347613 
L 121.362728 94.287138 
L 122.511879 95.125428 
L 124.547563 96.602604 
L 125.13817 97.029307 
L 126.275009 97.848303 
L 128.8797 99.713148 
L 130.264833 100.698294 
L 132.06813 101.974081 
L 132.173917 102.048685 
L 133.717867 103.134556 
L 135.580791 104.437376 
L 137.558513 105.81169 
L 139.107089 106.88151 
L 141.126062 108.268065 
L 141.254147 108.355716 
L 144.080014 110.280056 
L 144.874774 110.818021 
L 145.956325 111.547836 
L 147.386608 112.508955 
L 149.543594 113.949799 
L 150.458953 114.558138 
L 152.557558 115.945893 
L 154.735577 117.375973 
L 155.048445 117.580554 
L 157.458822 119.149562 
L 158.55569 119.85941 
L 159.470731 120.449612 
L 161.331237 121.644126 
L 163.443807 122.991559 
L 164.119468 123.420516 
L 165.795446 124.480401 
L 168.255595 126.025551 
L 169.403706 126.742339 
L 170.692985 127.544012 
L 172.174187 128.460796 
L 173.743912 129.427463 
L 174.835884 130.096956 
L 176.926645 131.372058 
L 178.162313 132.12151 
L 179.920191 133.182406 
L 180.839161 133.734553 
L 182.494566 134.724936 
L 183.83143 135.52078 
L 185.538452 136.531861 
L 187.165995 137.490546 
L 188.773735 138.432492 
L 190.216632 139.273591 
L 191.592755 140.072019 
L 193.587528 141.222933 
L 194.608173 141.808868 
L 195.938758 142.56976 
L 197.214961 143.296402 
L 198.982052 144.297475 
L 201.274092 145.587219 
L 202.408999 146.222214 
L 204.131688 147.18152 
L 205.5392 147.961252 
L 207.434589 149.005518 
L 208.261771 149.459198 
L 210.780552 150.833015 
L 211.465286 151.204507 
L 212.443169 151.733581 
L 215.241511 153.238139 
L 215.632885 153.447454 
L 218.091881 154.756369 
L 219.789329 155.6537 
L 221.033612 156.308269 
L 221.845942 156.734146 
L 224.150051 157.935885 
L 224.505921 158.120676 
L 226.612514 159.210094 
L 228.013408 159.930355 
L 229.46898 160.675189 
L 231.959395 161.941247 
L 232.251775 162.0892 
L 234.260301 163.101697 
L 236.248761 164.097451 
L 237.305138 164.623781 
L 238.66727 165.299732 
L 239.827677 165.873172 
L 241.121423 166.509905 
L 243.23369 167.543623 
L 244.795794 168.30345 
L 247.146131 169.439282 
L 248.412778 170.047742 
L 249.227762 170.437885 
L 251.603745 171.569292 
L 252.155644 171.830823 
L 254.017414 172.709543 
L 255.901258 173.593171 
L 256.53992 173.891487 
L 258.0405 174.589916 
L 260.553354 175.751734 
L 261.963618 176.399535 
L 263.00877 176.877671 
L 265.152475 177.853196 
L 265.97551 178.22589 
L 267.70769 179.006951 
L 268.60694 179.410666 
L 270.085457 180.071827 
L 272.04621 180.943642 
L 273.93385 181.777605 
L 275.154017 182.313902 
L 276.246888 182.792408 
L 278.902799 183.948071 
L 279.26038 184.102888 
L 280.512234 184.64344 
L 282.349222 185.432597 
L 283.632016 185.98083 
L 285.253679 186.670553 
L 286.773322 187.313524 
L 288.558487 188.064706 
L 290.78636 188.995954 
L 291.367922 189.237914 
L 293.62975 190.174525 
L 295.139073 190.795626 
L 295.606958 190.987535 
L 298.254993 192.068056 
L 299.308969 192.495491 
L 301.231778 193.271435 
L 302.245813 193.678654 
L 303.186049 194.055015 
L 304.710447 194.662716 
L 307.013929 195.575182 
L 309.163747 196.420506 
L 310.051445 196.767799 
L 311.429249 197.304813 
L 313.406968 198.071369 
L 314.715438 198.575767 
L 316.204373 199.147073 
L 317.491949 199.638846 
L 318.624556 200.069696 
L 320.970178 200.956848 
L 322.14886 201.400043 
L 324.246961 202.18467 
L 324.841221 202.405914 
L 326.912527 203.173662 
L 328.143408 203.627404 
L 328.143408 314.437595 
z
" clip-path="url(#p9025626af5)" style="fill: #808080; opacity: 0.5"/>
   </g>
   <g id="matplotlib.axis_1">
    <g id="xtick_1">
     <g id="line2d_1">
      <defs>
       <path id="me2cec0263f" d="M 0 0 
L 0 3.5 
" style="stroke: #000000; stroke-width: 0.8"/>
      </defs>
      <g>
       <use xlink:href="#me2cec0263f" x="26.930079" y="314.437595" style="stroke: #000000; stroke-width: 0.8"/>
      </g>
     </g>
    </g>
    <g id="xtick_2">
     <g id="line2d_2">
      <g>
       <use xlink:href="#me2cec0263f" x="87.172745" y="314.437595" style="stroke: #000000; stroke-width: 0.8"/>
      </g>
     </g>
     <g id="text_1">
      <!-- $\mathdefault{0.2}$ -->
      <g transform="translate(80.807705 328.356094)scale(0.1 -0.1)">
       <defs>
        <path id="CMR17-30" d="M 2688 2038 
C 2688 2430 2682 3099 2413 3613 
C 2176 4063 1798 4224 1466 4224 
C 1158 4224 768 4082 525 3620 
C 269 3137 243 2539 243 2038 
C 243 1671 250 1112 448 623 
C 723 -39 1216 -128 1466 -128 
C 1760 -128 2208 -7 2470 604 
C 2662 1048 2688 1568 2688 2038 
z
M 1466 -26 
C 1056 -26 813 328 723 816 
C 653 1196 653 1749 653 2109 
C 653 2604 653 3015 736 3407 
C 858 3954 1216 4121 1466 4121 
C 1728 4121 2067 3947 2189 3420 
C 2272 3054 2278 2623 2278 2109 
C 2278 1691 2278 1176 2202 797 
C 2067 96 1690 -26 1466 -26 
z
" transform="scale(0.015625)"/>
        <path id="CMMI12-3a" d="M 1178 307 
C 1178 492 1024 620 870 620 
C 685 620 557 467 557 313 
C 557 128 710 0 864 0 
C 1050 0 1178 153 1178 307 
z
" transform="scale(0.015625)"/>
        <path id="CMR17-32" d="M 2669 990 
L 2554 990 
C 2490 537 2438 460 2413 422 
C 2381 371 1920 371 1830 371 
L 602 371 
C 832 620 1280 1073 1824 1596 
C 2214 1966 2669 2400 2669 3033 
C 2669 3788 2067 4224 1395 4224 
C 691 4224 262 3603 262 3027 
C 262 2777 448 2745 525 2745 
C 589 2745 781 2783 781 3007 
C 781 3206 614 3264 525 3264 
C 486 3264 448 3257 422 3244 
C 544 3788 915 4057 1306 4057 
C 1862 4057 2227 3616 2227 3033 
C 2227 2477 1901 1998 1536 1583 
L 262 147 
L 262 0 
L 2515 0 
L 2669 990 
z
" transform="scale(0.015625)"/>
       </defs>
       <use xlink:href="#CMR17-30" transform="scale(0.996264)"/>
       <use xlink:href="#CMMI12-3a" transform="translate(45.690477 0)scale(0.996264)"/>
       <use xlink:href="#CMR17-32" transform="translate(72.787654 0)scale(0.996264)"/>
      </g>
     </g>
    </g>
    <g id="xtick_3">
     <g id="line2d_3">
      <g>
       <use xlink:href="#me2cec0263f" x="147.41541" y="314.437595" style="stroke: #000000; stroke-width: 0.8"/>
      </g>
     </g>
     <g id="text_2">
      <!-- $\mathdefault{0.4}$ -->
      <g transform="translate(141.050371 328.356094)scale(0.1 -0.1)">
       <defs>
        <path id="CMR17-34" d="M 2150 4147 
C 2150 4281 2144 4288 2029 4288 
L 128 1254 
L 128 1088 
L 1779 1088 
L 1779 460 
C 1779 230 1766 166 1318 166 
L 1197 166 
L 1197 0 
C 1402 12 1747 12 1965 12 
C 2182 12 2528 12 2733 0 
L 2733 166 
L 2611 166 
C 2163 166 2150 230 2150 460 
L 2150 1088 
L 2803 1088 
L 2803 1254 
L 2150 1254 
L 2150 4147 
z
M 1798 3723 
L 1798 1254 
L 256 1254 
L 1798 3723 
z
" transform="scale(0.015625)"/>
       </defs>
       <use xlink:href="#CMR17-30" transform="scale(0.996264)"/>
       <use xlink:href="#CMMI12-3a" transform="translate(45.690477 0)scale(0.996264)"/>
       <use xlink:href="#CMR17-34" transform="translate(72.787654 0)scale(0.996264)"/>
      </g>
     </g>
    </g>
    <g id="xtick_4">
     <g id="line2d_4">
      <g>
       <use xlink:href="#me2cec0263f" x="207.658076" y="314.437595" style="stroke: #000000; stroke-width: 0.8"/>
      </g>
     </g>
     <g id="text_3">
      <!-- $\mathdefault{0.6}$ -->
      <g transform="translate(201.293037 328.356094)scale(0.1 -0.1)">
       <defs>
        <path id="CMR17-36" d="M 678 2198 
C 678 3712 1395 4076 1811 4076 
C 1946 4076 2272 4049 2400 3782 
C 2298 3782 2106 3782 2106 3558 
C 2106 3385 2246 3328 2336 3328 
C 2394 3328 2566 3353 2566 3571 
C 2566 3987 2246 4224 1805 4224 
C 1043 4224 243 3411 243 2011 
C 243 257 966 -128 1478 -128 
C 2099 -128 2688 431 2688 1295 
C 2688 2101 2170 2688 1517 2688 
C 1126 2688 838 2430 678 1979 
L 678 2198 
z
M 1478 25 
C 691 25 691 1212 691 1450 
C 691 1914 909 2585 1504 2585 
C 1613 2585 1926 2585 2138 2140 
C 2253 1889 2253 1624 2253 1302 
C 2253 954 2253 696 2118 438 
C 1978 173 1773 25 1478 25 
z
" transform="scale(0.015625)"/>
       </defs>
       <use xlink:href="#CMR17-30" transform="scale(0.996264)"/>
       <use xlink:href="#CMMI12-3a" transform="translate(45.690477 0)scale(0.996264)"/>
       <use xlink:href="#CMR17-36" transform="translate(72.787654 0)scale(0.996264)"/>
      </g>
     </g>
    </g>
    <g id="xtick_5">
     <g id="line2d_5">
      <g>
       <use xlink:href="#me2cec0263f" x="267.900742" y="314.437595" style="stroke: #000000; stroke-width: 0.8"/>
      </g>
     </g>
     <g id="text_4">
      <!-- $\mathdefault{0.8}$ -->
      <g transform="translate(261.535702 328.356094)scale(0.1 -0.1)">
       <defs>
        <path id="CMR17-38" d="M 1741 2289 
C 2144 2494 2554 2803 2554 3298 
C 2554 3884 1990 4224 1472 4224 
C 890 4224 378 3800 378 3215 
C 378 3054 416 2777 666 2533 
C 730 2469 998 2276 1171 2154 
C 883 2006 211 1652 211 945 
C 211 282 838 -128 1459 -128 
C 2144 -128 2720 366 2720 1022 
C 2720 1607 2330 1877 2074 2051 
L 1741 2289 
z
M 902 2855 
C 851 2887 595 3086 595 3388 
C 595 3781 998 4076 1459 4076 
C 1965 4076 2336 3716 2336 3298 
C 2336 2700 1670 2359 1638 2359 
C 1632 2359 1626 2359 1574 2398 
L 902 2855 
z
M 2080 1536 
C 2176 1466 2483 1253 2483 861 
C 2483 385 2010 25 1472 25 
C 890 25 448 443 448 951 
C 448 1459 838 1884 1280 2083 
L 2080 1536 
z
" transform="scale(0.015625)"/>
       </defs>
       <use xlink:href="#CMR17-30" transform="scale(0.996264)"/>
       <use xlink:href="#CMMI12-3a" transform="translate(45.690477 0)scale(0.996264)"/>
       <use xlink:href="#CMR17-38" transform="translate(72.787654 0)scale(0.996264)"/>
      </g>
     </g>
    </g>
    <g id="xtick_6">
     <g id="line2d_6">
      <g>
       <use xlink:href="#me2cec0263f" x="328.143408" y="314.437595" style="stroke: #000000; stroke-width: 0.8"/>
      </g>
     </g>
     <g id="text_5">
      <!-- $\mathdefault{1.0}$ -->
      <g transform="translate(321.778368 328.356094)scale(0.1 -0.1)">
       <defs>
        <path id="CMR17-31" d="M 1702 4083 
C 1702 4217 1696 4224 1606 4224 
C 1357 3927 979 3833 621 3820 
C 602 3820 570 3820 563 3808 
C 557 3795 557 3782 557 3648 
C 755 3648 1088 3686 1344 3839 
L 1344 467 
C 1344 243 1331 166 781 166 
L 589 166 
L 589 0 
C 896 6 1216 12 1523 12 
C 1830 12 2150 6 2458 0 
L 2458 166 
L 2266 166 
C 1715 166 1702 236 1702 467 
L 1702 4083 
z
" transform="scale(0.015625)"/>
       </defs>
       <use xlink:href="#CMR17-31" transform="scale(0.996264)"/>
       <use xlink:href="#CMMI12-3a" transform="translate(45.690477 0)scale(0.996264)"/>
       <use xlink:href="#CMR17-30" transform="translate(72.787654 0)scale(0.996264)"/>
      </g>
     </g>
    </g>
    <g id="xtick_7">
     <g id="line2d_7">
      <defs>
       <path id="m5942366d0d" d="M 0 0 
L 0 2 
" style="stroke: #000000; stroke-width: 0.6"/>
      </defs>
      <g>
       <use xlink:href="#m5942366d0d" x="41.990745" y="314.437595" style="stroke: #000000; stroke-width: 0.6"/>
      </g>
     </g>
    </g>
    <g id="xtick_8">
     <g id="line2d_8">
      <g>
       <use xlink:href="#m5942366d0d" x="57.051412" y="314.437595" style="stroke: #000000; stroke-width: 0.6"/>
      </g>
     </g>
    </g>
    <g id="xtick_9">
     <g id="line2d_9">
      <g>
       <use xlink:href="#m5942366d0d" x="72.112078" y="314.437595" style="stroke: #000000; stroke-width: 0.6"/>
      </g>
     </g>
    </g>
    <g id="xtick_10">
     <g id="line2d_10">
      <g>
       <use xlink:href="#m5942366d0d" x="102.233411" y="314.437595" style="stroke: #000000; stroke-width: 0.6"/>
      </g>
     </g>
    </g>
    <g id="xtick_11">
     <g id="line2d_11">
      <g>
       <use xlink:href="#m5942366d0d" x="117.294078" y="314.437595" style="stroke: #000000; stroke-width: 0.6"/>
      </g>
     </g>
    </g>
    <g id="xtick_12">
     <g id="line2d_12">
      <g>
       <use xlink:href="#m5942366d0d" x="132.354744" y="314.437595" style="stroke: #000000; stroke-width: 0.6"/>
      </g>
     </g>
    </g>
    <g id="xtick_13">
     <g id="line2d_13">
      <g>
       <use xlink:href="#m5942366d0d" x="162.476077" y="314.437595" style="stroke: #000000; stroke-width: 0.6"/>
      </g>
     </g>
    </g>
    <g id="xtick_14">
     <g id="line2d_14">
      <g>
       <use xlink:href="#m5942366d0d" x="177.536743" y="314.437595" style="stroke: #000000; stroke-width: 0.6"/>
      </g>
     </g>
    </g>
    <g id="xtick_15">
     <g id="line2d_15">
      <g>
       <use xlink:href="#m5942366d0d" x="192.59741" y="314.437595" style="stroke: #000000; stroke-width: 0.6"/>
      </g>
     </g>
    </g>
    <g id="xtick_16">
     <g id="line2d_16">
      <g>
       <use xlink:href="#m5942366d0d" x="222.718743" y="314.437595" style="stroke: #000000; stroke-width: 0.6"/>
      </g>
     </g>
    </g>
    <g id="xtick_17">
     <g id="line2d_17">
      <g>
       <use xlink:href="#m5942366d0d" x="237.779409" y="314.437595" style="stroke: #000000; stroke-width: 0.6"/>
      </g>
     </g>
    </g>
    <g id="xtick_18">
     <g id="line2d_18">
      <g>
       <use xlink:href="#m5942366d0d" x="252.840075" y="314.437595" style="stroke: #000000; stroke-width: 0.6"/>
      </g>
     </g>
    </g>
    <g id="xtick_19">
     <g id="line2d_19">
      <g>
       <use xlink:href="#m5942366d0d" x="282.961408" y="314.437595" style="stroke: #000000; stroke-width: 0.6"/>
      </g>
     </g>
    </g>
    <g id="xtick_20">
     <g id="line2d_20">
      <g>
       <use xlink:href="#m5942366d0d" x="298.022075" y="314.437595" style="stroke: #000000; stroke-width: 0.6"/>
      </g>
     </g>
    </g>
    <g id="xtick_21">
     <g id="line2d_21">
      <g>
       <use xlink:href="#m5942366d0d" x="313.082741" y="314.437595" style="stroke: #000000; stroke-width: 0.6"/>
      </g>
     </g>
    </g>
   </g>
   <g id="matplotlib.axis_2">
    <g id="ytick_1">
     <g id="line2d_22">
      <defs>
       <path id="m66df86f0a1" d="M 0 0 
L -3.5 0 
" style="stroke: #000000; stroke-width: 0.8"/>
      </defs>
      <g>
       <use xlink:href="#m66df86f0a1" x="26.930079" y="314.437595" style="stroke: #000000; stroke-width: 0.8"/>
      </g>
     </g>
    </g>
    <g id="ytick_2">
     <g id="line2d_23">
      <g>
       <use xlink:href="#m66df86f0a1" x="26.930079" y="254.194929" style="stroke: #000000; stroke-width: 0.8"/>
      </g>
     </g>
     <g id="text_6">
      <!-- $\mathdefault{0.2}$ -->
      <g transform="translate(7.2 257.654179)scale(0.1 -0.1)">
       <use xlink:href="#CMR17-30" transform="scale(0.996264)"/>
       <use xlink:href="#CMMI12-3a" transform="translate(45.690477 0)scale(0.996264)"/>
       <use xlink:href="#CMR17-32" transform="translate(72.787654 0)scale(0.996264)"/>
      </g>
     </g>
    </g>
    <g id="ytick_3">
     <g id="line2d_24">
      <g>
       <use xlink:href="#m66df86f0a1" x="26.930079" y="193.952264" style="stroke: #000000; stroke-width: 0.8"/>
      </g>
     </g>
     <g id="text_7">
      <!-- $\mathdefault{0.4}$ -->
      <g transform="translate(7.2 197.411513)scale(0.1 -0.1)">
       <use xlink:href="#CMR17-30" transform="scale(0.996264)"/>
       <use xlink:href="#CMMI12-3a" transform="translate(45.690477 0)scale(0.996264)"/>
       <use xlink:href="#CMR17-34" transform="translate(72.787654 0)scale(0.996264)"/>
      </g>
     </g>
    </g>
    <g id="ytick_4">
     <g id="line2d_25">
      <g>
       <use xlink:href="#m66df86f0a1" x="26.930079" y="133.709598" style="stroke: #000000; stroke-width: 0.8"/>
      </g>
     </g>
     <g id="text_8">
      <!-- $\mathdefault{0.6}$ -->
      <g transform="translate(7.2 137.168847)scale(0.1 -0.1)">
       <use xlink:href="#CMR17-30" transform="scale(0.996264)"/>
       <use xlink:href="#CMMI12-3a" transform="translate(45.690477 0)scale(0.996264)"/>
       <use xlink:href="#CMR17-36" transform="translate(72.787654 0)scale(0.996264)"/>
      </g>
     </g>
    </g>
    <g id="ytick_5">
     <g id="line2d_26">
      <g>
       <use xlink:href="#m66df86f0a1" x="26.930079" y="73.466932" style="stroke: #000000; stroke-width: 0.8"/>
      </g>
     </g>
     <g id="text_9">
      <!-- $\mathdefault{0.8}$ -->
      <g transform="translate(7.2 76.926181)scale(0.1 -0.1)">
       <use xlink:href="#CMR17-30" transform="scale(0.996264)"/>
       <use xlink:href="#CMMI12-3a" transform="translate(45.690477 0)scale(0.996264)"/>
       <use xlink:href="#CMR17-38" transform="translate(72.787654 0)scale(0.996264)"/>
      </g>
     </g>
    </g>
    <g id="ytick_6">
     <g id="line2d_27">
      <g>
       <use xlink:href="#m66df86f0a1" x="26.930079" y="13.224267" style="stroke: #000000; stroke-width: 0.8"/>
      </g>
     </g>
     <g id="text_10">
      <!-- $\mathdefault{1.0}$ -->
      <g transform="translate(7.2 16.683516)scale(0.1 -0.1)">
       <use xlink:href="#CMR17-31" transform="scale(0.996264)"/>
       <use xlink:href="#CMMI12-3a" transform="translate(45.690477 0)scale(0.996264)"/>
       <use xlink:href="#CMR17-30" transform="translate(72.787654 0)scale(0.996264)"/>
      </g>
     </g>
    </g>
    <g id="ytick_7">
     <g id="line2d_28">
      <defs>
       <path id="mb04ffa6b8c" d="M 0 0 
L -2 0 
" style="stroke: #000000; stroke-width: 0.6"/>
      </defs>
      <g>
       <use xlink:href="#mb04ffa6b8c" x="26.930079" y="299.376929" style="stroke: #000000; stroke-width: 0.6"/>
      </g>
     </g>
    </g>
    <g id="ytick_8">
     <g id="line2d_29">
      <g>
       <use xlink:href="#mb04ffa6b8c" x="26.930079" y="284.316262" style="stroke: #000000; stroke-width: 0.6"/>
      </g>
     </g>
    </g>
    <g id="ytick_9">
     <g id="line2d_30">
      <g>
       <use xlink:href="#mb04ffa6b8c" x="26.930079" y="269.255596" style="stroke: #000000; stroke-width: 0.6"/>
      </g>
     </g>
    </g>
    <g id="ytick_10">
     <g id="line2d_31">
      <g>
       <use xlink:href="#mb04ffa6b8c" x="26.930079" y="239.134263" style="stroke: #000000; stroke-width: 0.6"/>
      </g>
     </g>
    </g>
    <g id="ytick_11">
     <g id="line2d_32">
      <g>
       <use xlink:href="#mb04ffa6b8c" x="26.930079" y="224.073597" style="stroke: #000000; stroke-width: 0.6"/>
      </g>
     </g>
    </g>
    <g id="ytick_12">
     <g id="line2d_33">
      <g>
       <use xlink:href="#mb04ffa6b8c" x="26.930079" y="209.01293" style="stroke: #000000; stroke-width: 0.6"/>
      </g>
     </g>
    </g>
    <g id="ytick_13">
     <g id="line2d_34">
      <g>
       <use xlink:href="#mb04ffa6b8c" x="26.930079" y="178.891597" style="stroke: #000000; stroke-width: 0.6"/>
      </g>
     </g>
    </g>
    <g id="ytick_14">
     <g id="line2d_35">
      <g>
       <use xlink:href="#mb04ffa6b8c" x="26.930079" y="163.830931" style="stroke: #000000; stroke-width: 0.6"/>
      </g>
     </g>
    </g>
    <g id="ytick_15">
     <g id="line2d_36">
      <g>
       <use xlink:href="#mb04ffa6b8c" x="26.930079" y="148.770264" style="stroke: #000000; stroke-width: 0.6"/>
      </g>
     </g>
    </g>
    <g id="ytick_16">
     <g id="line2d_37">
      <g>
       <use xlink:href="#mb04ffa6b8c" x="26.930079" y="118.648932" style="stroke: #000000; stroke-width: 0.6"/>
      </g>
     </g>
    </g>
    <g id="ytick_17">
     <g id="line2d_38">
      <g>
       <use xlink:href="#mb04ffa6b8c" x="26.930079" y="103.588265" style="stroke: #000000; stroke-width: 0.6"/>
      </g>
     </g>
    </g>
    <g id="ytick_18">
     <g id="line2d_39">
      <g>
       <use xlink:href="#mb04ffa6b8c" x="26.930079" y="88.527599" style="stroke: #000000; stroke-width: 0.6"/>
      </g>
     </g>
    </g>
    <g id="ytick_19">
     <g id="line2d_40">
      <g>
       <use xlink:href="#mb04ffa6b8c" x="26.930079" y="58.406266" style="stroke: #000000; stroke-width: 0.6"/>
      </g>
     </g>
    </g>
    <g id="ytick_20">
     <g id="line2d_41">
      <g>
       <use xlink:href="#mb04ffa6b8c" x="26.930079" y="43.345599" style="stroke: #000000; stroke-width: 0.6"/>
      </g>
     </g>
    </g>
    <g id="ytick_21">
     <g id="line2d_42">
      <g>
       <use xlink:href="#mb04ffa6b8c" x="26.930079" y="28.284933" style="stroke: #000000; stroke-width: 0.6"/>
      </g>
     </g>
    </g>
   </g>
   <g id="line2d_43">
    <path d="M 26.930079 13.224267 
L 35.31914 21.497583 
L 44.705093 30.484983 
L 55.409705 40.398971 
L 65.204735 49.166984 
L 75.110789 57.74909 
L 85.295237 66.283006 
L 95.219313 74.325736 
L 106.375555 83.056245 
L 116.252411 90.520251 
L 126.275009 97.848303 
L 137.558513 105.81169 
L 147.386608 112.508955 
L 159.470731 120.449612 
L 170.692985 127.544012 
L 182.494566 134.724936 
L 194.608173 141.808868 
L 205.5392 147.961252 
L 218.091881 154.756369 
L 229.46898 160.675189 
L 241.121423 166.509905 
L 254.017414 172.709543 
L 265.97551 178.22589 
L 279.26038 184.102888 
L 291.367922 189.237914 
L 304.710447 194.662716 
L 318.624556 200.069696 
L 328.143408 203.627404 
L 328.143408 203.627404 
" clip-path="url(#p9025626af5)" style="fill: none; stroke: #ff0000; stroke-linecap: square"/>
   </g>
   <g id="patch_74">
    <path d="M 26.930079 320.461862 
L 26.930079 7.2 
" style="fill: none; stroke: #000000; stroke-width: 0.8; stroke-linejoin: miter; stroke-linecap: square"/>
   </g>
   <g id="patch_75">
    <path d="M 20.905812 314.437595 
L 334.167674 314.437595 
" style="fill: none; stroke: #000000; stroke-width: 0.8; stroke-linejoin: miter; stroke-linecap: square"/>
   </g>
  </g>
 </g>
 <defs>
  <clipPath id="p9025626af5">
   <rect x="20.905812" y="7.2" width="313.261862" height="313.261862"/>
  </clipPath>
 </defs>
</svg>
