<?xml version="1.0" encoding="UTF-8" standalone="no"?>
<svg
   width="94.012pt"
   height="86.036pt"
   viewBox="0 0 94.012 86.036"
   version="1.2"
   id="svg57"
   xmlns:xlink="http://www.w3.org/1999/xlink"
   xmlns="http://www.w3.org/2000/svg"
   xmlns:svg="http://www.w3.org/2000/svg">
  <defs
     id="defs22">
    <g
       id="g14">
      <symbol
         overflow="visible"
         id="glyph0-0">
        <path
           style="stroke:none;"
           d=""
           id="path2" />
      </symbol>
      <symbol
         overflow="visible"
         id="glyph0-1">
        <path
           style="stroke:none;"
           d="M 3.96875 -6.9375 C 3.921875 -7.0625 3.890625 -7.140625 3.734375 -7.140625 C 3.578125 -7.140625 3.546875 -7.078125 3.5 -6.9375 L 1.4375 -0.984375 C 1.25 -0.46875 0.859375 -0.3125 0.3125 -0.3125 L 0.3125 0 C 0.546875 -0.015625 0.984375 -0.03125 1.328125 -0.03125 C 1.640625 -0.03125 2.15625 -0.015625 2.484375 0 L 2.484375 -0.3125 C 1.984375 -0.3125 1.734375 -0.5625 1.734375 -0.8125 C 1.734375 -0.84375 1.75 -0.953125 1.75 -0.96875 L 2.21875 -2.265625 L 4.671875 -2.265625 L 5.203125 -0.75 C 5.21875 -0.703125 5.234375 -0.640625 5.234375 -0.609375 C 5.234375 -0.3125 4.671875 -0.3125 4.40625 -0.3125 L 4.40625 0 C 4.765625 -0.03125 5.46875 -0.03125 5.84375 -0.03125 C 6.265625 -0.03125 6.734375 -0.015625 7.140625 0 L 7.140625 -0.3125 L 6.96875 -0.3125 C 6.375 -0.3125 6.234375 -0.375 6.125 -0.703125 Z M 3.4375 -5.828125 L 4.5625 -2.578125 L 2.328125 -2.578125 Z M 3.4375 -5.828125 "
           id="path5" />
      </symbol>
      <symbol
         overflow="visible"
         id="glyph0-2">
        <path
           style="stroke:none;"
           d="M 4.078125 -2.296875 L 6.859375 -2.296875 C 7 -2.296875 7.1875 -2.296875 7.1875 -2.5 C 7.1875 -2.6875 7 -2.6875 6.859375 -2.6875 L 4.078125 -2.6875 L 4.078125 -5.484375 C 4.078125 -5.625 4.078125 -5.8125 3.875 -5.8125 C 3.671875 -5.8125 3.671875 -5.625 3.671875 -5.484375 L 3.671875 -2.6875 L 0.890625 -2.6875 C 0.75 -2.6875 0.5625 -2.6875 0.5625 -2.5 C 0.5625 -2.296875 0.75 -2.296875 0.890625 -2.296875 L 3.671875 -2.296875 L 3.671875 0.5 C 3.671875 0.640625 3.671875 0.828125 3.875 0.828125 C 4.078125 0.828125 4.078125 0.640625 4.078125 0.5 Z M 4.078125 -2.296875 "
           id="path8" />
      </symbol>
      <symbol
         overflow="visible"
         id="glyph0-3">
        <path
           style="stroke:none;"
           d="M 2.21875 -3.65625 L 2.21875 -6.09375 C 2.21875 -6.4375 2.234375 -6.5 2.703125 -6.5 L 3.9375 -6.5 C 4.90625 -6.5 5.25 -5.65625 5.25 -5.125 C 5.25 -4.484375 4.765625 -3.65625 3.65625 -3.65625 Z M 4.5625 -3.5625 C 5.53125 -3.75 6.21875 -4.390625 6.21875 -5.125 C 6.21875 -5.984375 5.296875 -6.8125 4 -6.8125 L 0.359375 -6.8125 L 0.359375 -6.5 L 0.59375 -6.5 C 1.359375 -6.5 1.390625 -6.390625 1.390625 -6.03125 L 1.390625 -0.78125 C 1.390625 -0.421875 1.359375 -0.3125 0.59375 -0.3125 L 0.359375 -0.3125 L 0.359375 0 L 4.265625 0 C 5.59375 0 6.484375 -0.890625 6.484375 -1.828125 C 6.484375 -2.6875 5.671875 -3.4375 4.5625 -3.5625 Z M 3.953125 -0.3125 L 2.703125 -0.3125 C 2.234375 -0.3125 2.21875 -0.375 2.21875 -0.703125 L 2.21875 -3.421875 L 4.09375 -3.421875 C 5.078125 -3.421875 5.5 -2.5 5.5 -1.828125 C 5.5 -1.125 4.96875 -0.3125 3.953125 -0.3125 Z M 3.953125 -0.3125 "
           id="path11" />
      </symbol>
    </g>
    <clipPath
       id="clip1">
      <path
         d="M 0 53 L 76 53 L 76 86.035156 L 0 86.035156 Z M 0 53 "
         id="path16" />
    </clipPath>
    <clipPath
       id="clip2">
      <path
         d="M 0 0 L 91 0 L 91 86.035156 L 0 86.035156 Z M 0 0 "
         id="path19" />
    </clipPath>
  </defs>
  <g
     id="surface1">
    <g
       clip-path="url(#clip1)"
       clip-rule="nonzero"
       id="g26">
      <path
         style="fill:none;stroke:#000000;stroke-width:0.3985;stroke-linecap:butt;stroke-linejoin:miter;stroke-miterlimit:10;stroke-opacity:1"
         d="M 0.498094,0.190344 69.857469,26.866125"
         transform="matrix(1,0,0,-1,0.498,85.538)"
         id="path24" />
    </g>
    <path
       style="fill:#000000;fill-opacity:1;fill-rule:nonzero;stroke:none"
       d="m 73.703125,57.382812 c -1.066406,0.195313 -2.890625,0.257813 -4.257813,0.03516 l 1.074219,2.789062 c 0.863281,-1.078125 2.261719,-2.257812 3.183594,-2.824219"
       id="path28" />
    <g
       style="fill:#000000;fill-opacity:1"
       id="g32">
      <use
         xlink:href="#glyph0-1"
         x="33.612999"
         y="81.007004"
         id="use30" />
    </g>
    <g
       clip-path="url(#clip2)"
       clip-rule="nonzero"
       id="g36">
      <path
         style="fill:none;stroke:#000000;stroke-width:0.3985;stroke-linecap:butt;stroke-linejoin:miter;stroke-miterlimit:10;stroke-opacity:1"
         d="M 0.498094,0.483312 84.798875,82.065344"
         transform="matrix(1,0,0,-1,0.498,85.538)"
         id="path34" />
    </g>
    <path
       style="fill:#000000;fill-opacity:1;fill-rule:nonzero;stroke:none"
       d="m 87.875,0.980469 c -0.902344,0.59375 -2.558594,1.367187 -3.902344,1.695312 l 2.078125,2.148438 C 86.425781,3.492188 87.25,1.863281 87.875,0.980469"
       id="path38" />
    <g
       style="fill:#000000;fill-opacity:1"
       id="g46">
      <use
         xlink:href="#glyph0-1"
         x="33.296001"
         y="30.85"
         id="use40" />
      <use
         xlink:href="#glyph0-2"
         x="40.767948"
         y="30.85"
         id="use42" />
      <use
         xlink:href="#glyph0-3"
         x="48.516861"
         y="30.85"
         id="use44" />
    </g>
    <path
       style="fill:none;stroke:#000000;stroke-width:0.3985;stroke-linecap:butt;stroke-linejoin:miter;stroke-miterlimit:10;stroke-opacity:1"
       d="M 73.826219,28.846594 86.880906,81.061437"
       transform="matrix(1,0,0,-1,0.498,85.538)"
       id="path48" />
    <path
       style="fill:#000000;fill-opacity:1;fill-rule:nonzero;stroke:none"
       d="M 88.25,0.996094 C 87.796875,1.976562 86.800781,3.507812 85.832031,4.5 l 2.898438,0.722656 C 88.34375,3.894531 88.183594,2.074219 88.25,0.996094"
       id="path50" />
    <g
       style="fill:#000000;fill-opacity:1"
       id="g54">
      <use
         xlink:href="#glyph0-3"
         x="86.955002"
         y="32.249001"
         id="use52" />
    </g>
  </g>
</svg>
