<?xml version="1.0" encoding="utf-8" standalone="no"?>
<!DOCTYPE svg PUBLIC "-//W3C//DTD SVG 1.1//EN"
  "http://www.w3.org/Graphics/SVG/1.1/DTD/svg11.dtd">
<svg xmlns:xlink="http://www.w3.org/1999/xlink" width="341.708447pt" height="337.493272pt" viewBox="0 0 341.708447 337.493272" xmlns="http://www.w3.org/2000/svg" version="1.1">
 <metadata>
  <rdf:RDF xmlns:dc="http://purl.org/dc/elements/1.1/" xmlns:cc="http://creativecommons.org/ns#" xmlns:rdf="http://www.w3.org/1999/02/22-rdf-syntax-ns#">
   <cc:Work>
    <dc:type rdf:resource="http://purl.org/dc/dcmitype/StillImage"/>
    <dc:date>2022-09-15T18:55:20.920366</dc:date>
    <dc:format>image/svg+xml</dc:format>
    <dc:creator>
     <cc:Agent>
      <dc:title>Matplotlib v3.5.1, https://matplotlib.org/</dc:title>
     </cc:Agent>
    </dc:creator>
   </cc:Work>
  </rdf:RDF>
 </metadata>
 <defs>
  <style type="text/css">*{stroke-linejoin: round; stroke-linecap: butt}</style>
 </defs>
 <g id="figure_1">
  <g id="patch_1">
   <path d="M 0 337.493272 
L 341.708447 337.493272 
L 341.708447 0 
L 0 0 
L 0 337.493272 
z
" style="fill: none"/>
  </g>
  <g id="axes_1">
   <g id="patch_2">
    <path d="M 20.905812 320.461862 
L 334.167674 320.461862 
L 334.167674 7.2 
L 20.905812 7.2 
L 20.905812 320.461862 
z
" style="fill: none"/>
   </g>
   <g id="patch_3">
    <path d="M 26.930079 314.437595 
L 26.930079 13.224267 
L 64.581745 13.224267 
L 64.581745 314.437595 
L 26.930079 314.437595 
z
" clip-path="url(#p2786025ad0)" style="fill: none; stroke: #0000ff; stroke-linejoin: miter"/>
   </g>
   <g id="patch_4">
    <path d="M 64.581745 314.437595 
L 64.581745 48.617766 
L 102.233411 48.617766 
L 102.233411 314.437595 
L 64.581745 314.437595 
z
" clip-path="url(#p2786025ad0)" style="fill: none; stroke: #0000ff; stroke-linejoin: miter"/>
   </g>
   <g id="patch_5">
    <path d="M 102.233411 314.437595 
L 102.233411 79.852419 
L 139.885077 79.852419 
L 139.885077 314.437595 
L 102.233411 314.437595 
z
" clip-path="url(#p2786025ad0)" style="fill: none; stroke: #0000ff; stroke-linejoin: miter"/>
   </g>
   <g id="patch_6">
    <path d="M 139.885077 314.437595 
L 139.885077 107.416904 
L 177.536743 107.416904 
L 177.536743 314.437595 
L 139.885077 314.437595 
z
" clip-path="url(#p2786025ad0)" style="fill: none; stroke: #0000ff; stroke-linejoin: miter"/>
   </g>
   <g id="patch_7">
    <path d="M 177.536743 314.437595 
L 177.536743 131.742476 
L 215.188409 131.742476 
L 215.188409 314.437595 
L 177.536743 314.437595 
z
" clip-path="url(#p2786025ad0)" style="fill: none; stroke: #0000ff; stroke-linejoin: miter"/>
   </g>
   <g id="patch_8">
    <path d="M 215.188409 314.437595 
L 215.188409 153.209719 
L 252.840075 153.209719 
L 252.840075 314.437595 
L 215.188409 314.437595 
z
" clip-path="url(#p2786025ad0)" style="fill: none; stroke: #0000ff; stroke-linejoin: miter"/>
   </g>
   <g id="patch_9">
    <path d="M 252.840075 314.437595 
L 252.840075 172.154494 
L 290.491742 172.154494 
L 290.491742 314.437595 
L 252.840075 314.437595 
z
" clip-path="url(#p2786025ad0)" style="fill: none; stroke: #0000ff; stroke-linejoin: miter"/>
   </g>
   <g id="patch_10">
    <path d="M 290.491742 314.437595 
L 290.491742 188.873199 
L 328.143408 188.873199 
L 328.143408 314.437595 
L 290.491742 314.437595 
z
" clip-path="url(#p2786025ad0)" style="fill: none; stroke: #0000ff; stroke-linejoin: miter"/>
   </g>
   <g id="patch_11">
    <path d="M 26.930079 314.437595 
L 26.930079 13.224267 
L 27.991555 14.283874 
L 29.998508 16.27712 
L 32.072948 18.32348 
L 32.746039 18.984438 
L 35.043823 21.229706 
L 35.781278 21.946683 
L 37.043405 23.169698 
L 38.50529 24.57989 
L 40.009519 26.023802 
L 42.097095 28.015759 
L 44.324473 30.125947 
L 45.690134 31.41206 
L 47.247606 32.871713 
L 48.307283 33.860529 
L 49.370054 34.848744 
L 51.112972 36.461865 
L 53.140747 38.326919 
L 54.719098 39.769949 
L 55.101385 40.118324 
L 56.91972 41.769319 
L 59.323764 43.936878 
L 59.502907 44.097707 
L 61.872924 46.216458 
L 62.78132 47.024138 
L 64.085824 48.179756 
L 65.92967 49.804647 
L 68.103969 51.708014 
L 69.065719 52.545551 
L 70.199364 53.529354 
L 73.012556 55.954772 
L 73.200804 56.116264 
L 75.922739 58.440087 
L 76.533148 58.958341 
L 77.702696 59.94839 
L 79.638154 61.578378 
L 82.120053 63.653295 
L 82.616124 64.065974 
L 85.081353 66.106735 
L 86.62195 67.373615 
L 87.35531 67.974406 
L 88.323049 68.764974 
L 90.003382 70.131655 
L 92.75862 72.356164 
L 94.117009 73.445426 
L 95.424236 74.489035 
L 97.181719 75.884981 
L 98.274948 76.749219 
L 99.498342 77.712645 
L 101.647361 79.395559 
L 102.701628 80.216783 
L 103.475558 80.817812 
L 106.342617 83.030942 
L 106.530046 83.174889 
L 108.617042 84.771685 
L 110.194105 85.971004 
L 111.366833 86.858775 
L 113.001814 88.090722 
L 114.42797 89.159874 
L 116.232088 90.505143 
L 117.873498 91.722106 
L 119.888477 93.206998 
L 121.285315 94.230551 
L 122.384567 95.032713 
L 123.29308 95.69348 
L 125.196775 97.071603 
L 127.199356 98.511942 
L 128.276659 99.28283 
L 129.413455 100.093306 
L 131.694272 101.710213 
L 132.168035 102.044537 
L 133.951838 103.298625 
L 135.653877 104.488324 
L 138.079538 106.172249 
L 138.754731 106.63857 
L 140.393082 107.765756 
L 141.362241 108.429657 
L 142.752155 109.378067 
L 145.41397 111.18219 
L 147.176873 112.368303 
L 147.904111 112.855583 
L 149.894468 114.183205 
L 150.620015 114.664987 
L 152.46473 115.884712 
L 154.715144 117.362605 
L 156.242009 118.35906 
L 157.059258 118.890337 
L 158.822307 120.031564 
L 159.708311 120.602559 
L 161.650651 121.848461 
L 163.509317 123.033192 
L 164.385716 123.589285 
L 166.918267 125.187179 
L 167.103568 125.303567 
L 169.565711 126.843263 
L 169.972669 127.096543 
L 172.065804 128.393865 
L 174.04168 129.610267 
L 175.876713 130.732837 
L 176.599266 131.172982 
L 177.752957 131.87357 
L 179.389703 132.862903 
L 180.66964 133.632827 
L 183.336372 135.226481 
L 184.149912 135.709855 
L 185.864421 136.724285 
L 186.945528 137.360985 
L 189.644215 138.940397 
L 190.321507 139.334567 
L 191.503423 140.0203 
L 194.168615 141.556769 
L 194.697009 141.859774 
L 197.086999 143.223681 
L 198.632203 144.099748 
L 200.090256 144.922293 
L 201.182748 145.536007 
L 202.514275 146.280996 
L 203.447756 146.801318 
L 204.824167 147.565594 
L 207.787922 149.199461 
L 208.426093 149.549175 
L 209.606903 150.194302 
L 211.182344 151.051104 
L 213.62742 152.372013 
L 215.03674 153.128516 
L 215.794206 153.533653 
L 217.511078 154.448172 
L 219.015622 155.245318 
L 220.575588 156.067634 
L 222.216713 156.928148 
L 223.651881 157.676836 
L 224.567466 158.152612 
L 226.816412 159.315136 
L 228.206508 160.029375 
L 229.006029 160.438682 
L 230.979653 161.444422 
L 233.192087 162.564052 
L 234.209256 163.076049 
L 236.467069 164.206372 
L 236.60165 164.27348 
L 238.912024 165.420867 
L 240.059397 165.987417 
L 242.045082 166.962825 
L 243.421607 167.635237 
L 245.558285 168.672905 
L 246.999258 169.368563 
L 248.028256 169.863299 
L 249.959476 170.787268 
L 251.368418 171.457631 
L 252.660357 172.069575 
L 253.688017 172.55447 
L 255.524499 173.416892 
L 256.948905 174.082189 
L 257.941078 174.543749 
L 260.278224 175.624999 
L 261.146973 176.024781 
L 262.34509 176.574243 
L 264.20699 177.423795 
L 265.818427 178.154836 
L 267.371557 178.855735 
L 268.467577 179.348178 
L 270.626864 180.313122 
L 272.337372 181.072619 
L 274.110054 181.855185 
L 274.848184 182.179684 
L 276.997745 183.120162 
L 278.016055 183.563356 
L 280.337313 184.568044 
L 281.307551 184.985693 
L 283.337484 185.855161 
L 284.924205 186.530722 
L 285.67703 186.850001 
L 286.671525 187.270554 
L 289.073731 188.28069 
L 290.616876 188.925352 
L 291.107861 189.129773 
L 293.785138 190.238613 
L 295.598181 190.983937 
L 296.70671 191.437438 
L 298.469143 192.155024 
L 299.565623 192.599349 
L 301.442689 193.356246 
L 302.245666 193.678596 
L 304.545692 194.597184 
L 305.319084 194.90449 
L 307.573704 195.795871 
L 308.464256 196.146123 
L 309.50632 196.554651 
L 311.989838 197.522606 
L 312.304523 197.644686 
L 315.252426 198.782136 
L 315.367816 198.826433 
L 317.596437 199.678661 
L 319.394547 200.361681 
L 320.139002 200.643273 
L 321.688502 201.227151 
L 323.502685 201.906958 
L 324.773463 202.38071 
L 327.155371 203.263329 
L 328.143408 203.627404 
L 328.143408 314.437595 
z
" clip-path="url(#p2786025ad0)" style="fill: #808080; opacity: 0.5"/>
   </g>
   <g id="matplotlib.axis_1">
    <g id="xtick_1">
     <g id="line2d_1">
      <defs>
       <path id="mbdaa8a79a8" d="M 0 0 
L 0 3.5 
" style="stroke: #000000; stroke-width: 0.8"/>
      </defs>
      <g>
       <use xlink:href="#mbdaa8a79a8" x="26.930079" y="314.437595" style="stroke: #000000; stroke-width: 0.8"/>
      </g>
     </g>
    </g>
    <g id="xtick_2">
     <g id="line2d_2">
      <g>
       <use xlink:href="#mbdaa8a79a8" x="87.172745" y="314.437595" style="stroke: #000000; stroke-width: 0.8"/>
      </g>
     </g>
     <g id="text_1">
      <!-- $\mathdefault{0.2}$ -->
      <g transform="translate(80.807705 328.356094)scale(0.1 -0.1)">
       <defs>
        <path id="CMR17-30" d="M 2688 2038 
C 2688 2430 2682 3099 2413 3613 
C 2176 4063 1798 4224 1466 4224 
C 1158 4224 768 4082 525 3620 
C 269 3137 243 2539 243 2038 
C 243 1671 250 1112 448 623 
C 723 -39 1216 -128 1466 -128 
C 1760 -128 2208 -7 2470 604 
C 2662 1048 2688 1568 2688 2038 
z
M 1466 -26 
C 1056 -26 813 328 723 816 
C 653 1196 653 1749 653 2109 
C 653 2604 653 3015 736 3407 
C 858 3954 1216 4121 1466 4121 
C 1728 4121 2067 3947 2189 3420 
C 2272 3054 2278 2623 2278 2109 
C 2278 1691 2278 1176 2202 797 
C 2067 96 1690 -26 1466 -26 
z
" transform="scale(0.015625)"/>
        <path id="CMMI12-3a" d="M 1178 307 
C 1178 492 1024 620 870 620 
C 685 620 557 467 557 313 
C 557 128 710 0 864 0 
C 1050 0 1178 153 1178 307 
z
" transform="scale(0.015625)"/>
        <path id="CMR17-32" d="M 2669 990 
L 2554 990 
C 2490 537 2438 460 2413 422 
C 2381 371 1920 371 1830 371 
L 602 371 
C 832 620 1280 1073 1824 1596 
C 2214 1966 2669 2400 2669 3033 
C 2669 3788 2067 4224 1395 4224 
C 691 4224 262 3603 262 3027 
C 262 2777 448 2745 525 2745 
C 589 2745 781 2783 781 3007 
C 781 3206 614 3264 525 3264 
C 486 3264 448 3257 422 3244 
C 544 3788 915 4057 1306 4057 
C 1862 4057 2227 3616 2227 3033 
C 2227 2477 1901 1998 1536 1583 
L 262 147 
L 262 0 
L 2515 0 
L 2669 990 
z
" transform="scale(0.015625)"/>
       </defs>
       <use xlink:href="#CMR17-30" transform="scale(0.996264)"/>
       <use xlink:href="#CMMI12-3a" transform="translate(45.690477 0)scale(0.996264)"/>
       <use xlink:href="#CMR17-32" transform="translate(72.787654 0)scale(0.996264)"/>
      </g>
     </g>
    </g>
    <g id="xtick_3">
     <g id="line2d_3">
      <g>
       <use xlink:href="#mbdaa8a79a8" x="147.41541" y="314.437595" style="stroke: #000000; stroke-width: 0.8"/>
      </g>
     </g>
     <g id="text_2">
      <!-- $\mathdefault{0.4}$ -->
      <g transform="translate(141.050371 328.356094)scale(0.1 -0.1)">
       <defs>
        <path id="CMR17-34" d="M 2150 4147 
C 2150 4281 2144 4288 2029 4288 
L 128 1254 
L 128 1088 
L 1779 1088 
L 1779 460 
C 1779 230 1766 166 1318 166 
L 1197 166 
L 1197 0 
C 1402 12 1747 12 1965 12 
C 2182 12 2528 12 2733 0 
L 2733 166 
L 2611 166 
C 2163 166 2150 230 2150 460 
L 2150 1088 
L 2803 1088 
L 2803 1254 
L 2150 1254 
L 2150 4147 
z
M 1798 3723 
L 1798 1254 
L 256 1254 
L 1798 3723 
z
" transform="scale(0.015625)"/>
       </defs>
       <use xlink:href="#CMR17-30" transform="scale(0.996264)"/>
       <use xlink:href="#CMMI12-3a" transform="translate(45.690477 0)scale(0.996264)"/>
       <use xlink:href="#CMR17-34" transform="translate(72.787654 0)scale(0.996264)"/>
      </g>
     </g>
    </g>
    <g id="xtick_4">
     <g id="line2d_4">
      <g>
       <use xlink:href="#mbdaa8a79a8" x="207.658076" y="314.437595" style="stroke: #000000; stroke-width: 0.8"/>
      </g>
     </g>
     <g id="text_3">
      <!-- $\mathdefault{0.6}$ -->
      <g transform="translate(201.293037 328.356094)scale(0.1 -0.1)">
       <defs>
        <path id="CMR17-36" d="M 678 2198 
C 678 3712 1395 4076 1811 4076 
C 1946 4076 2272 4049 2400 3782 
C 2298 3782 2106 3782 2106 3558 
C 2106 3385 2246 3328 2336 3328 
C 2394 3328 2566 3353 2566 3571 
C 2566 3987 2246 4224 1805 4224 
C 1043 4224 243 3411 243 2011 
C 243 257 966 -128 1478 -128 
C 2099 -128 2688 431 2688 1295 
C 2688 2101 2170 2688 1517 2688 
C 1126 2688 838 2430 678 1979 
L 678 2198 
z
M 1478 25 
C 691 25 691 1212 691 1450 
C 691 1914 909 2585 1504 2585 
C 1613 2585 1926 2585 2138 2140 
C 2253 1889 2253 1624 2253 1302 
C 2253 954 2253 696 2118 438 
C 1978 173 1773 25 1478 25 
z
" transform="scale(0.015625)"/>
       </defs>
       <use xlink:href="#CMR17-30" transform="scale(0.996264)"/>
       <use xlink:href="#CMMI12-3a" transform="translate(45.690477 0)scale(0.996264)"/>
       <use xlink:href="#CMR17-36" transform="translate(72.787654 0)scale(0.996264)"/>
      </g>
     </g>
    </g>
    <g id="xtick_5">
     <g id="line2d_5">
      <g>
       <use xlink:href="#mbdaa8a79a8" x="267.900742" y="314.437595" style="stroke: #000000; stroke-width: 0.8"/>
      </g>
     </g>
     <g id="text_4">
      <!-- $\mathdefault{0.8}$ -->
      <g transform="translate(261.535702 328.356094)scale(0.1 -0.1)">
       <defs>
        <path id="CMR17-38" d="M 1741 2289 
C 2144 2494 2554 2803 2554 3298 
C 2554 3884 1990 4224 1472 4224 
C 890 4224 378 3800 378 3215 
C 378 3054 416 2777 666 2533 
C 730 2469 998 2276 1171 2154 
C 883 2006 211 1652 211 945 
C 211 282 838 -128 1459 -128 
C 2144 -128 2720 366 2720 1022 
C 2720 1607 2330 1877 2074 2051 
L 1741 2289 
z
M 902 2855 
C 851 2887 595 3086 595 3388 
C 595 3781 998 4076 1459 4076 
C 1965 4076 2336 3716 2336 3298 
C 2336 2700 1670 2359 1638 2359 
C 1632 2359 1626 2359 1574 2398 
L 902 2855 
z
M 2080 1536 
C 2176 1466 2483 1253 2483 861 
C 2483 385 2010 25 1472 25 
C 890 25 448 443 448 951 
C 448 1459 838 1884 1280 2083 
L 2080 1536 
z
" transform="scale(0.015625)"/>
       </defs>
       <use xlink:href="#CMR17-30" transform="scale(0.996264)"/>
       <use xlink:href="#CMMI12-3a" transform="translate(45.690477 0)scale(0.996264)"/>
       <use xlink:href="#CMR17-38" transform="translate(72.787654 0)scale(0.996264)"/>
      </g>
     </g>
    </g>
    <g id="xtick_6">
     <g id="line2d_6">
      <g>
       <use xlink:href="#mbdaa8a79a8" x="328.143408" y="314.437595" style="stroke: #000000; stroke-width: 0.8"/>
      </g>
     </g>
     <g id="text_5">
      <!-- $\mathdefault{1.0}$ -->
      <g transform="translate(321.778368 328.356094)scale(0.1 -0.1)">
       <defs>
        <path id="CMR17-31" d="M 1702 4083 
C 1702 4217 1696 4224 1606 4224 
C 1357 3927 979 3833 621 3820 
C 602 3820 570 3820 563 3808 
C 557 3795 557 3782 557 3648 
C 755 3648 1088 3686 1344 3839 
L 1344 467 
C 1344 243 1331 166 781 166 
L 589 166 
L 589 0 
C 896 6 1216 12 1523 12 
C 1830 12 2150 6 2458 0 
L 2458 166 
L 2266 166 
C 1715 166 1702 236 1702 467 
L 1702 4083 
z
" transform="scale(0.015625)"/>
       </defs>
       <use xlink:href="#CMR17-31" transform="scale(0.996264)"/>
       <use xlink:href="#CMMI12-3a" transform="translate(45.690477 0)scale(0.996264)"/>
       <use xlink:href="#CMR17-30" transform="translate(72.787654 0)scale(0.996264)"/>
      </g>
     </g>
    </g>
    <g id="xtick_7">
     <g id="line2d_7">
      <defs>
       <path id="m4938ec7679" d="M 0 0 
L 0 2 
" style="stroke: #000000; stroke-width: 0.6"/>
      </defs>
      <g>
       <use xlink:href="#m4938ec7679" x="41.990745" y="314.437595" style="stroke: #000000; stroke-width: 0.6"/>
      </g>
     </g>
    </g>
    <g id="xtick_8">
     <g id="line2d_8">
      <g>
       <use xlink:href="#m4938ec7679" x="57.051412" y="314.437595" style="stroke: #000000; stroke-width: 0.6"/>
      </g>
     </g>
    </g>
    <g id="xtick_9">
     <g id="line2d_9">
      <g>
       <use xlink:href="#m4938ec7679" x="72.112078" y="314.437595" style="stroke: #000000; stroke-width: 0.6"/>
      </g>
     </g>
    </g>
    <g id="xtick_10">
     <g id="line2d_10">
      <g>
       <use xlink:href="#m4938ec7679" x="102.233411" y="314.437595" style="stroke: #000000; stroke-width: 0.6"/>
      </g>
     </g>
    </g>
    <g id="xtick_11">
     <g id="line2d_11">
      <g>
       <use xlink:href="#m4938ec7679" x="117.294078" y="314.437595" style="stroke: #000000; stroke-width: 0.6"/>
      </g>
     </g>
    </g>
    <g id="xtick_12">
     <g id="line2d_12">
      <g>
       <use xlink:href="#m4938ec7679" x="132.354744" y="314.437595" style="stroke: #000000; stroke-width: 0.6"/>
      </g>
     </g>
    </g>
    <g id="xtick_13">
     <g id="line2d_13">
      <g>
       <use xlink:href="#m4938ec7679" x="162.476077" y="314.437595" style="stroke: #000000; stroke-width: 0.6"/>
      </g>
     </g>
    </g>
    <g id="xtick_14">
     <g id="line2d_14">
      <g>
       <use xlink:href="#m4938ec7679" x="177.536743" y="314.437595" style="stroke: #000000; stroke-width: 0.6"/>
      </g>
     </g>
    </g>
    <g id="xtick_15">
     <g id="line2d_15">
      <g>
       <use xlink:href="#m4938ec7679" x="192.59741" y="314.437595" style="stroke: #000000; stroke-width: 0.6"/>
      </g>
     </g>
    </g>
    <g id="xtick_16">
     <g id="line2d_16">
      <g>
       <use xlink:href="#m4938ec7679" x="222.718743" y="314.437595" style="stroke: #000000; stroke-width: 0.6"/>
      </g>
     </g>
    </g>
    <g id="xtick_17">
     <g id="line2d_17">
      <g>
       <use xlink:href="#m4938ec7679" x="237.779409" y="314.437595" style="stroke: #000000; stroke-width: 0.6"/>
      </g>
     </g>
    </g>
    <g id="xtick_18">
     <g id="line2d_18">
      <g>
       <use xlink:href="#m4938ec7679" x="252.840075" y="314.437595" style="stroke: #000000; stroke-width: 0.6"/>
      </g>
     </g>
    </g>
    <g id="xtick_19">
     <g id="line2d_19">
      <g>
       <use xlink:href="#m4938ec7679" x="282.961408" y="314.437595" style="stroke: #000000; stroke-width: 0.6"/>
      </g>
     </g>
    </g>
    <g id="xtick_20">
     <g id="line2d_20">
      <g>
       <use xlink:href="#m4938ec7679" x="298.022075" y="314.437595" style="stroke: #000000; stroke-width: 0.6"/>
      </g>
     </g>
    </g>
    <g id="xtick_21">
     <g id="line2d_21">
      <g>
       <use xlink:href="#m4938ec7679" x="313.082741" y="314.437595" style="stroke: #000000; stroke-width: 0.6"/>
      </g>
     </g>
    </g>
   </g>
   <g id="matplotlib.axis_2">
    <g id="ytick_1">
     <g id="line2d_22">
      <defs>
       <path id="m101b513b0e" d="M 0 0 
L -3.5 0 
" style="stroke: #000000; stroke-width: 0.8"/>
      </defs>
      <g>
       <use xlink:href="#m101b513b0e" x="26.930079" y="314.437595" style="stroke: #000000; stroke-width: 0.8"/>
      </g>
     </g>
    </g>
    <g id="ytick_2">
     <g id="line2d_23">
      <g>
       <use xlink:href="#m101b513b0e" x="26.930079" y="254.194929" style="stroke: #000000; stroke-width: 0.8"/>
      </g>
     </g>
     <g id="text_6">
      <!-- $\mathdefault{0.2}$ -->
      <g transform="translate(7.2 257.654179)scale(0.1 -0.1)">
       <use xlink:href="#CMR17-30" transform="scale(0.996264)"/>
       <use xlink:href="#CMMI12-3a" transform="translate(45.690477 0)scale(0.996264)"/>
       <use xlink:href="#CMR17-32" transform="translate(72.787654 0)scale(0.996264)"/>
      </g>
     </g>
    </g>
    <g id="ytick_3">
     <g id="line2d_24">
      <g>
       <use xlink:href="#m101b513b0e" x="26.930079" y="193.952264" style="stroke: #000000; stroke-width: 0.8"/>
      </g>
     </g>
     <g id="text_7">
      <!-- $\mathdefault{0.4}$ -->
      <g transform="translate(7.2 197.411513)scale(0.1 -0.1)">
       <use xlink:href="#CMR17-30" transform="scale(0.996264)"/>
       <use xlink:href="#CMMI12-3a" transform="translate(45.690477 0)scale(0.996264)"/>
       <use xlink:href="#CMR17-34" transform="translate(72.787654 0)scale(0.996264)"/>
      </g>
     </g>
    </g>
    <g id="ytick_4">
     <g id="line2d_25">
      <g>
       <use xlink:href="#m101b513b0e" x="26.930079" y="133.709598" style="stroke: #000000; stroke-width: 0.8"/>
      </g>
     </g>
     <g id="text_8">
      <!-- $\mathdefault{0.6}$ -->
      <g transform="translate(7.2 137.168847)scale(0.1 -0.1)">
       <use xlink:href="#CMR17-30" transform="scale(0.996264)"/>
       <use xlink:href="#CMMI12-3a" transform="translate(45.690477 0)scale(0.996264)"/>
       <use xlink:href="#CMR17-36" transform="translate(72.787654 0)scale(0.996264)"/>
      </g>
     </g>
    </g>
    <g id="ytick_5">
     <g id="line2d_26">
      <g>
       <use xlink:href="#m101b513b0e" x="26.930079" y="73.466932" style="stroke: #000000; stroke-width: 0.8"/>
      </g>
     </g>
     <g id="text_9">
      <!-- $\mathdefault{0.8}$ -->
      <g transform="translate(7.2 76.926181)scale(0.1 -0.1)">
       <use xlink:href="#CMR17-30" transform="scale(0.996264)"/>
       <use xlink:href="#CMMI12-3a" transform="translate(45.690477 0)scale(0.996264)"/>
       <use xlink:href="#CMR17-38" transform="translate(72.787654 0)scale(0.996264)"/>
      </g>
     </g>
    </g>
    <g id="ytick_6">
     <g id="line2d_27">
      <g>
       <use xlink:href="#m101b513b0e" x="26.930079" y="13.224267" style="stroke: #000000; stroke-width: 0.8"/>
      </g>
     </g>
     <g id="text_10">
      <!-- $\mathdefault{1.0}$ -->
      <g transform="translate(7.2 16.683516)scale(0.1 -0.1)">
       <use xlink:href="#CMR17-31" transform="scale(0.996264)"/>
       <use xlink:href="#CMMI12-3a" transform="translate(45.690477 0)scale(0.996264)"/>
       <use xlink:href="#CMR17-30" transform="translate(72.787654 0)scale(0.996264)"/>
      </g>
     </g>
    </g>
    <g id="ytick_7">
     <g id="line2d_28">
      <defs>
       <path id="m14dbaef1dd" d="M 0 0 
L -2 0 
" style="stroke: #000000; stroke-width: 0.6"/>
      </defs>
      <g>
       <use xlink:href="#m14dbaef1dd" x="26.930079" y="299.376929" style="stroke: #000000; stroke-width: 0.6"/>
      </g>
     </g>
    </g>
    <g id="ytick_8">
     <g id="line2d_29">
      <g>
       <use xlink:href="#m14dbaef1dd" x="26.930079" y="284.316262" style="stroke: #000000; stroke-width: 0.6"/>
      </g>
     </g>
    </g>
    <g id="ytick_9">
     <g id="line2d_30">
      <g>
       <use xlink:href="#m14dbaef1dd" x="26.930079" y="269.255596" style="stroke: #000000; stroke-width: 0.6"/>
      </g>
     </g>
    </g>
    <g id="ytick_10">
     <g id="line2d_31">
      <g>
       <use xlink:href="#m14dbaef1dd" x="26.930079" y="239.134263" style="stroke: #000000; stroke-width: 0.6"/>
      </g>
     </g>
    </g>
    <g id="ytick_11">
     <g id="line2d_32">
      <g>
       <use xlink:href="#m14dbaef1dd" x="26.930079" y="224.073597" style="stroke: #000000; stroke-width: 0.6"/>
      </g>
     </g>
    </g>
    <g id="ytick_12">
     <g id="line2d_33">
      <g>
       <use xlink:href="#m14dbaef1dd" x="26.930079" y="209.01293" style="stroke: #000000; stroke-width: 0.6"/>
      </g>
     </g>
    </g>
    <g id="ytick_13">
     <g id="line2d_34">
      <g>
       <use xlink:href="#m14dbaef1dd" x="26.930079" y="178.891597" style="stroke: #000000; stroke-width: 0.6"/>
      </g>
     </g>
    </g>
    <g id="ytick_14">
     <g id="line2d_35">
      <g>
       <use xlink:href="#m14dbaef1dd" x="26.930079" y="163.830931" style="stroke: #000000; stroke-width: 0.6"/>
      </g>
     </g>
    </g>
    <g id="ytick_15">
     <g id="line2d_36">
      <g>
       <use xlink:href="#m14dbaef1dd" x="26.930079" y="148.770264" style="stroke: #000000; stroke-width: 0.6"/>
      </g>
     </g>
    </g>
    <g id="ytick_16">
     <g id="line2d_37">
      <g>
       <use xlink:href="#m14dbaef1dd" x="26.930079" y="118.648932" style="stroke: #000000; stroke-width: 0.6"/>
      </g>
     </g>
    </g>
    <g id="ytick_17">
     <g id="line2d_38">
      <g>
       <use xlink:href="#m14dbaef1dd" x="26.930079" y="103.588265" style="stroke: #000000; stroke-width: 0.6"/>
      </g>
     </g>
    </g>
    <g id="ytick_18">
     <g id="line2d_39">
      <g>
       <use xlink:href="#m14dbaef1dd" x="26.930079" y="88.527599" style="stroke: #000000; stroke-width: 0.6"/>
      </g>
     </g>
    </g>
    <g id="ytick_19">
     <g id="line2d_40">
      <g>
       <use xlink:href="#m14dbaef1dd" x="26.930079" y="58.406266" style="stroke: #000000; stroke-width: 0.6"/>
      </g>
     </g>
    </g>
    <g id="ytick_20">
     <g id="line2d_41">
      <g>
       <use xlink:href="#m14dbaef1dd" x="26.930079" y="43.345599" style="stroke: #000000; stroke-width: 0.6"/>
      </g>
     </g>
    </g>
    <g id="ytick_21">
     <g id="line2d_42">
      <g>
       <use xlink:href="#m14dbaef1dd" x="26.930079" y="28.284933" style="stroke: #000000; stroke-width: 0.6"/>
      </g>
     </g>
    </g>
   </g>
   <g id="line2d_43">
    <path d="M 26.930079 13.224267 
L 37.043405 23.169698 
L 47.247606 32.871713 
L 56.91972 41.769319 
L 68.103969 51.708014 
L 77.702696 59.94839 
L 88.323049 68.764974 
L 99.498342 77.712645 
L 110.194105 85.971004 
L 121.285315 94.230551 
L 132.168035 102.044537 
L 142.752155 109.378067 
L 154.715144 117.362605 
L 164.385716 123.589285 
L 176.599266 131.172982 
L 186.945528 137.360985 
L 198.632203 144.099748 
L 209.606903 150.194302 
L 222.216713 156.928148 
L 234.209256 163.076049 
L 246.999258 169.368563 
L 257.941078 174.543749 
L 270.626864 180.313122 
L 283.337484 185.855161 
L 296.70671 191.437438 
L 309.50632 196.554651 
L 323.502685 201.906958 
L 328.143408 203.627404 
L 328.143408 203.627404 
" clip-path="url(#p2786025ad0)" style="fill: none; stroke: #ff0000; stroke-linecap: square"/>
   </g>
   <g id="patch_12">
    <path d="M 26.930079 320.461862 
L 26.930079 7.2 
" style="fill: none; stroke: #000000; stroke-width: 0.8; stroke-linejoin: miter; stroke-linecap: square"/>
   </g>
   <g id="patch_13">
    <path d="M 20.905812 314.437595 
L 334.167674 314.437595 
" style="fill: none; stroke: #000000; stroke-width: 0.8; stroke-linejoin: miter; stroke-linecap: square"/>
   </g>
  </g>
 </g>
 <defs>
  <clipPath id="p2786025ad0">
   <rect x="20.905812" y="7.2" width="313.261862" height="313.261862"/>
  </clipPath>
 </defs>
</svg>
