<?xml version="1.0" encoding="utf-8" standalone="no"?>
<!DOCTYPE svg PUBLIC "-//W3C//DTD SVG 1.1//EN"
  "http://www.w3.org/Graphics/SVG/1.1/DTD/svg11.dtd">
<svg xmlns:xlink="http://www.w3.org/1999/xlink" width="453.6pt" height="337.493272pt" viewBox="0 0 453.6 337.493272" xmlns="http://www.w3.org/2000/svg" version="1.1">
 <metadata>
  <rdf:RDF xmlns:dc="http://purl.org/dc/elements/1.1/" xmlns:cc="http://creativecommons.org/ns#" xmlns:rdf="http://www.w3.org/1999/02/22-rdf-syntax-ns#">
   <cc:Work>
    <dc:type rdf:resource="http://purl.org/dc/dcmitype/StillImage"/>
    <dc:date>2022-10-23T21:58:48.197480</dc:date>
    <dc:format>image/svg+xml</dc:format>
    <dc:creator>
     <cc:Agent>
      <dc:title>Matplotlib v3.5.2, https://matplotlib.org/</dc:title>
     </cc:Agent>
    </dc:creator>
   </cc:Work>
  </rdf:RDF>
 </metadata>
 <defs>
  <style type="text/css">*{stroke-linejoin: round; stroke-linecap: butt}</style>
 </defs>
 <g id="figure_1">
  <g id="patch_1">
   <path d="M 0 337.493272 
L 453.6 337.493272 
L 453.6 0 
L 0 0 
L 0 337.493272 
z
" style="fill: none"/>
  </g>
  <g id="axes_1">
   <g id="patch_2">
    <path d="M 36.930079 320.461862 
L 446.4 320.461862 
L 446.4 7.2 
L 36.930079 7.2 
L 36.930079 320.461862 
z
" style="fill: none"/>
   </g>
   <g id="patch_3">
    <path d="M 55.741197 314.437595 
L 55.741197 73.466932 
L 57.075226 79.205525 
L 58.409254 84.677153 
L 58.788996 86.188461 
L 60.122708 91.342418 
L 61.456419 96.268758 
L 63.514263 103.457074 
L 65.484158 109.907991 
L 66.944055 114.439919 
L 68.523934 119.12333 
L 70.103812 123.592413 
L 71.963859 128.598764 
L 72.942404 131.128532 
L 75.654256 137.792474 
L 76.787994 140.436982 
L 78.429208 144.127906 
L 80.580649 148.735521 
L 81.904374 151.448609 
L 84.614283 156.734671 
L 87.30212 161.649539 
L 88.210467 163.241968 
L 91.310286 168.43494 
L 92.612487 170.511564 
L 94.671358 173.676968 
L 95.195156 174.460186 
L 98.878252 179.730555 
L 99.794888 180.981121 
L 101.496947 183.242694 
L 102.889869 185.037258 
L 105.71561 188.53104 
L 106.763263 189.778906 
L 109.074287 192.445989 
L 112.094216 195.763872 
L 114.052334 197.820405 
L 115.570266 199.366235 
L 117.841119 201.603797 
L 119.281894 202.97888 
L 122.03708 205.517243 
L 122.753221 206.158206 
L 124.405939 207.60902 
L 127.621106 210.322851 
L 129.734052 212.032481 
L 130.333507 212.507336 
L 132.664517 214.312716 
L 134.830906 215.934188 
L 136.007442 216.792973 
L 138.470961 218.543528 
L 141.119402 220.356799 
L 141.58086 220.665747 
L 145.041585 222.9196 
L 145.498984 223.209408 
L 147.121875 224.223027 
L 150.69118 226.374975 
L 151.644029 226.932199 
L 153.92992 228.240663 
L 156.61696 229.729579 
L 156.801851 229.83014 
L 159.455824 231.247744 
L 161.48597 232.300474 
L 163.895086 233.515661 
L 166.117429 234.605183 
L 167.409596 235.225295 
L 168.861457 235.910651 
L 171.012673 236.904611 
L 172.829388 237.724626 
L 174.889385 238.633715 
L 176.267937 239.230139 
L 179.030791 240.39766 
L 181.607956 241.454502 
L 182.541859 241.830067 
L 185.132934 242.852103 
L 186.656457 243.439727 
L 187.533604 243.773687 
L 189.734934 244.598135 
L 192.22222 245.506832 
L 193.341499 245.908077 
L 196.58477 247.044798 
L 198.91624 247.838923 
L 200.543855 248.382304 
L 201.639235 248.743033 
L 203.337302 249.294516 
L 206.696968 250.358802 
L 207.717613 250.675272 
L 209.230584 251.138688 
L 211.554301 251.837458 
L 213.158674 252.310978 
L 214.607023 252.732337 
L 218.006212 253.699147 
L 219.730874 254.178187 
L 221.901187 254.770379 
L 223.59833 255.225414 
L 224.460222 255.453856 
L 226.115457 255.887665 
L 229.027874 256.635665 
L 231.264761 257.197318 
L 232.104595 257.405381 
L 234.369444 257.959015 
L 235.733905 258.287395 
L 239.067645 259.073875 
L 240.177141 259.330759 
L 242.386949 259.835362 
L 244.112829 260.22308 
L 245.494468 260.529519 
L 247.363541 260.938596 
L 250.288591 261.566477 
L 251.107463 261.739621 
L 253.590474 262.25777 
L 256.111014 262.773433 
L 257.1539 262.983822 
L 259.267863 263.405073 
L 262.447422 264.025835 
L 263.998517 264.323216 
L 265.267949 264.563997 
L 267.349225 264.953798 
L 269.857001 265.415459 
L 271.731973 265.755038 
L 273.948678 266.150488 
L 274.188776 266.192935 
L 276.32193 266.566806 
L 278.605188 266.960618 
L 281.219536 267.403652 
L 281.974345 267.53003 
L 284.565041 267.958672 
L 287.431953 268.423976 
L 288.32407 268.566873 
L 290.992403 268.989032 
L 291.86622 269.125595 
L 293.907535 269.441443 
L 295.944715 269.752292 
L 297.310042 269.958231 
L 300.853525 270.483962 
L 302.705488 270.753815 
L 304.15473 270.962686 
L 306.674689 271.321158 
L 307.992269 271.506244 
L 308.718569 271.607593 
L 311.700735 272.01876 
L 312.801368 272.168523 
L 315.718089 272.560333 
L 317.489258 272.794733 
L 318.661943 272.94849 
L 320.233298 273.152748 
L 323.014924 273.509438 
L 324.702955 273.722907 
L 326.322793 273.925668 
L 329.555017 274.324282 
L 331.629283 274.575985 
L 332.682415 274.702572 
L 334.845016 274.960014 
L 336.300026 275.131354 
L 337.842304 275.311354 
L 340.628697 275.632409 
L 341.678545 275.752013 
L 344.433461 276.062389 
L 347.067301 276.354502 
L 347.498609 276.401915 
L 349.113827 276.578426 
L 352.202074 276.91139 
L 353.922893 277.094395 
L 355.432903 277.253516 
L 358.190732 277.540656 
L 359.524118 277.677902 
L 361.318195 277.860963 
L 363.388491 278.069955 
L 364.937933 278.224813 
L 367.873102 278.514579 
L 368.627245 278.588282 
L 371.279111 278.845068 
L 373.952553 279.100246 
L 374.935565 279.193156 
L 376.567255 279.346303 
L 378.189688 279.497266 
L 381.452302 279.796947 
L 383.052135 279.942026 
L 384.949905 280.112554 
L 387.448126 280.334484 
L 388.077564 280.389948 
L 391.026807 280.647443 
L 393.253944 280.839324 
L 393.852456 280.890519 
L 396.154949 281.08602 
L 397.738662 281.219173 
L 400.058066 281.412273 
L 402.002927 281.572469 
L 403.008859 281.654718 
L 405.355132 281.844968 
L 406.905482 281.969472 
L 408.724609 282.114354 
L 411.544031 282.336366 
L 413.919741 282.521085 
L 415.944474 282.676844 
L 417.662062 282.807788 
L 419.800553 282.969319 
L 421.999479 283.133704 
L 423.070475 283.213148 
L 424.626268 283.327837 
L 426.20093 283.443063 
L 428.627189 283.618942 
L 431.253027 283.807054 
L 433.502502 283.966387 
L 435.554062 284.110263 
L 436.945859 284.207098 
L 438.525578 284.316262 
L 438.525578 314.437595 
z
" clip-path="url(#p35e636915e)" style="fill: #808080; opacity: 0.5"/>
   </g>
   <g id="matplotlib.axis_1">
    <g id="xtick_1">
     <g id="line2d_1">
      <defs>
       <path id="me3c31e96e4" d="M 0 0 
L 0 3.5 
" style="stroke: #000000; stroke-width: 0.8"/>
      </defs>
      <g>
       <use xlink:href="#me3c31e96e4" x="55.741197" y="314.437595" style="stroke: #000000; stroke-width: 0.8"/>
      </g>
     </g>
     <g id="text_1">
      <!-- $\mathdefault{1}$ -->
      <g transform="translate(53.25053 328.356094)scale(0.1 -0.1)">
       <defs>
        <path id="CMR17-31" d="M 1702 4083 
C 1702 4217 1696 4224 1606 4224 
C 1357 3927 979 3833 621 3820 
C 602 3820 570 3820 563 3808 
C 557 3795 557 3782 557 3648 
C 755 3648 1088 3686 1344 3839 
L 1344 467 
C 1344 243 1331 166 781 166 
L 589 166 
L 589 0 
C 896 6 1216 12 1523 12 
C 1830 12 2150 6 2458 0 
L 2458 166 
L 2266 166 
C 1715 166 1702 236 1702 467 
L 1702 4083 
z
" transform="scale(0.015625)"/>
       </defs>
       <use xlink:href="#CMR17-31" transform="scale(0.996264)"/>
      </g>
     </g>
    </g>
    <g id="xtick_2">
     <g id="line2d_2">
      <g>
       <use xlink:href="#me3c31e96e4" x="110.42468" y="314.437595" style="stroke: #000000; stroke-width: 0.8"/>
      </g>
     </g>
     <g id="text_2">
      <!-- $\mathdefault{2}$ -->
      <g transform="translate(107.934013 328.356094)scale(0.1 -0.1)">
       <defs>
        <path id="CMR17-32" d="M 2669 990 
L 2554 990 
C 2490 537 2438 460 2413 422 
C 2381 371 1920 371 1830 371 
L 602 371 
C 832 620 1280 1073 1824 1596 
C 2214 1966 2669 2400 2669 3033 
C 2669 3788 2067 4224 1395 4224 
C 691 4224 262 3603 262 3027 
C 262 2777 448 2745 525 2745 
C 589 2745 781 2783 781 3007 
C 781 3206 614 3264 525 3264 
C 486 3264 448 3257 422 3244 
C 544 3788 915 4057 1306 4057 
C 1862 4057 2227 3616 2227 3033 
C 2227 2477 1901 1998 1536 1583 
L 262 147 
L 262 0 
L 2515 0 
L 2669 990 
z
" transform="scale(0.015625)"/>
       </defs>
       <use xlink:href="#CMR17-32" transform="scale(0.996264)"/>
      </g>
     </g>
    </g>
    <g id="xtick_3">
     <g id="line2d_3">
      <g>
       <use xlink:href="#me3c31e96e4" x="165.108163" y="314.437595" style="stroke: #000000; stroke-width: 0.8"/>
      </g>
     </g>
     <g id="text_3">
      <!-- $\mathdefault{3}$ -->
      <g transform="translate(162.617496 328.356094)scale(0.1 -0.1)">
       <defs>
        <path id="CMR17-33" d="M 1414 2176 
C 1984 2176 2234 1673 2234 1094 
C 2234 322 1824 25 1453 25 
C 1114 25 563 193 390 691 
C 422 678 454 678 486 678 
C 640 678 755 780 755 947 
C 755 1132 614 1216 486 1216 
C 378 1216 211 1164 211 927 
C 211 335 787 -128 1466 -128 
C 2176 -128 2720 432 2720 1087 
C 2720 1718 2208 2176 1600 2246 
C 2086 2347 2554 2776 2554 3353 
C 2554 3856 2048 4224 1472 4224 
C 890 4224 378 3862 378 3347 
C 378 3123 544 3084 627 3084 
C 762 3084 877 3167 877 3334 
C 877 3500 762 3584 627 3584 
C 602 3584 570 3584 544 3571 
C 730 3999 1235 4076 1459 4076 
C 1683 4076 2106 3966 2106 3347 
C 2106 3167 2080 2851 1862 2574 
C 1670 2329 1453 2316 1242 2297 
C 1210 2297 1062 2284 1037 2284 
C 992 2278 966 2272 966 2227 
C 966 2182 973 2176 1101 2176 
L 1414 2176 
z
" transform="scale(0.015625)"/>
       </defs>
       <use xlink:href="#CMR17-33" transform="scale(0.996264)"/>
      </g>
     </g>
    </g>
    <g id="xtick_4">
     <g id="line2d_4">
      <g>
       <use xlink:href="#me3c31e96e4" x="219.791646" y="314.437595" style="stroke: #000000; stroke-width: 0.8"/>
      </g>
     </g>
     <g id="text_4">
      <!-- $\mathdefault{4}$ -->
      <g transform="translate(217.300979 328.356094)scale(0.1 -0.1)">
       <defs>
        <path id="CMR17-34" d="M 2150 4147 
C 2150 4281 2144 4288 2029 4288 
L 128 1254 
L 128 1088 
L 1779 1088 
L 1779 460 
C 1779 230 1766 166 1318 166 
L 1197 166 
L 1197 0 
C 1402 12 1747 12 1965 12 
C 2182 12 2528 12 2733 0 
L 2733 166 
L 2611 166 
C 2163 166 2150 230 2150 460 
L 2150 1088 
L 2803 1088 
L 2803 1254 
L 2150 1254 
L 2150 4147 
z
M 1798 3723 
L 1798 1254 
L 256 1254 
L 1798 3723 
z
" transform="scale(0.015625)"/>
       </defs>
       <use xlink:href="#CMR17-34" transform="scale(0.996264)"/>
      </g>
     </g>
    </g>
    <g id="xtick_5">
     <g id="line2d_5">
      <g>
       <use xlink:href="#me3c31e96e4" x="274.475129" y="314.437595" style="stroke: #000000; stroke-width: 0.8"/>
      </g>
     </g>
     <g id="text_5">
      <!-- $\mathdefault{5}$ -->
      <g transform="translate(271.984462 328.356094)scale(0.1 -0.1)">
       <defs>
        <path id="CMR17-35" d="M 730 3750 
C 794 3724 1056 3641 1325 3641 
C 1920 3641 2246 3961 2432 4140 
C 2432 4191 2432 4224 2394 4224 
C 2387 4224 2374 4224 2323 4198 
C 2099 4102 1837 4032 1517 4032 
C 1325 4032 1037 4055 723 4191 
C 653 4224 640 4224 634 4224 
C 602 4224 595 4217 595 4090 
L 595 2231 
C 595 2113 595 2080 659 2080 
C 691 2080 704 2093 736 2139 
C 941 2435 1222 2560 1542 2560 
C 1766 2560 2246 2415 2246 1293 
C 2246 1087 2246 716 2054 422 
C 1894 159 1645 25 1370 25 
C 947 25 518 319 403 812 
C 429 806 480 793 506 793 
C 589 793 749 838 749 1036 
C 749 1209 627 1280 506 1280 
C 358 1280 262 1190 262 1011 
C 262 454 704 -128 1382 -128 
C 2042 -128 2669 441 2669 1267 
C 2669 2054 2170 2662 1549 2662 
C 1222 2662 947 2540 730 2304 
L 730 3750 
z
" transform="scale(0.015625)"/>
       </defs>
       <use xlink:href="#CMR17-35" transform="scale(0.996264)"/>
      </g>
     </g>
    </g>
    <g id="xtick_6">
     <g id="line2d_6">
      <g>
       <use xlink:href="#me3c31e96e4" x="329.158612" y="314.437595" style="stroke: #000000; stroke-width: 0.8"/>
      </g>
     </g>
     <g id="text_6">
      <!-- $\mathdefault{6}$ -->
      <g transform="translate(326.667945 328.356094)scale(0.1 -0.1)">
       <defs>
        <path id="CMR17-36" d="M 678 2198 
C 678 3712 1395 4076 1811 4076 
C 1946 4076 2272 4049 2400 3782 
C 2298 3782 2106 3782 2106 3558 
C 2106 3385 2246 3328 2336 3328 
C 2394 3328 2566 3353 2566 3571 
C 2566 3987 2246 4224 1805 4224 
C 1043 4224 243 3411 243 2011 
C 243 257 966 -128 1478 -128 
C 2099 -128 2688 431 2688 1295 
C 2688 2101 2170 2688 1517 2688 
C 1126 2688 838 2430 678 1979 
L 678 2198 
z
M 1478 25 
C 691 25 691 1212 691 1450 
C 691 1914 909 2585 1504 2585 
C 1613 2585 1926 2585 2138 2140 
C 2253 1889 2253 1624 2253 1302 
C 2253 954 2253 696 2118 438 
C 1978 173 1773 25 1478 25 
z
" transform="scale(0.015625)"/>
       </defs>
       <use xlink:href="#CMR17-36" transform="scale(0.996264)"/>
      </g>
     </g>
    </g>
    <g id="xtick_7">
     <g id="line2d_7">
      <g>
       <use xlink:href="#me3c31e96e4" x="383.842095" y="314.437595" style="stroke: #000000; stroke-width: 0.8"/>
      </g>
     </g>
     <g id="text_7">
      <!-- $\mathdefault{7}$ -->
      <g transform="translate(381.351428 328.356094)scale(0.1 -0.1)">
       <defs>
        <path id="CMR17-37" d="M 2886 3955 
L 2886 4096 
L 1382 4096 
C 634 4096 621 4166 595 4288 
L 480 4288 
L 294 3104 
L 410 3104 
C 429 3226 474 3552 550 3673 
C 589 3724 1062 3724 1171 3724 
L 2579 3724 
L 1869 2670 
C 1395 1961 1069 1003 1069 166 
C 1069 89 1069 -128 1299 -128 
C 1530 -128 1530 89 1530 172 
L 1530 466 
C 1530 1514 1709 2204 2003 2644 
L 2886 3955 
z
" transform="scale(0.015625)"/>
       </defs>
       <use xlink:href="#CMR17-37" transform="scale(0.996264)"/>
      </g>
     </g>
    </g>
    <g id="xtick_8">
     <g id="line2d_8">
      <g>
       <use xlink:href="#me3c31e96e4" x="438.525578" y="314.437595" style="stroke: #000000; stroke-width: 0.8"/>
      </g>
     </g>
     <g id="text_8">
      <!-- $\mathdefault{8}$ -->
      <g transform="translate(436.034911 328.356094)scale(0.1 -0.1)">
       <defs>
        <path id="CMR17-38" d="M 1741 2289 
C 2144 2494 2554 2803 2554 3298 
C 2554 3884 1990 4224 1472 4224 
C 890 4224 378 3800 378 3215 
C 378 3054 416 2777 666 2533 
C 730 2469 998 2276 1171 2154 
C 883 2006 211 1652 211 945 
C 211 282 838 -128 1459 -128 
C 2144 -128 2720 366 2720 1022 
C 2720 1607 2330 1877 2074 2051 
L 1741 2289 
z
M 902 2855 
C 851 2887 595 3086 595 3388 
C 595 3781 998 4076 1459 4076 
C 1965 4076 2336 3716 2336 3298 
C 2336 2700 1670 2359 1638 2359 
C 1632 2359 1626 2359 1574 2398 
L 902 2855 
z
M 2080 1536 
C 2176 1466 2483 1253 2483 861 
C 2483 385 2010 25 1472 25 
C 890 25 448 443 448 951 
C 448 1459 838 1884 1280 2083 
L 2080 1536 
z
" transform="scale(0.015625)"/>
       </defs>
       <use xlink:href="#CMR17-38" transform="scale(0.996264)"/>
      </g>
     </g>
    </g>
    <g id="xtick_9">
     <g id="line2d_9">
      <defs>
       <path id="mdcc15620d0" d="M 0 0 
L 0 2 
" style="stroke: #000000; stroke-width: 0.6"/>
      </defs>
      <g>
       <use xlink:href="#mdcc15620d0" x="44.804501" y="314.437595" style="stroke: #000000; stroke-width: 0.6"/>
      </g>
     </g>
    </g>
    <g id="xtick_10">
     <g id="line2d_10">
      <g>
       <use xlink:href="#mdcc15620d0" x="66.677894" y="314.437595" style="stroke: #000000; stroke-width: 0.6"/>
      </g>
     </g>
    </g>
    <g id="xtick_11">
     <g id="line2d_11">
      <g>
       <use xlink:href="#mdcc15620d0" x="77.61459" y="314.437595" style="stroke: #000000; stroke-width: 0.6"/>
      </g>
     </g>
    </g>
    <g id="xtick_12">
     <g id="line2d_12">
      <g>
       <use xlink:href="#mdcc15620d0" x="88.551287" y="314.437595" style="stroke: #000000; stroke-width: 0.6"/>
      </g>
     </g>
    </g>
    <g id="xtick_13">
     <g id="line2d_13">
      <g>
       <use xlink:href="#mdcc15620d0" x="99.487984" y="314.437595" style="stroke: #000000; stroke-width: 0.6"/>
      </g>
     </g>
    </g>
    <g id="xtick_14">
     <g id="line2d_14">
      <g>
       <use xlink:href="#mdcc15620d0" x="121.361377" y="314.437595" style="stroke: #000000; stroke-width: 0.6"/>
      </g>
     </g>
    </g>
    <g id="xtick_15">
     <g id="line2d_15">
      <g>
       <use xlink:href="#mdcc15620d0" x="132.298073" y="314.437595" style="stroke: #000000; stroke-width: 0.6"/>
      </g>
     </g>
    </g>
    <g id="xtick_16">
     <g id="line2d_16">
      <g>
       <use xlink:href="#mdcc15620d0" x="143.23477" y="314.437595" style="stroke: #000000; stroke-width: 0.6"/>
      </g>
     </g>
    </g>
    <g id="xtick_17">
     <g id="line2d_17">
      <g>
       <use xlink:href="#mdcc15620d0" x="154.171467" y="314.437595" style="stroke: #000000; stroke-width: 0.6"/>
      </g>
     </g>
    </g>
    <g id="xtick_18">
     <g id="line2d_18">
      <g>
       <use xlink:href="#mdcc15620d0" x="176.04486" y="314.437595" style="stroke: #000000; stroke-width: 0.6"/>
      </g>
     </g>
    </g>
    <g id="xtick_19">
     <g id="line2d_19">
      <g>
       <use xlink:href="#mdcc15620d0" x="186.981556" y="314.437595" style="stroke: #000000; stroke-width: 0.6"/>
      </g>
     </g>
    </g>
    <g id="xtick_20">
     <g id="line2d_20">
      <g>
       <use xlink:href="#mdcc15620d0" x="197.918253" y="314.437595" style="stroke: #000000; stroke-width: 0.6"/>
      </g>
     </g>
    </g>
    <g id="xtick_21">
     <g id="line2d_21">
      <g>
       <use xlink:href="#mdcc15620d0" x="208.85495" y="314.437595" style="stroke: #000000; stroke-width: 0.6"/>
      </g>
     </g>
    </g>
    <g id="xtick_22">
     <g id="line2d_22">
      <g>
       <use xlink:href="#mdcc15620d0" x="230.728343" y="314.437595" style="stroke: #000000; stroke-width: 0.6"/>
      </g>
     </g>
    </g>
    <g id="xtick_23">
     <g id="line2d_23">
      <g>
       <use xlink:href="#mdcc15620d0" x="241.665039" y="314.437595" style="stroke: #000000; stroke-width: 0.6"/>
      </g>
     </g>
    </g>
    <g id="xtick_24">
     <g id="line2d_24">
      <g>
       <use xlink:href="#mdcc15620d0" x="252.601736" y="314.437595" style="stroke: #000000; stroke-width: 0.6"/>
      </g>
     </g>
    </g>
    <g id="xtick_25">
     <g id="line2d_25">
      <g>
       <use xlink:href="#mdcc15620d0" x="263.538433" y="314.437595" style="stroke: #000000; stroke-width: 0.6"/>
      </g>
     </g>
    </g>
    <g id="xtick_26">
     <g id="line2d_26">
      <g>
       <use xlink:href="#mdcc15620d0" x="285.411826" y="314.437595" style="stroke: #000000; stroke-width: 0.6"/>
      </g>
     </g>
    </g>
    <g id="xtick_27">
     <g id="line2d_27">
      <g>
       <use xlink:href="#mdcc15620d0" x="296.348523" y="314.437595" style="stroke: #000000; stroke-width: 0.6"/>
      </g>
     </g>
    </g>
    <g id="xtick_28">
     <g id="line2d_28">
      <g>
       <use xlink:href="#mdcc15620d0" x="307.285219" y="314.437595" style="stroke: #000000; stroke-width: 0.6"/>
      </g>
     </g>
    </g>
    <g id="xtick_29">
     <g id="line2d_29">
      <g>
       <use xlink:href="#mdcc15620d0" x="318.221916" y="314.437595" style="stroke: #000000; stroke-width: 0.6"/>
      </g>
     </g>
    </g>
    <g id="xtick_30">
     <g id="line2d_30">
      <g>
       <use xlink:href="#mdcc15620d0" x="340.095309" y="314.437595" style="stroke: #000000; stroke-width: 0.6"/>
      </g>
     </g>
    </g>
    <g id="xtick_31">
     <g id="line2d_31">
      <g>
       <use xlink:href="#mdcc15620d0" x="351.032006" y="314.437595" style="stroke: #000000; stroke-width: 0.6"/>
      </g>
     </g>
    </g>
    <g id="xtick_32">
     <g id="line2d_32">
      <g>
       <use xlink:href="#mdcc15620d0" x="361.968702" y="314.437595" style="stroke: #000000; stroke-width: 0.6"/>
      </g>
     </g>
    </g>
    <g id="xtick_33">
     <g id="line2d_33">
      <g>
       <use xlink:href="#mdcc15620d0" x="372.905399" y="314.437595" style="stroke: #000000; stroke-width: 0.6"/>
      </g>
     </g>
    </g>
    <g id="xtick_34">
     <g id="line2d_34">
      <g>
       <use xlink:href="#mdcc15620d0" x="394.778792" y="314.437595" style="stroke: #000000; stroke-width: 0.6"/>
      </g>
     </g>
    </g>
    <g id="xtick_35">
     <g id="line2d_35">
      <g>
       <use xlink:href="#mdcc15620d0" x="405.715489" y="314.437595" style="stroke: #000000; stroke-width: 0.6"/>
      </g>
     </g>
    </g>
    <g id="xtick_36">
     <g id="line2d_36">
      <g>
       <use xlink:href="#mdcc15620d0" x="416.652185" y="314.437595" style="stroke: #000000; stroke-width: 0.6"/>
      </g>
     </g>
    </g>
    <g id="xtick_37">
     <g id="line2d_37">
      <g>
       <use xlink:href="#mdcc15620d0" x="427.588882" y="314.437595" style="stroke: #000000; stroke-width: 0.6"/>
      </g>
     </g>
    </g>
   </g>
   <g id="matplotlib.axis_2">
    <g id="ytick_1">
     <g id="line2d_38">
      <defs>
       <path id="m7fd5311e3d" d="M 0 0 
L -3.5 0 
" style="stroke: #000000; stroke-width: 0.8"/>
      </defs>
      <g>
       <use xlink:href="#m7fd5311e3d" x="26.930079" y="314.437595" style="stroke: #000000; stroke-width: 0.8"/>
      </g>
     </g>
     <g id="text_9">
      <!-- $\mathdefault{0.0}$ -->
      <g transform="translate(7.2 317.896844)scale(0.1 -0.1)">
       <defs>
        <path id="CMR17-30" d="M 2688 2038 
C 2688 2430 2682 3099 2413 3613 
C 2176 4063 1798 4224 1466 4224 
C 1158 4224 768 4082 525 3620 
C 269 3137 243 2539 243 2038 
C 243 1671 250 1112 448 623 
C 723 -39 1216 -128 1466 -128 
C 1760 -128 2208 -7 2470 604 
C 2662 1048 2688 1568 2688 2038 
z
M 1466 -26 
C 1056 -26 813 328 723 816 
C 653 1196 653 1749 653 2109 
C 653 2604 653 3015 736 3407 
C 858 3954 1216 4121 1466 4121 
C 1728 4121 2067 3947 2189 3420 
C 2272 3054 2278 2623 2278 2109 
C 2278 1691 2278 1176 2202 797 
C 2067 96 1690 -26 1466 -26 
z
" transform="scale(0.015625)"/>
        <path id="CMMI12-3a" d="M 1178 307 
C 1178 492 1024 620 870 620 
C 685 620 557 467 557 313 
C 557 128 710 0 864 0 
C 1050 0 1178 153 1178 307 
z
" transform="scale(0.015625)"/>
       </defs>
       <use xlink:href="#CMR17-30" transform="scale(0.996264)"/>
       <use xlink:href="#CMMI12-3a" transform="translate(45.690477 0)scale(0.996264)"/>
       <use xlink:href="#CMR17-30" transform="translate(72.787654 0)scale(0.996264)"/>
      </g>
     </g>
    </g>
    <g id="ytick_2">
     <g id="line2d_39">
      <g>
       <use xlink:href="#m7fd5311e3d" x="26.930079" y="266.243463" style="stroke: #000000; stroke-width: 0.8"/>
      </g>
     </g>
     <g id="text_10">
      <!-- $\mathdefault{0.2}$ -->
      <g transform="translate(7.2 269.702712)scale(0.1 -0.1)">
       <use xlink:href="#CMR17-30" transform="scale(0.996264)"/>
       <use xlink:href="#CMMI12-3a" transform="translate(45.690477 0)scale(0.996264)"/>
       <use xlink:href="#CMR17-32" transform="translate(72.787654 0)scale(0.996264)"/>
      </g>
     </g>
    </g>
    <g id="ytick_3">
     <g id="line2d_40">
      <g>
       <use xlink:href="#m7fd5311e3d" x="26.930079" y="218.04933" style="stroke: #000000; stroke-width: 0.8"/>
      </g>
     </g>
     <g id="text_11">
      <!-- $\mathdefault{0.4}$ -->
      <g transform="translate(7.2 221.508579)scale(0.1 -0.1)">
       <use xlink:href="#CMR17-30" transform="scale(0.996264)"/>
       <use xlink:href="#CMMI12-3a" transform="translate(45.690477 0)scale(0.996264)"/>
       <use xlink:href="#CMR17-34" transform="translate(72.787654 0)scale(0.996264)"/>
      </g>
     </g>
    </g>
    <g id="ytick_4">
     <g id="line2d_41">
      <g>
       <use xlink:href="#m7fd5311e3d" x="26.930079" y="169.855197" style="stroke: #000000; stroke-width: 0.8"/>
      </g>
     </g>
     <g id="text_12">
      <!-- $\mathdefault{0.6}$ -->
      <g transform="translate(7.2 173.314447)scale(0.1 -0.1)">
       <use xlink:href="#CMR17-30" transform="scale(0.996264)"/>
       <use xlink:href="#CMMI12-3a" transform="translate(45.690477 0)scale(0.996264)"/>
       <use xlink:href="#CMR17-36" transform="translate(72.787654 0)scale(0.996264)"/>
      </g>
     </g>
    </g>
    <g id="ytick_5">
     <g id="line2d_42">
      <g>
       <use xlink:href="#m7fd5311e3d" x="26.930079" y="121.661065" style="stroke: #000000; stroke-width: 0.8"/>
      </g>
     </g>
     <g id="text_13">
      <!-- $\mathdefault{0.8}$ -->
      <g transform="translate(7.2 125.120314)scale(0.1 -0.1)">
       <use xlink:href="#CMR17-30" transform="scale(0.996264)"/>
       <use xlink:href="#CMMI12-3a" transform="translate(45.690477 0)scale(0.996264)"/>
       <use xlink:href="#CMR17-38" transform="translate(72.787654 0)scale(0.996264)"/>
      </g>
     </g>
    </g>
    <g id="ytick_6">
     <g id="line2d_43">
      <g>
       <use xlink:href="#m7fd5311e3d" x="26.930079" y="73.466932" style="stroke: #000000; stroke-width: 0.8"/>
      </g>
     </g>
     <g id="text_14">
      <!-- $\mathdefault{1.0}$ -->
      <g transform="translate(7.2 76.926181)scale(0.1 -0.1)">
       <use xlink:href="#CMR17-31" transform="scale(0.996264)"/>
       <use xlink:href="#CMMI12-3a" transform="translate(45.690477 0)scale(0.996264)"/>
       <use xlink:href="#CMR17-30" transform="translate(72.787654 0)scale(0.996264)"/>
      </g>
     </g>
    </g>
    <g id="ytick_7">
     <g id="line2d_44">
      <g>
       <use xlink:href="#m7fd5311e3d" x="26.930079" y="25.2728" style="stroke: #000000; stroke-width: 0.8"/>
      </g>
     </g>
     <g id="text_15">
      <!-- $\mathdefault{1.2}$ -->
      <g transform="translate(7.2 28.732049)scale(0.1 -0.1)">
       <use xlink:href="#CMR17-31" transform="scale(0.996264)"/>
       <use xlink:href="#CMMI12-3a" transform="translate(45.690477 0)scale(0.996264)"/>
       <use xlink:href="#CMR17-32" transform="translate(72.787654 0)scale(0.996264)"/>
      </g>
     </g>
    </g>
    <g id="ytick_8">
     <g id="line2d_45">
      <defs>
       <path id="m9ccf727089" d="M 0 0 
L -2 0 
" style="stroke: #000000; stroke-width: 0.6"/>
      </defs>
      <g>
       <use xlink:href="#m9ccf727089" x="26.930079" y="302.389062" style="stroke: #000000; stroke-width: 0.6"/>
      </g>
     </g>
    </g>
    <g id="ytick_9">
     <g id="line2d_46">
      <g>
       <use xlink:href="#m9ccf727089" x="26.930079" y="290.340529" style="stroke: #000000; stroke-width: 0.6"/>
      </g>
     </g>
    </g>
    <g id="ytick_10">
     <g id="line2d_47">
      <g>
       <use xlink:href="#m9ccf727089" x="26.930079" y="278.291996" style="stroke: #000000; stroke-width: 0.6"/>
      </g>
     </g>
    </g>
    <g id="ytick_11">
     <g id="line2d_48">
      <g>
       <use xlink:href="#m9ccf727089" x="26.930079" y="254.194929" style="stroke: #000000; stroke-width: 0.6"/>
      </g>
     </g>
    </g>
    <g id="ytick_12">
     <g id="line2d_49">
      <g>
       <use xlink:href="#m9ccf727089" x="26.930079" y="242.146396" style="stroke: #000000; stroke-width: 0.6"/>
      </g>
     </g>
    </g>
    <g id="ytick_13">
     <g id="line2d_50">
      <g>
       <use xlink:href="#m9ccf727089" x="26.930079" y="230.097863" style="stroke: #000000; stroke-width: 0.6"/>
      </g>
     </g>
    </g>
    <g id="ytick_14">
     <g id="line2d_51">
      <g>
       <use xlink:href="#m9ccf727089" x="26.930079" y="206.000797" style="stroke: #000000; stroke-width: 0.6"/>
      </g>
     </g>
    </g>
    <g id="ytick_15">
     <g id="line2d_52">
      <g>
       <use xlink:href="#m9ccf727089" x="26.930079" y="193.952264" style="stroke: #000000; stroke-width: 0.6"/>
      </g>
     </g>
    </g>
    <g id="ytick_16">
     <g id="line2d_53">
      <g>
       <use xlink:href="#m9ccf727089" x="26.930079" y="181.903731" style="stroke: #000000; stroke-width: 0.6"/>
      </g>
     </g>
    </g>
    <g id="ytick_17">
     <g id="line2d_54">
      <g>
       <use xlink:href="#m9ccf727089" x="26.930079" y="157.806664" style="stroke: #000000; stroke-width: 0.6"/>
      </g>
     </g>
    </g>
    <g id="ytick_18">
     <g id="line2d_55">
      <g>
       <use xlink:href="#m9ccf727089" x="26.930079" y="145.758131" style="stroke: #000000; stroke-width: 0.6"/>
      </g>
     </g>
    </g>
    <g id="ytick_19">
     <g id="line2d_56">
      <g>
       <use xlink:href="#m9ccf727089" x="26.930079" y="133.709598" style="stroke: #000000; stroke-width: 0.6"/>
      </g>
     </g>
    </g>
    <g id="ytick_20">
     <g id="line2d_57">
      <g>
       <use xlink:href="#m9ccf727089" x="26.930079" y="109.612532" style="stroke: #000000; stroke-width: 0.6"/>
      </g>
     </g>
    </g>
    <g id="ytick_21">
     <g id="line2d_58">
      <g>
       <use xlink:href="#m9ccf727089" x="26.930079" y="97.563999" style="stroke: #000000; stroke-width: 0.6"/>
      </g>
     </g>
    </g>
    <g id="ytick_22">
     <g id="line2d_59">
      <g>
       <use xlink:href="#m9ccf727089" x="26.930079" y="85.515465" style="stroke: #000000; stroke-width: 0.6"/>
      </g>
     </g>
    </g>
    <g id="ytick_23">
     <g id="line2d_60">
      <g>
       <use xlink:href="#m9ccf727089" x="26.930079" y="61.418399" style="stroke: #000000; stroke-width: 0.6"/>
      </g>
     </g>
    </g>
    <g id="ytick_24">
     <g id="line2d_61">
      <g>
       <use xlink:href="#m9ccf727089" x="26.930079" y="49.369866" style="stroke: #000000; stroke-width: 0.6"/>
      </g>
     </g>
    </g>
    <g id="ytick_25">
     <g id="line2d_62">
      <g>
       <use xlink:href="#m9ccf727089" x="26.930079" y="37.321333" style="stroke: #000000; stroke-width: 0.6"/>
      </g>
     </g>
    </g>
    <g id="ytick_26">
     <g id="line2d_63">
      <g>
       <use xlink:href="#m9ccf727089" x="26.930079" y="13.224267" style="stroke: #000000; stroke-width: 0.6"/>
      </g>
     </g>
    </g>
   </g>
   <g id="line2d_64">
    <path d="M 55.741197 314.437595 
L 55.741197 73.466932 
" clip-path="url(#p35e636915e)" style="fill: none; stroke: #000000; stroke-linecap: square"/>
   </g>
   <g id="line2d_65">
    <path d="M 55.741197 73.466932 
L 58.788996 86.188461 
L 61.456419 96.268758 
L 63.514263 103.457074 
L 66.944055 114.439919 
L 70.103812 123.592413 
L 72.942404 131.128532 
L 76.787994 140.436982 
L 80.580649 148.735521 
L 81.904374 151.448609 
L 84.614283 156.734671 
L 88.210467 163.241968 
L 92.612487 170.511564 
L 95.195156 174.460186 
L 99.794888 180.981121 
L 102.889869 185.037258 
L 106.763263 189.778906 
L 112.094216 195.763872 
L 115.570266 199.366235 
L 119.281894 202.97888 
L 124.405939 207.60902 
L 130.333507 212.507336 
L 136.007442 216.792973 
L 141.58086 220.665747 
L 147.121875 224.223027 
L 153.92992 228.240663 
L 159.455824 231.247744 
L 166.117429 234.605183 
L 172.829388 237.724626 
L 179.030791 240.39766 
L 187.533604 243.773687 
L 193.341499 245.908077 
L 203.337302 249.294516 
L 213.158674 252.310978 
L 221.901187 254.770379 
L 232.104595 257.405381 
L 242.386949 259.835362 
L 253.590474 262.25777 
L 265.267949 264.563997 
L 278.605188 266.960618 
L 293.907535 269.441443 
L 308.718569 271.607593 
L 326.322793 273.925668 
L 344.433461 276.062389 
L 364.937933 278.224813 
L 384.949905 280.112554 
L 408.724609 282.114354 
L 433.502502 283.966387 
L 438.525578 284.316262 
L 438.525578 284.316262 
" clip-path="url(#p35e636915e)" style="fill: none; stroke: #0000ff; stroke-linecap: square"/>
   </g>
   <g id="line2d_66">
    <path d="M 44.804501 13.224267 
L 47.055949 27.96758 
L 49.883543 44.557588 
L 53.264713 62.036279 
L 56.071442 74.913468 
L 57.878111 82.529408 
L 61.581536 96.719764 
L 64.26831 105.973889 
L 66.552346 113.243775 
L 69.843023 122.868852 
L 73.662446 132.946461 
L 77.375336 141.776095 
L 81.292889 150.206444 
L 84.231192 156.008303 
L 85.841578 159.017513 
L 90.055045 166.375682 
L 94.511108 173.435599 
L 98.264417 178.879914 
L 102.701538 184.797499 
L 107.651066 190.817173 
L 112.38138 196.069995 
L 116.24751 200.042783 
L 121.569098 205.094272 
L 127.225864 209.996695 
L 133.708976 215.101072 
L 138.772691 218.75363 
L 142.754138 221.442198 
L 148.537548 225.089006 
L 154.152159 228.36579 
L 160.002444 231.533839 
L 166.6978 234.884901 
L 173.246038 237.910251 
L 180.928672 241.178881 
L 189.119702 244.36966 
L 196.358819 246.966829 
L 206.215273 250.20835 
L 214.349283 252.657773 
L 225.682202 255.774734 
L 236.42345 258.451896 
L 246.932179 260.844738 
L 258.223645 263.197856 
L 269.756944 265.397205 
L 281.536489 267.456803 
L 297.21629 269.944151 
L 311.80438 272.032908 
L 328.25499 274.164903 
L 346.8967 276.335716 
L 367.435971 278.471719 
L 388.704582 280.44502 
L 410.714401 282.271356 
L 434.447319 284.032816 
L 438.525578 284.316262 
L 438.525578 284.316262 
" clip-path="url(#p35e636915e)" style="fill: none; stroke: #0000ff; stroke-width: 2; stroke-linecap: square"/>
   </g>
   <g id="patch_4">
    <path d="M 26.930079 320.461862 
L 26.930079 7.2 
" style="fill: none; stroke: #000000; stroke-width: 0.8; stroke-linejoin: miter; stroke-linecap: square"/>
   </g>
   <g id="patch_5">
    <path d="M 36.930079 314.437595 
L 446.4 314.437595 
" style="fill: none; stroke: #000000; stroke-width: 0.8; stroke-linejoin: miter; stroke-linecap: square"/>
   </g>
  </g>
 </g>
 <defs>
  <clipPath id="p35e636915e">
   <rect x="36.930079" y="7.2" width="409.469921" height="313.261862"/>
  </clipPath>
 </defs>
</svg>
